<?xml version="1.0" encoding="UTF-8" standalone="no"?>
<svg
   width="48"
   height="48"
   viewBox="0 0 48 48"
   version="1.1"
   id="svg26"
   sodipodi:docname="btsync-gui.svg"
   inkscape:version="1.2.1 (9c6d41e410, 2022-07-14)"
   xmlns:inkscape="http://www.inkscape.org/namespaces/inkscape"
   xmlns:sodipodi="http://sodipodi.sourceforge.net/DTD/sodipodi-0.dtd"
   xmlns:xlink="http://www.w3.org/1999/xlink"
   xmlns="http://www.w3.org/2000/svg"
   xmlns:svg="http://www.w3.org/2000/svg">
  <sodipodi:namedview
     id="namedview28"
     pagecolor="#ffffff"
     bordercolor="#666666"
     borderopacity="1.0"
     inkscape:showpageshadow="2"
     inkscape:pageopacity="0.0"
     inkscape:pagecheckerboard="0"
     inkscape:deskcolor="#d1d1d1"
     showgrid="false"
     inkscape:zoom="4.9166667"
     inkscape:cx="24"
     inkscape:cy="24.305085"
     inkscape:window-width="1920"
     inkscape:window-height="1000"
     inkscape:window-x="0"
     inkscape:window-y="0"
     inkscape:window-maximized="1"
     inkscape:current-layer="svg26" />
  <defs
     id="defs14">
    <linearGradient
       id="linearGradient821">
      <stop
         style="stop-color:#333333;stop-opacity:1"
         offset="0"
         id="stop817" />
      <stop
         style="stop-color:#676767;stop-opacity:1;"
         offset="1"
         id="stop819" />
    </linearGradient>
    <linearGradient
       id="linearGradient4176">
      <stop
         style="stop-color:#000000;stop-opacity:1;"
         offset="0"
         id="stop2" />
      <stop
         style="stop-color:#000000;stop-opacity:0;"
         offset="1"
         id="stop4" />
    </linearGradient>
    <linearGradient
       id="linearGradient4717">
      <stop
         style="stop-color:#12375a;stop-opacity:1"
         offset="0"
         id="stop7" />
      <stop
         style="stop-color:#537596;stop-opacity:1"
         offset="1"
         id="stop9" />
    </linearGradient>
    <linearGradient
       xlink:href="#linearGradient821"
       id="linearGradient4723"
       x1="3.999999"
       y1="1048.3624"
       x2="43.999985"
       y2="1008.3624"
       gradientUnits="userSpaceOnUse"
       gradientTransform="matrix(1.0499999,0,0,1.0499999,-1.1999985,-1055.7804)" />
    <linearGradient
       xlink:href="#linearGradient4176"
       id="linearGradient4182"
       x1="16"
       y1="11"
       x2="40"
       y2="35"
       gradientUnits="userSpaceOnUse"
       gradientTransform="matrix(1.0499999,0,0,1.0499999,-1.1999985,-1.1999973)" />
    <linearGradient
       xlink:href="#linearGradient2606"
       id="linearGradient4151"
       gradientUnits="userSpaceOnUse"
       x1="4.0000024"
       y1="43.999989"
       x2="43.999992"
       y2="3.9999998"
       gradientTransform="matrix(1.0499999,0,0,1.0499999,63.884751,-27.23389)" />
    <linearGradient
       id="linearGradient2606">
      <stop
         style="stop-color:#333333;stop-opacity:1"
         offset="0"
         id="stop2602" />
      <stop
         style="stop-color:#999999;stop-opacity:1"
         offset="1"
         id="stop2604" />
    </linearGradient>
    <linearGradient
       inkscape:collect="always"
       xlink:href="#linearGradient847"
       id="linearGradient849"
       x1="40.37009"
       y1="48"
       x2="10"
       y2="0"
       gradientUnits="userSpaceOnUse"
       gradientTransform="translate(8.6999512e-6)" />
    <linearGradient
       inkscape:collect="always"
       id="linearGradient847">
      <stop
         style="stop-color:#1e2b35;stop-opacity:1;"
         offset="0"
         id="stop843" />
      <stop
         style="stop-color:#6d7983;stop-opacity:1;"
         offset="1"
         id="stop845" />
    </linearGradient>
    <linearGradient
       inkscape:collect="always"
       xlink:href="#linearGradient1862"
       id="linearGradient819"
       gradientUnits="userSpaceOnUse"
       gradientTransform="translate(79.044499,49.835243)"
       x1="-70.478798"
       y1="-10.63524"
       x2="-26.831371"
       y2="-52.350529" />
    <linearGradient
       inkscape:collect="always"
       id="linearGradient1862">
      <stop
         style="stop-color:#f1efee;stop-opacity:1;"
         offset="0"
         id="stop1858" />
      <stop
         style="stop-color:#2a7fff;stop-opacity:1"
         offset="1"
         id="stop1860" />
    </linearGradient>
  </defs>
  <rect
     width="41.999985"
     height="41.999985"
     x="3.0000076"
     y="3.0000076"
     ry="20.999992"
     rx="20.999992"
     id="rect16"
     style="fill:url(#linearGradient849);fill-opacity:1" />
  <path
     id="path18-3-9-7"
     d="m 23.740813,8.8000127 c -0.95451,-0.0024 -1.90354,0.344443 -2.58856,1.044168 L 9.7577007,21.481334 c -3.85073,4.75881 2.6207623,4.206245 5.3948723,5.576912 0.99515,1.015104 -3.81361,1.760439 -2.81836,2.7764 0.99514,1.01511 6.01272,1.954454 7.00936,2.969531 0.99514,1.01511 -2.03533,2.093344 -1.04029,3.108351 0.99515,1.015108 3.29476,0.05275 3.72566,2.396118 0.30711,1.674605 4.15167,0.719623 6.02967,-0.651848 0.99514,-1.015896 -1.90235,-0.91631 -0.90725,-1.931415 2.47453,-2.525474 4.77802,-0.921889 5.6248,-3.452498 0.41821,-1.250407 -3.64585,-1.924261 -2.64903,-2.939375 2.86322,-1.668692 12.757946,-2.755921 8.061999,-7.441958 L 26.377383,9.8442117 c -0.72237,-0.692102 -1.68235,-1.042296 -2.63699,-1.044182 z m 0.0968,1.104513 c 0.68155,0.0029 1.36162,0.2600493 1.85065,0.7544483 l 4.51189,4.568987 c 0.42758,0.436007 0.42068,1.277999 0.18146,1.520923 l -2.23774,-1.786575 -0.44153,2.649636 -1.86883,-0.983818 -2.99984,1.883148 -0.99185,-3.977429 -1.60876,2.776399 h -2.45555 c -1.00279,0 -1.12281,-1.269577 -0.21166,-2.178823 1.59153,-1.714353 3.41658,-3.459972 4.40898,-4.472446 0.4988,-0.508821 1.18126,-0.7580873 1.8628,-0.7544503 z m -5.41278,17.7806023 c 0.30459,0.18879 4.91024,1.123456 6.03586,1.309732 0.39022,0.08211 0.11456,0.483551 -0.42335,0.754425 -1.21312,0.321725 -7.09728,-2.06418 -5.61275,-2.06418 z m 17.914469,3.19892 c -0.926829,0.03186 -1.840709,0.502237 -2.092649,1.388251 0,0.577384 4.257839,0.959362 4.257839,-0.132809 -0.3037,-0.877062 -1.23844,-1.287299 -2.16513,-1.255379 z m -19.547499,2.498726 c -1.33601,-0.01175 -2.90031,0.965473 -1.74782,1.961568 1.00949,0.871165 2.56865,-0.220761 3.03612,-1.436475 -0.2751,-0.364787 -0.76546,-0.520254 -1.28827,-0.525093 z m 16.91579,0.07857 c -1.30126,1.164911 0.14462,2.346085 1.42731,1.593444 0.28583,-0.289545 -0.008,-1.303883 -1.42731,-1.593444 z"
     stroke-width="3.03214"
     style="fill:url(#linearGradient819);fill-opacity:1" />
</svg>
