<?xml version="1.0" encoding="UTF-8" standalone="no"?>
<svg
   viewBox="0 0 48 48"
   version="1.1"
   id="svg9928"
   sodipodi:docname="cervisia.svg"
   inkscape:version="1.2.1 (9c6d41e410, 2022-07-14)"
   xmlns:inkscape="http://www.inkscape.org/namespaces/inkscape"
   xmlns:sodipodi="http://sodipodi.sourceforge.net/DTD/sodipodi-0.dtd"
   xmlns:xlink="http://www.w3.org/1999/xlink"
   xmlns="http://www.w3.org/2000/svg"
   xmlns:svg="http://www.w3.org/2000/svg">
  <defs
     id="defs9932">
    <linearGradient
       xlink:href="#linearGradient4141"
       id="linearGradient4151"
       gradientUnits="userSpaceOnUse"
       x1="4.0000024"
       y1="43.999989"
       x2="43.999992"
       y2="3.9999998"
       gradientTransform="matrix(1.0499999,0,0,1.0499999,-1.1999985,-1.1999912)" />
    <linearGradient
       id="linearGradient4141">
      <stop
         style="stop-color:#ffaaaa;stop-opacity:1"
         offset="0"
         id="stop7" />
      <stop
         style="stop-color:#ff5555;stop-opacity:1"
         offset="1"
         id="stop9" />
    </linearGradient>
    <linearGradient
       id="linearGradient4267">
      <stop
         style="stop-color:#6c5548;stop-opacity:1"
         offset="0"
         id="stop2233" />
      <stop
         style="stop-color:#bb9d71;stop-opacity:1"
         offset="1"
         id="stop2235" />
    </linearGradient>
    <linearGradient
       id="linearGradient4349">
      <stop
         style="stop-color:#000000;stop-opacity:1;"
         offset="0"
         id="stop2228" />
      <stop
         style="stop-color:#000000;stop-opacity:0;"
         offset="1"
         id="stop2230" />
    </linearGradient>
    <linearGradient
       id="linearGradient6951">
      <stop
         style="stop-color:#ffa92d;stop-opacity:1"
         offset="0"
         id="stop2239" />
      <stop
         style="stop-color:#cd7223;stop-opacity:1"
         offset="1"
         id="stop2241" />
    </linearGradient>
    <linearGradient
       id="linearGradient4176">
      <stop
         style="stop-color:#6f8181;stop-opacity:1"
         offset="0"
         id="stop2213" />
      <stop
         style="stop-color:#b0b8b8;stop-opacity:1"
         offset="1"
         id="stop2215" />
    </linearGradient>
    <radialGradient
       cx="15.415"
       cy="35.356998"
       r="7.579"
       fx="15.415"
       fy="35.356998"
       id="radialGradient6969-2-2"
       xlink:href="#linearGradient4215"
       gradientUnits="userSpaceOnUse"
       gradientTransform="matrix(-0.13301244,-0.43217082,0.4400097,-0.12407274,96.270001,14.784494)" />
    <linearGradient
       id="linearGradient4215">
      <stop
         offset="0"
         style="stop-color:#334545;stop-opacity:1"
         id="stop2218" />
      <stop
         offset="1"
         style="stop-color:#172525;stop-opacity:1"
         id="stop2220" />
    </linearGradient>
    <radialGradient
       xlink:href="#linearGradient4209"
       id="radialGradient4289-9-9"
       cx="13.5"
       cy="21.5"
       fx="13.5"
       fy="21.5"
       r="4.5"
       gradientUnits="userSpaceOnUse"
       gradientTransform="matrix(0.70835583,0,0,0.70835609,80.540058,-23.621226)" />
    <linearGradient
       id="linearGradient4209">
      <stop
         offset="0"
         style="stop-color:#cfd5d5;stop-opacity:1"
         id="stop2223" />
      <stop
         offset="1"
         style="stop-color:#fcfcfc;stop-opacity:1"
         id="stop2225" />
    </linearGradient>
    <radialGradient
       xlink:href="#linearGradient4215"
       id="radialGradient4335-0-0"
       cx="3.4960001"
       cy="22.823"
       fx="3.4960001"
       fy="22.823"
       r="5.5"
       gradientTransform="matrix(0.70835583,0,0,0.77275206,80.540058,-25.295522)"
       gradientUnits="userSpaceOnUse" />
    <radialGradient
       xlink:href="#linearGradient4209"
       id="radialGradient4281-6-6"
       cx="22"
       cy="22"
       fx="22"
       fy="22"
       r="5"
       gradientUnits="userSpaceOnUse"
       gradientTransform="matrix(0.70835583,0,0,0.70835609,80.540058,-23.621226)" />
    <radialGradient
       xlink:href="#linearGradient4215"
       id="radialGradient4282-2-2"
       cx="23.5"
       cy="22.5"
       fx="23.5"
       fy="22.5"
       r="2.5"
       gradientUnits="userSpaceOnUse"
       gradientTransform="matrix(0.70835583,0,0,0.70835609,80.540058,-23.621226)" />
    <radialGradient
       xlink:href="#linearGradient4215"
       id="radialGradient4290-6-6"
       cx="14.5"
       cy="21.5"
       fx="14.5"
       fy="21.5"
       r="2.5"
       gradientUnits="userSpaceOnUse"
       gradientTransform="matrix(0.56668469,0,0,0.5666849,82.948465,-20.221117)" />
    <linearGradient
       id="linearGradient10725"
       gradientUnits="userSpaceOnUse"
       x1="4"
       x2="4"
       y1="3"
       y2="45"
       gradientTransform="matrix(0.7,0,0,0.7,-46.472111,-64.726388)">
      <stop
         offset="0"
         stop-color="#f10000"
         id="stop9919-0" />
      <stop
         offset="1"
         stop-color="#b20000"
         id="stop9921-6" />
    </linearGradient>
    <linearGradient
       inkscape:collect="always"
       xlink:href="#a"
       id="linearGradient10730"
       gradientUnits="userSpaceOnUse"
       gradientTransform="matrix(0.7,0,0,0.7,7.2,7.2)"
       x1="4"
       y1="3"
       x2="4"
       y2="45" />
  </defs>
  <sodipodi:namedview
     id="namedview9930"
     pagecolor="#ffffff"
     bordercolor="#666666"
     borderopacity="1.0"
     inkscape:showpageshadow="2"
     inkscape:pageopacity="0.0"
     inkscape:pagecheckerboard="0"
     inkscape:deskcolor="#d1d1d1"
     showgrid="false"
     inkscape:zoom="4.9166667"
     inkscape:cx="24"
     inkscape:cy="-8.5423729"
     inkscape:window-width="1920"
     inkscape:window-height="1009"
     inkscape:window-x="0"
     inkscape:window-y="0"
     inkscape:window-maximized="1"
     inkscape:current-layer="svg9928" />
  <linearGradient
     id="a"
     gradientUnits="userSpaceOnUse"
     x1="4"
     x2="4"
     y1="3"
     y2="45"
     gradientTransform="matrix(0.7,0,0,0.7,-46.472111,-64.726388)">
    <stop
       offset="0"
       stop-color="#f10000"
       id="stop9919" />
    <stop
       offset="1"
       stop-color="#b20000"
       id="stop9921" />
  </linearGradient>
  <rect
     style="fill:url(#linearGradient4151);fill-opacity:1;stroke:none;stroke-width:1.05"
     width="41.999985"
     height="41.999985"
     x="3.0000076"
     y="3.0000076"
     ry="20.999992"
     rx="20.999992"
     id="rect16" />
  <path
     d="M 11.680274,10 C 10.749554,10 10,10.749554 10,11.680274 v 5.039452 C 10,17.650446 10.749554,18.4 11.680274,18.4 h 9.939452 C 22.550446,18.4 23.3,17.650446 23.3,16.719726 V 11.680274 C 23.3,10.749554 22.550446,10 21.619726,10 Z m 14.7,0 C 25.449554,10 24.7,10.749554 24.7,11.680274 v 5.039452 C 24.7,17.650446 25.449554,18.4 26.380274,18.4 h 9.939452 C 37.250446,18.4 38,17.650446 38,16.719726 V 11.680274 C 38,10.749554 37.250446,10 36.319726,10 Z m -8.4,9.8 C 17.049554,19.8 16.3,20.549554 16.3,21.480274 v 5.039452 C 16.3,27.450446 17.049554,28.2 17.980274,28.2 h 9.939452 C 28.850446,28.2 29.6,27.450446 29.6,26.519726 V 21.480274 C 29.6,20.549554 28.850446,19.8 27.919726,19.8 Z m 14.7,0 C 31.749554,19.8 31,20.549554 31,21.480274 v 5.039452 C 31,27.450446 31.749554,28.2 32.680274,28.2 H 38 v -8.4 z m -21,9.8 C 10.749554,29.6 10,30.349554 10,31.280274 v 5.039452 C 10,37.250446 10.749554,38 11.680274,38 h 9.939452 C 22.550446,38 23.3,37.250446 23.3,36.319726 V 31.280274 C 23.3,30.349554 22.550446,29.6 21.619726,29.6 Z m 14.7,0 C 25.449554,29.6 24.7,30.349554 24.7,31.280274 v 5.039452 C 24.7,37.250446 25.449554,38 26.380274,38 h 9.939452 C 37.250446,38 38,37.250446 38,36.319726 V 31.280274 C 38,30.349554 37.250446,29.6 36.319726,29.6 Z"
     fill="url(#a)"
     id="path9924-2"
     style="fill:url(#linearGradient10730);stroke-width:0.7" />
  <path
     d="M 21.9,10.028711 V 15.6 c 0,0.7756 -0.6244,1.4 -1.4,1.4 H 10.028711 c 0.13347,0.795519 0.817026,1.4 1.651563,1.4 h 9.939452 C 22.550446,18.4 23.3,17.650446 23.3,16.719726 v -5.039452 c 0,-0.834537 -0.604482,-1.518094 -1.4,-1.651563 z m 14.7,0 V 15.6 c 0,0.7756 -0.6244,1.4 -1.4,1.4 H 24.728711 c 0.13347,0.795519 0.817026,1.4 1.651563,1.4 h 9.939452 C 37.250446,18.4 38,17.650446 38,16.719726 v -5.039452 c 0,-0.834537 -0.604481,-1.518094 -1.4,-1.651563 z m -8.4,9.8 V 25.4 c 0,0.7756 -0.6244,1.4 -1.4,1.4 H 16.328711 c 0.13347,0.795518 0.817026,1.4 1.651563,1.4 h 9.939452 C 28.850446,28.2 29.6,27.450446 29.6,26.519726 v -5.039452 c 0,-0.834537 -0.604481,-1.518093 -1.4,-1.651563 z M 31.028711,26.8 c 0.13347,0.795518 0.817026,1.4 1.651563,1.4 H 38 V 26.8 Z M 21.9,29.628711 V 35.2 c 0,0.7756 -0.6244,1.4 -1.4,1.4 H 10.028711 c 0.13347,0.795518 0.817026,1.4 1.651563,1.4 h 9.939452 C 22.550446,38 23.3,37.250446 23.3,36.319726 v -5.039452 c 0,-0.834537 -0.604482,-1.518093 -1.4,-1.651563 z m 14.7,0 V 35.2 c 0,0.7756 -0.6244,1.4 -1.4,1.4 H 24.728711 c 0.13347,0.795518 0.817026,1.4 1.651563,1.4 h 9.939452 C 37.250446,38 38,37.250446 38,36.319726 v -5.039452 c 0,-0.834537 -0.604481,-1.518093 -1.4,-1.651563 z"
     fill="#101010"
     opacity="0.23"
     id="path9926-6"
     style="stroke-width:0.7" />
</svg>
