<?xml version="1.0" encoding="UTF-8" standalone="no"?>
<svg
   height="48"
   width="48"
   version="1.1"
   id="svg3180"
   sodipodi:docname="network-manager.svg"
   inkscape:version="1.2.1 (9c6d41e410, 2022-07-14)"
   xmlns:inkscape="http://www.inkscape.org/namespaces/inkscape"
   xmlns:sodipodi="http://sodipodi.sourceforge.net/DTD/sodipodi-0.dtd"
   xmlns:xlink="http://www.w3.org/1999/xlink"
   xmlns="http://www.w3.org/2000/svg"
   xmlns:svg="http://www.w3.org/2000/svg">
  <defs
     id="defs3184">
    <linearGradient
       inkscape:collect="always"
       xlink:href="#a"
       id="linearGradient3303"
       gradientUnits="userSpaceOnUse"
       x1="34"
       y1="19.008"
       x2="44"
       y2="29.008"
       gradientTransform="matrix(1.0499999,0,0,1.0499999,-1.1999942,-1.1999996)" />
  </defs>
  <sodipodi:namedview
     id="namedview3182"
     pagecolor="#ffffff"
     bordercolor="#666666"
     borderopacity="1.0"
     inkscape:showpageshadow="2"
     inkscape:pageopacity="0.0"
     inkscape:pagecheckerboard="0"
     inkscape:deskcolor="#d1d1d1"
     showgrid="true"
     inkscape:zoom="13.906433"
     inkscape:cx="22.148023"
     inkscape:cy="27.54121"
     inkscape:window-width="1920"
     inkscape:window-height="1011"
     inkscape:window-x="0"
     inkscape:window-y="0"
     inkscape:window-maximized="1"
     inkscape:current-layer="svg3180">
    <inkscape:grid
       type="xygrid"
       id="grid3305" />
  </sodipodi:namedview>
  <linearGradient
     id="c"
     gradientUnits="userSpaceOnUse"
     x1="9"
     x2="38"
     xlink:href="#a"
     y1="9"
     y2="38"
     gradientTransform="matrix(1.0499999,0,0,1.0499999,-1.1999942,-1.1999996)" />
  <linearGradient
     id="a"
     gradientUnits="userSpaceOnUse"
     x1="34"
     x2="44"
     y1="19.008"
     y2="29.008">
    <stop
       offset="0"
       stop-color="#292c2f"
       id="stop3155" />
    <stop
       offset="1"
       stop-opacity="0"
       id="stop3157" />
  </linearGradient>
  <linearGradient
     id="b"
     gradientUnits="userSpaceOnUse"
     x1="4"
     x2="4"
     y1="44"
     y2="4"
     gradientTransform="matrix(1.0499999,0,0,1.0499999,-1.1999942,-1.1999996)">
    <stop
       offset="0"
       stop-color="#197cf1"
       id="stop3160" />
    <stop
       offset="1"
       stop-color="#20bcfa"
       id="stop3162" />
  </linearGradient>
  <linearGradient
     id="d"
     gradientUnits="userSpaceOnUse"
     x1="4"
     x2="4"
     y1="44"
     y2="4"
     gradientTransform="matrix(1.0499999,0,0,1.0499999,-1.1999942,-1.1999996)">
    <stop
       offset="0"
       stop-color="#54d883"
       id="stop3165" />
    <stop
       offset="1"
       stop-color="#abf9c7"
       id="stop3167" />
  </linearGradient>
  <ellipse
     cx="23.999989"
     cy="23.999992"
     fill="url(#b)"
     id="circle3170"
     style="fill:url(#b);stroke-width:1.05"
     rx="20.999989"
     ry="20.999992" />
  <path
     d="M 24.000006,3.0000003 A 21,21 0 0 0 3.1050058,21.900001 h 3.045 l 3.15,3.15 2.1000002,1.05 11.517442,18.8475 a 21,21 0 0 0 1.082558,0.0525 21,21 0 0 0 21,-21 21,21 0 0 0 -21,-21.0000007 z"
     fill="url(#c)"
     opacity="0.2"
     id="path3172"
     style="fill:url(#c);stroke-width:1.05" />
  <path
     d="m 43.515306,16.264645 -6.9153,9.835356 6.525758,6.525744 a 21,21 0 0 0 1.874242,-8.625744 21,21 0 0 0 -1.428,-7.6083 21,21 0 0 0 -0.0567,-0.127056 z"
     fill="url(#a)"
     fill-rule="evenodd"
     opacity="0.2"
     id="path3174"
     style="fill:url(#linearGradient3303);stroke-width:1.05" />
  <path
     d="m 24.000006,3.0000003 a 21,21 0 0 0 -1.9971,0.1155 21,21 0 0 0 -0.2667,0.0315 21,21 0 0 0 -3.379942,0.66885 v -0.042 A 21,21 0 0 0 8.1712558,10.220845 h 0.0105 a 21,21 0 0 0 -3.759,6.242256 l 1.72725,-0.8631 h 4.2000002 v 1.05 l 1.05,1.05 v -2.1 l 1.05,-1.05 1.05,-1.05 h 1.05 v -1.05 l 1.05,-1.05 2.1,-1.05 1.05,-1.0500007 2.1,-1.05 v 1.05 l 2.1,-1.05 h -1.05 v -1.05 l -1.05,-1.05 h 4.2 l -1.05,1.05 3.15,1.05 -1.05,-2.1 v -2.1 l -0.994358,-0.99435 a 21,21 0 0 0 -1.105642,-0.05565 z m 15.75,7.1505007 v 2.2995 h 1.775542 a 21,21 0 0 0 -1.775542,-2.2995 z m -29.3349,0.07037 h 0.06401 l -0.12911,0.12913 0.06616,-0.129156 z m 31.5252,2.900074 -1.1403,0.379056 -2.1,1.05 v 1.05 l -2.1,2.1 -1.05,2.1 v 4.2 l 1.05,2.1 2.1,1.05 1.05,1.05 4.952842,-0.824256 a 21,21 0 0 0 0.002,-0.02304 21,21 0 0 0 0.219558,-1.839604 21,21 0 0 0 0.0756,-1.5131 21,21 0 0 0 -0.09452,-1.827 21,21 0 0 0 -0.101833,-0.849456 21,21 0 0 0 -0.1995,-1.2957 21,21 0 0 0 -0.141742,-0.6279 21,21 0 0 0 -0.374856,-1.4637 21,21 0 0 0 -0.152249,-0.4536 21,21 0 0 0 -0.565949,-1.546644 21,21 0 0 0 -0.155401,-0.3465 21,21 0 0 0 -0.776999,-1.601256 21,21 0 0 0 -0.496646,-0.8673 z m -35.7903002,6.679056 -1.05,1.05 h -1.05 l -0.6825,-0.6825 a 21,21 0 0 0 0,0.005 21,21 0 0 0 -0.2793,2.075854 21,21 0 0 0 -0.00202,0.0315 l 2.01382,0.670146 2.1,1.05 1.05,1.05 1.05,1.05 h 2.1000002 v 2.1 l -1.05,1.05 -1.0500002,2.1 v 1.05 l 1.0500002,1.05 1.05,1.05 1.05,2.1 1.05,1.05 2.1,1.05 v 4.536 a 21,21 0 0 0 0.006,0.002 21,21 0 0 0 1.781848,0.677244 21,21 0 0 0 0.201601,0.0714 21,21 0 0 0 1.588651,0.4284 21,21 0 0 0 0.473549,0.1218 21,21 0 0 0 1.385999,0.2268 21,21 0 0 0 0.714,0.1092 21,21 0 0 0 1.2075,0.0756 21,21 0 0 0 1.040852,0.05156 21,21 0 0 0 1.0689,-0.03886 l 1.0311,-2.061144 v -1.05 l 2.1,-1.05 1.05,-1.05 1.05,-4.2 1.05,-1.05 v -2.1 l -2.1,-1.05 h -1.05 l -2.1,-1.05 h -1.05 l -1.05,-2.1 -1.05,-1.05 h -2.1 l -2.1,-2.1 h -2.1 l -3.15,-1.05 -1.05,2.1 -2.1,-1.05 H 9.3000058 v -2.1 l -2.1,-1.05 1.05,-2.1 z"
     fill="url(#d)"
     id="path3176"
     style="fill:url(#d);stroke-width:1.05" />
  <path
     d="m 3.0535558,23.475001 c -0.0042,0.1785 -0.05355,0.345444 -0.05355,0.525 0,11.634 9.3660002,21 21.0000002,21 11.634,0 21,-9.366 21,-21 0,-0.179556 -0.04939,-0.3465 -0.05359,-0.525 -0.0315,1.2663 -0.127042,2.5179 -0.3717,3.718044 a 20.8845,20.8845 0 0 1 -5.71304,10.618656 20.9475,20.9475 0 0 1 -6.672758,4.492944 20.807842,20.807844 0 0 1 -3.9459,1.2201 21.2142,21.2142 0 0 1 -4.242,0.4242 c -1.454242,0 -2.873842,-0.145944 -4.242,-0.4242 a 20.8845,20.8845 0 0 1 -10.6186122,-5.713044 20.9475,20.9475 0 0 1 -4.49295,-6.672756 20.807842,20.807844 0 0 1 -1.2201,-3.9459 c -0.24465,-1.200144 -0.33915,-2.451744 -0.3717,-3.718044"
     opacity="0.2"
     id="path3178"
     style="stroke-width:1.05" />
</svg>
