<?xml version="1.0" encoding="UTF-8" standalone="no"?>
<svg
   width="48"
   height="48"
   version="1.1"
   id="svg22"
   sodipodi:docname="solaar.svg"
   inkscape:version="1.3.2 (091e20ef0f, 2023-11-25)"
   xmlns:inkscape="http://www.inkscape.org/namespaces/inkscape"
   xmlns:sodipodi="http://sodipodi.sourceforge.net/DTD/sodipodi-0.dtd"
   xmlns:xlink="http://www.w3.org/1999/xlink"
   xmlns="http://www.w3.org/2000/svg"
   xmlns:svg="http://www.w3.org/2000/svg"
   xmlns:rdf="http://www.w3.org/1999/02/22-rdf-syntax-ns#"
   xmlns:cc="http://creativecommons.org/ns#"
   xmlns:dc="http://purl.org/dc/elements/1.1/">
  <sodipodi:namedview
     pagecolor="#ffffff"
     bordercolor="#666666"
     borderopacity="1"
     objecttolerance="10"
     gridtolerance="10"
     guidetolerance="10"
     inkscape:pageopacity="0"
     inkscape:pageshadow="2"
     inkscape:window-width="1920"
     inkscape:window-height="994"
     id="namedview24"
     showgrid="false"
     inkscape:zoom="4.5906698"
     inkscape:cx="12.852155"
     inkscape:cy="34.526552"
     inkscape:window-x="0"
     inkscape:window-y="0"
     inkscape:window-maximized="1"
     inkscape:current-layer="svg22"
     inkscape:showpageshadow="2"
     inkscape:pagecheckerboard="0"
     inkscape:deskcolor="#d1d1d1" />
  <metadata
     id="metadata2">
    <rdf:RDF>
      <cc:Work
         rdf:about="">
        <dc:format>image/svg+xml</dc:format>
        <dc:type
           rdf:resource="http://purl.org/dc/dcmitype/StillImage" />
      </cc:Work>
    </rdf:RDF>
  </metadata>
  <defs
     id="defs14">
    <filter
       id="filter2761"
       x="-0.024"
       y="-0.024"
       width="1.048"
       height="1.048"
       color-interpolation-filters="sRGB">
      <feGaussianBlur
         stdDeviation="0.14552168"
         id="feGaussianBlur4" />
    </filter>
    <linearGradient
       id="linearGradient4673"
       x1="1.2573"
       x2="15.644"
       y1="15.429"
       y2="1.1082"
       gradientTransform="matrix(3.7796,0,0,3.7796,-98.960821,0.53085)"
       gradientUnits="userSpaceOnUse">
      <stop
         stop-color="#16ff6c"
         offset="0"
         id="stop7" />
      <stop
         stop-color="#28ff61"
         offset=".47728"
         id="stop9" />
      <stop
         stop-color="#9fff1b"
         offset="1"
         id="stop11" />
    </linearGradient>
    <linearGradient
       id="linearGradient3764"
       x1="1"
       x2="47"
       gradientUnits="userSpaceOnUse"
       gradientTransform="rotate(-90,23.999998,24)">
      <stop
         style="stop-color:#43cd50;stop-opacity:1"
         id="stop2" />
      <stop
         offset="1"
         style="stop-color:#54d160;stop-opacity:1"
         id="stop4" />
    </linearGradient>
    <style
       type="text/css"
       id="style876" />
    <style
       type="text/css"
       id="style878" />
    <style
       type="text/css"
       id="style880" />
    <style
       type="text/css"
       id="style882" />
    <filter
       id="filter1057"
       x="-0.026999999"
       y="-0.026999999"
       width="1.054"
       height="1.054"
       color-interpolation-filters="sRGB">
      <feGaussianBlur
         stdDeviation="0.61875"
         id="feGaussianBlur884" />
    </filter>
    <linearGradient
       id="linearGradient1053"
       x1="-127"
       x2="-72"
       y1="60"
       y2="5"
       gradientTransform="translate(131.5,-0.51)"
       gradientUnits="userSpaceOnUse">
      <stop
         stop-color="#02db96"
         offset="0"
         id="stop887"
         style="stop-color:#14ff6e;stop-opacity:1" />
      <stop
         stop-color="#13d39b"
         offset="1"
         id="stop889"
         style="stop-color:#a0ff1e;stop-opacity:1" />
    </linearGradient>
    <style
       type="text/css"
       id="style892" />
    <style
       type="text/css"
       id="style894" />
    <style
       type="text/css"
       id="style896" />
    <linearGradient
       id="a-367"
       gradientUnits="userSpaceOnUse"
       x1="23"
       x2="37"
       y1="20"
       y2="34"
       gradientTransform="matrix(1.9622547,0,0,1.9622547,-116.93982,-48.178796)">
      <stop
         offset="0"
         stop-color="#292c2f"
         id="stop246" />
      <stop
         offset="1"
         stop-opacity="0"
         id="stop248" />
    </linearGradient>
    <linearGradient
       id="c-53"
       gradientTransform="matrix(2.0428665,-6.8308524,5.7819337,2.3633129,25.219113,34.652812)"
       gradientUnits="userSpaceOnUse"
       x1="24"
       x2="24"
       y1="35"
       y2="13">
      <stop
         offset="0"
         stop-color="#23a2cd"
         id="stop256" />
      <stop
         offset=".53"
         stop-color="#00b8f5"
         id="stop258" />
      <stop
         offset="1"
         stop-color="#2ecbff"
         id="stop260" />
    </linearGradient>
    <linearGradient
       id="b"
       x1="1.0583"
       x2="11.642"
       y1="285.07999"
       y2="296.22"
       gradientTransform="matrix(3.9684789,0,0,3.7701975,63.496601,-1110.3683)"
       gradientUnits="userSpaceOnUse">
      <stop
         stop-color="#535a61"
         offset="0"
         id="stop24" />
      <stop
         stop-color="#333c45"
         offset="1"
         id="stop26" />
    </linearGradient>
    <linearGradient
       id="l"
       x1="27.447001"
       x2="25.966"
       y1="289.76001"
       y2="289.76001"
       gradientTransform="matrix(3.741601,0,0,3.8209959,-163.25079,-1114.3625)"
       gradientUnits="userSpaceOnUse">
      <stop
         stop-color="#1881ce"
         offset="0"
         id="stop19" />
      <stop
         stop-color="#2980b9"
         offset="1"
         id="stop21" />
    </linearGradient>
    <linearGradient
       id="i"
       x1="7.8635001"
       x2="11.642"
       y1="288.34"
       y2="292.10999"
       gradientUnits="userSpaceOnUse"
       xlink:href="#a"
       gradientTransform="matrix(3.9684789,0,0,3.9686289,-97.302609,-1160.6764)" />
    <linearGradient
       id="a">
      <stop
         stop-color="#232629"
         offset="0"
         id="stop2-7" />
      <stop
         stop-opacity="0"
         offset="1"
         id="stop4-5" />
    </linearGradient>
    <linearGradient
       id="j"
       x1="10.692"
       x2="34.026001"
       y1="14.134"
       y2="29.068001"
       gradientTransform="matrix(0.98997675,0,0,1.0109685,-94.236919,-27.394731)"
       gradientUnits="userSpaceOnUse">
      <stop
         stop-color="#349cd2"
         offset="0"
         id="stop7-3" />
      <stop
         stop-color="#2694d9"
         offset=".74017"
         id="stop9-5" />
      <stop
         stop-color="#0e6daa"
         offset="1"
         id="stop11-6" />
    </linearGradient>
    <linearGradient
       id="h"
       x1="3.4561"
       x2="9.3148003"
       y1="287.76001"
       y2="293.60999"
       gradientUnits="userSpaceOnUse"
       xlink:href="#a"
       gradientTransform="matrix(3.9684789,0,0,3.9686289,-97.302609,-1160.6764)" />
    <linearGradient
       id="k"
       x1="21.274"
       x2="27.447001"
       y1="291.29999"
       y2="287.35001"
       gradientTransform="matrix(3.741601,0,0,3.8209959,-163.25079,-1114.3625)"
       gradientUnits="userSpaceOnUse">
      <stop
         stop-color="#1d99f3"
         offset="0"
         id="stop14" />
      <stop
         stop-color="#3daee9"
         offset="1"
         id="stop16" />
    </linearGradient>
    <linearGradient
       inkscape:collect="always"
       xlink:href="#linearGradient1193"
       id="linearGradient1373"
       gradientUnits="userSpaceOnUse"
       gradientTransform="translate(-2.4717444e-6)"
       x1="24"
       y1="45"
       x2="20.355091"
       y2="3.3124757" />
    <linearGradient
       inkscape:collect="always"
       id="linearGradient1193">
      <stop
         style="stop-color:#2e384c;stop-opacity:1;"
         offset="0"
         id="stop1189" />
      <stop
         style="stop-color:#43526f;stop-opacity:1;"
         offset="1"
         id="stop1191" />
    </linearGradient>
    <linearGradient
       inkscape:collect="always"
       xlink:href="#linearGradient11"
       id="linearGradient1"
       gradientUnits="userSpaceOnUse"
       x1="29.517408"
       y1="7.7983851"
       x2="29.488047"
       y2="51.897598"
       gradientTransform="matrix(0.9,0,0,0.9,-2.7537635,-2.7904388)" />
    <linearGradient
       id="linearGradient11"
       inkscape:collect="always">
      <stop
         style="stop-color:#acfbfe;stop-opacity:1;"
         offset="0"
         id="stop11-3" />
      <stop
         style="stop-color:#02797e;stop-opacity:1;"
         offset="1"
         id="stop12" />
    </linearGradient>
  </defs>
  <circle
     cx="-1330.8"
     cy="-1261.2"
     r="0"
     fill="#5e4aa6"
     id="circle908" />
  <circle
     cx="-1336.4259"
     cy="-1272.89"
     r="0"
     id="circle910"
     style="fill:#5e4aa6" />
  <circle
     cx="-236.87599"
     cy="-7.4350004"
     r="0"
     fill-rule="evenodd"
     id="circle912"
     style="fill:#5e4aa6" />
  <circle
     cx="-1336.4259"
     cy="-1272.89"
     r="0"
     id="circle914"
     style="fill:#5e4aa6" />
  <circle
     cx="-236.87599"
     cy="-7.4350004"
     r="0"
     fill-rule="evenodd"
     id="circle916"
     style="fill:#5e4aa6" />
  <circle
     cx="-1238.626"
     cy="-1287.89"
     r="0"
     id="circle918"
     style="fill:#5e4aa6" />
  <circle
     cx="-139.05299"
     cy="-22.4156"
     r="0"
     fill-rule="evenodd"
     id="circle920"
     style="fill:#5e4aa6" />
  <g
     transform="matrix(3.7796,0,0,3.7796,80.134,-26.68)"
     stroke-width="0.26458"
     id="g950"
     style="fill:#5e4aa6">
    <g
       transform="translate(-0.0272,0.0065001)"
       id="g938">
      <circle
         cx="-330.35001"
         cy="-328.38"
         r="0"
         id="circle922" />
      <circle
         cx="-312.10999"
         cy="-326.25"
         r="0"
         id="circle924" />
      <circle
         cx="-306.01999"
         cy="-333.07001"
         r="0"
         id="circle926" />
      <circle
         cx="-308.84"
         cy="-326.01001"
         r="0"
         id="circle928" />
      <circle
         cx="-330.35001"
         cy="-328.38"
         r="0"
         id="circle930" />
      <circle
         cx="-312.10999"
         cy="-326.25"
         r="0"
         id="circle932" />
      <circle
         cx="-306.01999"
         cy="-333.07001"
         r="0"
         id="circle934" />
      <circle
         cx="-308.84"
         cy="-326.01001"
         r="0"
         id="circle936" />
    </g>
    <g
       transform="translate(-0.02705,0.0064503)"
       id="g948">
      <circle
         cx="-330.35001"
         cy="-328.38"
         r="0"
         id="circle940" />
      <circle
         cx="-312.10999"
         cy="-326.25"
         r="0"
         id="circle942" />
      <circle
         cx="-306.01999"
         cy="-333.07001"
         r="0"
         id="circle944" />
      <circle
         cx="-308.84"
         cy="-326.01001"
         r="0"
         id="circle946" />
    </g>
  </g>
  <rect
     x="3"
     y="3"
     width="42"
     height="42"
     rx="21"
     ry="21"
     stroke-width="3.41826"
     id="rect739-2"
     style="fill:url(#linearGradient1373);fill-opacity:1" />
  <path
     style="opacity:0.3;fill:#000000;fill-opacity:1;stroke:none;stroke-width:1;stroke-dasharray:none;stroke-opacity:0.3"
     d="m 17.757872,10.579544 -4.150535,2.3958 3.748115,6.490185 a 9.5832001,9.5832001 0 0 0 -2.552555,4.440652 H 7.2973055 v 4.7916 h 7.4985735 a 9.5832001,9.5832001 0 0 0 2.561914,4.433636 l -3.750456,6.4972 4.150535,2.395803 3.750457,-6.497204 a 9.5832001,9.5832001 0 0 0 2.559575,0.357966 9.5832001,9.5832001 0 0 0 2.564255,-0.348593 l 3.745776,6.487846 4.150536,-2.395803 -3.748114,-6.490185 a 9.5832001,9.5832001 0 0 0 2.552554,-4.440651 h 7.505594 V 23.906181 H 33.33993 a 9.5832001,9.5832001 0 0 0 -2.561913,-4.433634 l 3.750454,-6.497203 -4.150536,-2.3958 -3.750455,6.497203 a 9.5832001,9.5832001 0 0 0 -2.559576,-0.357966 9.5832001,9.5832001 0 0 0 -2.564255,0.348609 z m 6.310032,9.732937 a 5.9895001,5.9895001 0 0 1 5.9895,5.9895 5.9895001,5.9895001 0 0 1 -5.9895,5.989499 5.9895001,5.9895001 0 0 1 -5.989499,-5.989499 5.9895001,5.9895001 0 0 1 5.989499,-5.9895 z"
     id="path8-0-0" />
  <path
     d="m 17.757872,8.5795439 -4.150535,2.3958001 3.748115,6.490185 a 9.5832001,9.5832001 0 0 0 -2.552555,4.440652 H 7.2973055 v 4.791601 h 7.4985735 a 9.5832001,9.5832001 0 0 0 2.561914,4.433633 l -3.750456,6.497203 4.150535,2.395799 3.750457,-6.4972 a 9.5832001,9.5832001 0 0 0 2.559575,0.357966 9.5832001,9.5832001 0 0 0 2.564255,-0.34863 l 3.745776,6.487845 4.150536,-2.395799 -3.748114,-6.490184 a 9.5832001,9.5832001 0 0 0 2.552554,-4.440652 h 7.505594 V 21.906181 H 33.33993 A 9.5832001,9.5832001 0 0 0 30.778017,17.472547 L 34.528471,10.975344 30.377935,8.5795439 26.62748,15.076747 a 9.5832001,9.5832001 0 0 0 -2.559576,-0.357966 9.5832001,9.5832001 0 0 0 -2.564255,0.348609 z m 6.310032,9.7329371 a 5.9895001,5.9895001 0 0 1 5.9895,5.9895 5.9895001,5.9895001 0 0 1 -5.9895,5.9895 5.9895001,5.9895001 0 0 1 -5.989499,-5.9895 5.9895001,5.9895001 0 0 1 5.989499,-5.9895 z"
     id="path8-0"
     style="fill:url(#linearGradient1);fill-opacity:1;stroke:#000000;stroke-width:1;stroke-dasharray:none;stroke-opacity:0.3" />
</svg>
