<?xml version="1.0" encoding="UTF-8" standalone="no"?>
<svg
   width="48"
   height="48"
   viewBox="0 0 12.699752 12.699752"
   version="1.1"
   id="svg14"
   sodipodi:docname="jami.svg"
   inkscape:version="1.3.2 (091e20ef0f, 2023-11-25)"
   xmlns:inkscape="http://www.inkscape.org/namespaces/inkscape"
   xmlns:sodipodi="http://sodipodi.sourceforge.net/DTD/sodipodi-0.dtd"
   xmlns="http://www.w3.org/2000/svg"
   xmlns:svg="http://www.w3.org/2000/svg">
  <sodipodi:namedview
     id="namedview14"
     pagecolor="#ffffff"
     bordercolor="#999999"
     borderopacity="1"
     inkscape:showpageshadow="2"
     inkscape:pageopacity="0"
     inkscape:pagecheckerboard="0"
     inkscape:deskcolor="#d1d1d1"
     inkscape:zoom="6.2265625"
     inkscape:cx="31.638645"
     inkscape:cy="35.894605"
     inkscape:window-width="1920"
     inkscape:window-height="994"
     inkscape:window-x="0"
     inkscape:window-y="0"
     inkscape:window-maximized="1"
     inkscape:current-layer="svg14" />
  <defs
     id="defs2">
    <linearGradient
       id="a"
       x1="69.032997"
       x2="64.443001"
       y1="454.92001"
       y2="449.57001"
       gradientTransform="matrix(0.06840958,0,0,0.06914073,5.7283457,-12.414551)"
       gradientUnits="userSpaceOnUse">
      <stop
         offset="0"
         stop-color="#2B3B6A"
         id="stop1" />
      <stop
         offset="1"
         stop-color="#2B3B6A"
         id="stop2" />
    </linearGradient>
  </defs>
  <g
     id="g14"
     transform="translate(-3.9088949,-12.553454)">
    <circle
       cx="10.258771"
       cy="18.90333"
       r="5.5561414"
       id="circle2"
       style="fill:#80e5ff" />
    <path
       fill="url(#a)"
       d="m 10.037123,18.763044 0.485709,-0.01383 -0.246276,0.456328 z"
       class="st0"
       id="path2"
       style="fill:url(#a);stroke-width:0.0687745" />
    <g
       fill="#222856"
       id="g5"
       transform="matrix(0.7777352,0,0,0.7777352,3.6744689,12.319027)">
      <path
         d="m 10.872,8.436 c 2.296,0.373 2.622,0.951 2.622,0.951 v 0.107 c 0,0.018 -0.01,0.036 -0.018,0.062 -0.008,0.026 -0.238,0.507 -1.724,0.827 z"
         class="st1"
         id="path3" />
      <path
         d="m 5.093,10.303 c -0.519,1.396 -0.255,1.831 -0.237,1.867 0.009,0.018 0.017,0.035 0.035,0.044 0.035,0 0.07,-0.009 0.105,-0.018 0,0 0.942,-0.044 2.041,-1.626 z"
         class="st2"
         id="path4" />
      <path
         d="M 8.524,4.978 C 7.266,3.582 6.65,3.662 6.615,3.671 A 0.162,0.162 0 0 0 6.553,3.689 c -0.044,0.018 -0.088,0.16 -0.088,0.16 0,0 -0.263,0.773 0.8,2.836 z"
         class="st3"
         id="path5" />
    </g>
    <g
       fill="#24426c"
       id="g8"
       transform="matrix(0.7777352,0,0,0.7777352,3.6744689,12.319027)">
      <path
         d="m 9.614,10.33 c 1.707,1.973 2.305,1.866 2.305,1.866 a 0.51,0.51 0 0 0 0.114,0.018 c 0.018,-0.009 0.027,-0.026 0.036,-0.044 0.026,-0.036 0.475,-0.848 -1.161,-3.728 z"
         class="st4"
         id="path6" />
      <path
         d="M 7.407,10.632 C 3.888,10.48 3.466,9.6 3.448,9.556 3.448,9.538 3.44,9.521 3.44,9.503 3.448,9.441 3.572,9.325 3.572,9.325 c 0,0 0.932,-0.578 2.489,-0.889 z"
         class="st5"
         id="path7" />
      <path
         d="M 9.843,6.471 C 10.758,4.276 10.406,3.769 10.406,3.769 10.397,3.742 10.388,3.707 10.38,3.68 10.362,3.671 10.344,3.671 10.318,3.662 10.274,3.653 9.313,3.573 7.289,6.436 Z"
         class="st7"
         id="path8" />
    </g>
    <path
       fill="#2072ae"
       d="M 10.271219,21.631623 C 9.2990489,22.696338 8.812187,22.641134 8.7849666,22.641134 A 0.60352245,0.60352245 0 0 1 8.6683054,22.585898 L 7.4783722,21.818279 C 7.9776775,21.707844 8.621642,21.104323 9.2648289,20.336695 Z"
       class="st8"
       id="path9"
       style="stroke-width:0.777737" />
    <path
       fill="#26b1ed"
       d="M 7.6969147,17.532185 C 7.2660497,16.412246 7.4783722,16.059155 7.4923709,16.038934 a 0.36086914,0.36086914 0 0 1 0.095662,-0.08322 l 1.182934,-0.760626 c -0.1026618,0.490752 0.1687693,1.251376 0.5724138,2.129439 z"
       class="st10"
       id="path10"
       style="stroke-width:0.777737" />
    <path
       fill="#26b1ed"
       d="m 10.194223,18.859779 c -0.5949677,0 -1.1899348,0.04822 -1.7786808,0.13066 0.020223,0.035 0.2939837,0.49775 0.4923067,0.808844 1.9023401,2.959287 2.7920711,2.841851 2.8325111,2.83484 a 0.60352245,0.60352245 0 0 0 0.116659,-0.0544 l 1.182931,-0.761434 c -0.807286,-0.17266 -1.928778,-1.507257 -2.845727,-2.959288 z"
       class="st11"
       id="path11"
       style="stroke-width:0.777737" />
    <path
       fill="#0e88c8"
       d="m 12.08723,19.007548 c 0.923947,0.132216 1.732803,0.342205 2.081988,0.695296 v -1.417033 a 0.85550843,0.85550843 0 0 0 -0.014,-0.132216 c -0.0072,-0.02022 -0.219319,-0.397423 -1.334594,-0.639299 z"
       class="st13"
       id="path12"
       style="stroke-width:0.777737" />
    <path
       fill="#0e88c8"
       d="m 11.288496,17.33153 c -0.205322,-0.0078 -0.649409,-0.028 -1.032832,-0.028 -3.4889205,0 -3.8785657,0.816623 -3.892565,0.850842 -0.013223,0.04123 -0.013223,0.08944 -0.013223,0.131438 v 1.423251 c 0.3422043,-0.345315 1.0872751,-0.531971 1.9972261,-0.66963 a 13.803238,13.803238 0 0 1 1.7716799,-0.138437 h 0.328205 c -0.0063,0 1.053831,-1.563247 0.841509,-1.569469 z"
       class="st15"
       id="path13"
       style="stroke-width:0.777737" />
    <path
       fill="#2072ae"
       d="m 10.261886,18.970217 c 0.951947,-1.445031 1.656573,-2.959282 1.477696,-3.782125 l 1.184488,0.760625 a 0.36086914,0.36086914 0 0 1 0.09566,0.08322 c 0.02019,0.03422 0.485315,0.808842 -1.416255,3.767347 -0.136878,0.221653 -0.299425,0.532746 -0.347644,0.553744 -0.279985,-0.276873 -0.829066,-1.133936 -0.972169,-1.334592 a 0.41375514,0.41375514 0 0 1 -0.021,-0.04822 z"
       class="st18"
       id="path14"
       style="stroke-width:0.777737" />
  </g>
</svg>
