<?xml version="1.0" encoding="UTF-8" standalone="no"?>
<svg
   width="48"
   height="48"
   version="1.1"
   id="svg34"
   sodipodi:docname="kblogger.svg"
   inkscape:version="1.2.1 (9c6d41e410, 2022-07-14)"
   xmlns:inkscape="http://www.inkscape.org/namespaces/inkscape"
   xmlns:sodipodi="http://sodipodi.sourceforge.net/DTD/sodipodi-0.dtd"
   xmlns:xlink="http://www.w3.org/1999/xlink"
   xmlns="http://www.w3.org/2000/svg"
   xmlns:svg="http://www.w3.org/2000/svg">
  <sodipodi:namedview
     id="namedview36"
     pagecolor="#ffffff"
     bordercolor="#666666"
     borderopacity="1.0"
     inkscape:showpageshadow="2"
     inkscape:pageopacity="0.0"
     inkscape:pagecheckerboard="0"
     inkscape:deskcolor="#d1d1d1"
     showgrid="false"
     inkscape:zoom="4.9166667"
     inkscape:cx="24"
     inkscape:cy="24"
     inkscape:window-width="1920"
     inkscape:window-height="1009"
     inkscape:window-x="0"
     inkscape:window-y="0"
     inkscape:window-maximized="1"
     inkscape:current-layer="svg34" />
  <defs
     id="defs12">
    <linearGradient
       inkscape:collect="always"
       id="linearGradient1939">
      <stop
         style="stop-color:#ffccaa;stop-opacity:1;"
         offset="0"
         id="stop1935" />
      <stop
         style="stop-color:#ff9955;stop-opacity:1"
         offset="1"
         id="stop1937" />
    </linearGradient>
    <linearGradient
       id="a"
       y1="543.8"
       y2="503.8"
       gradientUnits="userSpaceOnUse"
       x2="0"
       gradientTransform="matrix(1.3125,0,0,1.05,-512.24668,-525.98999)">
      <stop
         stop-color="#f27935"
         id="stop2"
         offset="0"
         style="stop-color:#f8bd9a;stop-opacity:1;" />
      <stop
         offset="1"
         stop-color="#f2784b"
         id="stop4" />
    </linearGradient>
    <linearGradient
       id="b"
       y1="27.13"
       y2="41"
       x1="24.13"
       gradientUnits="userSpaceOnUse"
       x2="38"
       gradientTransform="translate(-1,-1.9999855)">
      <stop
         stop-color="#292c2f"
         id="stop7" />
      <stop
         offset="1"
         stop-opacity="0"
         id="stop9" />
    </linearGradient>
    <linearGradient
       inkscape:collect="always"
       xlink:href="#linearGradient1939"
       id="linearGradient1941"
       x1="3"
       y1="24"
       x2="45"
       y2="24"
       gradientUnits="userSpaceOnUse" />
  </defs>
  <rect
     width="42"
     x="3"
     y="3"
     rx="21"
     height="42"
     id="rect14"
     ry="21"
     style="fill-opacity:1;fill:url(#linearGradient1941)" />
  <path
     opacity="0.2"
     fill="url(#b)"
     d="m 24.01,18.990015 -13.01,-0.991 6,6 -6,2 14,14 h 14 v -6 z m -10.181,12.181 -5.656,5.656 3.207,3.172 h 11.279 z"
     id="path26"
     style="fill:url(#b);stroke-width:6;stroke-linejoin:round;opacity:0.04233757"
     sodipodi:nodetypes="ccccccccccccc" />
  <path
     fill="#ffffff"
     d="m 11,14.000015 v 4 c 8.837,0 16,7.163 16,16 h 4 c 0,-11.05 -8.954,-20 -20,-20 m 0,8 v 4 c 4.418,0 8,3.582 8,8 h 4 c 0,-6.627 -5.373,-12 -12,-12 m 0,8 c -2.209,0 -4,1.791 -4,4 0,2.209 1.791,4 4,4 2.209,0 4,-1.791 4,-4 0,-2.209 -1.791,-4 -4,-4"
     id="path28"
     style="stroke-width:6;stroke-linejoin:round"
     sodipodi:nodetypes="cccccccccccsssc" />
</svg>
