<?xml version="1.0" encoding="UTF-8" standalone="no"?>
<svg
   width="48"
   height="48"
   version="1.1"
   id="svg42"
   sodipodi:docname="gparted.svg"
   inkscape:version="1.2.1 (9c6d41e410, 2022-07-14)"
   xmlns:inkscape="http://www.inkscape.org/namespaces/inkscape"
   xmlns:sodipodi="http://sodipodi.sourceforge.net/DTD/sodipodi-0.dtd"
   xmlns="http://www.w3.org/2000/svg"
   xmlns:svg="http://www.w3.org/2000/svg">
  <sodipodi:namedview
     id="namedview44"
     pagecolor="#ffffff"
     bordercolor="#666666"
     borderopacity="1.0"
     inkscape:showpageshadow="2"
     inkscape:pageopacity="0.0"
     inkscape:pagecheckerboard="0"
     inkscape:deskcolor="#d1d1d1"
     showgrid="false"
     inkscape:zoom="4.9166667"
     inkscape:cx="24"
     inkscape:cy="24"
     inkscape:window-width="1920"
     inkscape:window-height="1011"
     inkscape:window-x="0"
     inkscape:window-y="0"
     inkscape:window-maximized="1"
     inkscape:current-layer="svg42" />
  <defs
     id="defs22">
    <linearGradient
       id="a"
       y1="41"
       y2="7"
       x2="0"
       gradientUnits="userSpaceOnUse">
      <stop
         stop-color="#728790"
         id="stop2" />
      <stop
         offset="1"
         stop-color="#85969e"
         id="stop4" />
    </linearGradient>
    <linearGradient
       id="b"
       y1="36"
       y2="12"
       x2="0"
       gradientUnits="userSpaceOnUse">
      <stop
         stop-color="#06a370"
         id="stop7" />
      <stop
         offset="1"
         stop-color="#22d1b0"
         id="stop9" />
    </linearGradient>
    <linearGradient
       id="c"
       y1="44"
       y2="4"
       x2="0"
       gradientUnits="userSpaceOnUse">
      <stop
         stop-color="#2a2c2f"
         id="stop12" />
      <stop
         offset="1"
         stop-color="#424649"
         id="stop14" />
    </linearGradient>
    <linearGradient
       id="d"
       y1="15"
       x1="15"
       y2="44"
       x2="44"
       gradientUnits="userSpaceOnUse"
       gradientTransform="matrix(1.0498949,0,0,1.0499999,-1.19958,-1.2000001)">
      <stop
         stop-color="#020303"
         id="stop17" />
      <stop
         offset="1"
         stop-color="#424649"
         stop-opacity="0"
         id="stop19" />
    </linearGradient>
  </defs>
  <g
     stroke-opacity="0.55"
     stroke-width="2.8"
     id="g28"
     transform="matrix(1.049895,0,0,1.05,-1.19958,-1.2)">
    <path
       fill="url(#c)"
       d="M 24,4 C 12.92,4 4,12.92 4,24 h 7 c 0,-7.202 5.798,-13 13,-13 z m 13,20 c 0,7.202 -5.798,13 -13,13 v 7 c 11.08,0 20,-8.92 20,-20 z"
       id="path24"
       style="fill:url(#c)" />
    <path
       fill="url(#a)"
       d="M 24,7 C 14.582,7 7,14.582 7,24 c 0,9.418 7.582,17 17,17 9.418,0 17,-7.582 17,-17 H 34 C 34,29.54 29.54,34 24,34 18.46,34 14,29.54 14,24 14,18.46 18.46,14 24,14 Z"
       id="path26"
       style="fill:url(#a)" />
  </g>
  <path
     opacity="0.2"
     fill="url(#d)"
     fill-rule="evenodd"
     d="m 21.89811,14.55 -7.349265,7.35 2.813719,10.5 -1.763824,1.05 11.339912,11.341055 C 36.208179,43.5027 43.49865,36.2115 44.786875,26.941046 L 41.846115,24 H 36.59664 c 0,-3.776853 -1.653588,-7.144199 -4.268873,-9.45 z m 2.09979,2.1 c 4.071493,0 7.349265,3.2781 7.349265,7.35 0,4.0719 -3.277772,7.35 -7.349265,7.35 -4.071493,0 -7.349265,-3.2781 -7.349265,-7.35 0,-4.0719 3.277772,-7.35 7.349265,-7.35"
     id="path30"
     style="fill:url(#d);stroke-width:1.04994" />
  <g
     stroke-opacity="0.55"
     stroke-width="2.8"
     id="g40"
     transform="matrix(1.049895,0,0,1.05,-1.19958,-1.2)">
    <path
       fill="url(#b)"
       d="m 24,12 c -6.648,0 -12,5.352 -12,12 0,6.648 5.352,12 12,12 6.648,0 12,-5.352 12,-12 0,-6.648 -5.352,-12 -12,-12 m 0,5 c 3.878,0 7,3.122 7,7 0,3.878 -3.122,7 -7,7 -3.878,0 -7,-3.122 -7,-7 0,-3.878 3.122,-7 7,-7"
       id="path32"
       style="fill:url(#b)" />
    <g
       fill-opacity="0.118"
       id="g38">
      <path
         d="m 4.03,23 c -0.016,0.332 -0.025,0.664 -0.025,1 h 3 v -1 h -2 z m 39.949,1 c -0.518,10.611 -9.23,19 -19.975,19 v 1 c 11.08,0 20,-8.92 20,-20 z"
         id="path34" />
      <path
         d="m 7,24 c 0,9.418 7.582,17 17,17 9.418,0 17,-7.582 17,-17 H 40.949 C 40.432,32.946 33.08,40 24,40 14.92,40 7.583,32.94 7.064,24 Z"
         id="path36" />
    </g>
  </g>
</svg>
