<?xml version="1.0" encoding="UTF-8" standalone="no"?>
<svg
   xmlns:dc="http://purl.org/dc/elements/1.1/"
   xmlns:cc="http://creativecommons.org/ns#"
   xmlns:rdf="http://www.w3.org/1999/02/22-rdf-syntax-ns#"
   xmlns:svg="http://www.w3.org/2000/svg"
   xmlns="http://www.w3.org/2000/svg"
   xmlns:xlink="http://www.w3.org/1999/xlink"
   xmlns:sodipodi="http://sodipodi.sourceforge.net/DTD/sodipodi-0.dtd"
   xmlns:inkscape="http://www.inkscape.org/namespaces/inkscape"
   width="48"
   height="48"
   viewBox="0 0 48 48"
   version="1.1"
   id="svg52"
   sodipodi:docname="system-file-manager.svg"
   inkscape:version="1.0.1 (3bc2e813f5, 2020-09-07)">
  <metadata
     id="metadata56">
    <rdf:RDF>
      <cc:Work
         rdf:about="">
        <dc:format>image/svg+xml</dc:format>
        <dc:type
           rdf:resource="http://purl.org/dc/dcmitype/StillImage" />
      </cc:Work>
    </rdf:RDF>
  </metadata>
  <sodipodi:namedview
     pagecolor="#ffffff"
     bordercolor="#666666"
     borderopacity="1"
     objecttolerance="10"
     gridtolerance="10"
     guidetolerance="10"
     inkscape:pageopacity="0"
     inkscape:pageshadow="2"
     inkscape:window-width="1920"
     inkscape:window-height="1013"
     id="namedview54"
     showgrid="false"
     inkscape:zoom="4.9166667"
     inkscape:cx="-12.508474"
     inkscape:cy="24"
     inkscape:window-x="0"
     inkscape:window-y="0"
     inkscape:window-maximized="1"
     inkscape:current-layer="svg52"
     inkscape:document-rotation="0" />
  <defs
     id="defs32">
    <linearGradient
       xlink:href="#linearGradient4393"
       id="linearGradient4399"
       x1="424.441"
       y1="502.85"
       x2="440.878"
       y2="529.576"
       gradientUnits="userSpaceOnUse"
       gradientTransform="matrix(0.69224711,0,0,0.69224711,-280.19324,674.76546)" />
    <linearGradient
       id="linearGradient4393">
      <stop
         style="stop-color:#000000;stop-opacity:1;"
         offset="0"
         id="stop3" />
      <stop
         style="stop-color:#000000;stop-opacity:0;"
         offset="1"
         id="stop5" />
    </linearGradient>
    <linearGradient
       xlink:href="#linearGradient4274"
       id="linearGradient4217"
       gradientUnits="userSpaceOnUse"
       gradientTransform="matrix(0.69224711,0,0,0.69224711,-264.27155,2671.7976)"
       x1="390.571"
       y1="498.298"
       x2="442.571"
       y2="498.298" />
    <linearGradient
       id="linearGradient4274">
      <stop
         offset="0"
         style="stop-color:#ffffff;stop-opacity:1;"
         id="stop9" />
      <stop
         offset="1"
         style="stop-color:#ffffff;stop-opacity:0.48760331"
         id="stop11" />
    </linearGradient>
    <linearGradient
       xlink:href="#linearGradient4172-5"
       id="linearGradient4178"
       y1="523.90393"
       y2="524.40479"
       x2="387.82605"
       gradientUnits="userSpaceOnUse"
       gradientTransform="matrix(0.69224711,0,0,0.69202181,-264.27155,671.42636)"
       x1="444.7392" />
    <linearGradient
       id="linearGradient4172-5">
      <stop
         style="stop-color:#fac136;stop-opacity:1"
         id="stop15" />
      <stop
         offset="1"
         style="stop-color:#0078f1;stop-opacity:1"
         id="stop17" />
    </linearGradient>
    <linearGradient
       xlink:href="#linearGradient4227"
       id="linearGradient4225"
       gradientUnits="userSpaceOnUse"
       x1="396.571"
       y1="498.798"
       x2="426.571"
       y2="511.798"
       gradientTransform="matrix(0.69224711,0,0,0.69224711,-264.27155,671.68871)" />
    <linearGradient
       id="linearGradient4227">
      <stop
         offset="0"
         style="stop-color:#f5f5f5;stop-opacity:1"
         id="stop21" />
      <stop
         offset="1"
         style="stop-color:#f9f9f9;stop-opacity:1"
         id="stop23" />
    </linearGradient>
    <linearGradient
       gradientTransform="matrix(0.69224711,0,0,0.69224711,-264.27155,671.30423)"
       xlink:href="#linearGradient4291"
       id="linearGradient4297"
       x1="388.571"
       y1="487.798"
       x2="416.571"
       y2="507.798"
       gradientUnits="userSpaceOnUse" />
    <linearGradient
       id="linearGradient4291">
      <stop
         style="stop-color:#00bcd4;stop-opacity:1"
         offset="0"
         id="stop27" />
      <stop
         style="stop-color:#fac136;stop-opacity:1"
         offset="1"
         id="stop29" />
    </linearGradient>
    <linearGradient
       inkscape:collect="always"
       xlink:href="#linearGradient838"
       id="linearGradient840"
       x1="100.29754"
       y1="390.20538"
       x2="317.87994"
       y2="218.15271"
       gradientUnits="userSpaceOnUse" />
    <linearGradient
       inkscape:collect="always"
       id="linearGradient838">
      <stop
         style="stop-color:#fac136;stop-opacity:1"
         offset="0"
         id="stop834" />
      <stop
         style="stop-color:#006dda;stop-opacity:1"
         offset="1"
         id="stop836" />
    </linearGradient>
    <linearGradient
       inkscape:collect="always"
       xlink:href="#linearGradient838"
       id="linearGradient848"
       x1="320"
       y1="187.5"
       x2="439"
       y2="187.5"
       gradientUnits="userSpaceOnUse" />
    <linearGradient
       inkscape:collect="always"
       xlink:href="#linearGradient838"
       id="linearGradient856"
       x1="320"
       y1="227.5"
       x2="439"
       y2="227.5"
       gradientUnits="userSpaceOnUse" />
  </defs>
  <g
     id="g8"
     transform="matrix(0.07957735,0,0,0.07912088,4.52967,4.7673326)">
    <path
       d="M 439.5,84 H 234.729 L 198.09,45.279 C 182.464,28.269 164.607,20 143.5,20 h -88 C 24.897,20 0,44.897 0,75.5 v 344 C 0,450.103 24.897,475 55.5,475 h 384 c 30.603,0 55.5,-24.897 55.5,-55.5 v -280 C 495,108.897 470.103,84 439.5,84 Z M 480,419.5 c 0,22.332 -18.168,40.5 -40.5,40.5 H 55.5 C 33.168,460 15,441.832 15,419.5 v -232 C 15,165.168 33.168,147 55.5,147 h 384 c 22.332,0 40.5,18.168 40.5,40.5 z M 439.5,132 H 55.5 C 39.536,132 25.135,138.784 15,149.61 V 75.5 C 15,53.168 33.168,35 55.5,35 h 88 c 16.92,0 30.768,6.503 43.579,20.465 0.026,0.028 0.052,0.057 0.079,0.084 l 38.895,41.105 C 227.469,98.151 229.439,99 231.5,99 h 208 c 22.332,0 40.5,18.168 40.5,40.5 v 10.11 C 469.865,138.784 455.464,132 439.5,132 Z"
       id="path2"
       style="fill:url(#linearGradient840);fill-opacity:1" />
    <path
       d="m 431.5,180 h -104 c -4.142,0 -7.5,3.357 -7.5,7.5 0,4.143 3.358,7.5 7.5,7.5 h 104 c 4.142,0 7.5,-3.357 7.5,-7.5 0,-4.143 -3.358,-7.5 -7.5,-7.5 z"
       id="path4-3"
       style="fill:url(#linearGradient848);fill-opacity:1" />
    <path
       d="m 431.5,220 h -104 c -4.142,0 -7.5,3.357 -7.5,7.5 0,4.143 3.358,7.5 7.5,7.5 h 104 c 4.142,0 7.5,-3.357 7.5,-7.5 0,-4.143 -3.358,-7.5 -7.5,-7.5 z"
       id="path6-6"
       style="fill:url(#linearGradient856);fill-opacity:1" />
  </g>
</svg>
