<?xml version="1.0" encoding="UTF-8" standalone="no"?>
<svg
   width="48"
   height="48"
   version="1.1"
   id="svg40"
   sodipodi:docname="system-help.svg"
   inkscape:version="1.2.1 (9c6d41e410, 2022-07-14)"
   xmlns:inkscape="http://www.inkscape.org/namespaces/inkscape"
   xmlns:sodipodi="http://sodipodi.sourceforge.net/DTD/sodipodi-0.dtd"
   xmlns="http://www.w3.org/2000/svg"
   xmlns:svg="http://www.w3.org/2000/svg">
  <sodipodi:namedview
     id="namedview42"
     pagecolor="#ffffff"
     bordercolor="#666666"
     borderopacity="1.0"
     inkscape:showpageshadow="2"
     inkscape:pageopacity="0.0"
     inkscape:pagecheckerboard="0"
     inkscape:deskcolor="#d1d1d1"
     showgrid="false"
     inkscape:zoom="4.9166667"
     inkscape:cx="24"
     inkscape:cy="24"
     inkscape:window-width="1920"
     inkscape:window-height="1011"
     inkscape:window-x="0"
     inkscape:window-y="0"
     inkscape:window-maximized="1"
     inkscape:current-layer="svg40" />
  <defs
     id="defs22">
    <linearGradient
       id="a"
       y1="542.69"
       y2="503.8"
       x2="0"
       gradientUnits="userSpaceOnUse">
      <stop
         stop-color="#c6cdd1"
         id="stop2" />
      <stop
         offset="1"
         stop-color="#e0e5e7"
         id="stop4" />
    </linearGradient>
    <linearGradient
       id="b"
       y1="44"
       y2="4"
       gradientUnits="userSpaceOnUse"
       x2="0"
       gradientTransform="matrix(0.99794,0,0,1.0073,-383.81,-503.28)">
      <stop
         stop-color="#cea476"
         id="stop7" />
      <stop
         offset="1"
         stop-color="#dab58b"
         id="stop9" />
    </linearGradient>
    <linearGradient
       id="c"
       y1="42"
       y2="6"
       x2="0"
       gradientUnits="userSpaceOnUse">
      <stop
         stop-color="#c61423"
         id="stop12" />
      <stop
         offset="1"
         stop-color="#dc2b41"
         id="stop14" />
    </linearGradient>
    <linearGradient
       id="d"
       y1="503.8"
       x1="399.57"
       y2="528.8"
       x2="424.57"
       gradientUnits="userSpaceOnUse"
       gradientTransform="translate(-384.57,-499.8)">
      <stop
         stop-color="#292c2f"
         id="stop17" />
      <stop
         offset="1"
         stop-opacity="0"
         id="stop19" />
    </linearGradient>
  </defs>
  <g
     transform="matrix(1.0499475,0,0,1.0498688,-404.976,-525.9239)"
     id="g38">
    <path
       stroke-opacity="0.55"
       fill="url(#a)"
       stroke-width="2.8"
       d="m 408.57,503.8 c -11.08,0 -20,8.92 -20,20 0,11.08 8.92,20 20,20 11.08,0 20,-8.92 20,-20 0,-11.08 -8.92,-20 -20,-20 m 0,11.11 c 4.924,0 8.889,3.964 8.889,8.889 0,4.924 -3.964,8.889 -8.889,8.889 -4.924,0 -8.889,-3.964 -8.889,-8.889 0,-4.924 3.964,-8.889 8.889,-8.889"
       id="path24"
       style="fill:url(#a)" />
    <path
       fill="url(#c)"
       fill-rule="evenodd"
       d="m 15.223,6.04 c -4.506,2.197 -8.05,6.03 -9.865,10.738 l 9.898,5.656 c 0.56,-3.162 2.777,-5.729 5.73,-6.789 z m 17.555,0 -5.764,9.605 c 2.954,1.06 5.171,3.627 5.73,6.789 l 9.898,-5.656 C 40.824,12.066 37.283,8.237 32.777,6.04 M 15.256,25.571 5.358,31.227 c 1.818,4.712 5.359,8.541 9.865,10.738 l 5.764,-9.605 c -2.954,-1.06 -5.171,-3.627 -5.73,-6.789 m 17.488,0 c -0.56,3.162 -2.777,5.729 -5.73,6.789 l 5.764,9.605 c 4.506,-2.197 8.05,-6.03 9.865,-10.738 z"
       transform="translate(384.57,499.8)"
       id="path26"
       style="fill:url(#c)" />
    <g
       transform="translate(384.57,499.8)"
       id="g34">
      <path
         stroke-opacity="0.55"
         fill="#99a1a7"
         stroke-width="2.8"
         d="m 4.01,23.5 c -0.004,0.167 -0.012,0.332 -0.012,0.5 0,11.08 8.92,20 20,20 11.08,0 20,-8.92 20,-20 0,-0.168 -0.008,-0.333 -0.012,-0.5 C 43.721,34.346 34.906,43 23.998,43 13.086,43 4.274,34.346 4.01,23.5"
         id="path28" />
      <path
         opacity="0.2"
         fill="url(#d)"
         fill-rule="evenodd"
         d="M 11,10 10.195,13 8,17 l -1,3 -1,4 1,4 3,9 H 9 l 2.975,2.975 c 3.345,2.518 7.498,4.03 12.03,4.03 6.05,0 11.446,-2.672 15.11,-6.893 L 31.213,29.21 c -1.612,2.232 -4.23,3.684 -7.205,3.684 -4.924,0 -8.889,-3.964 -8.889,-8.889 0,-2.975 1.452,-5.593 3.684,-7.205 l -6.795,-6.795 z"
         id="path30"
         style="fill:url(#d)" />
      <path
         stroke-opacity="0.55"
         fill="url(#b)"
         stroke-width="2.8"
         d="m 10.5,11 c -0.277,0 -0.5,0.223 -0.5,0.5 0,0.174 0.093,0.319 0.227,0.408 -2.657,3.418 -4.264,7.711 -4.264,12.412 0,4.567 1.53,8.737 4.053,12.11 C 10.012,36.455 10,36.478 10,36.504 c 0,0.277 0.223,0.5 0.5,0.5 0.277,0 0.5,-0.223 0.5,-0.5 0,-0.032 -0.012,-0.061 -0.018,-0.092 h 0.16 C 11.096,36.274 11.034,36.152 10.953,36.07 8.458,32.83 6.961,28.763 6.961,24.324 c 0,-0.555 0.025,-1.104 0.07,-1.646 0.321,-3.797 1.739,-7.263 3.922,-10.1 0.339,-0.342 0.388,-1.35 0,-1.576 -0.039,0.045 -0.073,0.094 -0.111,0.139 -0.089,-0.085 -0.208,-0.139 -0.342,-0.139 m 26.473,0 c -0.388,0.226 -0.339,1.234 0,1.576 2.183,2.835 3.601,6.301 3.922,10.1 0.046,0.542 0.07,1.092 0.07,1.646 0,4.439 -1.497,8.506 -3.992,11.746 -0.081,0.082 -0.144,0.204 -0.189,0.342 h 0.115 l 0.104,0.105 c 0.007,0.264 0.217,0.473 0.48,0.482 l 0.004,0.004 0.002,-0.002 c 0.004,0 0.008,0.002 0.012,0.002 0.277,0 0.5,-0.223 0.5,-0.5 0,-0.054 -0.016,-0.104 -0.031,-0.152 2.488,-3.355 3.994,-7.496 3.994,-12.03 0,-4.686 -1.596,-8.966 -4.238,-12.379 0.162,-0.083 0.275,-0.246 0.275,-0.441 0,-0.277 -0.223,-0.5 -0.5,-0.5 -0.155,0 -0.287,0.075 -0.379,0.186 -0.051,-0.06 -0.096,-0.126 -0.148,-0.186"
         id="path32"
         style="fill:url(#b)" />
    </g>
    <path
       stroke-opacity="0.55"
       fill="#7e1722"
       stroke-width="2.8"
       d="m 395.07,509.8 c -0.831,0 -1.5,0.669 -1.5,1.5 0,0.831 0.669,1.5 1.5,1.5 0.831,0 1.5,-0.669 1.5,-1.5 0,-0.831 -0.669,-1.5 -1.5,-1.5 m 27,0 c -0.831,0 -1.5,0.669 -1.5,1.5 0,0.831 0.669,1.5 1.5,1.5 0.831,0 1.5,-0.669 1.5,-1.5 0,-0.831 -0.669,-1.5 -1.5,-1.5 m -27,1 c 0.277,0 0.5,0.223 0.5,0.5 0,0.277 -0.223,0.5 -0.5,0.5 -0.277,0 -0.5,-0.223 -0.5,-0.5 0,-0.277 0.223,-0.5 0.5,-0.5 m 27,0 c 0.277,0 0.5,0.223 0.5,0.5 0,0.277 -0.223,0.5 -0.5,0.5 -0.277,0 -0.5,-0.223 -0.5,-0.5 0,-0.277 0.223,-0.5 0.5,-0.5 m -27,24 c -0.831,0 -1.5,0.669 -1.5,1.5 0,0.831 0.669,1.5 1.5,1.5 0.831,0 1.5,-0.669 1.5,-1.5 0,-0.831 -0.669,-1.5 -1.5,-1.5 m 27,0 c -0.831,0 -1.5,0.669 -1.5,1.5 0,0.831 0.669,1.5 1.5,1.5 0.831,0 1.5,-0.669 1.5,-1.5 0,-0.831 -0.669,-1.5 -1.5,-1.5 m -27,1 c 0.277,0 0.5,0.223 0.5,0.5 0,0.277 -0.223,0.5 -0.5,0.5 -0.277,0 -0.5,-0.223 -0.5,-0.5 0,-0.277 0.223,-0.5 0.5,-0.5 m 27,0 c 0.277,0 0.5,0.223 0.5,0.5 0,0.277 -0.223,0.5 -0.5,0.5 -0.277,0 -0.5,-0.223 -0.5,-0.5 0,-0.277 0.223,-0.5 0.5,-0.5"
       id="path36" />
  </g>
</svg>
