<?xml version="1.0" encoding="UTF-8" standalone="no"?>
<svg
   inkscape:version="1.2.2 (b0a8486541, 2022-12-01)"
   sodipodi:docname="folder-inkscape.svg"
   id="svg14"
   version="1.1"
   viewBox="0 0 32 32"
   xmlns:inkscape="http://www.inkscape.org/namespaces/inkscape"
   xmlns:sodipodi="http://sodipodi.sourceforge.net/DTD/sodipodi-0.dtd"
   xmlns:xlink="http://www.w3.org/1999/xlink"
   xmlns="http://www.w3.org/2000/svg"
   xmlns:svg="http://www.w3.org/2000/svg"
   xmlns:rdf="http://www.w3.org/1999/02/22-rdf-syntax-ns#"
   xmlns:cc="http://creativecommons.org/ns#"
   xmlns:dc="http://purl.org/dc/elements/1.1/">
  <metadata
     id="metadata18">
    <rdf:RDF>
      <cc:Work
         rdf:about="">
        <dc:format>image/svg+xml</dc:format>
        <dc:type
           rdf:resource="http://purl.org/dc/dcmitype/StillImage" />
      </cc:Work>
    </rdf:RDF>
  </metadata>
  <sodipodi:namedview
     inkscape:document-rotation="0"
     inkscape:current-layer="svg14"
     inkscape:window-maximized="1"
     inkscape:window-y="0"
     inkscape:window-x="0"
     inkscape:cy="28"
     inkscape:cx="-24.542373"
     inkscape:zoom="7.375"
     showgrid="false"
     id="namedview16"
     inkscape:window-height="1002"
     inkscape:window-width="1920"
     inkscape:pageshadow="2"
     inkscape:pageopacity="0"
     guidetolerance="10"
     gridtolerance="10"
     objecttolerance="10"
     borderopacity="1"
     bordercolor="#666666"
     pagecolor="#ffffff"
     showguides="false"
     inkscape:showpageshadow="2"
     inkscape:pagecheckerboard="0"
     inkscape:deskcolor="#d1d1d1" />
  <defs
     id="defs3051">
    <linearGradient
       inkscape:collect="always"
       id="linearGradient2553">
      <stop
         style="stop-color:#deaa87;stop-opacity:1;"
         offset="0"
         id="stop2549" />
      <stop
         style="stop-color:#8d5fd3;stop-opacity:1;"
         offset="1"
         id="stop2551" />
    </linearGradient>
    <style
       id="current-color-scheme"
       type="text/css">
      .ColorScheme-Text {
        color:#31363b;
      }
      .ColorScheme-Background {
        color:#eff0f1;
      }
      .ColorScheme-Highlight {
        color:#3daee9;
      }
      .ColorScheme-ViewText {
        color:#31363b;
      }
      .ColorScheme-ViewBackground {
        color:#fcfcfc;
      }
      .ColorScheme-ViewHover {
        color:#93cee9;
      }
      .ColorScheme-ViewFocus{
        color:#3daee9;
      }
      .ColorScheme-ButtonText {
        color:#31363b;
      }
      .ColorScheme-ButtonBackground {
        color:#eff0f1;
      }
      .ColorScheme-ButtonHover {
        color:#93cee9;
      }
      .ColorScheme-ButtonFocus{
        color:#3daee9;
      }
      </style>
    <linearGradient
       inkscape:collect="always"
       xlink:href="#linearGradient2553"
       id="linearGradient880"
       x1="81.095505"
       y1="406.75525"
       x2="292.51636"
       y2="186.8934"
       gradientUnits="userSpaceOnUse" />
    <linearGradient
       inkscape:collect="always"
       xlink:href="#linearGradient2553"
       id="linearGradient844"
       x1="320"
       y1="187.5"
       x2="439"
       y2="187.5"
       gradientUnits="userSpaceOnUse" />
    <linearGradient
       inkscape:collect="always"
       xlink:href="#linearGradient2553"
       id="linearGradient852"
       x1="320"
       y1="227.5"
       x2="439"
       y2="227.5"
       gradientUnits="userSpaceOnUse" />
    <linearGradient
       inkscape:collect="always"
       xlink:href="#linearGradient2553"
       id="linearGradient1432"
       x1="21.56192"
       y1="42.049"
       x2="42.561932"
       y2="42.049"
       gradientUnits="userSpaceOnUse"
       gradientTransform="matrix(0.52380942,0,0,0.52380942,-0.58552275,-0.58498528)" />
  </defs>
  <g
     id="g8"
     transform="matrix(0.05714286,0,0,0.05714286,2.0659532,2.2289435)">
    <path
       d="M 439.5,84 H 234.729 L 198.09,45.279 C 182.464,28.269 164.607,20 143.5,20 h -88 C 24.897,20 0,44.897 0,75.5 v 344 C 0,450.103 24.897,475 55.5,475 h 384 c 30.603,0 55.5,-24.897 55.5,-55.5 v -280 C 495,108.897 470.103,84 439.5,84 Z M 480,419.5 c 0,22.332 -18.168,40.5 -40.5,40.5 H 55.5 C 33.168,460 15,441.832 15,419.5 v -232 C 15,165.168 33.168,147 55.5,147 h 384 c 22.332,0 40.5,18.168 40.5,40.5 z M 439.5,132 H 55.5 C 39.536,132 25.135,138.784 15,149.61 V 75.5 C 15,53.168 33.168,35 55.5,35 h 88 c 16.92,0 30.768,6.503 43.579,20.465 0.026,0.028 0.052,0.057 0.079,0.084 l 38.895,41.105 C 227.469,98.151 229.439,99 231.5,99 h 208 c 22.332,0 40.5,18.168 40.5,40.5 v 10.11 C 469.865,138.784 455.464,132 439.5,132 Z"
       id="path2"
       style="fill:url(#linearGradient880);fill-opacity:1" />
    <path
       d="m 431.5,180 h -104 c -4.142,0 -7.5,3.357 -7.5,7.5 0,4.143 3.358,7.5 7.5,7.5 h 104 c 4.142,0 7.5,-3.357 7.5,-7.5 0,-4.143 -3.358,-7.5 -7.5,-7.5 z"
       id="path4-3"
       style="fill:url(#linearGradient844);fill-opacity:1.0" />
    <path
       d="m 431.5,220 h -104 c -4.142,0 -7.5,3.357 -7.5,7.5 0,4.143 3.358,7.5 7.5,7.5 h 104 c 4.142,0 7.5,-3.357 7.5,-7.5 0,-4.143 -3.358,-7.5 -7.5,-7.5 z"
       id="path6-6"
       style="fill:url(#linearGradient852);fill-opacity:1.0" />
  </g>
  <path
     id="path18-3-9-7"
     d="m 16.116443,15.94068 c -0.340131,-5.24e-4 -0.678336,0.124628 -0.922435,0.377855 l -4.060421,4.21079 c -1.3722367,1.721916 0.933887,1.522022 1.922449,2.017964 0.354647,0.367269 -1.358975,0.637043 -1.004335,1.004616 0.354612,0.367348 2.142643,0.70724 2.497813,1.074531 0.354608,0.367304 -0.72532,0.757446 -0.3707,1.12469 0.354619,0.367297 1.17403,0.01907 1.327609,0.867028 0.109422,0.605938 1.479482,0.26037 2.14871,-0.235849 0.35463,-0.367585 -0.677918,-0.331583 -0.323311,-0.698854 0.881791,-0.913838 1.702654,-0.33363 2.00437,-1.249261 0.149022,-0.452457 -1.299192,-0.696285 -0.944006,-1.063575 1.020365,-0.603891 4.546348,-0.997274 2.872893,-2.692822 L 17.056035,16.318535 C 16.79862,16.068087 16.4565,15.94136 16.116297,15.940685 Z m 0.03461,0.399662 c 0.242859,7.86e-4 0.485194,0.09412 0.659504,0.272986 l 1.607796,1.653295 c 0.152376,0.157716 0.14993,0.462371 0.06467,0.550289 L 17.685567,18.1705 17.528223,19.129213 16.862272,18.773259 15.793298,19.454624 15.439856,18.01545 14.866543,19.020077 H 13.99149 c -0.357289,0 -0.400112,-0.459427 -0.07536,-0.788417 0.567183,-0.620343 1.217507,-1.251999 1.571142,-1.618332 0.17776,-0.184096 0.420951,-0.274274 0.663812,-0.272986 z m -1.928826,6.433804 c 0.108551,0.0683 1.74977,0.406462 2.150877,0.473929 0.13904,0.0297 0.0407,0.174959 -0.150852,0.272979 -0.432274,0.11642 -2.529172,-0.746914 -2.000103,-0.746914 z m 6.383848,1.157478 c -0.330326,0.01176 -0.655993,0.181735 -0.745767,0.502346 0,0.208941 1.517335,0.347133 1.517335,-0.04793 -0.108237,-0.317427 -0.44137,-0.465839 -0.771538,-0.4543 z m -6.965819,0.90419 c -0.476073,-0.0059 -1.033514,0.34933 -0.622806,0.709744 0.359755,0.315194 0.915319,-0.07979 1.08189,-0.519774 -0.09801,-0.131998 -0.272755,-0.188244 -0.45907,-0.18997 z m 6.028,0.02809 c -0.463689,0.421499 0.05157,0.848865 0.508589,0.576591 0.101857,-0.104778 -0.0059,-0.471793 -0.508589,-0.576591 z"
     stroke-width="1.08887"
     style="color:#eff0f1;fill:url(#linearGradient1432);fill-opacity:1"
     class="ColorScheme-Text" />
</svg>
