<?xml version="1.0" encoding="UTF-8" standalone="no"?>
<svg
   xmlns:dc="http://purl.org/dc/elements/1.1/"
   xmlns:cc="http://creativecommons.org/ns#"
   xmlns:rdf="http://www.w3.org/1999/02/22-rdf-syntax-ns#"
   xmlns:svg="http://www.w3.org/2000/svg"
   xmlns="http://www.w3.org/2000/svg"
   xmlns:xlink="http://www.w3.org/1999/xlink"
   xmlns:sodipodi="http://sodipodi.sourceforge.net/DTD/sodipodi-0.dtd"
   xmlns:inkscape="http://www.inkscape.org/namespaces/inkscape"
   inkscape:version="1.0.1 (3bc2e813f5, 2020-09-07)"
   sodipodi:docname="folder-KDE.svg"
   id="svg14"
   version="1.1"
   viewBox="0 0 32 32">
  <metadata
     id="metadata18">
    <rdf:RDF>
      <cc:Work
         rdf:about="">
        <dc:format>image/svg+xml</dc:format>
        <dc:type
           rdf:resource="http://purl.org/dc/dcmitype/StillImage" />
        <dc:title></dc:title>
      </cc:Work>
    </rdf:RDF>
  </metadata>
  <sodipodi:namedview
     inkscape:document-rotation="0"
     inkscape:current-layer="svg14"
     inkscape:window-maximized="1"
     inkscape:window-y="0"
     inkscape:window-x="0"
     inkscape:cy="27.963416"
     inkscape:cx="-18.124925"
     inkscape:zoom="7.375"
     showgrid="false"
     id="namedview16"
     inkscape:window-height="1012"
     inkscape:window-width="1920"
     inkscape:pageshadow="2"
     inkscape:pageopacity="0"
     guidetolerance="10"
     gridtolerance="10"
     objecttolerance="10"
     borderopacity="1"
     bordercolor="#666666"
     pagecolor="#ffffff"
     showguides="false" />
  <defs
     id="defs3051">
    <linearGradient
       inkscape:collect="always"
       id="linearGradient850">
      <stop
         style="stop-color:#7f2aff;stop-opacity:1"
         offset="0"
         id="stop846" />
      <stop
         style="stop-color:#008080;stop-opacity:1"
         offset="1"
         id="stop848" />
    </linearGradient>
    <style
       id="current-color-scheme"
       type="text/css">
      .ColorScheme-Text {
        color:#31363b;
      }
      .ColorScheme-Background {
        color:#eff0f1;
      }
      .ColorScheme-Highlight {
        color:#3daee9;
      }
      .ColorScheme-ViewText {
        color:#31363b;
      }
      .ColorScheme-ViewBackground {
        color:#fcfcfc;
      }
      .ColorScheme-ViewHover {
        color:#93cee9;
      }
      .ColorScheme-ViewFocus{
        color:#3daee9;
      }
      .ColorScheme-ButtonText {
        color:#31363b;
      }
      .ColorScheme-ButtonBackground {
        color:#eff0f1;
      }
      .ColorScheme-ButtonHover {
        color:#93cee9;
      }
      .ColorScheme-ButtonFocus{
        color:#3daee9;
      }
      </style>
    <linearGradient
       inkscape:collect="always"
       xlink:href="#linearGradient850"
       id="linearGradient880"
       x1="5.1633053"
       y1="311.61862"
       x2="491.16754"
       y2="295.98996"
       gradientUnits="userSpaceOnUse" />
    <linearGradient
       inkscape:collect="always"
       xlink:href="#linearGradient850"
       id="linearGradient844"
       x1="320"
       y1="187.5"
       x2="439"
       y2="187.5"
       gradientUnits="userSpaceOnUse" />
    <linearGradient
       inkscape:collect="always"
       xlink:href="#linearGradient850"
       id="linearGradient852"
       x1="320"
       y1="227.5"
       x2="439"
       y2="227.5"
       gradientUnits="userSpaceOnUse" />
    <radialGradient
       gradientUnits="userSpaceOnUse"
       gradientTransform="matrix(0.48095027,0,0,0.50494837,8.4632158,13.28887)"
       r="10.000977"
       fy="15.499997"
       fx="16.000977"
       cy="15.499997"
       cx="16.000977"
       id="radialGradient860"
       xlink:href="#linearGradient850"
       inkscape:collect="always" />
  </defs>
  <g
     id="g8"
     transform="matrix(0.05714286,0,0,0.05714286,2.0659532,2.2289435)">
    <path
       d="M 439.5,84 H 234.729 L 198.09,45.279 C 182.464,28.269 164.607,20 143.5,20 h -88 C 24.897,20 0,44.897 0,75.5 v 344 C 0,450.103 24.897,475 55.5,475 h 384 c 30.603,0 55.5,-24.897 55.5,-55.5 v -280 C 495,108.897 470.103,84 439.5,84 Z M 480,419.5 c 0,22.332 -18.168,40.5 -40.5,40.5 H 55.5 C 33.168,460 15,441.832 15,419.5 v -232 C 15,165.168 33.168,147 55.5,147 h 384 c 22.332,0 40.5,18.168 40.5,40.5 z M 439.5,132 H 55.5 C 39.536,132 25.135,138.784 15,149.61 V 75.5 C 15,53.168 33.168,35 55.5,35 h 88 c 16.92,0 30.768,6.503 43.579,20.465 0.026,0.028 0.052,0.057 0.079,0.084 l 38.895,41.105 C 227.469,98.151 229.439,99 231.5,99 h 208 c 22.332,0 40.5,18.168 40.5,40.5 v 10.11 C 469.865,138.784 455.464,132 439.5,132 Z"
       id="path2"
       style="fill:url(#linearGradient880);fill-opacity:1" />
    <path
       d="m 431.5,180 h -104 c -4.142,0 -7.5,3.357 -7.5,7.5 0,4.143 3.358,7.5 7.5,7.5 h 104 c 4.142,0 7.5,-3.357 7.5,-7.5 0,-4.143 -3.358,-7.5 -7.5,-7.5 z"
       id="path4-3"
       style="fill:url(#linearGradient844);fill-opacity:1.0" />
    <path
       d="m 431.5,220 h -104 c -4.142,0 -7.5,3.357 -7.5,7.5 0,4.143 3.358,7.5 7.5,7.5 h 104 c 4.142,0 7.5,-3.357 7.5,-7.5 0,-4.143 -3.358,-7.5 -7.5,-7.5 z"
       id="path6-6"
       style="fill:url(#linearGradient852);fill-opacity:1.0" />
  </g>
  <path
     style="color:#d3dae3;fill:url(#radialGradient860);fill-opacity:1.0;stroke-width:0.480943"
     d="m 17.12032,16.065597 -1.9238,0.291206 v 6.95874 l 1.9238,-0.516641 v -2.688434 l 1.923801,3.169385 1.923801,-0.721431 -2.404751,-2.885695 2.405693,-3.125234 -1.8665,-0.481896 -1.982044,3.154362 z m -3.917114,1.887163 c -0.04554,0 -0.091,0.0177 -0.125871,0.05268 l -0.756183,0.756181 c -0.06981,0.0698 -0.05299,0.169442 0,0.252681 l 0.78248,1.228685 c -0.05802,0.120336 -0.108173,0.244275 -0.150295,0.371042 -0.0024,0.0051 -0.005,0.01057 -0.0059,0.0159 l -1.419356,0.315623 c -0.09633,0.02146 -0.178486,0.07982 -0.178486,0.178481 v 0.472495 0.472507 c 0,0.09866 0.08223,0.157076 0.178486,0.17848 l 1.419356,0.315624 c 0.0038,0.0093 0.0076,0.01789 0.01134,0.02721 0.04093,0.123153 0.08959,0.243612 0.145596,0.360724 l -0.782485,1.227737 c -0.05303,0.08329 -0.0698,0.182915 0,0.252682 l 0.756184,0.75618 c 0.0698,0.06981 0.181973,0.06981 0.251744,0 l 1.226807,-0.781549 c 0.120599,0.0587 0.244846,0.109482 0.371985,0.152179 0.008,0.0034 0.01598,0.0071 0.02448,0.01039 l 0.314685,1.418421 c 0,0.09867 0.07981,0.178486 0.178479,0.178486 h 1.068044 c 0.09867,0 0.157075,-0.08223 0.17848,-0.178486 l 0.314647,-1.461629 c 0.14458,-0.05431 0.284924,-0.119353 0.419895,-0.194455 l 1.197683,0.856707 c 0.06981,0.0698 0.181973,0.0698 0.251737,0 l 0.756199,-0.756181 c 0.06981,-0.06981 0.05301,-0.169448 0,-0.252688 L 19.17736,23.4875 l -0.048,0.01776 c -0.108338,0.04074 -0.230293,-0.002 -0.290265,-0.100504 L 18.359962,22.6157 c -0.399158,0.954787 -1.341816,1.62603 -2.441383,1.62603 -1.46092,0 -2.64523,-1.184309 -2.64523,-2.645238 0,-1.121046 0.698719,-2.076902 1.683327,-2.462044 V 18.60747 l -0.0048,0.01687 c -0.01062,0.0048 -0.02047,0.0094 -0.03093,0.01317 -0.125444,0.04171 -0.24812,0.09126 -0.367288,0.148417 l -1.224927,-0.78061 c -0.03486,-0.03482 -0.08034,-0.05268 -0.125873,-0.05268 z"
     class="ColorScheme-Text"
     id="path10-7" />
</svg>
