<?xml version="1.0" encoding="UTF-8" standalone="no"?>
<svg
   xmlns:dc="http://purl.org/dc/elements/1.1/"
   xmlns:cc="http://creativecommons.org/ns#"
   xmlns:rdf="http://www.w3.org/1999/02/22-rdf-syntax-ns#"
   xmlns:svg="http://www.w3.org/2000/svg"
   xmlns="http://www.w3.org/2000/svg"
   xmlns:sodipodi="http://sodipodi.sourceforge.net/DTD/sodipodi-0.dtd"
   xmlns:inkscape="http://www.inkscape.org/namespaces/inkscape"
   width="31.999998"
   height="31.999998"
   viewBox="0 0 8.466666 8.4666664"
   version="1.1"
   id="svg847"
   inkscape:version="1.0.2 (e86c870879, 2021-01-15)"
   sodipodi:docname="activities.svg">
  <defs
     id="defs841" />
  <sodipodi:namedview
     id="base"
     pagecolor="#ffffff"
     bordercolor="#000000"
     borderopacity="1"
     inkscape:pageopacity="0.0"
     inkscape:pageshadow="2"
     inkscape:zoom="7.9195959"
     inkscape:cx="40.151206"
     inkscape:cy="15.020914"
     inkscape:document-units="px"
     inkscape:current-layer="layer1"
     inkscape:document-rotation="0"
     showgrid="false"
     units="px"
     inkscape:window-width="1920"
     inkscape:window-height="1007"
     inkscape:window-x="0"
     inkscape:window-y="0"
     inkscape:window-maximized="1"
     inkscape:snap-bbox="true"
     inkscape:bbox-nodes="true"
     inkscape:lockguides="false"
     showguides="true">
    <inkscape:grid
       type="xygrid"
       id="grid1410"
       originx="7.9999998e-07"
       originy="0" />
  </sodipodi:namedview>
  <metadata
     id="metadata844">
    <rdf:RDF>
      <cc:Work
         rdf:about="">
        <dc:format>image/svg+xml</dc:format>
        <dc:type
           rdf:resource="http://purl.org/dc/dcmitype/StillImage" />
        <dc:title />
      </cc:Work>
    </rdf:RDF>
    <style
       id="current-color-scheme" />
  </metadata>
  <g
     inkscape:label="Layer 1"
     inkscape:groupmode="layer"
     id="layer1">
    <g
       id="activities">
      <rect
         y="0"
         x="0"
         height="8.4666662"
         width="8.4666662"
         id="rect1430"
         style="opacity:0.01;fill:#cccccc;stroke-width:0.529167" />
      <path
         style="color:#dfdfdf;fill:#d3dae3;fill-opacity:1;stroke-width:0.450007"
         class="ColorScheme-Text"
         d="M 4.2333202,2.4341667 A 1.8142798,1.7859386 0 0 0 2.419043,4.2201053 1.8142798,1.7859386 0 0 0 4.2333202,6.0060417 1.8142798,1.7859386 0 0 0 6.0475997,4.2201053 1.8142798,1.7859386 0 0 0 4.2333202,2.4341667 Z M 2.419043,2.8806516 c -0.7515216,0 -1.3607097,0.599672 -1.3607097,1.3394537 0,0.7397781 0.6091881,1.3394519 1.3607097,1.3394519 L 2.431419,5.5586648 C 2.143055,5.1840863 1.9654607,4.7234271 1.9654607,4.2201053 c 0,-0.5037705 0.1779812,-0.9639371 0.4668591,-1.3385806 z m 3.6285567,0 c -0.00459,2.668e-4 -0.00951,5.567e-4 -0.014153,8.692e-4 0.2889231,0.3746917 0.467743,0.8347697 0.467743,1.3385845 0,0.5033653 -0.1783922,0.9640694 -0.4668577,1.3385815 l 0.013292,8.704e-4 c 0.7515195,0 1.3607093,-0.5996738 1.3607093,-1.3394519 0,-0.7397817 -0.6091898,-1.3394537 -1.3607093,-1.3394537 z"
         id="path5" />
    </g>
    <g
       id="22-22-activities">
      <rect
         style="opacity:0.00100002;fill:#d3dae3;fill-opacity:1;stroke-width:0.363802"
         id="rect1430-3-7-5"
         width="5.8208323"
         height="5.8208323"
         x="8.4666681"
         y="2.6458333" />
      <path
         style="color:#dfdfdf;fill:#d3dae3;fill-opacity:1;stroke-width:0.330731"
         class="ColorScheme-Text"
         d="M 11.390317,4.2333333 A 1.3229171,1.3229172 0 0 0 10.067394,5.556251 1.3229171,1.3229172 0 0 0 11.390317,6.8791666 1.3229171,1.3229172 0 0 0 12.713241,5.556251 1.3229171,1.3229172 0 0 0 11.390317,4.2333333 Z m -1.322923,0.3307296 c -0.5479813,0 -0.9921842,0.4442014 -0.9921842,0.9921881 0,0.5479841 0.4442029,0.9921862 0.9921842,0.9921862 l 0.0089,-6.607e-4 C 9.8661027,6.2703108 9.7366027,5.9290816 9.7366027,5.556251 c 0,-0.3731638 0.12978,-0.7140277 0.3404193,-0.9915411 z m 2.645847,0 c -0.0042,1.978e-4 -0.0064,4.122e-4 -0.0104,6.437e-4 0.210678,0.2775494 0.34107,0.618348 0.34107,0.9915444 0,0.3728633 -0.130081,0.7141255 -0.340417,0.9915416 l 0.0096,6.446e-4 c 0.547983,0 0.992186,-0.4442021 0.992186,-0.9921862 0,-0.5479867 -0.444203,-0.9921881 -0.992185,-0.9921881 z"
         id="path5-3" />
    </g>
  </g>
</svg>
