<?xml version="1.0" encoding="UTF-8" standalone="no"?>
<svg
   xmlns:dc="http://purl.org/dc/elements/1.1/"
   xmlns:cc="http://creativecommons.org/ns#"
   xmlns:rdf="http://www.w3.org/1999/02/22-rdf-syntax-ns#"
   xmlns:svg="http://www.w3.org/2000/svg"
   xmlns="http://www.w3.org/2000/svg"
   xmlns:sodipodi="http://sodipodi.sourceforge.net/DTD/sodipodi-0.dtd"
   xmlns:inkscape="http://www.inkscape.org/namespaces/inkscape"
   sodipodi:docname="cantata.svg"
   inkscape:version="1.0 (4035a4fb49, 2020-05-01)"
   viewBox="0 0 54 32"
   id="svg2"
   version="1.1">
  <sodipodi:namedview
     inkscape:document-rotation="0"
     inkscape:lockguides="true"
     inkscape:current-layer="svg2"
     inkscape:window-maximized="1"
     inkscape:window-y="0"
     inkscape:window-x="0"
     inkscape:cy="21.668794"
     inkscape:cx="40.782571"
     inkscape:zoom="8.8090278"
     showgrid="false"
     id="namedview14"
     inkscape:window-height="1017"
     inkscape:window-width="1920"
     inkscape:pageshadow="2"
     inkscape:pageopacity="0"
     guidetolerance="10"
     gridtolerance="10"
     objecttolerance="10"
     borderopacity="1"
     bordercolor="#666666"
     pagecolor="#ffffff" />
  <metadata
     id="metadata20">
    <rdf:RDF>
      <cc:Work
         rdf:about="">
        <dc:format>image/svg+xml</dc:format>
        <dc:type
           rdf:resource="http://purl.org/dc/dcmitype/StillImage" />
        <dc:title />
      </cc:Work>
    </rdf:RDF>
  </metadata>
  <defs
     id="defs3051">
    <style
       type="text/css"
       id="current-color-scheme">
      .ColorScheme-Text {
        color:#31363b;
      }
      </style>
  </defs>
  <g
     id="22-22-cantata">
    <path
       sodipodi:nodetypes="cscscsssss"
       inkscape:connector-curvature="0"
       style="color:#31363b;fill:#d3dae3;fill-opacity:1;stroke:none"
       d="m 10,12.999863 c -4.418246,-1.1e-4 -8,3.581644 -8,8 0,4.418357 3.581754,8.000111 8,8.000001 4.418246,1.1e-4 8,-3.581644 8,-8.000001 0,-4.418356 -3.581754,-8.00011 -8,-8 z m 0,1.40678 c 3.865993,0 6.59322,2.86282 6.59322,6.728814 0,3.865993 -2.727227,6.457627 -6.59322,6.457627 -3.865993,0 -6.457627,-2.727227 -6.457627,-6.593221 0,-3.865993 2.591634,-6.59322 6.457627,-6.59322 z"
       class="ColorScheme-Text"
       id="path7" />
    <path
       style="fill:currentColor;fill-opacity:1;stroke:none"
       d="m 10,12.999863 0,11.044922 c -0.83718,-0.3612 -1.8093231,-0.263585 -2.8457031,0.166016 -1.73476,0.7184 -2.7294463,2.293178 -2.2226563,3.517578 0.50678,1.2248 2.3253869,1.636768 4.0605469,0.917968 1.3687605,-0.5684 2.2070315,-2.045546 2.2070315,-2.935546 l 0,-8.710938 c 0,0 3.201172,0.39961 3.201172,3.599609 0,2.4 -0.800832,3.201172 -2.800782,5.201172 1.99995,-1.2 3.59961,-2.801172 3.59961,-5.201172 0,-3.199999 -2.469183,-4.639084 -3.101563,-5.271484 -0.39999,-0.4 -0.898437,-1.927734 -0.898437,-1.927734 L 10,12.999863 Z"
       class="ColorScheme-Text"
       id="path9" />
    <path
       style="opacity:1;fill:none"
       d="M 0 10 L 0 32 L 22 32 L 22 10 L 0 10 z "
       id="path11" />
  </g>
  <g
     inkscape:label="#cantata"
     id="cantata">
    <path
       sodipodi:nodetypes="ssssssssss"
       inkscape:connector-curvature="0"
       style="color:#31363b;fill:#d3dbe3;fill-opacity:1;stroke:none"
       d="m 37.002213,3.9999999 c -6.627417,0 -12,5.372583 -12,12.0000001 0,6.627417 5.372583,12 12,12 6.627417,0 12,-5.372583 12,-12 0,-6.6274171 -5.372583,-12.0000001 -12,-12.0000001 z m 0.135593,1.677966 c 6.075133,0 10.186441,4.246902 10.186441,10.3220341 0,6.075133 -4.246902,10.457627 -10.322034,10.457627 -6.075132,0 -10.186441,-4.246901 -10.186441,-10.322033 0,-6.075133 4.246902,-10.4576281 10.322034,-10.4576281 z"
       class="ColorScheme-Text"
       id="path13" />
    <path
       style="fill:currentColor;fill-opacity:1;stroke:none"
       d="m 37.002213,3.9999999 0,16.9938711 c -1.255763,-0.541606 -3.213967,-0.827849 -4.768528,-0.183681 -2.602125,1.077213 -3.764563,3.471449 -3.004382,5.307377 0.760165,1.836516 3.158478,2.4213 5.761203,1.343499 2.053128,-0.852293 3.045682,-3.113787 3.042522,-4.448302 L 38.002208,9.9978365 c 0,0 5.100556,0.5991185 5.100556,5.3973565 0,3.59867 -1.100655,4.599059 -4.100562,7.597957 C 42.002109,21.19381 44.301,18.993863 44.301,15.395193 44.301,10.596955 40.597247,8.4391233 39.648682,7.4908763 39.048701,6.891092 38.301035,4.6003359 38.301035,4.6003359 Z"
       class="ColorScheme-Text"
       id="path15" />
    <path
       style="opacity:1;fill:none"
       d="M 22 0 L 22 32 L 54 32 L 54 0 L 22 0 z "
       id="path18" />
  </g>
</svg>
