<?xml version="1.0" encoding="UTF-8" standalone="no"?>
<svg
   xmlns:dc="http://purl.org/dc/elements/1.1/"
   xmlns:cc="http://creativecommons.org/ns#"
   xmlns:rdf="http://www.w3.org/1999/02/22-rdf-syntax-ns#"
   xmlns:svg="http://www.w3.org/2000/svg"
   xmlns="http://www.w3.org/2000/svg"
   xmlns:xlink="http://www.w3.org/1999/xlink"
   xmlns:sodipodi="http://sodipodi.sourceforge.net/DTD/sodipodi-0.dtd"
   xmlns:inkscape="http://www.inkscape.org/namespaces/inkscape"
   id="svg2"
   width="70.000053"
   height="63.999966"
   version="1.0"
   sodipodi:docname="computer.svg"
   inkscape:version="1.0.1 (3bc2e813f5, 2020-09-07)">
  <sodipodi:namedview
     pagecolor="#ffffff"
     bordercolor="#666666"
     borderopacity="1"
     objecttolerance="10"
     gridtolerance="10"
     guidetolerance="10"
     inkscape:pageopacity="0"
     inkscape:pageshadow="2"
     inkscape:window-width="1920"
     inkscape:window-height="1007"
     id="namedview24"
     showgrid="false"
     inkscape:zoom="7.5991854"
     inkscape:cx="7.683293"
     inkscape:cy="39.527075"
     inkscape:window-x="0"
     inkscape:window-y="0"
     inkscape:window-maximized="1"
     inkscape:current-layer="svg2"
     inkscape:document-rotation="0" />
  <metadata
     id="metadata7">
    <rdf:RDF>
      <cc:Work
         rdf:about="">
        <dc:format>image/svg+xml</dc:format>
        <dc:type
           rdf:resource="http://purl.org/dc/dcmitype/StillImage" />
        <dc:title />
      </cc:Work>
    </rdf:RDF>
  </metadata>
  <defs
     id="defs5">
    <linearGradient
       inkscape:collect="always"
       id="linearGradient861">
      <stop
         style="stop-color:#ffd42a;stop-opacity:1"
         offset="0"
         id="stop857" />
      <stop
         style="stop-color:#08a19d;stop-opacity:1"
         offset="1"
         id="stop859" />
    </linearGradient>
    <style
       id="current-color-scheme"
       type="text/css">
      }
</style>
    <linearGradient
       inkscape:collect="always"
       xlink:href="#linearGradient861"
       id="linearGradient865"
       x1="43.108051"
       y1="6.6713142"
       x2="59.24979"
       y2="16.745014"
       gradientUnits="userSpaceOnUse" />
    <linearGradient
       inkscape:collect="always"
       xlink:href="#linearGradient861"
       id="linearGradient875"
       x1="43.721809"
       y1="40.313801"
       x2="56.856594"
       y2="48.330231"
       gradientUnits="userSpaceOnUse" />
    <linearGradient
       inkscape:collect="always"
       xlink:href="#linearGradient861"
       id="linearGradient883"
       x1="20.679144"
       y1="15.154993"
       x2="31.293459"
       y2="24.02758"
       gradientUnits="userSpaceOnUse" />
    <linearGradient
       inkscape:collect="always"
       xlink:href="#linearGradient861"
       id="linearGradient891"
       x1="248.16417"
       y1="1041.6803"
       x2="266.23938"
       y2="1054.1331"
       gradientUnits="userSpaceOnUse" />
    <linearGradient
       inkscape:collect="always"
       xlink:href="#linearGradient861"
       id="linearGradient899"
       x1="392.24573"
       y1="523.9173"
       x2="406.87006"
       y2="533.27948"
       gradientUnits="userSpaceOnUse" />
    <linearGradient
       inkscape:collect="always"
       xlink:href="#linearGradient861"
       id="linearGradient907"
       x1="19.918854"
       y1="47.565758"
       x2="30.702408"
       y2="55.61385"
       gradientUnits="userSpaceOnUse" />
  </defs>
  <g
     id="22-22-computer"
     transform="matrix(0.75000099,0,0,0.75000099,-273.42897,-345.59906)">
    <rect
       style="opacity:0.01000001;fill:#00000f;fill-opacity:0.00392157;stroke:none"
       id="rect3074"
       width="29.333307"
       height="29.333271"
       x="385.90479"
       y="516.79803" />
    <path
       style="color:#31363b;fill:url(#linearGradient907);fill-opacity:1.0;stroke:none"
       class="ColorScheme-Text"
       d="m 17,45 v 14 l 6.999999,-3.7e-5 v 2 L 22,61 v 1 h 10 v -1 l -2.000002,-3.7e-5 v -2 L 37,59 V 45 Z m 1.199999,1.199964 H 35.799998 V 57 H 18.199999 Z m 6.8,12.799999 h 3.999999 v 2 h -3.999999 z"
       transform="matrix(1.3333316,0,0,1.3333316,364.57148,460.79814)"
       id="rect7235"
       inkscape:connector-curvature="0"
       sodipodi:nodetypes="ccccccccccccccccccccccc" />
  </g>
  <g
     transform="matrix(0.75,0,0,0.75,-168,-765.27168)"
     id="22-22-computer-laptop">
    <rect
       style="opacity:0.01000001;fill:#31363b;fill-opacity:0.00392157;stroke:none"
       id="rect7292"
       width="29.333338"
       height="29.333296"
       x="245.33333"
       y="1033.6956" />
    <path
       style="color:#31363b;fill:url(#linearGradient883);fill-opacity:1;stroke:none"
       class="ColorScheme-Text"
       d="m 18,13 v 14 h -1 c 0,1.10457 0.89543,2 2,2 h 16 c 1.10457,0 2,-0.89543 2,-2 H 36 V 13 Z m 1.2,1.199996 H 34.800001 V 26 H 19.2 Z"
       transform="matrix(1.3333333,0,0,1.3333333,224,1020.3622)"
       id="rect7296"
       inkscape:connector-curvature="0"
       sodipodi:nodetypes="cccssccccccccc" />
  </g>
  <g
     transform="matrix(1.09091,0,0,1.09091,-382.98739,-531.78014)"
     id="computer">
    <rect
       y="516.79803"
       x="385.90479"
       height="29.333271"
       width="29.333307"
       id="rect3018"
       style="opacity:0.01000001;fill:#00000f;fill-opacity:0.00392157;stroke:none" />
    <path
       style="color:#31363b;fill:url(#linearGradient875);fill-opacity:1.0;stroke:none"
       d="M 40,36.011719 V 56 h 11 v 3 h -3 v 1 H 60 V 59 H 57 V 56 H 68 V 36.011719 Z m 1.300002,1.300249 h 25.4 v 16.688 h -25.4 z M 52,56 h 4 v 3 h -4 z"
       transform="matrix(0.9166659,0,0,0.9166659,351.07148,487.46472)"
       id="path3020"
       class="ColorScheme-Text"
       inkscape:connector-curvature="0"
       sodipodi:nodetypes="ccccccccccccccccccccccc" />
  </g>
  <g
     id="computer-laptop"
     transform="matrix(1.0909105,0,0,1.0909105,-229.6367,-1127.6693)">
    <rect
       y="1033.6956"
       x="245.33333"
       height="29.333296"
       width="29.333338"
       id="rect3026"
       style="opacity:0.01000001;fill:#31363b;fill-opacity:0.00392157;stroke:none" />
    <path
       style="color:#31363b;fill:url(#linearGradient865);fill-opacity:1.0;stroke:none"
       class="ColorScheme-Text"
       d="m 40,4 -4e-6,18.999991 h -1 L 39,24 c 4e-6,1.104569 0.895431,2 2,2 h 26 c 1.104569,0 2,-0.895431 2,-2 v -1 l -1.000004,-9e-6 L 68,4 Z m 1.199996,1.1999909 h 25.6 V 22 h -25.6 z M 40.099996,24 h 27.8 c 0,0.552285 -0.347711,0.899991 -0.899996,0.899991 H 41 c -0.552285,0 -0.900004,-0.347706 -0.900004,-0.899991 z"
       transform="matrix(0.91666548,0,0,0.91666548,210.50004,1033.6955)"
       id="path3028"
       inkscape:connector-curvature="0"
       sodipodi:nodetypes="cccsssscccccccccccssc" />
  </g>
  <g
     id="16-16-computer"
     transform="matrix(0.54506989,0,0,0.54506989,-210.34508,-233.67977)">
    <rect
       style="opacity:0.01000001;fill:#00000f;fill-opacity:0.00392157;stroke:none"
       id="rect3034"
       width="29.333307"
       height="29.333271"
       x="385.90479"
       y="516.79803" />
    <path
       id="path3036"
       style="fill:url(#linearGradient899);fill-opacity:1.0;stroke:none"
       d="m 393.2433,540.64039 14.67701,0 0,1.84243 -14.67701,0 z m 4.66149,-1.82681 5.33332,0 0,1.82679 -5.33332,0 z m -10.16666,-18.33855 0,18.33853 25.66664,0 0,-18.33853 z m 1.83591,1.82689 22.01553,10e-6 0,12.84238 -22.01553,0 z"
       class="ColorScheme-Text" />
  </g>
  <g
     transform="matrix(0.5454565,0,0,0.5454565,-133.81866,-547.83604)"
     id="16-16-computer-laptop">
    <rect
       style="opacity:0.01000001;fill:#31363b;fill-opacity:0.00392157;stroke:none"
       id="rect3042"
       width="29.333338"
       height="29.333296"
       x="245.33333"
       y="1033.6956" />
    <path
       class="ColorScheme-Text"
       id="path3044"
       d="m 250.98282,1041.0288 0,12.8334 -3.73283,0 c 0,2 2.41668,3.6666 2.41668,3.6666 l 20.66666,0 c 0,0 2.41662,-1.6666 2.41662,-3.6666 l -3.43386,0 0,-12.8334 z m 1.83333,1.8334 14.66661,0 0,9.1666 -14.66661,0 z"
       style="fill:url(#linearGradient891);fill-opacity:1.0;stroke:none" />
  </g>
</svg>
