<?xml version="1.0" encoding="UTF-8" standalone="no"?>
<svg
   xmlns:dc="http://purl.org/dc/elements/1.1/"
   xmlns:cc="http://creativecommons.org/ns#"
   xmlns:rdf="http://www.w3.org/1999/02/22-rdf-syntax-ns#"
   xmlns:svg="http://www.w3.org/2000/svg"
   xmlns="http://www.w3.org/2000/svg"
   xmlns:sodipodi="http://sodipodi.sourceforge.net/DTD/sodipodi-0.dtd"
   xmlns:inkscape="http://www.inkscape.org/namespaces/inkscape"
   id="svg7384"
   width="22"
   height="22"
   enable-background="new"
   inkscape:version="1.0.1 (3bc2e813f5, 2020-09-07)"
   sodipodi:docname="disk.svg"
   version="1.1">
  <metadata
     id="metadata32">
    <rdf:RDF>
      <cc:Work
         rdf:about="">
        <dc:format>image/svg+xml</dc:format>
        <dc:type
           rdf:resource="http://purl.org/dc/dcmitype/StillImage" />
        <dc:title />
      </cc:Work>
    </rdf:RDF>
  </metadata>
  <sodipodi:namedview
     id="namedview10"
     bordercolor="#000000"
     borderopacity="1"
     gridtolerance="10"
     guidetolerance="10"
     inkscape:bbox-nodes="true"
     inkscape:current-layer="svg7384"
     inkscape:cx="71.850113"
     inkscape:cy="6.4896063"
     inkscape:pageopacity="0"
     inkscape:pageshadow="2"
     inkscape:snap-bbox="true"
     inkscape:snap-bbox-edge-midpoints="true"
     inkscape:window-height="1012"
     inkscape:window-maximized="1"
     inkscape:window-width="1920"
     inkscape:window-x="0"
     inkscape:window-y="0"
     inkscape:zoom="6.2939505"
     objecttolerance="10"
     pagecolor="#ffffff"
     showgrid="false"
     inkscape:lockguides="true"
     inkscape:document-rotation="0">
    <inkscape:grid
       id="grid39"
       type="xygrid" />
  </sodipodi:namedview>
  <defs
     id="defs7386">
    <style
       id="current-color-scheme" />
  </defs>
  <g
     id="disk-quota">
    <path
       id="path15"
       d="M 6,2 C 4.892,2 4,2.892 4,4 v 14 c 0,1.108 0.892,2 2,2 h 10 c 1.108,0 2,-0.892 2,-2 V 4 C 18,2.892 17.108,2 16,2 Z M 6,4 H 7 V 6 H 6 Z M 8,4 H 9 V 6 H 8 Z m 2,0 h 1 v 2 h -1 z m 2,0 h 1 v 2 h -1 z m 2,1 h 1 v 1 h -1 z m -3,2 a 5,5 0 0 1 5,5 5,5 0 0 1 -5,5 5,5 0 0 1 -5,-5 5,5 0 0 1 5,-5 z m 5,10 a 1,1 0 0 1 1,1 1,1 0 0 1 -1,1 1,1 0 0 1 -1,-1 1,1 0 0 1 1,-1 z"
       inkscape:connector-curvature="0"
       style="fill:#d3dae3;fill-opacity:1" />
    <path
       id="path17"
       d="m 11,7 a 5,5 0 0 0 -5,5 5,5 0 0 0 5,5 5,5 0 0 0 5,-5 h -5 z"
       inkscape:connector-curvature="0"
       style="opacity:1;fill:#08a19d;fill-opacity:1;fill-rule:evenodd;stroke:#d3dae3;stroke-opacity:1" />
    <path
       id="path19"
       d="M 0,0 H 22 V 22 H 0 Z"
       opacity="0"
       inkscape:connector-curvature="0" />
    <g
       id="g23">
      <circle
         id="circle21"
         cx="11"
         cy="12"
         r="2"
         style="fill:#a2b1c3;fill-opacity:1" />
    </g>
  </g>
  <g
     id="disk-quota-low"
     transform="translate(32)">
    <path
       id="path53"
       d="M 6,2 C 4.892,2 4,2.892 4,4 v 14 c 0,1.108 0.892,2 2,2 h 10 c 1.108,0 2,-0.892 2,-2 V 4 C 18,2.892 17.108,2 16,2 Z M 6,4 H 7 V 6 H 6 Z M 8,4 H 9 V 6 H 8 Z m 2,0 h 1 v 2 h -1 z m 2,0 h 1 v 2 h -1 z m 2,1 h 1 v 1 h -1 z m -3,2 a 5,5 0 0 1 5,5 5,5 0 0 1 -5,5 5,5 0 0 1 -5,-5 5,5 0 0 1 5,-5 z m 5,10 a 1,1 0 0 1 1,1 1,1 0 0 1 -1,1 1,1 0 0 1 -1,-1 1,1 0 0 1 1,-1 z"
       inkscape:connector-curvature="0"
       style="fill:#d3dae3;fill-opacity:1" />
    <path
       id="path55"
       d="m 11,7 a 5,5 0 0 0 -5,5 5,5 0 0 0 5,5 5,5 0 0 0 5,-5 h -5 z"
       inkscape:connector-curvature="0"
       style="opacity:1;fill:#3f9eff;fill-opacity:1;stroke:#d3dae3;stroke-opacity:1" />
    <path
       id="path57"
       d="M 0,0 H 22 V 22 H 0 Z"
       opacity="0"
       inkscape:connector-curvature="0" />
    <g
       id="g61">
      <circle
         id="circle59"
         cx="11"
         cy="12"
         r="2"
         style="fill:#3df5f1;fill-opacity:1" />
    </g>
  </g>
  <g
     id="disk-quota-high"
     transform="translate(59)">
    <path
       id="path65"
       d="M 6,2 C 4.892,2 4,2.892 4,4 v 14 c 0,1.108 0.892,2 2,2 h 10 c 1.108,0 2,-0.892 2,-2 V 4 C 18,2.892 17.108,2 16,2 Z M 6,4 H 7 V 6 H 6 Z M 8,4 H 9 V 6 H 8 Z m 2,0 h 1 v 2 h -1 z m 2,0 h 1 v 2 h -1 z m 2,1 h 1 v 1 h -1 z m -3,2 a 5,5 0 0 1 5,5 5,5 0 0 1 -5,5 5,5 0 0 1 -5,-5 5,5 0 0 1 5,-5 z m 5,10 a 1,1 0 0 1 1,1 1,1 0 0 1 -1,1 1,1 0 0 1 -1,-1 1,1 0 0 1 1,-1 z"
       inkscape:connector-curvature="0"
       style="fill:#d3dae3;fill-opacity:1" />
    <path
       id="path67"
       d="m 11,7 a 5,5 0 0 0 -5,5 5,5 0 0 0 5,5 5,5 0 0 0 5,-5 h -5 z"
       inkscape:connector-curvature="0"
       style="opacity:1;fill:#cc5200;stroke:#d3dae3;stroke-opacity:1;fill-opacity:1" />
    <path
       id="path69"
       d="M 0,0 H 22 V 22 H 0 Z"
       opacity="0"
       inkscape:connector-curvature="0" />
    <g
       id="g73">
      <circle
         id="circle71"
         cx="11"
         cy="12"
         r="2"
         style="fill:#ffb380;fill-opacity:1" />
    </g>
  </g>
  <g
     id="disk-quota-critical"
     transform="translate(-34)">
    <path
       id="path77"
       d="m 126,2 c -1.108,0 -2,0.892 -2,2 v 14 c 0,1.108 0.892,2 2,2 h 10 c 1.108,0 2,-0.892 2,-2 V 4 c 0,-1.108 -0.892,-2 -2,-2 z m 0,2 h 1 v 2 h -1 z m 2,0 h 1 v 2 h -1 z m 2,0 h 1 v 2 h -1 z m 2,0 h 1 v 2 h -1 z m 2,1 h 1 v 1 h -1 z m -3,2 a 5,5 0 0 1 5,5 5,5 0 0 1 -5,5 5,5 0 0 1 -5,-5 5,5 0 0 1 5,-5 z m 5,10 a 1,1 0 0 1 1,1 1,1 0 0 1 -1,1 1,1 0 0 1 -1,-1 1,1 0 0 1 1,-1 z"
       inkscape:connector-curvature="0"
       style="fill:#d3dae3;fill-opacity:1" />
    <path
       id="path79"
       d="m 131,7 a 5,5 0 0 0 -5,5 5,5 0 0 0 5,5 5,5 0 0 0 5,-5 h -5 z"
       inkscape:connector-curvature="0"
       style="opacity:1;fill:#cc0052;stroke:#a1b4ba;stroke-opacity:1;fill-opacity:1" />
    <path
       id="path81"
       d="m 120,0 h 22 v 22 h -22 z"
       opacity="0"
       inkscape:connector-curvature="0" />
    <g
       id="g85"
       transform="translate(120)">
      <circle
         id="circle83"
         cx="11"
         cy="12"
         r="2"
         style="fill:#ff80b3;fill-opacity:1" />
    </g>
    <path
       id="path24"
       d="m 139,11 v 5 h 2 v -5 z m 0,6 v 2 h 2 v -2 z"
       fill="#dc6e2e"
       inkscape:connector-curvature="0"
       style="fill:#d40055" />
  </g>
</svg>
