<?xml version="1.0" encoding="UTF-8" standalone="no"?>
<svg
   xmlns:dc="http://purl.org/dc/elements/1.1/"
   xmlns:cc="http://creativecommons.org/ns#"
   xmlns:rdf="http://www.w3.org/1999/02/22-rdf-syntax-ns#"
   xmlns:svg="http://www.w3.org/2000/svg"
   xmlns="http://www.w3.org/2000/svg"
   xmlns:sodipodi="http://sodipodi.sourceforge.net/DTD/sodipodi-0.dtd"
   xmlns:inkscape="http://www.inkscape.org/namespaces/inkscape"
   width="32"
   height="32"
   version="1.1"
   id="svg12"
   sodipodi:docname="kaffeine.svg"
   inkscape:version="1.0.1 (3bc2e813f5, 2020-09-07)">
  <metadata
     id="metadata18">
    <rdf:RDF>
      <cc:Work
         rdf:about="">
        <dc:format>image/svg+xml</dc:format>
        <dc:type
           rdf:resource="http://purl.org/dc/dcmitype/StillImage" />
      </cc:Work>
    </rdf:RDF>
  </metadata>
  <defs
     id="defs16" />
  <sodipodi:namedview
     pagecolor="#ffffff"
     bordercolor="#666666"
     borderopacity="1"
     objecttolerance="10"
     gridtolerance="10"
     guidetolerance="10"
     inkscape:pageopacity="0"
     inkscape:pageshadow="2"
     inkscape:window-width="1920"
     inkscape:window-height="1016"
     id="namedview14"
     showgrid="false"
     inkscape:zoom="6.9384853"
     inkscape:cx="23.009598"
     inkscape:cy="10.001851"
     inkscape:window-x="0"
     inkscape:window-y="0"
     inkscape:window-maximized="1"
     inkscape:current-layer="svg12"
     inkscape:document-rotation="0"
     inkscape:lockguides="true" />
  <g
     id="kaffeine">
    <rect
       style="opacity:0.00100002"
       width="32"
       height="32"
       x="0"
       y="0"
       id="rect7" />
    <g
       id="g832"
       transform="matrix(2.2857141,0,0,2.2857141,-33.120003,-12.125234)">
      <path
         style="fill:#d3dae3;fill-opacity:1;stroke-width:0.0546877"
         id="path5"
         d="m 26.774134,12.224727 c 0,-2.8995041 -2.350499,-5.2499991 -5.250002,-5.2499991 -2.899504,0 -5.249999,2.350495 -5.249999,5.2499991 0,2.899502 2.350495,5.250001 5.249999,5.250001 h 5.250002 v -0.875 h -2.351557 c 1.467804,-0.971779 2.350921,-2.614536 2.351557,-4.375001 z m -2.678412,3.539521 c -0.586391,0.42596 -1.407343,0.296085 -1.833308,-0.290524 -0.425964,-0.586407 -0.296082,-1.407137 0.290314,-1.833317 0.586609,-0.425965 1.407342,-0.296082 1.833319,0.29053 0.426174,0.58639 0.296079,1.407138 -0.290325,1.833311 z m -0.06454,-5.73407 c 0.689362,-0.2240908 1.429788,0.153167 1.653876,0.842529 0.223876,0.689575 -0.15338,1.429993 -0.842742,1.653868 -0.689333,0.224092 -1.429761,-0.153166 -1.653846,-0.842528 -0.223878,-0.689362 0.153377,-1.429993 0.84274,-1.653869 z M 21.52413,7.8497279 c 0.724824,0 1.3125,0.5876766 1.3125,1.3124995 0,0.7248232 -0.587676,1.3124996 -1.3125,1.3124996 -0.724822,0 -1.312499,-0.5876764 -1.312499,-1.3124996 0,-0.7248229 0.587677,-1.3124995 1.312499,-1.3124995 z m -4.160946,3.0229791 c 0.22409,-0.689362 0.964507,-1.0666198 1.653868,-0.842742 0.689362,0.224089 1.066621,0.964506 0.842743,1.653868 -0.22409,0.689361 -0.964507,1.066619 -1.653868,0.842742 -0.689362,-0.223875 -1.06662,-0.964293 -0.842743,-1.653868 z m 3.422667,4.601017 c -0.425965,0.586609 -1.246917,0.716484 -1.833313,0.290524 -0.586394,-0.426173 -0.716491,-1.246921 -0.290313,-1.833311 0.425964,-0.586399 1.246917,-0.716495 1.833312,-0.290317 0.586396,0.425967 0.716278,1.246697 0.290314,1.833104 z m 0.300781,-3.248997 c 0,-0.241608 0.195893,-0.4375 0.4375,-0.4375 0.241608,0 0.4375,0.195892 0.4375,0.4375 0,0.241607 -0.195892,0.4375 -0.4375,0.4375 -0.241607,0 -0.4375,-0.195893 -0.4375,-0.4375 z m 0,0" />
    </g>
  </g>
  <g
     id="22-22-kaffeine">
    <rect
       style="opacity:0.00100002"
       width="22"
       height="22"
       x="32"
       y="10.000001"
       id="rect2" />
    <path
       style="fill:#d3dae3;fill-opacity:1;stroke-width:0.0833336"
       id="path5-3"
       d="m 51.000011,20.666666 c 0,-4.418292 -3.581714,-7.999998 -8.000004,-7.999998 -4.418291,0 -7.999998,3.581706 -7.999998,7.999998 0,4.418289 3.581707,8.000002 7.999998,8.000002 h 8.000004 v -1.333335 h -3.583324 c 2.236651,-1.480806 3.582351,-3.984053 3.583324,-6.666667 z m -4.081391,5.393557 c -0.89355,0.649085 -2.144517,0.451174 -2.793612,-0.442706 -0.649084,-0.893571 -0.45117,-2.144207 0.442385,-2.793624 0.893878,-0.64909 2.14452,-0.451173 2.793627,0.442712 0.649408,0.893548 0.451168,2.144209 -0.4424,2.793618 z m -0.09835,-8.737631 c 1.050459,-0.341472 2.178728,0.233397 2.520194,1.283853 0.341141,1.050781 -0.233723,2.179037 -1.28418,2.52018 -1.050414,0.341473 -2.178688,-0.233396 -2.520146,-1.283852 -0.341152,-1.050456 0.233712,-2.179037 1.284169,-2.520181 z m -3.820269,-3.322591 c 1.104501,0 2,0.895507 2,1.999999 0,1.104493 -0.895499,2 -2,2 -1.104491,0 -1.999997,-0.895507 -1.999997,-2 0,-1.104492 0.895506,-1.999999 1.999997,-1.999999 z m -6.340489,4.606444 c 0.341475,-1.050456 1.46973,-1.625325 2.520186,-1.284178 1.050453,0.341469 1.625325,1.469723 1.284175,2.52018 -0.34147,1.050455 -1.469725,1.625324 -2.520175,1.284178 -1.050457,-0.341143 -1.625328,-1.469399 -1.284186,-2.52018 z m 5.215497,7.011072 c -0.649095,0.89388 -1.900064,1.091791 -2.793619,0.442706 -0.893558,-0.649409 -1.091799,-1.90007 -0.442382,-2.793618 0.64908,-0.89356 1.900063,-1.091802 2.793617,-0.442387 0.893552,0.649092 1.091465,1.899728 0.442384,2.793299 z m 0.458332,-4.950851 C 42.333341,20.298502 42.631842,20 43.000007,20 c 0.368167,0 0.666666,0.298502 0.666666,0.666666 0,0.368163 -0.298499,0.666667 -0.666666,0.666667 -0.368165,0 -0.666666,-0.298504 -0.666666,-0.666667 z m 0,0" />
  </g>
</svg>
