<?xml version="1.0" encoding="UTF-8" standalone="no"?>
<svg
   xmlns:dc="http://purl.org/dc/elements/1.1/"
   xmlns:cc="http://creativecommons.org/ns#"
   xmlns:rdf="http://www.w3.org/1999/02/22-rdf-syntax-ns#"
   xmlns:svg="http://www.w3.org/2000/svg"
   xmlns="http://www.w3.org/2000/svg"
   xmlns:sodipodi="http://sodipodi.sourceforge.net/DTD/sodipodi-0.dtd"
   xmlns:inkscape="http://www.inkscape.org/namespaces/inkscape"
   width="32"
   height="32"
   version="1.1"
   id="svg12"
   sodipodi:docname="kget.svg"
   inkscape:version="1.0.2 (e86c870879, 2021-01-15)">
  <metadata
     id="metadata18">
    <rdf:RDF>
      <cc:Work
         rdf:about="">
        <dc:format>image/svg+xml</dc:format>
        <dc:type
           rdf:resource="http://purl.org/dc/dcmitype/StillImage" />
      </cc:Work>
    </rdf:RDF>
  </metadata>
  <defs
     id="defs16" />
  <sodipodi:namedview
     pagecolor="#ffffff"
     bordercolor="#666666"
     borderopacity="1"
     objecttolerance="10"
     gridtolerance="10"
     guidetolerance="10"
     inkscape:pageopacity="0"
     inkscape:pageshadow="2"
     inkscape:window-width="1920"
     inkscape:window-height="1007"
     id="namedview14"
     showgrid="false"
     inkscape:zoom="9.8125"
     inkscape:cx="16.021645"
     inkscape:cy="13.276337"
     inkscape:window-x="0"
     inkscape:window-y="0"
     inkscape:window-maximized="1"
     inkscape:current-layer="svg12"
     inkscape:document-rotation="0">
    <inkscape:grid
       type="xygrid"
       id="grid849"
       originx="0"
       originy="2.7026367e-08" />
  </sodipodi:namedview>
  <g
     id="kget">
    <rect
       style="opacity:0.00100002"
       width="32"
       height="32"
       x="0"
       y="0"
       id="rect7" />
    <path
       d="m 19.137666,14.597685 h 3.303014 a 0.2211089,0.2211089 0 0 1 0.173481,0.358211 l -6.37771,8.067242 a 0.2211089,0.2211089 0 0 1 -0.346919,0 L 9.511911,14.955896 a 0.2211089,0.2211089 0 0 1 0.173398,-0.358211 h 3.303014 a 0.2211089,0.2211089 0 0 0 0.221108,-0.221123 V 4.2211262 a 0.2211089,0.2211089 0 0 1 0.22102,-0.2211231 h 5.265045 a 0.2211089,0.2211089 0 0 1 0.221022,0.2211231 V 14.376562 a 0.2211089,0.2211089 0 0 0 0.221148,0.221123 z"
       stroke="none"
       id="path2"
       style="fill:#d3dae3;fill-opacity:1;stroke-width:2.07238" />
    <path
       d="m 5.256495,25.487013 a 1.2564955,1.2564955 0 0 0 0,2.512991 H 26.86949 a 1.2564955,1.2564955 0 0 0 0,-2.512991 z"
       stroke="none"
       id="path4"
       style="fill:#08a19d;fill-opacity:1;stroke-width:2.07238" />
  </g>
  <g
     id="22-22-kget">
    <rect
       style="opacity:0.00100002"
       width="22"
       height="22"
       x="32"
       y="9.9978008"
       id="rect2" />
    <path
       d="m 45.091777,20.062919 h 2.202009 a 0.14740593,0.14740593 0 0 1 0.115654,0.238808 l -4.251806,5.378161 a 0.14740593,0.14740593 0 0 1 -0.231279,0 l -4.251748,-5.378161 a 0.14740593,0.14740593 0 0 1 0.115599,-0.238808 h 2.202009 a 0.14740593,0.14740593 0 0 0 0.147406,-0.147415 v -6.77029 a 0.14740593,0.14740593 0 0 1 0.147346,-0.147416 h 3.51003 a 0.14740593,0.14740593 0 0 1 0.147348,0.147416 v 6.77029 a 0.14740593,0.14740593 0 0 0 0.147432,0.147415 z"
       stroke="none"
       id="path2-6"
       style="fill:#d3dae3;fill-opacity:1;stroke-width:1.38159" />
    <path
       d="m 35.837663,27.322471 a 0.8376635,0.8376635 0 0 0 0,1.675327 h 14.408664 a 0.8376635,0.8376635 0 0 0 0,-1.675327 z"
       stroke="none"
       id="path4-7"
       style="fill:#08a19d;fill-opacity:1;stroke-width:1.38159" />
  </g>
</svg>
