<?xml version="1.0" encoding="UTF-8" standalone="no"?>
<svg
   xmlns:dc="http://purl.org/dc/elements/1.1/"
   xmlns:cc="http://creativecommons.org/ns#"
   xmlns:rdf="http://www.w3.org/1999/02/22-rdf-syntax-ns#"
   xmlns:svg="http://www.w3.org/2000/svg"
   xmlns="http://www.w3.org/2000/svg"
   xmlns:sodipodi="http://sodipodi.sourceforge.net/DTD/sodipodi-0.dtd"
   xmlns:inkscape="http://www.inkscape.org/namespaces/inkscape"
   width="32"
   height="32"
   version="1.1"
   id="svg12"
   sodipodi:docname="kgpg.svg"
   inkscape:version="1.0.2 (e86c870879, 2021-01-15)">
  <metadata
     id="metadata18">
    <rdf:RDF>
      <cc:Work
         rdf:about="">
        <dc:format>image/svg+xml</dc:format>
        <dc:type
           rdf:resource="http://purl.org/dc/dcmitype/StillImage" />
      </cc:Work>
    </rdf:RDF>
  </metadata>
  <defs
     id="defs16" />
  <sodipodi:namedview
     pagecolor="#ffffff"
     bordercolor="#666666"
     borderopacity="1"
     objecttolerance="10"
     gridtolerance="10"
     guidetolerance="10"
     inkscape:pageopacity="0"
     inkscape:pageshadow="2"
     inkscape:window-width="1920"
     inkscape:window-height="1007"
     id="namedview14"
     showgrid="false"
     inkscape:zoom="6.9384855"
     inkscape:cx="23.615525"
     inkscape:cy="15.646254"
     inkscape:window-x="0"
     inkscape:window-y="0"
     inkscape:window-maximized="1"
     inkscape:current-layer="svg12"
     inkscape:document-rotation="0"
     inkscape:lockguides="false">
    <inkscape:grid
       type="xygrid"
       id="grid871"
       originx="-1e-06"
       originy="-4.6325683e-08" />
  </sodipodi:namedview>
  <g
     id="kgpg">
    <rect
       style="opacity:0.00100002"
       width="32"
       height="32"
       x="0"
       y="0"
       id="rect7" />
    <path
       d="M 25.288083,22.182552 H 6.659884 c -1.577697,0 -2.859885,1.283424 -2.859885,2.859885 0,1.674139 1.283424,2.957562 2.859885,2.957562 h 18.626963 c 1.577697,0 2.859884,-1.283423 2.859884,-2.859884 0.0012,-1.674139 -1.282187,-2.957563 -2.858648,-2.957563 z m -14.164652,3.717974 c 0.194121,0.153318 0.226268,0.435226 0.07295,0.629347 -0.08902,0.11128 -0.21885,0.168156 -0.351149,0.168156 -0.09768,0 -0.196594,-0.03091 -0.278199,-0.09644 l -0.442645,-0.351151 h -0.0087 -0.01113 -0.01113 -0.01113 -0.01113 -0.01113 -0.01113 -0.0012 l -0.0025,0.398134 c -0.0025,0.246051 -0.202777,0.443881 -0.448828,0.443881 h -0.0037 c -0.247288,-0.0012 -0.446355,-0.204011 -0.445118,-0.4513 l 0.0025,-0.390715 h -0.0074 -0.01113 -0.01113 -0.01113 -0.01113 -0.01113 -0.01113 -0.0099 v 0 l -0.4377,0.336312 c -0.08161,0.06306 -0.176811,0.09273 -0.272017,0.09273 -0.134771,0 -0.26707,-0.05935 -0.354858,-0.173102 -0.152082,-0.196594 -0.114989,-0.477266 0.08037,-0.628111 l 0.273254,-0.210195 c -0.381715,-0.233014 -0.369359,-0.651991 0,-0.819759 L 8.090441,24.638121 C 7.89632,24.484802 7.864173,24.202894 8.017491,24.008773 c 0.155792,-0.194121 0.4377,-0.225032 0.629348,-0.07295 l 0.442646,0.351149 h 0.0099 0.01113 0.01113 0.01113 0.01113 0.01113 0.01113 0.0012 l 0.0025,-0.398134 c 0.0012,-0.247288 0.153318,-0.446353 0.4513,-0.443881 0.247288,0.0012 0.446355,0.204012 0.445118,0.4513 l -0.0049,0.390715 h 0.0099 0.01113 0.01113 0.01113 0.01113 0.01113 0.01113 0.0099 l 0.437699,-0.337548 c 0.196594,-0.149609 0.478503,-0.11128 0.628111,0.0816 0.150846,0.196594 0.113754,0.477266 -0.0816,0.628111 l -0.273254,0.210195 c 0.154584,0.08211 0.244724,0.20902 0.26055,0.347156 0.01837,0.160299 -0.06334,0.335722 -0.26055,0.47384 z m 6.386211,0 c 0.194121,0.153318 0.226269,0.436463 0.07295,0.629347 -0.08902,0.11128 -0.218849,0.168156 -0.351148,0.168156 -0.09768,0 -0.196594,-0.03091 -0.278199,-0.09644 l -0.442647,-0.351151 h -0.0087 -0.01113 -0.0099 -0.01113 -0.01113 -0.01113 -0.01113 -0.0012 l -0.0025,0.398134 c -0.0025,0.246051 -0.20154,0.443881 -0.447592,0.443881 h -0.0037 c -0.247288,-0.0012 -0.446355,-0.204012 -0.445118,-0.4513 l 0.0025,-0.390715 h -0.0099 -0.01113 -0.01113 -0.01113 -0.01113 -0.01113 -0.01113 -0.01113 v 0 l -0.4377,0.336312 c -0.0816,0.06306 -0.176811,0.09273 -0.272017,0.09273 -0.134772,0 -0.267071,-0.05935 -0.354858,-0.173102 -0.150846,-0.196594 -0.113752,-0.477266 0.08161,-0.628111 l 0.273253,-0.210195 c -0.261729,-0.282539 -0.311226,-0.545769 0,-0.819759 l -0.263361,-0.208959 c -0.194121,-0.153318 -0.226269,-0.436463 -0.07295,-0.629348 0.154555,-0.194121 0.437699,-0.225032 0.629347,-0.07295 l 0.442646,0.351148 h 0.0087 0.01113 0.01113 0.01113 0.01113 0.01113 0.01113 0.0012 l 0.0025,-0.398133 c 0.0025,-0.247288 0.196594,-0.446355 0.4513,-0.443882 0.247288,0.0012 0.446355,0.204013 0.445119,0.4513 l -0.0025,0.390715 h 0.0099 0.01113 0.01113 0.01113 0.01113 0.01113 0.01113 0.01113 l 0.4377,-0.337548 c 0.196594,-0.149609 0.477265,-0.112516 0.628111,0.0816 0.150846,0.196594 0.113752,0.477266 -0.08161,0.628112 l -0.273253,0.210194 c 0.27987,0.284148 0.300617,0.557071 0,0.820996 z m 6.387447,0 c 0.194122,0.153318 0.226268,0.436463 0.07295,0.629347 -0.08902,0.11128 -0.218848,0.168156 -0.351148,0.168156 -0.09768,0 -0.196594,-0.03091 -0.278199,-0.09644 L 22.898045,26.25044 h -0.0087 -0.01113 -0.01113 -0.01113 -0.01113 -0.01113 -0.0099 -0.0012 l -0.0025,0.398134 c -0.0025,0.246051 -0.20154,0.443881 -0.447592,0.443881 h -0.0037 c -0.247288,-0.0012 -0.446355,-0.204012 -0.445118,-0.4513 l 0.0025,-0.390715 h -0.0099 -0.01113 -0.01113 -0.0099 -0.01113 -0.01113 -0.01113 -0.01113 v 0 l -0.4377,0.336312 c -0.0816,0.06306 -0.17681,0.09273 -0.272016,0.09273 -0.134772,0 -0.267071,-0.05935 -0.354859,-0.173102 -0.150845,-0.196594 -0.113752,-0.477266 0.08161,-0.628111 l 0.273253,-0.210195 c -0.317851,-0.314654 -0.321013,-0.58832 0,-0.819759 l -0.263362,-0.208959 c -0.194121,-0.153318 -0.226268,-0.436463 -0.07295,-0.629348 0.154555,-0.194121 0.436463,-0.225032 0.629348,-0.07295 l 0.442645,0.351148 h 0.0087 0.01113 0.01113 0.01113 0.01113 0.01113 0.01113 0.0012 l 0.0025,-0.398133 c 0.0025,-0.246052 0.201541,-0.443882 0.447591,-0.443882 h 0.0037 c 0.247288,0.0012 0.446355,0.204013 0.445118,0.4513 l -0.0049,0.389479 h 0.0099 0.01113 0.01113 0.01113 0.01113 0.01113 0.01113 0.01113 l 0.437699,-0.337548 c 0.196594,-0.149609 0.478502,-0.112516 0.628111,0.0816 0.150846,0.196594 0.113753,0.477266 -0.0816,0.628111 l -0.273253,0.210195 c 0.279332,0.246394 0.320628,0.516028 0,0.820996 z"
       id="path2"
       sodipodi:nodetypes="ssssscsccscccccccccccscccccccccccccsccccccccccccccccccccccccccccccccsccccscccccccccccscccccccccccccsccccccccccccccccccccccccccccccccccccscccccccccccscccccccccccccscccccccccccccccccsccccccccccccccccc"
       style="stroke-width:1.23644;fill:#eff0f1;fill-opacity:1" />
    <path
       d="m 15.917107,14.634616 c -0.348676,0 -0.755466,0.284381 -0.755466,0.633058 v 0.95453 c 0,0.348676 0.406789,0.633057 0.755466,0.633057 0.348675,0 0.755465,-0.284381 0.755465,-0.633057 v -0.955767 c 0,-0.348675 -0.40679,-0.631821 -0.755465,-0.631821 z"
       id="path6"
       sodipodi:nodetypes="sssssss"
       style="stroke-width:1.23644;fill:#eff0f1;fill-opacity:1" />
    <path
       d="M 19.459507,10.979701 V 7.272856 C 19.459507,5.46889 17.871918,4 15.917107,4 13.963533,4 12.374708,5.46889 12.374708,7.272856 v 3.708082 c -1.582643,1.146179 -2.544593,2.91676 -2.544593,4.885172 0,3.356933 2.731295,6.086993 6.088229,6.086993 3.356933,0 6.086991,-2.73006 6.086991,-6.086993 -0.0012,-1.969648 -0.964422,-3.740229 -2.545828,-4.886409 z M 13.97837,7.272856 c 0,-0.918675 0.869217,-1.666721 1.938737,-1.666721 1.068283,0 1.9375,0.748046 1.9375,1.666721 v 2.828972 c -0.07913,-0.02596 -0.158263,-0.05317 -0.238633,-0.07789 -0.111278,-0.03091 -0.227505,-0.06306 -0.344966,-0.08779 -0.0915,-0.02102 -0.178047,-0.03709 -0.265835,-0.0544 -0.119935,-0.02102 -0.246052,-0.0408 -0.373405,-0.05688 L 16.454957,9.807557 c -0.176811,-0.01607 -0.356094,-0.0272 -0.539086,-0.0272 -0.181757,0 -0.362278,0.01236 -0.540324,0.0272 l -0.165683,0.017311 c -0.138482,0.01607 -0.264598,0.03586 -0.389479,0.05935 -0.08037,0.01607 -0.166919,0.03091 -0.252234,0.05069 -0.123643,0.0272 -0.239869,0.05935 -0.354858,0.0915 -0.07666,0.02349 -0.157028,0.04946 -0.23616,0.07666 v -2.83021 z m 4.098797,8.949348 c 0,1.122688 -1.037374,2.03518 -2.158823,2.03518 -1.122688,0 -2.16006,-0.912492 -2.16006,-2.03518 v -0.955767 c 0,-1.122688 1.037372,-2.03518 2.16006,-2.03518 1.122687,0 2.158823,0.912492 2.158823,2.03518 z"
       id="path8"
       sodipodi:nodetypes="cssscsscccssccccccsccccccccsssssss"
       style="fill:#eff0f1;stroke-width:1.23644;fill-opacity:1" />
  </g>
  <g
     id="22-22-kgpg"
     transform="translate(32,10.000001)">
    <rect
       style="opacity:0.00100002"
       width="22"
       height="22"
       x="0"
       y="0"
       id="rect2" />
    <path
       d="M 17.225393,15.121701 H 4.806588 C 3.754794,15.121701 2.9,15.977318 2.9,17.028291 2.9,18.144384 3.755618,19 4.806588,19 h 12.417968 c 1.051807,0 1.9066,-0.855616 1.9066,-1.90659 0.0012,-1.116092 -0.854793,-1.971709 -1.905763,-1.971709 z M 7.782286,17.60035 c 0.129416,0.102214 0.150849,0.290151 0.04861,0.419566 -0.05937,0.07419 -0.145903,0.112103 -0.234104,0.112103 -0.06514,0 -0.131056,-0.02061 -0.18546,-0.06429 L 7.116233,17.833626 h -0.0057 -0.0073 -0.0073 -0.0073 -0.0073 -0.0073 -0.0073 -0.0012 l -0.0017,0.265422 c -0.0018,0.164035 -0.13519,0.295921 -0.29922,0.295921 h -0.0022 c -0.164858,-8e-4 -0.297568,-0.136008 -0.296744,-0.300867 l 0.0018,-0.260476 h -0.0046 -0.0073 -0.0073 -0.0073 -0.0073 -0.0073 -0.0073 -0.0065 v 0 l -0.291463,0.224208 c -0.05441,0.04204 -0.117874,0.06182 -0.181344,0.06182 -0.08983,0 -0.17805,-0.03957 -0.236572,-0.115401 -0.10138,-0.131063 -0.07664,-0.318178 0.0536,-0.418741 l 0.18242,-0.14013 c -0.254474,-0.155342 -0.24624,-0.434661 0,-0.546506 L 5.762882,16.758746 C 5.633461,16.656533 5.612032,16.468595 5.714262,16.339181 5.818116,16.209766 6.006055,16.189159 6.133825,16.29055 l 0.295101,0.234099 h 0.0065 0.0073 0.0073 0.0073 0.0073 0.0073 0.0073 0.0012 l 0.0017,-0.265423 c 0.0012,-0.164858 0.102216,-0.297568 0.300869,-0.29592 0.164857,8e-4 0.297567,0.136008 0.296745,0.300866 l -0.0032,0.260477 h 0.0065 0.0073 0.0073 0.0073 0.0073 0.0073 0.0073 0.0065 l 0.291763,-0.225033 c 0.131062,-0.09974 0.319004,-0.07418 0.418741,0.0544 0.100579,0.131063 0.0758,0.318178 -0.0544,0.418741 l -0.182182,0.14013 c 0.103072,0.05474 0.163148,0.139347 0.1737,0.231438 0.01226,0.106866 -0.04221,0.223814 -0.1737,0.315893 z m 4.257478,0 c 0.129412,0.102214 0.150842,0.290976 0.04861,0.419566 -0.05937,0.07419 -0.145894,0.112103 -0.234098,0.112103 -0.06513,0 -0.131061,-0.02061 -0.185466,-0.06429 l -0.295093,-0.2341 h -0.0057 -0.0073 -0.0065 -0.0073 -0.0073 -0.0073 -0.0073 -0.0012 l -0.0017,0.265422 c -0.0017,0.164034 -0.134361,0.295921 -0.298395,0.295921 h -0.0023 c -0.164863,-8e-4 -0.297573,-0.136008 -0.296746,-0.300867 l 0.0018,-0.260476 h -0.0065 -0.0073 -0.0073 -0.0073 -0.0073 -0.0073 -0.0073 -0.0073 v 0 l -0.292524,0.224207 c -0.0544,0.04204 -0.117875,0.06182 -0.181347,0.06182 -0.08983,0 -0.178048,-0.03957 -0.236568,-0.115401 -0.100579,-0.131063 -0.07578,-0.318177 0.05441,-0.418741 l 0.182169,-0.14013 c -0.174488,-0.188358 -0.207485,-0.363846 0,-0.546506 l -0.176205,-0.139305 c -0.12941,-0.102212 -0.150843,-0.290975 -0.0486,-0.419565 0.103029,-0.129414 0.291799,-0.150021 0.419566,-0.04863 l 0.295098,0.234099 h 0.0057 0.0073 0.0073 0.0073 0.0073 0.0073 0.0073 0.0012 l 0.0017,-0.265422 c 0.0017,-0.164858 0.131065,-0.29757 0.300867,-0.295921 0.16486,7.92e-4 0.297573,0.136009 0.296747,0.300867 l -0.0018,0.260476 h 0.0065 0.0073 0.0073 0.0073 0.0073 0.0073 0.0073 0.0073 l 0.291803,-0.225032 c 0.131062,-0.09974 0.318174,-0.07501 0.418742,0.0544 0.100578,0.131063 0.07578,0.318178 -0.05441,0.418741 l -0.182173,0.14013 c 0.18658,0.189432 0.200415,0.371381 0,0.547331 z m 4.258298,0 c 0.129414,0.102214 0.150845,0.290976 0.04861,0.419566 -0.05938,0.07419 -0.145893,0.112103 -0.234097,0.112103 -0.06513,0 -0.131064,-0.02061 -0.185467,-0.06429 L 15.632006,17.83363 h -0.0057 -0.0073 -0.0073 -0.0073 -0.0073 -0.0073 -0.0065 -0.0012 l -0.0017,0.265423 c -0.0017,0.164034 -0.134358,0.295921 -0.298397,0.295921 h -0.0023 c -0.165558,-8.08e-4 -0.298266,-0.136008 -0.297444,-0.300868 l 0.0018,-0.260476 h -0.0065 -0.0073 -0.0073 -0.0065 -0.0073 -0.0073 -0.0073 -0.0073 v 0 l -0.291951,0.224208 c -0.0544,0.04204 -0.117873,0.06182 -0.181343,0.06182 -0.08983,0 -0.178052,-0.03956 -0.236574,-0.115401 -0.100578,-0.131063 -0.0758,-0.318177 0.05441,-0.41874 l 0.182172,-0.140131 c -0.2119,-0.209769 -0.214011,-0.392213 0,-0.546506 l -0.175046,-0.139306 c -0.129414,-0.102211 -0.150844,-0.290975 -0.04861,-0.419565 0.10303,-0.129414 0.290975,-0.150022 0.419566,-0.04863 l 0.295098,0.234099 h 0.0057 0.0073 0.0073 0.0073 0.0073 0.0073 0.0073 0.0012 l 0.0017,-0.265422 c 0.0018,-0.164035 0.134362,-0.295922 0.298393,-0.295922 h 0.0022 c 0.164859,8e-4 0.297573,0.136009 0.296747,0.300867 l -0.0032,0.259653 h 0.0065 0.0073 0.0073 0.0073 0.0073 0.0073 0.0073 0.0073 l 0.2918,-0.225032 c 0.131062,-0.09974 0.319004,-0.07501 0.418741,0.0544 0.100579,0.131063 0.0758,0.318178 -0.0544,0.418741 l -0.182167,0.14013 c 0.186222,0.164262 0.213754,0.344018 0,0.54733 z"
       id="path2-3"
       sodipodi:nodetypes="ssssscsccscccccccccccscccccccccccccsccccccccccccccccccccccccccccccccsccccscccccccccccscccccccccccccsccccccccccccccccccccccccccccccccccccscccccccccccscccccccccccccscccccccccccccccccsccccccccccccccccc"
       style="stroke-width:0.824303;fill:#eff0f1;fill-opacity:1" />
    <path
       d="m 10.978069,10.089744 c -0.232448,0 -0.503644,0.189587 -0.503644,0.422039 v 0.636352 c 0,0.232452 0.271195,0.422039 0.503644,0.422039 0.232453,0 0.503648,-0.189587 0.503648,-0.422039 v -0.637177 c 0,-0.23245 -0.271195,-0.421214 -0.503648,-0.421214 z"
       id="path6-6"
       sodipodi:nodetypes="sssssss"
       style="stroke-width:0.824303;fill:#eff0f1;fill-opacity:1" />
    <path
       d="M 13.339669,7.6531343 V 5.181903 C 13.339669,3.979257 12.28128,3 10.978069,3 9.675694,3 8.616469,3.979257 8.616469,5.181903 V 7.6539588 C 7.561381,8.4180783 6.920084,9.5984657 6.920084,10.91074 c 0,2.237955 1.820858,4.057995 4.058813,4.057995 2.237953,0 4.057994,-1.82004 4.057994,-4.057995 -0.0012,-1.3130981 -0.642948,-2.4934861 -1.697222,-3.2576057 z M 9.685583,5.181903 c 0,-0.612447 0.57948,-1.111145 1.292486,-1.111145 0.712191,0 1.291671,0.498698 1.291671,1.111145 v 1.8859827 c -0.05273,-0.017304 -0.105509,-0.035442 -0.15909,-0.05192 -0.07416,-0.020607 -0.151667,-0.042038 -0.229978,-0.058527 -0.06099,-0.014014 -0.118698,-0.024722 -0.177223,-0.036268 -0.07994,-0.014014 -0.164035,-0.0272 -0.248935,-0.03792 l -0.117875,-0.011541 c -0.117875,-0.01071 -0.237398,-0.018132 -0.359389,-0.018132 -0.121166,0 -0.241524,0.0082 -0.360216,0.018132 l -0.110457,0.011541 c -0.09234,0.01071 -0.176395,0.023906 -0.259654,0.039567 -0.05362,0.01071 -0.111278,0.020607 -0.168157,0.033792 -0.08242,0.018132 -0.159909,0.039565 -0.236568,0.060998 -0.05106,0.01566 -0.104686,0.032976 -0.15744,0.051106 V 5.181907 Z m 2.732528,5.966233 c 0,0.748458 -0.691579,1.356787 -1.439214,1.356787 -0.748459,0 -1.44004,-0.608329 -1.44004,-1.356787 v -0.637178 c 0,-0.7484583 0.691581,-1.3567863 1.44004,-1.3567863 0.748456,0 1.439214,0.608328 1.439214,1.3567863 z"
       id="path8-7"
       sodipodi:nodetypes="cssscsscccssccccccsccccccccsssssss"
       style="fill:#eff0f1;stroke-width:0.824303;fill-opacity:1" />
  </g>
</svg>
