<?xml version="1.0" encoding="UTF-8" standalone="no"?>
<svg
   xmlns:dc="http://purl.org/dc/elements/1.1/"
   xmlns:cc="http://creativecommons.org/ns#"
   xmlns:rdf="http://www.w3.org/1999/02/22-rdf-syntax-ns#"
   xmlns:svg="http://www.w3.org/2000/svg"
   xmlns="http://www.w3.org/2000/svg"
   xmlns:sodipodi="http://sodipodi.sourceforge.net/DTD/sodipodi-0.dtd"
   xmlns:inkscape="http://www.inkscape.org/namespaces/inkscape"
   width="22"
   height="22"
   version="1.1"
   id="svg12"
   sodipodi:docname="kmail.svg"
   inkscape:version="1.0.2 (e86c870879, 2021-01-15)">
  <metadata
     id="metadata18">
    <rdf:RDF>
      <cc:Work
         rdf:about="">
        <dc:format>image/svg+xml</dc:format>
        <dc:type
           rdf:resource="http://purl.org/dc/dcmitype/StillImage" />
      </cc:Work>
    </rdf:RDF>
  </metadata>
  <defs
     id="defs16" />
  <sodipodi:namedview
     pagecolor="#ffffff"
     bordercolor="#666666"
     borderopacity="1"
     objecttolerance="10"
     gridtolerance="10"
     guidetolerance="10"
     inkscape:pageopacity="0"
     inkscape:pageshadow="2"
     inkscape:window-width="1920"
     inkscape:window-height="1007"
     id="namedview14"
     showgrid="false"
     inkscape:zoom="9.8125"
     inkscape:cx="-35.027567"
     inkscape:cy="5.125911"
     inkscape:window-x="0"
     inkscape:window-y="0"
     inkscape:window-maximized="1"
     inkscape:current-layer="svg12"
     inkscape:document-rotation="0">
    <inkscape:grid
       type="xygrid"
       id="grid835"
       originx="-32"
       originy="-10" />
  </sodipodi:namedview>
  <g
     id="kmail"
     transform="translate(-32,-10)">
    <rect
       style="opacity:0.00100002"
       width="32"
       height="32"
       x="0"
       y="0"
       id="rect7" />
    <path
       inkscape:connector-curvature="0"
       id="path4252"
       style="font-style:normal;font-variant:normal;font-weight:normal;font-stretch:normal;font-size:18.5263px;line-height:125%;font-family:'Product Sans';-inkscape-font-specification:'Product Sans';letter-spacing:0px;word-spacing:0px;fill:#d3dae3;fill-opacity:1;stroke:none;stroke-width:0.750006;stroke-linecap:butt;stroke-linejoin:miter;stroke-miterlimit:4;stroke-dasharray:none;stroke-opacity:0.85"
       d="m 16.078447,4 q 5.053249,0 8.504375,3.512877 3.450971,3.513108 3.450971,8.487021 0,2.79809 -1.201625,4.632197 -1.170884,1.834257 -3.420249,1.834257 -2.311117,0 -3.451109,-2.26944 -1.509886,2.26944 -4.313834,2.26944 -2.526768,0 -4.252128,-1.772004 -1.725645,-1.803177 -1.725645,-4.569897 0,-2.735763 1.725645,-4.539087 1.72536,-1.802977 4.128839,-1.802977 2.372664,0 3.944139,1.834266 h 0.123608 v -1.398948 h 2.218534 v 8.113953 q 0,0.808261 0.431329,1.461012 0.462147,0.652776 1.386705,0.652776 2.187683,0 2.187683,-4.445548 0,-4.103548 -2.834815,-6.932574 -2.83488,-2.8289626 -6.902126,-2.8289626 -4.067268,0 -6.902274,2.8289626 -2.8346709,2.829026 -2.8346709,6.932574 0,4.103777 2.8346709,6.932777 2.835006,2.828831 6.902274,2.828831 2.187657,0 3.913126,-0.870365 l 0.862879,2.113954 Q 18.697736,28 16.078744,28 10.963833,28 7.4818033,24.518057 4,21.00518 4,15.999898 4,11.025985 7.4818033,7.512877 10.994487,4 16.078744,4 Z m -2.865694,15.015574 q 1.109337,1.088101 2.64993,1.088101 1.540644,0 2.619129,-1.088101 1.109314,-1.08817 1.109314,-2.891123 0,-1.803325 -1.109314,-2.891263 -1.078485,-1.088101 -2.619129,-1.088101 -1.540593,0 -2.64993,1.088101 -1.078468,1.087938 -1.078468,2.891263 0,1.802953 1.078468,2.891123 z" />
  </g>
  <g
     id="22-22-kmail"
     transform="translate(-32,-10)">
    <rect
       style="opacity:0.00100002"
       width="22"
       height="22"
       x="32"
       y="10"
       id="rect2" />
    <path
       inkscape:connector-curvature="0"
       id="path4252-3"
       style="font-style:normal;font-variant:normal;font-weight:normal;font-stretch:normal;font-size:18.5263px;line-height:125%;font-family:'Product Sans';-inkscape-font-specification:'Product Sans';letter-spacing:0px;word-spacing:0px;fill:#d3dae3;fill-opacity:1;stroke:none;stroke-width:0.500006;stroke-linecap:butt;stroke-linejoin:miter;stroke-miterlimit:4;stroke-dasharray:none;stroke-opacity:0.85"
       d="m 43.052299,13 q 3.368838,0 5.669584,2.341916 2.300648,2.342068 2.300648,5.658008 0,1.865402 -0.801082,3.08814 -0.780588,1.222837 -2.280169,1.222837 -1.540741,0 -2.300734,-1.51296 -1.006596,1.51296 -2.875891,1.51296 -1.684515,0 -2.834756,-1.181335 -1.150432,-1.20213 -1.150432,-3.04661 0,-1.82384 1.150432,-3.026049 1.150241,-1.201991 2.752565,-1.201991 1.581782,0 2.629417,1.222856 h 0.08241 V 17.14514 h 1.479021 v 5.409295 q 0,0.538844 0.287557,0.974013 0.308096,0.435178 0.924471,0.435178 1.458447,0 1.458447,-2.963702 0,-2.73568 -1.889876,-4.62171 -1.88992,-1.88597 -4.601411,-1.88597 -2.711515,0 -4.601522,1.88597 -1.889774,1.88603 -1.889774,4.62171 0,2.735854 1.889774,4.62186 1.890007,1.885887 4.601522,1.885887 1.458438,0 2.608747,-0.580244 l 0.575257,1.409303 Q 44.798484,29 43.0525,29 39.642553,29 37.321204,26.678704 35,24.336785 35,20.999924 35,17.683984 37.321204,15.341916 39.662991,13 43.0525,13 Z m -1.910453,10.01038 q 0.739548,0.725398 1.766609,0.725398 1.027098,0 1.746087,-0.725398 0.739545,-0.725444 0.739545,-1.927424 0,-1.202207 -0.739545,-1.927501 -0.718989,-0.725399 -1.746087,-0.725399 -1.027061,0 -1.766609,0.725399 -0.718989,0.725294 -0.718989,1.927501 0,1.20198 0.718989,1.927424 z" />
  </g>
</svg>
