<?xml version="1.0" encoding="UTF-8" standalone="no"?>
<svg
   xmlns:dc="http://purl.org/dc/elements/1.1/"
   xmlns:cc="http://creativecommons.org/ns#"
   xmlns:rdf="http://www.w3.org/1999/02/22-rdf-syntax-ns#"
   xmlns:svg="http://www.w3.org/2000/svg"
   xmlns="http://www.w3.org/2000/svg"
   xmlns:sodipodi="http://sodipodi.sourceforge.net/DTD/sodipodi-0.dtd"
   xmlns:inkscape="http://www.inkscape.org/namespaces/inkscape"
   width="32"
   height="32"
   version="1.1"
   id="svg12"
   sodipodi:docname="kmail.svg"
   inkscape:version="1.0.1 (3bc2e813f5, 2020-09-07)">
  <metadata
     id="metadata18">
    <rdf:RDF>
      <cc:Work
         rdf:about="">
        <dc:format>image/svg+xml</dc:format>
        <dc:type
           rdf:resource="http://purl.org/dc/dcmitype/StillImage" />
      </cc:Work>
    </rdf:RDF>
  </metadata>
  <defs
     id="defs16" />
  <sodipodi:namedview
     pagecolor="#ffffff"
     bordercolor="#666666"
     borderopacity="1"
     objecttolerance="10"
     gridtolerance="10"
     guidetolerance="10"
     inkscape:pageopacity="0"
     inkscape:pageshadow="2"
     inkscape:window-width="1920"
     inkscape:window-height="1011"
     id="namedview14"
     showgrid="false"
     inkscape:zoom="9.8125"
     inkscape:cx="-3.0275675"
     inkscape:cy="15.125911"
     inkscape:window-x="0"
     inkscape:window-y="0"
     inkscape:window-maximized="1"
     inkscape:current-layer="svg12"
     inkscape:document-rotation="0" />
  <g
     id="kmail">
    <rect
       style="opacity:0.00100002"
       width="32"
       height="32"
       x="0"
       y="0"
       id="rect7" />
    <path
       inkscape:connector-curvature="0"
       id="path4252"
       style="font-style:normal;font-variant:normal;font-weight:normal;font-stretch:normal;font-size:18.5263px;line-height:125%;font-family:'Product Sans';-inkscape-font-specification:'Product Sans';letter-spacing:0px;word-spacing:0px;fill:#d3dae3;fill-opacity:1;stroke:none;stroke-width:0.625006;stroke-linecap:butt;stroke-linejoin:miter;stroke-miterlimit:4;stroke-dasharray:none;stroke-opacity:0.85"
       d="m 16.008942,6.1104023 q 4.211047,0 7.08698,2.927397 2.875811,2.9275877 2.875811,7.0725127 0,2.331744 -1.001352,3.86017 -0.975738,1.52855 -2.850209,1.52855 -1.92593,0 -2.875922,-1.8912 -1.25824,1.8912 -3.594861,1.8912 -2.105646,0 -3.543446,-1.476676 -1.438033,-1.502651 -1.438033,-3.808251 0,-2.279803 1.438033,-3.782566 1.4378,-1.502484 3.440704,-1.502484 1.977223,0 3.286779,1.52856 h 0.103008 v -1.165788 h 1.84878 v 6.761625 q 0,0.673548 0.359442,1.217506 0.385121,0.54398 1.155586,0.54398 1.823067,0 1.823067,-3.704626 0,-3.419615 -2.362346,-5.777145 -2.3624,-2.3574634 -5.751766,-2.3574634 -3.389389,0 -5.7519,2.3574634 -2.362224,2.35753 -2.362224,5.777145 0,3.419815 2.362224,5.777323 2.362511,2.357352 5.7519,2.357352 1.823044,0 3.260933,-0.7253 l 0.719072,1.761621 q -1.79752,0.829093 -3.980005,0.829093 -4.26243,0 -7.16412,-2.901623 -2.901503,-2.927397 -2.901503,-7.098466 0,-4.144925 2.901503,-7.0725127 2.927237,-2.927397 7.16412,-2.927397 z m -2.38807,12.5129727 q 0.924445,0.906752 2.208266,0.906752 1.283875,0 2.182607,-0.906752 0.924434,-0.906809 0.924434,-2.40927 0,-1.502764 -0.924434,-2.409382 -0.898732,-0.906753 -2.182607,-0.906753 -1.283821,0 -2.208266,0.906753 -0.898732,0.906618 -0.898732,2.409382 0,1.502461 0.898732,2.40927 z" />
  </g>
  <g
     id="22-22-kmail">
    <rect
       style="opacity:0.00100002"
       width="22"
       height="22"
       x="32"
       y="10"
       id="rect2" />
    <path
       inkscape:connector-curvature="0"
       id="path4252-3"
       style="font-style:normal;font-variant:normal;font-weight:normal;font-stretch:normal;font-size:18.5263px;line-height:125%;font-family:'Product Sans';-inkscape-font-specification:'Product Sans';letter-spacing:0px;word-spacing:0px;fill:#d3dae3;fill-opacity:1;stroke:none;stroke-width:0.437506;stroke-linecap:butt;stroke-linejoin:miter;stroke-miterlimit:4;stroke-dasharray:none;stroke-opacity:0.85"
       d="m 42.95784,14.059192 q 2.947737,0 4.960886,2.049176 2.013065,2.049308 2.013065,4.950754 0,1.632229 -0.700942,2.702127 -0.683014,1.069983 -1.995149,1.069983 -1.348147,0 -2.01314,-1.32384 -0.88077,1.32384 -2.516404,1.32384 -1.473955,0 -2.480416,-1.033674 -1.006626,-1.051857 -1.006626,-2.665777 0,-1.59586 1.006626,-2.647796 1.006461,-1.051737 2.408498,-1.051737 1.384059,0 2.300741,1.069996 h 0.07212 v -0.816052 h 1.294147 v 4.733134 q 0,0.471484 0.251611,0.852254 0.269582,0.380784 0.808911,0.380784 1.276139,0 1.276139,-2.593242 0,-2.39372 -1.653642,-4.043996 -1.65368,-1.650224 -4.026231,-1.650224 -2.372575,0 -4.026335,1.650224 -1.653554,1.650276 -1.653554,4.043996 0,2.393874 1.653554,4.044133 1.65376,1.650147 4.026335,1.650147 1.276132,0 2.282648,-0.50771 l 0.503356,1.233135 q -1.258273,0.580364 -2.786004,0.580364 -2.983706,0 -5.014889,-2.031136 -2.03105,-2.049179 -2.03105,-4.968933 0,-2.901446 2.03105,-4.950754 2.049067,-2.049176 5.014889,-2.049176 z m -1.671643,8.75908 q 0.647104,0.634724 1.545779,0.634724 0.898717,0 1.527827,-0.634724 0.647104,-0.634764 0.647104,-1.686491 0,-1.051934 -0.647104,-1.686568 -0.62911,-0.634725 -1.527827,-0.634725 -0.898675,0 -1.545779,0.634725 -0.629119,0.634634 -0.629119,1.686568 0,1.051727 0.629119,1.686491 z" />
  </g>
</svg>
