<?xml version="1.0" encoding="UTF-8" standalone="no"?>
<svg
   xmlns:dc="http://purl.org/dc/elements/1.1/"
   xmlns:cc="http://creativecommons.org/ns#"
   xmlns:rdf="http://www.w3.org/1999/02/22-rdf-syntax-ns#"
   xmlns:svg="http://www.w3.org/2000/svg"
   xmlns="http://www.w3.org/2000/svg"
   xmlns:sodipodi="http://sodipodi.sourceforge.net/DTD/sodipodi-0.dtd"
   xmlns:inkscape="http://www.inkscape.org/namespaces/inkscape"
   id="svg"
   width="100%"
   height="100%"
   version="1.1"
   viewBox="0 0 22 22"
   sodipodi:docname="konv_message.svg"
   inkscape:version="1.0.1 (3bc2e813f5, 2020-09-07)">
  <metadata
     id="metadata11">
    <rdf:RDF>
      <cc:Work
         rdf:about="">
        <dc:format>image/svg+xml</dc:format>
        <dc:type
           rdf:resource="http://purl.org/dc/dcmitype/StillImage" />
      </cc:Work>
    </rdf:RDF>
  </metadata>
  <sodipodi:namedview
     pagecolor="#ffffff"
     bordercolor="#666666"
     borderopacity="1"
     objecttolerance="10"
     gridtolerance="10"
     guidetolerance="10"
     inkscape:pageopacity="0"
     inkscape:pageshadow="2"
     inkscape:window-width="1920"
     inkscape:window-height="1013"
     id="namedview9"
     showgrid="false"
     inkscape:zoom="7.1363636"
     inkscape:cx="53.900864"
     inkscape:cy="-4.4486619"
     inkscape:window-x="0"
     inkscape:window-y="0"
     inkscape:window-maximized="1"
     inkscape:current-layer="svg" />
  <defs
     id="defs81">
    <style
       id="current-color-scheme"
       type="text/css">
   .ColorScheme-Text { color:#dedede; } .ColorScheme-Highlight { color:#5294e2; } .ColorScheme-ButtonBackground { color:#dedede; }
  </style>
  </defs>
  <g
     id="g10">
    <rect
       id="rect3009"
       width="22"
       height="22"
       x="0"
       y="0"
       style="fill:currentColor;fill-opacity:1;stroke:none;opacity:0.001" />
  </g>
  <g
     id="konv_message"
     transform="matrix(0.24236931,0,0,0.24236931,-47.442139,-31.662789)">
    <path
       id="path2"
       d="m 280.98458,144.27815 h -48 c -1.1,0 -2,0.9 -2,2 v 14 h -30 c -1.1,0 -2,0.9 -2,2 v 32 c 0,1.1 0.9,2 2,2 h 8 v 12 c 0,3 2.9,1.9 3.4,1.4 l 13.4,-13.4 h 23.2 c 1.1,0 2,-0.9 2,-2 v -14 h 5.3 l 13.3,13.4 c 1.3,1.3 3.4,0.3 3.4,-1.4 v -12 h 8 c 1.1,0 2,-0.9 2,-2 v -32 c 0,-1.1 -0.9,-2 -2,-2 z m -34,48 h -22 c -0.5,0 -1,0.2 -1.4,0.6 l -10.6,10.6 v -9.2 c 0,-1.1 -0.9,-2 -2,-2 h -8 v -28 h 28 v 14 c 0,1.1 0.9,2 2,2 h 14 z m 32,-16 h -8 c -1.1,0 -2,0.9 -2,2 v 9.2 l -10.5,-10.6 c -0.4,-0.4 -0.9,-0.6 -1.4,-0.6 h -22.1 v -28 h 44 z"
       style="fill:#08a19d;fill-opacity:1" />
  </g>
</svg>
