<?xml version="1.0" encoding="UTF-8" standalone="no"?>
<svg
   xmlns:dc="http://purl.org/dc/elements/1.1/"
   xmlns:cc="http://creativecommons.org/ns#"
   xmlns:rdf="http://www.w3.org/1999/02/22-rdf-syntax-ns#"
   xmlns:svg="http://www.w3.org/2000/svg"
   xmlns="http://www.w3.org/2000/svg"
   xmlns:xlink="http://www.w3.org/1999/xlink"
   xmlns:sodipodi="http://sodipodi.sourceforge.net/DTD/sodipodi-0.dtd"
   xmlns:inkscape="http://www.inkscape.org/namespaces/inkscape"
   width="32"
   height="32"
   version="1.1"
   id="svg12"
   sodipodi:docname="kteatime.svg"
   inkscape:version="1.0.1 (3bc2e813f5, 2020-09-07)">
  <metadata
     id="metadata18">
    <rdf:RDF>
      <cc:Work
         rdf:about="">
        <dc:format>image/svg+xml</dc:format>
        <dc:type
           rdf:resource="http://purl.org/dc/dcmitype/StillImage" />
      </cc:Work>
    </rdf:RDF>
  </metadata>
  <defs
     id="defs16">
    <linearGradient
       inkscape:collect="always"
       id="linearGradient840">
      <stop
         style="stop-color:#08a19d;stop-opacity:1"
         offset="0"
         id="stop836" />
      <stop
         style="stop-color:#3f9eff;stop-opacity:1"
         offset="1"
         id="stop838" />
    </linearGradient>
    <linearGradient
       inkscape:collect="always"
       xlink:href="#linearGradient840"
       id="linearGradient842"
       x1="12"
       y1="10"
       x2="21"
       y2="23"
       gradientUnits="userSpaceOnUse" />
    <linearGradient
       inkscape:collect="always"
       xlink:href="#linearGradient840"
       id="linearGradient850"
       x1="3.5"
       y1="11"
       x2="18.37886"
       y2="11"
       gradientUnits="userSpaceOnUse" />
  </defs>
  <sodipodi:namedview
     pagecolor="#ffffff"
     bordercolor="#666666"
     borderopacity="1"
     objecttolerance="10"
     gridtolerance="10"
     guidetolerance="10"
     inkscape:pageopacity="0"
     inkscape:pageshadow="2"
     inkscape:window-width="1920"
     inkscape:window-height="1012"
     id="namedview14"
     showgrid="false"
     inkscape:zoom="13.876971"
     inkscape:cx="12.067208"
     inkscape:cy="17.345317"
     inkscape:window-x="0"
     inkscape:window-y="0"
     inkscape:window-maximized="1"
     inkscape:current-layer="svg12"
     inkscape:document-rotation="0"
     inkscape:lockguides="false">
    <inkscape:grid
       type="xygrid"
       id="grid866"
       originx="0"
       originy="0" />
  </sodipodi:namedview>
  <g
     id="kteatime">
    <rect
       style="opacity:0.00100002"
       width="32"
       height="32"
       x="0"
       y="0"
       id="rect7" />
    <path
       style="fill:url(#linearGradient842);fill-opacity:1;stroke-width:0.024491"
       inkscape:connector-curvature="0"
       id="path4-3"
       d="M 16.589516,13.798371 C 23.223805,9.2285723 14.380535,7.5559198 17.799311,4 c -3.044082,0.5069392 -2.461223,3.9795936 -1.834287,4.6138795 0.624492,0.6342863 3.29388,1.5453055 0.624492,5.1844915 z m -3.205716,0 C 18.815639,10.053879 11.574003,8.719186 14.375637,5.8073477 11.882575,6.2236737 12.360126,9.06694 12.871962,9.586124 13.3838,10.107757 15.57074,10.817962 13.3838,13.798371 Z m 13.719199,4.332247 c -0.04408,-0.154286 -0.105317,-0.301226 -0.173891,-0.445717 -0.01714,-0.03429 -0.03183,-0.06612 -0.04898,-0.100407 -0.07347,-0.139592 -0.151826,-0.271837 -0.244901,-0.396735 -0.0049,-0.0049 -0.0074,-0.0098 -0.01224,-0.01469 -0.09305,-0.122448 -0.195917,-0.235102 -0.306121,-0.342856 -0.02204,-0.02204 -0.04408,-0.04408 -0.06857,-0.06612 -0.117553,-0.110204 -0.242449,-0.213062 -0.377144,-0.303674 -0.0024,-0.0024 -0.0049,-0.0024 -0.0074,-0.0049 -0.134685,-0.09306 -0.281621,-0.173879 -0.431015,-0.247349 -0.01959,-0.0098 -0.03919,-0.01959 -0.05877,-0.02939 -0.31592,-0.149387 -0.658776,-0.257144 -1.021226,-0.320816 -0.01225,-0.0024 -0.02694,-0.0049 -0.03919,-0.0073 -0.186114,-0.03184 -0.374694,-0.05143 -0.568161,-0.05878 -0.105305,-0.592653 -0.614693,-1.234286 -1.229385,-1.234286 H 8.248289 c -0.690612,0 -1.25143,0.759183 -1.25143,1.462041 h -0.01714 c 0,0 0,0.176327 0.01714,0.482449 v 0.02694 c 0,0.01469 0.0049,0.02939 0.0049,0.04653 0.105306,1.724083 0.754286,7.376325 4.709387,9.45307 h 7.42531 c 1.131429,-1.006531 1.981225,-2.365722 2.632654,-3.323271 0.164081,0.03673 0.333061,0.06122 0.504489,0.08081 0.03674,0.0049 0.07102,0.0073 0.107756,0.0098 0.173878,0.01469 0.350204,0.02204 0.531428,0.01469 h 0.0049 c 0.173876,-0.0073 0.350205,-0.02694 0.526531,-0.05143 0.04408,-0.0073 0.08816,-0.0147 0.132245,-0.02204 0.181224,-0.03184 0.359997,-0.07102 0.541224,-0.1249 2.174694,-0.644081 3.511837,-2.652243 2.985317,-4.481631 z M 8.860532,16.022044 h 2.091431 c 0,0 -1.484083,2.600817 1.618774,8.760001 C 8.591145,22.658783 8.860532,16.022044 8.860532,16.022044 Z m 14.887352,5.319186 c -0.146935,0.04408 -0.296326,0.07102 -0.440816,0.09061 -0.03918,0.0049 -0.07837,0.0098 -0.115103,0.0147 -0.13959,0.01225 -0.276733,0.01959 -0.413877,0.01469 -0.02939,-0.0024 -0.05877,-0.0073 -0.08816,-0.0098 -0.07102,-0.0049 -0.139592,-0.01959 -0.210611,-0.02939 0.920818,-1.667755 1.214692,-3.237551 1.263674,-4.253879 0.881634,0.105306 1.618782,0.622041 1.84653,1.413063 0.323273,1.12653 -0.502038,2.360817 -1.841634,2.76 z M 4.912777,26.572252 c 0,0 -0.249796,1.427747 1.459592,1.427747 h 17.517557 c 1.376328,0 1.29306,-1.427747 1.29306,-1.427747 z" />
  </g>
  <g
     id="22-22-kteatime"
     transform="translate(32,10)">
    <rect
       style="opacity:0.00100002"
       width="22"
       height="22"
       x="0"
       y="0"
       id="rect2" />
    <path
       style="fill:url(#linearGradient850);fill-opacity:1.0;stroke-width:0.0163279"
       inkscape:connector-curvature="0"
       id="path4-3-3"
       d="M 11.293012,9.53224 C 15.715874,6.485713 9.8203586,5.37062 12.099544,3 c -2.029389,0.337961 -1.640817,2.653055 -1.222863,3.07592 0.416331,0.422865 2.195918,1.030205 0.416331,3.45632 z m -2.1371454,0 C 12.777092,7.03592 7.9493361,6.146126 9.8170913,4.204894 8.1550496,4.482454 8.4734172,6.377961 8.8146423,6.72408 9.1558666,7.071837 10.61383,7.54531 9.1558666,9.53224 Z M 18.302,12.420407 c -0.02944,-0.102854 -0.07017,-0.200807 -0.115931,-0.297134 -0.01148,-0.02288 -0.02124,-0.04406 -0.03271,-0.06691 -0.04894,-0.09308 -0.10121,-0.181228 -0.163259,-0.264488 -0.0037,-0.0036 -0.0054,-0.007 -0.0081,-0.0098 -0.06197,-0.08164 -0.130611,-0.156728 -0.204083,-0.228566 -0.01472,-0.01474 -0.02944,-0.02946 -0.04566,-0.0441 -0.07837,-0.07343 -0.161639,-0.142041 -0.251434,-0.20244 -0.0022,-0.0023 -0.0037,-0.0023 -0.0054,-0.0037 -0.08981,-0.06203 -0.187745,-0.11592 -0.287344,-0.1649 -0.01308,-0.0072 -0.02619,-0.01308 -0.03919,-0.01963 -0.210615,-0.09959 -0.439186,-0.171432 -0.680819,-0.213879 -0.0081,-0.0023 -0.01799,-0.0037 -0.02619,-0.0053 -0.124075,-0.02125 -0.249794,-0.03433 -0.378774,-0.0392 -0.07016,-0.395104 -0.409793,-0.822858 -0.819587,-0.822858 H 5.7321933 c -0.4604092,0 -0.8342866,0.506122 -0.8342866,0.974696 h -0.011432 c 0,0 0,0.11755 0.011434,0.321631 v 0.01799 c 0,0.0098 0.0033,0.01962 0.0033,0.03107 0.070202,1.149388 0.5028569,4.91755 3.1395911,6.302046 H 12.991 c 0.754289,-0.67102 1.320823,-1.577148 1.755113,-2.215515 0.109379,0.02449 0.222039,0.04082 0.336328,0.05387 0.02454,0.0034 0.04728,0.0049 0.07178,0.0066 0.11593,0.0097 0.233479,0.0147 0.354288,0.0097 h 0.0037 c 0.115916,-0.0049 0.233471,-0.01797 0.35102,-0.0343 0.02945,-0.0049 0.05875,-0.0097 0.08818,-0.0147 0.120815,-0.02123 0.239998,-0.04734 0.360815,-0.08327 1.449798,-0.429389 2.341223,-1.768164 1.990211,-2.987756 z M 6.1403551,11.014692 h 1.3942877 c 0,0 -0.9893884,1.733878 1.0791827,5.840004 C 5.9607634,15.439189 6.1403551,11.014692 6.1403551,11.014692 Z m 9.9248969,3.546131 c -0.09796,0.02943 -0.197544,0.04729 -0.293869,0.06038 -0.02618,0.0037 -0.05217,0.0071 -0.07672,0.0097 -0.09308,0.0081 -0.184482,0.01309 -0.275904,0.0097 -0.01963,-0.0018 -0.03922,-0.0052 -0.05875,-0.0071 -0.04729,-0.0037 -0.09307,-0.01309 -0.140402,-0.01963 0.613874,-1.111836 0.809789,-2.158366 0.842442,-2.83592 0.58776,0.07016 1.079191,0.414695 1.231023,0.942043 0.215517,0.751022 -0.334698,1.573878 -1.227757,1.839999 z M 3.5085181,18.048168 c 0,0 -0.1665305,0.951832 0.9730612,0.951832 H 16.159947 C 17.077508,19 17.022,18.048168 17.022,18.048168 Z" />
  </g>
</svg>
