<?xml version="1.0" encoding="UTF-8" standalone="no"?>
<svg
   xmlns:dc="http://purl.org/dc/elements/1.1/"
   xmlns:cc="http://creativecommons.org/ns#"
   xmlns:rdf="http://www.w3.org/1999/02/22-rdf-syntax-ns#"
   xmlns:svg="http://www.w3.org/2000/svg"
   xmlns="http://www.w3.org/2000/svg"
   xmlns:sodipodi="http://sodipodi.sourceforge.net/DTD/sodipodi-0.dtd"
   xmlns:inkscape="http://www.inkscape.org/namespaces/inkscape"
   inkscape:version="1.0.1 (3bc2e813f5, 2020-09-07)"
   sodipodi:docname="media.svg"
   id="svg218"
   viewBox="0 0 20 20"
   version="1.1"
   height="20"
   width="20">
  <metadata
     id="metadata224">
    <rdf:RDF>
      <cc:Work
         rdf:about="">
        <dc:format>image/svg+xml</dc:format>
        <dc:type
           rdf:resource="http://purl.org/dc/dcmitype/StillImage" />
      </cc:Work>
    </rdf:RDF>
  </metadata>
  <defs
     id="defs222" />
  <sodipodi:namedview
     inkscape:document-rotation="0"
     inkscape:lockguides="false"
     inkscape:current-layer="svg218"
     inkscape:window-maximized="1"
     inkscape:window-y="0"
     inkscape:window-x="0"
     inkscape:cy="14.776088"
     inkscape:cx="108.10616"
     inkscape:zoom="4"
     showgrid="false"
     id="namedview220"
     inkscape:window-height="1009"
     inkscape:window-width="1920"
     inkscape:pageshadow="2"
     inkscape:pageopacity="0"
     guidetolerance="10"
     gridtolerance="10"
     objecttolerance="10"
     borderopacity="1"
     bordercolor="#666666"
     pagecolor="#ffffff">
    <inkscape:grid
       id="grid933"
       type="xygrid" />
  </sodipodi:namedview>
  <g
     transform="matrix(0.68181819,0,0,0.68181819,0,27.000001)"
     id="22-22-media-playback-start">
    <rect
       id="rect2"
       y="0"
       x="0"
       height="22"
       width="22"
       style="opacity:0.00100002" />
    <path
       sodipodi:nodetypes="ssssscccc"
       inkscape:connector-curvature="0"
       id="path4"
       d="m 11,3 c -4.418278,0 -8,3.581722 -8,8 0,4.418278 3.581722,8 8,8 4.418278,0 8,-3.581722 8,-8 C 19,6.581722 15.418278,3 11,3 Z M 8,7 14.927519,11 8,15 Z"
       style="fill:#d3dae3;fill-opacity:1;opacity:1" />
  </g>
  <g
     transform="matrix(0.68181819,0,0,0.68181819,6.8181819,27.000001)"
     id="22-22-media-skip-forward">
    <rect
       id="rect7"
       y="0"
       x="22"
       height="22"
       width="22"
       style="opacity:0.00100002" />
    <path
       inkscape:connector-curvature="0"
       id="path9"
       d="m 33,3 c -4.418278,0 -8,3.581722 -8,8 0,4.418278 3.581722,8 8,8 4.418278,0 8,-3.581722 8,-8 0,-4.418278 -3.581722,-8 -8,-8 z m -4,4 6,3.5 V 7 h 2 v 4 4 H 35 V 11.5 L 29,15 Z"
       style="fill:#d3dae3;fill-opacity:1;opacity:1" />
  </g>
  <g
     transform="matrix(0.68181819,0,0,0.68181819,-3.4090905,10.636366)"
     id="22-22-media-playback-pause">
    <rect
       id="rect12"
       y="24"
       x="165"
       height="22"
       width="22"
       style="opacity:0.00100002" />
    <path
       inkscape:connector-curvature="0"
       id="path14"
       transform="translate(55,24)"
       d="m 121,3 c -4.41828,0 -8,3.581722 -8,8 0,4.418278 3.58172,8 8,8 4.41828,0 8,-3.581722 8,-8 0,-4.418278 -3.58172,-8 -8,-8 z m -4,4 h 3 v 8 h -3 z m 5,0 h 3 v 8 h -3 z"
       style="fill:#d3dae3;fill-opacity:1;opacity:1" />
  </g>
  <g
     transform="matrix(0.68181819,0,0,0.68181819,3.4090905,10.636366)"
     id="22-22-media-playback-stop">
    <rect
       id="rect17"
       y="24"
       x="187"
       height="22"
       width="22"
       style="opacity:0.00100002" />
    <path
       inkscape:connector-curvature="0"
       id="path19"
       transform="translate(55,24)"
       d="m 143,3 c -4.41828,0 -8,3.581722 -8,8 0,4.418278 3.58172,8 8,8 4.41828,0 8,-3.581722 8,-8 0,-4.418278 -3.58172,-8 -8,-8 z m -4,4 h 2 4 2 v 8 h -2 -4 -2 z"
       style="fill:#d3dae3;fill-opacity:1;opacity:1" />
  </g>
  <g
     transform="matrix(0.68181819,0,0,0.68181819,69.545439,27.000001)"
     id="22-22-media-record">
    <rect
       id="rect22"
       y="0"
       x="154"
       height="22"
       width="22"
       style="opacity:0.00100002" />
    <path
       inkscape:connector-curvature="0"
       id="path24"
       d="m 165,3 a 8,8 0 0 0 -8,8 8,8 0 0 0 8,8 8,8 0 0 0 8,-8 8,8 0 0 0 -8,-8 z m 0,4 a 4,4 0 0 1 4,4 4,4 0 0 1 -4,4 4,4 0 0 1 -4,-4 4,4 0 0 1 4,-4 z"
       style="opacity:1;fill:#d3dae3;fill-opacity:1" />
  </g>
  <g
     transform="matrix(0.68181819,0,0,0.68181819,-4.7727268,10.636366)"
     id="22-22-media-eject">
    <rect
       id="rect27"
       y="24"
       x="231"
       height="22"
       width="22"
       style="opacity:0.00100002" />
    <path
       inkscape:connector-curvature="0"
       id="path29"
       transform="translate(55,24)"
       d="m 187,3 c -4.41828,0 -8,3.581722 -8,8 0,4.418278 3.58172,8 8,8 4.41828,0 8,-3.581722 8,-8 0,-4.418278 -3.58172,-8 -8,-8 z m 0,3 4,4 v 1 h -8 v -1 z m -4,7 h 8 v 2 h -8 z"
       style="fill:#d3dae3;fill-opacity:1;opacity:1" />
  </g>
  <g
     transform="matrix(0.68181819,0,0,0.68181819,50.45454,27.000001)"
     id="22-22-media-seek-forward">
    <rect
       id="rect32"
       y="0"
       x="22"
       height="22"
       width="22"
       style="opacity:0.00100002" />
    <path
       inkscape:connector-curvature="0"
       id="path34"
       transform="translate(-44)"
       d="m 77,3 c -4.418278,0 -8,3.581722 -8,8 0,4.418278 3.581722,8 8,8 4.418278,0 8,-3.581722 8,-8 0,-4.418278 -3.581722,-8 -8,-8 z m -5,4 5,3 V 7 l 6,4 -6,4 v -3 l -5,3 v -4 z"
       style="fill:#d3dae3;fill-opacity:1;opacity:1" />
  </g>
  <g
     transform="matrix(-0.68181819,0,0,0.68181819,73.636347,27.000001)"
     id="22-22-media-skip-backward">
    <rect
       id="rect37"
       y="0"
       x="22"
       height="22"
       width="22"
       style="opacity:0.00100002" />
    <path
       inkscape:connector-curvature="0"
       id="path39"
       d="m 33,3 c -4.418278,0 -8,3.581722 -8,8 0,4.418278 3.581722,8 8,8 4.418278,0 8,-3.581722 8,-8 0,-4.418278 -3.581722,-8 -8,-8 z m -4,4 6,3.5 V 7 h 2 v 4 4 H 35 V 11.5 L 29,15 Z"
       style="fill:#d3dae3;fill-opacity:1;opacity:1" />
  </g>
  <g
     transform="matrix(-0.68181819,0,0,0.68181819,117.27271,27.000001)"
     id="22-22-media-seek-backward">
    <rect
       id="rect42"
       y="0"
       x="22"
       height="22"
       width="22"
       style="opacity:0.00100002" />
    <path
       inkscape:connector-curvature="0"
       id="path44"
       transform="translate(-44)"
       d="m 77,3 c -4.418278,0 -8,3.581722 -8,8 0,4.418278 3.581722,8 8,8 4.418278,0 8,-3.581722 8,-8 0,-4.418278 -3.581722,-8 -8,-8 z m -5,4 5,3 V 7 l 6,4 -6,4 v -3 l -5,3 v -4 z"
       style="fill:#d3dae3;fill-opacity:1;opacity:1" />
  </g>
  <g
     transform="matrix(0.68181775,0,0,0.68181775,0,-58.999988)"
     id="22-22-media-playback-playing">
    <rect
       id="rect47"
       style="opacity:0.00100002"
       y="0"
       x="0"
       height="22"
       width="22" />
    <path
       sodipodi:nodetypes="ssssscccc"
       inkscape:connector-curvature="0"
       id="path49"
       style="fill:#d3dae3;fill-opacity:1;opacity:1"
       d="m 11,3 c -4.418278,0 -8,3.581722 -8,8 0,4.418278 3.581722,8 8,8 4.418278,0 8,-3.581722 8,-8 C 19,6.581722 15.418278,3 11,3 Z M 8,7 14.973748,11 8,15 Z" />
  </g>
  <g
     transform="matrix(0.68181775,0,0,0.68181775,-3.4090883,-75.363604)"
     id="22-22-media-playback-paused">
    <rect
       id="rect52"
       style="opacity:0.00100002"
       y="24"
       x="165"
       height="22"
       width="22" />
    <path
       inkscape:connector-curvature="0"
       id="path54"
       style="fill:#d3dae3;fill-opacity:1;opacity:1"
       transform="translate(55,24)"
       d="m 121,3 c -4.41828,0 -8,3.581722 -8,8 0,4.418278 3.58172,8 8,8 4.41828,0 8,-3.581722 8,-8 0,-4.418278 -3.58172,-8 -8,-8 z m -4,4 h 3 v 8 h -3 z m 5,0 h 3 v 8 h -3 z" />
  </g>
  <g
     transform="matrix(0.68181775,0,0,0.68181775,3.4090883,-75.363604)"
     id="22-22-media-playback-stopped">
    <rect
       id="rect57"
       style="opacity:0.00100002"
       y="24"
       x="187"
       height="22"
       width="22" />
    <path
       inkscape:connector-curvature="0"
       id="path59"
       style="fill:#d3dae3;fill-opacity:1;opacity:1"
       transform="translate(55,24)"
       d="m 143,3 c -4.41828,0 -8,3.581722 -8,8 0,4.418278 3.58172,8 8,8 4.41828,0 8,-3.581722 8,-8 0,-4.418278 -3.58172,-8 -8,-8 z m -4,4 h 2 4 2 v 8 h -2 -4 -2 z" />
  </g>
  <g
     transform="scale(0.625)"
     id="media-playback-start">
    <rect
       id="rect62"
       y="0"
       x="0"
       height="32"
       width="32"
       style="opacity:0.00100002" />
    <path
       inkscape:connector-curvature="0"
       id="path70"
       style="opacity:1;fill:#d3dae3;fill-opacity:1"
       d="M 16,6 A 10,10 0 0 0 6,16 10,10 0 0 0 16,26 10,10 0 0 0 26,16 10,10 0 0 0 16,6 Z m -2.693359,4.001953 a 1.3639004,1.3848953 0 0 1 0.779297,0.208985 l 3.636718,2.30664 3.636719,2.308594 a 1.3639004,1.3848953 0 0 1 0,2.347656 l -3.636719,2.308594 -3.636718,2.30664 A 1.3639004,1.3848953 0 0 1 12,20.615234 v -9.230468 a 1.3639004,1.3848953 0 0 1 1.306641,-1.382813 z" />
  </g>
  <g
     transform="matrix(0.625,0,0,0.625,100,0)"
     id="media-playback-pause">
    <rect
       id="rect75"
       style="opacity:0.00100002"
       y="0"
       x="0"
       height="32"
       width="32" />
    <path
       inkscape:connector-curvature="0"
       id="path83"
       style="opacity:1;fill:#d3dae3;fill-opacity:1"
       d="M 16,6 C 10.477153,6 6,10.477153 6,16 6,21.522847 10.477153,26 16,26 21.522847,26 26,21.522847 26,16 26,10.477153 21.522847,6 16,6 Z m -3.5,5 c 0.831,0 1.5,0.669 1.5,1.5 v 7 C 14,20.331 13.331,21 12.5,21 11.669,21 11,20.331 11,19.5 v -7 C 11,11.669 11.669,11 12.5,11 Z m 7,0 c 0.831,0 1.5,0.669 1.5,1.5 v 7 C 21,20.331 20.331,21 19.5,21 18.669,21 18,20.331 18,19.5 v -7 C 18,11.669 18.669,11 19.5,11 Z" />
  </g>
  <g
     transform="matrix(0.625,0,0,0.625,120,0)"
     id="media-playback-stop">
    <rect
       id="rect88"
       style="opacity:0.00100002"
       y="0"
       x="0"
       height="32"
       width="32" />
    <path
       inkscape:connector-curvature="0"
       id="path96"
       style="opacity:1;fill:#d3dae3;fill-opacity:1"
       d="M 16,6 A 10,10 0 0 0 6,16 10,10 0 0 0 16,26 10,10 0 0 0 26,16 10,10 0 0 0 16,6 Z m -4,5 h 1 7 c 0.554,0 1,0.446 1,1 v 4 4 c 0,0.554 -0.446,1 -1,1 h -7 -1 c -0.554,0 -1,-0.446 -1,-1 v -8 c 0,-0.554 0.446,-1 1,-1 z" />
  </g>
  <g
     transform="matrix(0.625,0,0,0.625,20,0)"
     id="media-skip-forward">
    <rect
       id="rect101"
       style="opacity:0.00100002"
       y="0"
       x="0"
       height="32"
       width="32" />
    <path
       inkscape:connector-curvature="0"
       id="path109"
       style="opacity:1;fill:#d3dae3;fill-opacity:1"
       d="M 16,6 C 10.477153,6 6,10.477153 6,16 6,21.522847 10.477153,26 16,26 21.522847,26 26,21.522847 26,16 26,10.477153 21.522847,6 16,6 Z m 5,4 c 0.554,0 1,0.446 1,1 v 10 c 0,0.554 -0.446,1 -1,1 -0.554,0 -1,-0.446 -1,-1 v -3.597656 l -3.277344,2.080078 -3.636718,2.30664 C 12.177886,22.364414 11.000839,21.702042 11,20.615234 v -9.230468 c 4.54e-4,-0.741908 0.576624,-1.351666 1.306641,-1.382813 0.274569,-0.011647 0.546197,0.0612 0.779297,0.208985 l 3.636718,2.30664 L 20,14.597656 V 11 c 0,-0.554 0.446,-1 1,-1 z" />
  </g>
  <g
     transform="matrix(-0.625,0,0,0.625,60,0)"
     id="media-skip-backward">
    <rect
       id="rect114"
       y="0"
       x="0"
       height="32"
       width="32"
       style="opacity:0.00100002" />
    <path
       inkscape:connector-curvature="0"
       id="path122"
       d="M 16,6 C 10.477153,6 6,10.477153 6,16 6,21.522847 10.477153,26 16,26 21.522847,26 26,21.522847 26,16 26,10.477153 21.522847,6 16,6 Z m 5,4 c 0.554,0 1,0.446 1,1 v 10 c 0,0.554 -0.446,1 -1,1 -0.554,0 -1,-0.446 -1,-1 v -3.597656 l -3.277344,2.080078 -3.636718,2.30664 C 12.177886,22.364414 11.000839,21.702042 11,20.615234 v -9.230468 c 4.54e-4,-0.741908 0.576624,-1.351666 1.306641,-1.382813 0.274569,-0.011647 0.546197,0.0612 0.779297,0.208985 l 3.636718,2.30664 L 20,14.597656 V 11 c 0,-0.554 0.446,-1 1,-1 z"
       style="opacity:1;fill:#d3dae3;fill-opacity:1" />
  </g>
  <g
     transform="matrix(0.625,0,0,0.625,60,0)"
     id="media-seek-forward">
    <rect
       id="rect127"
       style="opacity:0.00100002"
       y="0"
       x="0"
       height="32"
       width="32" />
    <path
       inkscape:connector-curvature="0"
       id="path135"
       style="opacity:1;fill:#d3dae3;fill-opacity:1"
       d="M 16,6 A 10,10 0 0 0 6,16 10,10 0 0 0 16,26 10,10 0 0 0 26,16 10,10 0 0 0 16,6 Z m -4.984375,5.003906 a 1.0911166,1.1542433 0 0 1 0.0293,0 1.0911166,1.1542433 0 0 1 0.623047,0.173828 L 14.578125,13.099609 16,14.039062 V 12.15625 a 1.0911166,1.1542433 0 0 1 1.044922,-1.152344 1.0911166,1.1542433 0 0 1 0.623047,0.173828 l 2.910156,1.921875 2.910156,1.923829 a 1.0911166,1.1542433 0 0 1 0,1.957031 l -2.910156,1.923828 -2.910156,1.921875 A 1.0911166,1.1542433 0 0 1 16,19.847656 v -1.882812 l -1.421875,0.939453 -2.910156,1.921875 A 1.0911166,1.1542433 0 0 1 10,19.847656 V 12.15625 a 1.0911166,1.1542433 0 0 1 1.015625,-1.152344 z" />
  </g>
  <g
     transform="matrix(-0.625,0,0,0.625,100,0)"
     id="media-seek-backward">
    <rect
       id="rect140"
       y="0"
       x="0"
       height="32"
       width="32"
       style="opacity:0.00100002" />
    <path
       inkscape:connector-curvature="0"
       id="path148"
       d="M 16,6 A 10,10 0 0 0 6,16 10,10 0 0 0 16,26 10,10 0 0 0 26,16 10,10 0 0 0 16,6 Z m -4.984375,5.003906 a 1.0911166,1.1542433 0 0 1 0.0293,0 1.0911166,1.1542433 0 0 1 0.623047,0.173828 L 14.578125,13.099609 16,14.039062 V 12.15625 a 1.0911166,1.1542433 0 0 1 1.044922,-1.152344 1.0911166,1.1542433 0 0 1 0.623047,0.173828 l 2.910156,1.921875 2.910156,1.923829 a 1.0911166,1.1542433 0 0 1 0,1.957031 l -2.910156,1.923828 -2.910156,1.921875 A 1.0911166,1.1542433 0 0 1 16,19.847656 v -1.882812 l -1.421875,0.939453 -2.910156,1.921875 A 1.0911166,1.1542433 0 0 1 10,19.847656 V 12.15625 a 1.0911166,1.1542433 0 0 1 1.015625,-1.152344 z"
       style="opacity:1;fill:#d3dae3;fill-opacity:1" />
  </g>
  <g
     transform="matrix(0.625,0,0,0.625,160,0)"
     id="media-record">
    <rect
       id="rect153"
       y="0"
       x="0"
       height="32"
       width="32"
       style="opacity:0.00100002" />
    <path
       inkscape:connector-curvature="0"
       id="path159"
       style="fill:#ffffff"
       d="M 16,6 A 10,10 0 0 0 6,16 10,10 0 0 0 16,26 10,10 0 0 0 26,16 10,10 0 0 0 16,6 Z" />
    <circle
       id="circle163"
       style="fill:#aa0000"
       r="5"
       cy="16"
       cx="16" />
  </g>
  <g
     transform="matrix(0.625,0,0,0.625,140,0)"
     id="media-eject">
    <rect
       id="rect166"
       style="opacity:0.00100002"
       y="0"
       x="0"
       height="32"
       width="32" />
    <path
       inkscape:connector-curvature="0"
       id="path174"
       style="opacity:1;fill:#d3dae3;fill-opacity:1"
       d="M 16,6 A 10,10 0 0 0 6,16 10,10 0 0 0 16,26 10,10 0 0 0 26,16 10,10 0 0 0 16,6 Z m -0.01367,3 a 1.1542432,1.091172 0 0 1 0.992188,0.5117188 l 1.923828,2.9101562 1.921875,2.910156 A 1.1542432,1.091172 0 0 1 19.845703,17 h -7.691406 a 1.1542432,1.091172 0 0 1 -1.152344,-1.044922 1.1542432,1.091172 0 0 1 0.173828,-0.623047 l 1.921875,-2.910156 1.923828,-2.9101562 A 1.1542432,1.091172 0 0 1 15.986328,9 Z M 12.5,18 h 7 c 0.831,0 1.5,0.669 1.5,1.5 0,0.831 -0.669,1.5 -1.5,1.5 h -7 C 11.669,21 11,20.331 11,19.5 11,18.669 11.669,18 12.5,18 Z" />
  </g>
  <g
     transform="matrix(0.625,0,0,0.625,0,-32)"
     id="media-playback-playing">
    <rect
       id="rect179"
       style="opacity:0.00100002"
       y="0"
       x="0"
       height="32"
       width="32" />
    <path
       inkscape:connector-curvature="0"
       id="path187"
       d="M 16,6 A 10,10 0 0 0 6,16 10,10 0 0 0 16,26 10,10 0 0 0 26,16 10,10 0 0 0 16,6 Z m -2.693359,4.001953 a 1.3639004,1.3848953 0 0 1 0.779297,0.208985 l 3.636718,2.30664 3.636719,2.308594 a 1.3639004,1.3848953 0 0 1 0,2.347656 l -3.636719,2.308594 -3.636718,2.30664 A 1.3639004,1.3848953 0 0 1 12,20.615234 v -9.230468 a 1.3639004,1.3848953 0 0 1 1.306641,-1.382813 z"
       style="opacity:1;fill:#d3dae3;fill-opacity:1" />
  </g>
  <g
     transform="matrix(0.625,0,0,0.625,100,-32)"
     id="media-playback-paused">
    <rect
       id="rect192"
       y="0"
       x="0"
       height="32"
       width="32"
       style="opacity:0.00100002" />
    <path
       inkscape:connector-curvature="0"
       id="path200"
       d="M 16,6 C 10.477153,6 6,10.477153 6,16 6,21.522847 10.477153,26 16,26 21.522847,26 26,21.522847 26,16 26,10.477153 21.522847,6 16,6 Z m -3.5,5 c 0.831,0 1.5,0.669 1.5,1.5 v 7 C 14,20.331 13.331,21 12.5,21 11.669,21 11,20.331 11,19.5 v -7 C 11,11.669 11.669,11 12.5,11 Z m 7,0 c 0.831,0 1.5,0.669 1.5,1.5 v 7 C 21,20.331 20.331,21 19.5,21 18.669,21 18,20.331 18,19.5 v -7 C 18,11.669 18.669,11 19.5,11 Z"
       style="opacity:1;fill:#d3dae3;fill-opacity:1" />
    <path
       inkscape:connector-curvature="0"
       id="path202"
       d="M 16,2 C 8.268014,2 2,8.2680142 2,16 2,16.168777 2.019467,16.332668 2.025391,16.5 2.2908203,9.0015478 8.4367912,3 16,3 23.563209,3 29.70918,9.0015478 29.974609,16.5 29.980533,16.332668 30,16.168777 30,16 30,8.2680142 23.731986,2 16,2 Z"
       style="opacity:0.1;fill:#08a19d;fill-opacity:1" />
  </g>
  <g
     transform="matrix(0.625,0,0,0.625,120,-32)"
     id="media-playback-stopped">
    <rect
       id="rect205"
       y="0"
       x="0"
       height="32"
       width="32"
       style="opacity:0.00100002" />
    <path
       inkscape:connector-curvature="0"
       id="path213"
       d="M 16,6 A 10,10 0 0 0 6,16 10,10 0 0 0 16,26 10,10 0 0 0 26,16 10,10 0 0 0 16,6 Z m -4,5 h 1 7 c 0.554,0 1,0.446 1,1 v 4 4 c 0,0.554 -0.446,1 -1,1 h -7 -1 c -0.554,0 -1,-0.446 -1,-1 v -8 c 0,-0.554 0.446,-1 1,-1 z"
       style="opacity:1;fill:#d3dae3;fill-opacity:1" />
  </g>
</svg>
