<?xml version="1.0" encoding="UTF-8" standalone="no"?>
<svg
   xmlns:osb="http://www.openswatchbook.org/uri/2009/osb"
   xmlns:dc="http://purl.org/dc/elements/1.1/"
   xmlns:cc="http://creativecommons.org/ns#"
   xmlns:rdf="http://www.w3.org/1999/02/22-rdf-syntax-ns#"
   xmlns:svg="http://www.w3.org/2000/svg"
   xmlns="http://www.w3.org/2000/svg"
   xmlns:sodipodi="http://sodipodi.sourceforge.net/DTD/sodipodi-0.dtd"
   xmlns:inkscape="http://www.inkscape.org/namespaces/inkscape"
   sodipodi:docname="phone.svg"
   height="100%"
   width="100%"
   inkscape:version="1.0.1 (3bc2e813f5, 2020-09-07)"
   version="1.1"
   id="svg"
   viewBox="0 0 22 22">
  <defs
     id="defs81">
    <style
       type="text/css"
       id="current-color-scheme" />
    <style
       id="current-color-scheme-9"
       type="text/css" />
    <linearGradient
       id="linearGradient5606"
       osb:paint="solid">
      <stop
         id="stop5608"
         offset="0"
         style="stop-color:#000000;stop-opacity:1;" />
    </linearGradient>
    <style
       id="current-color-scheme-7"
       type="text/css" />
    <style
       type="text/css"
       id="current-color-scheme-9-5" />
  </defs>
  <metadata
     id="metadata34">
    <rdf:RDF>
      <cc:Work
         rdf:about="">
        <dc:format>image/svg+xml</dc:format>
        <dc:type
           rdf:resource="http://purl.org/dc/dcmitype/StillImage" />
        <dc:title />
      </cc:Work>
    </rdf:RDF>
  </metadata>
  <sodipodi:namedview
     inkscape:document-rotation="0"
     inkscape:lockguides="true"
     showborder="true"
     inkscape:showpageshadow="true"
     inkscape:snap-bbox-midpoints="true"
     inkscape:snap-bbox="true"
     inkscape:guide-bbox="true"
     showguides="false"
     borderlayer="false"
     inkscape:current-layer="svg"
     inkscape:window-maximized="1"
     inkscape:window-y="0"
     inkscape:window-x="0"
     inkscape:cy="2.5876473"
     inkscape:cx="67.822379"
     inkscape:zoom="6.7567978"
     showgrid="false"
     id="namedview32"
     inkscape:window-height="1009"
     inkscape:window-width="1920"
     inkscape:pageshadow="2"
     inkscape:pageopacity="0"
     guidetolerance="10"
     gridtolerance="10"
     objecttolerance="10"
     borderopacity="1"
     bordercolor="#000000"
     pagecolor="#ffffff">
    <inkscape:grid
       snapvisiblegridlinesonly="true"
       enabled="true"
       visible="true"
       empspacing="5"
       id="grid3046"
       type="xygrid" />
    <sodipodi:guide
       inkscape:locked="true"
       id="guide3820"
       position="8,19"
       orientation="0,1" />
    <sodipodi:guide
       inkscape:locked="true"
       id="guide3822"
       position="7,3"
       orientation="0,1" />
    <sodipodi:guide
       inkscape:locked="true"
       id="guide3824"
       position="11,21.57742"
       orientation="1,0" />
    <sodipodi:guide
       inkscape:locked="true"
       id="guide3826"
       position="7,11"
       orientation="0,1" />
  </sodipodi:namedview>
  <g
     id="phone"
     inkscape:label="#g4161">
    <rect
       y="0"
       x="0"
       height="22"
       width="22"
       id="rect4159"
       style="opacity:0.00100002;fill:#000000;fill-opacity:1;stroke:none;stroke-width:1;stroke-linecap:round;stroke-linejoin:round;stroke-miterlimit:4;stroke-dasharray:none;stroke-opacity:1" />
    <path
       inkscape:connector-curvature="0"
       id="path4148"
       d="M 7.4589844,3 C 6.6614844,3 6,3.5618125 6,4.2578125 L 6,17.726562 C 6,18.419653 6.6614844,19 7.4589844,19 l 7.0820316,0 C 15.338516,19 16,18.419653 16,17.726562 L 16,4.2578125 C 16,3.5618125 15.338516,3 14.541016,3 L 7.4589844,3 Z M 10.25,4 11.75,4 C 11.888137,4 12,4.1114458 12,4.25 12,4.3885543 11.888139,4.5 11.75,4.5 l -1.5,0 C 10.111861,4.5 10,4.3885543 10,4.25 10,4.1114458 10.111862,4 10.25,4 Z M 7,5 15,5 15,15 7,15 7,5 Z m 4,11 a 0.99999998,1.0000001 0 0 1 1,1 0.99999998,1.0000001 0 0 1 -1,1 0.99999998,1.0000001 0 0 1 -1,-1 0.99999998,1.0000001 0 0 1 1,-1 z"
       style="fill:#d3dbe3;fill-opacity:1" />
  </g>
  <g
     inkscape:label="#g4201"
     id="phone-battery">
    <rect
       style="opacity:0.00100002;fill:#000000;fill-opacity:1;stroke:none;stroke-width:1;stroke-linecap:round;stroke-linejoin:round;stroke-miterlimit:4;stroke-dasharray:none;stroke-opacity:1"
       id="rect4194"
       width="22"
       height="22"
       x="22"
       y="0" />
    <path
       style="fill:#d3dae3;fill-opacity:1"
       d="M 29.458984,3 C 28.661484,3 28,3.5618125 28,4.2578125 L 28,17.726562 C 28,18.419653 28.661484,19 29.458984,19 l 7.082032,0 C 37.338516,19 38,18.419653 38,17.726562 L 38,4.2578125 C 38,3.5618125 37.338516,3 36.541016,3 L 29.458984,3 Z M 32.25,4 33.75,4 C 33.888137,4 34,4.1114458 34,4.25 34,4.3885543 33.888139,4.5 33.75,4.5 l -1.5,0 C 32.111861,4.5 32,4.3885543 32,4.25 32,4.1114458 32.111862,4 32.25,4 Z M 29,5 l 8,0 0,10 -8,0 0,-10 z m 4,11 a 0.99999998,1.0000001 0 0 1 1,1 0.99999998,1.0000001 0 0 1 -1,1 0.99999998,1.0000001 0 0 1 -1,-1 0.99999998,1.0000001 0 0 1 1,-1 z"
       id="path4196"
       inkscape:connector-curvature="0" />
    <path
       style="display:inline;opacity:1;fill:#08a19d;fill-opacity:1;stroke:none;filter:url(#filter7554);enable-background:new"
       d="M 33,6.0019503 31,10 l 2,0 0,4 2,-5.0000002 -2,0 0,-2.9980464 z"
       id="path4186"
       inkscape:connector-curvature="0" />
  </g>
</svg>
