<?xml version="1.0" encoding="UTF-8" standalone="no"?>
<svg
   xmlns:dc="http://purl.org/dc/elements/1.1/"
   xmlns:cc="http://creativecommons.org/ns#"
   xmlns:rdf="http://www.w3.org/1999/02/22-rdf-syntax-ns#"
   xmlns:svg="http://www.w3.org/2000/svg"
   xmlns="http://www.w3.org/2000/svg"
   xmlns:xlink="http://www.w3.org/1999/xlink"
   xmlns:sodipodi="http://sodipodi.sourceforge.net/DTD/sodipodi-0.dtd"
   xmlns:inkscape="http://www.inkscape.org/namespaces/inkscape"
   id="svg12"
   width="32"
   height="32"
   version="1.1"
   sodipodi:docname="start.svg"
   inkscape:version="1.0.1 (3bc2e813f5, 2020-09-07)">
  <metadata
     id="metadata19">
    <rdf:RDF>
      <cc:Work
         rdf:about="">
        <dc:format>image/svg+xml</dc:format>
        <dc:type
           rdf:resource="http://purl.org/dc/dcmitype/StillImage" />
      </cc:Work>
    </rdf:RDF>
  </metadata>
  <defs
     id="defs17">
    <linearGradient
       inkscape:collect="always"
       id="linearGradient839">
      <stop
         style="stop-color:#3f9eff;stop-opacity:1"
         offset="0"
         id="stop835" />
      <stop
         style="stop-color:#08a19d;stop-opacity:1"
         offset="1"
         id="stop837" />
    </linearGradient>
    <linearGradient
       inkscape:collect="always"
       xlink:href="#linearGradient839"
       id="linearGradient841"
       x1="5.7997069"
       y1="5.4818196"
       x2="18.684671"
       y2="17.894281"
       gradientUnits="userSpaceOnUse" />
    <linearGradient
       inkscape:collect="always"
       xlink:href="#linearGradient839"
       id="linearGradient849"
       x1="-17.565889"
       y1="13.85315"
       x2="-9.5785446"
       y2="21.74155"
       gradientUnits="userSpaceOnUse" />
  </defs>
  <sodipodi:namedview
     pagecolor="#ffffff"
     bordercolor="#666666"
     borderopacity="1"
     objecttolerance="10"
     gridtolerance="10"
     guidetolerance="10"
     inkscape:pageopacity="0"
     inkscape:pageshadow="2"
     inkscape:window-width="1920"
     inkscape:window-height="1009"
     id="namedview15"
     showgrid="false"
     inkscape:zoom="7.1363635"
     inkscape:cx="27.166205"
     inkscape:cy="3.8226706"
     inkscape:window-x="0"
     inkscape:window-y="0"
     inkscape:window-maximized="1"
     inkscape:current-layer="svg12"
     inkscape:document-rotation="0"
     inkscape:lockguides="false" />
  <g
     id="start-here-kde">
    <rect
       id="rect7"
       style="opacity:0.00100002"
       width="32"
       height="32"
       x="0"
       y="0" />
    <path
       id="path891"
       d="M 15.004055,9.6713073 C 15.004055,6.659379 12.56268,4.218 9.550749,4.218 c -3.011926,0 -5.4557488,2.441379 -5.4557488,5.4533073 0,3.0119307 2.4413763,5.4533037 5.4533027,5.4533037 3.0119321,0 5.4557521,-2.438927 5.4557521,-5.4533037 z m -8.7272447,0 c 0,-1.8096059 1.4667839,-3.2714963 3.2714926,-3.2714963 1.8047091,0 3.2714941,1.4643383 3.2714941,3.2714963 0,1.8096047 -1.466785,3.2714947 -3.2714941,3.2714947 -1.8047087,0 -3.2714926,-1.46189 -3.2714926,-3.2714947 z m 21.8156637,0 C 28.092474,6.659379 25.651102,4.218 22.639172,4.218 h -9.481451 c 0.839912,0.5558612 1.520656,1.3100687 2.029989,2.181811 h 3.112327 c -0.690543,0.9133748 -1.114169,2.0397902 -1.114169,3.2714963 0,3.0119307 2.441376,5.4533037 5.453304,5.4533037 3.01193,0.0023 5.453302,-2.438927 5.453302,-5.4533037 z m -8.727243,0 c 0,-1.8096059 1.464336,-3.2714963 3.27149,-3.2714963 1.809609,0 3.271496,1.4643383 3.271496,3.2714963 0,1.8096047 -1.464338,3.2714947 -3.271496,3.2714947 -1.807154,0.0023 -3.27149,-1.46189 -3.27149,-3.2714947 z m -5.835306,16.7933437 0.78359,-0.690539 -0.0073,-0.0073 6.557676,-5.759398 0.0098,0.0098 c 0,0 0.0023,-0.0023 0.0049,-0.0023 0.509332,-0.328112 1.111721,-0.524009 1.763078,-0.524009 1.809606,0 3.271493,1.466784 3.271493,3.271492 0,1.804707 -1.464335,3.271494 -3.271493,3.271494 -1.804706,0 -3.266594,-1.459436 -3.271492,-3.261696 l -1.880617,1.652886 c 0.697882,2.194062 2.722977,3.790624 5.14966,3.790624 3.011928,0 5.453303,-2.441375 5.453303,-5.453303 0,-2.61034 -1.838991,-4.789704 -4.290161,-5.323525 -0.377104,-0.08326 -0.764,-0.129782 -1.165593,-0.129782 -1.143549,0 -2.201399,0.355066 -3.078043,0.955 l -0.903576,0.793387 -3.700019,3.249457 c 0,-0.0074 -0.0023,-0.01223 -0.0023,-0.01961 l -2.916426,2.563812 c -0.01225,0.01468 -0.01714,0.03428 -0.02939,0.04898 -0.205691,0.23263 -0.430976,0.440773 -0.692988,0.609731 -0.509333,0.328131 -1.11172,0.524029 -1.7655305,0.524029 -1.8071534,0 -3.271489,-1.466786 -3.271489,-3.271497 0,-1.807157 1.466784,-3.269045 3.271489,-3.269045 1.7900175,0 3.2421085,1.43985 3.2690465,3.227419 l 1.870694,-1.648084 c -0.710119,-2.176906 -2.725417,-3.76123 -5.1398562,-3.76123 -3.0119273,0 -5.4533045,2.441378 -5.4533045,5.453305 0,2.610342 1.83899,4.789705 4.2901589,5.321079 0.3771033,0.0857 0.7640038,0.132231 1.1655922,0.132231 1.1411056,0 2.2014006,-0.352617 3.0780446,-0.955005 z"
       inkscape:connector-curvature="0"
       style="fill:url(#linearGradient841);fill-opacity:1;stroke-width:0.024487" />
  </g>
  <g
     id="22-22-start-here-kde">
    <rect
       id="rect2"
       style="opacity:0.00100002"
       width="22"
       height="22"
       x="-22"
       y="10" />
    <path
       id="path891-3"
       d="m -11.642292,16.700538 c 0,-2.007949 -1.627589,-3.635538 -3.63554,-3.635538 -2.007959,0 -3.637168,1.627589 -3.637168,3.635538 0,2.007954 1.62759,3.635536 3.635542,3.635536 2.007944,0 3.637166,-1.625952 3.637166,-3.635536 z m -5.818173,0 c 0,-1.206404 0.977865,-2.181 2.181007,-2.181 1.203129,0 2.180993,0.976228 2.180993,2.181 0,1.206403 -0.977864,2.180997 -2.180993,2.180997 -1.203142,0 -2.181007,-0.974594 -2.181007,-2.180997 z m 14.543784,0 c 0,-2.007949 -1.62758,-3.635538 -3.635533,-3.635538 h -6.320967 c 0.559933,0.370581 1.013771,0.873374 1.353315,1.454538 h 2.074882 c -0.46035,0.60892 -0.74277,1.359863 -0.74277,2.181 0,2.007954 1.627577,3.635536 3.63554,3.635536 2.007953,0.0015 3.635533,-1.625952 3.635533,-3.635536 z m -5.818169,0 c 0,-1.206404 0.976235,-2.181 2.180998,-2.181 1.206409,0 2.181001,0.976228 2.181001,2.181 0,1.206403 -0.976232,2.180997 -2.181001,2.180997 -1.204763,0.0015 -2.180998,-0.974594 -2.180998,-2.180997 z m -3.890198,11.195561 0.522395,-0.460359 -0.0053,-0.0049 4.371783,-3.839598 0.0073,0.0066 c 0,0 0.0023,-0.0015 0.0038,-0.0015 0.339552,-0.218741 0.741144,-0.34934 1.175383,-0.34934 1.206403,0 2.180997,0.977857 2.180997,2.180995 0,1.203138 -0.976223,2.180995 -2.180997,2.180995 -1.203133,0 -2.177724,-0.972957 -2.180992,-2.174463 l -1.25408,1.101927 c 0.465249,1.462708 1.815313,2.527087 3.433103,2.527087 2.007951,0 3.635538,-1.627587 3.635538,-3.635539 0,-1.740226 -1.225996,-3.193136 -2.860109,-3.549017 -0.251404,-0.0555 -0.509331,-0.08652 -0.777061,-0.08652 -0.762367,0 -1.4676,0.23671 -2.052031,0.636666 l -0.602361,0.528916 -2.466681,2.166305 c 0,-0.005 -0.0023,-0.0082 -0.0023,-0.01307 l -1.943934,1.709208 c -0.0081,0.0098 -0.01148,0.02285 -0.01962,0.03266 -0.137128,0.155086 -0.287316,0.293849 -0.461987,0.406487 -0.339562,0.218754 -0.74115,0.349352 -1.177023,0.349352 -1.204769,0 -2.180997,-0.977857 -2.180997,-2.180997 0,-1.204771 0.977864,-2.179363 2.180997,-2.179363 1.193348,0 2.161402,0.9599 2.179365,2.151613 l 1.247107,-1.098786 c -0.473492,-1.451276 -1.81703,-2.507491 -3.426651,-2.507491 -2.007952,0 -3.635532,1.627585 -3.635532,3.635536 0,1.740227 1.225989,3.193138 2.860107,3.547385 0.251366,0.05709 0.509302,0.08811 0.777022,0.08811 0.760743,0 1.467599,-0.23508 2.052023,-0.636672 z"
       inkscape:connector-curvature="0"
       style="fill:url(#linearGradient849);fill-opacity:1;stroke-width:0.016325" />
  </g>
</svg>
