<?xml version="1.0" encoding="UTF-8" standalone="no"?>
<svg
   xmlns:dc="http://purl.org/dc/elements/1.1/"
   xmlns:cc="http://creativecommons.org/ns#"
   xmlns:rdf="http://www.w3.org/1999/02/22-rdf-syntax-ns#"
   xmlns:svg="http://www.w3.org/2000/svg"
   xmlns="http://www.w3.org/2000/svg"
   xmlns:xlink="http://www.w3.org/1999/xlink"
   xmlns:sodipodi="http://sodipodi.sourceforge.net/DTD/sodipodi-0.dtd"
   xmlns:inkscape="http://www.inkscape.org/namespaces/inkscape"
   viewBox="0 0 48 48"
   version="1.1"
   id="svg40"
   sodipodi:docname="vlc.svg"
   inkscape:version="1.0.1 (3bc2e813f5, 2020-09-07)">
  <metadata
     id="metadata46">
    <rdf:RDF>
      <cc:Work
         rdf:about="">
        <dc:format>image/svg+xml</dc:format>
        <dc:type
           rdf:resource="http://purl.org/dc/dcmitype/StillImage" />
      </cc:Work>
    </rdf:RDF>
  </metadata>
  <defs
     id="defs44" />
  <sodipodi:namedview
     pagecolor="#ffffff"
     bordercolor="#666666"
     borderopacity="1"
     objecttolerance="10"
     gridtolerance="10"
     guidetolerance="10"
     inkscape:pageopacity="0"
     inkscape:pageshadow="2"
     inkscape:window-width="1920"
     inkscape:window-height="1009"
     id="namedview42"
     showgrid="false"
     inkscape:zoom="3.4766083"
     inkscape:cx="43.44208"
     inkscape:cy="11.337106"
     inkscape:window-x="0"
     inkscape:window-y="0"
     inkscape:window-maximized="1"
     inkscape:current-layer="svg40"
     inkscape:lockguides="true"
     inkscape:document-rotation="0" />
  <linearGradient
     id="a">
    <stop
       stop-color="#fff"
       offset="0"
       id="stop2" />
    <stop
       stop-color="#f5f5f5"
       offset="1"
       id="stop4" />
  </linearGradient>
  <linearGradient
     id="b"
     x1="13"
     x2="42"
     y1="14"
     y2="43"
     gradientUnits="userSpaceOnUse">
    <stop
       stop-color="#ffb24d"
       offset="0"
       id="stop7" />
    <stop
       stop-color="#ffa733"
       offset=".36206895"
       id="stop9" />
    <stop
       stop-color="#f28100"
       offset="1"
       id="stop11" />
  </linearGradient>
  <linearGradient
     id="c"
     x1="23"
     x2="42"
     y1="25"
     y2="44"
     gradientUnits="userSpaceOnUse"
     gradientTransform="translate(-64.699906)">
    <stop
       stop-color="#e5840b"
       offset="0"
       id="stop14"
       style="stop-color:#4e51ac;stop-opacity:1" />
    <stop
       stop-color="#f27a00"
       offset="1"
       id="stop16"
       style="stop-color:#4e9fac;stop-opacity:1" />
  </linearGradient>
  <linearGradient
     id="d"
     x1="15"
     x2="25"
     y1="27"
     y2="37"
     gradientUnits="userSpaceOnUse"
     xlink:href="#a" />
  <linearGradient
     id="e"
     x1="19"
     x2="27"
     y1="13"
     y2="21"
     gradientUnits="userSpaceOnUse"
     xlink:href="#a" />
  <linearGradient
     id="f"
     x1="16"
     x2="34"
     y1="22"
     y2="28"
     gradientUnits="userSpaceOnUse">
    <stop
       stop-color="#ffb24d"
       offset="0"
       id="stop21" />
    <stop
       stop-color="#ffa733"
       offset=".15737528"
       id="stop23" />
    <stop
       stop-color="#f28100"
       offset="1"
       id="stop25" />
  </linearGradient>
  <path
     d="m 10.999521,29 a 1.0001,1.0001 0 0 0 -0.955078,0.705078 L 6.0444426,42.70508 A 1.0001,1.0001 0 0 0 6.9995206,44 H 40.999521 a 1.0001,1.0001 0 0 0 0.95508,-1.29492 L 37.954599,29.705078 A 1.0001,1.0001 0 0 0 36.999521,29 Z"
     id="path28"
     style="fill:#08a19d;fill-opacity:1"
     inkscape:connector-curvature="0" />
  <path
     d="M 19.000094,29 13.879,34.121094 22.757906,43 h 19.242188 a 1.0001,1.0001 0 0 0 -0.04492,-0.294922 l -4,-13 A 1.0001,1.0001 0 0 0 37.000094,29 h -2 z"
     id="path30"
     style="fill:#0055d4;fill-opacity:1"
     inkscape:connector-curvature="0" />
  <path
     d="m 23.995957,4 a 3.0003,3.0003 0 0 0 -2.853516,2.085938 l -8,25 a 3.0003,3.0003 0 0 0 1.324219,3.492187 C 17.342781,36.288478 20.98031,37 23.999863,37 c 3.019553,0 6.657082,-0.711522 9.533203,-2.421875 a 3.0003,3.0003 0 0 0 1.324219,-3.492187 l -8,-25 A 3.0003,3.0003 0 0 0 23.995957,4 Z"
     id="path32"
     style="fill:#0ac2bd;fill-opacity:1"
     inkscape:connector-curvature="0" />
  <path
     d="M 33.431504,26.632812 C 30.571235,28.301063 26.984887,29 23.999863,29 21.014839,29 17.428491,28.301063 14.568222,26.632812 l -1.425781,4.453126 a 3.0003,3.0003 0 0 0 1.324219,3.492187 C 17.342781,36.288478 20.98031,37 23.999863,37 c 3.019553,0 6.657082,-0.711522 9.533203,-2.421875 a 3.0003,3.0003 0 0 0 1.324219,-3.492187 z"
     id="path34"
     style="fill:#3f9eff;fill-opacity:1"
     inkscape:connector-curvature="0" />
  <path
     d="M 19.116829,12.412109 14.568,26.632812 16.788703,19.693359 C 19.154774,20.602883 21.74903,21 23.999641,21 c 2.250611,0 4.844867,-0.397117 7.210938,-1.306641 l 2.220703,6.939453 -4.548829,-14.220703 C 27.215615,12.814304 25.528665,13 23.999641,13 22.470617,13 20.783667,12.814304 19.116829,12.412109 Z"
     id="path36"
     style="fill:#3f9eff;fill-opacity:1"
     inkscape:connector-curvature="0" />
  <path
     d="m 6.002,43 a 1.0001,1.0001 0 0 0 0.998047,1 h 34 a 1.0001,1.0001 0 0 0 1,-1 z"
     id="path38"
     style="fill:#2a2c6c;fill-opacity:1"
     inkscape:connector-curvature="0" />
</svg>
