<?xml version="1.0" encoding="UTF-8" standalone="no"?>
<svg
   inkscape:version="1.3.1 (91b66b0783, 2023-11-16)"
   sodipodi:docname="help.svg"
   style="enable-background:new"
   version="1.1"
   height="18"
   width="18"
   id="svg4306"
   xmlns:inkscape="http://www.inkscape.org/namespaces/inkscape"
   xmlns:sodipodi="http://sodipodi.sourceforge.net/DTD/sodipodi-0.dtd"
   xmlns:xlink="http://www.w3.org/1999/xlink"
   xmlns="http://www.w3.org/2000/svg"
   xmlns:svg="http://www.w3.org/2000/svg"
   xmlns:rdf="http://www.w3.org/1999/02/22-rdf-syntax-ns#"
   xmlns:cc="http://creativecommons.org/ns#"
   xmlns:dc="http://purl.org/dc/elements/1.1/">
  <metadata
     id="metadata28">
    <rdf:RDF>
      <cc:Work
         rdf:about="">
        <dc:format>image/svg+xml</dc:format>
        <dc:type
           rdf:resource="http://purl.org/dc/dcmitype/StillImage" />
      </cc:Work>
    </rdf:RDF>
  </metadata>
  <defs
     id="defs26">
    <linearGradient
       inkscape:collect="always"
       id="linearGradient4">
      <stop
         style="stop-color:#40d9ff;stop-opacity:1;"
         offset="0"
         id="stop3" />
      <stop
         style="stop-color:#ca80dc;stop-opacity:1;"
         offset="1"
         id="stop4" />
    </linearGradient>
    <linearGradient
       inkscape:collect="always"
       id="linearGradient2">
      <stop
         style="stop-color:#00ccff;stop-opacity:1"
         offset="0"
         id="stop1" />
      <stop
         style="stop-color:#bc5fd3;stop-opacity:1"
         offset="1"
         id="stop2" />
    </linearGradient>
    <linearGradient
       inkscape:collect="always"
       xlink:href="#linearGradient2"
       id="linearGradient873"
       x1="41.642998"
       y1="34.900002"
       x2="56.642998"
       y2="34.900002"
       gradientUnits="userSpaceOnUse"
       gradientTransform="matrix(1.0666667,0,0,1.0666665,-18.119189,-28.226659)" />
    <linearGradient
       inkscape:collect="always"
       xlink:href="#linearGradient2"
       id="linearGradient889"
       x1="41.624001"
       y1="34.900002"
       x2="56.624001"
       y2="34.900002"
       gradientUnits="userSpaceOnUse"
       gradientTransform="matrix(1.0666663,0,0,1.0666663,8.9010757,-28.226658)" />
    <linearGradient
       inkscape:collect="always"
       xlink:href="#linearGradient4"
       id="linearGradient1782"
       x1="-5.2983742"
       y1="-12.630588"
       x2="0.74307901"
       y2="-12.630588"
       gradientUnits="userSpaceOnUse"
       gradientTransform="matrix(0.99313857,0,0,1,11.26202,21.630649)" />
  </defs>
  <sodipodi:namedview
     inkscape:bbox-nodes="true"
     inkscape:snap-bbox="true"
     inkscape:current-layer="svg4306"
     inkscape:window-maximized="1"
     inkscape:window-y="0"
     inkscape:window-x="0"
     inkscape:cy="10.468508"
     inkscape:cx="-7.0278097"
     inkscape:zoom="6.8300085"
     showgrid="true"
     id="namedview24"
     inkscape:window-height="994"
     inkscape:window-width="1920"
     inkscape:pageshadow="2"
     inkscape:pageopacity="0"
     guidetolerance="10"
     gridtolerance="10"
     objecttolerance="10"
     borderopacity="1"
     bordercolor="#666666"
     pagecolor="#ffffff"
     inkscape:document-rotation="0"
     inkscape:lockguides="false"
     inkscape:showpageshadow="2"
     inkscape:pagecheckerboard="0"
     inkscape:deskcolor="#d1d1d1">
    <inkscape:grid
       id="grid1"
       units="px"
       originx="-27"
       originy="1.1853027e-06"
       spacingx="1"
       spacingy="1"
       empcolor="#0099e5"
       empopacity="0.30196078"
       color="#0099e5"
       opacity="0.14901961"
       empspacing="5"
       dotted="false"
       gridanglex="30"
       gridanglez="30"
       visible="true" />
  </sodipodi:namedview>
  <style
     id="current-color-scheme"
     type="text/css" />
  <g
     id="hover-center"
     transform="translate(-52.299999)">
    <rect
       y="-2.3706055e-07"
       x="25.299999"
       height="18"
       width="18"
       id="rect3012-4"
       style="opacity:0.01;fill:#ffffff;fill-opacity:0.00392157;stroke:none;stroke-width:1" />
    <circle
       id="path3030"
       style="opacity:0.5;fill:url(#linearGradient873);stroke:none;stroke-width:1.06665"
       cx="34.299999"
       cy="9"
       r="8" />
    <path
       d="m 34.257746,12.381442 c -0.253517,0 -0.422536,-0.170181 -0.422536,-0.425457 v -1.616724 c 0,-0.7658153 0.633803,-1.148722 1.225351,-1.5316336 0.676053,-0.4254566 1.352111,-0.8509072 1.394369,-1.7869063 0,-1.1912729 -0.971828,-2.1698109 -2.154932,-2.1698109 -1.183096,0 -2.154932,0.978538 -2.154932,2.1698109 0,0.2552718 -0.169016,0.4254506 -0.422528,0.4254506 -0.253526,0 -0.42254,-0.1701788 -0.42254,-0.4254506 0,-1.6592734 1.352117,-3.0207211 3,-3.0207211 1.647883,0 3,1.3614477 3,3.0207211 -0.08451,1.4039977 -1.056334,2.0421801 -1.774648,2.4676306 -0.507041,0.2978178 -0.802819,0.5105476 -0.802819,0.8083653 v 1.616723 c -0.0423,0.255275 -0.253518,0.468002 -0.464785,0.468002 z m 0,1.063628 m -0.549296,0 a 0.54929545,0.55308991 0 1 0 1.098584,0 0.54929545,0.55308991 0 1 0 -1.098584,0 z"
       id="path4-5-5-6"
       style="fill:#000000;fill-opacity:1;stroke-width:0.00993745;enable-background:new" />
  </g>
  <g
     id="pressed-center"
     transform="translate(-52.299999)">
    <rect
       y="-2.3706055e-07"
       x="52.299999"
       height="18"
       width="18"
       id="rect3012-4-2"
       style="opacity:0.01;fill:#ffffff;fill-opacity:0.00392157;stroke:none;stroke-width:0.999997" />
    <ellipse
       id="path3030-8"
       style="opacity:0.9;fill:url(#linearGradient889);stroke:none;stroke-width:1.06668"
       cx="61.299999"
       cy="9.000001"
       rx="7.999999"
       ry="8" />
    <path
       d="m 61.257747,12.381443 c -0.253517,0 -0.422536,-0.170182 -0.422536,-0.425457 v -1.616723 c 0,-0.7658172 0.633803,-1.1487238 1.225351,-1.5316355 0.676053,-0.4254566 1.352111,-0.8509072 1.394369,-1.7869063 0,-1.1912729 -0.971828,-2.169811 -2.154932,-2.169811 -1.183096,0 -2.154932,0.9785381 -2.154932,2.169811 0,0.2552718 -0.169016,0.4254506 -0.422528,0.4254506 -0.253526,0 -0.42254,-0.1701788 -0.42254,-0.4254506 0,-1.6592735 1.352117,-3.0207212 3,-3.0207212 1.647883,0 3,1.3614477 3,3.0207212 -0.08451,1.4039977 -1.056334,2.0421801 -1.774648,2.4676307 -0.507041,0.2978177 -0.802819,0.5105476 -0.802819,0.8083651 v 1.616723 c -0.0423,0.255276 -0.253518,0.468003 -0.464785,0.468003 z m 0,1.063628 m -0.549296,0 a 0.54929545,0.55308993 0 1 0 1.098584,0 0.54929545,0.55308993 0 1 0 -1.098584,0 z"
       id="path4-5-5-6-2"
       style="fill:#000000;fill-opacity:1;stroke-width:0.00993745;enable-background:new" />
  </g>
  <g
     id="inactive-center"
     transform="translate(-52.299999)">
    <rect
       y="-2.3706055e-07"
       x="76.299995"
       height="18"
       width="18"
       id="rect3012-4-2-2"
       style="opacity:0.01;fill:#ffffff;fill-opacity:0.00392157;stroke:none;stroke-width:0.999995" />
    <path
       d="m 85.257747,12.381451 c -0.253517,0 -0.422536,-0.170182 -0.422536,-0.425458 v -1.616725 c 0,-0.765817 0.633803,-1.148724 1.225351,-1.531636 0.676053,-0.425457 1.352111,-0.850908 1.394369,-1.786908 0,-1.191274 -0.971828,-2.169813 -2.154932,-2.169813 -1.183096,0 -2.154932,0.978539 -2.154932,2.169813 0,0.255272 -0.169016,0.425451 -0.422528,0.425451 -0.253526,0 -0.42254,-0.170179 -0.42254,-0.425451 0,-1.659275 1.352117,-3.020724 3,-3.020724 1.647883,0 3,1.361449 3,3.020724 -0.08451,1.403999 -1.056334,2.042182 -1.774648,2.467633 -0.507041,0.297818 -0.802819,0.510548 -0.802819,0.808366 v 1.616725 c -0.0423,0.255275 -0.253518,0.468003 -0.464785,0.468003 z m 0,1.063629 m -0.549296,0 a 0.54929545,0.55309044 0 1 0 1.098584,0 0.54929545,0.55309044 0 1 0 -1.098584,0 z"
       id="path4-5-5-6-2-9"
       style="fill:#08a19d;fill-opacity:1;stroke-width:0.00993745;enable-background:new" />
  </g>
  <g
     id="active-center"
     transform="translate(-52)">
    <rect
       y="-2.3706055e-07"
       x="2.3706055e-07"
       height="18"
       width="18"
       id="rect3012-4-0"
       style="opacity:0.01;fill:#ffffff;fill-opacity:0.00392157;stroke:none;stroke-width:0.999999" />
    <path
       d="m 8.9577484,12.381451 c -0.2535175,0 -0.4225368,-0.170182 -0.4225368,-0.425458 v -1.616725 c 0,-0.765817 0.6338032,-1.148724 1.2253513,-1.531636 0.6760531,-0.425457 1.3521111,-0.850908 1.3943691,-1.786908 0,-1.191274 -0.971828,-2.169813 -2.1549325,-2.169813 -1.1830952,0 -2.1549319,0.978539 -2.1549319,2.169813 0,0.255272 -0.1690153,0.425451 -0.4225279,0.425451 C 6.1690143,7.446175 6,7.275996 6,7.020724 6,5.361449 7.3521174,4 8.9999995,4 10.647883,4 12,5.361449 12,7.020724 11.915494,8.424723 10.943666,9.062906 10.225352,9.488357 9.7183108,9.786175 9.4225333,9.998905 9.4225333,10.296723 v 1.616725 c -0.042298,0.255275 -0.2535185,0.468003 -0.4647849,0.468003 z m 0,1.063629 m -0.549296,0 a 0.54929545,0.55309044 0 1 0 1.0985841,0 0.54929545,0.55309044 0 1 0 -1.0985841,0 z"
       id="path4-5-5-6-2-9-1"
       style="fill:url(#linearGradient1782);fill-opacity:1;stroke-width:0.00993745;enable-background:new" />
  </g>
</svg>
