<?xml version="1.0" encoding="UTF-8" standalone="no"?>
<svg
   xmlns:dc="http://purl.org/dc/elements/1.1/"
   xmlns:cc="http://creativecommons.org/ns#"
   xmlns:rdf="http://www.w3.org/1999/02/22-rdf-syntax-ns#"
   xmlns:svg="http://www.w3.org/2000/svg"
   xmlns="http://www.w3.org/2000/svg"
   xmlns:xlink="http://www.w3.org/1999/xlink"
   xmlns:sodipodi="http://sodipodi.sourceforge.net/DTD/sodipodi-0.dtd"
   xmlns:inkscape="http://www.inkscape.org/namespaces/inkscape"
   viewBox="0 0 24 24"
   version="1.1"
   id="svg7"
   sodipodi:docname="folder-videos.svg"
   inkscape:version="1.0.1 (3bc2e813f5, 2020-09-07)">
  <metadata
     id="metadata11">
    <rdf:RDF>
      <cc:Work
         rdf:about="">
        <dc:format>image/svg+xml</dc:format>
        <dc:type
           rdf:resource="http://purl.org/dc/dcmitype/StillImage" />
      </cc:Work>
    </rdf:RDF>
  </metadata>
  <sodipodi:namedview
     pagecolor="#ffffff"
     bordercolor="#666666"
     borderopacity="1"
     objecttolerance="10"
     gridtolerance="10"
     guidetolerance="10"
     inkscape:pageopacity="0"
     inkscape:pageshadow="2"
     inkscape:window-width="1920"
     inkscape:window-height="1013"
     id="namedview9"
     showgrid="false"
     inkscape:zoom="26.166667"
     inkscape:cx="12"
     inkscape:cy="12"
     inkscape:window-x="0"
     inkscape:window-y="0"
     inkscape:window-maximized="1"
     inkscape:current-layer="svg7"
     inkscape:document-rotation="0" />
  <defs
     id="defs3051">
    <linearGradient
       inkscape:collect="always"
       id="linearGradient840">
      <stop
         style="stop-color:#e0b152;stop-opacity:1"
         offset="0"
         id="stop836" />
      <stop
         style="stop-color:#996690;stop-opacity:1"
         offset="1"
         id="stop838" />
    </linearGradient>
    <style
       type="text/css"
       id="current-color-scheme">
      .ColorScheme-Text {
        color:#eff0f1;
      }
      </style>
    <linearGradient
       inkscape:collect="always"
       xlink:href="#linearGradient840"
       id="linearGradient842"
       x1="3"
       y1="11"
       x2="19"
       y2="11"
       gradientUnits="userSpaceOnUse" />
  </defs>
  <g
     transform="translate(1,1)"
     id="g5">
    <path
       style="opacity:1;fill:url(#linearGradient842);fill-opacity:1;stroke:none"
       d="M 3 3.5 L 3 18.5 L 4 18.5 L 6 18.5 L 16 18.5 L 18 18.5 L 19 18.5 L 19 3.5 L 18 3.5 L 16 3.5 L 6 3.5 L 4 3.5 L 3 3.5 z M 4 4.5 L 5 4.5 L 5 5.5 L 4 5.5 L 4 4.5 z M 6 4.5 L 16 4.5 L 16 10 L 6 10 L 6 4.5 z M 17 4.5 L 18 4.5 L 18 5.5 L 17 5.5 L 17 4.5 z M 4 7.5 L 5 7.5 L 5 8.5 L 4 8.5 L 4 7.5 z M 17 7.5 L 18 7.5 L 18 8.5 L 17 8.5 L 17 7.5 z M 4 10.5 L 5 10.5 L 5 11.5 L 4 11.5 L 4 10.5 z M 17 10.5 L 18 10.5 L 18 11.5 L 17 11.5 L 17 10.5 z M 6 12 L 16 12 L 16 17.5 L 6 17.5 L 6 12 z M 4 13.5 L 5 13.5 L 5 14.5 L 4 14.5 L 4 13.5 z M 17 13.5 L 18 13.5 L 18 14.5 L 17 14.5 L 17 13.5 z M 4 16.5 L 5 16.5 L 5 17.5 L 4 17.5 L 4 16.5 z M 17 16.5 L 18 16.5 L 18 17.5 L 17 17.5 L 17 16.5 z "
       class="ColorScheme-Text"
       id="path4867" />
  </g>
</svg>
