<?xml version="1.0" encoding="UTF-8" standalone="no"?>
<svg
   xmlns:dc="http://purl.org/dc/elements/1.1/"
   xmlns:cc="http://creativecommons.org/ns#"
   xmlns:rdf="http://www.w3.org/1999/02/22-rdf-syntax-ns#"
   xmlns:svg="http://www.w3.org/2000/svg"
   xmlns="http://www.w3.org/2000/svg"
   xmlns:xlink="http://www.w3.org/1999/xlink"
   xmlns:sodipodi="http://sodipodi.sourceforge.net/DTD/sodipodi-0.dtd"
   xmlns:inkscape="http://www.inkscape.org/namespaces/inkscape"
   viewBox="0 0 24 24"
   version="1.1"
   id="svg8"
   sodipodi:docname="folder-cloud.svg"
   inkscape:version="1.0.1 (3bc2e813f5, 2020-09-07)">
  <metadata
     id="metadata12">
    <rdf:RDF>
      <cc:Work
         rdf:about="">
        <dc:format>image/svg+xml</dc:format>
        <dc:type
           rdf:resource="http://purl.org/dc/dcmitype/StillImage" />
      </cc:Work>
    </rdf:RDF>
  </metadata>
  <sodipodi:namedview
     pagecolor="#ffffff"
     bordercolor="#666666"
     borderopacity="1"
     objecttolerance="10"
     gridtolerance="10"
     guidetolerance="10"
     inkscape:pageopacity="0"
     inkscape:pageshadow="2"
     inkscape:window-width="1920"
     inkscape:window-height="1013"
     id="namedview10"
     showgrid="false"
     inkscape:zoom="26.166667"
     inkscape:cx="12"
     inkscape:cy="12"
     inkscape:window-x="0"
     inkscape:window-y="0"
     inkscape:window-maximized="1"
     inkscape:current-layer="svg8" />
  <defs
     id="defs3051">
    <linearGradient
       inkscape:collect="always"
       id="linearGradient841">
      <stop
         style="stop-color:#fac136;stop-opacity:1"
         offset="0"
         id="stop837" />
      <stop
         style="stop-color:#006dda;stop-opacity:1"
         offset="1"
         id="stop839" />
    </linearGradient>
    <style
       type="text/css"
       id="current-color-scheme">
      .ColorScheme-Text {
        color:#eff0f1;
      }
      </style>
    <linearGradient
       inkscape:collect="always"
       xlink:href="#linearGradient841"
       id="linearGradient843"
       x1="2"
       y1="11"
       x2="20"
       y2="11"
       gradientUnits="userSpaceOnUse" />
  </defs>
  <g
     transform="translate(1,1)"
     id="g6">
    <path
       style="fill:url(#linearGradient843);fill-opacity:1;stroke:none"
       d="M 11 4 A 6 6 0 0 0 5 10 A 6 6 0 0 0 5.0039062 10.128906 A 4 4 0 0 0 2 14 A 4 4 0 0 0 6 18 L 15 18 A 5 5 0 0 0 20 13 A 5 5 0 0 0 16.757812 8.3242188 A 6 6 0 0 0 11 4 z M 11 5 A 5 5 0 0 1 15.919922 9.1113281 A 4.0000019 4.0000019 0 0 1 19 13 A 4.0000019 4.0000019 0 0 1 15 17 L 6 17 A 2.9999979 2.9999979 0 0 1 3 14 A 2.9999979 2.9999979 0 0 1 6 11 A 2.9999979 2.9999979 0 0 1 6.1074219 11.005859 A 5 5 0 0 1 6 10 A 5 5 0 0 1 11 5 z "
       class="ColorScheme-Text"
       id="path4" />
  </g>
</svg>
