<?xml version="1.0" encoding="UTF-8" standalone="no"?>
<svg
   xmlns:dc="http://purl.org/dc/elements/1.1/"
   xmlns:cc="http://creativecommons.org/ns#"
   xmlns:rdf="http://www.w3.org/1999/02/22-rdf-syntax-ns#"
   xmlns:svg="http://www.w3.org/2000/svg"
   xmlns="http://www.w3.org/2000/svg"
   xmlns:xlink="http://www.w3.org/1999/xlink"
   xmlns:sodipodi="http://sodipodi.sourceforge.net/DTD/sodipodi-0.dtd"
   xmlns:inkscape="http://www.inkscape.org/namespaces/inkscape"
   viewBox="0 0 24 24"
   version="1.1"
   id="svg8"
   sodipodi:docname="user-home.svg"
   inkscape:version="1.0.1 (3bc2e813f5, 2020-09-07)">
  <metadata
     id="metadata12">
    <rdf:RDF>
      <cc:Work
         rdf:about="">
        <dc:format>image/svg+xml</dc:format>
        <dc:type
           rdf:resource="http://purl.org/dc/dcmitype/StillImage" />
      </cc:Work>
    </rdf:RDF>
  </metadata>
  <sodipodi:namedview
     pagecolor="#ffffff"
     bordercolor="#666666"
     borderopacity="1"
     objecttolerance="10"
     gridtolerance="10"
     guidetolerance="10"
     inkscape:pageopacity="0"
     inkscape:pageshadow="2"
     inkscape:window-width="1920"
     inkscape:window-height="1013"
     id="namedview10"
     showgrid="false"
     inkscape:zoom="26.166667"
     inkscape:cx="12"
     inkscape:cy="12"
     inkscape:window-x="0"
     inkscape:window-y="0"
     inkscape:window-maximized="1"
     inkscape:current-layer="svg8"
     inkscape:document-rotation="0" />
  <defs
     id="defs3051">
    <linearGradient
       inkscape:collect="always"
       id="linearGradient841">
      <stop
         style="stop-color:#bf616a;stop-opacity:1"
         offset="0"
         id="stop837" />
      <stop
         style="stop-color:#e5bb67;stop-opacity:1"
         offset="1"
         id="stop839" />
    </linearGradient>
    <style
       type="text/css"
       id="current-color-scheme">
      .ColorScheme-Text {
        color:#eff0f1
      }
      </style>
    <linearGradient
       inkscape:collect="always"
       xlink:href="#linearGradient841"
       id="linearGradient843"
       x1="18.876637"
       y1="11.441445"
       x2="3.1597934"
       y2="11.529654"
       gradientUnits="userSpaceOnUse" />
  </defs>
  <g
     transform="translate(1,1)"
     id="g6">
    <path
       style="fill:url(#linearGradient843);fill-opacity:1;stroke:none"
       d="M 11,3 10.292969,3.7070312 3,11 3.7070312,11.707031 4,11.414062 4,19 l 1,0 5,0 3,0 5,0 0,-1 0,-6.585938 0.292969,0.292969 L 19,11 17,9 16.292969,9.7070312 17,10.414062 17,18 l -4,0 0,-5 -3,0 -1,0 0,5 -4,0 0,-7.585938 6,-5.9999995 1.292969,1.2929687 L 13,5 11.707031,3.7070312 Z m 3,2 0,3 2,0 0,-3 z"
       class="ColorScheme-Text"
       id="path4" />
  </g>
</svg>
