<?xml version="1.0" encoding="UTF-8" standalone="no"?>
<svg
   viewBox="0 0 48 48"
   version="1.1"
   id="svg4"
   sodipodi:docname="plasma.svg"
   inkscape:version="1.3.2 (091e20ef0f, 2023-11-25)"
   xmlns:inkscape="http://www.inkscape.org/namespaces/inkscape"
   xmlns:sodipodi="http://sodipodi.sourceforge.net/DTD/sodipodi-0.dtd"
   xmlns="http://www.w3.org/2000/svg"
   xmlns:svg="http://www.w3.org/2000/svg">
  <sodipodi:namedview
     id="namedview4"
     pagecolor="#ffffff"
     bordercolor="#999999"
     borderopacity="1"
     inkscape:showpageshadow="2"
     inkscape:pageopacity="0"
     inkscape:pagecheckerboard="0"
     inkscape:deskcolor="#d1d1d1"
     inkscape:zoom="7.9583333"
     inkscape:cx="22.115183"
     inkscape:cy="24.251309"
     inkscape:window-width="1920"
     inkscape:window-height="996"
     inkscape:window-x="0"
     inkscape:window-y="0"
     inkscape:window-maximized="1"
     inkscape:current-layer="svg4" />
  <defs
     id="defs4">
    <linearGradient
       id="0"
       x1="99.25"
       y1="56.05"
       x2="99.74"
       y2="28.973"
       gradientUnits="userSpaceOnUse">
      <stop
         stop-color="#197cf1"
         id="stop1" />
      <stop
         offset="1"
         stop-color="#20bcfa"
         id="stop2" />
    </linearGradient>
    <linearGradient
       id="1"
       gradientUnits="userSpaceOnUse"
       y1="59.357464"
       x2="105.93571"
       y2="21.409819"
       x1="106.31267">
      <stop
         stop-color="#212121"
         id="stop3"
         offset="0"
         style="stop-color:#334669;stop-opacity:1;" />
      <stop
         offset="1"
         stop-color="#3f3f41"
         id="stop4"
         style="stop-color:#1c2439;stop-opacity:1;" />
    </linearGradient>
  </defs>
  <g
     transform="translate(-78.915-19.525)"
     id="g4">
    <circle
       id="circle4"
       fill="url(#1)"
       r="24"
       cy="43.525"
       cx="102.92"
       style="fill:url(#1)" />
    <path
       d="m94.94447 29.91333a2.174392 2.167679 0 0 0 -2.174592 2.168478 2.174392 2.167679 0 0 0 2.174592 2.168479 2.174392 2.167679 0 0 0 2.174592 -2.168479 2.174392 2.167679 0 0 0 -2.174592 -2.168478m12.322 0l-4.123 4.111 6.342 6.322-6.569 7.451 4.349 3.793L117.41 40.03 107.27 29.913M92.04433 40.03018a3.62397 3.612811 0 0 0 -3.623641 3.61345 3.62397 3.612811 0 0 0 3.623641 3.611414 3.62397 3.612811 0 0 0 3.62568 -3.611414 3.62397 3.612811 0 0 0 -3.62568 -3.61345zm6.523777 10.11481a4.348766 4.335373 0 0 0 -4.349184 4.336956 4.348766 4.335373 0 0 0 4.349184 4.334919 4.348766 4.335373 0 0 0 4.349183 -4.334919 4.348766 4.335373 0 0 0 -4.349183 -4.336956"
       fill="url(#0)"
       color="#000"
       id="path4" />
  </g>
</svg>
