<?xml version="1.0" encoding="UTF-8" standalone="no"?>
<svg
   xmlns:dc="http://purl.org/dc/elements/1.1/"
   xmlns:cc="http://creativecommons.org/ns#"
   xmlns:rdf="http://www.w3.org/1999/02/22-rdf-syntax-ns#"
   xmlns:svg="http://www.w3.org/2000/svg"
   xmlns="http://www.w3.org/2000/svg"
   xmlns:xlink="http://www.w3.org/1999/xlink"
   xmlns:sodipodi="http://sodipodi.sourceforge.net/DTD/sodipodi-0.dtd"
   xmlns:inkscape="http://www.inkscape.org/namespaces/inkscape"
   inkscape:version="1.0.1 (3bc2e813f5, 2020-09-07)"
   sodipodi:docname="folder-KDE.svg"
   id="svg12"
   version="1.1"
   viewBox="0 0 64 64">
  <metadata
     id="metadata16">
    <rdf:RDF>
      <cc:Work
         rdf:about="">
        <dc:format>image/svg+xml</dc:format>
        <dc:type
           rdf:resource="http://purl.org/dc/dcmitype/StillImage" />
        <dc:title></dc:title>
      </cc:Work>
    </rdf:RDF>
  </metadata>
  <sodipodi:namedview
     inkscape:document-rotation="0"
     inkscape:current-layer="svg12"
     inkscape:window-maximized="1"
     inkscape:window-y="0"
     inkscape:window-x="0"
     inkscape:cy="33.956387"
     inkscape:cx="-34.055691"
     inkscape:zoom="5.2609472"
     showgrid="false"
     id="namedview14"
     inkscape:window-height="1012"
     inkscape:window-width="1920"
     inkscape:pageshadow="2"
     inkscape:pageopacity="0"
     guidetolerance="10"
     gridtolerance="10"
     objecttolerance="10"
     borderopacity="1"
     bordercolor="#666666"
     pagecolor="#ffffff" />
  <defs
     id="defs3051">
    <linearGradient
       inkscape:collect="always"
       id="linearGradient851">
      <stop
         style="stop-color:#7f2aff;stop-opacity:1"
         offset="0"
         id="stop847" />
      <stop
         style="stop-color:#008080;stop-opacity:1"
         offset="1"
         id="stop849" />
    </linearGradient>
    <style
       id="current-color-scheme"
       type="text/css">
      .ColorScheme-Text {
        color:#31363b;
      }
      .ColorScheme-Background {
        color:#eff0f1;
      }
      .ColorScheme-Highlight {
        color:#3daee9;
      }
      .ColorScheme-ViewText {
        color:#31363b;
      }
      .ColorScheme-ViewBackground {
        color:#fcfcfc;
      }
      .ColorScheme-ViewHover {
        color:#93cee9;
      }
      .ColorScheme-ViewFocus{
        color:#3daee9;
      }
      .ColorScheme-ButtonText {
        color:#31363b;
      }
      .ColorScheme-ButtonBackground {
        color:#eff0f1;
      }
      .ColorScheme-ButtonHover {
        color:#93cee9;
      }
      .ColorScheme-ButtonFocus{
        color:#3daee9;
      }
      </style>
    <linearGradient
       inkscape:collect="always"
       xlink:href="#linearGradient851"
       id="linearGradient848"
       gradientUnits="userSpaceOnUse"
       x1="0"
       y1="247.5"
       x2="495"
       y2="247.5" />
    <radialGradient
       gradientUnits="userSpaceOnUse"
       gradientTransform="matrix(1,0,0,1.0498972,16.931143,26.013675)"
       r="10.000977"
       fy="15.499997"
       fx="16.000977"
       cy="15.499997"
       cx="16.000977"
       id="radialGradient860"
       xlink:href="#linearGradient851"
       inkscape:collect="always" />
  </defs>
  <g
     id="g8"
     transform="matrix(0.11428571,0,0,0.11428571,3.7762141,4.2052238)"
     style="fill-opacity:1;fill:url(#linearGradient848)">
    <path
       d="M 439.5,84 H 234.729 L 198.09,45.279 C 182.464,28.269 164.607,20 143.5,20 h -88 C 24.897,20 0,44.897 0,75.5 v 344 C 0,450.103 24.897,475 55.5,475 h 384 c 30.603,0 55.5,-24.897 55.5,-55.5 v -280 C 495,108.897 470.103,84 439.5,84 Z M 480,419.5 c 0,22.332 -18.168,40.5 -40.5,40.5 H 55.5 C 33.168,460 15,441.832 15,419.5 v -232 C 15,165.168 33.168,147 55.5,147 h 384 c 22.332,0 40.5,18.168 40.5,40.5 z M 439.5,132 H 55.5 C 39.536,132 25.135,138.784 15,149.61 V 75.5 C 15,53.168 33.168,35 55.5,35 h 88 c 16.92,0 30.768,6.503 43.579,20.465 0.026,0.028 0.052,0.057 0.079,0.084 l 38.895,41.105 C 227.469,98.151 229.439,99 231.5,99 h 208 c 22.332,0 40.5,18.168 40.5,40.5 v 10.11 C 469.865,138.784 455.464,132 439.5,132 Z"
       id="path2"
       style="fill-opacity:1;fill:url(#linearGradient848)" />
    <path
       d="m 431.5,180 h -104 c -4.142,0 -7.5,3.357 -7.5,7.5 0,4.143 3.358,7.5 7.5,7.5 h 104 c 4.142,0 7.5,-3.357 7.5,-7.5 0,-4.143 -3.358,-7.5 -7.5,-7.5 z"
       id="path4-3"
       style="fill:url(#linearGradient848);fill-opacity:1" />
    <path
       d="m 431.5,220 h -104 c -4.142,0 -7.5,3.357 -7.5,7.5 0,4.143 3.358,7.5 7.5,7.5 h 104 c 4.142,0 7.5,-3.357 7.5,-7.5 0,-4.143 -3.358,-7.5 -7.5,-7.5 z"
       id="path6-6"
       style="fill:url(#linearGradient848);fill-opacity:1" />
  </g>
  <path
     style="color:#d3dae3;fill:url(#radialGradient860);fill-opacity:1.0"
     d="m 34.931143,31.787082 -4,0.605468 v 14.468751 l 4,-1.074219 v -5.589844 l 4,6.589844 4,-1.5 -5,-6 5.001953,-6.498047 -3.880859,-1.001953 -4.121094,6.558594 z m -8.144532,3.923828 c -0.09459,0 -0.189185,0.03684 -0.261718,0.109375 l -1.57227,1.572266 c -0.14506,0.145067 -0.11014,0.352307 0,0.52539 l 1.626957,2.554688 c -0.120542,0.250221 -0.224923,0.50791 -0.3125,0.771484 -0.0038,0.01134 -0.0099,0.02184 -0.01367,0.0332 l -2.951167,0.65625 c -0.20027,0.04451 -0.3711,0.165942 -0.3711,0.371097 v 0.982422 0.982422 c 0,0.205155 0.17083,0.32659 0.3711,0.371094 l 2.951167,0.65625 c 0.0065,0.0194 0.01679,0.03731 0.02344,0.05664 0.08525,0.256042 0.186352,0.506527 0.302735,0.75 l -1.626952,2.552735 c -0.11014,0.173083 -0.14507,0.380323 0,0.52539 l 1.572265,1.572266 c 0.145067,0.145067 0.378367,0.145067 0.523438,0 l 2.550781,-1.625 c 0.250759,0.121949 0.509105,0.227636 0.773437,0.316406 0.01735,0.0061 0.03339,0.01554 0.05078,0.02148 l 0.654296,2.949218 c 0,0.205156 0.16594,0.371094 0.371094,0.371094 h 2.220703 c 0.205155,0 0.32659,-0.170824 0.371094,-0.371094 l 0.654297,-3.039062 c 0.300604,-0.113013 0.592418,-0.248149 0.873047,-0.404297 l 2.490234,1.78125 c 0.145068,0.145067 0.378371,0.145067 0.523438,0 l 1.572265,-1.572266 c 0.145068,-0.145067 0.110144,-0.352307 0,-0.52539 l -0.947265,-1.4375 -0.09961,0.03711 c -0.225251,0.08461 -0.478825,-0.0032 -0.603515,-0.208984 L 37.50732,45.406223 c -0.829936,1.985195 -2.789933,3.380859 -5.076172,3.380859 -3.037566,0 -5.5,-2.462434 -5.5,-5.5 0,-2.33092 1.452799,-4.31835 3.5,-5.119141 v -1.095703 l -0.0078,0.03516 c -0.02208,0.0075 -0.04245,0.01957 -0.06445,0.02734 -0.260825,0.08662 -0.515895,0.189688 -0.763672,0.308594 l -2.54689,-1.623047 c -0.07254,-0.07253 -0.167127,-0.109375 -0.26172,-0.109375 z"
     class="ColorScheme-Text"
     id="path10-7" />
</svg>
