<?xml version="1.0" encoding="UTF-8" standalone="no"?>
<svg
   xmlns:dc="http://purl.org/dc/elements/1.1/"
   xmlns:cc="http://creativecommons.org/ns#"
   xmlns:rdf="http://www.w3.org/1999/02/22-rdf-syntax-ns#"
   xmlns:svg="http://www.w3.org/2000/svg"
   xmlns="http://www.w3.org/2000/svg"
   xmlns:xlink="http://www.w3.org/1999/xlink"
   xmlns:sodipodi="http://sodipodi.sourceforge.net/DTD/sodipodi-0.dtd"
   xmlns:inkscape="http://www.inkscape.org/namespaces/inkscape"
   inkscape:version="1.0.1 (3bc2e813f5, 2020-09-07)"
   sodipodi:docname="folder-Manjaro.svg"
   id="svg12"
   version="1.1"
   viewBox="0 0 64 64">
  <metadata
     id="metadata16">
    <rdf:RDF>
      <cc:Work
         rdf:about="">
        <dc:format>image/svg+xml</dc:format>
        <dc:type
           rdf:resource="http://purl.org/dc/dcmitype/StillImage" />
        <dc:title />
      </cc:Work>
    </rdf:RDF>
  </metadata>
  <sodipodi:namedview
     inkscape:document-rotation="0"
     inkscape:current-layer="svg12"
     inkscape:window-maximized="1"
     inkscape:window-y="0"
     inkscape:window-x="0"
     inkscape:cy="33.956387"
     inkscape:cx="-34.055691"
     inkscape:zoom="5.2609472"
     showgrid="false"
     id="namedview14"
     inkscape:window-height="1012"
     inkscape:window-width="1920"
     inkscape:pageshadow="2"
     inkscape:pageopacity="0"
     guidetolerance="10"
     gridtolerance="10"
     objecttolerance="10"
     borderopacity="1"
     bordercolor="#666666"
     pagecolor="#ffffff" />
  <defs
     id="defs3051">
    <linearGradient
       inkscape:collect="always"
       id="linearGradient844">
      <stop
         style="stop-color:#fac136;stop-opacity:1"
         offset="0"
         id="stop840" />
      <stop
         style="stop-color:#00bcd4;stop-opacity:1"
         offset="1"
         id="stop842" />
    </linearGradient>
    <style
       id="current-color-scheme"
       type="text/css">
      .ColorScheme-Text {
        color:#31363b;
      }
      .ColorScheme-Background {
        color:#eff0f1;
      }
      .ColorScheme-Highlight {
        color:#3daee9;
      }
      .ColorScheme-ViewText {
        color:#31363b;
      }
      .ColorScheme-ViewBackground {
        color:#fcfcfc;
      }
      .ColorScheme-ViewHover {
        color:#93cee9;
      }
      .ColorScheme-ViewFocus{
        color:#3daee9;
      }
      .ColorScheme-ButtonText {
        color:#31363b;
      }
      .ColorScheme-ButtonBackground {
        color:#eff0f1;
      }
      .ColorScheme-ButtonHover {
        color:#93cee9;
      }
      .ColorScheme-ButtonFocus{
        color:#3daee9;
      }
      </style>
    <linearGradient
       inkscape:collect="always"
       xlink:href="#linearGradient844"
       id="linearGradient880"
       x1="-2.5104311"
       y1="475.14038"
       x2="486.49356"
       y2="28.022188"
       gradientUnits="userSpaceOnUse" />
    <linearGradient
       inkscape:collect="always"
       xlink:href="#linearGradient844"
       id="linearGradient853"
       x1="320"
       y1="187.5"
       x2="439"
       y2="187.5"
       gradientUnits="userSpaceOnUse" />
    <linearGradient
       inkscape:collect="always"
       xlink:href="#linearGradient844"
       id="linearGradient861"
       x1="320"
       y1="227.5"
       x2="439"
       y2="227.5"
       gradientUnits="userSpaceOnUse" />
    <linearGradient
       inkscape:collect="always"
       xlink:href="#linearGradient844"
       id="linearGradient867"
       x1="20.650999"
       y1="43.241581"
       x2="41.901001"
       y2="43.241581"
       gradientUnits="userSpaceOnUse"
       gradientTransform="matrix(0.90000016,0,0,0.90000016,3.5506093,4.3036004)" />
  </defs>
  <g
     id="g8"
     transform="matrix(0.11428571,0,0,0.11428571,3.7762141,4.2052238)">
    <path
       d="M 439.5,84 H 234.729 L 198.09,45.279 C 182.464,28.269 164.607,20 143.5,20 h -88 C 24.897,20 0,44.897 0,75.5 v 344 C 0,450.103 24.897,475 55.5,475 h 384 c 30.603,0 55.5,-24.897 55.5,-55.5 v -280 C 495,108.897 470.103,84 439.5,84 Z M 480,419.5 c 0,22.332 -18.168,40.5 -40.5,40.5 H 55.5 C 33.168,460 15,441.832 15,419.5 v -232 C 15,165.168 33.168,147 55.5,147 h 384 c 22.332,0 40.5,18.168 40.5,40.5 z M 439.5,132 H 55.5 C 39.536,132 25.135,138.784 15,149.61 V 75.5 C 15,53.168 33.168,35 55.5,35 h 88 c 16.92,0 30.768,6.503 43.579,20.465 0.026,0.028 0.052,0.057 0.079,0.084 l 38.895,41.105 C 227.469,98.151 229.439,99 231.5,99 h 208 c 22.332,0 40.5,18.168 40.5,40.5 v 10.11 C 469.865,138.784 455.464,132 439.5,132 Z"
       id="path2"
       style="fill-opacity:1;fill:url(#linearGradient880)" />
    <path
       d="m 431.5,180 h -104 c -4.142,0 -7.5,3.357 -7.5,7.5 0,4.143 3.358,7.5 7.5,7.5 h 104 c 4.142,0 7.5,-3.357 7.5,-7.5 0,-4.143 -3.358,-7.5 -7.5,-7.5 z"
       id="path4-3"
       style="fill:url(#linearGradient853);fill-opacity:1.0" />
    <path
       d="m 431.5,220 h -104 c -4.142,0 -7.5,3.357 -7.5,7.5 0,4.143 3.358,7.5 7.5,7.5 h 104 c 4.142,0 7.5,-3.357 7.5,-7.5 0,-4.143 -3.358,-7.5 -7.5,-7.5 z"
       id="path6-6"
       style="fill:url(#linearGradient861);fill-opacity:1.0" />
  </g>
  <path
     style="opacity:1;fill:url(#linearGradient867);fill-opacity:1;stroke-width:1.125"
     d="m 23.101149,34.221023 c -0.534288,0 -0.96464,0.430385 -0.96464,0.964602 v 16.070796 c 0,0.534217 0.45395,0.807492 0.96464,0.964602 h 4.660361 v -12.375 h 6.75 v -5.625 z m 12.535361,0 v 18 h 4.660398 c 0.534218,0 0.964602,-0.430385 0.964602,-0.964602 V 35.185625 c 0,-0.534217 -0.430384,-0.964602 -0.964602,-0.964602 z m -12.375001,1.125 H 33.38651 v 3.375 h -5.625 a 1.1251119,1.1251119 0 0 0 -1.125001,1.125 v 11.25 h -3.322288 c -0.0199,-0.01029 -0.03915,-0.01491 -0.053,-0.02191 z m 13.500001,0 h 3.375 v 15.75 h -3.375 z m -7.875,5.625 v 11.25 h 5.625 v -11.25 z m 1.125,1.125 h 3.375 v 9 h -3.375 z"
     id="path4" />
</svg>
