<?xml version="1.0" encoding="UTF-8" standalone="no"?>
<svg
   inkscape:version="1.2.1 (9c6d41e410, 2022-07-14)"
   sodipodi:docname="folder-Arch.svg"
   id="svg12"
   version="1.1"
   viewBox="0 0 64 64"
   xmlns:inkscape="http://www.inkscape.org/namespaces/inkscape"
   xmlns:sodipodi="http://sodipodi.sourceforge.net/DTD/sodipodi-0.dtd"
   xmlns:xlink="http://www.w3.org/1999/xlink"
   xmlns="http://www.w3.org/2000/svg"
   xmlns:svg="http://www.w3.org/2000/svg"
   xmlns:rdf="http://www.w3.org/1999/02/22-rdf-syntax-ns#"
   xmlns:cc="http://creativecommons.org/ns#"
   xmlns:dc="http://purl.org/dc/elements/1.1/">
  <metadata
     id="metadata16">
    <rdf:RDF>
      <cc:Work
         rdf:about="">
        <dc:format>image/svg+xml</dc:format>
        <dc:type
           rdf:resource="http://purl.org/dc/dcmitype/StillImage" />
      </cc:Work>
    </rdf:RDF>
  </metadata>
  <sodipodi:namedview
     inkscape:document-rotation="0"
     inkscape:current-layer="svg12"
     inkscape:window-maximized="1"
     inkscape:window-y="0"
     inkscape:window-x="0"
     inkscape:cy="34.119331"
     inkscape:cx="-35.35485"
     inkscape:zoom="5.2609472"
     showgrid="false"
     id="namedview14"
     inkscape:window-height="1002"
     inkscape:window-width="1920"
     inkscape:pageshadow="2"
     inkscape:pageopacity="0"
     guidetolerance="10"
     gridtolerance="10"
     objecttolerance="10"
     borderopacity="1"
     bordercolor="#666666"
     pagecolor="#ffffff"
     inkscape:showpageshadow="2"
     inkscape:pagecheckerboard="0"
     inkscape:deskcolor="#d1d1d1" />
  <defs
     id="defs3051">
    <linearGradient
       inkscape:collect="always"
       id="linearGradient3929">
      <stop
         style="stop-color:#00aad4;stop-opacity:1;"
         offset="0"
         id="stop3925" />
      <stop
         style="stop-color:#3771c8;stop-opacity:1;"
         offset="1"
         id="stop3927" />
    </linearGradient>
    <linearGradient
       inkscape:collect="always"
       id="linearGradient851">
      <stop
         style="stop-color:#fac136;stop-opacity:1"
         offset="0"
         id="stop847" />
      <stop
         style="stop-color:#006dda;stop-opacity:1"
         offset="1"
         id="stop849" />
    </linearGradient>
    <linearGradient
       inkscape:collect="always"
       id="linearGradient842">
      <stop
         style="stop-color:#6db2c5;stop-opacity:1"
         offset="0"
         id="stop838" />
      <stop
         style="stop-color:#a3424b;stop-opacity:1"
         offset="1"
         id="stop840" />
    </linearGradient>
    <style
       id="current-color-scheme"
       type="text/css">
      .ColorScheme-Text {
        color:#31363b;
      }
      .ColorScheme-Background {
        color:#eff0f1;
      }
      .ColorScheme-Highlight {
        color:#3daee9;
      }
      .ColorScheme-ViewText {
        color:#31363b;
      }
      .ColorScheme-ViewBackground {
        color:#fcfcfc;
      }
      .ColorScheme-ViewHover {
        color:#93cee9;
      }
      .ColorScheme-ViewFocus{
        color:#3daee9;
      }
      .ColorScheme-ButtonText {
        color:#31363b;
      }
      .ColorScheme-ButtonBackground {
        color:#eff0f1;
      }
      .ColorScheme-ButtonHover {
        color:#93cee9;
      }
      .ColorScheme-ButtonFocus{
        color:#3daee9;
      }
      </style>
    <linearGradient
       inkscape:collect="always"
       xlink:href="#linearGradient842"
       id="linearGradient844"
       x1="0"
       y1="247.5"
       x2="495"
       y2="247.5"
       gradientUnits="userSpaceOnUse" />
    <linearGradient
       inkscape:collect="always"
       xlink:href="#linearGradient851"
       id="linearGradient838"
       gradientUnits="userSpaceOnUse"
       x1="82.441216"
       y1="398.17145"
       x2="357.26086"
       y2="164.75348" />
    <linearGradient
       inkscape:collect="always"
       xlink:href="#linearGradient851"
       id="linearGradient853"
       gradientUnits="userSpaceOnUse"
       x1="0"
       y1="247.5"
       x2="495"
       y2="247.5" />
    <linearGradient
       inkscape:collect="always"
       xlink:href="#linearGradient851"
       id="linearGradient855"
       gradientUnits="userSpaceOnUse"
       x1="0"
       y1="247.5"
       x2="495"
       y2="247.5" />
    <linearGradient
       inkscape:collect="always"
       xlink:href="#linearGradient3929"
       id="linearGradient3931"
       x1="6.924201"
       y1="173.09781"
       x2="173.07594"
       y2="6.9095592"
       gradientUnits="userSpaceOnUse" />
  </defs>
  <g
     id="g8"
     transform="matrix(0.11428571,0,0,0.11428571,3.7762141,4.2052238)"
     style="fill-opacity:1;fill:url(#linearGradient844)">
    <path
       d="M 439.5,84 H 234.729 L 198.09,45.279 C 182.464,28.269 164.607,20 143.5,20 h -88 C 24.897,20 0,44.897 0,75.5 v 344 C 0,450.103 24.897,475 55.5,475 h 384 c 30.603,0 55.5,-24.897 55.5,-55.5 v -280 C 495,108.897 470.103,84 439.5,84 Z M 480,419.5 c 0,22.332 -18.168,40.5 -40.5,40.5 H 55.5 C 33.168,460 15,441.832 15,419.5 v -232 C 15,165.168 33.168,147 55.5,147 h 384 c 22.332,0 40.5,18.168 40.5,40.5 z M 439.5,132 H 55.5 C 39.536,132 25.135,138.784 15,149.61 V 75.5 C 15,53.168 33.168,35 55.5,35 h 88 c 16.92,0 30.768,6.503 43.579,20.465 0.026,0.028 0.052,0.057 0.079,0.084 l 38.895,41.105 C 227.469,98.151 229.439,99 231.5,99 h 208 c 22.332,0 40.5,18.168 40.5,40.5 v 10.11 C 469.865,138.784 455.464,132 439.5,132 Z"
       id="path2"
       style="fill-opacity:1;fill:url(#linearGradient838)" />
    <path
       d="m 431.5,180 h -104 c -4.142,0 -7.5,3.357 -7.5,7.5 0,4.143 3.358,7.5 7.5,7.5 h 104 c 4.142,0 7.5,-3.357 7.5,-7.5 0,-4.143 -3.358,-7.5 -7.5,-7.5 z"
       id="path4-3"
       style="fill:url(#linearGradient853);fill-opacity:1" />
    <path
       d="m 431.5,220 h -104 c -4.142,0 -7.5,3.357 -7.5,7.5 0,4.143 3.358,7.5 7.5,7.5 h 104 c 4.142,0 7.5,-3.357 7.5,-7.5 0,-4.143 -3.358,-7.5 -7.5,-7.5 z"
       id="path6-6"
       style="fill:url(#linearGradient855);fill-opacity:1" />
  </g>
  <g
     id="start-here-kde-3"
     transform="matrix(0.12034545,0,0,0.12034545,21.230828,30.766935)"
     inkscape:label="#start-here-kde"
     style="fill:url(#linearGradient3931);fill-opacity:1">
    <g
       id="22-22-start-here-kde-3-7-2-6"
       style="fill:url(#linearGradient3931);fill-opacity:1">
      <g
         transform="translate(-50.6,-139.51)"
         id="g6-5-9-1"
         style="fill:url(#linearGradient3931);fill-opacity:1">
        <g
           transform="matrix(0.87464,0,0,0.87464,14.731,23.409)"
           id="g4-3-1-2"
           style="fill:url(#linearGradient3931);fill-opacity:1">
          <path
             transform="matrix(1.1433,0,0,1.1433,22.92,121.64)"
             d="M 105.81,16.625 C 98.4131,34.76 93.952,46.623 85.716,64.219 90.7654,69.5713 96.963,75.804 107.028,82.844 96.207,78.3912 88.825,73.9206 83.309,69.282 c -10.54,21.993 -27.053,53.321 -60.562,113.53 26.338,-15.205 46.754,-24.579 65.781,-28.156 -0.81703,-3.514 -1.2816,-7.3152 -1.25,-11.281 l 0.03125,-0.84375 c 0.41792,-16.874 9.1957,-29.85 19.594,-28.969 10.398,0.88104 18.48,15.282 18.062,32.156 -0.0786,3.1751 -0.43674,6.2296 -1.0625,9.0625 18.821,3.6816 39.019,13.032 65,28.031 -5.123,-9.4318 -9.6957,-17.934 -14.062,-26.031 -6.8784,-5.3312 -14.053,-12.27 -28.688,-19.781 10.059,2.6138 17.261,5.6293 22.875,9 -44.398,-82.662 -47.994,-93.646 -63.219,-129.38 z"
             id="path2-5-2-9"
             style="fill:url(#linearGradient3931);fill-opacity:1" />
        </g>
      </g>
    </g>
  </g>
</svg>
