<?xml version="1.0" encoding="UTF-8" standalone="no"?>
<svg
   xmlns:dc="http://purl.org/dc/elements/1.1/"
   xmlns:cc="http://creativecommons.org/ns#"
   xmlns:rdf="http://www.w3.org/1999/02/22-rdf-syntax-ns#"
   xmlns:svg="http://www.w3.org/2000/svg"
   xmlns="http://www.w3.org/2000/svg"
   xmlns:xlink="http://www.w3.org/1999/xlink"
   xmlns:sodipodi="http://sodipodi.sourceforge.net/DTD/sodipodi-0.dtd"
   xmlns:inkscape="http://www.inkscape.org/namespaces/inkscape"
   inkscape:version="1.0.1 (3bc2e813f5, 2020-09-07)"
   sodipodi:docname="folder_html.svg"
   id="svg12"
   version="1.1"
   viewBox="0 0 64 64">
  <metadata
     id="metadata16">
    <rdf:RDF>
      <cc:Work
         rdf:about="">
        <dc:format>image/svg+xml</dc:format>
        <dc:type
           rdf:resource="http://purl.org/dc/dcmitype/StillImage" />
        <dc:title></dc:title>
      </cc:Work>
    </rdf:RDF>
  </metadata>
  <sodipodi:namedview
     inkscape:document-rotation="0"
     inkscape:current-layer="svg12"
     inkscape:window-maximized="1"
     inkscape:window-y="0"
     inkscape:window-x="0"
     inkscape:cy="33.956387"
     inkscape:cx="-34.055691"
     inkscape:zoom="5.2609472"
     showgrid="false"
     id="namedview14"
     inkscape:window-height="1013"
     inkscape:window-width="1920"
     inkscape:pageshadow="2"
     inkscape:pageopacity="0"
     guidetolerance="10"
     gridtolerance="10"
     objecttolerance="10"
     borderopacity="1"
     bordercolor="#666666"
     pagecolor="#ffffff" />
  <defs
     id="defs3051">
    <linearGradient
       inkscape:collect="always"
       id="linearGradient848">
      <stop
         style="stop-color:#00c4c4;stop-opacity:1"
         offset="0"
         id="stop844" />
      <stop
         style="stop-color:#7f2aff;stop-opacity:1"
         offset="1"
         id="stop846" />
    </linearGradient>
    <style
       id="current-color-scheme"
       type="text/css">
      .ColorScheme-Text {
        color:#31363b;
      }
      .ColorScheme-Background {
        color:#eff0f1;
      }
      .ColorScheme-Highlight {
        color:#3daee9;
      }
      .ColorScheme-ViewText {
        color:#31363b;
      }
      .ColorScheme-ViewBackground {
        color:#fcfcfc;
      }
      .ColorScheme-ViewHover {
        color:#93cee9;
      }
      .ColorScheme-ViewFocus{
        color:#3daee9;
      }
      .ColorScheme-ButtonText {
        color:#31363b;
      }
      .ColorScheme-ButtonBackground {
        color:#eff0f1;
      }
      .ColorScheme-ButtonHover {
        color:#93cee9;
      }
      .ColorScheme-ButtonFocus{
        color:#3daee9;
      }
      </style>
    <linearGradient
       inkscape:collect="always"
       xlink:href="#linearGradient848"
       id="linearGradient850"
       x1="0"
       y1="247.5"
       x2="495"
       y2="247.5"
       gradientUnits="userSpaceOnUse" />
    <linearGradient
       inkscape:collect="always"
       xlink:href="#linearGradient848"
       id="linearGradient858"
       x1="22.057718"
       y1="40.995953"
       x2="42.05772"
       y2="40.995953"
       gradientUnits="userSpaceOnUse" />
  </defs>
  <g
     id="g8"
     transform="matrix(0.11428571,0,0,0.11428571,3.7762141,4.2052238)"
     style="fill-opacity:1;fill:url(#linearGradient850)">
    <path
       d="M 439.5,84 H 234.729 L 198.09,45.279 C 182.464,28.269 164.607,20 143.5,20 h -88 C 24.897,20 0,44.897 0,75.5 v 344 C 0,450.103 24.897,475 55.5,475 h 384 c 30.603,0 55.5,-24.897 55.5,-55.5 v -280 C 495,108.897 470.103,84 439.5,84 Z M 480,419.5 c 0,22.332 -18.168,40.5 -40.5,40.5 H 55.5 C 33.168,460 15,441.832 15,419.5 v -232 C 15,165.168 33.168,147 55.5,147 h 384 c 22.332,0 40.5,18.168 40.5,40.5 z M 439.5,132 H 55.5 C 39.536,132 25.135,138.784 15,149.61 V 75.5 C 15,53.168 33.168,35 55.5,35 h 88 c 16.92,0 30.768,6.503 43.579,20.465 0.026,0.028 0.052,0.057 0.079,0.084 l 38.895,41.105 C 227.469,98.151 229.439,99 231.5,99 h 208 c 22.332,0 40.5,18.168 40.5,40.5 v 10.11 C 469.865,138.784 455.464,132 439.5,132 Z"
       id="path2"
       style="fill-opacity:1;fill:url(#linearGradient850)" />
    <path
       d="m 431.5,180 h -104 c -4.142,0 -7.5,3.357 -7.5,7.5 0,4.143 3.358,7.5 7.5,7.5 h 104 c 4.142,0 7.5,-3.357 7.5,-7.5 0,-4.143 -3.358,-7.5 -7.5,-7.5 z"
       id="path4-3"
       style="fill:url(#linearGradient850);fill-opacity:1" />
    <path
       d="m 431.5,220 h -104 c -4.142,0 -7.5,3.357 -7.5,7.5 0,4.143 3.358,7.5 7.5,7.5 h 104 c 4.142,0 7.5,-3.357 7.5,-7.5 0,-4.143 -3.358,-7.5 -7.5,-7.5 z"
       id="path6-6"
       style="fill:url(#linearGradient850);fill-opacity:1" />
  </g>
  <path
     style="color:#eff0f1;fill:url(#linearGradient858);fill-opacity:1.0;stroke:none"
     d="m 32.057719,30.995954 c -0.34625,0 -0.69426,0.02848 -1.03125,0.0625 -0.67397,0.06804 -1.31047,0.180791 -1.9375,0.375 -3.1351,0.971045 -5.6227,3.458643 -6.59375,6.59375 -0.1942,0.627021 -0.30696,1.263525 -0.375,1.9375 -0.034,0.336987 -0.0625,0.685 -0.0625,1.03125 0,0.34625 0.0285,0.694263 0.0625,1.03125 0.068,0.673975 0.1808,1.310479 0.375,1.9375 0.97105,3.135107 3.45865,5.622705 6.59375,6.59375 0.62703,0.194209 1.26353,0.306963 1.9375,0.375 0.33699,0.03402 0.685,0.0625 1.03125,0.0625 0.34625,0 0.69427,-0.02848 1.03125,-0.0625 0.67398,-0.06804 1.31048,-0.180791 1.9375,-0.375 0.62626,-0.194787 1.24573,-0.47336 1.8125,-0.78125 2.26747,-1.228711 4.00442,-3.304414 4.78125,-5.8125 0.19421,-0.627021 0.30697,-1.263525 0.375,-1.9375 0.034,-0.336987 0.0625,-0.685 0.0625,-1.03125 0,-0.345178 -0.0284,-0.695079 -0.0625,-1.03125 -0.068,-0.673975 -0.18079,-1.310479 -0.375,-1.9375 -0.38841,-1.254043 -1.02986,-2.419238 -1.84375,-3.40625 -0.20379,-0.246941 -0.43004,-0.461294 -0.65625,-0.6875 -0.90375,-0.90375 -1.95906,-1.651562 -3.15625,-2.15625 -0.29909,-0.126507 -0.62437,-0.246357 -0.9375,-0.34375 -0.62702,-0.194209 -1.26352,-0.306963 -1.9375,-0.375 -0.33698,-0.03402 -0.685,-0.0625 -1.03125,-0.0625 z m 0,1 c 1.51331,0 2.93582,0.371409 4.1875,1.03125 0.0331,0.01744 0.0609,0.04466 0.0937,0.0625 0.0253,0.03353 0.018,0.06921 0.0625,0.09375 0.0327,0.0182 0.063,0.0462 0.0937,0.0625 0.0527,0.0291 0.10465,0.07405 0.0937,0.125 -0.0145,0.0745 -0.1366,0.07044 -0.1875,0.125 0.007,0.10542 -0.0353,0.08537 -0.0625,0.15625 0.0164,0.0455 0.0553,0.03925 0.0625,0.09375 -0.009,0.0582 -0.0844,0.06503 -0.0625,0.125 0.0982,0.0764 0.18853,0.0127 0.28125,0 0.20362,-0.0255 0.37455,0.0043 0.5,-0.09375 -0.0132,-0.07778 0.0611,-0.1 0.0937,-0.15625 0.0664,0.04653 0.12246,0.107991 0.1875,0.15625 -0.0382,0.0164 -0.1217,0.0407 -0.15625,0.0625 -0.0509,0.0345 -0.0668,0.08684 -0.125,0.125 -0.0418,0.0291 -0.14386,0.125 -0.1875,0.125 -0.0527,0 -0.14932,-0.04395 -0.1875,-0.03125 -0.0546,0.0164 -0.032,0.10319 -0.0937,0.125 -0.11999,0.0436 -0.33319,-0.1174 -0.375,0.0625 0.0509,0.1036 0.2216,0.06867 0.3125,0.125 0.0564,0.0364 0.14171,0.21945 0.15625,0.28125 0.0145,0.0509 0.0218,0.22673 0,0.28125 -0.0564,0.1454 -0.20775,0.12864 -0.375,0.125 -0.0455,0 -0.0832,0.004 -0.125,0 -0.28179,-0.0182 -0.56023,-0.10798 -0.6875,0.09375 0.009,0.15449 0.0346,0.2405 0,0.375 -0.0254,0.0981 -0.13046,0.16457 -0.125,0.25 0.002,0.0436 0.0828,0.12751 0.0937,0.1875 0.007,0.0327 -0.0146,0.09597 0,0.125 0.0473,0.0891 0.16637,-0.0145 0.25,0 0.08,0.0127 0.15625,0.12969 0.15625,0.21875 0,0.0636 -0.0225,0.1882 -0.0625,0.25 -0.08,0.11995 -0.22921,0.09081 -0.34375,0.15625 -0.0945,0.0545 -0.13114,0.18673 -0.1875,0.28125 -0.06,0.10178 -0.11742,0.13585 -0.0937,0.28125 -0.0818,0.16176 -0.17468,0.26559 -0.34375,0.34375 -0.0491,0.0218 -0.1108,0.06105 -0.15625,0.09375 -0.0364,0.0254 -0.074,0.06676 -0.125,0.125 -0.0636,0.0709 -0.15296,0.10172 -0.1875,0.15625 -0.0255,0.0418 -0.004,0.13116 -0.0312,0.1875 -0.04,0.0764 -0.10535,0.14241 -0.15625,0.21875 -0.0236,0.0364 -0.0684,0.07766 -0.0937,0.125 -0.0582,0.10542 -0.13591,0.18856 -0.125,0.28125 0.009,0.0891 0.11955,0.10934 0.125,0.1875 0.005,0.0436 -0.0331,0.07773 -0.0312,0.125 0.002,0.0691 0.0258,0.10172 0.0312,0.15625 0.0127,0.1345 -0.0684,0.18855 -0.0937,0.28125 -0.0127,0.0436 0.0109,0.09047 0,0.125 -0.0218,0.0673 -0.12318,0.10753 -0.125,0.1875 -0.002,0.0564 0.0883,0.10757 0.0937,0.1875 0.004,0.0545 -0.0422,0.10536 -0.0312,0.15625 0.02,0.0982 0.2049,0.23616 0.28125,0.3125 0.10363,0.10361 0.20456,0.17219 0.25,0.28125 0.0382,0.0927 0.0541,0.24343 0.125,0.3125 0.0527,0.0509 0.15149,0.07233 0.21875,0.125 0.0636,0.0491 0.15148,0.07226 0.21875,0.125 0.1109,0.0873 0.26114,0.26273 0.4375,0.25 0.0927,-0.007 0.17762,-0.0444 0.28125,-0.0625 0.10726,-0.0182 0.23467,-0.0734 0.34375,-0.0625 0.0836,0.009 0.16274,0.068 0.25,0.0625 0.0909,-0.005 0.20888,-0.04835 0.3125,-0.09375 0.17999,-0.0782 0.45696,-0.22567 0.71875,-0.1875 0.19998,0.0291 0.20376,0.25469 0.34375,0.34375 0.15998,0.0145 0.27899,-0.0309 0.40625,0 0.0964,0.0236 0.20966,0.20492 0.21875,0.28125 0.009,0.0782 -0.0516,0.13843 -0.0625,0.1875 -0.0254,0.10542 -0.0444,0.24525 -0.0625,0.3125 -0.0145,0.0527 -0.0331,0.10354 -0.0312,0.15625 0,0.0473 0.0759,0.15695 0.125,0.21875 0.06,0.0764 0.14603,0.13514 0.21875,0.21875 0.13272,0.15267 0.18853,0.36074 0.28125,0.5625 0.0236,0.0509 -0.0218,0.06137 0,0.125 -0.04,0.30536 -0.14377,0.50568 -0.34375,0.84375 -0.0945,0.10905 -0.18932,0.23869 -0.1875,0.375 -0.007,0.32716 0.1708,0.49624 0.15625,0.8125 -0.0327,0.42531 0.002,0.49156 -0.0312,0.71875 0.14363,0.0727 0.073,0.28664 0.0312,0.4375 -0.0618,0.17993 -0.12171,0.22379 -0.15625,0.34375 0.0746,0.03225 0.13704,0.04033 0.21875,0.03125 -1.63745,1.70242 -3.95136,2.75 -6.5,2.75 -1.19299,0 -2.33313,-0.234709 -3.375,-0.65625 -0.004,-0.0014 0.004,-0.02983 0,-0.03125 0.0945,-0.04 0.27467,0.0702 0.34375,-0.0625 0.0346,-0.0636 -0.0455,-0.18638 0,-0.25 0.0327,-0.0436 0.24524,-0.08285 0.3125,-0.09375 0.0964,-0.0164 0.19546,0.0033 0.25,-0.03125 0.06,-0.0382 0.13591,-0.13731 0.125,-0.25 -0.005,-0.0527 -0.0521,-0.07776 -0.0937,-0.125 -0.0345,-0.04 -0.008,-0.08863 -0.0312,-0.125 -0.0436,-0.0636 -0.10682,-0.09474 -0.125,-0.1875 0.1309,-0.0254 0.31093,0.14649 0.5,0.09375 0.0891,-0.0255 0.23943,-0.19765 0.28125,-0.28125 0.0127,-0.0255 -0.0145,-0.1253 0,-0.15625 0.0164,-0.0345 0.057,-0.0444 0.0625,-0.0625 0.0127,-0.0491 -0.0109,-0.06295 0,-0.09375 0.0327,-0.0927 0.13295,-0.1515 0.1875,-0.21875 0.0418,-0.0509 0.0868,-0.10354 0.125,-0.15625 0.0436,-0.0564 0.0648,-0.07585 0.0937,-0.125 0.0273,-0.1654 -0.1025,-0.2921 -0.0625,-0.4375 0.0436,-0.16358 0.27934,-0.26923 0.4375,-0.34375 0.0545,-0.0255 0.1108,-0.07745 0.15625,-0.09375 0.10908,-0.0382 0.24194,-0.0262 0.34375,-0.0625 0.1709,-0.0618 0.22886,-0.24995 0.3125,-0.40625 0.04,-0.0727 0.0864,-0.13479 0.0937,-0.1875 0.007,-0.0473 -0.009,-0.10169 0,-0.15625 0.009,-0.0545 0.0168,-0.09627 0.0312,-0.15625 0.02,-0.0782 0.0312,-0.22526 0.0312,-0.3125 0,-0.0727 -0.0294,-0.09082 -0.0312,-0.15625 -0.0127,-0.23628 0.069,-0.24596 0.15625,-0.375 0.0436,-0.0636 0.063,-0.17332 0.0937,-0.21875 0.14726,-0.21811 0.39318,-0.32546 0.375,-0.65625 -0.007,-0.10906 -0.045,-0.34046 -0.125,-0.375 -0.0455,-0.02 -0.15148,-0.0059 -0.21875,-0.03125 -0.21453,-0.08 -0.37014,-0.32558 -0.59375,-0.34375 -0.0473,-0.002 -0.0723,0.002 -0.125,0 -0.0873,-0.002 -0.18308,-0.08285 -0.28125,-0.09375 -0.0618,-0.007 -0.18239,0.0182 -0.21875,0 -0.0564,-0.0273 -0.0483,-0.12535 -0.0937,-0.15625 -0.0364,-0.0255 -0.0999,-0.0425 -0.15625,-0.0625 -0.0891,-0.0345 -0.14637,-0.0552 -0.25,-0.0625 -0.0327,-0.002 -0.11992,0.005 -0.15625,0 -0.0564,-0.009 -0.10353,-0.06105 -0.15625,-0.09375 -0.0654,-0.04 -0.0977,-0.06864 -0.125,-0.125 0.06,-0.1963 -0.1475,-0.22925 -0.1875,-0.34375 -0.0182,-0.0527 0.0182,-0.14024 0,-0.1875 -0.0236,-0.0673 -0.0817,-0.09992 -0.15625,-0.15625 -0.1309,-0.10179 -0.25024,-0.19513 -0.4375,-0.21875 -0.0836,-0.009 -0.18126,0.007 -0.28125,0 -0.10544,-0.007 -0.23251,-0.06539 -0.3125,-0.15625 -0.0764,-0.0891 -0.089,-0.17695 -0.15625,-0.21875 -0.0636,-0.04 -0.17512,-0.05205 -0.21875,-0.09375 -0.02,-0.0182 -0.0131,-0.05205 -0.0312,-0.09375 -0.0327,-0.0655 -0.1025,-0.07632 -0.0625,-0.15625 -0.0727,-0.0364 -0.0468,0.04585 -0.125,0.03125 -0.0709,-0.1 -0.12127,-0.1559 -0.28125,-0.125 -0.0727,0.0145 -0.1333,0.12319 -0.21875,0.125 -0.0709,0.002 -0.12603,-0.11228 -0.21875,-0.125 -0.0709,-0.009 -0.16966,0.0734 -0.21875,0.0625 -0.0782,-0.0145 -0.0854,-0.10891 -0.15625,-0.15625 -0.0527,-0.0346 -0.15841,-0.12681 -0.1875,-0.125 -0.0909,0.002 -0.15581,0.19225 -0.28125,0.125 -0.0618,-0.0782 0.10401,-0.08359 0.0312,-0.15625 -0.0545,-0.0545 -0.0813,0.0022 -0.125,0.03125 -0.0509,0.0345 -0.0999,0.07385 -0.15625,0.09375 -0.12545,0.0473 -0.21433,0.04295 -0.3125,0.09375 -0.0909,0.0473 -0.10353,0.12605 -0.15625,0.21875 -0.0418,0.0764 -0.12387,0.18386 -0.1875,0.1875 -0.0764,0.005 -0.14966,-0.09593 -0.21875,-0.125 -0.20907,-0.0909 -0.32729,0.0607 -0.5,0.0625 -0.15999,0.002 -0.38227,-0.25538 -0.375,-0.40625 0.005,-0.0927 0.0516,-0.22925 0.0625,-0.34375 0.009,-0.0909 0.0921,-0.16639 0.0937,-0.25 0.002,-0.11087 -0.17728,-0.20602 -0.25,-0.21875 -0.1709,-0.0309 -0.39922,0.0764 -0.59375,0 -0.0364,-0.0618 0.0719,-0.09626 0.0937,-0.15625 0.0127,-0.0345 -0.0127,-0.05555 0,-0.09375 0.0218,-0.0582 0.0977,-0.09445 0.125,-0.15625 0.02,-0.0473 0.0112,-0.12933 0.0312,-0.1875 0.0236,-0.0655 0.0882,-0.10899 0.0937,-0.15625 0.007,-0.0618 -0.0447,-0.14751 -0.0937,-0.1875 -0.1509,0.009 -0.25648,0.0229 -0.34375,0.0625 -0.19634,0.0891 -0.14558,0.34446 -0.34375,0.40625 -0.0673,0.0218 -0.17364,0.0498 -0.25,0.0625 0.12932,-0.654274 0.33096,-1.280046 0.59375,-1.875 0.0691,0.0127 0.12751,0.057 0.1875,0.0625 0.16726,0.0127 0.17432,-0.1148 0.3125,-0.1875 0.14181,0.02 0.21467,-0.0145 0.34375,0 0.0873,0.009 0.21217,0.11955 0.28125,0.125 0.0582,0.002 0.0704,-0.0716 0.125,-0.0625 0.0545,0.009 0.14716,0.12206 0.15625,0.1875 0.009,0.0818 -0.055,0.15912 -0.0312,0.25 0.0855,0.0873 0.25319,0.13661 0.375,0.1875 0.08,-0.0655 0.0127,-0.21798 0,-0.3125 -0.002,-0.0418 0.005,-0.08676 0,-0.125 -0.009,-0.0654 -0.0312,-0.13116 -0.0312,-0.1875 0,-0.25991 0.20047,-0.36696 0.375,-0.46875 0.0745,-0.0436 0.1533,-0.12353 0.21875,-0.15625 0.0927,-0.0455 0.14239,-0.05015 0.21875,-0.09375 0.13816,-0.0782 0.26773,-0.16093 0.375,-0.25 0.0491,-0.11813 -0.005,-0.25868 0,-0.375 0.0491,-0.0309 0.0723,0.005 0.125,0 0.0836,-0.0182 0.10897,-0.14025 0.15625,-0.1875 0.0273,-0.0273 0.12349,-0.0353 0.15625,-0.0625 0.0836,-0.0655 0.0835,-0.15841 0.15625,-0.1875 0.0255,-0.009 0.0849,-0.02035 0.125,-0.03125 0.0546,-0.0145 0.13149,-0.06295 0.21875,-0.09375 0.0564,-0.02 0.19693,-0.0095 0.21875,-0.03125 0.0273,-0.0273 -0.007,-0.14569 0,-0.1875 0.0436,-0.20538 0.34763,-0.21217 0.53125,-0.28125 0.12726,-0.0491 0.26444,-0.15227 0.40625,-0.125 -0.0273,0.0981 -0.14864,0.06934 -0.125,0.1875 0.0309,0.1654 0.22307,-0.0389 0.28125,-0.0625 0.1109,-0.0473 0.3233,-0.07226 0.46875,-0.125 0.12726,-0.0454 0.33873,-0.13403 0.21875,-0.28125 -0.1,-0.007 -0.13149,0.08864 -0.21875,0.125 -0.06,0.009 -0.0741,-0.02765 -0.125,-0.03125 -0.0491,-0.002 -0.0759,0.04035 -0.125,0.03125 -0.0491,-0.009 -0.11773,-0.09809 -0.125,-0.15625 -0.02,-0.15267 0.15695,-0.19981 0.21875,-0.3125 -0.0418,-0.13814 -0.2274,-0.008 -0.34375,-0.0625 0.0127,-0.0818 0.0599,-0.17113 0.15625,-0.1875 0.0782,-0.0127 0.26523,0.0247 0.3125,0.0625 0.0273,0.0236 -0.0105,0.08675 0.0312,0.125 0.0473,0.0418 0.12569,0.009 0.1875,0 0.0218,-0.1036 -0.14318,-0.05775 -0.125,-0.125 0.12362,-0.08 0.3491,-0.0425 0.5,-0.0625 0.0873,-0.0127 0.17182,-0.08317 0.25,-0.125 0.0727,-0.0418 0.14239,-0.10036 0.21875,-0.03125 0.0218,0.0745 -0.0521,0.11808 -0.0937,0.15625 -0.13999,0.12359 -0.26592,0.26267 -0.375,0.40625 0.0673,0.0655 0.16853,0.01855 0.28125,0.03125 0.0436,0.005 0.11079,0.02405 0.15625,0.03125 0.0546,0.009 0.11261,-0.009 0.15625,0 0.0764,0.0182 0.0799,0.125 0.15625,0.125 0.12363,0 0.13345,-0.10389 0.0625,-0.1875 0.0218,-0.0855 0.0623,-0.15876 0.0312,-0.21875 -0.0564,-0.11269 -0.27034,0.01854 -0.28125,-0.125 -0.007,-0.0909 0.0923,-0.11842 0.125,-0.1875 -0.0145,-0.17448 0.14318,-0.18562 0.125,-0.34375 -0.009,-0.0655 -0.0795,-0.06326 -0.125,-0.125 -0.0236,-0.0327 -0.0353,-0.10137 -0.0625,-0.125 -0.0945,-0.08 -0.27034,-0.06606 -0.28125,-0.21875 -0.005,-0.0909 0.0127,-0.15186 0,-0.25 -0.0127,-0.0927 -0.10754,-0.35682 -0.1875,-0.375 -0.10181,-0.0218 -0.15944,0.16241 -0.28125,0.21875 -0.0654,0.0309 -0.18274,0.04405 -0.25,0.03125 -0.0436,-0.009 -0.11954,-0.04145 -0.125,-0.125 -0.005,-0.04815 0.0111,-0.06525 0.0312,-0.09375 0.005,-0.0067 -0.005,-0.02419 0,-0.03125 0.791,-0.227329 1.6359,-0.34375 2.5,-0.34375 z m -3.71875,0.8125 c -0.0887,0.284111 -0.34553,0.446303 -0.6875,0.4375 -0.0836,0.08 -0.0483,0.23287 -0.0937,0.34375 -0.0382,0.0927 -0.15729,0.16353 -0.25,0.15625 -0.0673,-0.005 -0.1875,-0.09264 -0.1875,-0.15625 0,-0.05213 0.0504,-0.111023 0.0625,-0.15625 0.36805,-0.23797 0.75388,-0.441922 1.15625,-0.625 z m 7.65625,0.3125 c -0.0335,0.006 -0.0643,0.01395 -0.0937,0.03125 -0.0691,0.0418 -0.0723,0.10501 -0.125,0.125 -0.0745,0.0273 -0.17659,0.02655 -0.1875,0.09375 -0.009,0.0564 0.0644,0.07412 0.0625,0.125 -0.0273,0.0673 -0.0791,0.0744 -0.0937,0.15625 0.0927,0.15086 0.32297,0.0016 0.4375,-0.03125 0.0509,-0.0145 0.0977,0.0084 0.125,-0.03125 0.0309,-0.0491 0.008,-0.14968 0.0312,-0.21875 0.0255,-0.0764 0.10285,-0.05776 0.0937,-0.125 -0.007,-0.0673 -0.13728,-0.1359 -0.25,-0.125 z m -9.90625,1.15625 c 0.0667,0.08046 0.12247,0.197346 0,0.25 -0.0182,0.009 -0.23762,0.04035 -0.28125,0.03125 -0.0135,-0.0019 -0.0191,-0.02281 -0.0312,-0.03125 0.0956,-0.09283 0.2129,-0.161456 0.3125,-0.25 z m 0.25,0.3125 c 0.0436,0.002 0.0741,0.09015 0.125,0.09375 0.0491,0.004 0.12711,-0.04035 0.15625,-0.03125 0.0764,0.02 0.10401,0.1624 0.0312,0.21875 -0.06,0.007 -0.0814,-0.0716 -0.125,-0.0625 -0.12363,0.0218 -0.15728,0.25727 -0.25,0.25 -0.0873,-0.009 -0.15163,-0.18638 -0.0625,-0.25 0.002,-0.0546 -0.035,-0.07045 -0.0312,-0.125 0.0273,-0.0345 0.0835,-0.09915 0.15625,-0.09375 z m -0.40625,0.0625 c 0.0255,0 0.0221,-0.0109 0.0312,0 -0.0127,0.0963 -0.0505,0.11081 -0.125,0.15625 -0.12908,0.0782 -0.20818,0.17653 -0.25,0.34375 -0.0127,0.0491 -0.15694,0.20021 -0.21875,0.1875 -0.14363,-0.0309 0.061,-0.30195 0.0937,-0.34375 0.0364,-0.0455 0.0832,-0.07405 0.125,-0.125 0.0418,-0.0509 0.0538,-0.15842 0.0937,-0.1875 0.0436,-0.0309 0.17365,-0.03495 0.25,-0.03125 z m 12.3125,0.25 c 0.14362,-0.009 0.2158,0.16275 0.28125,0.25 0.0545,0.0709 0.2234,0.16967 0.3125,0.21875 0.0509,0.0273 0.0999,0.06835 0.15625,0.09375 0.0591,0.02635 0.14898,0.0609 0.21875,0.125 0.0698,0.0641 0.12227,0.16059 0.125,0.21875 0.002,0.0582 -0.0404,0.10172 -0.0312,0.15625 0.063,0.01025 0.0957,-0.05385 0.125,-0.125 0.23564,0.336128 0.43632,0.694842 0.625,1.0625 -0.0383,0.02371 -0.0548,0.04691 -0.0625,0.09375 -0.0182,0.10178 0.0589,0.23183 -0.0937,0.25 -0.0963,0.0127 -0.21104,-0.09596 -0.34375,-0.125 -0.0545,-0.0127 -0.14387,0.0145 -0.1875,0 -0.1,-0.0345 -0.0708,-0.15877 -0.15625,-0.21875 -0.0491,-0.0346 -0.17182,-0.08475 -0.25,-0.09375 -0.0491,-0.005 -0.0741,0.007 -0.125,0 -0.0618,-0.007 -0.16785,-3.5e-4 -0.21875,-0.03125 -0.0491,-0.0309 -0.17477,-0.08316 -0.1875,-0.125 -0.02,-0.0673 0.15262,-0.1624 0.15625,-0.21875 0.004,-0.0436 -0.0534,-0.05957 -0.0625,-0.125 -0.007,-0.04 0.009,-0.09954 0,-0.125 -0.0127,-0.0473 -0.0817,-0.09195 -0.15625,-0.09375 -0.0655,0 -0.13114,0.03125 -0.1875,0.03125 -0.08,0.002 -0.24376,-0.04035 -0.34375,-0.03125 -0.06,0.005 -0.0999,0.02765 -0.15625,0.03125 -0.15817,0.0127 -0.25137,-0.009 -0.375,0 -0.0891,0.005 -0.26012,0.05565 -0.34375,0.09375 -0.0418,0.02 -0.0704,0.06655 -0.125,0.09375 -0.0254,0.0127 -0.061,0.01675 -0.0937,0.03125 -0.0509,0.0236 -0.13841,0.08105 -0.1875,0.09375 -0.0709,0.0182 -0.15217,-0.005 -0.28125,0 -0.0927,0.005 -0.24818,-0.01416 -0.25,-0.125 -0.002,-0.16903 0.30877,-0.09596 0.46875,-0.125 0.06,-0.0127 0.0835,-0.08323 0.15625,-0.125 0.0346,-0.02 0.061,-0.0407 0.0937,-0.0625 0.0545,-0.0382 0.14716,-0.11262 0.15625,-0.15625 0.007,-0.04 -0.0368,-0.09597 -0.0312,-0.125 0.007,-0.0382 0.0759,-0.07593 0.125,-0.125 0.0764,-0.0764 0.12421,-0.16968 0.21875,-0.21875 0.0636,-0.0345 0.18966,-0.04295 0.21875,-0.09375 0.007,-0.0582 -0.002,-0.07226 0,-0.125 0.04,-0.0364 0.0298,-0.0553 0.0625,-0.0625 0.0982,-0.0218 0.19797,0.03675 0.3125,0.03125 0.0491,-0.002 0.10353,0.0036 0.15625,-0.03125 0.0436,-0.0291 0.0814,-0.07195 0.125,-0.09375 0.0473,-0.0255 0.098,-0.09015 0.15625,-0.09375 z m -11.46875,0.09375 c 0.0241,-0.0038 0.0646,0.0027 0.0937,0 0.0418,-0.002 0.0795,0 0.125,0 0.0455,0 0.10682,-0.0182 0.125,0 -0.0291,0.11996 -0.31171,0.07495 -0.40625,0.03125 0.002,-0.02275 0.0384,-0.02741 0.0625,-0.03125 z m -0.34375,0.21875 c 0.0309,0 0.061,-0.0127 0.0937,0 -0.0836,0.0709 -0.1983,0.11081 -0.34375,0.15625 -0.0691,0.0218 -0.17477,0.04505 -0.1875,-0.03125 -0.0146,-0.0945 0.0632,-0.08475 0.125,-0.09375 0.08,-0.009 0.21978,-0.02945 0.3125,-0.03125 z m 11.84375,0 c -0.06,0.02 -0.0891,0.1399 0,0.15625 0.0418,-0.0254 0.0422,-0.0799 0.0312,-0.15625 -0.0236,-0.0254 -0.0131,-0.007 -0.0312,0 z m -0.0312,0.25 c -0.0291,0.009 -0.063,-0.0016 -0.0937,0.03125 0.002,0.10178 0.02,0.16094 0,0.25 0.0582,0.11269 0.18967,0.04505 0.21875,-0.03125 0.0346,-0.18903 -0.0377,-0.27363 -0.125,-0.25 z m 0.78125,0.5 c -0.08,-0.004 -0.14023,0.0247 -0.1875,0.0625 0.0673,0.10906 0.19285,0.12898 0.34375,0.15625 0.0545,-0.04 0.0371,-0.14968 0.0625,-0.21875 -0.0655,0 -0.10751,0.004 -0.1875,0 z m -15.875,3.84375 c 0.0639,0.08137 0.1329,0.176267 0.21875,0.21875 0.0455,0.0236 0.0981,0.01855 0.15625,0.03125 0.0473,0.009 0.0796,0.048 0.125,0.0625 0.0964,0.0327 0.23615,0.028 0.3125,0.0625 0.11636,0.0509 0.18125,0.25433 0.28125,0.3125 0.005,0.0582 -0.0182,0.11263 0,0.15625 0.0473,0.0636 0.14238,0.08324 0.21875,0.125 0.0927,0.0509 0.13149,0.17876 0.21875,0.21875 0.0309,0.0127 0.0777,-0.0145 0.125,0 0.11999,0.0364 0.14637,0.21839 0.25,0.1875 0.0673,-0.02 0.0828,-0.12207 0.0937,-0.1875 0.0455,-0.0491 0.0853,-0.125 0.15625,-0.125 0.11271,-0.002 0.14568,0.13914 0.1875,0.25 0.0236,0.0618 0.0774,0.12207 0.0937,0.1875 0.0273,0.11269 0.0236,0.43275 0,0.5 -0.0291,0.0836 -0.14966,0.12787 -0.21875,0.21875 -0.0327,0.0436 -0.0684,0.09596 -0.0937,0.125 -0.0436,0.0545 -0.0922,0.07596 -0.125,0.125 -0.0182,0.0273 -0.0149,0.08684 -0.0312,0.125 -0.0546,0.11632 -0.13923,0.20379 -0.0937,0.34375 0.0182,0.0564 0.0937,0.12026 0.0937,0.1875 0,0.08 -0.17477,0.10026 -0.1875,0.1875 -0.009,0.0636 0.0738,0.19582 0.0937,0.28125 0.0145,0.0636 0.11807,0.11444 0.15625,0.15625 0.0636,0.0709 0.12932,0.15912 0.1875,0.25 0.11453,0.1763 0.16855,0.38983 0.28125,0.5625 0.06,0.0891 0.17875,0.15549 0.21875,0.25 0.02,0.0473 -0.0182,0.14389 0,0.1875 0.0654,0.14723 0.38399,0.3023 0.53125,0.375 0.0691,0.0346 0.12388,0.05735 0.1875,0.09375 0.0964,0.0546 0.29467,0.16458 0.34375,0.25 0.0436,0.0764 0.0719,0.25323 0.0937,0.375 0.0273,0.15995 -0.007,0.29607 0,0.46875 0.005,0.0945 0.0312,0.15548 0.0312,0.25 0,0.0327 0.002,0.09227 0,0.125 -0.002,0.11269 0.009,0.22925 0,0.34375 -0.005,0.0618 -0.004,0.13479 0,0.1875 0.005,0.0564 0.0589,0.07594 0.0625,0.125 0.004,0.0527 -0.068,0.11445 -0.0625,0.15625 0.0127,0.11451 0.13443,0.20708 0.15625,0.3125 0.0182,0.0836 0.0421,0.27503 0.0312,0.375 -0.007,0.0527 -0.024,0.12934 -0.0312,0.1875 -0.005,0.0455 0.007,0.08323 0,0.125 -2.49171,-1.600536 -4.15625,-4.38105 -4.15625,-7.5625 0,-0.407876 0.0412,-0.794005 0.0937,-1.1875 z m 3.4375,0.90625 c 0.0873,-0.04 0.0709,0.11409 0,0.125 -0.0673,0.009 -0.0654,-0.09405 0,-0.125 z"
     class="ColorScheme-Background"
     id="path12" />
</svg>
