<?xml version="1.0" encoding="UTF-8" standalone="no"?>
<svg
   xmlns:dc="http://purl.org/dc/elements/1.1/"
   xmlns:cc="http://creativecommons.org/ns#"
   xmlns:rdf="http://www.w3.org/1999/02/22-rdf-syntax-ns#"
   xmlns:svg="http://www.w3.org/2000/svg"
   xmlns="http://www.w3.org/2000/svg"
   xmlns:sodipodi="http://sodipodi.sourceforge.net/DTD/sodipodi-0.dtd"
   xmlns:inkscape="http://www.inkscape.org/namespaces/inkscape"
   inkscape:version="1.0.1 (3bc2e813f5, 2020-09-07)"
   sodipodi:docname="folder-openSUSE.svg"
   id="svg12"
   version="1.1"
   viewBox="0 0 64 64">
  <metadata
     id="metadata16">
    <rdf:RDF>
      <cc:Work
         rdf:about="">
        <dc:format>image/svg+xml</dc:format>
        <dc:type
           rdf:resource="http://purl.org/dc/dcmitype/StillImage" />
        <dc:title />
      </cc:Work>
    </rdf:RDF>
  </metadata>
  <sodipodi:namedview
     inkscape:document-rotation="0"
     inkscape:current-layer="svg12"
     inkscape:window-maximized="1"
     inkscape:window-y="0"
     inkscape:window-x="0"
     inkscape:cy="33.956387"
     inkscape:cx="-34.055691"
     inkscape:zoom="5.2609472"
     showgrid="false"
     id="namedview14"
     inkscape:window-height="1007"
     inkscape:window-width="1920"
     inkscape:pageshadow="2"
     inkscape:pageopacity="0"
     guidetolerance="10"
     gridtolerance="10"
     objecttolerance="10"
     borderopacity="1"
     bordercolor="#666666"
     pagecolor="#ffffff" />
  <defs
     id="defs3051">
    <style
       id="current-color-scheme"
       type="text/css">
      .ColorScheme-Text {
        color:#31363b;
      }
      .ColorScheme-Background {
        color:#eff0f1;
      }
      .ColorScheme-Highlight {
        color:#3daee9;
      }
      .ColorScheme-ViewText {
        color:#31363b;
      }
      .ColorScheme-ViewBackground {
        color:#fcfcfc;
      }
      .ColorScheme-ViewHover {
        color:#93cee9;
      }
      .ColorScheme-ViewFocus{
        color:#3daee9;
      }
      .ColorScheme-ButtonText {
        color:#31363b;
      }
      .ColorScheme-ButtonBackground {
        color:#eff0f1;
      }
      .ColorScheme-ButtonHover {
        color:#93cee9;
      }
      .ColorScheme-ButtonFocus{
        color:#3daee9;
      }
      </style>
  </defs>
  <g
     id="g8"
     transform="matrix(0.11428571,0,0,0.11428571,3.7762141,4.2052238)">
    <path
       d="M 439.5,84 H 234.729 L 198.09,45.279 C 182.464,28.269 164.607,20 143.5,20 h -88 C 24.897,20 0,44.897 0,75.5 v 344 C 0,450.103 24.897,475 55.5,475 h 384 c 30.603,0 55.5,-24.897 55.5,-55.5 v -280 C 495,108.897 470.103,84 439.5,84 Z M 480,419.5 c 0,22.332 -18.168,40.5 -40.5,40.5 H 55.5 C 33.168,460 15,441.832 15,419.5 v -232 C 15,165.168 33.168,147 55.5,147 h 384 c 22.332,0 40.5,18.168 40.5,40.5 z M 439.5,132 H 55.5 C 39.536,132 25.135,138.784 15,149.61 V 75.5 C 15,53.168 33.168,35 55.5,35 h 88 c 16.92,0 30.768,6.503 43.579,20.465 0.026,0.028 0.052,0.057 0.079,0.084 l 38.895,41.105 C 227.469,98.151 229.439,99 231.5,99 h 208 c 22.332,0 40.5,18.168 40.5,40.5 v 10.11 C 469.865,138.784 455.464,132 439.5,132 Z"
       id="path2"
       style="fill:#48486a;fill-opacity:1" />
    <path
       d="m 431.5,180 h -104 c -4.142,0 -7.5,3.357 -7.5,7.5 0,4.143 3.358,7.5 7.5,7.5 h 104 c 4.142,0 7.5,-3.357 7.5,-7.5 0,-4.143 -3.358,-7.5 -7.5,-7.5 z"
       id="path4-3"
       style="fill:#4d7f7f;fill-opacity:1" />
    <path
       d="m 431.5,220 h -104 c -4.142,0 -7.5,3.357 -7.5,7.5 0,4.143 3.358,7.5 7.5,7.5 h 104 c 4.142,0 7.5,-3.357 7.5,-7.5 0,-4.143 -3.358,-7.5 -7.5,-7.5 z"
       id="path6-6"
       style="fill:#4d7f7f;fill-opacity:1" />
  </g>
  <path
     style="color:#4d4d4d;font-size:20.4884px;font-family:TrebuchetMS-Bold;fill:#4d7f7f;fill-opacity:1;fill-rule:evenodd;stroke:none;stroke-width:0.114539;stroke-miterlimit:4"
     d="m 16.628,36.064 c -4.417939,0 -8,3.58165 -8,8 0,4.418349 3.58206,8 8,8 4.417942,0 7.999999,-3.581651 8,-8 0,-4.418349 -3.582058,-8 -8,-8 z m 0.03829,1.10792 c 3.806614,0 6.895026,3.085874 6.895026,6.89208 0,3.806612 -3.088818,6.89208 -6.895026,6.89208 -2.055423,0 -3.899811,-0.900839 -5.162427,-2.327804 0.519156,-0.402932 1.387739,-0.30463 2.457453,-0.182694 0.512632,0.05832 1.09702,0.125032 1.700187,0.138492 1.68512,0.0097 3.498252,-0.297762 4.617314,-0.786743 0.723473,-0.317287 1.186686,-0.526233 1.476241,-0.789684 0.104405,-0.08564 0.159227,-0.228719 0.215101,-0.377165 l 0.03829,-0.100185 c 0.04687,-0.119899 0.114206,-0.3779 0.144381,-0.518596 0.01345,-0.06159 0.02007,-0.12781 -0.02359,-0.162067 l -0.156168,0.02946 c -0.49102,0.294449 -1.717789,0.855248 -2.867036,0.878084 -1.424112,0.02978 -4.294396,-1.433651 -4.593737,-1.588216 l -0.02946,-0.03538 c -0.07175,-0.171285 -0.501321,-1.191007 -0.592268,-1.405523 2.06603,1.360503 3.778941,2.113525 5.091721,2.230577 1.459591,0.129681 2.598136,-0.667204 3.085073,-1.00774 0.09505,-0.06483 0.167656,-0.115694 0.197426,-0.126703 l 0.03239,-0.05307 c -0.08072,-0.513009 -0.84652,-2.995626 -1.423182,-3.59186 -0.159864,-0.16354 -0.286971,-0.322691 -0.54512,-0.474402 -2.087231,-1.216538 -7.043086,-1.949214 -7.275134,-1.983066 l -0.03829,0.01177 -0.01473,0.0324 c 0,0 -0.0186,1.029087 -0.0206,1.143277 -0.170064,-0.05629 -0.697386,-0.228923 -1.452679,-0.436093 0.985492,-1.219392 2.49575,-2.301291 5.138862,-2.301291 z m 1.820996,3.647881 c 0.03517,-5.26e-4 0.07066,-0.0013 0.106079,0 1.169221,0.042 2.087848,1.026799 2.047879,2.195211 -0.0208,0.565243 -0.259105,1.087499 -0.671823,1.473296 -0.41394,0.387839 -0.951938,0.589991 -1.520441,0.571643 -1.167191,-0.04362 -2.085812,-1.028435 -2.047884,-2.195213 0.02,-0.566058 0.259609,-1.091666 0.674768,-1.476243 0.387686,-0.3636 0.883877,-0.560777 1.411422,-0.568694 z m -0.05598,0.624678 c -0.340523,0.02069 -0.661867,0.158969 -0.913441,0.394844 -0.286701,0.269162 -0.455867,0.633592 -0.468506,1.028361 -0.02691,0.815645 0.611315,1.502048 1.426147,1.532228 0.395994,0.01225 0.771629,-0.1265 1.060775,-0.394841 0.288326,-0.270389 0.456277,-0.638167 0.468506,-1.03131 0.02734,-0.816868 -0.613862,-1.500735 -1.429093,-1.529282 -0.04934,-0.0021 -0.09573,-0.0028 -0.144388,0 z m 0.388953,0.739595 c 0.362146,0 0.654144,0.196795 0.654144,0.439042 0,0.241021 -0.291997,0.439043 -0.654144,0.439043 -0.363371,0 -0.657094,-0.198431 -0.657094,-0.439043 0,-0.242246 0.293723,-0.439042 0.657094,-0.439042 z"
     id="path2445"
     class="ColorScheme-Text"
     inkscape:connector-curvature="0" />
</svg>
