<?xml version="1.0" encoding="UTF-8" standalone="no"?>
<svg
   xmlns:dc="http://purl.org/dc/elements/1.1/"
   xmlns:cc="http://creativecommons.org/ns#"
   xmlns:rdf="http://www.w3.org/1999/02/22-rdf-syntax-ns#"
   xmlns:svg="http://www.w3.org/2000/svg"
   xmlns="http://www.w3.org/2000/svg"
   xmlns:sodipodi="http://sodipodi.sourceforge.net/DTD/sodipodi-0.dtd"
   xmlns:inkscape="http://www.inkscape.org/namespaces/inkscape"
   inkscape:version="1.0.1 (3bc2e813f5, 2020-09-07)"
   sodipodi:docname="folder-KDE.svg"
   id="svg12"
   version="1.1"
   viewBox="0 0 64 64">
  <metadata
     id="metadata16">
    <rdf:RDF>
      <cc:Work
         rdf:about="">
        <dc:format>image/svg+xml</dc:format>
        <dc:type
           rdf:resource="http://purl.org/dc/dcmitype/StillImage" />
        <dc:title />
      </cc:Work>
    </rdf:RDF>
  </metadata>
  <sodipodi:namedview
     inkscape:document-rotation="0"
     inkscape:current-layer="svg12"
     inkscape:window-maximized="1"
     inkscape:window-y="0"
     inkscape:window-x="0"
     inkscape:cy="33.956387"
     inkscape:cx="-34.055691"
     inkscape:zoom="5.2609472"
     showgrid="false"
     id="namedview14"
     inkscape:window-height="1007"
     inkscape:window-width="1920"
     inkscape:pageshadow="2"
     inkscape:pageopacity="0"
     guidetolerance="10"
     gridtolerance="10"
     objecttolerance="10"
     borderopacity="1"
     bordercolor="#666666"
     pagecolor="#ffffff" />
  <defs
     id="defs3051">
    <style
       id="current-color-scheme"
       type="text/css">
      .ColorScheme-Text {
        color:#31363b;
      }
      .ColorScheme-Background {
        color:#eff0f1;
      }
      .ColorScheme-Highlight {
        color:#3daee9;
      }
      .ColorScheme-ViewText {
        color:#31363b;
      }
      .ColorScheme-ViewBackground {
        color:#fcfcfc;
      }
      .ColorScheme-ViewHover {
        color:#93cee9;
      }
      .ColorScheme-ViewFocus{
        color:#3daee9;
      }
      .ColorScheme-ButtonText {
        color:#31363b;
      }
      .ColorScheme-ButtonBackground {
        color:#eff0f1;
      }
      .ColorScheme-ButtonHover {
        color:#93cee9;
      }
      .ColorScheme-ButtonFocus{
        color:#3daee9;
      }
      </style>
  </defs>
  <g
     id="g8"
     transform="matrix(0.11428571,0,0,0.11428571,3.7762141,4.2052238)">
    <path
       d="M 439.5,84 H 234.729 L 198.09,45.279 C 182.464,28.269 164.607,20 143.5,20 h -88 C 24.897,20 0,44.897 0,75.5 v 344 C 0,450.103 24.897,475 55.5,475 h 384 c 30.603,0 55.5,-24.897 55.5,-55.5 v -280 C 495,108.897 470.103,84 439.5,84 Z M 480,419.5 c 0,22.332 -18.168,40.5 -40.5,40.5 H 55.5 C 33.168,460 15,441.832 15,419.5 v -232 C 15,165.168 33.168,147 55.5,147 h 384 c 22.332,0 40.5,18.168 40.5,40.5 z M 439.5,132 H 55.5 C 39.536,132 25.135,138.784 15,149.61 V 75.5 C 15,53.168 33.168,35 55.5,35 h 88 c 16.92,0 30.768,6.503 43.579,20.465 0.026,0.028 0.052,0.057 0.079,0.084 l 38.895,41.105 C 227.469,98.151 229.439,99 231.5,99 h 208 c 22.332,0 40.5,18.168 40.5,40.5 v 10.11 C 469.865,138.784 455.464,132 439.5,132 Z"
       id="path2"
       style="fill:#48486a;fill-opacity:1" />
    <path
       d="m 431.5,180 h -104 c -4.142,0 -7.5,3.357 -7.5,7.5 0,4.143 3.358,7.5 7.5,7.5 h 104 c 4.142,0 7.5,-3.357 7.5,-7.5 0,-4.143 -3.358,-7.5 -7.5,-7.5 z"
       id="path4-3"
       style="fill:#4d7f7f;fill-opacity:1" />
    <path
       d="m 431.5,220 h -104 c -4.142,0 -7.5,3.357 -7.5,7.5 0,4.143 3.358,7.5 7.5,7.5 h 104 c 4.142,0 7.5,-3.357 7.5,-7.5 0,-4.143 -3.358,-7.5 -7.5,-7.5 z"
       id="path6-6"
       style="fill:#4d7f7f;fill-opacity:1" />
  </g>
  <path
     style="color:#d3dae3;fill:#4d7f7f;fill-opacity:1;stroke-width:0.761901"
     d="m 18.844719,37.467568 -3.047614,0.461308 V 48.95268 l 3.047614,-0.818453 v -4.258923 l 3.047618,5.020824 3.047614,-1.142852 -3.809521,-4.571428 3.811014,-4.950887 -2.956848,-0.763393 -3.139877,4.997022 z m -6.20535,2.989579 c -0.07209,0 -0.144145,0.02806 -0.19941,0.08336 l -1.197916,1.197916 c -0.110522,0.110523 -0.08394,0.268422 0,0.400291 l 1.239585,1.946434 c -0.09183,0.190641 -0.171371,0.386977 -0.238094,0.587795 -0.0029,0.0086 -0.0078,0.01664 -0.01038,0.02529 l -2.2485071,0.5 c -0.152586,0.03392 -0.28274,0.126433 -0.28274,0.282738 v 0.748514 0.748511 c 0,0.156307 0.130154,0.248834 0.28274,0.282742 l 2.2485071,0.499993 c 0.005,0.01477 0.01279,0.02844 0.01787,0.04314 0.06494,0.19508 0.141984,0.385921 0.230653,0.571428 l -1.239584,1.944942 c -0.08393,0.131869 -0.110524,0.289769 0,0.400294 l 1.197918,1.197915 c 0.110528,0.11053 0.288278,0.11053 0.398809,0 l 1.943454,-1.238097 c 0.191054,0.09292 0.387887,0.173438 0.589284,0.241073 0.01322,0.0046 0.0254,0.01187 0.03869,0.01638 l 0.49851,2.247019 c 0,0.156312 0.126431,0.282741 0.28274,0.282741 h 1.691959 c 0.156308,0 0.248835,-0.130155 0.28274,-0.282741 l 0.498511,-2.315471 c 0.229033,-0.08611 0.451364,-0.189065 0.66518,-0.308037 l 1.897318,1.357148 c 0.11053,0.110522 0.288285,0.110522 0.398807,0 l 1.197914,-1.197916 c 0.110533,-0.11053 0.08394,-0.268423 0,-0.400302 l -0.721719,-1.095235 -0.07592,0.02826 c -0.171616,0.06446 -0.364813,-0.0026 -0.459818,-0.159227 l -0.758929,-1.249997 c -0.632334,1.512528 -2.125665,2.575892 -3.867559,2.575892 -2.314338,0 -4.190475,-1.876141 -4.190475,-4.190479 0,-1.775933 1.106892,-3.290166 2.666666,-3.900292 v -0.834824 l -0.006,0.0268 c -0.01684,0.0059 -0.03235,0.01492 -0.0491,0.02084 -0.198725,0.066 -0.393063,0.144525 -0.581845,0.235121 L 12.83874,40.540503 c -0.05523,-0.05525 -0.127335,-0.08336 -0.199404,-0.08336 z"
     class="ColorScheme-Text"
     id="path10-7" />
</svg>
