<?xml version="1.0" encoding="UTF-8" standalone="no"?>
<svg
   xmlns:dc="http://purl.org/dc/elements/1.1/"
   xmlns:cc="http://creativecommons.org/ns#"
   xmlns:rdf="http://www.w3.org/1999/02/22-rdf-syntax-ns#"
   xmlns:svg="http://www.w3.org/2000/svg"
   xmlns="http://www.w3.org/2000/svg"
   xmlns:xlink="http://www.w3.org/1999/xlink"
   xmlns:sodipodi="http://sodipodi.sourceforge.net/DTD/sodipodi-0.dtd"
   xmlns:inkscape="http://www.inkscape.org/namespaces/inkscape"
   height="24"
   width="24"
   version="1.1"
   id="svg11"
   sodipodi:docname="folder-games.svg"
   inkscape:version="1.0.1 (3bc2e813f5, 2020-09-07)">
  <metadata
     id="metadata17">
    <rdf:RDF>
      <cc:Work
         rdf:about="">
        <dc:format>image/svg+xml</dc:format>
        <dc:type
           rdf:resource="http://purl.org/dc/dcmitype/StillImage" />
      </cc:Work>
    </rdf:RDF>
  </metadata>
  <defs
     id="defs15">
    <linearGradient
       inkscape:collect="always"
       id="linearGradient846">
      <stop
         style="stop-color:#ff6600;stop-opacity:1"
         offset="0"
         id="stop842" />
      <stop
         style="stop-color:#e5b800;stop-opacity:1"
         offset="1"
         id="stop844" />
    </linearGradient>
    <linearGradient
       inkscape:collect="always"
       xlink:href="#linearGradient846"
       id="linearGradient848"
       x1="3"
       y1="11.00034"
       x2="19"
       y2="11.00034"
       gradientUnits="userSpaceOnUse" />
    <linearGradient
       inkscape:collect="always"
       xlink:href="#linearGradient846"
       id="linearGradient856"
       x1="6"
       y1="9.5"
       x2="16.1"
       y2="9.5"
       gradientUnits="userSpaceOnUse" />
  </defs>
  <sodipodi:namedview
     pagecolor="#ffffff"
     bordercolor="#666666"
     borderopacity="1"
     objecttolerance="10"
     gridtolerance="10"
     guidetolerance="10"
     inkscape:pageopacity="0"
     inkscape:pageshadow="2"
     inkscape:window-width="1920"
     inkscape:window-height="1013"
     id="namedview13"
     showgrid="false"
     inkscape:zoom="26.166667"
     inkscape:cx="12"
     inkscape:cy="12"
     inkscape:window-x="0"
     inkscape:window-y="0"
     inkscape:window-maximized="1"
     inkscape:current-layer="svg11" />
  <style
     type="text/css"
     id="current-color-scheme">
    .ColorScheme-Text {
        color:#eff0f1;
    }
    </style>
  <g
     transform="translate(1,1)"
     id="g9">
    <g
       fill="currentColor"
       class="ColorScheme-Text"
       id="g7">
      <path
         d="m7 8v1h-1v1h1v1h1v-1h1v-1h-1v-1zm7.5 1.9a.6.6 0 0 0 -.6.6.6.6 0 0 0 .6.6.6.6 0 0 0 .6-.6.6.6 0 0 0 -.6-.6zm1-1a.6.6 0 0 0 -.6.6.6.6 0 0 0 .6.6.6.6 0 0 0 .6-.6.6.6 0 0 0 -.6-.6zm-2 0a.6.6 0 0 0 -.6.6.6.6 0 0 0 .6.6.6.6 0 0 0 .6-.6.6.6 0 0 0 -.6-.6zm1-1a.6.6 0 0 0 -.6.6.6.6 0 0 0 .6.6.6.6 0 0 0 .6-.6.6.6 0 0 0 -.6-.6z"
         id="path3"
         style="fill-opacity:1.0;fill:url(#linearGradient856)" />
      <path
         d="m6 6c-1.657 0-3 2.239-3 5v3.5a1.5 1.5 0 0 0 2.56 1.06l2.536-2.535a1.5 1.5 0 0 0 2.904-.525 1.5 1.5 0 0 0 2.904.525l2.535 2.536a1.5 1.5 0 0 0 2.561-1.061v-3.5c0-2.761-1.343-5-3-5zm0 1h10c1.105 0 2 1.79 2 4v3.5a.5.5 0 0 1 -.854.354l-2.853-2.854h-1.293v.5a.5.5 0 0 1 -1 0v-.5h-2v.5a.5.5 0 0 1 -1 0v-.5h-1.293l-2.853 2.854a.5.5 0 0 1 -.854-.354v-3.5c0-2.21.895-4 2-4z"
         id="path5"
         style="fill-opacity:1;fill:url(#linearGradient848)" />
    </g>
  </g>
</svg>
