<?xml version="1.0" encoding="UTF-8" standalone="no"?>
<svg
   xmlns:dc="http://purl.org/dc/elements/1.1/"
   xmlns:cc="http://creativecommons.org/ns#"
   xmlns:rdf="http://www.w3.org/1999/02/22-rdf-syntax-ns#"
   xmlns:svg="http://www.w3.org/2000/svg"
   xmlns="http://www.w3.org/2000/svg"
   xmlns:xlink="http://www.w3.org/1999/xlink"
   xmlns:sodipodi="http://sodipodi.sourceforge.net/DTD/sodipodi-0.dtd"
   xmlns:inkscape="http://www.inkscape.org/namespaces/inkscape"
   inkscape:version="1.0.1 (3bc2e813f5, 2020-09-07)"
   sodipodi:docname="folder-cloud.svg"
   id="svg12"
   version="1.1"
   viewBox="0 0 64 64">
  <metadata
     id="metadata16">
    <rdf:RDF>
      <cc:Work
         rdf:about="">
        <dc:format>image/svg+xml</dc:format>
        <dc:type
           rdf:resource="http://purl.org/dc/dcmitype/StillImage" />
        <dc:title />
      </cc:Work>
    </rdf:RDF>
  </metadata>
  <sodipodi:namedview
     inkscape:document-rotation="0"
     inkscape:current-layer="svg12"
     inkscape:window-maximized="1"
     inkscape:window-y="0"
     inkscape:window-x="0"
     inkscape:cy="33.956387"
     inkscape:cx="-34.055691"
     inkscape:zoom="5.2609472"
     showgrid="false"
     id="namedview14"
     inkscape:window-height="1013"
     inkscape:window-width="1920"
     inkscape:pageshadow="2"
     inkscape:pageopacity="0"
     guidetolerance="10"
     gridtolerance="10"
     objecttolerance="10"
     borderopacity="1"
     bordercolor="#666666"
     pagecolor="#ffffff" />
  <defs
     id="defs3051">
    <linearGradient
       inkscape:collect="always"
       id="linearGradient847">
      <stop
         style="stop-color:#c48d05;stop-opacity:1"
         offset="0"
         id="stop842" />
      <stop
         style="stop-color:#004991;stop-opacity:1"
         offset="1"
         id="stop844" />
    </linearGradient>
    <style
       id="current-color-scheme"
       type="text/css">
      .ColorScheme-Text {
        color:#31363b;
      }
      .ColorScheme-Background {
        color:#eff0f1;
      }
      .ColorScheme-Highlight {
        color:#3daee9;
      }
      .ColorScheme-ViewText {
        color:#31363b;
      }
      .ColorScheme-ViewBackground {
        color:#fcfcfc;
      }
      .ColorScheme-ViewHover {
        color:#93cee9;
      }
      .ColorScheme-ViewFocus{
        color:#3daee9;
      }
      .ColorScheme-ButtonText {
        color:#31363b;
      }
      .ColorScheme-ButtonBackground {
        color:#eff0f1;
      }
      .ColorScheme-ButtonHover {
        color:#93cee9;
      }
      .ColorScheme-ButtonFocus{
        color:#3daee9;
      }
      </style>
    <linearGradient
       inkscape:collect="always"
       xlink:href="#linearGradient847"
       id="linearGradient850"
       x1="20.516645"
       y1="41.318077"
       x2="44.516647"
       y2="41.318077"
       gradientUnits="userSpaceOnUse" />
    <linearGradient
       inkscape:collect="always"
       xlink:href="#linearGradient847"
       id="linearGradient846"
       x1="0"
       y1="247.5"
       x2="495"
       y2="247.5"
       gradientUnits="userSpaceOnUse" />
    <linearGradient
       inkscape:collect="always"
       xlink:href="#linearGradient847"
       id="linearGradient860"
       x1="320"
       y1="187.5"
       x2="439"
       y2="187.5"
       gradientUnits="userSpaceOnUse" />
    <linearGradient
       inkscape:collect="always"
       xlink:href="#linearGradient847"
       id="linearGradient868"
       x1="320"
       y1="227.5"
       x2="439"
       y2="227.5"
       gradientUnits="userSpaceOnUse" />
  </defs>
  <g
     id="g8"
     transform="matrix(0.11428571,0,0,0.11428571,3.7762141,4.2052238)">
    <path
       d="M 439.5,84 H 234.729 L 198.09,45.279 C 182.464,28.269 164.607,20 143.5,20 h -88 C 24.897,20 0,44.897 0,75.5 v 344 C 0,450.103 24.897,475 55.5,475 h 384 c 30.603,0 55.5,-24.897 55.5,-55.5 v -280 C 495,108.897 470.103,84 439.5,84 Z M 480,419.5 c 0,22.332 -18.168,40.5 -40.5,40.5 H 55.5 C 33.168,460 15,441.832 15,419.5 v -232 C 15,165.168 33.168,147 55.5,147 h 384 c 22.332,0 40.5,18.168 40.5,40.5 z M 439.5,132 H 55.5 C 39.536,132 25.135,138.784 15,149.61 V 75.5 C 15,53.168 33.168,35 55.5,35 h 88 c 16.92,0 30.768,6.503 43.579,20.465 0.026,0.028 0.052,0.057 0.079,0.084 l 38.895,41.105 C 227.469,98.151 229.439,99 231.5,99 h 208 c 22.332,0 40.5,18.168 40.5,40.5 v 10.11 C 469.865,138.784 455.464,132 439.5,132 Z"
       id="path2"
       style="fill-opacity:1;fill:url(#linearGradient846)" />
    <path
       d="m 431.5,180 h -104 c -4.142,0 -7.5,3.357 -7.5,7.5 0,4.143 3.358,7.5 7.5,7.5 h 104 c 4.142,0 7.5,-3.357 7.5,-7.5 0,-4.143 -3.358,-7.5 -7.5,-7.5 z"
       id="path4-3"
       style="fill:url(#linearGradient860);fill-opacity:1.0" />
    <path
       d="m 431.5,220 h -104 c -4.142,0 -7.5,3.357 -7.5,7.5 0,4.143 3.358,7.5 7.5,7.5 h 104 c 4.142,0 7.5,-3.357 7.5,-7.5 0,-4.143 -3.358,-7.5 -7.5,-7.5 z"
       id="path6-6"
       style="fill:url(#linearGradient868);fill-opacity:1.0" />
  </g>
  <path
     id="path12"
     class="ColorScheme-Background"
     d="m 32.516646,32.318123 a 7,7 0 0 0 -7,7 7,7 0 0 0 0.08008,1.001953 5,5 0 0 0 -0.08008,-0.002 5,5 0 0 0 -5,5 5,5 0 0 0 5,5 h 13 a 6,6 0 0 0 6,-6 6,6 0 0 0 -5.068359,-5.921875 7,7 0 0 0 -6.931641,-6.078125 z m 0,1 a 6,6 0 0 1 0.599609,0.0293 6,6 0 0 1 2.78711,1.019531 6,6 0 0 1 0.002,0 6,6 0 0 1 1.310547,1.220703 6,6 0 0 1 0,0.002 6,6 0 0 1 1.214843,2.732422 6,6 0 0 1 0.08589,0.996044 5,5 0 0 1 0.996094,0.09961 5,5 0 0 1 0.482422,0.123047 5,5 0 0 1 0.002,0 5,5 0 0 1 0.466797,0.171875 5,5 0 0 1 0.002,0 5,5 0 0 1 0.447265,0.216797 5,5 0 0 1 0.0039,0.002 5,5 0 0 1 0.421875,0.259766 5,5 0 0 1 0.0039,0.002 5,5 0 0 1 0.394531,0.300781 5,5 0 0 1 0.002,0.002 5,5 0 0 1 0.363282,0.337891 5,5 0 0 1 0.002,0.002 5,5 0 0 1 0.61914,0.78125 5,5 0 0 1 0.002,0.002 5,5 0 0 1 0.246094,0.431641 5,5 0 0 1 0.002,0.002 5,5 0 0 1 0.203125,0.453125 5,5 0 0 1 0.002,0.002 5,5 0 0 1 0.15625,0.472656 5,5 0 0 1 0,0.002 5,5 0 0 1 0.109375,0.486329 5,5 0 0 1 0,0.002 5,5 0 0 1 0.06055,0.49414 5,5 0 0 1 0.0114,0.353092 5,5 0 0 1 -5,5 h -13 a 4,4 0 0 1 -4,-4 4,4 0 0 1 0.01953,-0.398438 4,4 0 0 1 3.980469,-3.601562 4,4 0 0 1 0.298828,0.01367 4,4 0 0 1 0,0.002 4,4 0 0 1 1.15625,0.261719 6,6 0 0 1 -0.341797,-1.146485 6,6 0 0 1 -0.07422,-0.507812 6,6 0 0 1 -0.01367,-0.115235 6,6 0 0 1 -0.02539,-0.507857 6,6 0 0 1 0.0293,-0.599609 6,6 0 0 1 5.970703,-5.400391 z"
     style="color:#eff0f1;fill:url(#linearGradient850);fill-opacity:1.0;stroke:none" />
</svg>
