<?xml version="1.0" encoding="UTF-8" standalone="no"?>
<svg
   xmlns:dc="http://purl.org/dc/elements/1.1/"
   xmlns:cc="http://creativecommons.org/ns#"
   xmlns:rdf="http://www.w3.org/1999/02/22-rdf-syntax-ns#"
   xmlns:svg="http://www.w3.org/2000/svg"
   xmlns="http://www.w3.org/2000/svg"
   xmlns:xlink="http://www.w3.org/1999/xlink"
   xmlns:sodipodi="http://sodipodi.sourceforge.net/DTD/sodipodi-0.dtd"
   xmlns:inkscape="http://www.inkscape.org/namespaces/inkscape"
   inkscape:version="1.0.1 (3bc2e813f5, 2020-09-07)"
   sodipodi:docname="folder-script.svg"
   id="svg12"
   version="1.1"
   viewBox="0 0 64 64">
  <metadata
     id="metadata16">
    <rdf:RDF>
      <cc:Work
         rdf:about="">
        <dc:format>image/svg+xml</dc:format>
        <dc:type
           rdf:resource="http://purl.org/dc/dcmitype/StillImage" />
        <dc:title />
      </cc:Work>
    </rdf:RDF>
  </metadata>
  <sodipodi:namedview
     inkscape:document-rotation="0"
     inkscape:current-layer="svg12"
     inkscape:window-maximized="1"
     inkscape:window-y="0"
     inkscape:window-x="0"
     inkscape:cy="33.956387"
     inkscape:cx="-34.055691"
     inkscape:zoom="5.2609472"
     showgrid="false"
     id="namedview14"
     inkscape:window-height="1013"
     inkscape:window-width="1920"
     inkscape:pageshadow="2"
     inkscape:pageopacity="0"
     guidetolerance="10"
     gridtolerance="10"
     objecttolerance="10"
     borderopacity="1"
     bordercolor="#666666"
     pagecolor="#ffffff" />
  <defs
     id="defs3051">
    <linearGradient
       inkscape:collect="always"
       id="linearGradient846">
      <stop
         style="stop-color:#5500d4;stop-opacity:1"
         offset="0"
         id="stop842" />
      <stop
         style="stop-color:#0042a6;stop-opacity:1"
         offset="1"
         id="stop844" />
    </linearGradient>
    <linearGradient
       inkscape:collect="always"
       id="linearGradient842">
      <stop
         style="stop-color:#7f2aff;stop-opacity:1"
         offset="0"
         id="stop838" />
      <stop
         style="stop-color:#0066ff;stop-opacity:1"
         offset="1"
         id="stop840" />
    </linearGradient>
    <style
       id="current-color-scheme"
       type="text/css">
      .ColorScheme-Text {
        color:#31363b;
      }
      .ColorScheme-Background {
        color:#eff0f1;
      }
      .ColorScheme-Highlight {
        color:#3daee9;
      }
      .ColorScheme-ViewText {
        color:#31363b;
      }
      .ColorScheme-ViewBackground {
        color:#fcfcfc;
      }
      .ColorScheme-ViewHover {
        color:#93cee9;
      }
      .ColorScheme-ViewFocus{
        color:#3daee9;
      }
      .ColorScheme-ButtonText {
        color:#31363b;
      }
      .ColorScheme-ButtonBackground {
        color:#eff0f1;
      }
      .ColorScheme-ButtonHover {
        color:#93cee9;
      }
      .ColorScheme-ButtonFocus{
        color:#3daee9;
      }
      </style>
    <linearGradient
       inkscape:collect="always"
       xlink:href="#linearGradient846"
       id="linearGradient844"
       x1="0"
       y1="247.5"
       x2="495"
       y2="247.5"
       gradientUnits="userSpaceOnUse" />
    <linearGradient
       inkscape:collect="always"
       xlink:href="#linearGradient846"
       id="linearGradient850"
       x1="320"
       y1="187.5"
       x2="439"
       y2="187.5"
       gradientUnits="userSpaceOnUse" />
    <linearGradient
       inkscape:collect="always"
       xlink:href="#linearGradient842"
       id="linearGradient858"
       x1="320"
       y1="227.5"
       x2="439"
       y2="227.5"
       gradientUnits="userSpaceOnUse" />
    <linearGradient
       inkscape:collect="always"
       xlink:href="#linearGradient846"
       id="linearGradient866"
       x1="26.532022"
       y1="40.214684"
       x2="42.532028"
       y2="40.214684"
       gradientUnits="userSpaceOnUse" />
  </defs>
  <g
     id="g8"
     transform="matrix(0.11428571,0,0,0.11428571,3.7762141,4.2052238)">
    <path
       d="M 439.5,84 H 234.729 L 198.09,45.279 C 182.464,28.269 164.607,20 143.5,20 h -88 C 24.897,20 0,44.897 0,75.5 v 344 C 0,450.103 24.897,475 55.5,475 h 384 c 30.603,0 55.5,-24.897 55.5,-55.5 v -280 C 495,108.897 470.103,84 439.5,84 Z M 480,419.5 c 0,22.332 -18.168,40.5 -40.5,40.5 H 55.5 C 33.168,460 15,441.832 15,419.5 v -232 C 15,165.168 33.168,147 55.5,147 h 384 c 22.332,0 40.5,18.168 40.5,40.5 z M 439.5,132 H 55.5 C 39.536,132 25.135,138.784 15,149.61 V 75.5 C 15,53.168 33.168,35 55.5,35 h 88 c 16.92,0 30.768,6.503 43.579,20.465 0.026,0.028 0.052,0.057 0.079,0.084 l 38.895,41.105 C 227.469,98.151 229.439,99 231.5,99 h 208 c 22.332,0 40.5,18.168 40.5,40.5 v 10.11 C 469.865,138.784 455.464,132 439.5,132 Z"
       id="path2"
       style="fill-opacity:1;fill:url(#linearGradient844)" />
    <path
       d="m 431.5,180 h -104 c -4.142,0 -7.5,3.357 -7.5,7.5 0,4.143 3.358,7.5 7.5,7.5 h 104 c 4.142,0 7.5,-3.357 7.5,-7.5 0,-4.143 -3.358,-7.5 -7.5,-7.5 z"
       id="path4-3"
       style="fill:url(#linearGradient850);fill-opacity:1.0" />
    <path
       d="m 431.5,220 h -104 c -4.142,0 -7.5,3.357 -7.5,7.5 0,4.143 3.358,7.5 7.5,7.5 h 104 c 4.142,0 7.5,-3.357 7.5,-7.5 0,-4.143 -3.358,-7.5 -7.5,-7.5 z"
       id="path6-6"
       style="fill:url(#linearGradient858);fill-opacity:1.0" />
  </g>
  <path
     style="color:#eff0f1;fill:url(#linearGradient866);fill-opacity:1.0;stroke:none"
     d="m 27.239063,32.214683 -0.70704,0.707031 4.29297,4.292968 2,2 -2,2 -4.29297,4.292969 0.70704,0.707031 4.29296,-4.292969 -0.008,-0.0078 2.707035,-2.707031 -2.699235,-2.69923 z m 8.292964,14.999999 v 1 h 7 v -1 z"
     class="ColorScheme-Background"
     id="path12" />
</svg>
