<?xml version="1.0" encoding="UTF-8" standalone="no"?>
<svg
   xmlns:dc="http://purl.org/dc/elements/1.1/"
   xmlns:cc="http://creativecommons.org/ns#"
   xmlns:rdf="http://www.w3.org/1999/02/22-rdf-syntax-ns#"
   xmlns:svg="http://www.w3.org/2000/svg"
   xmlns="http://www.w3.org/2000/svg"
   xmlns:xlink="http://www.w3.org/1999/xlink"
   xmlns:sodipodi="http://sodipodi.sourceforge.net/DTD/sodipodi-0.dtd"
   xmlns:inkscape="http://www.inkscape.org/namespaces/inkscape"
   inkscape:version="1.0.1 (3bc2e813f5, 2020-09-07)"
   sodipodi:docname="folder-openSUSE.svg"
   id="svg12"
   version="1.1"
   viewBox="0 0 64 64">
  <metadata
     id="metadata16">
    <rdf:RDF>
      <cc:Work
         rdf:about="">
        <dc:format>image/svg+xml</dc:format>
        <dc:type
           rdf:resource="http://purl.org/dc/dcmitype/StillImage" />
        <dc:title></dc:title>
      </cc:Work>
    </rdf:RDF>
  </metadata>
  <sodipodi:namedview
     inkscape:document-rotation="0"
     inkscape:current-layer="svg12"
     inkscape:window-maximized="1"
     inkscape:window-y="0"
     inkscape:window-x="0"
     inkscape:cy="33.956387"
     inkscape:cx="-34.055691"
     inkscape:zoom="5.2609472"
     showgrid="false"
     id="namedview14"
     inkscape:window-height="1012"
     inkscape:window-width="1920"
     inkscape:pageshadow="2"
     inkscape:pageopacity="0"
     guidetolerance="10"
     gridtolerance="10"
     objecttolerance="10"
     borderopacity="1"
     bordercolor="#666666"
     pagecolor="#ffffff" />
  <defs
     id="defs3051">
    <linearGradient
       inkscape:collect="always"
       id="linearGradient842">
      <stop
         style="stop-color:#00aa88;stop-opacity:1"
         offset="0"
         id="stop838" />
      <stop
         style="stop-color:#008fb2;stop-opacity:1"
         offset="1"
         id="stop840" />
    </linearGradient>
    <style
       id="current-color-scheme"
       type="text/css">
      .ColorScheme-Text {
        color:#31363b;
      }
      .ColorScheme-Background {
        color:#eff0f1;
      }
      .ColorScheme-Highlight {
        color:#3daee9;
      }
      .ColorScheme-ViewText {
        color:#31363b;
      }
      .ColorScheme-ViewBackground {
        color:#fcfcfc;
      }
      .ColorScheme-ViewHover {
        color:#93cee9;
      }
      .ColorScheme-ViewFocus{
        color:#3daee9;
      }
      .ColorScheme-ButtonText {
        color:#31363b;
      }
      .ColorScheme-ButtonBackground {
        color:#eff0f1;
      }
      .ColorScheme-ButtonHover {
        color:#93cee9;
      }
      .ColorScheme-ButtonFocus{
        color:#3daee9;
      }
      </style>
    <linearGradient
       inkscape:collect="always"
       xlink:href="#linearGradient842"
       id="linearGradient844"
       x1="0"
       y1="247.5"
       x2="495"
       y2="247.5"
       gradientUnits="userSpaceOnUse" />
    <linearGradient
       inkscape:collect="always"
       xlink:href="#linearGradient842"
       id="linearGradient858"
       x1="320"
       y1="187.5"
       x2="439"
       y2="187.5"
       gradientUnits="userSpaceOnUse" />
    <linearGradient
       inkscape:collect="always"
       xlink:href="#linearGradient842"
       id="linearGradient866"
       x1="320"
       y1="227.5"
       x2="439"
       y2="227.5"
       gradientUnits="userSpaceOnUse" />
    <linearGradient
       inkscape:collect="always"
       xlink:href="#linearGradient842"
       id="linearGradient820"
       x1="33.15625"
       y1="101"
       x2="141.84375"
       y2="94"
       gradientUnits="userSpaceOnUse"
       gradientTransform="matrix(0.14317672,0,0,0.14317672,17.22178,27.52355)" />
  </defs>
  <g
     id="g8"
     transform="matrix(0.11428571,0,0,0.11428571,3.7762141,4.2052238)">
    <path
       d="M 439.5,84 H 234.729 L 198.09,45.279 C 182.464,28.269 164.607,20 143.5,20 h -88 C 24.897,20 0,44.897 0,75.5 v 344 C 0,450.103 24.897,475 55.5,475 h 384 c 30.603,0 55.5,-24.897 55.5,-55.5 v -280 C 495,108.897 470.103,84 439.5,84 Z M 480,419.5 c 0,22.332 -18.168,40.5 -40.5,40.5 H 55.5 C 33.168,460 15,441.832 15,419.5 v -232 C 15,165.168 33.168,147 55.5,147 h 384 c 22.332,0 40.5,18.168 40.5,40.5 z M 439.5,132 H 55.5 C 39.536,132 25.135,138.784 15,149.61 V 75.5 C 15,53.168 33.168,35 55.5,35 h 88 c 16.92,0 30.768,6.503 43.579,20.465 0.026,0.028 0.052,0.057 0.079,0.084 l 38.895,41.105 C 227.469,98.151 229.439,99 231.5,99 h 208 c 22.332,0 40.5,18.168 40.5,40.5 v 10.11 C 469.865,138.784 455.464,132 439.5,132 Z"
       id="path2"
       style="fill-opacity:1;fill:url(#linearGradient844)" />
    <path
       d="m 431.5,180 h -104 c -4.142,0 -7.5,3.357 -7.5,7.5 0,4.143 3.358,7.5 7.5,7.5 h 104 c 4.142,0 7.5,-3.357 7.5,-7.5 0,-4.143 -3.358,-7.5 -7.5,-7.5 z"
       id="path4-3"
       style="fill:url(#linearGradient858);fill-opacity:1.0" />
    <path
       d="m 431.5,220 h -104 c -4.142,0 -7.5,3.357 -7.5,7.5 0,4.143 3.358,7.5 7.5,7.5 h 104 c 4.142,0 7.5,-3.357 7.5,-7.5 0,-4.143 -3.358,-7.5 -7.5,-7.5 z"
       id="path6-6"
       style="fill:url(#linearGradient866);fill-opacity:1.0" />
  </g>
  <path
     style="color:#4d4d4d;font-size:20.4884px;font-family:TrebuchetMS-Bold;fill:url(#linearGradient820);fill-opacity:1.0;fill-rule:evenodd;stroke:none;stroke-width:0.143179;stroke-miterlimit:4"
     d="m 31.53946,31.841232 c -5.52242,0 -10,4.477061 -10,10 0,5.522938 4.47758,10 10,10 5.522422,0 9.999999,-4.477062 10,-10 0,-5.522938 -4.477578,-10 -10,-10 z m 0.04789,1.384891 c 4.758278,0 8.618786,3.857348 8.618786,8.615109 0,4.758263 -3.861026,8.615109 -8.618786,8.615109 -2.569274,0 -4.874754,-1.126057 -6.45303,-2.909764 0.648948,-0.50367 1.73468,-0.380784 3.071816,-0.228363 0.640792,0.07283 1.371278,0.156283 2.125233,0.173103 2.106402,0.01222 4.372818,-0.372202 5.771646,-0.983423 0.904335,-0.396607 1.483356,-0.657793 1.845295,-0.9871 0.130514,-0.107092 0.199035,-0.285903 0.268887,-0.471451 l 0.04789,-0.125243 c 0.05858,-0.14987 0.142761,-0.47238 0.180472,-0.648247 0.01676,-0.07696 0.02516,-0.159759 -0.02952,-0.202582 l -0.19521,0.03677 c -0.613776,0.368065 -2.147238,1.069064 -3.583795,1.097605 -1.780149,0.03727 -5.367996,-1.792056 -5.742175,-1.985261 l -0.03677,-0.04418 c -0.08975,-0.214111 -0.626647,-1.488764 -0.740337,-1.756909 2.582539,1.700628 4.723678,2.641913 6.364653,2.78822 1.824488,0.162107 3.247672,-0.834006 3.856341,-1.259674 0.118782,-0.08105 0.209566,-0.144614 0.246781,-0.158381 l 0.04046,-0.06627 c -0.10093,-0.6413 -1.05818,-3.744568 -1.779006,-4.489867 -0.199838,-0.204424 -0.358716,-0.403357 -0.6814,-0.593005 -2.609045,-1.52067 -8.80386,-2.436509 -9.093919,-2.478827 l -0.04789,0.01468 -0.01838,0.04047 c 0,0 -0.02329,1.286359 -0.0258,1.429103 -0.212578,-0.07031 -0.871735,-0.286158 -1.815849,-0.545127 1.231865,-1.524234 3.119691,-2.876611 6.423574,-2.876611 z m 2.276254,4.559865 c 0.04397,-6.7e-4 0.08831,-0.0013 0.132598,0 1.461523,0.05246 2.609808,1.283494 2.559849,2.744014 -0.026,0.706554 -0.323892,1.35937 -0.839781,1.841618 -0.517423,0.484799 -1.189928,0.737482 -1.900557,0.714552 -1.458984,-0.05451 -2.607256,-1.285544 -2.559848,-2.744013 0.02499,-0.707573 0.324508,-1.364586 0.843458,-1.845312 0.484607,-0.454491 1.104843,-0.700972 1.764281,-0.710859 z m -0.06998,0.780843 c -0.425667,0.02589 -0.827342,0.198718 -1.141806,0.493559 -0.358374,0.336447 -0.56983,0.791986 -0.585632,1.285446 -0.03368,1.01956 0.764141,1.877565 1.782682,1.915279 0.494994,0.01534 0.964539,-0.158111 1.32597,-0.493543 0.360412,-0.337983 0.570347,-0.797716 0.585632,-1.289139 0.03414,-1.021079 -0.767331,-1.875924 -1.786374,-1.911602 -0.06171,-0.0021 -0.119665,-0.0033 -0.180472,0 z m 0.486187,0.924486 c 0.452677,0 0.817675,0.245995 0.817674,0.548802 0,0.30129 -0.364997,0.548803 -0.817674,0.548803 -0.454211,0 -0.821364,-0.248031 -0.821364,-0.548803 0,-0.302806 0.367153,-0.548802 0.821364,-0.548802 z"
     id="path2445"
     class="ColorScheme-Text"
     inkscape:connector-curvature="0" />
</svg>
