<?xml version="1.0" encoding="UTF-8" standalone="no"?>
<svg
   xmlns:dc="http://purl.org/dc/elements/1.1/"
   xmlns:cc="http://creativecommons.org/ns#"
   xmlns:rdf="http://www.w3.org/1999/02/22-rdf-syntax-ns#"
   xmlns:svg="http://www.w3.org/2000/svg"
   xmlns="http://www.w3.org/2000/svg"
   xmlns:xlink="http://www.w3.org/1999/xlink"
   xmlns:sodipodi="http://sodipodi.sourceforge.net/DTD/sodipodi-0.dtd"
   xmlns:inkscape="http://www.inkscape.org/namespaces/inkscape"
   viewBox="0 0 24 24"
   version="1.1"
   id="svg7"
   sodipodi:docname="folder-tar.svg"
   inkscape:version="1.0.1 (3bc2e813f5, 2020-09-07)">
  <metadata
     id="metadata11">
    <rdf:RDF>
      <cc:Work
         rdf:about="">
        <dc:format>image/svg+xml</dc:format>
        <dc:type
           rdf:resource="http://purl.org/dc/dcmitype/StillImage" />
      </cc:Work>
    </rdf:RDF>
  </metadata>
  <sodipodi:namedview
     pagecolor="#ffffff"
     bordercolor="#666666"
     borderopacity="1"
     objecttolerance="10"
     gridtolerance="10"
     guidetolerance="10"
     inkscape:pageopacity="0"
     inkscape:pageshadow="2"
     inkscape:window-width="1920"
     inkscape:window-height="1013"
     id="namedview9"
     showgrid="false"
     inkscape:zoom="26.166667"
     inkscape:cx="12"
     inkscape:cy="12"
     inkscape:window-x="0"
     inkscape:window-y="0"
     inkscape:window-maximized="1"
     inkscape:current-layer="svg7" />
  <defs
     id="defs3051">
    <linearGradient
       inkscape:collect="always"
       id="linearGradient840">
      <stop
         style="stop-color:#006dda;stop-opacity:1"
         offset="0"
         id="stop836" />
      <stop
         style="stop-color:#fac136;stop-opacity:1"
         offset="1"
         id="stop838" />
    </linearGradient>
    <style
       type="text/css"
       id="current-color-scheme">
      .ColorScheme-Text {
        color:#eff0f1;
      }
      </style>
    <linearGradient
       inkscape:collect="always"
       xlink:href="#linearGradient840"
       id="linearGradient842"
       x1="3.1073465"
       y1="10.977497"
       x2="19"
       y2="3"
       gradientUnits="userSpaceOnUse" />
  </defs>
  <g
     transform="translate(1,1)"
     id="g5">
    <path
       style="opacity:1;fill:url(#linearGradient842);fill-opacity:1;stroke:none"
       d="M 3 3 L 3 19 L 19 19 L 19 3 L 3 3 z M 4 4 L 10 4 L 10 5 L 11 5 L 11 4 L 18 4 L 18 18 L 4 18 L 4 4 z M 11 5 L 11 6 L 12 6 L 12 5 L 11 5 z M 11 6 L 10 6 L 10 7 L 11 7 L 11 6 z M 11 7 L 11 8 L 12 8 L 12 7 L 11 7 z M 11 8 L 10 8 L 10 9 L 11 9 L 11 8 z M 11 9 L 11 10 L 12 10 L 12 9 L 11 9 z M 11 10 L 10 10 L 10 11 L 11 11 L 11 10 z M 11 11 L 11 12 L 12 12 L 12 11 L 11 11 z M 11 12 L 10 12 L 10 13 L 10 14 L 11 14 L 12 14 L 12 13 L 11 13 L 11 12 z "
       class="ColorScheme-Text"
       id="path4867" />
  </g>
</svg>
