<?xml version="1.0" encoding="UTF-8" standalone="no"?>
<svg
   xmlns:dc="http://purl.org/dc/elements/1.1/"
   xmlns:cc="http://creativecommons.org/ns#"
   xmlns:rdf="http://www.w3.org/1999/02/22-rdf-syntax-ns#"
   xmlns:svg="http://www.w3.org/2000/svg"
   xmlns="http://www.w3.org/2000/svg"
   xmlns:xlink="http://www.w3.org/1999/xlink"
   xmlns:sodipodi="http://sodipodi.sourceforge.net/DTD/sodipodi-0.dtd"
   xmlns:inkscape="http://www.inkscape.org/namespaces/inkscape"
   viewBox="0 0 64 64"
   version="1.1"
   id="svg62"
   sodipodi:docname="kmousetool.svg"
   inkscape:version="1.0.1 (3bc2e813f5, 2020-09-07)">
  <metadata
     id="metadata68">
    <rdf:RDF>
      <cc:Work
         rdf:about="">
        <dc:format>image/svg+xml</dc:format>
        <dc:type
           rdf:resource="http://purl.org/dc/dcmitype/StillImage" />
      </cc:Work>
    </rdf:RDF>
  </metadata>
  <defs
     id="defs66">
    <linearGradient
       inkscape:collect="always"
       xlink:href="#e"
       id="linearGradient869"
       x1="30.175333"
       y1="49.482292"
       x2="34.175331"
       y2="49.482292"
       gradientUnits="userSpaceOnUse" />
  </defs>
  <sodipodi:namedview
     pagecolor="#ffffff"
     bordercolor="#666666"
     borderopacity="1"
     objecttolerance="10"
     gridtolerance="10"
     guidetolerance="10"
     inkscape:pageopacity="0"
     inkscape:pageshadow="2"
     inkscape:window-width="1920"
     inkscape:window-height="1021"
     id="namedview64"
     showgrid="false"
     inkscape:zoom="9.8125"
     inkscape:cx="32"
     inkscape:cy="32"
     inkscape:window-x="0"
     inkscape:window-y="0"
     inkscape:window-maximized="1"
     inkscape:current-layer="svg62"
     inkscape:document-rotation="0" />
  <linearGradient
     id="a"
     gradientUnits="userSpaceOnUse"
     x1="41"
     x2="23"
     y1="58"
     y2="6">
    <stop
       offset="0"
       stop-color="#848f9a"
       id="stop2" />
    <stop
       offset=".33333299"
       stop-color="#bdc2c7"
       id="stop4" />
    <stop
       offset="1"
       stop-color="#f6f6f6"
       id="stop6" />
  </linearGradient>
  <linearGradient
     id="b"
     gradientTransform="matrix(-1 0 0 1 -25 0)"
     gradientUnits="userSpaceOnUse"
     x1="-55"
     x2="-55"
     y1="12"
     y2="22">
    <stop
       offset="0"
       stop-color="#54b5e8"
       id="stop9" />
    <stop
       offset=".333"
       stop-color="#8fd9ff"
       id="stop11" />
    <stop
       offset="1"
       stop-color="#369acf"
       id="stop13" />
  </linearGradient>
  <linearGradient
     id="c"
     gradientTransform="matrix(-1 0 0 1 -25 0)"
     gradientUnits="userSpaceOnUse"
     x1="-60"
     x2="-54"
     y1="22"
     y2="12">
    <stop
       offset="0"
       stop-color="#8e98a2"
       id="stop16" />
    <stop
       offset="1"
       stop-color="#6c7884"
       id="stop18" />
  </linearGradient>
  <linearGradient
     id="d"
     gradientUnits="userSpaceOnUse"
     x1="32"
     x2="32"
     y1="6"
     y2="28">
    <stop
       offset="0"
       stop-color="#68737e"
       id="stop21" />
    <stop
       offset="1"
       stop-color="#7a8692"
       id="stop23" />
  </linearGradient>
  <linearGradient
     id="e"
     gradientTransform="matrix(-1 0 0 1 -25 0)"
     gradientUnits="userSpaceOnUse"
     x1="-55"
     x2="-55"
     y1="22"
     y2="12">
    <stop
       offset="0"
       stop-color="#232629"
       id="stop26" />
    <stop
       offset=".333"
       stop-color="#373d43"
       id="stop28" />
    <stop
       offset=".667"
       stop-color="#565f68"
       id="stop30" />
    <stop
       offset="1"
       stop-color="#474e55"
       id="stop32" />
  </linearGradient>
  <linearGradient
     id="f"
     gradientUnits="userSpaceOnUse"
     x1="21.005859"
     x2="21"
     y1="21.005859"
     y2="58">
    <stop
       offset="0"
       stop-color="#565f68"
       id="stop35" />
    <stop
       offset=".5945304"
       stop-color="#68737e"
       id="stop37" />
    <stop
       offset="1"
       stop-color="#424950"
       id="stop39" />
  </linearGradient>
  <path
     d="m31 6.4996094s-.809638.038303-1 .050781c-7.837695.5137308-14 6.4774996-14 14.4496096 0 0 2 7.333333 2 11s-1 7.318213-1 11c0 8.31 5.69 14.5 14 14.5h2c8.31 0 14-6.19 14-14.5 0-3.681787-1-7.333333-1-11s2-7.318213 2-11c0-7.97211-6.170259-13.8262817-14-14.4496094-.220702-.01757-1-.050781-1-.050781v5.5003904h-2z"
     fill="url(#a)"
     fill-rule="evenodd"
     id="path42" />
  <path
     d="m31 6s-.809638.038301-1 .050781c-7.837695.5137328-14 6.977109-14 14.949219 0 .201437.01387.402252.01953.603516.202143-7.787285 6.274321-14.0476257 13.98047-14.5527348.190362-.01248 1-.0507812 1-.0507812h2s.779298.033211 1 .050781c7.698802.6129041 13.778786 6.770251 13.980469 14.554688.005695-.201912.019531-.403381.019531-.605469 0-7.97211-6.170259-14.3258906-14-14.9492188-.220702-.01757-1-.0507812-1-.0507812z"
     fill="#c9cdd1"
     id="path44" />
  <path
     d="m31 6v4l-2 2v10l1 1v4c0 1.108.892 2 2 2s2-.892 2-2v-4l1-1v-10l-2-2v-4z"
     fill="url(#d)"
     id="path46" />
  <path
     d="m16.019531 42.380906c-.005947.206418-.019531.412447-.019531.619094 0 8.31 6.69 15 15 15h2c8.31 0 15-6.69 15-15 0-.206647-.01358-.412676-.01953-.619141-.202803 8.130713-6.799162 14.619141-14.98047 14.619141h-2c-8.181308 0-14.777667-6.488428-14.980469-14.619141z"
     fill="#7a8692"
     fill-rule="evenodd"
     id="path48" />
  <path
     d="m35 12v10l-2-2v-6zm-6 0 2 2v6l-2 2z"
     fill="url(#c)"
     id="path50" />
  <g
     fill-rule="evenodd"
     id="g60">
    <rect
       fill="#2a2e32"
       height="3"
       rx="1"
       width="2"
       x="31"
       y="24"
       id="rect52" />
    <path
       d="m32 12c.372982 0 .701757.06416 1 .152344v9.695312c-.298243.088186-.627018.152344-1 .152344s-.701757-.06416-1-.152344v-9.695312c.298243-.088186.627018-.152344 1-.152344z"
       fill="url(#e)"
       id="path54" />
    <path
       d="m33 12.152344c.587732.173783 1 1.480147 1 1.847656v6c0 .367509-.412268 1.673873-1 1.847656zm-2 0v9.695312c-.587732-.173783-1-1.480147-1-1.847656v-6c0-.367509.412268-1.673873 1-1.847656z"
       fill="url(#b)"
       id="path56" />
    <path
       d="m16 21.005859c.001 3.679786 1 7.314308 1 10.994141s-.99894 7.314355-1 10.994141v.005859c0 7.894237 6.041343 14.313625 13.769531 14.9375-6.065771-.612334-10.769531-5.705-10.769531-11.9375v-12c0-3.384459-1.12312-10.48962-3-12.994141zm32 0c-1.876875 2.504521-3 9.609682-3 12.994141v12c0 6.2325-4.70376 11.325166-10.769531 11.9375 7.728188-.623875 13.769531-7.043263 13.769531-14.9375v-.0059c-.0011-3.679745-1-7.314267-1-10.9941s.99894-7.314355 1-10.994141z"
       fill="url(#f)"
       stroke-width=".999995"
       id="path58" />
  </g>
  <path
     fill="#83878a"
     d="m 31.175333,47.482292 c -0.1385,0 -0.25,0.1115 -0.25,0.25 0,0.1385 0.1115,0.25 0.25,0.25 0.1385,0 0.25,-0.1115 0.25,-0.25 0,-0.1385 -0.1115,-0.25 -0.25,-0.25 m 1.75,0 -0.5,0.5 0.75,0.75 -0.75,0.75 0.5,0.5 1.25,-1.25 z m -2.375,1.5 c -0.208,0 -0.375,0.1675 -0.375,0.375 0,0.2075 0.167,0.375 0.375,0.375 0.208,0 0.375,-0.1675 0.375,-0.375 0,-0.2075 -0.167,-0.375 -0.375,-0.375 m 1.125,1.5 c -0.277,0 -0.5,0.223 -0.5,0.5 0,0.277 0.223,0.5 0.5,0.5 0.277,0 0.5,-0.223 0.5,-0.5 0,-0.277 -0.223,-0.5 -0.5,-0.5"
     id="path54-3"
     style="stroke-width:0.5;fill:url(#linearGradient869);fill-opacity:1.0" />
</svg>
