<?xml version="1.0" encoding="UTF-8" standalone="no"?>
<svg
   xmlns:dc="http://purl.org/dc/elements/1.1/"
   xmlns:cc="http://creativecommons.org/ns#"
   xmlns:rdf="http://www.w3.org/1999/02/22-rdf-syntax-ns#"
   xmlns:svg="http://www.w3.org/2000/svg"
   xmlns="http://www.w3.org/2000/svg"
   xmlns:xlink="http://www.w3.org/1999/xlink"
   xmlns:sodipodi="http://sodipodi.sourceforge.net/DTD/sodipodi-0.dtd"
   xmlns:inkscape="http://www.inkscape.org/namespaces/inkscape"
   viewBox="0 0 16 16"
   version="1.1"
   id="svg5"
   sodipodi:docname="folder-cloud.svg"
   inkscape:version="1.0.1 (3bc2e813f5, 2020-09-07)">
  <metadata
     id="metadata9">
    <rdf:RDF>
      <cc:Work
         rdf:about="">
        <dc:format>image/svg+xml</dc:format>
        <dc:type
           rdf:resource="http://purl.org/dc/dcmitype/StillImage" />
      </cc:Work>
    </rdf:RDF>
  </metadata>
  <sodipodi:namedview
     pagecolor="#ffffff"
     bordercolor="#666666"
     borderopacity="1"
     objecttolerance="10"
     gridtolerance="10"
     guidetolerance="10"
     inkscape:pageopacity="0"
     inkscape:pageshadow="2"
     inkscape:window-width="1920"
     inkscape:window-height="1013"
     id="namedview7"
     showgrid="false"
     inkscape:zoom="39.25"
     inkscape:cx="8"
     inkscape:cy="8"
     inkscape:window-x="0"
     inkscape:window-y="0"
     inkscape:window-maximized="1"
     inkscape:current-layer="svg5" />
  <defs
     id="defs3051">
    <linearGradient
       inkscape:collect="always"
       id="linearGradient838">
      <stop
         style="stop-color:#fac136;stop-opacity:1"
         offset="0"
         id="stop834" />
      <stop
         style="stop-color:#006dda;stop-opacity:1"
         offset="1"
         id="stop836" />
    </linearGradient>
    <style
       type="text/css"
       id="current-color-scheme">
      .ColorScheme-Text {
        color:#eff0f1;
      }
      </style>
    <linearGradient
       inkscape:collect="always"
       xlink:href="#linearGradient838"
       id="linearGradient840"
       x1="1"
       y1="7.5"
       x2="15"
       y2="7.5"
       gradientUnits="userSpaceOnUse" />
  </defs>
  <path
     style="fill:url(#linearGradient840);fill-opacity:1;stroke:none"
     d="M 7.5 2 A 4.5 4.5 0 0 0 3 6.5 A 4.5 4.5 0 0 0 3.0527344 7.15625 A 3 3 0 0 0 1 10 A 3 3 0 0 0 4 13 L 11.5 13 A 3.5 3.5 0 0 0 15 9.5 A 3.5 3.5 0 0 0 11.970703 6.0351562 A 4.5 4.5 0 0 0 7.5 2 z M 7.5 3 A 3.5 3.5 0 0 1 11 6.5 A 3.5 3.5 0 0 1 10.949219 7.0644531 A 2.5 2.5 0 0 1 11.5 7 A 2.5 2.5 0 0 1 14 9.5 A 2.5 2.5 0 0 1 11.5 12 L 4 12 A 2 2 0 0 1 2 10 A 2 2 0 0 1 4 8 A 2 2 0 0 1 4.3574219 8.0332031 A 3.5 3.5 0 0 1 4 6.5 A 3.5 3.5 0 0 1 7.5 3 z "
     id="path4139"
     class="ColorScheme-Text" />
</svg>
