<?xml version="1.0" encoding="UTF-8" standalone="no"?>
<svg
   height="32"
   viewBox="0 0 32 32"
   width="32"
   version="1.1"
   id="svg22"
   sodipodi:docname="preferences-desktop-emoticons.svg"
   inkscape:version="1.2.1 (9c6d41e410, 2022-07-14)"
   xmlns:inkscape="http://www.inkscape.org/namespaces/inkscape"
   xmlns:sodipodi="http://sodipodi.sourceforge.net/DTD/sodipodi-0.dtd"
   xmlns:xlink="http://www.w3.org/1999/xlink"
   xmlns="http://www.w3.org/2000/svg"
   xmlns:svg="http://www.w3.org/2000/svg">
  <defs
     id="defs26" />
  <sodipodi:namedview
     id="namedview24"
     pagecolor="#ffffff"
     bordercolor="#666666"
     borderopacity="1.0"
     inkscape:showpageshadow="2"
     inkscape:pageopacity="0.0"
     inkscape:pagecheckerboard="0"
     inkscape:deskcolor="#d1d1d1"
     showgrid="false"
     inkscape:zoom="10.727273"
     inkscape:cx="11.09322"
     inkscape:cy="-3.7754236"
     inkscape:window-width="1920"
     inkscape:window-height="1002"
     inkscape:window-x="0"
     inkscape:window-y="0"
     inkscape:window-maximized="1"
     inkscape:current-layer="svg22" />
  <linearGradient
     id="a">
    <stop
       offset="0"
       stop-color="#814b13"
       id="stop2" />
    <stop
       offset="1"
       stop-color="#9d5b17"
       id="stop4" />
  </linearGradient>
  <linearGradient
     id="b"
     gradientTransform="matrix(0.99978312,0,0,0.99999893,-384.48152,-515.7974)"
     gradientUnits="userSpaceOnUse"
     x2="0"
     y1="545.79797"
     y2="517.79797">
    <stop
       offset="0"
       stop-color="#fdc95f"
       id="stop7" />
    <stop
       offset="1"
       stop-color="#fdd583"
       id="stop9" />
  </linearGradient>
  <linearGradient
     id="c"
     gradientUnits="userSpaceOnUse"
     x1="11"
     x2="11"
     xlink:href="#a"
     y1="11"
     y2="7"
     gradientTransform="matrix(1.55522,0,0,1.5555556,-1.1043776,-1.1111111)" />
  <linearGradient
     id="d"
     gradientUnits="userSpaceOnUse"
     x1="11"
     x2="11"
     xlink:href="#a"
     y1="16"
     y2="13"
     gradientTransform="matrix(1.55522,0,0,1.5555556,-1.1043776,-1.1111111)" />
  <rect
     fill="url(#b)"
     height="28"
     rx="13.996966"
     ry="13.999994"
     stroke-width="0.99989"
     width="27.993938"
     x="2.0060623"
     y="2"
     id="rect14"
     style="fill:url(#b)" />
  <path
     d="M 2.021263,15.222221 C 2.007313,15.479606 2,15.739012 2,15.999999 2,23.755997 8.2426602,30 15.996979,30 c 7.754317,0 13.996978,-6.244003 13.996978,-14.000001 0,-0.260987 -0.0073,-0.520393 -0.02126,-0.777778 -0.400813,7.391498 -6.48233,13.222222 -13.975714,13.222222 -7.4933855,0 -13.5749015,-5.830724 -13.9757159,-13.222222 z"
     fill="#9d5b17"
     opacity="0.25"
     stroke-width="0.99989"
     id="path16" />
  <path
     id="path1054"
     style="fill:#3b3b3b;fill-opacity:1;stroke:none;stroke-width:0.0939171;stroke-linecap:butt;stroke-linejoin:miter;stroke-miterlimit:4;stroke-dasharray:none;stroke-opacity:1"
     d="M 10.633298,9.40844 C 9.195145,9.38941 7.541544,9.559102 5.599367,9.911286 5.499667,9.911286 5.466,9.950066 5.466,10.19941 v 0.399459 c 3.19e-4,0.05661 0.04411,0.111093 0.08875,0.110716 h 0.15538 c 0.116113,-0.01153 0.210049,0.04792 0.244083,0.310759 0.358912,4.051072 2.434279,5.336472 4.482157,5.368569 2.481418,0.03889 4.708245,-1.578101 4.991125,-4.259494 0.04702,-0.4352 0.364427,-0.631577 0.672294,-0.620914 0.307865,-0.01056 0.625822,0.185714 0.672904,0.620914 0.282881,2.681393 2.291322,4.453762 4.772739,4.414874 2.047879,-0.0321 4.341022,-1.317499 4.699935,-5.36857 0.03409,-0.262888 0.127973,-0.322228 0.244084,-0.31076 h 0.155379 c 0.04454,3.85e-4 0.08877,-0.05395 0.08877,-0.110714 v -0.399464 c 0,-0.249299 -0.0337,-0.288745 -0.13336,-0.288745 -2.58957,-0.469572 -4.681904,-0.691822 -6.418295,-0.497952 -3.01815,0.336987 -2.971993,1.243663 -3.915696,1.243663 h -0.333404 c -0.943704,0 -0.912236,-0.983758 -3.930379,-1.320743 -0.434094,-0.04838 -0.889671,-0.07623 -1.369059,-0.08259 z m -2.360671,9.432296 c -0.282747,0.0063 -0.593375,0.334628 -0.175568,0.840521 2.418039,2.80778 8.678989,6.681915 15.229699,0.0783 0.475489,-0.475497 -0.04605,-1.167599 -0.46002,-0.753654 -6.50027,5.299228 -11.46012,2.605228 -14.348809,-0.05872 -0.06012,-0.07458 -0.151053,-0.108582 -0.245302,-0.106442 z" />
</svg>
