<?xml version="1.0" encoding="UTF-8" standalone="no"?>
<svg
   xmlns:dc="http://purl.org/dc/elements/1.1/"
   xmlns:cc="http://creativecommons.org/ns#"
   xmlns:rdf="http://www.w3.org/1999/02/22-rdf-syntax-ns#"
   xmlns:svg="http://www.w3.org/2000/svg"
   xmlns="http://www.w3.org/2000/svg"
   xmlns:xlink="http://www.w3.org/1999/xlink"
   xmlns:sodipodi="http://sodipodi.sourceforge.net/DTD/sodipodi-0.dtd"
   xmlns:inkscape="http://www.inkscape.org/namespaces/inkscape"
   sodipodi:docname="system-file-manager.svg"
   inkscape:version="1.0.1 (3bc2e813f5, 2020-09-07)"
   version="1.1"
   id="svg8694"
   viewBox="0 0 17.406595 16.000002"
   height="16.000002"
   width="17.406595">
  <defs
     id="defs8696">
    <linearGradient
       inkscape:collect="always"
       xlink:href="#linearGradient838"
       id="linearGradient840"
       x1="100.29754"
       y1="390.20538"
       x2="317.87994"
       y2="218.15271"
       gradientUnits="userSpaceOnUse" />
    <linearGradient
       inkscape:collect="always"
       id="linearGradient838">
      <stop
         style="stop-color:#fac136;stop-opacity:1"
         offset="0"
         id="stop834" />
      <stop
         style="stop-color:#006dda;stop-opacity:1"
         offset="1"
         id="stop836" />
    </linearGradient>
    <linearGradient
       inkscape:collect="always"
       xlink:href="#linearGradient838"
       id="linearGradient848"
       x1="320"
       y1="187.5"
       x2="439"
       y2="187.5"
       gradientUnits="userSpaceOnUse" />
    <linearGradient
       inkscape:collect="always"
       xlink:href="#linearGradient838"
       id="linearGradient856"
       x1="320"
       y1="227.5"
       x2="439"
       y2="227.5"
       gradientUnits="userSpaceOnUse" />
  </defs>
  <sodipodi:namedview
     inkscape:window-maximized="0"
     inkscape:window-y="60"
     inkscape:window-x="299"
     inkscape:window-height="848"
     inkscape:window-width="1326"
     inkscape:document-rotation="0"
     showborder="true"
     inkscape:showpageshadow="false"
     inkscape:snap-global="true"
     inkscape:object-nodes="true"
     inkscape:bbox-nodes="true"
     inkscape:snap-bbox="true"
     units="px"
     showgrid="false"
     inkscape:current-layer="layer1"
     inkscape:document-units="px"
     inkscape:cy="10.466162"
     inkscape:cx="10.954436"
     inkscape:zoom="11.313708"
     inkscape:pageshadow="2"
     inkscape:pageopacity="0.0"
     borderopacity="1.0"
     bordercolor="#666666"
     pagecolor="#ffffff"
     id="base">
    <inkscape:grid
       id="grid9302"
       type="xygrid"
       originx="0.4629289"
       originy="-0.0625968" />
  </sodipodi:namedview>
  <metadata
     id="metadata8699">
    <rdf:RDF>
      <cc:Work
         rdf:about="">
        <dc:format>image/svg+xml</dc:format>
        <dc:type
           rdf:resource="http://purl.org/dc/dcmitype/StillImage" />
        <dc:title></dc:title>
      </cc:Work>
    </rdf:RDF>
  </metadata>
  <g
     transform="translate(0.46292891,-1036.4248)"
     id="layer1"
     inkscape:groupmode="layer"
     inkscape:label="Livello 1">
    <g
       id="g8"
       transform="matrix(0.03516484,0,0,0.03516484,-0.46292891,1035.7215)">
      <path
         d="M 439.5,84 H 234.729 L 198.09,45.279 C 182.464,28.269 164.607,20 143.5,20 h -88 C 24.897,20 0,44.897 0,75.5 v 344 C 0,450.103 24.897,475 55.5,475 h 384 c 30.603,0 55.5,-24.897 55.5,-55.5 v -280 C 495,108.897 470.103,84 439.5,84 Z M 480,419.5 c 0,22.332 -18.168,40.5 -40.5,40.5 H 55.5 C 33.168,460 15,441.832 15,419.5 v -232 C 15,165.168 33.168,147 55.5,147 h 384 c 22.332,0 40.5,18.168 40.5,40.5 z M 439.5,132 H 55.5 C 39.536,132 25.135,138.784 15,149.61 V 75.5 C 15,53.168 33.168,35 55.5,35 h 88 c 16.92,0 30.768,6.503 43.579,20.465 0.026,0.028 0.052,0.057 0.079,0.084 l 38.895,41.105 C 227.469,98.151 229.439,99 231.5,99 h 208 c 22.332,0 40.5,18.168 40.5,40.5 v 10.11 C 469.865,138.784 455.464,132 439.5,132 Z"
         id="path2"
         style="fill:url(#linearGradient840);fill-opacity:1" />
      <path
         d="m 431.5,180 h -104 c -4.142,0 -7.5,3.357 -7.5,7.5 0,4.143 3.358,7.5 7.5,7.5 h 104 c 4.142,0 7.5,-3.357 7.5,-7.5 0,-4.143 -3.358,-7.5 -7.5,-7.5 z"
         id="path4-3"
         style="fill:url(#linearGradient848);fill-opacity:1" />
      <path
         d="m 431.5,220 h -104 c -4.142,0 -7.5,3.357 -7.5,7.5 0,4.143 3.358,7.5 7.5,7.5 h 104 c 4.142,0 7.5,-3.357 7.5,-7.5 0,-4.143 -3.358,-7.5 -7.5,-7.5 z"
         id="path6-6"
         style="fill:url(#linearGradient856);fill-opacity:1" />
    </g>
  </g>
</svg>
