<?xml version="1.0" encoding="UTF-8" standalone="no"?>
<svg
   xmlns:dc="http://purl.org/dc/elements/1.1/"
   xmlns:cc="http://creativecommons.org/ns#"
   xmlns:rdf="http://www.w3.org/1999/02/22-rdf-syntax-ns#"
   xmlns:svg="http://www.w3.org/2000/svg"
   xmlns="http://www.w3.org/2000/svg"
   xmlns:xlink="http://www.w3.org/1999/xlink"
   xmlns:sodipodi="http://sodipodi.sourceforge.net/DTD/sodipodi-0.dtd"
   xmlns:inkscape="http://www.inkscape.org/namespaces/inkscape"
   version="1.1"
   x="0px"
   y="0px"
   viewBox="0 0 29.688705 28.031168"
   enable-background="new 0 0 1000 1000"
   xml:space="preserve"
   id="svg8"
   sodipodi:docname="start.svg"
   inkscape:version="1.0.1 (3bc2e813f5, 2020-09-07)"
   width="29.688705"
   height="28.031168"><metadata
   id="metadata11"><rdf:RDF><cc:Work
       rdf:about=""><dc:format>image/svg+xml</dc:format><dc:type
         rdf:resource="http://purl.org/dc/dcmitype/StillImage" /></cc:Work></rdf:RDF></metadata><defs
   id="defs12"><linearGradient
     inkscape:collect="always"
     id="linearGradient860"><stop
       style="stop-color:#007dff;stop-opacity:1"
       offset="0"
       id="stop856" /><stop
       style="stop-color:#08a19d;stop-opacity:1"
       offset="1"
       id="stop858" /></linearGradient><linearGradient
     inkscape:collect="always"
     xlink:href="#linearGradient860"
     id="linearGradient862"
     x1="58.667973"
     y1="39.569019"
     x2="91.299072"
     y2="11.620528"
     gradientUnits="userSpaceOnUse" /></defs><sodipodi:namedview
   inkscape:document-rotation="0"
   pagecolor="#ffffff"
   bordercolor="#666666"
   borderopacity="1"
   objecttolerance="10"
   gridtolerance="10"
   guidetolerance="10"
   inkscape:pageopacity="0"
   inkscape:pageshadow="2"
   inkscape:window-width="1920"
   inkscape:window-height="1013"
   id="namedview10"
   showgrid="false"
   inkscape:zoom="4.5786044"
   inkscape:cx="64.694503"
   inkscape:cy="-2.2054429"
   inkscape:window-x="0"
   inkscape:window-y="0"
   inkscape:window-maximized="1"
   inkscape:current-layer="svg8" />
<g
   id="g11"
   transform="translate(-6.7894647,-7.2919916)" />
<g
   id="start-here-kde"
   transform="matrix(0,0.26458328,-0.26458328,0,28.596953,0.74817619)"><path
     id="path891"
     d="M 28.895324,55.350475 C 18.4592,55.350475 10,63.809674 10,74.245799 c 0,10.436124 8.4592,18.903808 18.895324,18.903808 10.436124,0 18.895324,-8.4592 18.895324,-18.895324 0,-10.436124 -8.450715,-18.903808 -18.895324,-18.903808 z m 0,30.239306 c -6.270159,0 -11.335497,-5.082308 -11.335497,-11.335498 0,-6.25319 5.073823,-11.335497 11.335497,-11.335497 6.270159,0 11.335498,5.082307 11.335498,11.335497 0,6.25319 -5.065339,11.335498 -11.335498,11.335498 z M 28.895324,10 C 18.4592,10 10,18.4592 10,28.895324 v 32.85258 c 1.926016,-2.910237 4.53929,-5.26897 7.559827,-7.033778 V 43.930131 c 3.164775,2.392672 7.067716,3.860517 11.335497,3.860517 10.436124,0 18.895324,-8.4592 18.895324,-18.895324 C 47.799133,18.4592 39.339933,10 28.895324,10 Z m 0,30.239306 c -6.270159,0 -11.335497,-5.073823 -11.335497,-11.335497 0,-6.270159 5.073823,-11.335498 11.335497,-11.335498 6.270159,0 11.335498,5.073823 11.335498,11.335498 0.0085,6.261674 -5.065339,11.335497 -11.335498,11.335497 z m 58.187756,20.21893 -2.392673,-2.715089 -0.02545,0.02545 -19.955906,-22.721903 0.03394,-0.03394 c 0,0 -0.0085,-0.0085 -0.0085,-0.01697 -1.136944,-1.764808 -1.815716,-3.852033 -1.815716,-6.108951 0,-6.270159 5.082307,-11.335497 11.335497,-11.335497 6.25319,0 11.335498,5.073823 11.335498,11.335497 0,6.25319 -5.056854,11.318529 -11.301559,11.335498 l 5.727141,6.516214 C 87.617613,44.320425 93.149607,37.303616 93.149607,28.895324 93.149607,18.4592 84.690407,10 74.254283,10 65.209642,10 57.6583,16.371975 55.808646,24.865113 c -0.288478,1.306637 -0.449687,2.647212 -0.449687,4.038696 0,3.962333 1.230275,7.627703 3.309015,10.66521 l 2.749028,3.130837 11.259136,12.820312 c -0.02545,0 -0.04242,0.0085 -0.06788,0.0085 l 8.883433,10.105223 c 0.05091,0.04242 0.118785,0.05939 0.169693,0.101816 0.806042,0.712711 1.527238,1.493299 2.112679,2.401157 1.136943,1.764808 1.815716,3.852033 1.815716,6.117435 0,6.261675 -5.082308,11.335498 -11.335498,11.335498 -6.261674,0 -11.327013,-5.082308 -11.327013,-11.335498 0,-6.202282 4.988977,-11.233681 11.182774,-11.327013 L 68.39987,56.445011 c -7.542857,2.46055 -13.032428,9.44342 -13.032428,17.809288 0,10.436124 8.4592,18.895324 18.895324,18.895324 9.044641,0 16.595983,-6.371975 18.437153,-14.865113 0.296963,-1.306637 0.458171,-2.647212 0.458171,-4.038695 0,-3.953849 -1.22179,-7.627704 -3.309015,-10.66521 z"
     inkscape:connector-curvature="0"
     style="fill:url(#linearGradient862);fill-opacity:1;stroke-width:0.0848465" /></g></svg>
