<?xml version="1.0" encoding="UTF-8" standalone="no"?>
<svg
   viewBox="0 0 16 16"
   version="1.1"
   id="svg1"
   sodipodi:docname="system-shutdown-update.svg"
   inkscape:version="1.3.2 (091e20ef0f, 2023-11-25)"
   width="16"
   height="16"
   xmlns:inkscape="http://www.inkscape.org/namespaces/inkscape"
   xmlns:sodipodi="http://sodipodi.sourceforge.net/DTD/sodipodi-0.dtd"
   xmlns="http://www.w3.org/2000/svg"
   xmlns:svg="http://www.w3.org/2000/svg">
  <sodipodi:namedview
     id="namedview1"
     pagecolor="#ffffff"
     bordercolor="#000000"
     borderopacity="0.25"
     inkscape:showpageshadow="2"
     inkscape:pageopacity="0.0"
     inkscape:pagecheckerboard="0"
     inkscape:deskcolor="#d1d1d1"
     inkscape:zoom="12.326157"
     inkscape:cx="0.56789801"
     inkscape:cy="0.48676972"
     inkscape:window-width="1920"
     inkscape:window-height="998"
     inkscape:window-x="0"
     inkscape:window-y="0"
     inkscape:window-maximized="1"
     inkscape:current-layer="svg1" />
  <defs
     id="defs1">
    <style
       type="text/css"
       id="style1">.ColorScheme-Text {
        color:#d8dee9;
      }</style>
  </defs>
  <path
     d="M 3.0467271,3.0566504 C 0.29552348,5.8095998 0.31803338,10.303086 3.1142577,13.027546 5.7188052,15.565262 9.9159394,15.668989 12.63422,13.253652 15.015992,11.13733 15.648097,7.7655548 14.308124,4.9813292 14.147301,4.6471706 13.726286,4.5324437 13.409457,4.7249076 13.12539,4.8974831 13.029378,5.2561249 13.172182,5.5564013 14.276237,7.8778281 13.709743,10.6918 11.664859,12.408874 9.5906959,14.150545 6.5132989,14.179838 4.4080875,12.475866 1.7231531,10.302676 1.5693059,6.3357647 3.9465619,3.9570176 5.6790534,2.2234172 8.280649,1.7955928 10.45059,2.8309502 c 0.298296,0.142324 0.654767,0.04438 0.82627,-0.2382654 l 0.002,-0.00196 C 11.470144,2.2746704 11.357295,1.8542522 11.024448,1.6936672 8.3664266,0.41141024 5.1719173,0.93039961 3.0470703,3.0565804 Z"
     id="path1-0-4"
     style="fill:#c83771;stroke-width:0.363692" />
  <path
     d="M 2.4122892,13.963894 7.9022537,8.909948 C 8.0376247,8.7853306 8.0488217,8.4198111 7.8307426,8.1829147 7.6126611,7.946018 7.2045742,7.9664811 7.0692036,8.0911007 L 1.6221308,13.105565 c -0.1353718,0.124624 -0.1465445,0.49011 0.071541,0.727007 0.2180831,0.236903 0.5832492,0.255949 0.7186191,0.131322 z"
     id="path2653-4-7"
     style="fill:#c83771;fill-opacity:0.986348;stroke-width:0.314965"
     sodipodi:nodetypes="sssssss" />
  <path
     d="m 8.0687202,5.0420114 c 0.0063,0.00595 0.01192,0.012137 0.016775,0.019075 L 9.962982,7.5027991 c 0.083375,0.1078193 0.00695,0.2660096 -0.1298417,0.269337 l -0.831952,0.02481 0.050743,2.6628649 c 0.00552,0.275727 -0.214093,0.505936 -0.4897407,0.51426 l -0.9983902,0.02969 c -0.27566,0.0083 -0.5033085,-0.2086 -0.5085438,-0.484328 L 7.0051705,7.8561439 6.1731626,7.8812449 C 6.0361445,7.8861856 5.9540578,7.7325185 6.0334432,7.6198781 l 1.783523,-2.5516615 c 0.05877,-0.084028 0.177956,-0.096784 0.2514359,-0.026864 z M 7.9581135,5.4452552 Z"
     id="path8-2-1"
     style="fill:#c83771;fill-opacity:0.988235;stroke-width:0.297285"
     sodipodi:nodetypes="ccccccccccccccccccc" />
</svg>
