<?xml version="1.0" encoding="UTF-8" standalone="no"?>
<svg
   viewBox="0 0 16 16"
   version="1.1"
   id="svg1"
   sodipodi:docname="system-reboot-update.svg"
   inkscape:version="1.3.2 (091e20ef0f, 2023-11-25)"
   width="16"
   height="16"
   xmlns:inkscape="http://www.inkscape.org/namespaces/inkscape"
   xmlns:sodipodi="http://sodipodi.sourceforge.net/DTD/sodipodi-0.dtd"
   xmlns="http://www.w3.org/2000/svg"
   xmlns:svg="http://www.w3.org/2000/svg">
  <sodipodi:namedview
     id="namedview1"
     pagecolor="#ffffff"
     bordercolor="#000000"
     borderopacity="0.25"
     inkscape:showpageshadow="2"
     inkscape:pageopacity="0.0"
     inkscape:pagecheckerboard="0"
     inkscape:deskcolor="#d1d1d1"
     inkscape:zoom="12.326157"
     inkscape:cx="6.5713912"
     inkscape:cy="7.0581609"
     inkscape:window-width="1920"
     inkscape:window-height="998"
     inkscape:window-x="0"
     inkscape:window-y="0"
     inkscape:window-maximized="1"
     inkscape:current-layer="svg1" />
  <defs
     id="defs1">
    <style
       type="text/css"
       id="style1">.ColorScheme-Text {
        color:#d8dee9;
      }
      .ColorScheme-Highlight {
        color:#88c0d0;
      }</style>
  </defs>
  <path
     d="m 10.883401,13.01027 v 0 c 0.291376,-0.166544 0.664715,-0.06562 0.833003,0.224867 v 0 c 0.168291,0.290497 0.06825,0.663241 -0.223421,0.831238 v 0 C 10.359282,14.719123 9.0663142,15.040531 7.761391,14.995913 6.5780967,14.955653 5.4233839,14.614701 4.4057549,14.007464 v 0 C 4.1175871,13.834799 4.0239615,13.460304 4.1966292,13.172143 v 0 c 0.1729594,-0.288167 0.5471687,-0.381794 0.8356281,-0.209124 v 0 c 0.8385446,0.503699 1.7911316,0.782823 2.7705509,0.816365 1.0800428,0.03674 2.1455096,-0.228371 3.0805928,-0.769114 z m 2.293098,-7.5896612 v 0 c -0.15109,-0.3009973 -0.02945,-0.667326 0.271539,-0.8175316 v 0 c 0.300997,-0.1502074 0.666457,-0.028004 0.81609,0.2729955 v 0 c 0.521499,1.040946 0.771459,2.1976815 0.731792,3.3625873 -0.03037,0.8881078 -0.227506,1.76135 -0.584217,2.571588 v 0 c -0.134746,0.308002 -0.494375,0.448581 -0.802374,0.313541 v 0 c -0.308004,-0.134748 -0.448584,-0.494372 -0.313543,-0.802364 v 0 C 13.592703,9.65235 13.754287,8.9301922 13.779081,8.1972402 13.812036,7.2359187 13.604082,6.2818896 13.176499,5.4206088 Z M 5.4948426,2.7895157 v 0 C 5.1923831,2.9338888 4.8283816,2.8055594 4.6822562,2.503102 v 0 C 4.5364217,2.200647 4.6633,1.8363598 4.9657576,1.6905288 v 0 C 5.9842607,1.2014097 7.1068898,0.9657459 8.2385622,1.0042453 9.3273573,1.0412883 10.395737,1.3306165 11.352115,1.8535692 v 0 c 0.295456,0.1612886 0.404247,0.5319927 0.242959,0.8274466 v 0 c -0.161292,0.2951635 -0.532001,0.4039539 -0.827463,0.2426644 v 0 C 9.9783588,2.4917263 9.0972299,2.2516888 8.1971444,2.2207712 7.2632233,2.1889782 6.336887,2.3829361 5.4948426,2.7895157 Z M 2.5137072,9.834931 v 0 c 0.1070416,0.317915 -0.065043,0.662949 -0.3838348,0.769699 v 0 C 1.8110793,10.711381 1.4654533,10.53842 1.3587025,10.219049 v 0 C 1.0964934,9.4274775 0.97574264,8.5950683 1.0040343,7.7614982 1.0416599,6.6604673 1.3371187,5.5804391 1.8726221,4.6150346 v 0 C 2.0339139,4.321331 2.4037479,4.215164 2.6983324,4.3782044 v 0 C 2.992917,4.5412442 3.0996668,4.9119486 2.9366253,5.2056529 v 0 C 2.4953322,6.003642 2.2517891,6.8935061 2.2205806,7.8029102 2.1972496,8.4935679 2.2955398,9.1789771 2.5137072,9.834931 Z M 10.365712,2.1668292 Z M 3.7305439,12.014235 c -0.011371,0.335701 -0.2931258,0.599075 -0.6288352,0.5877 -0.336001,-0.01168 -0.5990852,-0.293411 -0.58771,-0.629116 0.011371,-0.335702 0.2934179,-0.599074 0.6291273,-0.587702 0.3357081,0.01136 0.5990849,0.293415 0.5874179,0.629118 z m 9.7443291,0.332207 c 0.01135,-0.335702 -0.252006,-0.617454 -0.587711,-0.629118 -0.335715,-0.01136 -0.617466,0.251998 -0.629127,0.587702 -0.01136,0.335701 0.252002,0.617744 0.58771,0.629118 0.335705,0.01135 0.617747,-0.251999 0.629128,-0.587702 z M 4.1689203,3.2681349 C 4.1802952,2.9324307 3.9172113,2.6503923 3.5815017,2.6390173 3.2455008,2.6276424 2.9637503,2.8910133 2.952375,3.2267174 2.940706,3.5624218 3.2040849,3.8441687 3.5397933,3.8558364 3.8757945,3.8672104 4.1575453,3.6038388 4.1689203,3.2681349 Z"
     fill-rule="evenodd"
     id="path8-4-9"
     style="isolation:isolate;fill:#00ccff;fill-opacity:1;stroke-width:0.416669"
     sodipodi:nodetypes="sssssscsssssscssssssscsssssscsssssssssssssscssssssscsssssscscccccccsscscccsscccs" />
  <path
     d="M 11.84588,3.1881 C 11.8192,3.230188 11.77674,3.259849 11.728105,3.270589 L 9.779623,3.5459887 C 9.5915696,3.5611061 9.2371674,3.3539549 9.4451325,3.027506 L 10.08703,2.0206341 10.644393,1.1463767 c 0.07782,-0.1220625 0.200509,-0.37393029 0.377634,-0.41351675 v 0 c 0.177338,-0.039297 0.352903,0.0725959 0.392126,0.24993305 l 0.456792,2.0637684 c 0.0108,0.048617 0.0018,0.099575 -0.02503,0.1415624 z"
     id="path4-3-75-3-6-2-6"
     style="color:#d6dbf1;fill:#00ccff;fill-opacity:1;stroke-width:0.134214"
     sodipodi:nodetypes="ccccccssccc" />
  <path
     d="m 8.0687001,5.0421336 c 0.00631,0.00591 0.011941,0.01214 0.016774,0.019063 l 1.8774887,2.4416767 c 0.08341,0.1078186 0.0072,0.2660099 -0.1298448,0.269335 l -0.8319445,0.024833 0.050692,2.6628237 c 0.00536,0.275718 -0.2140903,0.505933 -0.4897418,0.514251 l -0.9983859,0.02961 c -0.27563,0.0082 -0.5032787,-0.208549 -0.5085142,-0.484272 L 7.0051502,7.8562184 6.1731424,7.8813219 C 6.0361248,7.8862842 5.954038,7.7325998 6.0334235,7.6199622 L 7.8169443,5.0683384 c 0.058787,-0.084026 0.1779555,-0.096782 0.2514366,-0.026868 z M 7.9580949,5.4453717 Z"
     id="path8-2-1"
     style="fill:#00ccff;fill-opacity:1;stroke-width:0.297285"
     sodipodi:nodetypes="ccccccccccccccccccc" />
</svg>
