<?xml version="1.0" encoding="UTF-8" standalone="no"?>
<svg
   xmlns:dc="http://purl.org/dc/elements/1.1/"
   xmlns:cc="http://creativecommons.org/ns#"
   xmlns:rdf="http://www.w3.org/1999/02/22-rdf-syntax-ns#"
   xmlns:svg="http://www.w3.org/2000/svg"
   xmlns="http://www.w3.org/2000/svg"
   xmlns:xlink="http://www.w3.org/1999/xlink"
   xmlns:sodipodi="http://sodipodi.sourceforge.net/DTD/sodipodi-0.dtd"
   xmlns:inkscape="http://www.inkscape.org/namespaces/inkscape"
   version="1.0"
   height="146.52753"
   width="113.18325"
   id="svg2"
   sodipodi:docname="listitem.svg"
   inkscape:version="1.0.1 (3bc2e813f5, 2020-09-07)">
  <sodipodi:namedview
     pagecolor="#ffffff"
     bordercolor="#000000"
     borderopacity="1"
     objecttolerance="10"
     gridtolerance="10"
     guidetolerance="10"
     inkscape:pageopacity="0"
     inkscape:pageshadow="2"
     inkscape:window-width="1920"
     inkscape:window-height="1009"
     id="namedview58"
     showgrid="false"
     inkscape:zoom="1.5733333"
     inkscape:cx="97.341379"
     inkscape:cy="-13.565403"
     inkscape:window-x="0"
     inkscape:window-y="0"
     inkscape:window-maximized="1"
     inkscape:current-layer="svg2"
     inkscape:lockguides="false"
     inkscape:document-rotation="0" />
  <metadata
     id="metadata7">
    <rdf:RDF>
      <cc:Work
         rdf:about="">
        <dc:format>image/svg+xml</dc:format>
        <dc:type
           rdf:resource="http://purl.org/dc/dcmitype/StillImage" />
        <dc:title />
      </cc:Work>
      <cc:Work
         rdf:about="">
        <dc:format>image/svg+xml</dc:format>
        <dc:type
           rdf:resource="http://purl.org/dc/dcmitype/StillImage" />
      </cc:Work>
    </rdf:RDF>
  </metadata>
  <defs
     id="defs5">
    <linearGradient
       id="linearGradient915"
       inkscape:collect="always">
      <stop
         id="stop911"
         offset="0"
         style="stop-color:#0094d4;stop-opacity:1" />
      <stop
         id="stop913"
         offset="1"
         style="stop-color:#00d4aa;stop-opacity:1" />
    </linearGradient>
    <style
       type="text/css"
       id="current-color-scheme">      
      }</style>
    <linearGradient
       inkscape:collect="always"
       xlink:href="#linearGradient915"
       id="linearGradient859"
       x1="103"
       y1="-48"
       x2="63"
       y2="-48"
       gradientUnits="userSpaceOnUse" />
    <linearGradient
       inkscape:collect="always"
       xlink:href="#linearGradient915"
       id="linearGradient866"
       x1="4.7425852"
       y1="7.8411016"
       x2="19.742352"
       y2="7.8411164"
       gradientUnits="userSpaceOnUse" />
    <linearGradient
       inkscape:collect="always"
       xlink:href="#linearGradient915"
       id="linearGradient882"
       x1="4.7426291"
       y1="20.841103"
       x2="19.742352"
       y2="20.841103"
       gradientUnits="userSpaceOnUse" />
    <linearGradient
       inkscape:collect="always"
       xlink:href="#linearGradient915"
       id="linearGradient890"
       x1="44.742252"
       y1="5.2252593"
       x2="59.742352"
       y2="5.2252593"
       gradientUnits="userSpaceOnUse" />
    <linearGradient
       inkscape:collect="always"
       xlink:href="#linearGradient915"
       id="linearGradient922"
       x1="44.74263"
       y1="18.225245"
       x2="59.742352"
       y2="18.225245"
       gradientUnits="userSpaceOnUse" />
    <linearGradient
       inkscape:collect="always"
       xlink:href="#linearGradient915"
       id="linearGradient946"
       x1="8.7428856"
       y1="50.841438"
       x2="23.742363"
       y2="50.841446"
       gradientUnits="userSpaceOnUse" />
    <linearGradient
       inkscape:collect="always"
       xlink:href="#linearGradient915"
       id="linearGradient978"
       x1="8.7425919"
       y1="63.841103"
       x2="23.742363"
       y2="63.841103"
       gradientUnits="userSpaceOnUse" />
    <linearGradient
       inkscape:collect="always"
       xlink:href="#linearGradient915"
       id="linearGradient986"
       x1="6.742209"
       y1="83.841057"
       x2="21.742064"
       y2="83.8414"
       gradientUnits="userSpaceOnUse" />
    <linearGradient
       inkscape:collect="always"
       xlink:href="#linearGradient915"
       id="linearGradient1002"
       x1="6.7422924"
       y1="98.840759"
       x2="21.742064"
       y2="98.840759"
       gradientUnits="userSpaceOnUse" />
    <linearGradient
       inkscape:collect="always"
       xlink:href="#linearGradient915"
       id="linearGradient896"
       x1="4.7425852"
       y1="7.8411164"
       x2="19.742285"
       y2="7.8411217"
       gradientUnits="userSpaceOnUse" />
    <linearGradient
       inkscape:collect="always"
       xlink:href="#linearGradient915"
       id="linearGradient906"
       gradientUnits="userSpaceOnUse"
       x1="4.7425852"
       y1="7.8411164"
       x2="19.742285"
       y2="7.8411217" />
    <linearGradient
       inkscape:collect="always"
       xlink:href="#linearGradient915"
       id="linearGradient916"
       gradientUnits="userSpaceOnUse"
       x1="4.7422523"
       y1="7.8411164"
       x2="19.742285"
       y2="7.8411217" />
    <linearGradient
       inkscape:collect="always"
       xlink:href="#linearGradient915"
       id="linearGradient918"
       gradientUnits="userSpaceOnUse"
       x1="4.7425852"
       y1="7.8411164"
       x2="19.742285"
       y2="7.8411217" />
    <linearGradient
       inkscape:collect="always"
       xlink:href="#linearGradient915"
       id="linearGradient928"
       gradientUnits="userSpaceOnUse"
       x1="4.7425852"
       y1="7.8411016"
       x2="19.742352"
       y2="7.8411164" />
    <linearGradient
       inkscape:collect="always"
       xlink:href="#linearGradient915"
       id="linearGradient938"
       gradientUnits="userSpaceOnUse"
       x1="4.7425852"
       y1="18.841106"
       x2="19.742352"
       y2="18.841055" />
    <linearGradient
       inkscape:collect="always"
       xlink:href="#linearGradient915"
       id="linearGradient949"
       gradientUnits="userSpaceOnUse"
       x1="4.7426291"
       y1="20.841103"
       x2="19.742352"
       y2="20.841103" />
    <linearGradient
       inkscape:collect="always"
       xlink:href="#linearGradient915"
       id="linearGradient959"
       gradientUnits="userSpaceOnUse"
       x1="8.7428856"
       y1="50.841438"
       x2="23.742584"
       y2="50.841457" />
    <linearGradient
       inkscape:collect="always"
       xlink:href="#linearGradient915"
       id="linearGradient969"
       gradientUnits="userSpaceOnUse"
       x1="8.7428856"
       y1="50.841438"
       x2="23.742584"
       y2="50.841457" />
    <linearGradient
       inkscape:collect="always"
       xlink:href="#linearGradient915"
       id="linearGradient979"
       gradientUnits="userSpaceOnUse"
       x1="8.7428856"
       y1="50.841446"
       x2="23.742584"
       y2="50.841457" />
    <linearGradient
       inkscape:collect="always"
       xlink:href="#linearGradient915"
       id="linearGradient981"
       gradientUnits="userSpaceOnUse"
       x1="8.7428856"
       y1="50.841438"
       x2="23.742584"
       y2="50.841457" />
    <linearGradient
       inkscape:collect="always"
       xlink:href="#linearGradient915"
       id="linearGradient991"
       gradientUnits="userSpaceOnUse"
       x1="8.7428856"
       y1="50.841438"
       x2="23.742584"
       y2="50.841457" />
    <linearGradient
       inkscape:collect="always"
       xlink:href="#linearGradient915"
       id="linearGradient1001"
       gradientUnits="userSpaceOnUse"
       x1="8.7428856"
       y1="61.841438"
       x2="23.742363"
       y2="61.8414" />
    <linearGradient
       inkscape:collect="always"
       xlink:href="#linearGradient915"
       id="linearGradient1011"
       gradientUnits="userSpaceOnUse"
       x1="8.7428856"
       y1="61.841438"
       x2="23.742584"
       y2="61.841446" />
    <linearGradient
       inkscape:collect="always"
       xlink:href="#linearGradient915"
       id="linearGradient1021"
       gradientUnits="userSpaceOnUse"
       x1="44.742252"
       y1="5.2252593"
       x2="59.742352"
       y2="5.2252593" />
    <linearGradient
       inkscape:collect="always"
       xlink:href="#linearGradient915"
       id="linearGradient1031"
       gradientUnits="userSpaceOnUse"
       x1="44.742584"
       y1="5.2252445"
       x2="59.742352"
       y2="5.2252593" />
    <linearGradient
       inkscape:collect="always"
       xlink:href="#linearGradient915"
       id="linearGradient1043"
       gradientUnits="userSpaceOnUse"
       x1="44.742584"
       y1="5.2252445"
       x2="59.742287"
       y2="5.2252641" />
    <linearGradient
       inkscape:collect="always"
       xlink:href="#linearGradient915"
       id="linearGradient1053"
       gradientUnits="userSpaceOnUse"
       x1="44.742584"
       y1="5.2252445"
       x2="59.742352"
       y2="5.2252593" />
    <linearGradient
       inkscape:collect="always"
       xlink:href="#linearGradient915"
       id="linearGradient1063"
       gradientUnits="userSpaceOnUse"
       x1="44.742584"
       y1="5.2252593"
       x2="59.742287"
       y2="5.2252641" />
    <linearGradient
       inkscape:collect="always"
       xlink:href="#linearGradient915"
       id="linearGradient1073"
       gradientUnits="userSpaceOnUse"
       x1="44.742584"
       y1="16.22525"
       x2="59.742287"
       y2="16.225266" />
    <linearGradient
       inkscape:collect="always"
       xlink:href="#linearGradient915"
       id="linearGradient1083"
       gradientUnits="userSpaceOnUse"
       x1="44.74263"
       y1="18.225245"
       x2="59.742352"
       y2="18.225245" />
    <linearGradient
       inkscape:collect="always"
       xlink:href="#linearGradient915"
       id="linearGradient1093"
       gradientUnits="userSpaceOnUse"
       x1="20"
       y1="88.000008"
       x2="34.999477"
       y2="88" />
    <linearGradient
       inkscape:collect="always"
       xlink:href="#linearGradient915"
       id="linearGradient1101"
       x1="6.7425852"
       y1="85.84111"
       x2="21.742285"
       y2="85.841095"
       gradientUnits="userSpaceOnUse" />
    <linearGradient
       inkscape:collect="always"
       xlink:href="#linearGradient915"
       id="linearGradient1111"
       gradientUnits="userSpaceOnUse"
       x1="6.7425852"
       y1="85.841103"
       x2="21.742285"
       y2="85.841095" />
    <linearGradient
       inkscape:collect="always"
       xlink:href="#linearGradient915"
       id="linearGradient1113"
       gradientUnits="userSpaceOnUse"
       x1="6.7425852"
       y1="85.84111"
       x2="21.742064"
       y2="85.841103" />
    <linearGradient
       inkscape:collect="always"
       xlink:href="#linearGradient915"
       id="linearGradient1123"
       gradientUnits="userSpaceOnUse"
       x1="6.7425852"
       y1="85.84111"
       x2="21.742064"
       y2="85.841103" />
    <linearGradient
       inkscape:collect="always"
       xlink:href="#linearGradient915"
       id="linearGradient1133"
       gradientUnits="userSpaceOnUse"
       x1="6.7425852"
       y1="96.84111"
       x2="21.742285"
       y2="96.841103" />
    <linearGradient
       inkscape:collect="always"
       xlink:href="#linearGradient915"
       id="linearGradient1143"
       gradientUnits="userSpaceOnUse"
       x1="6.7422924"
       y1="98.840759"
       x2="21.742064"
       y2="98.840759" />
  </defs>
  <g
     transform="translate(-2.2574148,-6.1588984)"
     style="opacity:1"
     id="separator">
    <rect
       style="color:#fcfcfc;opacity:0.2;fill:currentColor;fill-opacity:1;stroke:none"
       id="rect4052"
       width="40"
       height="1"
       x="63"
       y="-49"
       transform="scale(1,-1)"
       class="ColorScheme-ViewBackground" />
    <rect
       class="ColorScheme-ViewText"
       transform="scale(1,-1)"
       y="-49"
       x="63"
       height="1"
       width="40"
       id="rect4054"
       style="color:#31363b;opacity:0.45;fill:url(#linearGradient859);fill-opacity:1;stroke:none" />
  </g>
  <path
     class="ColorScheme-ViewBackground"
     style="color:#fcfcfc;opacity:0.05;fill:url(#linearGradient981);fill-opacity:1.0;fill-rule:nonzero;stroke:none"
     d="m 10.742585,50.841447 v 11 h 10.999999 v -11 z"
     id="normal-center"
     inkscape:connector-curvature="0" />
  <path
     class="ColorScheme-ViewBackground"
     style="color:#fcfcfc;opacity:0.05;fill:url(#linearGradient991);fill-opacity:1.0;fill-rule:nonzero;stroke:none"
     d="m 21.742585,50.841447 v 11 h 2 c 6.68e-4,-0.01835 0,-0.03439 0,-0.05288 v -10.89423 c 0,-0.0185 6.68e-4,-0.03453 0,-0.05288 h -2 z"
     id="normal-right"
     inkscape:connector-curvature="0" />
  <path
     class="ColorScheme-ViewBackground"
     style="color:#fcfcfc;opacity:0.05;fill:url(#linearGradient946);fill-opacity:1.0;fill-rule:nonzero;stroke:none"
     d="m 10.742585,48.8414 v 2.000047 H 21.742584 V 48.8414 c -0.0041,-6.7e-4 0.0042,0 10e-7,0 h -10.98814 c -0.004,0 -0.008,-6.7e-4 -0.0119,0 z"
     id="normal-top"
     inkscape:connector-curvature="0" />
  <path
     class="ColorScheme-ViewBackground"
     style="color:#fcfcfc;opacity:0.05;fill:url(#linearGradient979);fill-opacity:1.0;fill-rule:nonzero;stroke:none"
     d="m 8.7428852,50.841447 c -6.7e-4,0.01835 0,0.03439 0,0.05288 v 10.89423 c 0,0.0185 -6.7e-4,0.03453 0,0.05288 h 1.9999998 v -11 H 8.7428852 Z"
     id="normal-left"
     inkscape:connector-curvature="0" />
  <path
     class="ColorScheme-ViewBackground"
     style="color:#fcfcfc;opacity:0.05;fill:url(#linearGradient978);fill-opacity:1.0;fill-rule:nonzero;stroke:none"
     d="m 10.742585,61.841102 v 2 h 11 v -1.999655 z"
     id="normal-bottom"
     inkscape:connector-curvature="0" />
  <path
     class="ColorScheme-ViewBackground"
     id="normal-topleft"
     d="m 8.7425522,48.8414 v 2.000047 H 10.742323 V 48.8414 c -7.46e-4,-6.7e-4 7.63e-4,0 0,0 H 8.7447092 c -7.28e-4,0 -0.0015,-6.7e-4 -0.0022,0 z"
     style="color:#fcfcfc;opacity:0.05;fill:url(#linearGradient959);fill-opacity:1.0;fill-rule:nonzero;stroke:none"
     inkscape:connector-curvature="0" />
  <path
     class="ColorScheme-ViewBackground"
     id="normal-topright"
     d="m 21.742592,48.841745 v 1.999702 h 1.999771 v -1.999702 c -7.46e-4,-6.7e-4 7.63e-4,0 0,0 h -1.997614 c -7.28e-4,0 -0.0015,-6.7e-4 -0.0022,0 z"
     style="color:#fcfcfc;opacity:0.05;fill:url(#linearGradient969);fill-opacity:1.0;fill-rule:nonzero;stroke:none"
     inkscape:connector-curvature="0" />
  <path
     class="ColorScheme-ViewBackground"
     style="color:#fcfcfc;opacity:0.05;fill:url(#linearGradient1011);fill-opacity:1.0;fill-rule:nonzero;stroke:none"
     d="m 21.742592,61.8414 v 1.999702 h 1.999771 V 61.8414 c -7.46e-4,-6.7e-4 7.63e-4,0 0,0 h -1.997614 c -7.28e-4,0 -0.0015,-6.7e-4 -0.0022,0 z"
     id="normal-bottomright"
     inkscape:connector-curvature="0" />
  <path
     class="ColorScheme-ViewBackground"
     id="normal-bottomleft"
     d="m 8.7425922,61.8414 v 1.999702 H 10.742363 V 61.8414 c -7.46e-4,-6.7e-4 7.63e-4,0 0,0 H 8.7447492 c -7.28e-4,0 -0.0015,-6.7e-4 -0.0022,0 z"
     style="color:#fcfcfc;opacity:0.05;fill:url(#linearGradient1001);fill-opacity:1.0;fill-rule:nonzero;stroke:none"
     inkscape:connector-curvature="0" />
  <path
     class="ColorScheme-ViewFocus"
     style="color:#3daee9;opacity:0.05;fill:url(#linearGradient918);fill-opacity:1.0;fill-rule:nonzero;stroke:none"
     d="M 6.7422852,7.8411166 V 18.841122 H 17.742284 V 7.8411166 Z"
     id="pressed-center"
     inkscape:connector-curvature="0" />
  <path
     class="ColorScheme-ViewFocus"
     style="color:#3daee9;opacity:0.05;fill:url(#linearGradient928);fill-opacity:1.0;fill-rule:nonzero;stroke:none"
     d="M 17.742285,7.8411166 V 18.841122 h 2 c 6.68e-4,-0.01835 0,-0.0344 0,-0.05289 V 7.8940016 c 0,-0.0185 6.68e-4,-0.03453 0,-0.05288 h -2 z"
     id="pressed-right"
     inkscape:connector-curvature="0" />
  <path
     class="ColorScheme-ViewFocus"
     style="color:#3daee9;opacity:0.05;fill:url(#linearGradient866);fill-opacity:1.0;fill-rule:nonzero;stroke:none"
     d="m 6.7422852,5.8410696 v 2.000047 H 17.742284 v -2.000047 c -0.0041,-6.7e-4 0.0045,0 3.01e-4,0 H 6.7541452 c -0.004,0 -0.008,-6.7e-4 -0.0119,0 z"
     id="pressed-top"
     inkscape:connector-curvature="0" />
  <path
     class="ColorScheme-ViewFocus"
     style="color:#3daee9;opacity:0.05;fill:url(#linearGradient916);fill-opacity:1.0;fill-rule:nonzero;stroke:none"
     d="m 4.7425852,7.8411166 c -6.7e-4,0.01835 0,0.03439 0,0.05288 V 18.788227 c 0,0.0185 -6.7e-4,0.03453 0,0.05288 h 2 V 7.8411016 h -2 z"
     id="pressed-left"
     inkscape:connector-curvature="0" />
  <path
     class="ColorScheme-ViewFocus"
     style="color:#3daee9;opacity:0.05;fill:url(#linearGradient882);fill-opacity:1.0;fill-rule:nonzero"
     d="m 6.7425852,18.841102 v 2 H 17.742585 v -2 z"
     id="pressed-bottom"
     inkscape:connector-curvature="0" />
  <path
     class="ColorScheme-ViewFocus"
     id="pressed-topleft"
     d="m 4.7422522,5.8410696 v 2.000047 h 1.999722 v -2.000047 c -7.45e-4,-6.7e-4 8.18e-4,0 5.5e-5,0 h -1.997621 c -7.27e-4,0 -0.0015,-6.7e-4 -0.0022,0 z"
     style="color:#3daee9;opacity:0.05;fill:url(#linearGradient896);fill-opacity:1.0;fill-rule:nonzero;stroke:none"
     inkscape:connector-curvature="0" />
  <path
     class="ColorScheme-ViewFocus"
     style="color:#3daee9;opacity:0.05;fill:url(#linearGradient906);fill-opacity:1.0;fill-rule:nonzero;stroke:none"
     d="m 17.742629,5.8410696 v 2.000047 h 1.999722 v -2.000047 c -7.45e-4,-6.7e-4 8.18e-4,0 5.5e-5,0 h -1.997621 c -7.27e-4,0 -0.0015,-6.7e-4 -0.0022,0 z"
     id="pressed-topright"
     inkscape:connector-curvature="0" />
  <path
     class="ColorScheme-ViewFocus"
     id="pressed-bottomright"
     d="m 17.742629,18.841055 v 2.000047 h 1.999722 v -2.000047 c -7.45e-4,-6.7e-4 8.18e-4,0 5.5e-5,0 h -1.997621 c -7.27e-4,0 -0.0015,-6.7e-4 -0.0022,0 z"
     style="color:#3daee9;opacity:0.05;fill:url(#linearGradient949);fill-opacity:1.0;fill-rule:nonzero;stroke:none"
     inkscape:connector-curvature="0" />
  <path
     class="ColorScheme-ViewFocus"
     style="color:#3daee9;opacity:0.05;fill:url(#linearGradient938);fill-opacity:1.0;fill-rule:nonzero;stroke:none"
     d="m 4.7426292,18.841055 v 2.000047 h 1.999722 v -2.000047 c -7.45e-4,-6.7e-4 8.18e-4,0 5.5e-5,0 h -1.997621 c -7.27e-4,0 -0.0015,-6.7e-4 -0.0022,0 z"
     id="pressed-bottomleft"
     inkscape:connector-curvature="0" />
  <path
     class="ColorScheme-ViewBackground"
     style="color:#fcfcfc;opacity:0.05;fill:url(#linearGradient1113);fill-opacity:1.0;fill-rule:nonzero;stroke:none"
     d="m 8.7422852,85.841102 v 11 H 19.742284 v -11 z"
     id="section-center"
     inkscape:connector-curvature="0" />
  <path
     class="ColorScheme-ViewBackground"
     style="color:#fcfcfc;opacity:0.05;fill:url(#linearGradient1123);fill-opacity:1.0;fill-rule:nonzero;stroke:none"
     d="m 19.742285,85.841102 v 11 h 2 c 6.68e-4,-0.0183 0,-0.0344 0,-0.0529 v -10.89423 c 0,-0.0185 6.68e-4,-0.03453 0,-0.05288 h -2 z"
     id="section-right"
     inkscape:connector-curvature="0" />
  <path
     class="ColorScheme-ViewBackground"
     style="color:#fcfcfc;opacity:0.05;fill:url(#linearGradient986);fill-opacity:1.0;fill-rule:nonzero;stroke:none"
     d="m 8.7422852,83.841055 v 2.000047 H 19.742284 v -2.000047 c -0.0041,-6.7e-4 0.0042,0 10e-7,0 H 8.7541452 c -0.004,0 -0.008,-6.7e-4 -0.0119,0 z"
     id="section-top"
     inkscape:connector-curvature="0" />
  <path
     class="ColorScheme-ViewBackground"
     style="color:#fcfcfc;opacity:0.05;fill:url(#linearGradient1111);fill-opacity:1.0;fill-rule:nonzero;stroke:none"
     d="m 6.7425852,85.841102 c -6.7e-4,0.01835 0,0.03439 0,0.05288 v 10.89423 c 0,0.0185 -6.7e-4,0.0345 0,0.0529 h 2 v -11 h -2 z"
     id="section-left"
     inkscape:connector-curvature="0" />
  <path
     class="ColorScheme-ViewBackground"
     style="color:#fcfcfc;opacity:0.05;fill:url(#linearGradient1002);fill-opacity:1.0;fill-rule:nonzero;stroke:none"
     d="m 8.7422852,96.840762 v 2 H 19.742285 v -1.99966 z"
     id="section-bottom"
     inkscape:connector-curvature="0" />
  <g
     id="g872"
     style="fill:#2a4c76;fill-opacity:1"
     transform="translate(-13.257415,-2.1588984)">
    <path
       style="color:#fcfcfc;opacity:0.05;fill:url(#linearGradient1093);fill-opacity:1.0;fill-rule:nonzero;stroke:none"
       d="M 19.999667,85.999953 V 88 h 1.999771 v -2.000047 c -7.46e-4,-6.7e-4 7.63e-4,0 0,0 h -1.997614 c -7.28e-4,0 -0.0015,-6.7e-4 -0.0022,0 z"
       id="section-topleft"
       class="ColorScheme-ViewBackground"
       inkscape:connector-curvature="0" />
  </g>
  <path
     class="ColorScheme-ViewBackground"
     id="section-topright"
     d="m 19.742292,83.8414 v 1.999702 h 1.999771 V 83.8414 c -7.46e-4,-6.7e-4 7.63e-4,0 0,0 h -1.997614 c -7.28e-4,0 -0.0015,-6.7e-4 -0.0022,0 z"
     style="color:#fcfcfc;opacity:0.05;fill:url(#linearGradient1101);fill-opacity:1.0;fill-rule:nonzero;stroke:none"
     inkscape:connector-curvature="0" />
  <path
     class="ColorScheme-ViewBackground"
     style="color:#fcfcfc;opacity:0.05;fill:url(#linearGradient1143);fill-opacity:1.0;fill-rule:nonzero;stroke:none"
     d="m 19.742292,96.841052 v 1.99971 h 1.999771 v -1.99971 c -7.46e-4,-6.7e-4 7.63e-4,0 0,0 h -1.997614 c -7.28e-4,0 -0.0015,-6.7e-4 -0.0022,0 z"
     id="section-bottomright"
     inkscape:connector-curvature="0" />
  <path
     class="ColorScheme-ViewBackground"
     id="section-bottomleft"
     d="m 6.7422922,96.841052 v 1.99971 h 1.999771 v -1.99971 c -7.46e-4,-6.7e-4 7.63e-4,0 0,0 h -1.997614 c -7.28e-4,0 -0.0015,-6.7e-4 -0.0022,0 z"
     style="color:#fcfcfc;opacity:0.05;fill:url(#linearGradient1133);fill-opacity:1.0;fill-rule:nonzero;stroke:none"
     inkscape:connector-curvature="0" />
  <path
     class="ColorScheme-ViewFocus"
     style="color:#3daee9;opacity:0.05;fill:url(#linearGradient1043);fill-opacity:1.0;fill-rule:nonzero;stroke:none"
     d="M 46.742285,5.2252593 V 16.225265 H 57.742284 V 5.2252593 Z"
     id="hover-center"
     inkscape:connector-curvature="0" />
  <path
     class="ColorScheme-ViewFocus"
     style="color:#3daee9;opacity:0.04;fill:url(#linearGradient1053);fill-opacity:1.0;fill-rule:nonzero;stroke:none"
     d="M 57.742285,5.2252593 V 16.225265 h 2 c 6.68e-4,-0.01835 0,-0.0344 0,-0.05289 V 5.2781443 c 0,-0.0185 6.68e-4,-0.03453 0,-0.05288 h -2 z"
     id="hover-right"
     inkscape:connector-curvature="0" />
  <path
     class="ColorScheme-ViewFocus"
     style="color:#3daee9;opacity:0.05;fill:url(#linearGradient890);fill-opacity:1.0;fill-rule:nonzero;stroke:none"
     d="m 46.742285,3.2252123 v 2.000047 h 10.999999 v -2.000047 c -0.0041,-6.7e-4 0.0045,0 3.01e-4,0 h -10.98844 c -0.004,0 -0.008,-6.7e-4 -0.0119,0 z"
     id="hover-top"
     inkscape:connector-curvature="0" />
  <path
     class="ColorScheme-ViewFocus"
     style="color:#3daee9;opacity:0.05;fill:url(#linearGradient1063);fill-opacity:1.0;fill-rule:nonzero;stroke:none"
     d="m 44.742585,5.2252593 c -6.7e-4,0.01835 0,0.03439 0,0.05288 V 16.17237 c 0,0.0185 -6.7e-4,0.03453 0,0.05288 h 2 V 5.2252443 h -2 z"
     id="hover-left"
     inkscape:connector-curvature="0" />
  <path
     class="ColorScheme-ViewFocus"
     style="color:#3daee9;opacity:0.05;fill:url(#linearGradient922);fill-opacity:1.0;fill-rule:nonzero"
     d="m 46.742585,16.225245 v 2 h 11 v -2 z"
     id="hover-bottom"
     inkscape:connector-curvature="0" />
  <path
     class="ColorScheme-ViewFocus"
     id="hover-topleft"
     d="m 44.742252,3.2252123 v 2.000047 h 1.999722 v -2.000047 c -7.45e-4,-6.7e-4 8.18e-4,0 5.5e-5,0 h -1.997621 c -7.27e-4,0 -0.0015,-6.7e-4 -0.0022,0 z"
     style="color:#3daee9;opacity:0.05;fill:url(#linearGradient1021);fill-opacity:1.0;fill-rule:nonzero;stroke:none"
     inkscape:connector-curvature="0" />
  <path
     class="ColorScheme-ViewFocus"
     style="color:#3daee9;opacity:0.04;fill:url(#linearGradient1031);fill-opacity:1.0;fill-rule:nonzero;stroke:none"
     d="m 57.742629,3.2252123 v 2.000047 h 1.999722 v -2.000047 c -7.45e-4,-6.7e-4 8.18e-4,0 5.5e-5,0 h -1.997621 c -7.27e-4,0 -0.0015,-6.7e-4 -0.0022,0 z"
     id="hover-topright"
     inkscape:connector-curvature="0" />
  <path
     class="ColorScheme-ViewFocus"
     id="hover-bottomright"
     d="m 57.742629,16.225198 v 2.000047 h 1.999722 v -2.000047 c -7.45e-4,-6.7e-4 8.18e-4,0 5.5e-5,0 h -1.997621 c -7.27e-4,0 -0.0015,-6.7e-4 -0.0022,0 z"
     style="color:#3daee9;opacity:0.04;fill:url(#linearGradient1083);fill-opacity:1.0;fill-rule:nonzero;stroke:none"
     inkscape:connector-curvature="0" />
  <path
     class="ColorScheme-ViewFocus"
     style="color:#3daee9;opacity:0.05;fill:url(#linearGradient1073);fill-opacity:1.0;fill-rule:nonzero;stroke:none"
     d="m 44.742629,16.225198 v 2.000047 h 1.999722 v -2.000047 c -7.45e-4,-6.7e-4 8.18e-4,0 5.5e-5,0 h -1.997621 c -7.27e-4,0 -0.0015,-6.7e-4 -0.0022,0 z"
     id="hover-bottomleft"
     inkscape:connector-curvature="0" />
  <rect
     style="opacity:0.01;fill:#4e9fac;fill-opacity:1;stroke:none"
     id="hint-stretch-borders"
     width="5"
     height="5"
     x="108.18325"
     y="141.52753" />
</svg>
