<?xml version="1.0" encoding="UTF-8" standalone="no"?>
<svg
   xmlns:dc="http://purl.org/dc/elements/1.1/"
   xmlns:cc="http://creativecommons.org/ns#"
   xmlns:rdf="http://www.w3.org/1999/02/22-rdf-syntax-ns#"
   xmlns:svg="http://www.w3.org/2000/svg"
   xmlns="http://www.w3.org/2000/svg"
   xmlns:xlink="http://www.w3.org/1999/xlink"
   xmlns:sodipodi="http://sodipodi.sourceforge.net/DTD/sodipodi-0.dtd"
   xmlns:inkscape="http://www.inkscape.org/namespaces/inkscape"
   viewBox="0 0 16 16"
   version="1.1"
   id="svg6"
   sodipodi:docname="mail-message.svg"
   inkscape:version="1.0.1 (3bc2e813f5, 2020-09-07)">
  <metadata
     id="metadata10">
    <rdf:RDF>
      <cc:Work
         rdf:about="">
        <dc:format>image/svg+xml</dc:format>
        <dc:type
           rdf:resource="http://purl.org/dc/dcmitype/StillImage" />
      </cc:Work>
    </rdf:RDF>
  </metadata>
  <sodipodi:namedview
     pagecolor="#ffffff"
     bordercolor="#666666"
     borderopacity="1"
     objecttolerance="10"
     gridtolerance="10"
     guidetolerance="10"
     inkscape:pageopacity="0"
     inkscape:pageshadow="2"
     inkscape:window-width="1920"
     inkscape:window-height="1013"
     id="namedview8"
     showgrid="false"
     inkscape:zoom="39.25"
     inkscape:cx="8"
     inkscape:cy="8"
     inkscape:window-x="0"
     inkscape:window-y="0"
     inkscape:window-maximized="1"
     inkscape:current-layer="svg6" />
  <defs
     id="defs3051">
    <linearGradient
       inkscape:collect="always"
       id="linearGradient839">
      <stop
         style="stop-color:#e0b152;stop-opacity:1"
         offset="0"
         id="stop835" />
      <stop
         style="stop-color:#bf616a;stop-opacity:1"
         offset="1"
         id="stop837" />
    </linearGradient>
    <style
       type="text/css"
       id="current-color-scheme">
      .ColorScheme-Text {
        color:#eff0f1;
      }
      </style>
    <linearGradient
       inkscape:collect="always"
       xlink:href="#linearGradient839"
       id="linearGradient841"
       x1="1"
       y1="8"
       x2="15"
       y2="8"
       gradientUnits="userSpaceOnUse" />
  </defs>
  <path
     style="fill:url(#linearGradient841);fill-opacity:1;stroke:none"
     d="M 3 2 L 3 3 L 3 6 L 2 6 L 1 6 L 1 7 L 1 13 L 1 14 L 15 14 L 15 13 L 15 6 L 13.013672 6 L 13.013672 5.5859375 L 13 5.5996094 L 13 3 L 13 2 L 3 2 z M 4 3 L 12 3 L 12 6.5996094 L 11.599609 7 L 11.585938 7 L 8 10.585938 L 4.4140625 7 L 4 6.5859375 L 4 3 z M 5 4 L 5 5 L 11 5 L 11 4 L 5 4 z M 5 6 L 5 7 L 11 7 L 11 6 L 5 6 z M 2 7 L 3 7 L 5 9 L 5.7070312 9.7070312 L 8 12 L 10.292969 9.7070312 L 11 9 L 13 7 L 13.013672 7 L 14 7 L 14 13 L 2 13 L 2 7 z "
     class="ColorScheme-Text"
     id="path4" />
</svg>
