<?xml version="1.0" encoding="UTF-8" standalone="no"?>
<svg
   xmlns:dc="http://purl.org/dc/elements/1.1/"
   xmlns:cc="http://creativecommons.org/ns#"
   xmlns:rdf="http://www.w3.org/1999/02/22-rdf-syntax-ns#"
   xmlns:svg="http://www.w3.org/2000/svg"
   xmlns="http://www.w3.org/2000/svg"
   xmlns:xlink="http://www.w3.org/1999/xlink"
   xmlns:sodipodi="http://sodipodi.sourceforge.net/DTD/sodipodi-0.dtd"
   xmlns:inkscape="http://www.inkscape.org/namespaces/inkscape"
   viewBox="0 0 22 22"
   version="1.1"
   id="svg6"
   sodipodi:docname="mail-folder-sent.svg"
   inkscape:version="1.0.1 (3bc2e813f5, 2020-09-07)">
  <metadata
     id="metadata10">
    <rdf:RDF>
      <cc:Work
         rdf:about="">
        <dc:format>image/svg+xml</dc:format>
        <dc:type
           rdf:resource="http://purl.org/dc/dcmitype/StillImage" />
      </cc:Work>
    </rdf:RDF>
  </metadata>
  <sodipodi:namedview
     pagecolor="#ffffff"
     bordercolor="#666666"
     borderopacity="1"
     objecttolerance="10"
     gridtolerance="10"
     guidetolerance="10"
     inkscape:pageopacity="0"
     inkscape:pageshadow="2"
     inkscape:window-width="1920"
     inkscape:window-height="1013"
     id="namedview8"
     showgrid="false"
     inkscape:zoom="28.545455"
     inkscape:cx="11"
     inkscape:cy="11"
     inkscape:window-x="0"
     inkscape:window-y="0"
     inkscape:window-maximized="1"
     inkscape:current-layer="svg6" />
  <defs
     id="defs3051">
    <linearGradient
       inkscape:collect="always"
       id="linearGradient839">
      <stop
         style="stop-color:#fac136;stop-opacity:1"
         offset="0"
         id="stop835" />
      <stop
         style="stop-color:#006dda;stop-opacity:1"
         offset="1"
         id="stop837" />
    </linearGradient>
    <style
       type="text/css"
       id="current-color-scheme">
      .ColorScheme-Text {
        color:#eff0f1;
      }
      </style>
    <linearGradient
       inkscape:collect="always"
       xlink:href="#linearGradient839"
       id="linearGradient841"
       x1="0"
       y1="11"
       x2="22"
       y2="11"
       gradientUnits="userSpaceOnUse" />
  </defs>
  <path
     style="fill:url(#linearGradient841);fill-opacity:1;stroke:none"
     d="M 6 3 L 6 4 L 19.537109 4 L 12 11.537109 L 6 5.5371094 L 6 6.9511719 L 9.0234375 9.9765625 L 6 13 L 6 14.414062 L 9.7304688 10.683594 L 12 12.951172 L 14.269531 10.683594 L 20.537109 16.951172 L 21 17.414062 L 21 18 L 6 18 L 6 19 L 22 19 L 22 18.414062 L 22 18 L 22 17 L 22 3 L 21.951172 3 L 21 3 L 6 3 z M 20.951172 4 L 21 4 L 21 16 L 14.976562 9.9765625 L 20.951172 4 z M 0 9 L 0 10 L 5 10 L 5 9 L 0 9 z M 2 12 L 2 13 L 5 13 L 5 12 L 2 12 z "
     class="ColorScheme-Text"
     id="path4" />
</svg>
