<?xml version="1.0" encoding="UTF-8" standalone="no"?>
<svg
   xmlns:dc="http://purl.org/dc/elements/1.1/"
   xmlns:cc="http://creativecommons.org/ns#"
   xmlns:rdf="http://www.w3.org/1999/02/22-rdf-syntax-ns#"
   xmlns:svg="http://www.w3.org/2000/svg"
   xmlns="http://www.w3.org/2000/svg"
   xmlns:xlink="http://www.w3.org/1999/xlink"
   xmlns:sodipodi="http://sodipodi.sourceforge.net/DTD/sodipodi-0.dtd"
   xmlns:inkscape="http://www.inkscape.org/namespaces/inkscape"
   width="32.0px"
   height="32.0px"
   viewBox="0 0 32.0 32.0"
   version="1.1"
   id="SVGRoot"
   sodipodi:docname="switch_primary.svg"
   inkscape:version="1.0.1 (3bc2e813f5, 2020-09-07)">
  <defs
     id="defs945">
    <linearGradient
       inkscape:collect="always"
       xlink:href="#linearGradient918"
       id="linearGradient1029"
       x1="82"
       y1="15.899999"
       x2="102"
       y2="15.899999"
       gradientUnits="userSpaceOnUse"
       gradientTransform="translate(-76,0.0590013)" />
    <linearGradient
       id="linearGradient918"
       inkscape:collect="always">
      <stop
         id="stop914"
         offset="0"
         style="stop-color:#006dda;stop-opacity:1" />
      <stop
         id="stop916"
         offset="1"
         style="stop-color:#fac136;stop-opacity:1" />
    </linearGradient>
  </defs>
  <sodipodi:namedview
     id="base"
     pagecolor="#ffffff"
     bordercolor="#666666"
     borderopacity="1.0"
     inkscape:pageopacity="0.0"
     inkscape:pageshadow="2"
     inkscape:zoom="11.2"
     inkscape:cx="25.810342"
     inkscape:cy="17.264373"
     inkscape:document-units="px"
     inkscape:current-layer="layer1"
     inkscape:document-rotation="0"
     showgrid="true"
     inkscape:window-width="1920"
     inkscape:window-height="1013"
     inkscape:window-x="0"
     inkscape:window-y="0"
     inkscape:window-maximized="1">
    <inkscape:grid
       type="xygrid"
       id="grid1515" />
  </sodipodi:namedview>
  <metadata
     id="metadata948">
    <rdf:RDF>
      <cc:Work
         rdf:about="">
        <dc:format>image/svg+xml</dc:format>
        <dc:type
           rdf:resource="http://purl.org/dc/dcmitype/StillImage" />
        <dc:title></dc:title>
      </cc:Work>
    </rdf:RDF>
  </metadata>
  <g
     inkscape:label="Layer 1"
     inkscape:groupmode="layer"
     id="layer1">
    <path
       id="path1011"
       class="ColorScheme-Text"
       d="m 18,8.0590013 c -1.285847,0 -2.416677,0.617761 -3.148438,1.5605469 0.329275,0.112144 0.645954,0.2508111 0.945313,0.4179688 C 16.345252,9.4401145 17.12515,9.0590013 18,9.0590013 c 1.656852,0 3,1.3431467 3,2.9999997 0,1.398728 -0.960744,2.564273 -2.255859,2.896484 6.21e-4,0.03481 0.0059,0.06856 0.0059,0.103516 0,0.318095 -0.03235,0.627594 -0.08203,0.931641 C 20.557605,15.671438 22,14.039456 22,12.059001 22,9.8498633 20.209142,8.0590013 18,8.0590013 Z M 13,20.059001 c -3.881058,0 -7,2.689616 -7,6.435547 0.0033,0.527414 0.06906,1.051937 0.198034,1.564453 h 1.111737 11.662458 0.884292 c 0.128998,-0.512516 0.140592,-1.036586 0.143479,-1.564 0,-3.745931 -3.118942,-6.436 -7,-6.436 z m 0.027,0.992 c 3.813868,0 5.973,2.274365 5.973,5.444 -0.0011,0.174256 -0.01135,0.347611 -0.029,0.521 H 7.029 C 7.01135,26.842612 7.00159,26.668804 7,26.494548 7,23.324913 9.179706,21.051001 12.972735,21.051001 Z m 6.224205,-3.992043 c -0.25686,0 -0.509035,0.01606 -0.758429,0.04297 C 18.366926,17.485625 18.201343,17.85299 18,18.19959 c 0.410411,-0.09117 0.830028,-0.138336 1.251205,-0.140627 3.153826,1e-6 5.710515,2.46245 5.710515,5.500033 -9e-4,0.166968 -0.009,0.333807 -0.0264,0.500003 h -4.53029 c 0.108739,0.321192 0.202605,0.648801 0.269709,0.986334 l 5.134641,0.01367 C 25.93326,24.567839 25.99723,24.064435 26,23.558993 26,19.969122 22.97845,17.058954 19.251205,17.058955 Z M 13,11.059001 c -2.209143,0 -4,1.790862 -4,4 0,2.20914 1.790857,4.000001 4,4 2.209142,1e-6 4,-1.79086 4,-4 0,-2.209138 -1.790858,-4 -4,-4 z m 0,1 c 1.656852,0 3,1.343147 3,3 0,1.656854 -1.343148,3.000001 -3,3 -1.656852,1e-6 -3,-1.343146 -3,-3 0,-1.656853 1.343148,-3 3,-3 z M 16.027,3.859 c -2.034737,0 -3.684211,1.6454851 -3.684211,3.6752924 V 8.1495763 L 10.736,6.4470013 10.123,7.1899538 12.356,9.4170013 13,10.059001 13.582,9.3163293 15.646,7.0890013 15.002,6.4472922 13.295,8.1500013 v -0.616 c 0,-1.449863 1.278621,-2.6249178 2.732,-2.6249178 1.453379,0 1.973,0.519045 1.973,1.968908 h 1 C 19,4.7778243 17.883088,3.8980786 16.027,3.859 Z"
       style="color:#31363b;fill:url(#linearGradient1029);fill-opacity:1;stroke:none" />
  </g>
</svg>
