<?xml version="1.0" encoding="UTF-8" standalone="no"?>
<svg
   xmlns:dc="http://purl.org/dc/elements/1.1/"
   xmlns:cc="http://creativecommons.org/ns#"
   xmlns:rdf="http://www.w3.org/1999/02/22-rdf-syntax-ns#"
   xmlns:svg="http://www.w3.org/2000/svg"
   xmlns="http://www.w3.org/2000/svg"
   xmlns:sodipodi="http://sodipodi.sourceforge.net/DTD/sodipodi-0.dtd"
   xmlns:inkscape="http://www.inkscape.org/namespaces/inkscape"
   inkscape:version="1.0.1 (3bc2e813f5, 2020-09-07)"
   sodipodi:docname="folder-publicshare.svg"
   id="svg12"
   version="1.1"
   viewBox="0 0 64 64">
  <metadata
     id="metadata16">
    <rdf:RDF>
      <cc:Work
         rdf:about="">
        <dc:format>image/svg+xml</dc:format>
        <dc:type
           rdf:resource="http://purl.org/dc/dcmitype/StillImage" />
        <dc:title />
      </cc:Work>
    </rdf:RDF>
  </metadata>
  <sodipodi:namedview
     inkscape:document-rotation="0"
     inkscape:current-layer="svg12"
     inkscape:window-maximized="1"
     inkscape:window-y="0"
     inkscape:window-x="0"
     inkscape:cy="33.956387"
     inkscape:cx="-34.055691"
     inkscape:zoom="5.2609472"
     showgrid="false"
     id="namedview14"
     inkscape:window-height="1019"
     inkscape:window-width="1920"
     inkscape:pageshadow="2"
     inkscape:pageopacity="0"
     guidetolerance="10"
     gridtolerance="10"
     objecttolerance="10"
     borderopacity="1"
     bordercolor="#666666"
     pagecolor="#ffffff" />
  <defs
     id="defs3051">
    <style
       id="current-color-scheme"
       type="text/css">
      .ColorScheme-Text {
        color:#31363b;
      }
      .ColorScheme-Background {
        color:#eff0f1;
      }
      .ColorScheme-Highlight {
        color:#3daee9;
      }
      .ColorScheme-ViewText {
        color:#31363b;
      }
      .ColorScheme-ViewBackground {
        color:#fcfcfc;
      }
      .ColorScheme-ViewHover {
        color:#93cee9;
      }
      .ColorScheme-ViewFocus{
        color:#3daee9;
      }
      .ColorScheme-ButtonText {
        color:#31363b;
      }
      .ColorScheme-ButtonBackground {
        color:#eff0f1;
      }
      .ColorScheme-ButtonHover {
        color:#93cee9;
      }
      .ColorScheme-ButtonFocus{
        color:#3daee9;
      }
      </style>
  </defs>
  <g
     id="g8"
     transform="matrix(0.11428571,0,0,0.11428571,3.7762141,4.2052238)">
    <path
       d="M 439.5,84 H 234.729 L 198.09,45.279 C 182.464,28.269 164.607,20 143.5,20 h -88 C 24.897,20 0,44.897 0,75.5 v 344 C 0,450.103 24.897,475 55.5,475 h 384 c 30.603,0 55.5,-24.897 55.5,-55.5 v -280 C 495,108.897 470.103,84 439.5,84 Z M 480,419.5 c 0,22.332 -18.168,40.5 -40.5,40.5 H 55.5 C 33.168,460 15,441.832 15,419.5 v -232 C 15,165.168 33.168,147 55.5,147 h 384 c 22.332,0 40.5,18.168 40.5,40.5 z M 439.5,132 H 55.5 C 39.536,132 25.135,138.784 15,149.61 V 75.5 C 15,53.168 33.168,35 55.5,35 h 88 c 16.92,0 30.768,6.503 43.579,20.465 0.026,0.028 0.052,0.057 0.079,0.084 l 38.895,41.105 C 227.469,98.151 229.439,99 231.5,99 h 208 c 22.332,0 40.5,18.168 40.5,40.5 v 10.11 C 469.865,138.784 455.464,132 439.5,132 Z"
       id="path2"
       style="fill-opacity:1;fill:#8585ad" />
    <path
       d="m 431.5,180 h -104 c -4.142,0 -7.5,3.357 -7.5,7.5 0,4.143 3.358,7.5 7.5,7.5 h 104 c 4.142,0 7.5,-3.357 7.5,-7.5 0,-4.143 -3.358,-7.5 -7.5,-7.5 z"
       id="path4-3"
       style="fill:#d3dae3;fill-opacity:1" />
    <path
       d="m 431.5,220 h -104 c -4.142,0 -7.5,3.357 -7.5,7.5 0,4.143 3.358,7.5 7.5,7.5 h 104 c 4.142,0 7.5,-3.357 7.5,-7.5 0,-4.143 -3.358,-7.5 -7.5,-7.5 z"
       id="path6-6"
       style="fill:#d3dae3;fill-opacity:1" />
  </g>
  <path
     style="color:#eff0f1;fill:#80b2b2;fill-opacity:1;stroke:none;stroke-width:0.770365"
     d="M 14.499999,38.3 C 12.727209,38.3 11.3,39.62344 11.3,41.267327 c 0,1.643898 1.427209,2.967325 3.199999,2.967325 1.772793,0 3.200002,-1.323427 3.200002,-2.967325 C 17.700001,39.62344 16.272792,38.3 14.499999,38.3 Z m 0,0.741837 c 1.329593,0 2.400002,0.992577 2.400002,2.22549 0,1.232913 -1.070409,2.2255 -2.400002,2.2255 -1.32959,0 -2.4,-0.992587 -2.4,-2.2255 0,-1.232913 1.07041,-2.22549 2.4,-2.22549 z m 7.200002,0 c -1.3296,0 -2.4,0.992567 -2.4,2.22549 0,1.232922 1.0704,2.2255 2.4,2.2255 1.329599,0 2.399999,-0.992578 2.399999,-2.2255 0,-1.232923 -1.0704,-2.22549 -2.399999,-2.22549 z m 0,0.741823 c 0.886399,0 1.599999,0.661715 1.599999,1.483667 0,0.82195 -0.7136,1.483665 -1.599999,1.483665 -0.8864,0 -1.6,-0.661715 -1.6,-1.483665 0,-0.821952 0.7136,-1.483667 1.6,-1.483667 z m 0,4.450992 c -0.8864,0 -1.685666,0.331547 -2.264066,0.867886 l 0.565626,0.524502 c 0.433803,-0.402263 1.03364,-0.650549 1.69844,-0.650549 1.329599,0 2.399999,0.992566 2.399999,2.225497 v 2.225493 h -2.399999 v 0.741834 H 24.9 v -2.967327 c 0,-1.643902 -1.4272,-2.967336 -3.199999,-2.967336 z m -7.200002,0.741839 C 11.3976,44.976491 8.9,47.292489 8.9,50.169315 v 2.967325 h 11.200001 v -2.967325 c 0,-2.876826 -2.4976,-5.192824 -5.600002,-5.192824 z m 0,0.741829 c 2.659202,0 4.800002,1.985141 4.800002,4.450995 v 2.225488 H 9.7 v -2.225488 c 0,-2.465854 2.140799,-4.450995 4.799999,-4.450995 z"
     class="ColorScheme-Background"
     id="path12" />
</svg>
