<?xml version="1.0" encoding="UTF-8" standalone="no"?>
<svg
   xmlns:dc="http://purl.org/dc/elements/1.1/"
   xmlns:cc="http://creativecommons.org/ns#"
   xmlns:rdf="http://www.w3.org/1999/02/22-rdf-syntax-ns#"
   xmlns:svg="http://www.w3.org/2000/svg"
   xmlns="http://www.w3.org/2000/svg"
   xmlns:sodipodi="http://sodipodi.sourceforge.net/DTD/sodipodi-0.dtd"
   xmlns:inkscape="http://www.inkscape.org/namespaces/inkscape"
   inkscape:version="1.0.1 (3bc2e813f5, 2020-09-07)"
   sodipodi:docname="folder-cloud.svg"
   id="svg12"
   version="1.1"
   viewBox="0 0 64 64">
  <metadata
     id="metadata16">
    <rdf:RDF>
      <cc:Work
         rdf:about="">
        <dc:format>image/svg+xml</dc:format>
        <dc:type
           rdf:resource="http://purl.org/dc/dcmitype/StillImage" />
        <dc:title />
      </cc:Work>
    </rdf:RDF>
  </metadata>
  <sodipodi:namedview
     inkscape:document-rotation="0"
     inkscape:current-layer="svg12"
     inkscape:window-maximized="1"
     inkscape:window-y="0"
     inkscape:window-x="0"
     inkscape:cy="33.956387"
     inkscape:cx="-34.055691"
     inkscape:zoom="5.2609472"
     showgrid="false"
     id="namedview14"
     inkscape:window-height="1019"
     inkscape:window-width="1920"
     inkscape:pageshadow="2"
     inkscape:pageopacity="0"
     guidetolerance="10"
     gridtolerance="10"
     objecttolerance="10"
     borderopacity="1"
     bordercolor="#666666"
     pagecolor="#ffffff" />
  <defs
     id="defs3051">
    <style
       id="current-color-scheme"
       type="text/css">
      .ColorScheme-Text {
        color:#31363b;
      }
      .ColorScheme-Background {
        color:#eff0f1;
      }
      .ColorScheme-Highlight {
        color:#3daee9;
      }
      .ColorScheme-ViewText {
        color:#31363b;
      }
      .ColorScheme-ViewBackground {
        color:#fcfcfc;
      }
      .ColorScheme-ViewHover {
        color:#93cee9;
      }
      .ColorScheme-ViewFocus{
        color:#3daee9;
      }
      .ColorScheme-ButtonText {
        color:#31363b;
      }
      .ColorScheme-ButtonBackground {
        color:#eff0f1;
      }
      .ColorScheme-ButtonHover {
        color:#93cee9;
      }
      .ColorScheme-ButtonFocus{
        color:#3daee9;
      }
      </style>
  </defs>
  <g
     id="g8"
     transform="matrix(0.11428571,0,0,0.11428571,3.7762141,4.2052238)">
    <path
       d="M 439.5,84 H 234.729 L 198.09,45.279 C 182.464,28.269 164.607,20 143.5,20 h -88 C 24.897,20 0,44.897 0,75.5 v 344 C 0,450.103 24.897,475 55.5,475 h 384 c 30.603,0 55.5,-24.897 55.5,-55.5 v -280 C 495,108.897 470.103,84 439.5,84 Z M 480,419.5 c 0,22.332 -18.168,40.5 -40.5,40.5 H 55.5 C 33.168,460 15,441.832 15,419.5 v -232 C 15,165.168 33.168,147 55.5,147 h 384 c 22.332,0 40.5,18.168 40.5,40.5 z M 439.5,132 H 55.5 C 39.536,132 25.135,138.784 15,149.61 V 75.5 C 15,53.168 33.168,35 55.5,35 h 88 c 16.92,0 30.768,6.503 43.579,20.465 0.026,0.028 0.052,0.057 0.079,0.084 l 38.895,41.105 C 227.469,98.151 229.439,99 231.5,99 h 208 c 22.332,0 40.5,18.168 40.5,40.5 v 10.11 C 469.865,138.784 455.464,132 439.5,132 Z"
       id="path2"
       style="fill-opacity:1;fill:#8585ad" />
    <path
       d="m 431.5,180 h -104 c -4.142,0 -7.5,3.357 -7.5,7.5 0,4.143 3.358,7.5 7.5,7.5 h 104 c 4.142,0 7.5,-3.357 7.5,-7.5 0,-4.143 -3.358,-7.5 -7.5,-7.5 z"
       id="path4-3"
       style="fill:#d3dae3;fill-opacity:1" />
    <path
       d="m 431.5,220 h -104 c -4.142,0 -7.5,3.357 -7.5,7.5 0,4.143 3.358,7.5 7.5,7.5 h 104 c 4.142,0 7.5,-3.357 7.5,-7.5 0,-4.143 -3.358,-7.5 -7.5,-7.5 z"
       id="path6-6"
       style="fill:#d3dae3;fill-opacity:1" />
  </g>
  <path
     id="path12"
     class="ColorScheme-Background"
     d="m 18.233338,38.300227 a 5.4444487,5.4444487 0 0 0 -5.444453,5.444446 5.4444487,5.4444487 0 0 0 0.06228,0.779296 3.8888913,3.8888913 0 0 0 -0.06228,-0.002 A 3.8888913,3.8888913 0 0 0 8.9,48.411115 3.8888913,3.8888913 0 0 0 12.788885,52.3 H 22.900012 A 4.6666692,4.6666692 0 0 0 27.566686,47.633338 4.6666692,4.6666692 0 0 0 23.624614,43.027439 5.4444487,5.4444487 0 0 0 18.233338,38.3 Z m 0,0.777782 a 4.6666692,4.6666692 0 0 1 0.46636,0.0228 4.6666692,4.6666692 0 0 1 2.167751,0.792969 4.6666692,4.6666692 0 0 1 0.002,0 4.6666692,4.6666692 0 0 1 1.019312,0.949432 4.6666692,4.6666692 0 0 1 0,0.002 4.6666692,4.6666692 0 0 1 0.94488,2.125219 4.6666692,4.6666692 0 0 1 0.06678,0.7747 3.8888913,3.8888913 0 0 1 0.774741,0.07751 3.8888913,3.8888913 0 0 1 0.375217,0.0957 3.8888913,3.8888913 0 0 1 0.002,0 3.8888913,3.8888913 0 0 1 0.363065,0.133681 3.8888913,3.8888913 0 0 1 0.002,0 3.8888913,3.8888913 0 0 1 0.347877,0.168621 3.8888913,3.8888913 0 0 1 0.0035,0.002 3.8888913,3.8888913 0 0 1 0.328126,0.202038 3.8888913,3.8888913 0 0 1 0.0035,0.002 3.8888913,3.8888913 0 0 1 0.30686,0.233941 3.8888913,3.8888913 0 0 1 0.002,0.002 3.8888913,3.8888913 0 0 1 0.282551,0.262804 3.8888913,3.8888913 0 0 1 0.002,0.002 3.8888913,3.8888913 0 0 1 0.481553,0.607639 3.8888913,3.8888913 0 0 1 0.002,0.002 3.8888913,3.8888913 0 0 1 0.191409,0.33572 3.8888913,3.8888913 0 0 1 0.002,0.002 3.8888913,3.8888913 0 0 1 0.157988,0.35243 3.8888913,3.8888913 0 0 1 0.002,0.002 3.8888913,3.8888913 0 0 1 0.121526,0.367622 3.8888913,3.8888913 0 0 1 0,0.002 3.8888913,3.8888913 0 0 1 0.08504,0.378253 3.8888913,3.8888913 0 0 1 0,0.002 3.8888913,3.8888913 0 0 1 0.04705,0.384331 3.8888913,3.8888913 0 0 1 0.0089,0.274627 3.8888913,3.8888913 0 0 1 -3.888891,3.888896 H 12.788962 a 3.1111136,3.1111136 0 0 1 -3.1111116,-3.11124 3.1111136,3.1111136 0 0 1 0.015164,-0.309899 3.1111136,3.1111136 0 0 1 3.0959246,-2.801213 3.1111136,3.1111136 0 0 1 0.232416,0.01059 3.1111136,3.1111136 0 0 1 0,0.002 3.1111136,3.1111136 0 0 1 0.899309,0.203559 4.6666692,4.6666692 0 0 1 -0.265843,-0.891711 4.6666692,4.6666692 0 0 1 -0.05776,-0.394966 4.6666692,4.6666692 0 0 1 -0.01059,-0.08963 4.6666692,4.6666692 0 0 1 -0.01979,-0.395002 4.6666692,4.6666692 0 0 1 0.0228,-0.466361 4.6666692,4.6666692 0 0 1 4.643887,-4.200308 z"
     style="color:#eff0f1;fill:#80b2b2;fill-opacity:1;stroke:none;stroke-width:0.777774" />
</svg>
