<?xml version="1.0" encoding="UTF-8" standalone="no"?>
<svg
   xmlns:dc="http://purl.org/dc/elements/1.1/"
   xmlns:cc="http://creativecommons.org/ns#"
   xmlns:rdf="http://www.w3.org/1999/02/22-rdf-syntax-ns#"
   xmlns:svg="http://www.w3.org/2000/svg"
   xmlns="http://www.w3.org/2000/svg"
   xmlns:xlink="http://www.w3.org/1999/xlink"
   xmlns:sodipodi="http://sodipodi.sourceforge.net/DTD/sodipodi-0.dtd"
   xmlns:inkscape="http://www.inkscape.org/namespaces/inkscape"
   inkscape:version="1.0.1 (3bc2e813f5, 2020-09-07)"
   sodipodi:docname="folder-html.svg"
   id="svg12"
   version="1.1"
   viewBox="0 0 64 64">
  <metadata
     id="metadata16">
    <rdf:RDF>
      <cc:Work
         rdf:about="">
        <dc:format>image/svg+xml</dc:format>
        <dc:type
           rdf:resource="http://purl.org/dc/dcmitype/StillImage" />
        <dc:title />
      </cc:Work>
    </rdf:RDF>
  </metadata>
  <sodipodi:namedview
     inkscape:document-rotation="0"
     inkscape:current-layer="svg12"
     inkscape:window-maximized="1"
     inkscape:window-y="0"
     inkscape:window-x="0"
     inkscape:cy="33.956387"
     inkscape:cx="-34.055691"
     inkscape:zoom="5.2609472"
     showgrid="false"
     id="namedview14"
     inkscape:window-height="1019"
     inkscape:window-width="1920"
     inkscape:pageshadow="2"
     inkscape:pageopacity="0"
     guidetolerance="10"
     gridtolerance="10"
     objecttolerance="10"
     borderopacity="1"
     bordercolor="#666666"
     pagecolor="#ffffff" />
  <defs
     id="defs3051">
    <linearGradient
       inkscape:collect="always"
       id="linearGradient848">
      <stop
         style="stop-color:#00c4c4;stop-opacity:1"
         offset="0"
         id="stop844" />
      <stop
         style="stop-color:#7f2aff;stop-opacity:1"
         offset="1"
         id="stop846" />
    </linearGradient>
    <style
       id="current-color-scheme"
       type="text/css">
      .ColorScheme-Text {
        color:#31363b;
      }
      .ColorScheme-Background {
        color:#eff0f1;
      }
      .ColorScheme-Highlight {
        color:#3daee9;
      }
      .ColorScheme-ViewText {
        color:#31363b;
      }
      .ColorScheme-ViewBackground {
        color:#fcfcfc;
      }
      .ColorScheme-ViewHover {
        color:#93cee9;
      }
      .ColorScheme-ViewFocus{
        color:#3daee9;
      }
      .ColorScheme-ButtonText {
        color:#31363b;
      }
      .ColorScheme-ButtonBackground {
        color:#eff0f1;
      }
      .ColorScheme-ButtonHover {
        color:#93cee9;
      }
      .ColorScheme-ButtonFocus{
        color:#3daee9;
      }
      </style>
    <linearGradient
       inkscape:collect="always"
       xlink:href="#linearGradient848"
       id="linearGradient850"
       x1="0"
       y1="247.5"
       x2="495"
       y2="247.5"
       gradientUnits="userSpaceOnUse" />
  </defs>
  <g
     id="g8"
     transform="matrix(0.11428571,0,0,0.11428571,3.7762141,4.2052238)"
     style="fill-opacity:1;fill:url(#linearGradient850)">
    <path
       d="M 439.5,84 H 234.729 L 198.09,45.279 C 182.464,28.269 164.607,20 143.5,20 h -88 C 24.897,20 0,44.897 0,75.5 v 344 C 0,450.103 24.897,475 55.5,475 h 384 c 30.603,0 55.5,-24.897 55.5,-55.5 v -280 C 495,108.897 470.103,84 439.5,84 Z M 480,419.5 c 0,22.332 -18.168,40.5 -40.5,40.5 H 55.5 C 33.168,460 15,441.832 15,419.5 v -232 C 15,165.168 33.168,147 55.5,147 h 384 c 22.332,0 40.5,18.168 40.5,40.5 z M 439.5,132 H 55.5 C 39.536,132 25.135,138.784 15,149.61 V 75.5 C 15,53.168 33.168,35 55.5,35 h 88 c 16.92,0 30.768,6.503 43.579,20.465 0.026,0.028 0.052,0.057 0.079,0.084 l 38.895,41.105 C 227.469,98.151 229.439,99 231.5,99 h 208 c 22.332,0 40.5,18.168 40.5,40.5 v 10.11 C 469.865,138.784 455.464,132 439.5,132 Z"
       id="path2"
       style="fill-opacity:1;fill:#8585ad" />
    <path
       d="m 431.5,180 h -104 c -4.142,0 -7.5,3.357 -7.5,7.5 0,4.143 3.358,7.5 7.5,7.5 h 104 c 4.142,0 7.5,-3.357 7.5,-7.5 0,-4.143 -3.358,-7.5 -7.5,-7.5 z"
       id="path4-3"
       style="fill:#d3dae3;fill-opacity:1" />
    <path
       d="m 431.5,220 h -104 c -4.142,0 -7.5,3.357 -7.5,7.5 0,4.143 3.358,7.5 7.5,7.5 h 104 c 4.142,0 7.5,-3.357 7.5,-7.5 0,-4.143 -3.358,-7.5 -7.5,-7.5 z"
       id="path6-6"
       style="fill:#d3dae3;fill-opacity:1" />
  </g>
  <path
     style="color:#eff0f1;fill:#80b2b2;fill-opacity:1;stroke:none;stroke-width:0.799999"
     d="m 16.900005,37.3 c -0.277004,0 -0.555409,0.02279 -0.825004,0.04998 -0.539178,0.05444 -1.048373,0.144636 -1.550001,0.300005 -2.508081,0.776835 -4.498166,2.766917 -5.275007,5.275006 C 9.094634,43.426613 9.004426,43.93581 8.94999,44.474997 8.92279,44.744586 8.9,45.022997 8.9,45.299994 c 0,0.277003 0.02279,0.555411 0.04999,0.825003 0.0544,0.539184 0.144644,1.048383 0.300003,1.550003 0.776841,2.50809 2.766926,4.498171 5.275007,5.275007 0.501628,0.155369 1.010823,0.245571 1.550001,0.300003 0.269595,0.02722 0.548,0.04999 0.825004,0.04999 0.276996,0 0.555417,-0.02278 0.824995,-0.04999 0.539189,-0.05444 1.048387,-0.144634 1.550006,-0.300003 0.501012,-0.155832 0.996586,-0.378693 1.450002,-0.625 1.813973,-0.982975 3.203538,-2.643533 3.825005,-4.650007 0.155367,-0.50162 0.245572,-1.010819 0.300004,-1.550003 0.0272,-0.269592 0.05001,-0.548 0.05001,-0.825003 0,-0.276135 -0.02272,-0.556066 -0.05001,-0.824997 -0.0544,-0.539187 -0.144637,-1.048384 -0.300004,-1.550006 -0.310729,-1.003233 -0.82389,-1.935387 -1.475004,-2.724999 C 22.911977,40.002437 22.730974,39.83095 22.550011,39.649986 21.82701,38.926985 20.982759,38.328734 20.025008,37.924984 19.785733,37.82379 19.525512,37.727902 19.275006,37.649985 18.773387,37.494616 18.264189,37.404414 17.725,37.34998 17.455422,37.32276 17.177001,37.3 16.900005,37.3 Z m 0,0.799999 c 1.210642,0 2.348659,0.297129 3.35,0.825004 0.02646,0.01396 0.04875,0.03572 0.07496,0.04999 0.02025,0.02681 0.0144,0.05537 0.04998,0.07498 0.02616,0.01458 0.05044,0.03698 0.07496,0.04998 0.04216,0.02326 0.08369,0.05925 0.07495,0.09999 -0.01158,0.05958 -0.10928,0.05633 -0.150005,0.100005 0.0056,0.08437 -0.02825,0.06831 -0.04999,0.125002 0.01312,0.03642 0.04424,0.0314 0.04999,0.07498 -0.0074,0.04659 -0.0675,0.052 -0.04999,0.09999 0.07859,0.06112 0.150822,0.01024 0.224992,0 0.162899,-0.02041 0.299648,0.0035 0.400002,-0.07497 -0.01056,-0.0622 0.04889,-0.08 0.07495,-0.125003 0.05312,0.0372 0.09795,0.08639 0.15,0.125003 -0.03059,0.01312 -0.09738,0.03255 -0.124997,0.04998 -0.04076,0.0276 -0.05344,0.06948 -0.09999,0.09999 -0.0334,0.02329 -0.115087,0.100005 -0.150005,0.100005 -0.04215,0 -0.119451,-0.03515 -0.149995,-0.02501 -0.04366,0.01312 -0.0256,0.08258 -0.07495,0.100005 -0.09599,0.03491 -0.266556,-0.09394 -0.3,0.04999 0.04074,0.0829 0.17728,0.05493 0.249999,0.100005 0.04512,0.02912 0.113366,0.175562 0.124993,0.225003 0.01159,0.04074 0.01741,0.181384 0,0.224994 -0.04512,0.11632 -0.166192,0.102915 -0.300001,0.09998 -0.03643,0 -0.06655,0.0032 -0.09999,0 -0.225432,-0.01459 -0.448178,-0.08638 -0.549995,0.07498 0.0074,0.123589 0.02766,0.192398 0,0.3 -0.02034,0.0785 -0.104369,0.131656 -0.09998,0.199999 0.0019,0.03488 0.06624,0.10201 0.07496,0.149999 0.0056,0.02616 -0.01166,0.07677 0,0.100005 0.03784,0.07127 0.133099,-0.0116 0.200001,0 0.064,0.01025 0.125001,0.103751 0.125001,0.174997 0,0.05088 -0.01799,0.15056 -0.04999,0.2 -0.064,0.09596 -0.183367,0.07266 -0.275002,0.125003 -0.07559,0.0436 -0.104915,0.149383 -0.149999,0.225001 -0.048,0.0814 -0.09395,0.108681 -0.07496,0.225001 -0.06542,0.129408 -0.139739,0.212471 -0.274995,0.275 -0.03926,0.01742 -0.08862,0.04885 -0.125005,0.07498 -0.02912,0.02034 -0.0592,0.0534 -0.09998,0.09999 -0.05089,0.05675 -0.122366,0.08137 -0.149997,0.125003 -0.02041,0.03341 -0.0032,0.104927 -0.02496,0.149996 -0.032,0.06112 -0.08431,0.11393 -0.125001,0.175002 -0.01888,0.02912 -0.05472,0.06213 -0.07497,0.100006 -0.04659,0.08437 -0.10873,0.15085 -0.100005,0.224998 0.0074,0.07126 0.09566,0.0875 0.100005,0.150004 0.0037,0.03489 -0.02648,0.06216 -0.02498,0.100005 0.0019,0.05524 0.02061,0.08136 0.02498,0.125 0.01026,0.1076 -0.05471,0.150841 -0.07493,0.224997 -0.01024,0.0349 0.0088,0.07235 0,0.100005 -0.01741,0.05385 -0.09857,0.08606 -0.09999,0.150005 -0.0019,0.04512 0.07065,0.08608 0.07495,0.149996 0.0032,0.04358 -0.03379,0.08432 -0.02498,0.125001 0.016,0.07859 0.163919,0.188929 0.224999,0.250004 0.08292,0.0829 0.163646,0.137752 0.2,0.224997 0.03058,0.07416 0.0433,0.194745 0.09999,0.250001 0.04216,0.04071 0.121195,0.05787 0.175,0.100015 0.05089,0.03926 0.121186,0.05782 0.175005,0.100005 0.08875,0.06984 0.208908,0.210182 0.349997,0.2 0.07416,-0.0056 0.142096,-0.03549 0.225,-0.04997 0.08583,-0.01459 0.18774,-0.05874 0.275,-0.04998 0.06689,0.0074 0.130194,0.0544 0.2,0.04998 0.07277,-0.0037 0.167106,-0.03868 0.250002,-0.07498 0.143991,-0.06259 0.365567,-0.180534 0.574997,-0.149996 0.159988,0.02325 0.163011,0.203746 0.275002,0.274998 0.127983,0.01158 0.223192,-0.02475 0.324998,0 0.07712,0.01889 0.167735,0.16393 0.175002,0.225002 0.0074,0.0626 -0.04128,0.110742 -0.05,0.149997 -0.02034,0.08438 -0.0355,0.196203 -0.04998,0.250003 -0.01158,0.04215 -0.02643,0.08283 -0.02496,0.124996 0,0.03784 0.0607,0.125564 0.100005,0.175004 0.048,0.06112 0.116824,0.108112 0.175005,0.175 0.106173,0.122134 0.150822,0.288587 0.224995,0.449999 0.01888,0.04075 -0.01742,0.04911 0,0.09999 -0.032,0.244291 -0.115014,0.404544 -0.274996,0.675004 -0.07559,0.08722 -0.151455,0.190946 -0.149998,0.299999 -0.0056,0.261729 0.13664,0.396992 0.124994,0.649996 -0.02616,0.340255 0.0019,0.393251 -0.02496,0.575004 0.114908,0.05815 0.05839,0.229307 0.02496,0.350003 -0.04942,0.143937 -0.09738,0.179032 -0.124994,0.274998 0.05966,0.02583 0.109625,0.03228 0.174998,0.025 -1.309962,1.361937 -3.161088,2.200001 -5.200004,2.200001 -0.954396,0 -1.866514,-0.187763 -2.700004,-0.525 -0.0032,-0.0014 0.0032,-0.02384 0,-0.02501 0.07559,-0.032 0.219728,0.05619 0.274999,-0.04999 0.02766,-0.05088 -0.03642,-0.149104 0,-0.2 0.02616,-0.03488 0.196192,-0.06629 0.249999,-0.07498 0.07711,-0.01311 0.15637,0.0025 0.2,-0.02499 0.048,-0.03059 0.108729,-0.10985 0.100005,-0.2 -0.0037,-0.04216 -0.0417,-0.06219 -0.07495,-0.100006 -0.02758,-0.032 -0.0064,-0.07089 -0.02496,-0.09999 -0.03488,-0.05089 -0.08543,-0.07579 -0.100005,-0.150005 0.104719,-0.02034 0.248746,0.117196 0.4,0.07498 0.07126,-0.02042 0.191548,-0.158122 0.225002,-0.225001 0.01024,-0.02042 -0.01159,-0.100257 0,-0.125003 0.0131,-0.02758 0.04562,-0.03549 0.04998,-0.04998 0.01024,-0.03927 -0.0088,-0.05042 0,-0.07499 0.02616,-0.07415 0.106362,-0.121197 0.150003,-0.175 0.03341,-0.04073 0.06944,-0.08284 0.100005,-0.125 0.03489,-0.04512 0.05183,-0.06065 0.07495,-0.100005 0.02184,-0.132321 -0.08198,-0.233677 -0.04999,-0.349997 0.0349,-0.130865 0.223469,-0.215388 0.349998,-0.275003 0.04358,-0.02042 0.08862,-0.06198 0.125001,-0.07497 0.08723,-0.03059 0.193551,-0.021 0.274999,-0.04996 0.136723,-0.04942 0.18309,-0.19996 0.250005,-0.325003 0.032,-0.05816 0.06912,-0.107832 0.07495,-0.149997 0.0056,-0.03784 -0.0074,-0.08137 0,-0.125001 0.0074,-0.04358 0.01344,-0.07704 0.02496,-0.125002 0.016,-0.0626 0.02496,-0.180207 0.02496,-0.249999 0,-0.05816 -0.02354,-0.07266 -0.02496,-0.124998 -0.01024,-0.189028 0.0552,-0.19677 0.125002,-0.300001 0.03488,-0.0509 0.05039,-0.138655 0.07495,-0.175001 0.117805,-0.174491 0.314545,-0.260366 0.3,-0.525 -0.0056,-0.08726 -0.03601,-0.272374 -0.09999,-0.300001 -0.03641,-0.016 -0.121185,-0.0045 -0.175003,-0.02499 -0.171622,-0.064 -0.29611,-0.260465 -0.475001,-0.275002 -0.03784,-0.002 -0.05785,0.0019 -0.09999,0 -0.06984,-0.002 -0.146465,-0.0663 -0.225001,-0.07499 -0.04942,-0.0056 -0.145911,0.01459 -0.174999,0 -0.04512,-0.02184 -0.03865,-0.100297 -0.07495,-0.125002 -0.02911,-0.02039 -0.0799,-0.03399 -0.124998,-0.04999 -0.07128,-0.02758 -0.117094,-0.04416 -0.2,-0.04998 -0.02616,-0.0019 -0.09594,0.0038 -0.125003,0 -0.04512,-0.0074 -0.08284,-0.04885 -0.125001,-0.07498 -0.05234,-0.032 -0.07815,-0.0549 -0.100005,-0.09999 0.048,-0.157042 -0.117997,-0.183402 -0.149997,-0.27501 -0.01459,-0.04215 0.01459,-0.112182 0,-0.149994 -0.01888,-0.05384 -0.06536,-0.07992 -0.125002,-0.124999 -0.104721,-0.0814 -0.200191,-0.156105 -0.350004,-0.175001 -0.06689,-0.0074 -0.145002,0.0056 -0.224994,0 -0.08439,-0.0056 -0.18601,-0.05233 -0.250005,-0.125 -0.06112,-0.07124 -0.07121,-0.14156 -0.125001,-0.175 -0.05088,-0.032 -0.140092,-0.04165 -0.175001,-0.07499 -0.016,-0.01458 -0.01043,-0.04165 -0.02495,-0.07498 -0.02616,-0.05241 -0.08197,-0.06105 -0.04998,-0.124995 -0.05816,-0.0291 -0.03744,0.03665 -0.100005,0.02501 -0.05677,-0.08 -0.09705,-0.124716 -0.225001,-0.09999 -0.05816,0.01159 -0.106644,0.09859 -0.174999,0.09999 -0.05676,0.002 -0.10083,-0.08982 -0.175005,-0.09999 -0.05674,-0.0074 -0.135723,0.05874 -0.175,0.04999 -0.06259,-0.01158 -0.06834,-0.08714 -0.124999,-0.125002 -0.04216,-0.02766 -0.126725,-0.101432 -0.15,-0.09998 -0.07273,0.0019 -0.12465,0.153803 -0.225001,0.09998 -0.04942,-0.06259 0.08321,-0.06688 0.02496,-0.125004 -0.04357,-0.04358 -0.06504,0.002 -0.100025,0.025 -0.04069,0.02759 -0.0799,0.05905 -0.124996,0.07498 -0.100368,0.03784 -0.171466,0.0344 -0.250003,0.07498 -0.0727,0.03785 -0.08282,0.10084 -0.125,0.174997 -0.03341,0.06111 -0.09909,0.147088 -0.149999,0.150001 -0.06112,0.0038 -0.119727,-0.07673 -0.175001,-0.100025 -0.167255,-0.07272 -0.261832,0.04856 -0.400001,0.04998 -0.127995,0.0019 -0.305813,-0.204303 -0.300001,-0.324998 0.0037,-0.07416 0.04129,-0.183404 0.04998,-0.275001 0.0074,-0.07275 0.0737,-0.133111 0.07495,-0.2 0.0019,-0.0887 -0.141819,-0.164813 -0.2,-0.174998 -0.136721,-0.02475 -0.319371,0.0611 -0.475001,0 -0.02911,-0.04942 0.0575,-0.07704 0.07495,-0.125003 0.01024,-0.02758 -0.01025,-0.04444 0,-0.07497 0.01741,-0.04659 0.07815,-0.07556 0.100005,-0.125005 0.016,-0.03784 0.0091,-0.103459 0.02494,-0.150002 0.0189,-0.05243 0.07059,-0.0872 0.07495,-0.124994 0.0056,-0.04942 -0.03576,-0.118012 -0.07495,-0.150005 -0.120719,0.0074 -0.205187,0.01834 -0.274997,0.04999 -0.15708,0.07125 -0.116466,0.275565 -0.275003,0.324997 -0.05385,0.01741 -0.13891,0.03981 -0.199999,0.04999 0.103457,-0.52342 0.264769,-1.024039 0.475002,-1.500002 0.05523,0.01024 0.102008,0.04563 0.149996,0.04999 0.133809,0.01024 0.139458,-0.09182 0.250005,-0.15 0.113447,0.016 0.171729,-0.0116 0.274999,0 0.06984,0.0074 0.169734,0.09566 0.225,0.100005 0.0466,0.0019 0.0563,-0.05729 0.09999,-0.04998 0.04359,0.0074 0.117727,0.09765 0.124997,0.150003 0.0074,0.0654 -0.04399,0.127293 -0.02496,0.2 0.06841,0.06985 0.202552,0.109288 0.299999,0.149997 0.064,-0.05241 0.01025,-0.174384 0,-0.249997 -0.002,-0.0334 0.0038,-0.0694 0,-0.100005 -0.0074,-0.05234 -0.02496,-0.10493 -0.02496,-0.150003 0,-0.207925 0.160382,-0.293571 0.300003,-0.375002 0.05957,-0.03488 0.122642,-0.09883 0.174998,-0.124999 0.07416,-0.03643 0.113917,-0.04015 0.175004,-0.07499 0.110529,-0.06258 0.214184,-0.128744 0.299999,-0.200001 0.03926,-0.09451 -0.0036,-0.206944 0,-0.3 0.03926,-0.02474 0.05786,0.0037 0.09999,0 0.06689,-0.01459 0.08719,-0.112201 0.125001,-0.149997 0.02185,-0.02185 0.09881,-0.02824 0.125,-0.04998 0.0669,-0.05243 0.06681,-0.126728 0.125,-0.149996 0.02042,-0.0074 0.06794,-0.01629 0.09999,-0.025 0.04366,-0.01158 0.105194,-0.05041 0.174998,-0.07498 0.04511,-0.016 0.157549,-0.0078 0.175002,-0.02501 0.02185,-0.02185 -0.0056,-0.116554 0,-0.15 0.03489,-0.164304 0.278102,-0.169737 0.424999,-0.224999 0.101818,-0.03924 0.21155,-0.121817 0.325001,-0.09999 -0.02184,0.0785 -0.118913,0.05548 -0.100015,0.149999 0.02475,0.132322 0.17846,-0.03114 0.225002,-0.04998 0.08873,-0.03784 0.258637,-0.05783 0.375001,-0.100005 0.10182,-0.03634 0.270979,-0.107223 0.174996,-0.224999 -0.08,-0.0056 -0.105186,0.0709 -0.174996,0.100005 -0.048,0.0074 -0.0593,-0.02212 -0.100015,-0.02501 -0.03927,-0.0019 -0.0607,0.03227 -0.09999,0.02501 -0.03929,-0.0074 -0.09418,-0.07849 -0.100025,-0.125001 -0.016,-0.122139 0.12556,-0.159848 0.174999,-0.25 -0.03341,-0.110514 -0.181919,-0.0064 -0.274999,-0.04998 0.01024,-0.06541 0.0479,-0.136904 0.125002,-0.149999 0.06259,-0.01024 0.212185,0.01976 0.249997,0.04998 0.02185,0.01888 -0.0085,0.0694 0.02496,0.100005 0.03784,0.03341 0.100568,0.0074 0.150005,0 0.01741,-0.0829 -0.114545,-0.04617 -0.100015,-0.100005 0.09891,-0.064 0.279276,-0.03401 0.399999,-0.04998 0.06984,-0.01024 0.137456,-0.06652 0.2,-0.100005 0.05815,-0.0334 0.113913,-0.08029 0.175,-0.02501 0.01741,0.05957 -0.0417,0.09447 -0.07495,0.124999 -0.111994,0.09889 -0.212738,0.210137 -0.3,0.324999 0.05385,0.05243 0.134824,0.01483 0.224995,0.02501 0.03489,0.0037 0.08861,0.01925 0.125004,0.025 0.04366,0.0074 0.09007,-0.0074 0.124999,0 0.06111,0.01459 0.0639,0.09999 0.125001,0.09999 0.09892,0 0.106758,-0.0831 0.04998,-0.150008 0.01741,-0.06841 0.04984,-0.127004 0.02496,-0.174997 -0.0451,-0.09014 -0.216271,0.01482 -0.225004,-0.100005 -0.0056,-0.07272 0.07385,-0.09471 0.09999,-0.149999 -0.01156,-0.139585 0.114548,-0.148494 0.09999,-0.275005 -0.0074,-0.05242 -0.06359,-0.05061 -0.09999,-0.100005 -0.01888,-0.02615 -0.02824,-0.08112 -0.04996,-0.100005 -0.07558,-0.064 -0.216271,-0.05286 -0.225,-0.174999 -0.0037,-0.07272 0.01024,-0.121487 0,-0.2 -0.01024,-0.07416 -0.08606,-0.285456 -0.149996,-0.3 -0.08142,-0.01741 -0.127557,0.129927 -0.225003,0.174999 -0.05234,0.02476 -0.146192,0.03525 -0.2,0.02501 -0.03489,-0.0074 -0.09565,-0.03319 -0.100025,-0.100005 -0.0037,-0.03855 0.009,-0.05221 0.02496,-0.07497 0.0036,-0.0053 -0.0037,-0.01938 0,-0.025 0.6328,-0.181859 1.308719,-0.274998 2.000001,-0.274998 z m -2.975004,0.650004 c -0.07096,0.227289 -0.276428,0.357041 -0.550003,0.349998 -0.06688,0.064 -0.03865,0.186299 -0.07495,0.275 -0.03059,0.07416 -0.125836,0.130828 -0.199999,0.125003 -0.05384,-0.0038 -0.150007,-0.0741 -0.150007,-0.125003 0,-0.04173 0.04032,-0.08882 0.04998,-0.124998 0.294438,-0.190381 0.603099,-0.353544 0.924998,-0.5 z m 6.125004,0.249998 c -0.0268,0.0046 -0.05144,0.01115 -0.07493,0.02501 -0.05526,0.03341 -0.05787,0.08398 -0.100005,0.09999 -0.05959,0.02185 -0.141271,0.02121 -0.150005,0.07497 -0.0074,0.04512 0.05151,0.05932 0.04999,0.100025 -0.02185,0.05384 -0.0633,0.05952 -0.07496,0.125007 0.07416,0.120686 0.258388,0.0016 0.350008,-0.025 0.04073,-0.01158 0.07814,0.0068 0.100005,-0.02501 0.02472,-0.03924 0.0064,-0.119739 0.02496,-0.174995 0.02043,-0.06112 0.08228,-0.04618 0.07496,-0.100006 -0.0056,-0.05385 -0.109823,-0.108721 -0.200002,-0.100005 z m -7.925008,0.925003 c 0.05336,0.06437 0.09796,0.157876 0,0.2 -0.01458,0.0074 -0.190098,0.03229 -0.224996,0.02501 -0.01081,-0.0019 -0.01531,-0.01824 -0.02496,-0.02501 0.0765,-0.07427 0.170321,-0.129166 0.250002,-0.2 z m 0.2,0.249999 c 0.03489,0.0019 0.0593,0.07215 0.100025,0.07497 0.03925,0.0032 0.101688,-0.03227 0.124998,-0.025 0.06111,0.016 0.08321,0.12992 0.02498,0.174998 -0.048,0.0056 -0.06514,-0.05728 -0.09999,-0.04998 -0.09891,0.01741 -0.12582,0.205816 -0.2,0.2 -0.06984,-0.0074 -0.121301,-0.149108 -0.04998,-0.2 0.0019,-0.04366 -0.028,-0.05636 -0.02496,-0.100015 0.02184,-0.02759 0.06679,-0.07928 0.124998,-0.07497 z m -0.324996,0.04998 c 0.02041,0 0.0177,-0.0088 0.02496,0 -0.01024,0.07707 -0.0404,0.08863 -0.09999,0.125 -0.103264,0.06259 -0.166541,0.141229 -0.2,0.275 -0.01024,0.03925 -0.125554,0.16017 -0.175,0.150002 -0.114901,-0.02473 0.04882,-0.241558 0.07495,-0.274998 0.02911,-0.03639 0.06656,-0.05925 0.09998,-0.100005 0.03341,-0.04073 0.04301,-0.126738 0.07495,-0.150005 0.03488,-0.02469 0.138919,-0.02794 0.2,-0.025 z m 9.85001,0.2 c 0.114891,-0.0074 0.17264,0.130204 0.224999,0.2 0.04356,0.05671 0.17872,0.135736 0.250003,0.175004 0.04073,0.02184 0.0799,0.05467 0.124998,0.07498 0.04723,0.02109 0.119184,0.04875 0.175002,0.100005 0.05582,0.0513 0.09781,0.128472 0.100005,0.175002 0.0019,0.04659 -0.03232,0.08138 -0.02496,0.125002 0.0504,0.0077 0.07656,-0.04305 0.09999,-0.100026 0.188509,0.268901 0.349053,0.555875 0.5,0.850006 -0.03064,0.01897 -0.04385,0.03751 -0.04998,0.07497 -0.01458,0.0814 0.04716,0.185465 -0.07496,0.2 -0.07705,0.01024 -0.16883,-0.07676 -0.275002,-0.100005 -0.04358,-0.01024 -0.115094,0.0116 -0.149996,0 -0.08,-0.02758 -0.05664,-0.127015 -0.125007,-0.174996 -0.03923,-0.02766 -0.137458,-0.06779 -0.2,-0.07498 -0.03923,-0.0036 -0.0593,0.0056 -0.100005,0 -0.0494,-0.0056 -0.134277,-2.78e-4 -0.174997,-0.02501 -0.03928,-0.02473 -0.139814,-0.06652 -0.15,-0.09999 -0.016,-0.05384 0.122095,-0.12992 0.124997,-0.174999 0.0032,-0.03488 -0.04274,-0.04768 -0.04999,-0.100005 -0.0056,-0.032 0.0074,-0.07965 0,-0.100005 -0.01024,-0.03784 -0.06534,-0.07355 -0.125006,-0.07498 -0.05243,0 -0.104906,0.025 -0.149994,0.025 -0.064,0.0019 -0.195013,-0.03227 -0.275005,-0.025 -0.048,0.0037 -0.0799,0.02212 -0.124995,0.025 -0.126541,0.01024 -0.201101,-0.0074 -0.3,0 -0.07128,0.0037 -0.208103,0.04453 -0.275006,0.07498 -0.0334,0.016 -0.0563,0.05321 -0.09998,0.07498 -0.02034,0.01024 -0.04879,0.0134 -0.07496,0.02501 -0.04073,0.01888 -0.110729,0.06484 -0.150001,0.07498 -0.05676,0.01458 -0.121736,-0.0037 -0.224996,0 -0.07416,0.0037 -0.198549,-0.01136 -0.2,-0.100005 -0.002,-0.135225 0.247015,-0.07676 0.374997,-0.09999 0.048,-0.01024 0.06681,-0.06659 0.125005,-0.100005 0.02766,-0.016 0.04877,-0.03256 0.07495,-0.04999 0.04359,-0.0306 0.117726,-0.09008 0.125003,-0.125002 0.0056,-0.032 -0.02944,-0.07677 -0.02496,-0.100005 0.0056,-0.03059 0.0607,-0.06073 0.09999,-0.09998 0.06112,-0.06112 0.09937,-0.135741 0.174999,-0.174999 0.05088,-0.0276 0.151731,-0.03437 0.174998,-0.07498 0.0056,-0.04659 -0.0019,-0.05783 0,-0.100005 0.032,-0.02911 0.02382,-0.04424 0.05,-0.04998 0.07859,-0.01741 0.158372,0.02939 0.249993,0.025 0.03931,-0.0019 0.08286,0.0028 0.125003,-0.025 0.03491,-0.02326 0.06514,-0.05755 0.100006,-0.07497 0.03785,-0.02042 0.0784,-0.07215 0.125003,-0.07497 z m -9.175013,0.07499 c 0.0193,-0.003 0.05166,0.0025 0.07495,0 0.0334,-0.002 0.06362,0 0.100005,0 0.03642,0 0.08543,-0.01458 0.09999,0 -0.02325,0.09597 -0.249369,0.05994 -0.325003,0.025 0.0019,-0.01819 0.03072,-0.02195 0.04998,-0.025 z m -0.274997,0.174998 c 0.02472,0 0.0488,-0.01024 0.07495,0 -0.06688,0.05676 -0.158638,0.08864 -0.274998,0.125002 -0.05526,0.01741 -0.139815,0.03603 -0.150002,-0.02501 -0.01166,-0.07557 0.05056,-0.06779 0.100015,-0.07497 0.064,-0.0074 0.175832,-0.02359 0.250002,-0.025 z m 9.475009,0 c -0.048,0.016 -0.07121,0.111928 0,0.125002 0.03341,-0.02034 0.03378,-0.0639 0.02496,-0.125002 -0.01889,-0.02034 -0.01045,-0.0056 -0.02496,0 z m -0.02496,0.2 c -0.02323,0.0074 -0.05036,-0.0016 -0.07496,0.025 0.0019,0.0814 0.016,0.128753 0,0.2 0.04659,0.09014 0.151731,0.03602 0.174999,-0.02499 0.02766,-0.151227 -0.03016,-0.218907 -0.09999,-0.2 z m 0.625008,0.400003 c -0.064,-0.0032 -0.112188,0.01975 -0.150005,0.04998 0.05385,0.08721 0.154278,0.103185 0.275006,0.124994 0.04358,-0.032 0.02963,-0.119738 0.05001,-0.174996 -0.05243,0 -0.08604,0.0032 -0.149998,0 z m -12.700031,3.07502 c 0.0511,0.06511 0.106324,0.141014 0.175002,0.175002 0.03641,0.01888 0.0785,0.01481 0.124997,0.02501 0.03784,0.0074 0.06372,0.0384 0.100015,0.04999 0.07711,0.02615 0.18892,0.0224 0.250003,0.04999 0.09307,0.04074 0.144997,0.203465 0.224997,0.249999 0.0037,0.04659 -0.01459,0.09009 0,0.125002 0.03784,0.0509 0.113904,0.0666 0.175003,0.09999 0.07416,0.04071 0.105196,0.143005 0.175006,0.174997 0.02468,0.01025 0.06214,-0.01158 0.100015,0 0.09599,0.02912 0.117092,0.174711 0.2,0.150004 0.05384,-0.016 0.06623,-0.09766 0.07495,-0.150004 0.03641,-0.03925 0.06824,-0.09998 0.125007,-0.09998 0.09014,-0.002 0.116538,0.111312 0.149992,0.200001 0.01888,0.0494 0.06194,0.09766 0.07495,0.150004 0.02185,0.09014 0.01888,0.346197 0,0.399999 -0.02328,0.06688 -0.11973,0.102298 -0.175001,0.175 -0.02616,0.03489 -0.0547,0.07676 -0.07495,0.09998 -0.03488,0.04357 -0.07378,0.06076 -0.100016,0.100016 -0.01458,0.02185 -0.0119,0.06946 -0.02495,0.100005 -0.04366,0.09303 -0.111388,0.163033 -0.07495,0.274995 0.01459,0.04512 0.07495,0.0962 0.07495,0.150006 0,0.064 -0.139815,0.08022 -0.15,0.149994 -0.0074,0.05088 0.05902,0.156659 0.07496,0.225005 0.01159,0.05088 0.09446,0.09152 0.125001,0.125002 0.05091,0.0567 0.103459,0.127293 0.149998,0.199999 0.0916,0.141038 0.134844,0.311858 0.225002,0.449998 0.048,0.07126 0.142998,0.124394 0.174998,0.199999 0.016,0.03784 -0.01458,0.115115 0,0.150003 0.05234,0.117778 0.307194,0.241839 0.425002,0.3 0.05525,0.02766 0.09911,0.04589 0.150004,0.07498 0.07712,0.04366 0.235735,0.131663 0.274997,0.2 0.03489,0.06112 0.0575,0.202584 0.07495,0.3 0.02184,0.127956 -0.0056,0.236851 0,0.374996 0.0037,0.07559 0.02497,0.124388 0.02497,0.2 0,0.02615 0.002,0.07383 0,0.09999 -0.0019,0.09014 0.0074,0.183403 0,0.275002 -0.0037,0.0494 -0.0032,0.107833 0,0.150001 0.0037,0.04512 0.04712,0.06074 0.04998,0.100005 0.0032,0.04215 -0.0544,0.09153 -0.04998,0.125002 0.01024,0.09158 0.107544,0.165663 0.124999,0.249994 0.0146,0.06691 0.0337,0.220026 0.02496,0.3 -0.0056,0.04216 -0.0192,0.103472 -0.02496,0.150006 -0.0037,0.03643 0.0056,0.06659 0,0.09999 -1.993368,-1.280432 -3.325004,-3.504842 -3.325004,-6.050012 0,-0.326302 0.03296,-0.635203 0.07495,-0.949997 z m 2.750007,0.724998 c 0.06985,-0.032 0.05676,0.09128 0,0.100005 -0.05384,0.0074 -0.05234,-0.07525 0,-0.100005 z"
     class="ColorScheme-Background"
     id="path12" />
</svg>
