<?xml version="1.0" encoding="UTF-8" standalone="no"?>
<svg
   xmlns:dc="http://purl.org/dc/elements/1.1/"
   xmlns:cc="http://creativecommons.org/ns#"
   xmlns:rdf="http://www.w3.org/1999/02/22-rdf-syntax-ns#"
   xmlns:svg="http://www.w3.org/2000/svg"
   xmlns="http://www.w3.org/2000/svg"
   xmlns:xlink="http://www.w3.org/1999/xlink"
   xmlns:sodipodi="http://sodipodi.sourceforge.net/DTD/sodipodi-0.dtd"
   xmlns:inkscape="http://www.inkscape.org/namespaces/inkscape"
   viewBox="0 0 16 16"
   version="1.1"
   id="svg6"
   sodipodi:docname="folder-image-people.svg"
   inkscape:version="1.0.1 (3bc2e813f5, 2020-09-07)">
  <metadata
     id="metadata10">
    <rdf:RDF>
      <cc:Work
         rdf:about="">
        <dc:format>image/svg+xml</dc:format>
        <dc:type
           rdf:resource="http://purl.org/dc/dcmitype/StillImage" />
      </cc:Work>
    </rdf:RDF>
  </metadata>
  <sodipodi:namedview
     pagecolor="#ffffff"
     bordercolor="#666666"
     borderopacity="1"
     objecttolerance="10"
     gridtolerance="10"
     guidetolerance="10"
     inkscape:pageopacity="0"
     inkscape:pageshadow="2"
     inkscape:window-width="1920"
     inkscape:window-height="1013"
     id="namedview8"
     showgrid="false"
     inkscape:zoom="39.25"
     inkscape:cx="8"
     inkscape:cy="8"
     inkscape:window-x="0"
     inkscape:window-y="0"
     inkscape:window-maximized="1"
     inkscape:current-layer="svg6" />
  <defs
     id="defs3051">
    <linearGradient
       inkscape:collect="always"
       id="linearGradient839">
      <stop
         style="stop-color:#007fff;stop-opacity:1"
         offset="0"
         id="stop835" />
      <stop
         style="stop-color:#fac136;stop-opacity:1"
         offset="1"
         id="stop837" />
    </linearGradient>
    <style
       type="text/css"
       id="current-color-scheme">
      .ColorScheme-Text {
        color:#eff0f1;
      }
      </style>
    <linearGradient
       inkscape:collect="always"
       xlink:href="#linearGradient839"
       id="linearGradient841"
       x1="426.45969"
       y1="543.7262"
       x2="433.50433"
       y2="534.21234"
       gradientUnits="userSpaceOnUse" />
  </defs>
  <path
     style="fill:url(#linearGradient841);fill-opacity:1;stroke:none"
     d="m429.71429 533.79074a3 3 0 0 0 -3 3 3 3 0 0 0 3 3 3 3 0 0 0 3 -3 3 3 0 0 0 -3 -3m0 1a2 2 0 0 1 2 2 2 2 0 0 1 -2 2 2 2 0 0 1 -2 -2 2 2 0 0 1 2 -2m0 6a5 4.5 0 0 0 -5 4.5 5 4.5 0 0 0 .0332 .5h9.93a5 4.5 0 0 0 .0371 -.5 5 4.5 0 0 0 -5 -4.5m.00005 1a4 3.5 0 0 1 3.95508 3h-7.91a4 3.5 0 0 1 3.95508 -3"
     transform="translate(-421.71-531.79)"
     class="ColorScheme-Text"
     id="path4" />
</svg>
