<?xml version="1.0" encoding="UTF-8" standalone="no"?>
<svg
   inkscape:version="1.2.1 (9c6d41e410, 2022-07-14)"
   sodipodi:docname="folder-relax.svg"
   id="svg14"
   version="1.1"
   viewBox="0 0 32 32"
   xmlns:inkscape="http://www.inkscape.org/namespaces/inkscape"
   xmlns:sodipodi="http://sodipodi.sourceforge.net/DTD/sodipodi-0.dtd"
   xmlns:xlink="http://www.w3.org/1999/xlink"
   xmlns="http://www.w3.org/2000/svg"
   xmlns:svg="http://www.w3.org/2000/svg"
   xmlns:rdf="http://www.w3.org/1999/02/22-rdf-syntax-ns#"
   xmlns:cc="http://creativecommons.org/ns#"
   xmlns:dc="http://purl.org/dc/elements/1.1/">
  <metadata
     id="metadata18">
    <rdf:RDF>
      <cc:Work
         rdf:about="">
        <dc:format>image/svg+xml</dc:format>
        <dc:type
           rdf:resource="http://purl.org/dc/dcmitype/StillImage" />
      </cc:Work>
    </rdf:RDF>
  </metadata>
  <sodipodi:namedview
     inkscape:document-rotation="0"
     inkscape:current-layer="svg14"
     inkscape:window-maximized="1"
     inkscape:window-y="0"
     inkscape:window-x="0"
     inkscape:cy="28"
     inkscape:cx="-21.355932"
     inkscape:zoom="7.375"
     showgrid="false"
     id="namedview16"
     inkscape:window-height="1002"
     inkscape:window-width="1920"
     inkscape:pageshadow="2"
     inkscape:pageopacity="0"
     guidetolerance="10"
     gridtolerance="10"
     objecttolerance="10"
     borderopacity="1"
     bordercolor="#666666"
     pagecolor="#ffffff"
     showguides="false"
     inkscape:showpageshadow="2"
     inkscape:pagecheckerboard="0"
     inkscape:deskcolor="#d1d1d1" />
  <defs
     id="defs3051">
    <linearGradient
       inkscape:collect="always"
       id="linearGradient838">
      <stop
         style="stop-color:#00aa88;stop-opacity:1"
         offset="0"
         id="stop834" />
      <stop
         style="stop-color:#008fb2;stop-opacity:1"
         offset="1"
         id="stop836" />
    </linearGradient>
    <style
       id="current-color-scheme"
       type="text/css">
      .ColorScheme-Text {
        color:#31363b;
      }
      .ColorScheme-Background {
        color:#eff0f1;
      }
      .ColorScheme-Highlight {
        color:#3daee9;
      }
      .ColorScheme-ViewText {
        color:#31363b;
      }
      .ColorScheme-ViewBackground {
        color:#fcfcfc;
      }
      .ColorScheme-ViewHover {
        color:#93cee9;
      }
      .ColorScheme-ViewFocus{
        color:#3daee9;
      }
      .ColorScheme-ButtonText {
        color:#31363b;
      }
      .ColorScheme-ButtonBackground {
        color:#eff0f1;
      }
      .ColorScheme-ButtonHover {
        color:#93cee9;
      }
      .ColorScheme-ButtonFocus{
        color:#3daee9;
      }
      </style>
    <linearGradient
       inkscape:collect="always"
       xlink:href="#linearGradient838"
       id="linearGradient840"
       x1="0"
       y1="247.5"
       x2="495"
       y2="247.5"
       gradientUnits="userSpaceOnUse" />
    <linearGradient
       inkscape:collect="always"
       xlink:href="#linearGradient838"
       id="linearGradient848"
       x1="320"
       y1="187.5"
       x2="439"
       y2="187.5"
       gradientUnits="userSpaceOnUse" />
    <linearGradient
       inkscape:collect="always"
       xlink:href="#linearGradient838"
       id="linearGradient856"
       x1="320"
       y1="227.5"
       x2="439"
       y2="227.5"
       gradientUnits="userSpaceOnUse" />
    <linearGradient
       inkscape:collect="always"
       xlink:href="#linearGradient826"
       id="linearGradient828"
       x1="1010.4748"
       y1="668.99896"
       x2="989"
       y2="1784"
       gradientUnits="userSpaceOnUse" />
    <linearGradient
       inkscape:collect="always"
       id="linearGradient826">
      <stop
         style="stop-color:#00bbdc;stop-opacity:1"
         offset="0"
         id="stop822" />
      <stop
         style="stop-color:#004150;stop-opacity:1"
         offset="1"
         id="stop824" />
    </linearGradient>
    <linearGradient
       inkscape:collect="always"
       xlink:href="#linearGradient866-3"
       id="linearGradient836"
       x1="350"
       y1="1228"
       x2="956.5163"
       y2="622.93909"
       gradientUnits="userSpaceOnUse" />
    <linearGradient
       id="linearGradient866-3"
       inkscape:collect="always">
      <stop
         id="stop862"
         offset="0"
         style="stop-color:#004150;stop-opacity:1" />
      <stop
         id="stop864"
         offset="1"
         style="stop-color:#00cddc;stop-opacity:1" />
    </linearGradient>
    <linearGradient
       inkscape:collect="always"
       xlink:href="#linearGradient826"
       id="linearGradient844-6"
       x1="1034"
       y1="613"
       x2="1658"
       y2="1235"
       gradientUnits="userSpaceOnUse" />
    <linearGradient
       inkscape:collect="always"
       xlink:href="#linearGradient866-3"
       id="linearGradient852"
       x1="287"
       y1="581"
       x2="953.15686"
       y2="575.52887"
       gradientUnits="userSpaceOnUse" />
    <linearGradient
       inkscape:collect="always"
       xlink:href="#linearGradient826"
       id="linearGradient860"
       x1="1050.1224"
       y1="573.51508"
       x2="1707.3715"
       y2="573.51508"
       gradientUnits="userSpaceOnUse" />
  </defs>
  <g
     id="g8"
     transform="matrix(0.05714286,0,0,0.05714286,2.0659532,2.2289435)">
    <path
       d="M 439.5,84 H 234.729 L 198.09,45.279 C 182.464,28.269 164.607,20 143.5,20 h -88 C 24.897,20 0,44.897 0,75.5 v 344 C 0,450.103 24.897,475 55.5,475 h 384 c 30.603,0 55.5,-24.897 55.5,-55.5 v -280 C 495,108.897 470.103,84 439.5,84 Z M 480,419.5 c 0,22.332 -18.168,40.5 -40.5,40.5 H 55.5 C 33.168,460 15,441.832 15,419.5 v -232 C 15,165.168 33.168,147 55.5,147 h 384 c 22.332,0 40.5,18.168 40.5,40.5 z M 439.5,132 H 55.5 C 39.536,132 25.135,138.784 15,149.61 V 75.5 C 15,53.168 33.168,35 55.5,35 h 88 c 16.92,0 30.768,6.503 43.579,20.465 0.026,0.028 0.052,0.057 0.079,0.084 l 38.895,41.105 C 227.469,98.151 229.439,99 231.5,99 h 208 c 22.332,0 40.5,18.168 40.5,40.5 v 10.11 C 469.865,138.784 455.464,132 439.5,132 Z"
       id="path2"
       style="fill:url(#linearGradient840);fill-opacity:1" />
    <path
       d="m 431.5,180 h -104 c -4.142,0 -7.5,3.357 -7.5,7.5 0,4.143 3.358,7.5 7.5,7.5 h 104 c 4.142,0 7.5,-3.357 7.5,-7.5 0,-4.143 -3.358,-7.5 -7.5,-7.5 z"
       id="path4-3"
       style="fill:url(#linearGradient848);fill-opacity:1.0" />
    <path
       d="m 431.5,220 h -104 c -4.142,0 -7.5,3.357 -7.5,7.5 0,4.143 3.358,7.5 7.5,7.5 h 104 c 4.142,0 7.5,-3.357 7.5,-7.5 0,-4.143 -3.358,-7.5 -7.5,-7.5 z"
       id="path6-6"
       style="fill:url(#linearGradient856);fill-opacity:1.0" />
  </g>
  <g
     id="start-here-kde"
     transform="matrix(0.07367923,0,0,0.07367923,8.0237219,14.567455)">
    <metadata
       id="metadata2">
      <rdf:RDF>
        <cc:Work
           rdf:about="">
          <dc:format>image/svg+xml</dc:format>
          <dc:type
             rdf:resource="http://purl.org/dc/dcmitype/StillImage" />
        </cc:Work>
      </rdf:RDF>
    </metadata>
    <g
       transform="matrix(0.1,0,0,-0.1,0,200)"
       id="g18"
       style="fill:#000000;stroke:none">
      <path
         d="m 989,1784 c -42,-111 -189,-539 -189,-553 0,-21 188,-562 199,-574 4,-4 56,123 115,282 l 107,290 -107,288 c -58,158 -108,290 -110,292 -2,2 -8,-9 -15,-25 z"
         id="path4"
         style="fill:url(#linearGradient828);fill-opacity:1"
         inkscape:connector-curvature="0" />
      <path
         d="m 350,1228 c 1,-7 45,-105 98,-217 l 97,-205 209,-98 c 115,-54 212,-96 215,-93 3,3 -41,98 -97,210 l -102,205 -210,105 c -117,59 -210,100 -210,93 z"
         id="path6"
         style="fill:url(#linearGradient836);fill-opacity:1"
         inkscape:connector-curvature="0" />
      <path
         d="M 1445,1136 1235,1033 1132,825 c -57,-114 -101,-209 -98,-212 2,-3 99,39 214,94 l 210,98 102,214 c 55,117 100,215 98,216 -2,2 -98,-43 -213,-99 z"
         id="path8"
         style="fill:url(#linearGradient844-6);fill-opacity:1"
         inkscape:connector-curvature="0" />
      <path
         d="m 455,643 c -88,-30 -164,-59 -168,-62 -4,-4 69,-35 163,-68 l 170,-61 170,61 c 94,33 167,64 163,68 -6,6 -332,121 -337,118 -1,0 -73,-25 -161,-56 z"
         id="path10"
         style="fill:url(#linearGradient852);fill-opacity:1"
         inkscape:connector-curvature="0" />
      <path
         d="m 1213,641 c -89,-31 -164,-59 -167,-62 -3,-3 72,-33 166,-66 l 171,-61 169,60 c 92,33 168,63 168,67 0,5 -296,108 -335,116 -5,1 -83,-23 -172,-54 z"
         id="path12"
         style="fill:url(#linearGradient860);fill-opacity:1"
         inkscape:connector-curvature="0" />
    </g>
  </g>
</svg>
