<?xml version="1.0" encoding="UTF-8" standalone="no"?>
<svg
   xmlns:dc="http://purl.org/dc/elements/1.1/"
   xmlns:cc="http://creativecommons.org/ns#"
   xmlns:rdf="http://www.w3.org/1999/02/22-rdf-syntax-ns#"
   xmlns:svg="http://www.w3.org/2000/svg"
   xmlns="http://www.w3.org/2000/svg"
   xmlns:xlink="http://www.w3.org/1999/xlink"
   xmlns:sodipodi="http://sodipodi.sourceforge.net/DTD/sodipodi-0.dtd"
   xmlns:inkscape="http://www.inkscape.org/namespaces/inkscape"
   inkscape:version="1.0.1 (3bc2e813f5, 2020-09-07)"
   sodipodi:docname="folder-Reddit.svg"
   id="svg14"
   version="1.1"
   viewBox="0 0 32 32">
  <metadata
     id="metadata18">
    <rdf:RDF>
      <cc:Work
         rdf:about="">
        <dc:format>image/svg+xml</dc:format>
        <dc:type
           rdf:resource="http://purl.org/dc/dcmitype/StillImage" />
        <dc:title></dc:title>
      </cc:Work>
    </rdf:RDF>
  </metadata>
  <sodipodi:namedview
     inkscape:document-rotation="0"
     inkscape:current-layer="svg14"
     inkscape:window-maximized="1"
     inkscape:window-y="0"
     inkscape:window-x="0"
     inkscape:cy="27.963416"
     inkscape:cx="-18.124925"
     inkscape:zoom="7.375"
     showgrid="false"
     id="namedview16"
     inkscape:window-height="1012"
     inkscape:window-width="1920"
     inkscape:pageshadow="2"
     inkscape:pageopacity="0"
     guidetolerance="10"
     gridtolerance="10"
     objecttolerance="10"
     borderopacity="1"
     bordercolor="#666666"
     pagecolor="#ffffff"
     showguides="false" />
  <defs
     id="defs3051">
    <style
       id="current-color-scheme"
       type="text/css">
      .ColorScheme-Text {
        color:#31363b;
      }
      .ColorScheme-Background {
        color:#eff0f1;
      }
      .ColorScheme-Highlight {
        color:#3daee9;
      }
      .ColorScheme-ViewText {
        color:#31363b;
      }
      .ColorScheme-ViewBackground {
        color:#fcfcfc;
      }
      .ColorScheme-ViewHover {
        color:#93cee9;
      }
      .ColorScheme-ViewFocus{
        color:#3daee9;
      }
      .ColorScheme-ButtonText {
        color:#31363b;
      }
      .ColorScheme-ButtonBackground {
        color:#eff0f1;
      }
      .ColorScheme-ButtonHover {
        color:#93cee9;
      }
      .ColorScheme-ButtonFocus{
        color:#3daee9;
      }
      </style>
    <linearGradient
       inkscape:collect="always"
       xlink:href="#linearGradient878"
       id="linearGradient880"
       x1="81.095505"
       y1="406.75525"
       x2="292.51636"
       y2="186.8934"
       gradientUnits="userSpaceOnUse" />
    <linearGradient
       inkscape:collect="always"
       id="linearGradient878">
      <stop
         style="stop-color:#fac136;stop-opacity:1"
         offset="0"
         id="stop874" />
      <stop
         style="stop-color:#006dda;stop-opacity:1"
         offset="1"
         id="stop876" />
    </linearGradient>
    <linearGradient
       inkscape:collect="always"
       xlink:href="#linearGradient878"
       id="linearGradient844"
       x1="320"
       y1="187.5"
       x2="439"
       y2="187.5"
       gradientUnits="userSpaceOnUse" />
    <linearGradient
       inkscape:collect="always"
       xlink:href="#linearGradient878"
       id="linearGradient852"
       x1="320"
       y1="227.5"
       x2="439"
       y2="227.5"
       gradientUnits="userSpaceOnUse" />
    <linearGradient
       inkscape:collect="always"
       xlink:href="#linearGradient878"
       id="linearGradient867"
       x1="20.388903"
       y1="41.65657"
       x2="41.60445"
       y2="41.65657"
       gradientUnits="userSpaceOnUse"
       gradientTransform="matrix(0.55555556,0,0,0.55555556,-1.1297897,-1.6595667)" />
  </defs>
  <g
     id="g8"
     transform="matrix(0.05714286,0,0,0.05714286,2.0659532,2.2289435)">
    <path
       d="M 439.5,84 H 234.729 L 198.09,45.279 C 182.464,28.269 164.607,20 143.5,20 h -88 C 24.897,20 0,44.897 0,75.5 v 344 C 0,450.103 24.897,475 55.5,475 h 384 c 30.603,0 55.5,-24.897 55.5,-55.5 v -280 C 495,108.897 470.103,84 439.5,84 Z M 480,419.5 c 0,22.332 -18.168,40.5 -40.5,40.5 H 55.5 C 33.168,460 15,441.832 15,419.5 v -232 C 15,165.168 33.168,147 55.5,147 h 384 c 22.332,0 40.5,18.168 40.5,40.5 z M 439.5,132 H 55.5 C 39.536,132 25.135,138.784 15,149.61 V 75.5 C 15,53.168 33.168,35 55.5,35 h 88 c 16.92,0 30.768,6.503 43.579,20.465 0.026,0.028 0.052,0.057 0.079,0.084 l 38.895,41.105 C 227.469,98.151 229.439,99 231.5,99 h 208 c 22.332,0 40.5,18.168 40.5,40.5 v 10.11 C 469.865,138.784 455.464,132 439.5,132 Z"
       id="path2"
       style="fill:url(#linearGradient880);fill-opacity:1" />
    <path
       d="m 431.5,180 h -104 c -4.142,0 -7.5,3.357 -7.5,7.5 0,4.143 3.358,7.5 7.5,7.5 h 104 c 4.142,0 7.5,-3.357 7.5,-7.5 0,-4.143 -3.358,-7.5 -7.5,-7.5 z"
       id="path4-3"
       style="fill:url(#linearGradient844);fill-opacity:1.0" />
    <path
       d="m 431.5,220 h -104 c -4.142,0 -7.5,3.357 -7.5,7.5 0,4.143 3.358,7.5 7.5,7.5 h 104 c 4.142,0 7.5,-3.357 7.5,-7.5 0,-4.143 -3.358,-7.5 -7.5,-7.5 z"
       id="path6-6"
       style="fill:url(#linearGradient852);fill-opacity:1.0" />
  </g>
  <path
     d="m 21.983795,21.262024 c 0,-0.913976 -0.743572,-1.655204 -1.655134,-1.655204 -0.359145,0 -0.70212,0.1151 -0.985284,0.324614 -0.803461,-0.405192 -1.758813,-0.649148 -2.769361,-0.706714 l 0.660662,-1.82552 1.597662,0.398267 c 0.03453,0.656081 0.580092,1.176283 1.2431,1.176283 0.685934,0 1.245352,-0.559409 1.245352,-1.24534 0,-0.686021 -0.559418,-1.245438 -1.245352,-1.245438 -0.467325,0 -0.874776,0.257814 -1.088881,0.63998 l -2.189264,-0.547904 -0.953004,2.635838 c -1.098065,0.0322 -2.138651,0.280832 -3.006496,0.715962 C 12.554626,19.71732 12.214,19.604561 11.85484,19.604561 c -0.913886,0.0024 -1.657462,0.745831 -1.657462,1.657459 0,0.446573 0.184159,0.877028 0.499524,1.185563 -0.02064,0.131197 -0.03219,0.264734 -0.03219,0.398172 0,1.001387 0.584672,1.931465 1.643613,2.617486 1.012897,0.658328 2.354999,1.019731 3.777673,1.019731 1.422672,0 2.762443,-0.361403 3.777577,-1.019731 1.058946,-0.688355 1.643707,-1.618345 1.643707,-2.617486 0,-0.1312 -0.01154,-0.262397 -0.02989,-0.393597 0.319956,-0.306179 0.506456,-0.73898 0.506456,-1.190138 z m -8.485341,0.966865 c 0,-0.531804 0.4328,-0.964606 0.964607,-0.964606 0.531722,0 0.964523,0.432802 0.964523,0.964606 0,0.531713 -0.432801,0.964513 -0.964523,0.964513 -0.531807,0 -0.964607,-0.4328 -0.964607,-0.964513 z m 2.654272,3.052435 c -0.748169,0 -1.4779,-0.211769 -2.10861,-0.612287 l 0.370576,-0.582427 c 0.520293,0.331449 1.12341,0.506443 1.740363,0.506443 0.616971,0 1.217747,-0.174994 1.740285,-0.506443 l 0.370668,0.582427 c -0.635394,0.400518 -1.36512,0.612287 -2.113282,0.612287 z m 1.710426,-2.087922 c -0.531811,0 -0.964526,-0.4328 -0.964526,-0.964513 0,-0.531804 0.432715,-0.964606 0.964526,-0.964606 0.531802,0 0.964512,0.432802 0.964512,0.964606 0,0.531713 -0.43271,0.964513 -0.964512,0.964513 z m 0,0"
     id="path2-3"
     style="fill:url(#linearGradient867);fill-opacity:1.0;stroke-width:0.0230207" />
</svg>
