<?xml version="1.0" encoding="UTF-8" standalone="no"?>
<svg
   xmlns:dc="http://purl.org/dc/elements/1.1/"
   xmlns:cc="http://creativecommons.org/ns#"
   xmlns:rdf="http://www.w3.org/1999/02/22-rdf-syntax-ns#"
   xmlns:svg="http://www.w3.org/2000/svg"
   xmlns="http://www.w3.org/2000/svg"
   xmlns:xlink="http://www.w3.org/1999/xlink"
   xmlns:sodipodi="http://sodipodi.sourceforge.net/DTD/sodipodi-0.dtd"
   xmlns:inkscape="http://www.inkscape.org/namespaces/inkscape"
   viewBox="0 0 22 22"
   version="1.1"
   id="svg11"
   sodipodi:docname="drive-harddisk-root.svg"
   inkscape:version="1.0.1 (3bc2e813f5, 2020-09-07)">
  <metadata
     id="metadata17">
    <rdf:RDF>
      <cc:Work
         rdf:about="">
        <dc:format>image/svg+xml</dc:format>
        <dc:type
           rdf:resource="http://purl.org/dc/dcmitype/StillImage" />
      </cc:Work>
    </rdf:RDF>
  </metadata>
  <defs
     id="defs15">
    <linearGradient
       inkscape:collect="always"
       id="linearGradient846">
      <stop
         style="stop-color:#9955ff;stop-opacity:1"
         offset="0"
         id="stop842" />
      <stop
         style="stop-color:#008080;stop-opacity:1"
         offset="1"
         id="stop844" />
    </linearGradient>
    <linearGradient
       inkscape:collect="always"
       xlink:href="#linearGradient846"
       id="linearGradient848"
       x1="5"
       y1="11"
       x2="17"
       y2="11"
       gradientUnits="userSpaceOnUse" />
    <linearGradient
       inkscape:collect="always"
       xlink:href="#linearGradient846"
       id="linearGradient856"
       x1="6.9999995"
       y1="10"
       x2="13"
       y2="10"
       gradientUnits="userSpaceOnUse" />
    <linearGradient
       inkscape:collect="always"
       xlink:href="#linearGradient846"
       id="linearGradient864"
       x1="11"
       y1="13.5"
       x2="15"
       y2="13.5"
       gradientUnits="userSpaceOnUse" />
  </defs>
  <sodipodi:namedview
     pagecolor="#ffffff"
     bordercolor="#666666"
     borderopacity="1"
     objecttolerance="10"
     gridtolerance="10"
     guidetolerance="10"
     inkscape:pageopacity="0"
     inkscape:pageshadow="2"
     inkscape:window-width="1920"
     inkscape:window-height="1013"
     id="namedview13"
     showgrid="false"
     inkscape:zoom="28.545455"
     inkscape:cx="11"
     inkscape:cy="11"
     inkscape:window-x="0"
     inkscape:window-y="0"
     inkscape:window-maximized="1"
     inkscape:current-layer="svg11" />
  <style
     type="text/css"
     id="current-color-scheme">
        .ColorScheme-Text {
            color:#eff0f1;
        }
    </style>
  <g
     style="fill:currentColor;fill-opacity:1;stroke:none"
     class="ColorScheme-Text"
     id="g9">
    <path
       d="m5 3v16h12v-16zm4 1h4a3 3 0 0 1 3 3v2.088a1.5 1.5 0 0 0 -1 1.412 1.5 1.5 0 0 0 1 1.412v2.088l-2 2h-6l-2-2v-2.088a1.5 1.5 0 0 0 1-1.412 1.5 1.5 0 0 0 -1-1.412v-2.088a3 3 0 0 1 3-3zm-2 13h4v1h-4zm6 0h2v1h-2z"
       id="path3"
       style="fill-opacity:1;fill:url(#linearGradient848)" />
    <path
       d="m11 6-4.0000004 8h2.0000004l4-8z"
       id="path5"
       style="fill-opacity:1.0;fill:url(#linearGradient856)" />
    <rect
       height="1"
       width="4"
       x="11"
       y="13"
       id="rect7"
       style="fill-opacity:1.0;fill:url(#linearGradient864)" />
  </g>
</svg>
