<?xml version="1.0" encoding="UTF-8" standalone="no"?>
<svg
   xmlns:dc="http://purl.org/dc/elements/1.1/"
   xmlns:cc="http://creativecommons.org/ns#"
   xmlns:rdf="http://www.w3.org/1999/02/22-rdf-syntax-ns#"
   xmlns:svg="http://www.w3.org/2000/svg"
   xmlns="http://www.w3.org/2000/svg"
   xmlns:xlink="http://www.w3.org/1999/xlink"
   xmlns:sodipodi="http://sodipodi.sourceforge.net/DTD/sodipodi-0.dtd"
   xmlns:inkscape="http://www.inkscape.org/namespaces/inkscape"
   viewBox="0 0 16 16"
   version="1.1"
   id="svg7"
   sodipodi:docname="mail-folder-sent.svg"
   inkscape:version="1.0.1 (3bc2e813f5, 2020-09-07)">
  <metadata
     id="metadata11">
    <rdf:RDF>
      <cc:Work
         rdf:about="">
        <dc:format>image/svg+xml</dc:format>
        <dc:type
           rdf:resource="http://purl.org/dc/dcmitype/StillImage" />
      </cc:Work>
    </rdf:RDF>
  </metadata>
  <sodipodi:namedview
     pagecolor="#ffffff"
     bordercolor="#666666"
     borderopacity="1"
     objecttolerance="10"
     gridtolerance="10"
     guidetolerance="10"
     inkscape:pageopacity="0"
     inkscape:pageshadow="2"
     inkscape:window-width="1920"
     inkscape:window-height="1013"
     id="namedview9"
     showgrid="false"
     inkscape:zoom="39.25"
     inkscape:cx="8"
     inkscape:cy="8"
     inkscape:window-x="0"
     inkscape:window-y="0"
     inkscape:window-maximized="1"
     inkscape:current-layer="svg7" />
  <defs
     id="defs3051">
    <linearGradient
       inkscape:collect="always"
       id="linearGradient840">
      <stop
         style="stop-color:#fac136;stop-opacity:1"
         offset="0"
         id="stop836" />
      <stop
         style="stop-color:#006dda;stop-opacity:1"
         offset="1"
         id="stop838" />
    </linearGradient>
    <style
       type="text/css"
       id="current-color-scheme">
      .ColorScheme-Text {
        color:#eff0f1;
      }
      </style>
    <linearGradient
       inkscape:collect="always"
       xlink:href="#linearGradient840"
       id="linearGradient842"
       x1="421.71429"
       y1="539.79071"
       x2="437.71429"
       y2="539.79071"
       gradientUnits="userSpaceOnUse" />
  </defs>
  <g
     transform="translate(-421.71429,-531.79074)"
     id="g5">
    <path
       style="fill:url(#linearGradient842);fill-opacity:1;stroke:none"
       d="m 427.71429,533.79071 0,1 8.59375,0 -6.59375,6.59375 -2,-2 0,1.40625 2,2 2.3125,-2.28125 4.28125,4.28125 -8.59375,0 0,1 10,0 0,-12 -10,0 z m 9,2 0,8 -4,-4 4,-4 z m -15,1 0,1 5,0 0,-1 -5,0 z m 2,3 0,1 3,0 0,-1 -3,0 z m 1,3 0,1 2,0 0,-1 -2,0 z"
       id="rect4144"
       class="ColorScheme-Text" />
  </g>
</svg>
