<?xml version="1.0" encoding="UTF-8" standalone="no"?>
<svg
   xmlns:dc="http://purl.org/dc/elements/1.1/"
   xmlns:cc="http://creativecommons.org/ns#"
   xmlns:rdf="http://www.w3.org/1999/02/22-rdf-syntax-ns#"
   xmlns:svg="http://www.w3.org/2000/svg"
   xmlns="http://www.w3.org/2000/svg"
   xmlns:sodipodi="http://sodipodi.sourceforge.net/DTD/sodipodi-0.dtd"
   xmlns:inkscape="http://www.inkscape.org/namespaces/inkscape"
   inkscape:version="1.0.1 (3bc2e813f5, 2020-09-07)"
   sodipodi:docname="folder-Github.svg"
   id="svg14"
   version="1.1"
   viewBox="0 0 32 32">
  <metadata
     id="metadata18">
    <rdf:RDF>
      <cc:Work
         rdf:about="">
        <dc:format>image/svg+xml</dc:format>
        <dc:type
           rdf:resource="http://purl.org/dc/dcmitype/StillImage" />
      </cc:Work>
    </rdf:RDF>
  </metadata>
  <sodipodi:namedview
     inkscape:document-rotation="0"
     inkscape:current-layer="svg14"
     inkscape:window-maximized="1"
     inkscape:window-y="0"
     inkscape:window-x="0"
     inkscape:cy="27.963416"
     inkscape:cx="-18.124925"
     inkscape:zoom="7.375"
     showgrid="false"
     id="namedview16"
     inkscape:window-height="1007"
     inkscape:window-width="1920"
     inkscape:pageshadow="2"
     inkscape:pageopacity="0"
     guidetolerance="10"
     gridtolerance="10"
     objecttolerance="10"
     borderopacity="1"
     bordercolor="#666666"
     pagecolor="#ffffff"
     showguides="false" />
  <defs
     id="defs3051">
    <style
       id="current-color-scheme"
       type="text/css">
      .ColorScheme-Text {
        color:#31363b;
      }
      .ColorScheme-Background {
        color:#eff0f1;
      }
      .ColorScheme-Highlight {
        color:#3daee9;
      }
      .ColorScheme-ViewText {
        color:#31363b;
      }
      .ColorScheme-ViewBackground {
        color:#fcfcfc;
      }
      .ColorScheme-ViewHover {
        color:#93cee9;
      }
      .ColorScheme-ViewFocus{
        color:#3daee9;
      }
      .ColorScheme-ButtonText {
        color:#31363b;
      }
      .ColorScheme-ButtonBackground {
        color:#eff0f1;
      }
      .ColorScheme-ButtonHover {
        color:#93cee9;
      }
      .ColorScheme-ButtonFocus{
        color:#3daee9;
      }
      </style>
  </defs>
  <g
     id="g8"
     transform="matrix(0.05714286,0,0,0.05714286,2.0659532,2.2289435)">
    <path
       d="M 439.5,84 H 234.729 L 198.09,45.279 C 182.464,28.269 164.607,20 143.5,20 h -88 C 24.897,20 0,44.897 0,75.5 v 344 C 0,450.103 24.897,475 55.5,475 h 384 c 30.603,0 55.5,-24.897 55.5,-55.5 v -280 C 495,108.897 470.103,84 439.5,84 Z M 480,419.5 c 0,22.332 -18.168,40.5 -40.5,40.5 H 55.5 C 33.168,460 15,441.832 15,419.5 v -232 C 15,165.168 33.168,147 55.5,147 h 384 c 22.332,0 40.5,18.168 40.5,40.5 z M 439.5,132 H 55.5 C 39.536,132 25.135,138.784 15,149.61 V 75.5 C 15,53.168 33.168,35 55.5,35 h 88 c 16.92,0 30.768,6.503 43.579,20.465 0.026,0.028 0.052,0.057 0.079,0.084 l 38.895,41.105 C 227.469,98.151 229.439,99 231.5,99 h 208 c 22.332,0 40.5,18.168 40.5,40.5 v 10.11 C 469.865,138.784 455.464,132 439.5,132 Z"
       id="path2"
       style="fill:#48486a;fill-opacity:1" />
    <path
       d="m 431.5,180 h -104 c -4.142,0 -7.5,3.357 -7.5,7.5 0,4.143 3.358,7.5 7.5,7.5 h 104 c 4.142,0 7.5,-3.357 7.5,-7.5 0,-4.143 -3.358,-7.5 -7.5,-7.5 z"
       id="path4-3"
       style="fill:#4d7f7f;fill-opacity:1" />
    <path
       d="m 431.5,220 h -104 c -4.142,0 -7.5,3.357 -7.5,7.5 0,4.143 3.358,7.5 7.5,7.5 h 104 c 4.142,0 7.5,-3.357 7.5,-7.5 0,-4.143 -3.358,-7.5 -7.5,-7.5 z"
       id="path6-6"
       style="fill:#4d7f7f;fill-opacity:1" />
  </g>
  <path
     d="M 8.77386,18.6 C 6.4678,18.6 4.6,20.4365 4.6,22.701504 c 0,1.812511 1.195805,3.349519 2.853879,3.891434 0.208695,0.03856 0.285205,-0.08835 0.285205,-0.197218 0,-0.09738 -0.004,-0.355467 -0.0048,-0.697376 C 6.57326,25.945642 6.32839,25.148089 6.32839,25.148089 6.138502,24.6747 5.864069,24.548095 5.864069,24.548095 c -0.378081,-0.254271 0.02923,-0.24904 0.02923,-0.24904 0.419122,0.02841 0.639292,0.422604 0.639292,0.422604 0.372174,0.627122 0.977033,0.445905 1.215637,0.34121 0.0375,-0.26539 0.14504,-0.445898 0.264345,-0.54851 -0.926947,-0.102614 -1.901191,-0.455298 -1.901191,-2.026752 0,-0.447647 0.161737,-0.813563 0.429561,-1.100511 -0.04694,-0.103646 -0.187824,-0.520682 0.03647,-1.085545 0,0 0.34956,-0.109911 1.147809,0.420509 0.333914,-0.09113 0.688687,-0.13634 1.043463,-0.138428 0.35478,0.002 0.709563,0.04734 1.043467,0.138428 0.793033,-0.53042 1.142596,-0.420509 1.142596,-0.420509 0.224343,0.564863 0.0835,0.981899 0.04176,1.085545 0.266084,0.286948 0.427819,0.652864 0.427819,1.100511 0,1.575633 -0.975642,1.922409 -1.904322,2.023278 0.146083,0.12313 0.281736,0.374594 0.281736,0.758939 0,0.548862 -0.0047,0.989898 -0.0047,1.123119 0,0.107478 0.07306,0.235817 0.286954,0.194777 1.669887,-0.538425 2.864655,-2.076492 2.864655,-3.886216 C 12.948644,20.4365 11.079804,18.6 8.774794,18.6 Z"
     id="path2-3"
     style="fill:#4d7f7f;fill-opacity:1;stroke-width:0.34782" />
</svg>
