<?xml version="1.0" encoding="UTF-8" standalone="no"?>
<svg
   xmlns:dc="http://purl.org/dc/elements/1.1/"
   xmlns:cc="http://creativecommons.org/ns#"
   xmlns:rdf="http://www.w3.org/1999/02/22-rdf-syntax-ns#"
   xmlns:svg="http://www.w3.org/2000/svg"
   xmlns="http://www.w3.org/2000/svg"
   xmlns:sodipodi="http://sodipodi.sourceforge.net/DTD/sodipodi-0.dtd"
   xmlns:inkscape="http://www.inkscape.org/namespaces/inkscape"
   inkscape:version="1.0.1 (3bc2e813f5, 2020-09-07)"
   sodipodi:docname="folder-openSUSE.svg"
   id="svg14"
   version="1.1"
   viewBox="0 0 32 32">
  <metadata
     id="metadata18">
    <rdf:RDF>
      <cc:Work
         rdf:about="">
        <dc:format>image/svg+xml</dc:format>
        <dc:type
           rdf:resource="http://purl.org/dc/dcmitype/StillImage" />
        <dc:title />
      </cc:Work>
    </rdf:RDF>
  </metadata>
  <sodipodi:namedview
     inkscape:document-rotation="0"
     inkscape:current-layer="svg14"
     inkscape:window-maximized="1"
     inkscape:window-y="0"
     inkscape:window-x="0"
     inkscape:cy="27.963416"
     inkscape:cx="-18.124925"
     inkscape:zoom="7.375"
     showgrid="false"
     id="namedview16"
     inkscape:window-height="1007"
     inkscape:window-width="1920"
     inkscape:pageshadow="2"
     inkscape:pageopacity="0"
     guidetolerance="10"
     gridtolerance="10"
     objecttolerance="10"
     borderopacity="1"
     bordercolor="#666666"
     pagecolor="#ffffff"
     showguides="false" />
  <defs
     id="defs3051">
    <style
       id="current-color-scheme"
       type="text/css">
      .ColorScheme-Text {
        color:#31363b;
      }
      .ColorScheme-Background {
        color:#eff0f1;
      }
      .ColorScheme-Highlight {
        color:#3daee9;
      }
      .ColorScheme-ViewText {
        color:#31363b;
      }
      .ColorScheme-ViewBackground {
        color:#fcfcfc;
      }
      .ColorScheme-ViewHover {
        color:#93cee9;
      }
      .ColorScheme-ViewFocus{
        color:#3daee9;
      }
      .ColorScheme-ButtonText {
        color:#31363b;
      }
      .ColorScheme-ButtonBackground {
        color:#eff0f1;
      }
      .ColorScheme-ButtonHover {
        color:#93cee9;
      }
      .ColorScheme-ButtonFocus{
        color:#3daee9;
      }
      </style>
  </defs>
  <g
     id="g8"
     transform="matrix(0.05714286,0,0,0.05714286,2.0659532,2.2289435)">
    <path
       d="M 439.5,84 H 234.729 L 198.09,45.279 C 182.464,28.269 164.607,20 143.5,20 h -88 C 24.897,20 0,44.897 0,75.5 v 344 C 0,450.103 24.897,475 55.5,475 h 384 c 30.603,0 55.5,-24.897 55.5,-55.5 v -280 C 495,108.897 470.103,84 439.5,84 Z M 480,419.5 c 0,22.332 -18.168,40.5 -40.5,40.5 H 55.5 C 33.168,460 15,441.832 15,419.5 v -232 C 15,165.168 33.168,147 55.5,147 h 384 c 22.332,0 40.5,18.168 40.5,40.5 z M 439.5,132 H 55.5 C 39.536,132 25.135,138.784 15,149.61 V 75.5 C 15,53.168 33.168,35 55.5,35 h 88 c 16.92,0 30.768,6.503 43.579,20.465 0.026,0.028 0.052,0.057 0.079,0.084 l 38.895,41.105 C 227.469,98.151 229.439,99 231.5,99 h 208 c 22.332,0 40.5,18.168 40.5,40.5 v 10.11 C 469.865,138.784 455.464,132 439.5,132 Z"
       id="path2"
       style="fill:#48486a;fill-opacity:1" />
    <path
       d="m 431.5,180 h -104 c -4.142,0 -7.5,3.357 -7.5,7.5 0,4.143 3.358,7.5 7.5,7.5 h 104 c 4.142,0 7.5,-3.357 7.5,-7.5 0,-4.143 -3.358,-7.5 -7.5,-7.5 z"
       id="path4-3"
       style="fill:#4d7f7f;fill-opacity:1" />
    <path
       d="m 431.5,220 h -104 c -4.142,0 -7.5,3.357 -7.5,7.5 0,4.143 3.358,7.5 7.5,7.5 h 104 c 4.142,0 7.5,-3.357 7.5,-7.5 0,-4.143 -3.358,-7.5 -7.5,-7.5 z"
       id="path6-6"
       style="fill:#4d7f7f;fill-opacity:1" />
  </g>
  <path
     style="color:#4d4d4d;font-size:20.4884px;font-family:TrebuchetMS-Bold;fill:#4d7f7f;fill-opacity:1;fill-rule:evenodd;stroke:none;stroke-width:0.0572698;stroke-miterlimit:4"
     d="m 8.5003429,19.090216 c -2.208977,0 -4,1.790827 -4,4 0,2.209172 1.791023,4 4,4 2.2089771,0 3.9999991,-1.790828 4.0000001,-4 0,-2.209172 -1.791023,-4 -4.0000001,-4 z m 0.01909,0.553959 c 1.9033071,0 3.4475091,1.542942 3.4475091,3.446041 0,1.903309 -1.544407,3.446041 -3.4475091,3.446041 -1.027711,0 -1.949901,-0.45042 -2.581217,-1.163902 0.259584,-0.201462 0.693878,-0.15232 1.228726,-0.09137 0.256318,0.0292 0.548515,0.06257 0.850098,0.06924 0.84256,0.0043 1.749126,-0.148881 2.3086571,-0.393374 0.361735,-0.158645 0.593343,-0.263115 0.738118,-0.39485 0.05225,-0.04279 0.07961,-0.114353 0.107557,-0.188576 l 0.01909,-0.05007 c 0.02344,-0.05992 0.05716,-0.188952 0.07221,-0.259291 0.0063,-0.03081 0.01003,-0.06385 -0.01178,-0.08105 l -0.07804,0.01475 c -0.245512,0.147223 -0.858897,0.427623 -1.4335171,0.439041 -0.712066,0.01486 -2.1472,-0.716817 -2.296875,-0.7941 l -0.01477,-0.01778 c -0.03582,-0.08565 -0.250664,-0.595508 -0.296136,-0.702763 1.033016,0.680252 1.889469,1.056764 2.545861,1.115289 0.7297951,0.06486 1.2990701,-0.333603 1.5425361,-0.503874 0.04754,-0.0324 0.0838,-0.05785 0.09872,-0.06339 l 0.01624,-0.0266 C 11.294481,23.187064 10.91164,21.945759 10.623309,21.647639 10.543389,21.565829 10.479818,21.4863 10.350749,21.410436 9.3071259,20.802166 6.8291989,20.435834 6.7131769,20.418904 l -0.01909,0.0059 -0.0072,0.01622 c 0,0 -0.0094,0.514541 -0.01023,0.571638 -0.08504,-0.0282 -0.348693,-0.114462 -0.726334,-0.218048 0.49274,-0.609694 1.247871,-1.150645 2.569427,-1.150645 z m 0.910502,1.82394 c 0.01757,-2.6e-4 0.03539,-0.0013 0.05306,0 0.5846081,0.021 1.0439241,0.513402 1.0239401,1.0976 -0.0104,0.282623 -0.129549,0.543755 -0.335915,0.736649 -0.2069661,0.193919 -0.4759661,0.295008 -0.7602181,0.285826 -0.583598,-0.02185 -1.042905,-0.514218 -1.023943,-1.097611 0.01003,-0.283024 0.129809,-0.545828 0.337384,-0.738108 0.193842,-0.181813 0.441943,-0.280394 0.705714,-0.284356 z m -0.02798,0.31234 c -0.170258,0.01029 -0.330935,0.07951 -0.45672,0.19742 -0.143347,0.134586 -0.227928,0.316799 -0.23425,0.514185 -0.01339,0.407815 0.305653,0.751015 0.713067,0.766117 0.198,0.0059 0.385823,-0.06328 0.530393,-0.197427 0.1441651,-0.135195 0.2281391,-0.319076 0.2342481,-0.515653 0.01374,-0.408442 -0.3069241,-0.750362 -0.7145451,-0.764642 -0.02463,-0.0017 -0.04781,-0.0021 -0.07223,0 z m 0.194481,0.3698 c 0.181066,0 0.327065,0.0984 0.327065,0.21952 0,0.120504 -0.145999,0.21952 -0.327065,0.21952 -0.181684,0 -0.328545,-0.09921 -0.328545,-0.21952 0,-0.12112 0.146861,-0.21952 0.328545,-0.21952 z"
     id="path2445"
     class="ColorScheme-Text"
     inkscape:connector-curvature="0" />
</svg>
