<?xml version="1.0" encoding="UTF-8" standalone="no"?>
<svg
   xmlns:dc="http://purl.org/dc/elements/1.1/"
   xmlns:cc="http://creativecommons.org/ns#"
   xmlns:rdf="http://www.w3.org/1999/02/22-rdf-syntax-ns#"
   xmlns:svg="http://www.w3.org/2000/svg"
   xmlns="http://www.w3.org/2000/svg"
   xmlns:sodipodi="http://sodipodi.sourceforge.net/DTD/sodipodi-0.dtd"
   xmlns:inkscape="http://www.inkscape.org/namespaces/inkscape"
   inkscape:version="1.0.1 (3bc2e813f5, 2020-09-07)"
   sodipodi:docname="folder-Reddit.svg"
   id="svg14"
   version="1.1"
   viewBox="0 0 32 32">
  <metadata
     id="metadata18">
    <rdf:RDF>
      <cc:Work
         rdf:about="">
        <dc:format>image/svg+xml</dc:format>
        <dc:type
           rdf:resource="http://purl.org/dc/dcmitype/StillImage" />
        <dc:title />
      </cc:Work>
    </rdf:RDF>
  </metadata>
  <sodipodi:namedview
     inkscape:document-rotation="0"
     inkscape:current-layer="svg14"
     inkscape:window-maximized="1"
     inkscape:window-y="0"
     inkscape:window-x="0"
     inkscape:cy="27.963416"
     inkscape:cx="-18.124925"
     inkscape:zoom="7.375"
     showgrid="false"
     id="namedview16"
     inkscape:window-height="1007"
     inkscape:window-width="1920"
     inkscape:pageshadow="2"
     inkscape:pageopacity="0"
     guidetolerance="10"
     gridtolerance="10"
     objecttolerance="10"
     borderopacity="1"
     bordercolor="#666666"
     pagecolor="#ffffff"
     showguides="false" />
  <defs
     id="defs3051">
    <style
       id="current-color-scheme"
       type="text/css">
      .ColorScheme-Text {
        color:#31363b;
      }
      .ColorScheme-Background {
        color:#eff0f1;
      }
      .ColorScheme-Highlight {
        color:#3daee9;
      }
      .ColorScheme-ViewText {
        color:#31363b;
      }
      .ColorScheme-ViewBackground {
        color:#fcfcfc;
      }
      .ColorScheme-ViewHover {
        color:#93cee9;
      }
      .ColorScheme-ViewFocus{
        color:#3daee9;
      }
      .ColorScheme-ButtonText {
        color:#31363b;
      }
      .ColorScheme-ButtonBackground {
        color:#eff0f1;
      }
      .ColorScheme-ButtonHover {
        color:#93cee9;
      }
      .ColorScheme-ButtonFocus{
        color:#3daee9;
      }
      </style>
  </defs>
  <g
     id="g8"
     transform="matrix(0.05714286,0,0,0.05714286,2.0659532,2.2289435)">
    <path
       d="M 439.5,84 H 234.729 L 198.09,45.279 C 182.464,28.269 164.607,20 143.5,20 h -88 C 24.897,20 0,44.897 0,75.5 v 344 C 0,450.103 24.897,475 55.5,475 h 384 c 30.603,0 55.5,-24.897 55.5,-55.5 v -280 C 495,108.897 470.103,84 439.5,84 Z M 480,419.5 c 0,22.332 -18.168,40.5 -40.5,40.5 H 55.5 C 33.168,460 15,441.832 15,419.5 v -232 C 15,165.168 33.168,147 55.5,147 h 384 c 22.332,0 40.5,18.168 40.5,40.5 z M 439.5,132 H 55.5 C 39.536,132 25.135,138.784 15,149.61 V 75.5 C 15,53.168 33.168,35 55.5,35 h 88 c 16.92,0 30.768,6.503 43.579,20.465 0.026,0.028 0.052,0.057 0.079,0.084 l 38.895,41.105 C 227.469,98.151 229.439,99 231.5,99 h 208 c 22.332,0 40.5,18.168 40.5,40.5 v 10.11 C 469.865,138.784 455.464,132 439.5,132 Z"
       id="path2"
       style="fill:#48486a;fill-opacity:1" />
    <path
       d="m 431.5,180 h -104 c -4.142,0 -7.5,3.357 -7.5,7.5 0,4.143 3.358,7.5 7.5,7.5 h 104 c 4.142,0 7.5,-3.357 7.5,-7.5 0,-4.143 -3.358,-7.5 -7.5,-7.5 z"
       id="path4-3"
       style="fill:#4d7f7f;fill-opacity:1" />
    <path
       d="m 431.5,220 h -104 c -4.142,0 -7.5,3.357 -7.5,7.5 0,4.143 3.358,7.5 7.5,7.5 h 104 c 4.142,0 7.5,-3.357 7.5,-7.5 0,-4.143 -3.358,-7.5 -7.5,-7.5 z"
       id="path6-6"
       style="fill:#4d7f7f;fill-opacity:1" />
  </g>
  <path
     d="m 13.990137,22.842353 c 0,-0.731181 -0.594857,-1.32416 -1.324114,-1.32416 -0.287309,0 -0.561696,0.09209 -0.788224,0.259686 -0.642765,-0.324152 -1.407053,-0.519312 -2.215485,-0.565366 l 0.528526,-1.460416 1.278126,0.318611 c 0.02762,0.524864 0.464074,0.941024 0.99448,0.941024 0.54875,0 0.996288,-0.447526 0.996288,-0.996265 0,-0.548817 -0.447538,-0.996354 -0.996288,-0.996354 -0.373853,0 -0.69982,0.206254 -0.871105,0.51198 L 9.8409368,19.092772 9.078533,21.201447 C 8.20008,21.227237 7.367606,21.426113 6.673337,21.774212 6.4468,21.606593 6.174301,21.516382 5.886966,21.516382 5.155859,21.518482 4.561,22.113053 4.561,22.842353 c 0,0.357261 0.147323,0.701619 0.399621,0.948451 -0.01648,0.104957 -0.02578,0.211789 -0.02578,0.318532 0,0.801111 0.467732,1.545177 1.314889,2.09399 0.810318,0.526664 1.883999,0.815787 3.022137,0.815787 1.138136,0 2.209953,-0.289123 3.022059,-0.815787 0.847162,-0.550679 1.314965,-1.294672 1.314965,-2.09399 0,-0.10496 -0.0093,-0.209917 -0.02389,-0.314877 0.25596,-0.244939 0.40516,-0.59118 0.40516,-0.952106 z M 7.201859,23.61585 c 0,-0.425444 0.34624,-0.771686 0.771684,-0.771686 0.425382,0 0.771623,0.346242 0.771623,0.771686 0,0.425369 -0.346241,0.771609 -0.771623,0.771609 -0.425444,0 -0.771684,-0.34624 -0.771684,-0.771609 z m 2.123421,2.441943 c -0.598541,0 -1.18232,-0.169417 -1.686886,-0.489831 l 0.29646,-0.465935 c 0.416233,0.265153 0.898727,0.405147 1.392285,0.405147 0.4935808,0 0.974202,-0.139994 1.392227,-0.405147 l 0.29654,0.465935 C 10.507592,25.888376 9.92381,26.057793 9.32528,26.057793 Z m 1.368338,-1.670334 c -0.425451,0 -0.771618,-0.34624 -0.771618,-0.771609 0,-0.425444 0.346167,-0.771686 0.771618,-0.771686 0.425441,0 0.771608,0.346242 0.771608,0.771686 0,0.425369 -0.346167,0.771609 -0.771608,0.771609 z m 0,0"
     id="path2-3"
     style="fill:#4d7f7f;fill-opacity:1;stroke-width:0.0184167" />
</svg>
