<?xml version="1.0" encoding="UTF-8" standalone="no"?>
<svg
   xmlns:dc="http://purl.org/dc/elements/1.1/"
   xmlns:cc="http://creativecommons.org/ns#"
   xmlns:rdf="http://www.w3.org/1999/02/22-rdf-syntax-ns#"
   xmlns:svg="http://www.w3.org/2000/svg"
   xmlns="http://www.w3.org/2000/svg"
   xmlns:sodipodi="http://sodipodi.sourceforge.net/DTD/sodipodi-0.dtd"
   xmlns:inkscape="http://www.inkscape.org/namespaces/inkscape"
   inkscape:version="1.0.1 (3bc2e813f5, 2020-09-07)"
   sodipodi:docname="folder_html.svg"
   id="svg14"
   version="1.1"
   viewBox="0 0 32 32">
  <metadata
     id="metadata18">
    <rdf:RDF>
      <cc:Work
         rdf:about="">
        <dc:format>image/svg+xml</dc:format>
        <dc:type
           rdf:resource="http://purl.org/dc/dcmitype/StillImage" />
        <dc:title />
      </cc:Work>
    </rdf:RDF>
  </metadata>
  <sodipodi:namedview
     inkscape:document-rotation="0"
     inkscape:current-layer="svg14"
     inkscape:window-maximized="1"
     inkscape:window-y="0"
     inkscape:window-x="0"
     inkscape:cy="27.963416"
     inkscape:cx="-18.124925"
     inkscape:zoom="7.375"
     showgrid="false"
     id="namedview16"
     inkscape:window-height="1019"
     inkscape:window-width="1920"
     inkscape:pageshadow="2"
     inkscape:pageopacity="0"
     guidetolerance="10"
     gridtolerance="10"
     objecttolerance="10"
     borderopacity="1"
     bordercolor="#666666"
     pagecolor="#ffffff"
     showguides="false" />
  <defs
     id="defs3051">
    <style
       id="current-color-scheme"
       type="text/css">
      .ColorScheme-Text {
        color:#31363b;
      }
      .ColorScheme-Background {
        color:#eff0f1;
      }
      .ColorScheme-Highlight {
        color:#3daee9;
      }
      .ColorScheme-ViewText {
        color:#31363b;
      }
      .ColorScheme-ViewBackground {
        color:#fcfcfc;
      }
      .ColorScheme-ViewHover {
        color:#93cee9;
      }
      .ColorScheme-ViewFocus{
        color:#3daee9;
      }
      .ColorScheme-ButtonText {
        color:#31363b;
      }
      .ColorScheme-ButtonBackground {
        color:#eff0f1;
      }
      .ColorScheme-ButtonHover {
        color:#93cee9;
      }
      .ColorScheme-ButtonFocus{
        color:#3daee9;
      }
      </style>
  </defs>
  <g
     id="g8"
     transform="matrix(0.05714286,0,0,0.05714286,2.0659532,2.2289435)">
    <path
       d="M 439.5,84 H 234.729 L 198.09,45.279 C 182.464,28.269 164.607,20 143.5,20 h -88 C 24.897,20 0,44.897 0,75.5 v 344 C 0,450.103 24.897,475 55.5,475 h 384 c 30.603,0 55.5,-24.897 55.5,-55.5 v -280 C 495,108.897 470.103,84 439.5,84 Z M 480,419.5 c 0,22.332 -18.168,40.5 -40.5,40.5 H 55.5 C 33.168,460 15,441.832 15,419.5 v -232 C 15,165.168 33.168,147 55.5,147 h 384 c 22.332,0 40.5,18.168 40.5,40.5 z M 439.5,132 H 55.5 C 39.536,132 25.135,138.784 15,149.61 V 75.5 C 15,53.168 33.168,35 55.5,35 h 88 c 16.92,0 30.768,6.503 43.579,20.465 0.026,0.028 0.052,0.057 0.079,0.084 l 38.895,41.105 C 227.469,98.151 229.439,99 231.5,99 h 208 c 22.332,0 40.5,18.168 40.5,40.5 v 10.11 C 469.865,138.784 455.464,132 439.5,132 Z"
       id="path2"
       style="fill:#48486a;fill-opacity:1" />
    <path
       d="m 431.5,180 h -104 c -4.142,0 -7.5,3.357 -7.5,7.5 0,4.143 3.358,7.5 7.5,7.5 h 104 c 4.142,0 7.5,-3.357 7.5,-7.5 0,-4.143 -3.358,-7.5 -7.5,-7.5 z"
       id="path4-3"
       style="fill:#4d7f7f;fill-opacity:1" />
    <path
       d="m 431.5,220 h -104 c -4.142,0 -7.5,3.357 -7.5,7.5 0,4.143 3.358,7.5 7.5,7.5 h 104 c 4.142,0 7.5,-3.357 7.5,-7.5 0,-4.143 -3.358,-7.5 -7.5,-7.5 z"
       id="path6-6"
       style="fill:#4d7f7f;fill-opacity:1" />
  </g>
  <path
     id="path12"
     class="ColorScheme-Background"
     d="m 8.60005,18.600427 a 3.9995912,3.9995755 0 0 0 -0.768672,0.07499 3.9995912,3.9995755 0 0 0 -0.02658,0.0044 c -0.132901,0.02474 -0.262801,0.05525 -0.392147,0.09531 -0.126823,0.03931 -0.249113,0.08928 -0.370274,0.140609 -0.09903,0.04197 -0.194222,0.08948 -0.289033,0.13905 a 3.9995912,3.9995755 0 0 0 -0.1078,0.05781 c -0.08489,0.04773 -0.167483,0.09792 -0.248413,0.151548 a 3.9995912,3.9995755 0 0 0 -0.118739,0.0828 c -0.07784,0.05569 -0.154538,0.112396 -0.228101,0.17342 a 3.9995912,3.9995755 0 0 0 -0.09375,0.08278 c -0.07695,0.06793 -0.153469,0.13577 -0.224981,0.209351 -0.17059,0.175529 -0.321396,0.369186 -0.457761,0.573375 a 3.9995912,3.9995755 0 0 0 -0.0453,0.06407 c -0.0609,0.09514 -0.115938,0.193372 -0.168734,0.293719 a 3.9995912,3.9995755 0 0 0 -0.03437,0.06562 c -0.04997,0.09949 -0.09582,0.200702 -0.137485,0.304653 a 3.9995912,3.9995755 0 0 0 -0.03437,0.09218 c -0.02567,0.06893 -0.05625,0.135617 -0.07811,0.20623 -0.01101,0.03559 -0.01681,0.07202 -0.0266,0.1078 a 3.9995912,3.9995755 0 0 0 -0.01092,0.04218 C 4.71283,21.659212 4.68946,21.756753 4.67229,21.85604 A 3.9995912,3.9995755 0 0 0 4.627,22.177882 c -3.29e-4,0.0035 -0.0015,0.006 -0.002,0.0094 -1.01e-4,0.0013 1.07e-4,0.0021 0,0.0034 a 3.9995912,3.9995755 0 0 0 -0.025,0.409303 3.9995912,3.9995755 0 0 0 0.07497,0.768672 3.9995912,3.9995755 0 0 0 0.0044,0.02658 c 0.02474,0.132902 0.05525,0.262806 0.09531,0.392146 0.03931,0.126825 0.08928,0.249114 0.140611,0.370275 0.04195,0.09903 0.08948,0.194222 0.139048,0.289033 a 3.9995912,3.9995755 0 0 0 0.05781,0.107799 c 0.04772,0.08488 0.09791,0.167484 0.151544,0.248414 a 3.9995912,3.9995755 0 0 0 0.0828,0.118739 c 0.0557,0.07784 0.112397,0.154538 0.173418,0.228102 a 3.9995912,3.9995755 0 0 0 0.08279,0.09375 c 0.06793,0.07696 0.135774,0.15347 0.209355,0.22498 0.175527,0.170592 0.369188,0.321397 0.573377,0.457762 a 3.9995912,3.9995755 0 0 0 0.06407,0.04528 c 0.09514,0.0609 0.193374,0.115938 0.293719,0.168734 a 3.9995912,3.9995755 0 0 0 0.06562,0.03437 c 0.09948,0.04998 0.200701,0.09581 0.304654,0.137485 a 3.9995912,3.9995755 0 0 0 0.09219,0.03437 c 0.06894,0.02567 0.135617,0.05625 0.206228,0.07811 0.0356,0.011 0.07202,0.01681 0.107803,0.0266 a 3.9995912,3.9995755 0 0 0 0.04217,0.01092 c 0.0969,0.02508 0.19443,0.04843 0.293717,0.06562 a 3.9995912,3.9995755 0 0 0 0.321843,0.04529 c 0.0035,3.29e-4 0.0059,0.0015 0.0094,0.002 a 3.9995912,3.9995755 0 0 0 0.0034,0 3.9995912,3.9995755 0 0 0 0.409304,0.025 3.9995912,3.9995755 0 0 0 0.768671,-0.07498 3.9995912,3.9995755 0 0 0 0.02658,-0.0044 c 0.132901,-0.02474 0.262799,-0.05525 0.392147,-0.09531 0.22156,-0.06895 0.439079,-0.165571 0.643683,-0.27185 0.02673,-0.01389 0.05504,-0.02641 0.08123,-0.04061 A 3.9995912,3.9995755 0 0 0 11.1118,25.708222 c 0.01688,-0.01357 0.0349,-0.02523 0.05157,-0.03903 a 3.9995912,3.9995755 0 0 0 0.45939,-0.459429 c 0.03212,-0.03699 0.06613,-0.0712 0.09687,-0.109364 a 3.9995912,3.9995755 0 0 0 0.33747,-0.499915 c 0.03081,-0.05307 0.06218,-0.104769 0.09061,-0.159358 a 3.9995912,3.9995755 0 0 0 0.232786,-0.548381 c 0.01234,-0.0361 0.03242,-0.06816 0.04374,-0.104677 0.011,-0.03559 0.01681,-0.07202 0.0266,-0.107801 0.0011,-0.0035 0.0023,-0.006 0.0034,-0.0094 a 3.9995912,3.9995755 0 0 0 0.0078,-0.03282 c 0.02508,-0.09689 0.04841,-0.194429 0.06562,-0.29372 a 3.9995912,3.9995755 0 0 0 0.04529,-0.321839 3.9995912,3.9995755 0 0 0 0.002,-0.0094 c 1.02e-4,-0.0013 -1.01e-4,-0.0021 0,-0.0034 a 3.9995912,3.9995755 0 0 0 0.02498,-0.409332 3.9995912,3.9995755 0 0 0 -0.07499,-0.768671 3.9995912,3.9995755 0 0 0 -0.0044,-0.02659 c -0.02474,-0.1329 -0.05525,-0.2628 -0.09531,-0.392148 -0.0095,-0.03049 -0.02735,-0.05727 -0.03747,-0.08748 a 3.9995912,3.9995755 0 0 0 -0.228055,-0.542133 c -0.02903,-0.05663 -0.05746,-0.112093 -0.08905,-0.16717 A 3.9995912,3.9995755 0 0 0 11.75199,20.144226 c -0.02314,-0.02978 -0.04019,-0.06474 -0.06407,-0.09375 -0.04217,-0.05108 -0.0902,-0.09558 -0.135921,-0.142171 a 3.9995912,3.9995755 0 0 0 -0.67345,-0.588972 c -0.03083,-0.02191 -0.06067,-0.04459 -0.09218,-0.06562 a 3.9995912,3.9995755 0 0 0 -0.07183,-0.04529 c -0.175272,-0.111533 -0.357305,-0.213414 -0.551503,-0.295283 -0.03582,-0.01516 -0.0752,-0.0261 -0.11249,-0.04061 -0.08724,-0.03395 -0.174743,-0.06957 -0.262475,-0.09687 -0.0356,-0.011 -0.07202,-0.01681 -0.107798,-0.02659 -0.0035,-0.0011 -0.0059,-0.0023 -0.0094,-0.0034 a 3.9995912,3.9995755 0 0 0 -0.03282,-0.0078 c -0.0969,-0.02504 -0.194434,-0.0484 -0.293724,-0.06558 a 3.9995912,3.9995755 0 0 0 -0.321839,-0.0453 3.9995912,3.9995755 0 0 0 -0.0094,-0.002 c -0.0013,-1.05e-4 -0.0021,1.02e-4 -0.0034,0 A 3.9995912,3.9995755 0 0 0 8.600387,18.6 Z m 0,0.799919 a 3.199674,3.1996612 0 0 1 1.693574,0.490572 c -0.0021,0.0039 -0.0048,0.0039 -0.006,0.0094 0.01461,0.02966 0.05155,0.03247 0.08592,0.03904 a 3.199674,3.1996612 0 0 1 0.05313,0.03592 c 0.02001,0.02752 0.04394,0.06831 0.04841,0.08749 0.0055,0.02033 0.0088,0.09068 0,0.112487 -0.02259,0.05815 -0.08308,0.05144 -0.149983,0.04999 -0.0182,0 -0.03325,0.002 -0.05,0 -0.112709,-0.007 -0.224072,-0.04312 -0.274971,0.03747 0.0035,0.06184 0.01385,0.0962 0,0.149985 -0.01015,0.0393 -0.05218,0.06584 -0.04997,0.09999 8e-4,0.01741 0.03318,0.05104 0.03747,0.07498 0.0035,0.01313 -0.0055,0.0384 0,0.04998 0.01895,0.03566 0.06658,-0.0055 0.09999,0 0.032,0.0045 0.06252,0.05189 0.06252,0.08748 0,0.02541 -0.0091,0.07529 -0.02502,0.09999 -0.032,0.04799 -0.09169,0.03634 -0.137482,0.06252 -0.0378,0.02185 -0.0525,0.07473 -0.07499,0.11249 -0.024,0.04069 -0.04698,0.05429 -0.03747,0.112488 -0.0327,0.06469 -0.06993,0.106225 -0.137488,0.137484 -0.0196,0.0088 -0.04434,0.02444 -0.06252,0.03747 -0.01459,0.01015 -0.0296,0.02673 -0.04999,0.04998 -0.02542,0.02835 -0.06122,0.04062 -0.07499,0.06252 -0.0102,0.0167 -0.002,0.0525 -0.01247,0.07497 -0.016,0.0306 -0.04217,0.05698 -0.06252,0.08748 -0.0095,0.01458 -0.02743,0.0311 -0.03747,0.05 -0.0233,0.04214 -0.05439,0.07544 -0.04999,0.112487 0.0035,0.03561 0.04779,0.04378 0.04999,0.07497 0.002,0.01741 -0.01329,0.0311 -0.01248,0.05002 8e-4,0.0276 0.01032,0.04072 0.01248,0.06252 0.0045,0.05378 -0.02738,0.07544 -0.03747,0.112489 -0.0045,0.01742 0.0039,0.03625 0,0.05 -0.0088,0.02685 -0.04924,0.04304 -0.05,0.07498 -8e-4,0.02258 0.03537,0.04304 0.03747,0.07498 0.002,0.02178 -0.01693,0.04217 -0.01249,0.06252 0.008,0.03929 0.08195,0.09446 0.112489,0.124986 0.04141,0.04141 0.08181,0.06889 0.09999,0.11249 0.0153,0.03705 0.0216,0.09736 0.04998,0.124986 0.02105,0.02032 0.06055,0.02899 0.08749,0.05 0.02542,0.01959 0.06054,0.029 0.08748,0.04998 0.04437,0.03486 0.104437,0.105089 0.174981,0.09999 0.03714,-0.0035 0.07102,-0.01781 0.112489,-0.02501 0.04284,-0.007 0.09386,-0.0294 0.137488,-0.02502 0.03341,0.0039 0.06513,0.02725 0.09999,0.02502 0.03641,-0.0025 0.08356,-0.01937 0.124988,-0.03747 0.07199,-0.0313 0.182762,-0.0903 0.28747,-0.07498 0.07999,0.01166 0.08147,0.101873 0.137486,0.137486 0.06399,0.0055 0.111584,-0.01234 0.162484,0 0.03858,0.0095 0.08382,0.08196 0.08748,0.11249 0.0039,0.0313 -0.02065,0.0554 -0.02503,0.07498 -0.01015,0.04216 -0.01781,0.09809 -0.02502,0.124983 -0.0055,0.02114 -0.0132,0.04143 -0.01247,0.06252 0,0.01895 0.0304,0.06277 0.05,0.08748 0.024,0.03059 0.05839,0.05405 0.08748,0.08748 0.05312,0.06104 0.07543,0.144283 0.112485,0.224977 0.0095,0.02039 -0.0088,0.02455 0,0.04998 -0.016,0.122132 -0.05749,0.20226 -0.137486,0.337465 -0.03785,0.04358 -0.07578,0.09547 -0.07497,0.149986 -0.0035,0.130853 0.06835,0.198476 0.06252,0.324966 -2.13e-4,0.003 2e-4,0.0021 0,0.0044 a 3.199674,3.1996612 0 0 1 -2.574741,1.307629 3.199674,3.1996612 0 0 1 -0.94209,-0.140611 c 1.69e-4,-0.0039 0.0049,-0.0049 0.0044,-0.0094 -0.002,-0.02114 -0.02078,-0.0311 -0.03746,-0.04999 -0.01378,-0.016 -0.0035,-0.03545 -0.01248,-0.04997 -0.01742,-0.0254 -0.04275,-0.03796 -0.05001,-0.07498 0.05234,-0.01015 0.124357,0.05862 0.199983,0.03747 0.03566,-0.01015 0.09577,-0.079 0.112484,-0.112489 0.0045,-0.01015 -0.0055,-0.05008 0,-0.06252 0.006,-0.0138 0.02285,-0.01782 0.02503,-0.02502 0.0045,-0.0196 -0.0039,-0.02524 0,-0.03747 0.01305,-0.03713 0.0532,-0.0606 0.07497,-0.08749 0.0167,-0.0204 0.03473,-0.04143 0.04999,-0.06252 0.01741,-0.02258 0.02593,-0.0303 0.03747,-0.05001 0.01095,-0.06615 -0.0411,-0.116836 -0.02502,-0.174981 0.01741,-0.0654 0.111726,-0.107681 0.174981,-0.137487 0.02185,-0.01021 0.04436,-0.03093 0.06252,-0.03747 0.04359,-0.0153 0.09677,-0.01055 0.137486,-0.02502 0.06833,-0.0247 0.09154,-0.09997 0.124986,-0.162483 0.016,-0.02905 0.03457,-0.05395 0.03746,-0.075 0.0025,-0.01886 -0.0041,-0.04061 0,-0.06252 0.0039,-0.02178 0.006,-0.03851 0.01248,-0.06252 0.008,-0.0313 0.01248,-0.09009 0.01248,-0.124986 0,-0.02905 -0.01177,-0.03635 -0.01248,-0.06252 -0.0045,-0.09451 0.02762,-0.09838 0.06252,-0.149985 0.01742,-0.02541 0.02519,-0.06933 0.03747,-0.08748 0.05884,-0.08723 0.157253,-0.130175 0.149983,-0.262471 -0.0035,-0.04359 -0.01801,-0.136173 -0.05001,-0.149986 -0.01821,-0.008 -0.06054,-0.0025 -0.08749,-0.01248 -0.0858,-0.032 -0.148035,-0.130216 -0.237474,-0.137486 -0.01895,-8e-4 -0.029,8e-4 -0.05,0 -0.03495,-8e-4 -0.07319,-0.03318 -0.112491,-0.03747 -0.0247,-0.0035 -0.07297,0.007 -0.08749,0 -0.02258,-0.01086 -0.01937,-0.05017 -0.03747,-0.06252 -0.01459,-0.01015 -0.04002,-0.0171 -0.06252,-0.02502 -0.03566,-0.01378 -0.05858,-0.0221 -0.09999,-0.02501 -0.01305,-8e-4 -0.04801,0.0025 -0.06252,0 -0.02258,-0.0039 -0.04142,-0.02443 -0.06252,-0.03747 -0.02615,-0.016 -0.0391,-0.02745 -0.04997,-0.05001 0.024,-0.07859 -0.05904,-0.09171 -0.07498,-0.137485 -0.007,-0.02114 0.007,-0.05614 0,-0.07498 -0.0095,-0.02695 -0.03272,-0.04003 -0.06252,-0.06252 -0.05234,-0.0407 -0.100088,-0.07805 -0.174983,-0.08748 -0.03342,-0.0039 -0.07245,0.0025 -0.112486,0 -0.04215,-0.0035 -0.093,-0.02617 -0.124988,-0.06252 -0.03058,-0.03566 -0.03561,-0.07079 -0.06252,-0.08748 -0.02542,-0.016 -0.07004,-0.02087 -0.08747,-0.03747 -0.008,-0.007 -0.0055,-0.02087 -0.01248,-0.03747 -0.01305,-0.02621 -0.04102,-0.03053 -0.02503,-0.06252 -0.02913,-0.0146 -0.01874,0.01833 -0.04997,0.01248 -0.02842,-0.04 -0.04845,-0.06229 -0.112486,-0.05 -0.02913,0.0055 -0.05335,0.04927 -0.08749,0.05 -0.02838,8e-4 -0.05039,-0.04489 -0.08748,-0.05 -0.02841,-0.0041 -0.06781,0.02939 -0.08749,0.02503 -0.0313,-0.0055 -0.03418,-0.04363 -0.06252,-0.06252 -0.02114,-0.01385 -0.06341,-0.05072 -0.07499,-0.05 -0.03641,8e-4 -0.06229,0.07689 -0.112486,0.05 -0.0247,-0.0313 0.04163,-0.03342 0.01248,-0.06252 -0.02185,-0.02179 -0.03255,8e-4 -0.05002,0.01248 -0.02039,0.0138 -0.04002,0.02958 -0.06252,0.03747 -0.05014,0.01888 -0.08575,0.01719 -0.124987,0.03747 -0.03641,0.01886 -0.04142,0.0504 -0.06252,0.08748 -0.0167,0.03059 -0.04954,0.07354 -0.07499,0.07499 -0.03058,0.002 -0.0598,-0.03829 -0.08748,-0.05001 -0.0836,-0.03637 -0.13091,0.0243 -0.199983,0.02501 -0.06399,7.99e-4 -0.152887,-0.102145 -0.149984,-0.162482 0.002,-0.03714 0.02065,-0.0917 0.02503,-0.137486 0.0039,-0.03638 0.03678,-0.06658 0.03747,-0.09999 8e-4,-0.04433 -0.07086,-0.0824 -0.09999,-0.08748 -0.04114,-0.0073 -0.08928,1.48e-4 -0.139051,0.0044 a 3.199674,3.1996612 0 0 1 0.304635,-0.92181 c 0.0028,7.36e-4 0.0068,0.004 0.0094,0.0044 0.0233,8e-4 0.0282,-0.02865 0.05001,-0.02502 0.02185,0.0039 0.05887,0.04885 0.06252,0.075 0.0035,0.0327 -0.02199,0.06366 -0.01249,0.09999 0.03415,0.03496 0.101263,0.05468 0.149985,0.07499 0.032,-0.02615 0.0045,-0.08718 0,-0.124985 -8e-4,-0.0167 0.002,-0.03473 0,-0.04999 -0.0039,-0.02615 -0.01248,-0.0525 -0.01248,-0.075 0,-0.103958 0.0802,-0.146765 0.149986,-0.187481 0.02979,-0.01741 0.06126,-0.04942 0.08749,-0.06252 0.03705,-0.01815 0.05697,-0.02018 0.08748,-0.03746 0.05529,-0.0313 0.107074,-0.0644 0.149984,-0.09999 0.01957,-0.0473 -0.002,-0.103463 0,-0.149985 0.01957,-0.01234 0.0289,0.002 0.04999,0 0.03341,-0.007 0.04359,-0.05614 0.06252,-0.07498 0.01084,-0.01087 0.04937,-0.01419 0.06252,-0.02502 0.03342,-0.02621 0.03337,-0.06341 0.06252,-0.07498 0.01015,-0.0039 0.03395,-0.0082 0.04998,-0.01248 0.02185,-0.0055 0.05254,-0.02525 0.08748,-0.03747 0.0226,-0.008 0.07877,-0.0039 0.08749,-0.01248 0.01085,-0.01086 -0.0035,-0.05824 0,-0.07498 0.0174,-0.08215 0.139037,-0.08487 0.212476,-0.112487 0.05086,-0.01961 0.10576,-0.06089 0.162485,-0.04999 -0.01095,0.0393 -0.05944,0.02778 -0.04999,0.07497 0.01235,0.06615 0.08921,-0.01562 0.112491,-0.02502 0.04439,-0.01885 0.129306,-0.02898 0.187478,-0.04999 0.05085,-0.01815 0.135469,-0.05359 0.08749,-0.112487 -0.04,-0.0025 -0.0526,0.03545 -0.08749,0.05 -0.024,0.0039 -0.0297,-0.01103 -0.05,-0.01248 -0.01965,-8e-4 -0.0304,0.01613 -0.04997,0.01248 -0.01965,-0.0039 -0.0471,-0.03923 -0.04998,-0.06252 -0.008,-0.06104 0.06277,-0.07989 0.08749,-0.124988 -0.0167,-0.05529 -0.09096,-0.0035 -0.137486,-0.02503 0.0045,-0.0327 0.02393,-0.0685 0.06252,-0.07497 0.0313,-0.0045 0.106076,0.01003 0.124984,0.02501 0.01084,0.0095 -0.0039,0.03473 0.01248,0.04999 0.01886,0.0167 0.05024,0.0039 0.07498,0 0.0088,-0.04141 -0.05725,-0.0231 -0.05,-0.04999 0.0494,-0.032 0.139623,-0.0171 0.199978,-0.02501 0.03484,-0.0045 0.06869,-0.03326 0.09999,-0.04998 0.02905,-0.0167 0.05699,-0.0402 0.08748,-0.01248 0.0088,0.0298 -0.02088,0.04723 -0.03747,0.06252 -0.05599,0.0494 -0.106357,0.105055 -0.149984,0.162483 0.02684,0.02615 0.06743,0.007 0.112487,0.01248 0.01742,0.0025 0.04434,0.0097 0.06252,0.01248 0.02185,0.0039 0.04506,-0.0039 0.06252,0 0.0306,0.007 0.03193,0.05 0.06252,0.05 0.04941,0 0.05338,-0.04155 0.02502,-0.07497 0.0088,-0.03421 0.02492,-0.06351 0.01248,-0.08749 -0.02258,-0.04512 -0.108129,0.007 -0.112488,-0.04996 -0.0035,-0.03634 0.0369,-0.0474 0.04998,-0.07498 -0.0055,-0.06978 0.05725,-0.07421 0.05,-0.137488 -0.0039,-0.02621 -0.03182,-0.02535 -0.05,-0.04998 -0.0095,-0.01305 -0.01418,-0.04055 -0.02501,-0.04999 -0.0094,-0.0079 -0.02254,-0.01073 -0.03437,-0.01563 a 3.199674,3.1996612 0 0 1 0.596779,-0.05942 z m -2.110718,0.799916 c 0.0098,-0.0015 0.02473,0.0019 0.03592,0 0.0167,-8e-4 0.03175,0 0.04999,0 0.01815,0 0.04272,-0.007 0.04999,0 -0.01097,0.04515 -0.10815,0.03036 -0.151545,0.01403 a 3.199674,3.1996612 0 0 1 0.01562,-0.01403 z m 4.274556,0.04842 a 3.199674,3.1996612 0 0 1 0.360901,0.389023 c -0.02621,0 -0.0525,0.01247 -0.07499,0.01247 -0.032,7.99e-4 -0.0975,-0.0162 -0.137486,-0.01247 -0.024,0.002 -0.04002,0.01103 -0.06252,0.01247 -0.06329,0.0045 -0.100545,-0.0039 -0.149984,0 -0.03564,0.0025 -0.104034,0.02227 -0.137486,0.03747 -0.0167,0.008 -0.02819,0.02663 -0.04997,0.03747 -0.01015,0.0045 -0.02441,0.006 -0.03747,0.01248 -0.02033,0.0095 -0.0554,0.03244 -0.07498,0.03747 -0.02834,0.007 -0.06089,-0.0025 -0.112488,0 -0.03714,0.002 -0.09926,-0.0055 -0.09999,-0.04996 -7.99e-4,-0.06759 0.123497,-0.0384 0.187481,-0.05 0.024,-0.0045 0.03337,-0.03327 0.06252,-0.04998 0.01385,-0.008 0.02438,-0.01637 0.03747,-0.02503 0.02178,-0.0153 0.05887,-0.04507 0.06252,-0.06252 0.0025,-0.016 -0.01477,-0.03839 -0.01248,-0.04998 0.0035,-0.0153 0.0304,-0.0304 0.04998,-0.04998 0.03059,-0.03059 0.04968,-0.06779 0.08748,-0.08749 0.02541,-0.01379 0.07582,-0.0172 0.08749,-0.03746 0.0035,-0.0233 -7.92e-4,-0.02899 0,-0.05 0.0091,-0.0082 0.01114,-0.0099 0.01403,-0.01404 z m 0.423395,0.476514 a 3.199674,3.1996612 0 0 1 0.135923,0.199978 c -0.0039,-8.5e-5 -0.0061,7e-4 -0.01092,0 -0.0247,-0.0025 -0.0671,-1.55e-4 -0.08748,-0.01247 -0.01966,-0.01234 -0.06995,-0.03326 -0.07498,-0.05001 -0.008,-0.02684 0.06107,-0.065 0.06252,-0.08748 0.002,-0.01741 -0.02139,-0.0238 -0.02501,-0.04999 z M 5.41288,22.331281 c 0.01939,0.02825 0.04038,0.05586 0.06252,0.06873 0.002,0.0233 -0.007,0.04507 0,0.06252 0.01886,0.02541 0.05699,0.03326 0.08749,0.04998 0.03705,0.02034 0.05254,0.07153 0.08749,0.08748 0.01234,0.0045 0.0311,-0.0055 0.04998,0 0.04799,0.01458 0.05858,0.08739 0.09999,0.07498 0.02686,-0.008 0.03313,-0.04884 0.03747,-0.07498 0.01815,-0.01961 0.03408,-0.04998 0.06252,-0.04998 0.04513,-8e-4 0.05824,0.05565 0.07498,0.09999 0.0095,0.0247 0.03093,0.04884 0.03747,0.07498 0.01085,0.04504 0.0095,0.173087 0,0.19998 -0.01166,0.0334 -0.0598,0.05108 -0.08749,0.08748 -0.01305,0.01741 -0.02737,0.0384 -0.03747,0.05001 -0.01742,0.02178 -0.0369,0.0304 -0.05001,0.04999 -0.007,0.01084 -0.0055,0.03474 -0.01248,0.04997 -0.02185,0.0465 -0.05564,0.08149 -0.03747,0.137485 0.007,0.02258 0.03747,0.04815 0.03747,0.07498 0,0.032 -0.06996,0.04015 -0.07498,0.07499 -0.0039,0.02541 0.02948,0.07829 0.03747,0.112485 0.0055,0.02541 0.04723,0.04579 0.06252,0.06252 0.02541,0.02835 0.05177,0.06366 0.07498,0.09999 0.04584,0.07057 0.06743,0.155912 0.11249,0.224978 0.024,0.03558 0.07153,0.06215 0.08748,0.09999 0.008,0.01885 -0.007,0.05764 0,0.075 0.02615,0.05885 0.153573,0.120909 0.212478,0.149985 0.02761,0.01385 0.04954,0.02299 0.07499,0.03747 0.03858,0.02185 0.117851,0.06584 0.137482,0.09999 0.01743,0.03057 0.02868,0.101277 0.03747,0.149985 0.01084,0.06399 -0.0035,0.118414 0,0.187479 0.002,0.03785 0.01248,0.06214 0.01248,0.09999 0,0.01305 7.99e-4,0.0369 0,0.04999 -8e-4,0.04505 0.0039,0.0917 0,0.137484 -0.0015,0.01857 -5.97e-4,0.03796 0,0.05625 a 3.199674,3.1996612 0 0 1 -1.199873,-2.493497 3.199674,3.1996612 0 0 1 0.01249,-0.268723 z m 0.999898,0.156234 c 0.03495,-0.016 0.02833,0.0456 0,0.04997 -0.02695,0.0039 -0.02615,-0.0376 0,-0.04997 z"
     style="color:#eff0f1;fill:#4d7f7f;fill-opacity:1;stroke:none;stroke-width:0.799916" />
</svg>
