<?xml version="1.0" encoding="UTF-8" standalone="no"?>
<svg
   xmlns:dc="http://purl.org/dc/elements/1.1/"
   xmlns:cc="http://creativecommons.org/ns#"
   xmlns:rdf="http://www.w3.org/1999/02/22-rdf-syntax-ns#"
   xmlns:svg="http://www.w3.org/2000/svg"
   xmlns="http://www.w3.org/2000/svg"
   xmlns:xlink="http://www.w3.org/1999/xlink"
   xmlns:sodipodi="http://sodipodi.sourceforge.net/DTD/sodipodi-0.dtd"
   xmlns:inkscape="http://www.inkscape.org/namespaces/inkscape"
   viewBox="0 0 24 24"
   version="1.1"
   id="svg9"
   sodipodi:docname="folder-mail.svg"
   inkscape:version="1.0.1 (3bc2e813f5, 2020-09-07)">
  <metadata
     id="metadata13">
    <rdf:RDF>
      <cc:Work
         rdf:about="">
        <dc:format>image/svg+xml</dc:format>
        <dc:type
           rdf:resource="http://purl.org/dc/dcmitype/StillImage" />
      </cc:Work>
    </rdf:RDF>
  </metadata>
  <sodipodi:namedview
     pagecolor="#ffffff"
     bordercolor="#666666"
     borderopacity="1"
     objecttolerance="10"
     gridtolerance="10"
     guidetolerance="10"
     inkscape:pageopacity="0"
     inkscape:pageshadow="2"
     inkscape:window-width="1920"
     inkscape:window-height="1013"
     id="namedview11"
     showgrid="false"
     inkscape:zoom="26.166667"
     inkscape:cx="12"
     inkscape:cy="12"
     inkscape:window-x="0"
     inkscape:window-y="0"
     inkscape:window-maximized="1"
     inkscape:current-layer="svg9" />
  <defs
     id="defs3051">
    <linearGradient
       inkscape:collect="always"
       id="linearGradient842">
      <stop
         style="stop-color:#8d5fd3;stop-opacity:1"
         offset="0"
         id="stop838" />
      <stop
         style="stop-color:#ff00cc;stop-opacity:1"
         offset="1"
         id="stop840" />
    </linearGradient>
    <style
       type="text/css"
       id="current-color-scheme">
      .ColorScheme-Text {
        color:#eff0f1;
      }
      </style>
    <linearGradient
       inkscape:collect="always"
       xlink:href="#linearGradient842"
       id="linearGradient844"
       x1="422.71429"
       y1="536.79074"
       x2="442.71429"
       y2="536.79074"
       gradientUnits="userSpaceOnUse" />
  </defs>
  <g
     transform="translate(1,1)"
     id="g7">
    <g
       transform="translate(-421.71429,-525.79074)"
       id="g5">
      <path
         style="opacity:1;fill:url(#linearGradient844);fill-opacity:1;stroke:none"
         d="m 422.71429,528.79074 0,1 0,14 0,0.41406 0,0.58594 1,0 19,0 0,-0.58594 0,-0.41406 0,-1 0,-14 -0.0488,0 -0.95117,0 -17.53711,0 -0.46289,0 -1,0 z m 1,1 0.0488,0 5.97461,5.97656 -6.02344,6.02344 0,-12 z m 1.46289,0 15.07422,0 -7.53711,7.53711 -7.53711,-7.53711 z m 16.48828,0 0.0488,0 0,12 -6.02344,-6.02344 5.97461,-5.97656 z m -11.2207,6.68359 2.26953,2.26758 2.26953,-2.26758 6.26758,6.26758 0.46289,0.46289 0,0.58594 -18,0 0,-0.58594 0.46289,-0.46289 6.26758,-6.26758 z"
         id="rect4144"
         class="ColorScheme-Text" />
    </g>
  </g>
</svg>
