<?xml version="1.0" encoding="UTF-8" standalone="no"?>
<svg
   xmlns:dc="http://purl.org/dc/elements/1.1/"
   xmlns:cc="http://creativecommons.org/ns#"
   xmlns:rdf="http://www.w3.org/1999/02/22-rdf-syntax-ns#"
   xmlns:svg="http://www.w3.org/2000/svg"
   xmlns="http://www.w3.org/2000/svg"
   xmlns:sodipodi="http://sodipodi.sourceforge.net/DTD/sodipodi-0.dtd"
   xmlns:inkscape="http://www.inkscape.org/namespaces/inkscape"
   inkscape:version="1.0.1 (3bc2e813f5, 2020-09-07)"
   sodipodi:docname="folder-Pop_OS.svg"
   id="svg14"
   version="1.1"
   viewBox="0 0 32 32">
  <metadata
     id="metadata18">
    <rdf:RDF>
      <cc:Work
         rdf:about="">
        <dc:format>image/svg+xml</dc:format>
        <dc:type
           rdf:resource="http://purl.org/dc/dcmitype/StillImage" />
      </cc:Work>
    </rdf:RDF>
  </metadata>
  <sodipodi:namedview
     inkscape:document-rotation="0"
     inkscape:current-layer="svg14"
     inkscape:window-maximized="1"
     inkscape:window-y="0"
     inkscape:window-x="0"
     inkscape:cy="27.963416"
     inkscape:cx="-18.124925"
     inkscape:zoom="7.375"
     showgrid="false"
     id="namedview16"
     inkscape:window-height="1007"
     inkscape:window-width="1920"
     inkscape:pageshadow="2"
     inkscape:pageopacity="0"
     guidetolerance="10"
     gridtolerance="10"
     objecttolerance="10"
     borderopacity="1"
     bordercolor="#666666"
     pagecolor="#ffffff"
     showguides="false" />
  <defs
     id="defs3051">
    <style
       id="current-color-scheme"
       type="text/css">
      .ColorScheme-Text {
        color:#31363b;
      }
      .ColorScheme-Background {
        color:#eff0f1;
      }
      .ColorScheme-Highlight {
        color:#3daee9;
      }
      .ColorScheme-ViewText {
        color:#31363b;
      }
      .ColorScheme-ViewBackground {
        color:#fcfcfc;
      }
      .ColorScheme-ViewHover {
        color:#93cee9;
      }
      .ColorScheme-ViewFocus{
        color:#3daee9;
      }
      .ColorScheme-ButtonText {
        color:#31363b;
      }
      .ColorScheme-ButtonBackground {
        color:#eff0f1;
      }
      .ColorScheme-ButtonHover {
        color:#93cee9;
      }
      .ColorScheme-ButtonFocus{
        color:#3daee9;
      }
      </style>
  </defs>
  <g
     id="g8"
     transform="matrix(0.05714286,0,0,0.05714286,2.0659532,2.2289435)">
    <path
       d="M 439.5,84 H 234.729 L 198.09,45.279 C 182.464,28.269 164.607,20 143.5,20 h -88 C 24.897,20 0,44.897 0,75.5 v 344 C 0,450.103 24.897,475 55.5,475 h 384 c 30.603,0 55.5,-24.897 55.5,-55.5 v -280 C 495,108.897 470.103,84 439.5,84 Z M 480,419.5 c 0,22.332 -18.168,40.5 -40.5,40.5 H 55.5 C 33.168,460 15,441.832 15,419.5 v -232 C 15,165.168 33.168,147 55.5,147 h 384 c 22.332,0 40.5,18.168 40.5,40.5 z M 439.5,132 H 55.5 C 39.536,132 25.135,138.784 15,149.61 V 75.5 C 15,53.168 33.168,35 55.5,35 h 88 c 16.92,0 30.768,6.503 43.579,20.465 0.026,0.028 0.052,0.057 0.079,0.084 l 38.895,41.105 C 227.469,98.151 229.439,99 231.5,99 h 208 c 22.332,0 40.5,18.168 40.5,40.5 v 10.11 C 469.865,138.784 455.464,132 439.5,132 Z"
       id="path2"
       style="fill:#8585ad;fill-opacity:1" />
    <path
       d="m 431.5,180 h -104 c -4.142,0 -7.5,3.357 -7.5,7.5 0,4.143 3.358,7.5 7.5,7.5 h 104 c 4.142,0 7.5,-3.357 7.5,-7.5 0,-4.143 -3.358,-7.5 -7.5,-7.5 z"
       id="path4-3"
       style="fill:#d3dae3;fill-opacity:1" />
    <path
       d="m 431.5,220 h -104 c -4.142,0 -7.5,3.357 -7.5,7.5 0,4.143 3.358,7.5 7.5,7.5 h 104 c 4.142,0 7.5,-3.357 7.5,-7.5 0,-4.143 -3.358,-7.5 -7.5,-7.5 z"
       id="path6-6"
       style="fill:#d3dae3;fill-opacity:1" />
  </g>
  <path
     style="fill:#80b2b2;fill-opacity:1;stroke-width:0.0112957"
     id="path2-3"
     d="m 14.958772,23.132749 c -0.02119,0.09018 -0.06703,0.170125 -0.145278,0.220362 -0.122927,0.07881 -0.27268,0.05592 -0.378844,-0.03994 -0.09946,-0.08909 -0.132982,-0.239771 -0.101698,-0.369931 0.03242,-0.135864 0.135223,-0.255757 0.267094,-0.293429 0.293912,-0.08338 0.415722,0.243191 0.358726,0.482962 z m -0.179921,-0.927106 c -0.182158,-0.07419 -0.119581,-1.050416 0.04687,-2.235558 0.04687,-0.331108 0.127409,-0.487531 0.217919,-0.567454 0.129642,-0.113032 0.365436,-0.117601 0.525249,-0.09363 0.183275,0.02744 0.358725,0.114182 0.491705,0.245482 0.117346,0.11646 0.130755,0.2352 0.09054,0.38934 -0.06597,0.245478 -0.178807,0.480679 -0.287206,0.710174 -0.02573,0.05592 -0.250327,0.490954 -0.280506,0.544617 -0.542002,0.975062 -0.650403,1.069824 -0.804616,1.007027 z" />
  <path
     style="fill:#80b2b2;fill-opacity:1;stroke-width:0.0112957"
     id="path4"
     d="m 11.102177,21.76607 c 0.107281,0.468116 0.09611,0.981912 0.004,1.35184 -0.08604,0.349379 -0.319613,0.662218 -0.690635,0.76726 -0.3252,0.09246 -0.7040414,0.02517 -0.9364861,-0.203234 -0.382196,-0.374494 -0.605704,-1.253649 -0.506241,-1.891892 0.08043,-0.512651 0.350902,-1.16916 0.9443111,-1.197703 0.03802,-0.0027 0.07599,-0.0015 0.113985,0.0027 0.604585,0.05592 0.934258,0.576587 1.070595,1.17144 z m -1.092943,1.065258 c 0.03349,0.0055 0.06703,0.0055 0.100577,-0.004 0.112873,-0.03315 0.17769,-0.152996 0.207862,-0.269456 0.04585,-0.176971 0.03908,-0.367646 -0.02013,-0.541193 -0.03015,-0.08791 -0.07484,-0.173546 -0.14305,-0.237484 -0.240269,-0.224926 -0.4805381,0.0093 -0.5218851,0.27516 -0.0324,0.207806 0.01455,0.448714 0.1419277,0.616553 0.05924,0.07765 0.1441604,0.145002 0.2346784,0.160987 z" />
  <path
     style="fill:#80b2b2;fill-opacity:1;stroke-width:0.0112957"
     id="path6"
     d="m 12.410806,22.758254 c -0.0015,0.864314 0.08378,1.525388 -0.288326,1.60417 -0.301731,0.0628 -0.29167,-0.207799 -0.315139,-0.435008 -0.08938,-0.880294 -0.170982,-2.342887 -0.205628,-3.227749 0.02456,-0.380205 0.2738,-0.613123 0.533064,-0.670209 0.400074,-0.0879 0.826975,-0.0628 1.181227,0.160982 0.700693,0.443004 0.756567,1.255937 0.331908,1.9193 -0.23245,0.361935 -0.935372,0.624535 -1.237106,0.601702 z m 0.08938,-1.937561 c -0.04358,0.0066 -0.115106,0.02743 -0.135224,0.07077 -0.04808,0.101622 -0.04466,0.746712 0.03908,1.017309 0.01341,0.04446 0.0436,0.08678 0.08716,0.10276 0.158692,0.05938 0.301736,-0.139297 0.366552,-0.259182 0.09053,-0.166695 0.119575,-0.363075 0.06258,-0.545762 -0.05366,-0.17012 -0.220153,-0.416736 -0.42019,-0.385911 z" />
  <path
     style="fill:#80b2b2;fill-opacity:1;stroke-width:0.0112957"
     id="path8"
     d="m 8.4033449,21.249995 c -0.262622,0.567454 -0.69846,1.018445 -1.301921,1.241087 0.17321,0.462417 0.349782,0.919114 0.521883,1.380385 0.09611,0.248905 0.187748,0.521784 0.103935,0.767261 -0.08716,0.251189 -0.426899,0.320834 -0.673878,0.05369 -0.474945,-0.516074 -2.080834,-3.786068 -2.199288,-4.031547 -0.100583,-0.211229 -0.251444,-0.437293 -0.246979,-0.681635 0.0078,-0.36764 0.564345,-0.739846 0.831446,-0.930528 0.373248,-0.26603 0.804619,-0.447562 1.266158,-0.448708 0.359844,0 0.667162,0.100472 0.939842,0.278595 0.417957,0.27401 0.708512,0.711308 0.815798,1.205683 0.09389,0.435016 0.07377,0.880302 -0.057,1.16574 m -1.22369,-0.621112 c -0.09389,-0.348237 -0.306209,-0.669074 -0.573297,-0.893996 -0.05807,-0.04914 -0.120696,-0.09477 -0.193335,-0.119887 -0.500645,-0.167838 -0.283844,0.687333 -0.202271,0.903129 0.112871,0.302569 0.283856,0.685058 0.512948,0.913404 0.05027,0.05023 0.109517,0.09477 0.177685,0.108472 0.103932,0.02172 0.200035,-0.05245 0.252561,-0.139297 0.04362,-0.0719 0.06036,-0.157565 0.0704,-0.240909 0.01902,-0.176977 0.0027,-0.357376 -0.04466,-0.530916 z" />
  <path
     style="fill:#80b2b2;fill-opacity:1;stroke-width:0.0112957"
     id="path10"
     d="m 14.390343,25.596338 c -0.0027,0.501232 -0.301729,1.002464 -0.962191,1.002464 -0.660461,0 -0.96778,-0.493241 -0.96778,-0.996755 0,-0.627967 0.428016,-1.016165 0.981191,-1.016165 0.641466,0.0055 0.954369,0.492098 0.94878,1.010456 z m -0.94878,-0.694189 c -0.414605,0 -0.64705,0.294576 -0.649283,0.69647 0,0.34938 0.191094,0.677066 0.641462,0.677066 0.450361,0 0.622463,-0.35509 0.622463,-0.680488 0.0051,-0.337962 -0.169867,-0.685056 -0.614642,-0.693048 z m 1.22593,1.439756 c 0,0.07418 0.0027,-0.352803 0,-0.417881 h 0.303967 l 0.02121,0.261461 c 0.09946,0.05823 0.253679,0.101617 0.379958,0.101617 0.234682,0 0.479421,-0.0605 0.479421,-0.294574 -0.0077,-0.212366 -0.280499,-0.255753 -0.500654,-0.278586 -0.374369,-0.0388 -0.676109,-0.132447 -0.676109,-0.561749 0,-0.382487 0.423548,-0.57316 0.738691,-0.57316 0.253679,-0.0055 0.433602,0.0354 0.662693,0.222642 0,0.154137 -0.0027,0.245476 -0.0027,0.399614 h -0.293815 l -0.01895,-0.253469 c -0.118458,-0.05824 -0.240266,-0.07419 -0.33414,-0.0719 -0.20227,0.0027 -0.417955,0.09933 -0.417955,0.27288 0,0.170118 0.139692,0.216933 0.38778,0.25347 0.404549,0.05478 0.794563,0.148429 0.794563,0.589145 -0.0027,0.481821 -0.444773,0.608556 -0.824733,0.608556 -0.289439,0.0015 -0.470477,-0.05369 -0.699575,-0.258036 z"
     inkscape:connector-curvature="0" />
  <path
     style="fill:#80b2b2;stroke-width:0.0112957;fill-opacity:1"
     id="path12"
     d="m 12.050236,26.434387 c 0,0.08791 -0.06923,0.158704 -0.155336,0.158704 h -1.795867 c -0.08604,0 -0.155337,-0.07079 -0.155337,-0.158704 v -0.01373 c 0,-0.0879 0.06925,-0.158705 0.155337,-0.158705 H 11.8949 c 0.08604,0 0.155336,0.0708 0.155336,0.158705 z"
     inkscape:connector-curvature="0" />
</svg>
