<?xml version="1.0" encoding="UTF-8" standalone="no"?>
<svg
   xmlns:dc="http://purl.org/dc/elements/1.1/"
   xmlns:cc="http://creativecommons.org/ns#"
   xmlns:rdf="http://www.w3.org/1999/02/22-rdf-syntax-ns#"
   xmlns:svg="http://www.w3.org/2000/svg"
   xmlns="http://www.w3.org/2000/svg"
   xmlns:xlink="http://www.w3.org/1999/xlink"
   xmlns:sodipodi="http://sodipodi.sourceforge.net/DTD/sodipodi-0.dtd"
   xmlns:inkscape="http://www.inkscape.org/namespaces/inkscape"
   viewBox="0 0 16 16"
   version="1.1"
   id="svg6"
   sodipodi:docname="folder-saved-search-symbolic.svg"
   inkscape:version="1.0.1 (3bc2e813f5, 2020-09-07)">
  <metadata
     id="metadata10">
    <rdf:RDF>
      <cc:Work
         rdf:about="">
        <dc:format>image/svg+xml</dc:format>
        <dc:type
           rdf:resource="http://purl.org/dc/dcmitype/StillImage" />
      </cc:Work>
    </rdf:RDF>
  </metadata>
  <sodipodi:namedview
     pagecolor="#ffffff"
     bordercolor="#666666"
     borderopacity="1"
     objecttolerance="10"
     gridtolerance="10"
     guidetolerance="10"
     inkscape:pageopacity="0"
     inkscape:pageshadow="2"
     inkscape:window-width="1920"
     inkscape:window-height="1013"
     id="namedview8"
     showgrid="false"
     inkscape:zoom="39.25"
     inkscape:cx="8"
     inkscape:cy="8"
     inkscape:window-x="0"
     inkscape:window-y="0"
     inkscape:window-maximized="1"
     inkscape:current-layer="svg6" />
  <defs
     id="defs3051">
    <linearGradient
       inkscape:collect="always"
       id="linearGradient839">
      <stop
         style="stop-color:#ffff00;stop-opacity:1"
         offset="0"
         id="stop835" />
      <stop
         style="stop-color:#ff6600;stop-opacity:1"
         offset="1"
         id="stop837" />
    </linearGradient>
    <style
       type="text/css"
       id="current-color-scheme">
      .ColorScheme-Text {
        color:#eff0f1;
      }
      </style>
    <linearGradient
       inkscape:collect="always"
       xlink:href="#linearGradient839"
       id="linearGradient841"
       x1="2"
       y1="8.001953"
       x2="14"
       y2="8.001953"
       gradientUnits="userSpaceOnUse" />
  </defs>
  <path
     style="fill:url(#linearGradient841);fill-opacity:1;stroke:none"
     d="M 6.5 2 C 4.007 2 2 4.01 2 6.5 C 2 8.993 4.01 11 6.5 11 C 7.5636432 11 8.5263409 10.618801 9.2949219 10.005859 L 13.292969 14.003906 L 14 13.296875 L 10.001953 9.2988281 C 10.617604 8.529048 11 7.565338 11 6.5 C 11 4.007 8.99 2 6.5 2 z M 6.5 3 C 8.439 3 10 4.561 10 6.5 C 10 8.439 8.439 10 6.5 10 C 4.561 10 3 8.439 3 6.5 C 3 4.561 4.561 3 6.5 3 z "
     class="ColorScheme-Text"
     id="path4" />
</svg>
