<?xml version="1.0" encoding="UTF-8" standalone="no"?>
<svg
   xmlns:dc="http://purl.org/dc/elements/1.1/"
   xmlns:cc="http://creativecommons.org/ns#"
   xmlns:rdf="http://www.w3.org/1999/02/22-rdf-syntax-ns#"
   xmlns:svg="http://www.w3.org/2000/svg"
   xmlns="http://www.w3.org/2000/svg"
   xmlns:xlink="http://www.w3.org/1999/xlink"
   xmlns:sodipodi="http://sodipodi.sourceforge.net/DTD/sodipodi-0.dtd"
   xmlns:inkscape="http://www.inkscape.org/namespaces/inkscape"
   viewBox="0 0 22 22"
   version="1.1"
   id="svg6"
   sodipodi:docname="system-save-session.svg"
   inkscape:version="1.0.1 (3bc2e813f5, 2020-09-07)">
  <metadata
     id="metadata10">
    <rdf:RDF>
      <cc:Work
         rdf:about="">
        <dc:format>image/svg+xml</dc:format>
        <dc:type
           rdf:resource="http://purl.org/dc/dcmitype/StillImage" />
      </cc:Work>
    </rdf:RDF>
  </metadata>
  <sodipodi:namedview
     pagecolor="#ffffff"
     bordercolor="#666666"
     borderopacity="1"
     objecttolerance="10"
     gridtolerance="10"
     guidetolerance="10"
     inkscape:pageopacity="0"
     inkscape:pageshadow="2"
     inkscape:window-width="1920"
     inkscape:window-height="1013"
     id="namedview8"
     showgrid="false"
     inkscape:zoom="28.545455"
     inkscape:cx="11"
     inkscape:cy="11"
     inkscape:window-x="0"
     inkscape:window-y="0"
     inkscape:window-maximized="1"
     inkscape:current-layer="svg6"
     inkscape:document-rotation="0" />
  <defs
     id="defs3051">
    <linearGradient
       inkscape:collect="always"
       id="linearGradient839">
      <stop
         style="stop-color:#88373f;stop-opacity:1"
         offset="0"
         id="stop835" />
      <stop
         style="stop-color:#ab7c1f;stop-opacity:1"
         offset="1"
         id="stop837" />
    </linearGradient>
    <style
       type="text/css"
       id="current-color-scheme">
      .ColorScheme-Text {
        color:#eff0f1;
      }
      </style>
    <linearGradient
       inkscape:collect="always"
       xlink:href="#linearGradient839"
       id="linearGradient841"
       x1="3"
       y1="2.9980469"
       x2="19"
       y2="19"
       gradientUnits="userSpaceOnUse" />
  </defs>
  <path
     style="fill:url(#linearGradient841);fill-opacity:1;stroke:none"
     d="M 3 2.9980469 L 3 3 L 3 4 L 3 19 L 4 19 L 19 19 L 19 18 L 19 7 L 19 6.3007812 L 18.992188 6.3007812 L 19 6.2910156 L 15.707031 2.9980469 L 15.699219 3.0078125 L 15.699219 2.9980469 L 15 2.9980469 L 3 2.9980469 z M 4 4 L 7 4 L 7 8 L 7 9 L 15 9 L 15 8 L 15 4 L 15.292969 4 L 18 6.7070312 L 18 7 L 18 18 L 16 18 L 16 11 L 15 11 L 7 11 L 6 11 L 6 18 L 4 18 L 4 4 z M 8 4 L 11.900391 4 L 11.900391 8 L 8 8 L 8 4 z M 7 12 L 15 12 L 15 18 L 7 18 L 7 12 z "
     class="ColorScheme-Text"
     id="path4" />
</svg>
