<?xml version="1.0" encoding="UTF-8" standalone="no"?>
<svg
   xmlns:dc="http://purl.org/dc/elements/1.1/"
   xmlns:cc="http://creativecommons.org/ns#"
   xmlns:rdf="http://www.w3.org/1999/02/22-rdf-syntax-ns#"
   xmlns:svg="http://www.w3.org/2000/svg"
   xmlns="http://www.w3.org/2000/svg"
   xmlns:xlink="http://www.w3.org/1999/xlink"
   xmlns:sodipodi="http://sodipodi.sourceforge.net/DTD/sodipodi-0.dtd"
   xmlns:inkscape="http://www.inkscape.org/namespaces/inkscape"
   width="25.6"
   height="25.6"
   viewBox="0 0 24 24"
   id="svg7925"
   version="1.1"
   inkscape:version="1.0.2 (e86c870879, 2021-01-15)"
   sodipodi:docname="system-file-manager.svg">
  <defs
     id="defs7927">
    <linearGradient
       id="linearGradient4274"
       inkscape:collect="always">
      <stop
         id="stop4276"
         offset="0"
         style="stop-color:#ffffff;stop-opacity:1;" />
      <stop
         id="stop4278"
         offset="1"
         style="stop-color:#ffffff;stop-opacity:0.48760331" />
    </linearGradient>
    <linearGradient
       inkscape:collect="always"
       xlink:href="#linearGradient4274"
       id="linearGradient8485"
       gradientUnits="userSpaceOnUse"
       gradientTransform="matrix(0.69224711,0,0,0.69224711,-264.27155,1668.4354)"
       x1="390.57144"
       y1="498.298"
       x2="442.57144"
       y2="498.298" />
    <linearGradient
       inkscape:collect="always"
       xlink:href="#linearGradient4274"
       id="linearGradient8603-0"
       gradientUnits="userSpaceOnUse"
       gradientTransform="matrix(0.34616832,0,0,0.34616832,-135.15325,827.3248)"
       x1="390.57144"
       y1="498.298"
       x2="442.57144"
       y2="498.298" />
    <linearGradient
       inkscape:collect="always"
       xlink:href="#linearGradient838"
       id="linearGradient840"
       x1="100.29754"
       y1="390.20538"
       x2="317.87994"
       y2="218.15271"
       gradientUnits="userSpaceOnUse"
       gradientTransform="translate(2.3561994,-10.285752)" />
    <linearGradient
       inkscape:collect="always"
       id="linearGradient838">
      <stop
         style="stop-color:#fac136;stop-opacity:1"
         offset="0"
         id="stop834" />
      <stop
         style="stop-color:#006dda;stop-opacity:1"
         offset="1"
         id="stop836" />
    </linearGradient>
    <linearGradient
       inkscape:collect="always"
       xlink:href="#linearGradient838"
       id="linearGradient848"
       x1="320"
       y1="187.5"
       x2="439"
       y2="187.5"
       gradientUnits="userSpaceOnUse" />
    <linearGradient
       inkscape:collect="always"
       xlink:href="#linearGradient838"
       id="linearGradient856"
       x1="320"
       y1="227.5"
       x2="439"
       y2="227.5"
       gradientUnits="userSpaceOnUse" />
  </defs>
  <sodipodi:namedview
     id="base"
     pagecolor="#ffffff"
     bordercolor="#666666"
     borderopacity="1.0"
     inkscape:pageopacity="0.0"
     inkscape:pageshadow="2"
     inkscape:zoom="16"
     inkscape:cx="14.916528"
     inkscape:cy="13.052166"
     inkscape:document-units="px"
     inkscape:current-layer="layer1"
     showgrid="true"
     units="px"
     inkscape:snap-bbox="true"
     inkscape:bbox-nodes="true"
     inkscape:object-nodes="true"
     inkscape:document-rotation="0"
     inkscape:window-width="1920"
     inkscape:window-height="1007"
     inkscape:window-x="0"
     inkscape:window-y="0"
     inkscape:window-maximized="1">
    <inkscape:grid
       type="xygrid"
       id="grid8605"
       originx="0"
       originy="0"
       spacingx="1"
       spacingy="1" />
  </sodipodi:namedview>
  <metadata
     id="metadata7930">
    <rdf:RDF>
      <cc:Work
         rdf:about="">
        <dc:format>image/svg+xml</dc:format>
        <dc:type
           rdf:resource="http://purl.org/dc/dcmitype/StillImage" />
        <dc:title />
      </cc:Work>
    </rdf:RDF>
  </metadata>
  <g
     transform="translate(1,1)"
     id="g37">
    <g
       inkscape:label="Livello 1"
       inkscape:groupmode="layer"
       id="layer1"
       transform="translate(0,-1030.3622)">
      <g
         id="g8"
         transform="matrix(0.03978864,0,0,0.03956044,1.0625,1031.9779)">
        <path
           d="m 441.8562,73.714249 h -204.771 l -36.639,-38.721 c -15.626,-17.01 -33.483,-25.2790002 -54.59,-25.2790002 H 57.856199 c -30.603,0 -55.4999996,24.8970002 -55.4999996,55.5000002 V 409.21425 c 0,30.603 24.8969996,55.5 55.4999996,55.5 H 441.8562 c 30.603,0 55.5,-24.897 55.5,-55.5 v -280 c 0,-30.603001 -24.897,-55.500001 -55.5,-55.500001 z m 40.5,335.500001 c 0,22.332 -18.168,40.5 -40.5,40.5 H 57.856199 c -22.332,0 -40.5,-18.168 -40.5,-40.5 v -232 c 0,-22.332 18.168,-40.5 40.5,-40.5 H 441.8562 c 22.332,0 40.5,18.168 40.5,40.5 z m -40.5,-287.5 H 57.856199 c -15.964,0 -30.365,6.784 -40.5,17.61 V 65.214249 c 0,-22.332 18.168,-40.5 40.5,-40.5 H 145.8562 c 16.92,0 30.768,6.503 43.579,20.465 0.026,0.028 0.052,0.057 0.079,0.084 l 38.895,41.105 c 1.416,1.497 3.386,2.346 5.447,2.346 h 208 c 22.332,0 40.5,18.168001 40.5,40.500001 v 10.11 c -10.135,-10.826 -24.536,-17.61 -40.5,-17.61 z"
           id="path2"
           style="fill:url(#linearGradient840);fill-opacity:1" />
        <path
           d="m 431.5,180 h -104 c -4.142,0 -7.5,3.357 -7.5,7.5 0,4.143 3.358,7.5 7.5,7.5 h 104 c 4.142,0 7.5,-3.357 7.5,-7.5 0,-4.143 -3.358,-7.5 -7.5,-7.5 z"
           id="path4-3"
           style="fill:url(#linearGradient848);fill-opacity:1" />
        <path
           d="m 431.5,220 h -104 c -4.142,0 -7.5,3.357 -7.5,7.5 0,4.143 3.358,7.5 7.5,7.5 h 104 c 4.142,0 7.5,-3.357 7.5,-7.5 0,-4.143 -3.358,-7.5 -7.5,-7.5 z"
           id="path6-6"
           style="fill:url(#linearGradient856);fill-opacity:1" />
      </g>
    </g>
  </g>
</svg>
