<?xml version="1.0" encoding="UTF-8" standalone="no"?>
<svg
   height="22"
   width="22"
   version="1.1"
   id="svg786"
   sodipodi:docname="preferences-desktop-plasma.svg"
   inkscape:version="1.2.1 (9c6d41e410, 2022-07-14)"
   xmlns:inkscape="http://www.inkscape.org/namespaces/inkscape"
   xmlns:sodipodi="http://sodipodi.sourceforge.net/DTD/sodipodi-0.dtd"
   xmlns:xlink="http://www.w3.org/1999/xlink"
   xmlns="http://www.w3.org/2000/svg"
   xmlns:svg="http://www.w3.org/2000/svg">
  <defs
     id="defs790">
    <linearGradient
       id="a-3"
       x1="428.81601"
       x2="388.86499"
       y1="547.63397"
       y2="499.67899"
       gradientTransform="matrix(0.4500002,0,0,0.44685936,-172.85657,-223.00208)"
       gradientUnits="userSpaceOnUse">
      <stop
         stop-color="#bdc3c7"
         offset="0"
         id="stop2193" />
      <stop
         stop-color="#eff0f1"
         offset="1"
         id="stop2195" />
    </linearGradient>
    <linearGradient
       id="c-3"
       y1="521.15002"
       x1="394.22"
       y2="533.40997"
       gradientUnits="userSpaceOnUse"
       x2="416.85001"
       gradientTransform="translate(-12.764,-10.07)">
      <stop
         stop-color="#292c2f"
         id="stop225" />
      <stop
         offset="1"
         stop-opacity="0"
         id="stop227" />
    </linearGradient>
    <linearGradient
       id="linearGradient1889"
       gradientUnits="userSpaceOnUse"
       x1="19.915001"
       x2="33.915001"
       y1="-5.5933328"
       y2="8.4066668"
       gradientTransform="translate(-43.932612,-24.930416)">
      <stop
         offset="0"
         stop-color="#292c2f"
         id="stop743-6" />
      <stop
         offset="1"
         stop-opacity="0"
         id="stop745-7" />
    </linearGradient>
    <linearGradient
       id="linearGradient1893"
       gradientUnits="userSpaceOnUse"
       x1="6.9150009"
       x2="6.9150009"
       y1="18.041945"
       y2="9.8719463"
       gradientTransform="translate(-43.932612,-28.932366)">
      <stop
         offset="0"
         stop-color="#eff0f1"
         id="stop738-5" />
      <stop
         offset="1"
         stop-color="#fcfcfc"
         id="stop740-3" />
    </linearGradient>
    <linearGradient
       inkscape:collect="always"
       xlink:href="#i"
       id="linearGradient1898"
       gradientUnits="userSpaceOnUse"
       gradientTransform="translate(-9.5367428e-7,3.34986)"
       x1="19.915"
       y1="-5.593333"
       x2="33.915"
       y2="8.406667" />
  </defs>
  <sodipodi:namedview
     id="namedview788"
     pagecolor="#ffffff"
     bordercolor="#666666"
     borderopacity="1.0"
     inkscape:showpageshadow="2"
     inkscape:pageopacity="0.0"
     inkscape:pagecheckerboard="0"
     inkscape:deskcolor="#d1d1d1"
     showgrid="false"
     inkscape:zoom="10.727273"
     inkscape:cx="11"
     inkscape:cy="-3.868644"
     inkscape:window-width="1920"
     inkscape:window-height="1000"
     inkscape:window-x="0"
     inkscape:window-y="0"
     inkscape:window-maximized="1"
     inkscape:current-layer="svg786" />
  <linearGradient
     id="a"
     gradientTransform="matrix(0.41666647,0,0,0.54999974,-188.65687,-279.08879)"
     gradientUnits="userSpaceOnUse"
     x1="418.16971"
     x2="384.57144"
     y1="503.07938"
     y2="531.45813">
    <stop
       offset="0"
       stop-color="#1abc9c"
       id="stop719" />
    <stop
       offset="1"
       stop-color="#2980b9"
       id="stop721" />
  </linearGradient>
  <linearGradient
     id="b"
     gradientUnits="userSpaceOnUse"
     x1="29.85095"
     x2="54.317608"
     y1="22.348567"
     y2="28.506301"
     gradientTransform="matrix(0.45454545,0,0,0.58333277,-4.4545431,-1.5000305)">
    <stop
       offset="0"
       stop-color="#cc4a5e"
       id="stop724" />
    <stop
       offset="1"
       stop-color="#aa478a"
       id="stop726" />
  </linearGradient>
  <linearGradient
     id="c"
     gradientUnits="userSpaceOnUse"
     x1="24.393862"
     x2="20.645595"
     xlink:href="#d"
     y1="41.223652"
     y2="25.343179"
     gradientTransform="matrix(0.45454545,0,0,0.58333277,-4.4545431,-1.5000305)" />
  <linearGradient
     id="d">
    <stop
       offset="0"
       stop-color="#334545"
       id="stop730" />
    <stop
       offset="1"
       stop-color="#536161"
       id="stop732" />
  </linearGradient>
  <linearGradient
     id="e"
     gradientTransform="matrix(-0.41666647,0,0,0.53472146,212.28397,-306.82071)"
     gradientUnits="userSpaceOnUse"
     x1="430.57141"
     x2="440.17142"
     xlink:href="#d"
     y1="569.97992"
     y2="562.49939" />
  <linearGradient
     id="f"
     gradientTransform="matrix(-0.41666647,0,0,0.53472146,190.40467,-283.78051)"
     gradientUnits="userSpaceOnUse"
     x1="430.57141"
     x2="440.17142"
     xlink:href="#d"
     y1="569.97992"
     y2="562.49939" />
  <linearGradient
     id="g"
     gradientTransform="matrix(-0.41666647,0,0,0.53472146,194.40467,-286.3305)"
     gradientUnits="userSpaceOnUse"
     x1="430.57141"
     x2="440.17142"
     xlink:href="#d"
     y1="569.97992"
     y2="562.49939" />
  <linearGradient
     id="h"
     gradientUnits="userSpaceOnUse"
     x1="6.915001"
     x2="6.915001"
     y1="18.041945"
     y2="9.871946"
     gradientTransform="translate(-43.932612,-28.932366)">
    <stop
       offset="0"
       stop-color="#eff0f1"
       id="stop738" />
    <stop
       offset="1"
       stop-color="#fcfcfc"
       id="stop740" />
  </linearGradient>
  <linearGradient
     id="i"
     gradientUnits="userSpaceOnUse"
     x1="19.915"
     x2="33.915"
     y1="-5.593333"
     y2="8.406667"
     gradientTransform="translate(-43.932612,-24.930416)">
    <stop
       offset="0"
       stop-color="#292c2f"
       id="stop743" />
    <stop
       offset="1"
       stop-opacity="0"
       id="stop745" />
  </linearGradient>
  <rect
     x="2"
     y="2.12567"
     width="17.999998"
     height="17.874367"
     rx="8.999999"
     ry="8.9371834"
     fill="#95a5a6"
     id="rect2220"
     style="stroke-width:0.448427" />
  <rect
     x="2"
     y="2.12567"
     width="17.999998"
     height="17.427511"
     rx="8.999999"
     ry="8.7137556"
     id="rect2222"
     style="fill:url(#a-3);stroke-width:0.448427" />
  <path
     d="m 10.979249,1.8000399 c -3.0706591,0 -6.1413189,1.7424183 -7.808249,4.3560463 L 15.335842,6.15625 c 0.01181,0 0.02172,0.00614 0.03345,0.00675 L 18.787506,6.15604 C 17.164445,3.5424182 14.488583,1.8 10.979304,1.8 Z"
     stroke-width="0.601083"
     id="path32"
     style="fill:#566069;fill-opacity:1"
     sodipodi:nodetypes="scsccss" />
  <rect
     width="1.2857143"
     x="15.292142"
     y="4.5189285"
     fill="#eff0f1"
     rx="0.64285713"
     height="1.2767406"
     id="rect25-8-7"
     style="stroke-width:0.0427073"
     inkscape:transform-center-x="3.1311411"
     inkscape:transform-center-y="-2.5473106" />
  <rect
     width="15.300001"
     x="3.3714283"
     y="6.2627354"
     rx="0"
     height="0.42558017"
     id="rect27-9"
     style="fill:#3385ff;fill-opacity:1;stroke-width:0.0392763" />
  <path
     d="m 8.957031,9.219 c -0.37601,0 -0.679688,0.305641 -0.679688,0.681641 0,0.1806 0.07154,0.354722 0.199219,0.482422 l 3.062499,3.0625 -0.199218,0.199219 1.021484,1.021484 5.683594,5.683594 h 2.955078 V 17.857672 L 12.361327,9.219 l -1.021484,1.021485 1.703125,1.703125 -0.541016,0.539063 -3.0625,-3.062501 C 9.316252,9.296932 9.145041,9.219 8.957031,9.219 Z m -1.191407,3.064454 c -0.22571,0 -0.441952,0.0904 -0.601562,0.25 -0.1596,0.1596 -0.25,0.375862 -0.25,0.601562 0,0.2351 0.096,0.447563 0.25,0.601563 l 2.009765,2.009765 c -0.137736,0.17794 -0.216796,0.395555 -0.216796,0.623047 0,0.2709 0.107308,0.529203 0.298828,0.720703 l 3.259765,3.259766 h 3.669922 L 8.367187,12.533454 c -0.1596,-0.1596 -0.375853,-0.25 -0.601563,-0.25 z"
     fill="url(#i)"
     opacity="0.2"
     id="path780-5"
     style="opacity:0.041;fill:url(#linearGradient1898)" />
  <path
     d="M 8.957499,9.21986 A 0.68083333,0.68083333 0 0 0 8.276666,9.900693 0.68083333,0.68083333 0 0 0 8.957499,10.581527 0.68083333,0.68083333 0 0 0 9.638332,9.900693 0.68083333,0.68083333 0 0 0 8.957499,9.21986 Z m 3.404167,0 -1.02125,1.02125 1.702083,1.702083 -1.702083,1.702084 1.02125,1.02125 2.723333,-2.723334 z M 7.766041,12.28361 A 0.85104167,0.85104167 0 0 0 6.914999,13.134652 0.85104167,0.85104167 0 0 0 7.766041,13.985693 0.85104167,0.85104167 0 0 0 8.617083,13.134652 0.85104167,0.85104167 0 0 0 7.766041,12.28361 Z m 2.212708,3.06375 a 1.02125,1.02125 0 0 0 -1.02125,1.02125 1.02125,1.02125 0 0 0 1.02125,1.02125 1.02125,1.02125 0 0 0 1.02125,-1.02125 1.02125,1.02125 0 0 0 -1.02125,-1.02125 z"
     stroke-width="1.36167"
     id="path782-6"
     style="fill:#566069;fill-opacity:1" />
</svg>
