<?xml version="1.0" encoding="UTF-8" standalone="no"?>
<svg
   height="22"
   width="22"
   version="1.1"
   id="svg786"
   sodipodi:docname="preferences-desktop-theme-applications.svg"
   inkscape:version="1.2.1 (9c6d41e410, 2022-07-14)"
   xmlns:inkscape="http://www.inkscape.org/namespaces/inkscape"
   xmlns:sodipodi="http://sodipodi.sourceforge.net/DTD/sodipodi-0.dtd"
   xmlns:xlink="http://www.w3.org/1999/xlink"
   xmlns="http://www.w3.org/2000/svg"
   xmlns:svg="http://www.w3.org/2000/svg">
  <defs
     id="defs790">
    <linearGradient
       inkscape:collect="always"
       id="linearGradient1495">
      <stop
         style="stop-color:#b48ead;stop-opacity:1;"
         offset="0"
         id="stop1491" />
      <stop
         style="stop-color:#ebcb8b;stop-opacity:1;"
         offset="1"
         id="stop1493" />
    </linearGradient>
    <linearGradient
       id="a-3"
       x1="428.81601"
       x2="388.86499"
       y1="547.63397"
       y2="499.67899"
       gradientTransform="matrix(0.4500002,0,0,0.44685936,-172.85657,-223.00208)"
       gradientUnits="userSpaceOnUse">
      <stop
         stop-color="#bdc3c7"
         offset="0"
         id="stop2193"
         style="stop-color:#ff99ff;stop-opacity:1;" />
      <stop
         stop-color="#eff0f1"
         offset="1"
         id="stop2195"
         style="stop-color:#ffccaa;stop-opacity:1" />
    </linearGradient>
    <linearGradient
       id="c-3"
       y1="521.15002"
       x1="394.22"
       y2="533.40997"
       gradientUnits="userSpaceOnUse"
       x2="416.85001"
       gradientTransform="translate(-12.764,-10.07)">
      <stop
         stop-color="#292c2f"
         id="stop225" />
      <stop
         offset="1"
         stop-opacity="0"
         id="stop227" />
    </linearGradient>
    <linearGradient
       id="linearGradient1889"
       gradientUnits="userSpaceOnUse"
       x1="19.915001"
       x2="33.915001"
       y1="-5.5933328"
       y2="8.4066668"
       gradientTransform="translate(-43.932612,-24.930416)">
      <stop
         offset="0"
         stop-color="#292c2f"
         id="stop743-6" />
      <stop
         offset="1"
         stop-opacity="0"
         id="stop745-7" />
    </linearGradient>
    <linearGradient
       id="linearGradient1893"
       gradientUnits="userSpaceOnUse"
       x1="6.9150009"
       x2="6.9150009"
       y1="18.041945"
       y2="9.8719463"
       gradientTransform="translate(-43.932612,-28.932366)">
      <stop
         offset="0"
         stop-color="#eff0f1"
         id="stop738-5" />
      <stop
         offset="1"
         stop-color="#fcfcfc"
         id="stop740-3" />
    </linearGradient>
    <linearGradient
       id="a-2"
       gradientUnits="userSpaceOnUse"
       x1="9.7101107"
       x2="16.78154"
       y1="7.142858"
       y2="14.214287">
      <stop
         offset="0"
         stop-color="#292c2f"
         id="stop204" />
      <stop
         offset="1"
         stop-opacity="0"
         id="stop206" />
    </linearGradient>
    <linearGradient
       id="b-7"
       gradientUnits="userSpaceOnUse"
       x1="8"
       x2="8"
       y1="13"
       y2="5">
      <stop
         offset="0"
         stop-color="#eff0f1"
         id="stop209" />
      <stop
         offset="1"
         stop-color="#fcfcfc"
         id="stop211" />
    </linearGradient>
    <linearGradient
       inkscape:collect="always"
       xlink:href="#linearGradient1495"
       id="linearGradient1497"
       x1="4.2502947"
       y1="-2.0924435"
       x2="17.733727"
       y2="22"
       gradientUnits="userSpaceOnUse" />
    <linearGradient
       inkscape:collect="always"
       xlink:href="#linearGradient6495"
       id="linearGradient4555"
       gradientUnits="userSpaceOnUse"
       x1="12.05"
       y1="1.9716001"
       x2="12.066"
       y2="2.8515"
       gradientTransform="matrix(1.6043311,0,0,1.3286134,-13.572828,1.894951)" />
    <linearGradient
       id="linearGradient6495"
       x1="12.05"
       x2="12.066"
       y1="1.9716001"
       y2="2.8515"
       gradientUnits="userSpaceOnUse">
      <stop
         stop-color="#ebcb8b"
         offset="0"
         id="stop15-9" />
      <stop
         stop-color="#eac57b"
         offset="1"
         id="stop17-3" />
    </linearGradient>
    <linearGradient
       inkscape:collect="always"
       xlink:href="#linearGradient6567"
       id="linearGradient4557"
       gradientUnits="userSpaceOnUse"
       x1="13.286"
       y1="1.9581"
       x2="13.275"
       y2="2.8476"
       gradientTransform="matrix(1.6043311,0,0,1.3286134,-13.572828,1.894951)" />
    <linearGradient
       id="linearGradient6567"
       x1="13.286"
       x2="13.275"
       y1="1.9581"
       y2="2.8476"
       gradientUnits="userSpaceOnUse">
      <stop
         stop-color="#a3be8c"
         offset="0"
         id="stop20" />
      <stop
         stop-color="#97b67c"
         offset="1"
         id="stop22" />
    </linearGradient>
    <linearGradient
       inkscape:collect="always"
       xlink:href="#linearGradient6639"
       id="linearGradient4559"
       gradientUnits="userSpaceOnUse"
       x1="14.461"
       y1="1.9502"
       x2="14.467"
       y2="2.8203001"
       gradientTransform="matrix(1.6043311,0,0,1.3286134,-13.572828,1.894951)" />
    <linearGradient
       id="linearGradient6639"
       x1="14.461"
       x2="14.467"
       y1="1.9502"
       y2="2.8203001"
       gradientUnits="userSpaceOnUse">
      <stop
         stop-color="#bf616a"
         offset="0"
         id="stop25" />
      <stop
         stop-color="#b54a55"
         offset="1"
         id="stop27" />
    </linearGradient>
    <filter
       id="filter30427"
       x="-0.1339518"
       y="-0.3388412"
       width="1.2679036"
       height="1.6776824"
       color-interpolation-filters="sRGB">
      <feGaussianBlur
         stdDeviation="0.48299559"
         id="feGaussianBlur37" />
    </filter>
    <linearGradient
       id="linearGradient29728"
       x1="8.9888"
       x2="8.9888"
       y1="6.2073998"
       y2="12.653"
       gradientUnits="userSpaceOnUse"
       gradientTransform="matrix(1.1275838,0,0,1.1275838,1.2427669,1.4742125)">
      <stop
         stop-color="#2e3440"
         offset="0"
         id="stop32" />
      <stop
         stop-color="#4c566a"
         offset="1"
         id="stop34" />
    </linearGradient>
  </defs>
  <sodipodi:namedview
     id="namedview788"
     pagecolor="#ffffff"
     bordercolor="#666666"
     borderopacity="1.0"
     inkscape:showpageshadow="2"
     inkscape:pageopacity="0.0"
     inkscape:pagecheckerboard="0"
     inkscape:deskcolor="#d1d1d1"
     showgrid="false"
     inkscape:zoom="10.727273"
     inkscape:cx="11"
     inkscape:cy="-3.868644"
     inkscape:window-width="1920"
     inkscape:window-height="1000"
     inkscape:window-x="0"
     inkscape:window-y="0"
     inkscape:window-maximized="1"
     inkscape:current-layer="svg786" />
  <linearGradient
     id="a"
     gradientTransform="matrix(0.41666647,0,0,0.54999974,-188.65687,-279.08879)"
     gradientUnits="userSpaceOnUse"
     x1="418.16971"
     x2="384.57144"
     y1="503.07938"
     y2="531.45813">
    <stop
       offset="0"
       stop-color="#1abc9c"
       id="stop719" />
    <stop
       offset="1"
       stop-color="#2980b9"
       id="stop721" />
  </linearGradient>
  <linearGradient
     id="b"
     gradientUnits="userSpaceOnUse"
     x1="29.85095"
     x2="54.317608"
     y1="22.348567"
     y2="28.506301"
     gradientTransform="matrix(0.45454545,0,0,0.58333277,-4.4545431,-1.5000305)">
    <stop
       offset="0"
       stop-color="#cc4a5e"
       id="stop724" />
    <stop
       offset="1"
       stop-color="#aa478a"
       id="stop726" />
  </linearGradient>
  <linearGradient
     id="c"
     gradientUnits="userSpaceOnUse"
     x1="24.393862"
     x2="20.645595"
     xlink:href="#d"
     y1="41.223652"
     y2="25.343179"
     gradientTransform="matrix(0.45454545,0,0,0.58333277,-4.4545431,-1.5000305)" />
  <linearGradient
     id="d">
    <stop
       offset="0"
       stop-color="#334545"
       id="stop730" />
    <stop
       offset="1"
       stop-color="#536161"
       id="stop732" />
  </linearGradient>
  <linearGradient
     id="e"
     gradientTransform="matrix(-0.41666647,0,0,0.53472146,212.28397,-306.82071)"
     gradientUnits="userSpaceOnUse"
     x1="430.57141"
     x2="440.17142"
     xlink:href="#d"
     y1="569.97992"
     y2="562.49939" />
  <linearGradient
     id="f"
     gradientTransform="matrix(-0.41666647,0,0,0.53472146,190.40467,-283.78051)"
     gradientUnits="userSpaceOnUse"
     x1="430.57141"
     x2="440.17142"
     xlink:href="#d"
     y1="569.97992"
     y2="562.49939" />
  <linearGradient
     id="g"
     gradientTransform="matrix(-0.41666647,0,0,0.53472146,194.40467,-286.3305)"
     gradientUnits="userSpaceOnUse"
     x1="430.57141"
     x2="440.17142"
     xlink:href="#d"
     y1="569.97992"
     y2="562.49939" />
  <linearGradient
     id="h"
     gradientUnits="userSpaceOnUse"
     x1="6.915001"
     x2="6.915001"
     y1="18.041945"
     y2="9.871946"
     gradientTransform="translate(-43.932612,-28.932366)">
    <stop
       offset="0"
       stop-color="#eff0f1"
       id="stop738" />
    <stop
       offset="1"
       stop-color="#fcfcfc"
       id="stop740" />
  </linearGradient>
  <linearGradient
     id="i"
     gradientUnits="userSpaceOnUse"
     x1="19.915"
     x2="33.915"
     y1="-5.593333"
     y2="8.406667"
     gradientTransform="translate(-43.932612,-24.930416)">
    <stop
       offset="0"
       stop-color="#292c2f"
       id="stop743" />
    <stop
       offset="1"
       stop-opacity="0"
       id="stop745" />
  </linearGradient>
  <rect
     x="2"
     y="2.12567"
     width="17.999998"
     height="17.874367"
     rx="8.999999"
     ry="8.9371834"
     fill="#95a5a6"
     id="rect2220"
     style="stroke-width:0.448427" />
  <rect
     x="2"
     y="2.12567"
     width="17.999998"
     height="17.427511"
     rx="8.999999"
     ry="8.7137556"
     id="rect2222"
     style="fill-opacity:1;fill:url(#linearGradient1497)" />
  <path
     d="m 10.979249,1.8000399 c -3.0706591,0 -6.1413189,1.7424183 -7.808249,4.3560463 L 15.335842,6.15625 c 0.01181,0 0.02172,0.00614 0.03345,0.00675 L 18.787506,6.15604 C 17.164445,3.5424182 14.488583,1.8 10.979304,1.8 Z"
     stroke-width="0.601083"
     id="path32"
     style="fill:#566069;fill-opacity:1"
     sodipodi:nodetypes="scsccss" />
  <rect
     width="1.2857143"
     x="15.292142"
     y="4.5189285"
     fill="#eff0f1"
     rx="0.64285713"
     height="1.2767406"
     id="rect25-8-7"
     style="stroke-width:0.0427073"
     inkscape:transform-center-x="3.1311411"
     inkscape:transform-center-y="-2.5473106" />
  <rect
     width="15.300001"
     x="3.3714283"
     y="6.2627354"
     rx="0"
     height="0.42558017"
     id="rect27-9"
     style="fill:#3385ff;fill-opacity:1;stroke-width:0.0392763" />
  <ellipse
     cx="5.7753992"
     cy="5.1181688"
     rx="0.71318918"
     ry="0.67750001"
     fill="url(#linearGradient6495)"
     id="ellipse67"
     style="fill:url(#linearGradient4555);stroke-width:1.45998" />
  <ellipse
     cx="7.7455282"
     cy="5.1181688"
     rx="0.71318918"
     ry="0.67750001"
     fill="url(#linearGradient6567)"
     id="ellipse69"
     style="fill:url(#linearGradient4557);stroke-width:1.45998" />
  <ellipse
     cx="9.6610937"
     cy="5.1181688"
     rx="0.71318918"
     ry="0.67750001"
     fill="url(#linearGradient6639)"
     id="ellipse71"
     style="fill:url(#linearGradient4559);stroke-width:1.45998" />
  <path
     class="cls-1"
     d="m 4.4937,12.863 c 0.79782,-0.16981 1.5191,0.92213 2.254,0.24718 A 0.93573,1.1228 2.0368 0 0 7.11142,12.31524 0.61221,0.73459 2.0368 0 0 7.059896,11.9587 0.66725,0.80064 2.0368 0 0 6.987168,11.81535 c -0.36628,-0.57026 -1.0384,-0.455 -1.5081,-0.11786 -0.43162,0.3095 -0.76819,0.81278 -0.9858,1.1652 z m 4.226,-2.0996 a 3.0504,3.6602 2.0368 0 1 0.30656,1.5337 l 3.751,-1.5318 c 0.2343,-0.09037 0.38941,-0.19106 0.36778,-0.54916 A 0.36508,0.43806 2.0368 0 0 12.98942,9.9619 0.39822,0.47782 2.0368 0 0 12.71739,9.92533 Z m -1.396,0.84843 c 0.10427,0.1743 0.20648,0.51347 0.15161,0.78765 l 1.324,-0.04386 c -0.00293,-0.56822 -0.085608,-1.1013 -0.30522,-1.572 -0.57814,0.3633 -0.55485,0.51948 -1.1704,0.82816 z"
     fill="#2e3440"
     filter="url(#filter30427)"
     opacity="0.4"
     stroke-width="0.061524"
     id="path60"
     style="fill-rule:evenodd"
     transform="matrix(1.1275838,0,0,1.1275838,1.2427661,1.4742095)" />
  <path
     class="cls-1"
     d="m 6.3311025,16.007639 c 0.8891107,-0.636813 2.3147043,0.0471 2.874775,-1.06389 A 1.266051,1.266051 0 0 0 9.2529855,13.927738 0.82831154,0.82831154 0 0 0 9.0120887,13.597174 0.90278862,0.90278862 0 0 0 8.8517465,13.49458 C 8.1199445,13.131343 7.3570212,13.639731 6.9519935,14.254504 6.5796311,14.819137 6.4200443,15.52439 6.3303787,16.007672 Z M 10.441483,11.42074 a 4.1271828,4.1271828 0 0 1 1.139876,1.372382 l 3.814052,-3.7358005 c 0.240896,-0.227974 0.379963,-0.420239 0.174771,-0.769803 a 0.4939494,0.4939494 0 0 0 -0.31688,-0.166415 0.53878204,0.53878204 0 0 0 -0.350324,0.121591 z m -1.2804837,1.671871 c 0.2142973,0.115508 0.5083823,0.39896 0.5783044,0.708244 l 1.5942913,-0.81615 C 11.046343,12.411721 10.679302,11.920816 10.176242,11.57274 9.6518932,12.277179 9.7582919,12.421574 9.1609882,13.092611 Z"
     fill="url(#linearGradient29728)"
     stroke-width="0.0759935"
     id="path62"
     style="fill:url(#linearGradient29728);fill-rule:evenodd" />
</svg>
