<?xml version="1.0" encoding="UTF-8" standalone="no"?>
<svg
   width="32"
   height="32"
   version="1.1"
   id="svg30"
   sodipodi:docname="accessories.svg"
   inkscape:version="1.2.2 (b0a8486541, 2022-12-01)"
   xmlns:inkscape="http://www.inkscape.org/namespaces/inkscape"
   xmlns:sodipodi="http://sodipodi.sourceforge.net/DTD/sodipodi-0.dtd"
   xmlns="http://www.w3.org/2000/svg"
   xmlns:svg="http://www.w3.org/2000/svg">
  <sodipodi:namedview
     id="namedview32"
     pagecolor="#ffffff"
     bordercolor="#000000"
     borderopacity="1"
     inkscape:showpageshadow="true"
     inkscape:pageopacity="0"
     inkscape:pagecheckerboard="false"
     inkscape:deskcolor="#cccccc"
     showgrid="false"
     inkscape:zoom="7.375"
     inkscape:cx="3.3220339"
     inkscape:cy="8.7457627"
     inkscape:window-width="1920"
     inkscape:window-height="998"
     inkscape:window-x="0"
     inkscape:window-y="0"
     inkscape:window-maximized="1"
     inkscape:current-layer="svg30">
    <inkscape:grid
       type="xygrid"
       id="grid515"
       originx="0"
       originy="-21.999999" />
  </sodipodi:namedview>
  <defs
     id="defs5">
    <style
       id="current-color-scheme"
       type="text/css">
   .ColorScheme-Background {color:#181818; } .ColorScheme-ButtonBackground { color:#343434; } .ColorScheme-Highlight { color:#4285f4; } .ColorScheme-Text { color:#dfdfdf; } .ColorScheme-ViewBackground { color:#242424; } .ColorScheme-NegativeText { color:#f44336; } .ColorScheme-PositiveText { color:#4caf50; } .ColorScheme-NeutralText { color:#ff9800; }
  </style>
  </defs>
  <g
     id="accessories-calculator"
     transform="translate(32)">
    <rect
       style="opacity:0.00100002;fill:#bac8df;fill-opacity:1"
       width="32"
       height="32"
       x="0"
       y="0"
       id="rect25" />
    <path
       d="M 25.749455,4 H 6.2499824 C 4.9749173,4 4,4.9749174 4,6.2499824 V 25.750017 C 4,27.025082 4.9749173,28 6.2499824,28 H 25.750017 C 27.025082,28 28,27.025082 28,25.750017 L 27.999775,6.2499824 C 27.999775,4.9749174 27.024857,4 25.749792,4 Z M 27,6.2499824 V 15.000001 H 17 V 5.0001941 l 8.849,-1.969e-4 C 26.7,4.9999782 27,5.7997525 27,6.2497546 Z M 6.2497574,5 15,5.0000014 V 15.000001 H 5.0000001 V 6.2498699 C 5.0000001,5.7998732 5.3000004,5.0000028 6.3,5.0000014 Z M 5.0000001,25.74968 V 17.000001 H 15 V 27 H 6.3 c -1,1e-6 -1.2999999,-0.800431 -1.2999999,-1.250433 z M 25.749455,27 17,27.000001 v -10 h 10 v 8.749454 C 27.000225,26.199451 26.8,27.000001 25.849,27 Z"
       id="path1722"
       sodipodi:nodetypes="csssssccscccccsccccccscccccccccccccccc"
       style="fill:#d3dae3;fill-opacity:1;stroke-width:0.0562496" />
    <path
       d="m 7.7495956,10.74982 h 1.5000633 v 1.500064 c 0,0.449996 0.2999227,0.749919 0.7499191,0.749919 0.449997,0 0.749919,-0.299923 0.749919,-0.749919 V 10.74982 h 1.500063 c 0.449997,0 0.74992,-0.299922 0.74992,-0.749919 0,-0.449996 -0.299923,-0.7499187 -0.74992,-0.7499187 H 10.749497 V 7.7499191 C 10.749497,7.2999226 10.449575,7 9.999578,7 9.5495816,7 9.2496589,7.2999226 9.2496589,7.7499191 V 9.2499823 H 7.7495956 c -0.4499964,0 -0.7499191,0.2999227 -0.7499191,0.7499187 0,0.449997 0.2999227,0.749919 0.7499191,0.749919 z"
       id="path1724"
       style="fill:#08a19d;fill-opacity:1;stroke-width:0.0562496" />
    <path
       d="m 11.075065,22.024998 1.349989,-1.349989 c 0.299923,-0.299923 0.299923,-0.749919 0,-1.050067 -0.299922,-0.299923 -0.749919,-0.299923 -1.050066,0 l -1.34999,1.349989 -1.3499892,-1.349989 c -0.2999227,-0.299923 -0.7499192,-0.299923 -1.0500668,0 -0.2999227,0.299923 -0.2999227,0.749919 0,1.050067 l 1.3499894,1.349989 -1.3499894,1.34999 c -0.2999227,0.299922 -0.2999227,0.749919 0,1.050066 0.1500738,0.150074 0.375072,0.224999 0.5249209,0.224999 0.1500738,0 0.375072,-0.07493 0.5249209,-0.224999 l 1.3499892,-1.349989 1.34999,1.349989 c 0.150073,0.150074 0.375072,0.224999 0.52492,0.224999 0.150074,0 0.375073,-0.07493 0.524921,-0.224999 0.299923,-0.299922 0.299923,-0.749919 0,-1.050066 z"
       id="path1726"
       style="fill:#08a19d;fill-opacity:1;stroke-width:0.0562496" />
    <path
       d="m 20.249919,10.749838 h 3.750046 c 0.449996,0 0.749919,-0.299922 0.749919,-0.749919 C 24.749884,9.549923 24.449961,9.25 23.999965,9.25 H 20.249919 C 19.799923,9.25 19.5,9.549923 19.5,9.999919 c -2.25e-4,0.449997 0.299923,0.749919 0.749919,0.749919 z"
       id="path1728"
       style="fill:#08a19d;fill-opacity:1;stroke-width:0.0562496" />
    <path
       d="m 24.000063,22.300001 h -3.750128 c -0.450006,0 -0.749935,0.299954 -0.749935,0.75 0,0.450045 0.299929,0.75 0.749935,0.75 h 3.750128 c 0.450007,0 0.749937,-0.299955 0.749937,-0.75 2.25e-4,-0.450046 -0.29993,-0.75 -0.749937,-0.75 z"
       id="path1730"
       style="fill:#08a19d;fill-opacity:1;stroke-width:0.0562533" />
    <path
       d="m 23.999964,20.250001 h -3.750045 c -0.449997,0 -0.749919,0.299923 -0.749919,0.749919 0,0.449997 0.299922,0.74992 0.749919,0.74992 h 3.750045 c 0.449997,0 0.74992,-0.299923 0.74992,-0.74992 2.25e-4,-0.449996 -0.299923,-0.749919 -0.74992,-0.749919 z"
       id="path1732"
       style="fill:#08a19d;fill-opacity:1;stroke-width:0.0562496" />
  </g>
  <g
     id="22-22-accessories-calculator"
     transform="translate(32,-21.999999)">
    <rect
       style="opacity:0.00100002"
       width="22"
       height="22"
       x="0"
       y="0"
       id="rect13" />
    <path
       d="M 17.499634,3 H 4.499983 C 3.649947,3 3,3.649947 3,4.499983 V 17.500011 C 3,18.350055 3.649947,19 4.499983,19 H 17.500017 C 18.350053,19 19,18.350055 19,17.500011 L 18.999855,4.499983 C 18.999855,3.649947 18.349899,3 17.499865,3 Z M 18,5 v 5 H 12 V 4 h 5 c 0.56734,0 1,0 1,1 z M 5,4 h 5 v 6 H 4 V 5 C 4,4 4.33332,4.000002 5,4 Z M 4,17 v -5 h 6 v 6 H 5 c -0.66668,1e-6 -1,0 -1,-1 z m 13,1 h -5 v -6 h 6 v 5 c 0,1 -0.366,1.000001 -1,1 z"
       id="path1722-6"
       sodipodi:nodetypes="csssssccscccccscsccccscccccccccccc"
       style="fill:#d3dae3;fill-opacity:1;stroke-width:0.0374995" />
    <path
       d="M 5.499736,7.499882 H 6.499765 V 8.49992 c 0,0.3 0.199958,0.49995 0.499957,0.49995 0.3,0 0.499937,-0.19995 0.499937,-0.49995 V 7.499882 h 1.000048 c 0.3,0 0.499946,-0.199958 0.499946,-0.499955 0,-0.299996 -0.199946,-0.499944 -0.499946,-0.499944 H 7.499659 V 5.499939 C 7.499659,5.199943 7.299722,5 6.999722,5 6.699723,5 6.499765,5.199943 6.499765,5.499939 V 6.499983 H 5.499736 c -0.299997,0 -0.49996,0.199948 -0.49996,0.499944 0,0.299997 0.199963,0.499955 0.49996,0.499955 z"
       id="path1724-7"
       style="fill:#08a19d;fill-opacity:1;stroke-width:0.0374995"
       sodipodi:nodetypes="scssscssscssscsss" />
    <path
       d="m 7.716719,15.016666 0.899989,-0.899991 c 0.199949,-0.199955 0.199949,-0.499954 0,-0.700051 -0.199957,-0.199942 -0.499954,-0.199942 -0.700047,0 L 7.016667,14.316619 6.116676,13.416624 c -0.199956,-0.199942 -0.499956,-0.199942 -0.700053,0 -0.199941,0.19995 -0.199941,0.499946 0,0.700051 l 0.899995,0.899991 -0.899995,0.899994 c -0.199941,0.199944 -0.199941,0.499943 0,0.700044 0.100059,0.100047 0.25005,0.149998 0.349958,0.149998 0.10005,0 0.250038,-0.04996 0.349944,-0.149998 l 0.899995,-0.899988 0.89999,0.899988 c 0.10005,0.100047 0.250045,0.149998 0.349953,0.149998 0.100034,0 0.250044,-0.04996 0.349937,-0.149998 0.199954,-0.199951 0.199954,-0.49995 0,-0.700044 z"
       id="path1726-5"
       style="fill:#08a19d;fill-opacity:1;stroke-width:0.0374995"
       sodipodi:nodetypes="cccccccccccscccsccc" />
    <path
       d="m 13.833279,7.499898 h 2.500033 c 0.299996,0 0.499941,-0.199962 0.499941,-0.499959 C 16.833253,6.699943 16.633308,6.5 16.333312,6.5 h -2.500033 c -0.299996,0 -0.499939,0.199943 -0.499939,0.499939 -1.51e-4,0.299997 0.199943,0.499959 0.499939,0.499959 z"
       id="path1728-3"
       style="fill:#08a19d;fill-opacity:1;stroke-width:0.0374995"
       sodipodi:nodetypes="ssssscs" />
    <path
       d="m 16.333369,15.5 h -2.500074 c -0.300006,0 -0.499955,0.199967 -0.499955,0.5 0,0.300032 0.199949,0.5 0.499955,0.5 h 2.500074 c 0.300006,0 0.499971,-0.199968 0.499971,-0.5 1.46e-4,-0.300033 -0.199965,-0.5 -0.499971,-0.5 z"
       id="path1730-5"
       style="fill:#08a19d;fill-opacity:1;stroke-width:0.0375018"
       sodipodi:nodetypes="ssssscs" />
    <path
       d="m 16.333311,13.5 h -2.500032 c -0.299997,0 -0.499939,0.199943 -0.499939,0.49994 0,0.299997 0.199942,0.499942 0.499939,0.499942 h 2.500032 c 0.299997,0 0.499942,-0.199945 0.499942,-0.499942 C 16.833402,13.699943 16.633308,13.5 16.333311,13.5 Z"
       id="path1732-6"
       style="fill:#08a19d;fill-opacity:1;stroke-width:0.0374995"
       sodipodi:nodetypes="ssssscs" />
  </g>
  <g
     id="22-22-accessories-dictionary">
    <rect
       style="opacity:0.00100002"
       width="22"
       height="22"
       x="0"
       y="-21.999998"
       id="rect4" />
    <path
       d="m 17.548341,-5.461492 c 0.119752,0 0.234516,-0.0433 0.319346,-0.120189 0.08467,-0.07693 0.132158,-0.181317 0.13216,-0.290114 L 18,-17.666666 c 0,0 0,-1.333333 -1.4,-1.333333 v 0 H 5.806334 5.4 c -1.4,0 -1.4,1.333333 -1.4,1.333333 V -4.64108 c 0,0.435298 0.190229,0.852611 0.529085,1.160444 0.338713,0.3077 0.798236,0.480637 1.277249,0.480637 H 17.548493 C 17.797837,-2.999999 18,-3.183649 18,-3.410313 18,-3.636824 17.797837,-3.82047 17.548493,-3.82047 c -0.32268,0 -0.620865,-0.156454 -0.7822,-0.410314 -0.161346,-0.253842 -0.161346,-0.56661 0,-0.820472 0.161335,-0.25384 0.45952,-0.410302 0.7822,-0.410302 z M 11.7,-18.333332 v 0 0 0 0 H 8.9 Z M 5,-17.666666 v -0.333333 0 h 3 v 0 0 0 0 0 h 5 v 0 0 h 3.6 0.4 v 0.333333 11.666667 H 6 5 v 0 0 0 0 0 0 0 0 0 z"
       id="path391-3"
       style="fill:#d3dae3;fill-opacity:1;stroke-width:0.0368943"
       sodipodi:nodetypes="ccscccsccsssssscccccccccccccccccccccccccccsccccccccccc" />
    <path
       d="M 11.099856,-19 H 6.9000055 c -0.497074,0 -0.899996,0.380113 -0.899996,0.849052 L 6,-16.999999 h 6 l -3.2e-5,-1.150949 C 11.999955,-18.619887 11.597058,-19 11.099986,-19 Z"
       id="path613"
       style="fill:#08a19d;fill-opacity:1;stroke-width:0.0154826"
       sodipodi:nodetypes="cssccssc" />
    <path
       d="m 6.0000325,-10.847696 c 0.0014,0.469869 0.406961,0.849394 0.904955,0.84769 0.175152,-9.71e-4 0.346376,-0.04929 0.492712,-0.140155 l 1.447487,-0.905688 c 0.100747,-0.0633 0.231937,-0.0633 0.332678,0 l 1.4210835,0.898052 c 0.421782,0.256576 0.984156,0.141979 1.256142,-0.25589 0.0917,-0.134162 0.141843,-0.289772 0.144822,-0.449368 L 12,-15.999999 H 6 Z"
       id="path615"
       style="fill:#08a19d;fill-opacity:1;stroke-width:0.0154826"
       sodipodi:nodetypes="ccccccccccc" />
  </g>
  <g
     id="accessories-dictionary">
    <rect
       style="opacity:0.00100002"
       width="32"
       height="32"
       x="0"
       y="0"
       id="rect18" />
    <path
       d="m 25.35477,24.30776 c 0.17108,0 0.335025,-0.06495 0.45621,-0.180283 0.120972,-0.115393 0.188798,-0.271975 0.1888,-0.435171 L 26,6 C 26,6 26,4 24,4 V 4 H 8.5804816 8 C 6,4 6,6 6,6 v 19.538379 c 0,0.652947 0.2717526,1.278916 0.755836,1.740666 C 7.2397083,27.740594 7.8961716,28 8.5804816,28 H 25.354989 C 25.711194,28 26,27.724525 26,27.384529 c 0,-0.339766 -0.288806,-0.615236 -0.645011,-0.615236 -0.460971,0 -0.886948,-0.234681 -1.11743,-0.615471 -0.23049,-0.380762 -0.23049,-0.849914 0,-1.230708 0.230482,-0.38076 0.656459,-0.615452 1.11743,-0.615452 z M 17,5 V 5 5 5 5 H 13 Z M 7,6 C 7,6 7,5 8,5 v 0 h 3 v 1e-6 h 2 v 0 0 h 4 2 v 0 V 5 h 5 v 0 c 1,0 1,1 1,1 V 23.000001 H 9 7 v 0 0 0 0 0 0 0 0 0 z"
       id="path391"
       style="fill:#d3dae3;fill-opacity:1;stroke-width:0.0540078"
       sodipodi:nodetypes="ccscccsccssssssccccccccccccccccccccccccccccccccccccccc" />
    <path
       d="M 17.149783,4 H 10.850008 C 10.104405,4 9.500011,4.570169 9.500011,5.2735787 l -1e-5,1.7264218 h 8.999998 l -4.8e-5,-1.7264218 C 18.499931,4.570169 17.895586,4 17.149978,4 Z"
       id="path613-3"
       style="fill:#08a19d;fill-opacity:1;stroke-width:0.0232233"
       sodipodi:nodetypes="cssccssc" />
    <path
       d="m 9.50004,15.728457 c 0.0014,0.704799 0.610441,1.274084 1.357438,1.271534 0.262731,-0.0011 0.519567,-0.07399 0.739071,-0.210232 l 2.171229,-1.358532 c 0.151124,-0.09493 0.347907,-0.09493 0.499018,0 l 2.131626,1.347079 c 0.632672,0.38486 1.476233,0.212964 1.884212,-0.383836 0.137547,-0.201243 0.212765,-0.434658 0.217233,-0.674051 l 1.32e-4,-7.720418 H 9.500001 Z"
       id="path615-6"
       style="fill:#08a19d;fill-opacity:1;stroke-width:0.0232233"
       sodipodi:nodetypes="ccccccccccc" />
  </g>
</svg>
