<?xml version="1.0" encoding="UTF-8" standalone="no"?>
<svg
   xmlns:dc="http://purl.org/dc/elements/1.1/"
   xmlns:cc="http://creativecommons.org/ns#"
   xmlns:rdf="http://www.w3.org/1999/02/22-rdf-syntax-ns#"
   xmlns:svg="http://www.w3.org/2000/svg"
   xmlns="http://www.w3.org/2000/svg"
   xmlns:sodipodi="http://sodipodi.sourceforge.net/DTD/sodipodi-0.dtd"
   xmlns:inkscape="http://www.inkscape.org/namespaces/inkscape"
   width="32"
   height="32"
   version="1.1"
   id="svg12"
   sodipodi:docname="akonadi.svg"
   inkscape:version="1.0.1 (3bc2e813f5, 2020-09-07)">
  <metadata
     id="metadata18">
    <rdf:RDF>
      <cc:Work
         rdf:about="">
        <dc:format>image/svg+xml</dc:format>
        <dc:type
           rdf:resource="http://purl.org/dc/dcmitype/StillImage" />
      </cc:Work>
    </rdf:RDF>
  </metadata>
  <defs
     id="defs16" />
  <sodipodi:namedview
     pagecolor="#ffffff"
     bordercolor="#666666"
     borderopacity="1"
     objecttolerance="10"
     gridtolerance="10"
     guidetolerance="10"
     inkscape:pageopacity="0"
     inkscape:pageshadow="2"
     inkscape:window-width="1920"
     inkscape:window-height="1012"
     id="namedview14"
     showgrid="false"
     inkscape:zoom="6.9384853"
     inkscape:cx="4.38324"
     inkscape:cy="-1.9092169"
     inkscape:window-x="0"
     inkscape:window-y="0"
     inkscape:window-maximized="1"
     inkscape:current-layer="svg12"
     inkscape:document-rotation="0" />
  <g
     id="akonadi">
    <g
       id="g867">
      <path
         style="opacity:0.00100002"
         d="M 0,3.6363637e-7 H 32.000001 V 32.000001 H 0 Z"
         id="path7" />
      <path
         id="path3960"
         d="m 2.6349675,14.690568 c 0,7.432423 6.025188,13.457609 13.4576085,13.457609 7.432446,0 13.457621,-6.025186 13.457621,-13.457609 z"
         style="fill:#d3dae3;fill-opacity:1;stroke:none;stroke-width:1.54631"
         inkscape:connector-curvature="0" />
      <path
         sodipodi:nodetypes="csssccc"
         inkscape:connector-curvature="0"
         id="path4494"
         d="m 26.798716,13.149235 c -0.03576,-4.9766932 -4.12351,-9.0010582 -9.160683,-9.0010582 -2.038319,0 -3.921206,0.65897 -5.443009,1.77336 -0.591251,0.432952 -0.579241,0.443602 -0.579241,0.443602 6.381491,6.7840962 -0.01909,-0.0128 6.381491,6.7840962 v 0 z"
         style="fill:#08a19d;fill-opacity:1;stroke:none;stroke-width:1.54631"
         mask="none" />
      <path
         sodipodi:end="3.9636427"
         sodipodi:start="3.1415927"
         sodipodi:ry="11.536786"
         sodipodi:rx="11.082738"
         sodipodi:cy="13.149275"
         sodipodi:cx="15.062967"
         id="path4521"
         style="fill:#d3dae3;fill-opacity:1;stroke:none;stroke-width:0.565371"
         sodipodi:type="arc"
         sodipodi:arc-type="slice"
         d="M 3.9802294,13.149275 A 11.082738,11.536786 0 0 1 7.5187161,4.6980844 l 7.5442509,8.4511906 z" />
    </g>
  </g>
  <g
     id="22-22-akonadi"
     transform="translate(32.000001,10.000001)">
    <path
       style="opacity:0.00100002"
       d="M 0,2.5e-7 H 22 V 22 H 0 Z"
       id="path2" />
    <path
       id="path3960-3"
       d="m 2.0193326,10.165336 c 0,4.954954 4.016788,8.97174 8.9717404,8.97174 4.954956,0 8.971744,-4.016786 8.971744,-8.97174 z"
       style="fill:#d3dae3;fill-opacity:1;stroke:none;stroke-width:1.03084"
       inkscape:connector-curvature="0" />
    <path
       sodipodi:nodetypes="csssccc"
       inkscape:connector-curvature="0"
       id="path4494-6"
       d="m 18.128494,9.1377852 c -0.02378,-3.317799 -2.749003,-6.000709 -6.107121,-6.000709 -1.35888,0 -2.6141304,0.439317 -3.6286744,1.182241 -0.394161,0.288632 -0.386151,0.295735 -0.386151,0.295735 4.2543214,4.522733 -0.01269,-0.0084 4.2543214,4.522733 v 0 z"
       style="fill:#08a19d;fill-opacity:1;stroke:none;stroke-width:1.03084"
       mask="none" />
    <path
       sodipodi:end="3.9636427"
       sodipodi:start="3.1415927"
       sodipodi:ry="7.6911888"
       sodipodi:rx="7.3884916"
       sodipodi:cy="9.137785"
       sodipodi:cx="10.304665"
       id="path4521-7"
       style="fill:#d3dae3;fill-opacity:1;stroke:none;stroke-width:0.376918"
       sodipodi:type="arc"
       sodipodi:arc-type="slice"
       d="M 2.916173,9.137785 A 7.3884916,7.6911888 0 0 1 5.275164,3.5036594 l 5.029501,5.6341256 z" />
  </g>
</svg>
