<?xml version="1.0" encoding="UTF-8" standalone="no"?>
<svg
   xmlns:dc="http://purl.org/dc/elements/1.1/"
   xmlns:cc="http://creativecommons.org/ns#"
   xmlns:rdf="http://www.w3.org/1999/02/22-rdf-syntax-ns#"
   xmlns:svg="http://www.w3.org/2000/svg"
   xmlns="http://www.w3.org/2000/svg"
   xmlns:sodipodi="http://sodipodi.sourceforge.net/DTD/sodipodi-0.dtd"
   xmlns:inkscape="http://www.inkscape.org/namespaces/inkscape"
   width="22"
   height="22"
   id="svg7229"
   sodipodi:version="0.32"
   inkscape:version="1.0.1 (3bc2e813f5, 2020-09-07)"
   version="1.0"
   sodipodi:docname="battery.svg"
   inkscape:output_extension="org.inkscape.output.svg.inkscape"
   viewBox="0 0 22 22">
  <defs
     id="defs7231">
    <style
       id="current-color-scheme"
       type="text/css" />
    <style
       type="text/css"
       id="style5" />
  </defs>
  <sodipodi:namedview
     id="base"
     pagecolor="#ffffff"
     bordercolor="#000000"
     borderopacity="1"
     inkscape:pageopacity="0"
     inkscape:pageshadow="2"
     inkscape:zoom="3.6679668"
     inkscape:cx="93.866723"
     inkscape:cy="-14.002104"
     inkscape:document-units="px"
     inkscape:current-layer="layer1"
     showgrid="false"
     inkscape:window-width="1920"
     inkscape:window-height="1009"
     inkscape:window-x="0"
     inkscape:window-y="0"
     showguides="true"
     inkscape:guide-bbox="true"
     gridtolerance="10000"
     inkscape:window-maximized="1"
     inkscape:snap-bbox="true"
     inkscape:showpageshadow="false"
     borderlayer="true"
     inkscape:object-nodes="true"
     inkscape:measure-start="8,13"
     inkscape:measure-end="195,13"
     inkscape:snap-bbox-edge-midpoints="false"
     inkscape:bbox-nodes="true"
     inkscape:snap-nodes="false"
     inkscape:snap-intersection-paths="true"
     inkscape:document-rotation="0"
     inkscape:lockguides="false">
    <inkscape:grid
       type="xygrid"
       id="grid3780"
       empspacing="5"
       visible="true"
       enabled="true"
       snapvisiblegridlinesonly="true" />
  </sodipodi:namedview>
  <metadata
     id="metadata7234">
    <rdf:RDF>
      <cc:Work
         rdf:about="">
        <dc:format>image/svg+xml</dc:format>
        <dc:type
           rdf:resource="http://purl.org/dc/dcmitype/StillImage" />
        <dc:title />
      </cc:Work>
    </rdf:RDF>
  </metadata>
  <g
     inkscape:label="Camada 1"
     inkscape:groupmode="layer"
     id="layer1"
     transform="translate(-214.53572,-404.50504)">
    <g
       id="22-22-Battery"
       transform="translate(49.999999,-23.999995)">
      <rect
         ry="0"
         rx="0"
         y="428.50504"
         x="164.53572"
         height="22"
         width="22"
         id="rect914"
         style="opacity:0;fill:#dedede;fill-opacity:1;fill-rule:evenodd;stroke:none;stroke-width:1;stroke-linecap:round;stroke-linejoin:round;stroke-miterlimit:4;stroke-dasharray:none;stroke-opacity:1;paint-order:normal" />
      <path
         inkscape:connector-curvature="0"
         id="rect910"
         d="m 166.45174,434.50504 c -0.50784,0 -0.91602,0.44599 -0.91602,1 v 9 c 0,0.554 0.40818,1 0.91602,1 h 16.16796 c 0.50784,0 0.91602,-0.446 0.91602,-1 v -9 c 0,-0.55401 -0.40818,-1 -0.91602,-1 z m 0.63867,1 h 14.89062 c 0.3068,0 0.55469,0.24789 0.55469,0.55468 v 7.89063 c 0,0.30679 -0.24789,0.55469 -0.55469,0.55469 h -14.89062 c -0.3068,0 -0.55469,-0.2479 -0.55469,-0.55469 v -7.89063 c 0,-0.30679 0.24789,-0.55468 0.55469,-0.55468 z"
         style="opacity:1;fill:#d3dae3;fill-opacity:1;fill-rule:evenodd;stroke:none;stroke-width:0.99999988;stroke-linecap:round;stroke-linejoin:round;stroke-miterlimit:4;stroke-dasharray:none;stroke-opacity:1;paint-order:normal" />
      <path
         inkscape:connector-curvature="0"
         id="path912"
         d="m 184.03572,438.50504 a 1.5,1.5 0 0 0 -0.5,0.0879 v 2.82421 a 1.5,1.5 0 0 0 0.5,0.0879 1.5,1.5 0 0 0 1.5,-1.5 1.5,1.5 0 0 0 -1.5,-1.5 z"
         style="opacity:1;fill:#0bd9d2;fill-opacity:1;fill-rule:evenodd;stroke:none;stroke-width:1;stroke-linecap:round;stroke-linejoin:round;stroke-miterlimit:4;stroke-dasharray:none;stroke-opacity:1;paint-order:normal" />
    </g>
    <g
       id="22-22-Fill90"
       transform="translate(115,-22.999995)">
      <rect
         ry="0"
         rx="0"
         y="428.50504"
         x="164.53572"
         height="22"
         width="22"
         id="rect940"
         style="opacity:0;fill:#dedede;fill-opacity:1;fill-rule:evenodd;stroke:none;stroke-width:1;stroke-linecap:round;stroke-linejoin:round;stroke-miterlimit:4;stroke-dasharray:none;stroke-opacity:1;paint-order:normal" />
      <rect
         rx="0"
         ry="0.008661272"
         y="436.50504"
         x="167.53572"
         height="7.0000048"
         width="12.999999"
         id="rect946"
         style="opacity:1;fill:#d3dae3;fill-opacity:1;fill-rule:evenodd;stroke:none;stroke-width:0.99999964;stroke-linecap:round;stroke-linejoin:round;stroke-miterlimit:4;stroke-dasharray:none;stroke-opacity:1;paint-order:normal" />
    </g>
    <g
       transform="translate(140,-22.999995)"
       id="22-22-Fill80">
      <rect
         style="opacity:0;fill:#dedede;fill-opacity:1;fill-rule:evenodd;stroke:none;stroke-width:1;stroke-linecap:round;stroke-linejoin:round;stroke-miterlimit:4;stroke-dasharray:none;stroke-opacity:1;paint-order:normal"
         id="rect950"
         width="22"
         height="22"
         x="164.53572"
         y="428.50504"
         rx="0"
         ry="0" />
      <rect
         style="opacity:1;fill:#d3dae3;fill-opacity:1;fill-rule:evenodd;stroke:none;stroke-width:0.99999964;stroke-linecap:round;stroke-linejoin:round;stroke-miterlimit:4;stroke-dasharray:none;stroke-opacity:1;paint-order:normal"
         id="rect952"
         width="10.999999"
         height="7.0000048"
         x="167.53572"
         y="436.50504"
         ry="0.008661272"
         rx="0" />
    </g>
    <g
       id="22-22-Fill70"
       transform="translate(160,-22.999995)">
      <rect
         ry="0"
         rx="0"
         y="428.50504"
         x="164.53572"
         height="22"
         width="22"
         id="rect956"
         style="opacity:0;fill:#dedede;fill-opacity:1;fill-rule:evenodd;stroke:none;stroke-width:1;stroke-linecap:round;stroke-linejoin:round;stroke-miterlimit:4;stroke-dasharray:none;stroke-opacity:1;paint-order:normal" />
      <rect
         rx="0"
         ry="0.008661272"
         y="436.50504"
         x="167.53572"
         height="7.0000048"
         width="9.999999"
         id="rect958"
         style="opacity:1;fill:#d3dae3;fill-opacity:1;fill-rule:evenodd;stroke:none;stroke-width:0.99999964;stroke-linecap:round;stroke-linejoin:round;stroke-miterlimit:4;stroke-dasharray:none;stroke-opacity:1;paint-order:normal" />
    </g>
    <g
       transform="translate(185,-22.999995)"
       id="22-22-Fill60">
      <rect
         style="opacity:0;fill:#dedede;fill-opacity:1;fill-rule:evenodd;stroke:none;stroke-width:1;stroke-linecap:round;stroke-linejoin:round;stroke-miterlimit:4;stroke-dasharray:none;stroke-opacity:1;paint-order:normal"
         id="rect962"
         width="22"
         height="22"
         x="164.53572"
         y="428.50504"
         rx="0"
         ry="0" />
      <rect
         style="opacity:1;fill:#d3dae3;fill-opacity:1;fill-rule:evenodd;stroke:none;stroke-width:0.99999964;stroke-linecap:round;stroke-linejoin:round;stroke-miterlimit:4;stroke-dasharray:none;stroke-opacity:1;paint-order:normal"
         id="rect964"
         width="8.999999"
         height="7.0000048"
         x="167.53572"
         y="436.50504"
         ry="0.008661272"
         rx="0" />
    </g>
    <g
       id="22-22-Fill50"
       transform="translate(210,-22.999995)">
      <rect
         ry="0"
         rx="0"
         y="428.50504"
         x="164.53572"
         height="22"
         width="22"
         id="rect968"
         style="opacity:0;fill:#dedede;fill-opacity:1;fill-rule:evenodd;stroke:none;stroke-width:1;stroke-linecap:round;stroke-linejoin:round;stroke-miterlimit:4;stroke-dasharray:none;stroke-opacity:1;paint-order:normal" />
      <rect
         rx="0"
         ry="0.008661272"
         y="436.50504"
         x="167.53572"
         height="7.0000048"
         width="6.999999"
         id="rect970"
         style="opacity:1;fill:#d3dae3;fill-opacity:1;fill-rule:evenodd;stroke:none;stroke-width:0.99999964;stroke-linecap:round;stroke-linejoin:round;stroke-miterlimit:4;stroke-dasharray:none;stroke-opacity:1;paint-order:normal" />
    </g>
    <g
       transform="translate(235,-22.999995)"
       id="22-22-Fill40">
      <rect
         style="opacity:0;fill:#dedede;fill-opacity:1;fill-rule:evenodd;stroke:none;stroke-width:1;stroke-linecap:round;stroke-linejoin:round;stroke-miterlimit:4;stroke-dasharray:none;stroke-opacity:1;paint-order:normal"
         id="rect974"
         width="22"
         height="22"
         x="164.53572"
         y="428.50504"
         rx="0"
         ry="0" />
      <rect
         style="opacity:1;fill:#d3dae3;fill-opacity:1;fill-rule:evenodd;stroke:none;stroke-width:0.99999964;stroke-linecap:round;stroke-linejoin:round;stroke-miterlimit:4;stroke-dasharray:none;stroke-opacity:1;paint-order:normal"
         id="rect976"
         width="5.999999"
         height="7.0000048"
         x="167.53572"
         y="436.50504"
         ry="0.008661272"
         rx="0" />
    </g>
    <g
       id="22-22-Fill30"
       transform="translate(255,-22.999995)">
      <rect
         ry="0"
         rx="0"
         y="428.50504"
         x="164.53572"
         height="22"
         width="22"
         id="rect980"
         style="opacity:0;fill:#dedede;fill-opacity:1;fill-rule:evenodd;stroke:none;stroke-width:1;stroke-linecap:round;stroke-linejoin:round;stroke-miterlimit:4;stroke-dasharray:none;stroke-opacity:1;paint-order:normal" />
      <rect
         rx="0"
         ry="0.008661272"
         y="436.50504"
         x="167.53572"
         height="7.0000048"
         width="3.9999993"
         id="rect982"
         style="opacity:1;fill:#d3dae3;fill-opacity:1;fill-rule:evenodd;stroke:none;stroke-width:0.99999958;stroke-linecap:round;stroke-linejoin:round;stroke-miterlimit:4;stroke-dasharray:none;stroke-opacity:1;paint-order:normal" />
    </g>
    <g
       transform="translate(275,-22.999995)"
       id="22-22-Fill20">
      <rect
         style="opacity:0;fill:#dedede;fill-opacity:1;fill-rule:evenodd;stroke:none;stroke-width:1;stroke-linecap:round;stroke-linejoin:round;stroke-miterlimit:4;stroke-dasharray:none;stroke-opacity:1;paint-order:normal"
         id="rect986"
         width="22"
         height="22"
         x="164.53572"
         y="428.50504"
         rx="0"
         ry="0" />
      <rect
         style="opacity:1;fill:#d3dae3;fill-opacity:1;fill-rule:evenodd;stroke:none;stroke-width:0.99999964;stroke-linecap:round;stroke-linejoin:round;stroke-miterlimit:4;stroke-dasharray:none;stroke-opacity:1;paint-order:normal"
         id="rect988"
         width="1.9999992"
         height="7.0000048"
         x="167.53572"
         y="436.50504"
         ry="0.008661272"
         rx="0" />
    </g>
    <g
       id="22-22-Fill10"
       transform="translate(300,-22.999995)">
      <rect
         ry="0"
         rx="0"
         y="428.50504"
         x="164.53572"
         height="22"
         width="22"
         id="rect1006"
         style="opacity:0;fill:#dedede;fill-opacity:1;fill-rule:evenodd;stroke:none;stroke-width:1;stroke-linecap:round;stroke-linejoin:round;stroke-miterlimit:4;stroke-dasharray:none;stroke-opacity:1;paint-order:normal" />
      <path
         inkscape:connector-curvature="0"
         id="path1008"
         d="m 166.45174,434.50504 c -0.50784,0 -0.91602,0.44599 -0.91602,1 v 9 c 0,0.554 0.40818,1 0.91602,1 h 16.16796 c 0.50784,0 0.91602,-0.446 0.91602,-1 v -9 c 0,-0.55401 -0.40818,-1 -0.91602,-1 z m 0.63867,1 h 14.89062 c 0.3068,0 0.55469,0.24789 0.55469,0.55468 v 7.89063 c 0,0.30679 -0.24789,0.55469 -0.55469,0.55469 h -14.89062 c -0.3068,0 -0.55469,-0.2479 -0.55469,-0.55469 v -7.89063 c 0,-0.30679 0.24789,-0.55468 0.55469,-0.55468 z"
         style="opacity:1;fill:#ff557f;fill-opacity:1;fill-rule:evenodd;stroke:none;stroke-width:0.99999988;stroke-linecap:round;stroke-linejoin:round;stroke-miterlimit:4;stroke-dasharray:none;stroke-opacity:1;paint-order:normal" />
      <path
         inkscape:connector-curvature="0"
         id="path1010"
         d="m 184.03572,438.50504 a 1.5,1.5 0 0 0 -0.5,0.0879 v 2.82421 a 1.5,1.5 0 0 0 0.5,0.0879 1.5,1.5 0 0 0 1.5,-1.5 1.5,1.5 0 0 0 -1.5,-1.5 z"
         style="opacity:1;fill:#ff557f;fill-opacity:1;fill-rule:evenodd;stroke:none;stroke-width:1;stroke-linecap:round;stroke-linejoin:round;stroke-miterlimit:4;stroke-dasharray:none;stroke-opacity:1;paint-order:normal" />
      <rect
         rx="0"
         ry="0.008661272"
         y="436.50504"
         x="167.53572"
         height="7.0000048"
         width="0.99999917"
         id="rect1012"
         style="opacity:1;fill:#ff557f;fill-opacity:1;fill-rule:evenodd;stroke:none;stroke-width:0.99999976;stroke-linecap:round;stroke-linejoin:round;stroke-miterlimit:4;stroke-dasharray:none;stroke-opacity:1;paint-order:normal" />
    </g>
    <g
       transform="translate(330,-22.999995)"
       id="22-22-Fill0">
      <rect
         style="opacity:0;fill:#dedede;fill-opacity:1;fill-rule:evenodd;stroke:none;stroke-width:1;stroke-linecap:round;stroke-linejoin:round;stroke-miterlimit:4;stroke-dasharray:none;stroke-opacity:1;paint-order:normal"
         id="rect1019"
         width="22"
         height="22"
         x="164.53572"
         y="428.50504"
         rx="0"
         ry="0" />
      <path
         style="opacity:1;fill:#ff557f;fill-opacity:1;fill-rule:evenodd;stroke:none;stroke-width:0.99999988;stroke-linecap:round;stroke-linejoin:round;stroke-miterlimit:4;stroke-dasharray:none;stroke-opacity:1;paint-order:normal"
         d="m 166.45174,434.50504 c -0.50784,0 -0.91602,0.44599 -0.91602,1 v 9 c 0,0.554 0.40818,1 0.91602,1 h 16.16796 c 0.50784,0 0.91602,-0.446 0.91602,-1 v -9 c 0,-0.55401 -0.40818,-1 -0.91602,-1 z m 0.63867,1 h 14.89062 c 0.3068,0 0.55469,0.24789 0.55469,0.55468 v 7.89063 c 0,0.30679 -0.24789,0.55469 -0.55469,0.55469 h -14.89062 c -0.3068,0 -0.55469,-0.2479 -0.55469,-0.55469 v -7.89063 c 0,-0.30679 0.24789,-0.55468 0.55469,-0.55468 z"
         id="path1021"
         inkscape:connector-curvature="0" />
      <path
         style="opacity:1;fill:#ff557f;fill-opacity:1;fill-rule:evenodd;stroke:none;stroke-width:1;stroke-linecap:round;stroke-linejoin:round;stroke-miterlimit:4;stroke-dasharray:none;stroke-opacity:1;paint-order:normal"
         d="m 184.03572,438.50504 a 1.5,1.5 0 0 0 -0.5,0.0879 v 2.82421 a 1.5,1.5 0 0 0 0.5,0.0879 1.5,1.5 0 0 0 1.5,-1.5 1.5,1.5 0 0 0 -1.5,-1.5 z"
         id="path1023"
         inkscape:connector-curvature="0" />
    </g>
    <g
       transform="translate(84.999999,-22.999995)"
       id="22-22-Fill100">
      <rect
         style="opacity:0;fill:#dedede;fill-opacity:1;fill-rule:evenodd;stroke:none;stroke-width:1;stroke-linecap:round;stroke-linejoin:round;stroke-miterlimit:4;stroke-dasharray:none;stroke-opacity:1;paint-order:normal"
         id="rect1029"
         width="22"
         height="22"
         x="164.53572"
         y="428.50504"
         rx="0"
         ry="0" />
      <rect
         style="opacity:1;fill:#d3dae3;fill-opacity:1;fill-rule:evenodd;stroke:none;stroke-width:0.99999964;stroke-linecap:round;stroke-linejoin:round;stroke-miterlimit:4;stroke-dasharray:none;stroke-opacity:1;paint-order:normal"
         id="rect1031"
         width="14.000001"
         height="7.0000048"
         x="167.53572"
         y="436.50504"
         ry="0.008661272"
         rx="0" />
    </g>
    <g
       id="22-22-battery-ups"
       transform="translate(-87.79492,1.9996)">
      <rect
         style="opacity:0;fill:#dedede;fill-opacity:1;fill-rule:evenodd;stroke:none;stroke-width:1;stroke-linecap:round;stroke-linejoin:round;stroke-miterlimit:4;stroke-dasharray:none;stroke-opacity:1;paint-order:normal"
         id="rect930"
         width="22"
         height="22"
         x="183.53572"
         y="406.50504"
         rx="0"
         ry="0" />
      <path
         style="opacity:1;fill:#d3dae3;fill-opacity:1;fill-rule:evenodd;stroke:none;stroke-width:0.99999988;stroke-linecap:round;stroke-linejoin:round;stroke-miterlimit:4;stroke-dasharray:none;stroke-opacity:1;paint-order:normal"
         d="m 185.45174,412.50504 c -0.50784,0 -0.91602,0.44599 -0.91602,1 v 9 c 0,0.554 0.40818,1 0.91602,1 h 5.10546 c 0.002,-0.12979 0.0269,-0.26497 0.0879,-0.4043 l 0.26172,-0.5957 h -4.8164 c -0.3068,0 -0.55469,-0.2479 -0.55469,-0.55469 v -7.89062 c 0,-0.30679 0.24789,-0.55469 0.55469,-0.55469 h 7.16211 l 0.92187,-1 z m 11.07617,0 c 2.6e-4,0.13426 -0.0187,0.26978 -0.0781,0.4043 l -0.26367,0.5957 h 4.79492 c 0.3068,0 0.55469,0.2479 0.55469,0.55469 v 7.89062 c 0,0.30679 -0.24789,0.55469 -0.55469,0.55469 h -7.14258 l -0.92187,1 h 8.70312 c 0.50784,0 0.91602,-0.446 0.91602,-1 v -9 c 0,-0.55401 -0.40818,-1 -0.91602,-1 z"
         id="path932"
         inkscape:connector-curvature="0" />
      <path
         style="opacity:1;fill:#0bd9d2;fill-opacity:1;fill-rule:evenodd;stroke:none;stroke-width:1;stroke-linecap:round;stroke-linejoin:round;stroke-miterlimit:4;stroke-dasharray:none;stroke-opacity:1;paint-order:normal"
         d="m 203.03564,416.50504 a 1.5,1.5 0 0 0 -0.5,0.0879 v 2.82421 a 1.5,1.5 0 0 0 0.5,0.0879 1.5,1.5 0 0 0 1.5,-1.5 1.5,1.5 0 0 0 -1.5,-1.5 z"
         id="path934"
         inkscape:connector-curvature="0" />
      <path
         sodipodi:nodetypes="ccccccc"
         inkscape:connector-curvature="0"
         id="path965"
         d="m 195.53572,412.50504 -6,6.50588 h 4 l -1.97665,4.4941 5.97665,-6.4941 h -4 z"
         style="fill:#0bd9d2;fill-opacity:1;stroke:none;stroke-width:1px;stroke-linecap:butt;stroke-linejoin:miter;stroke-opacity:1" />
    </g>
    <g
       id="Battery"
       transform="translate(22.090911,25.000005)">
      <rect
         style="opacity:0;fill:#dedede;fill-opacity:1;fill-rule:evenodd;stroke:none;stroke-width:1;stroke-linecap:round;stroke-linejoin:round;stroke-miterlimit:4;stroke-dasharray:none;stroke-opacity:1;paint-order:normal"
         id="rect992"
         width="32"
         height="32"
         x="189.44481"
         y="336.50504"
         rx="0"
         ry="0" />
      <path
         inkscape:connector-curvature="0"
         id="rect1000"
         d="m 193.44481,345.50504 c -1.108,0 -2,0.89199 -2,2 v 10 c 0,1.108 0.892,2 2,2 h 22 c 1.108,0 2,-0.892 2,-2 v -10 c 0,-1.10801 -0.892,-2 -2,-2 z m 0,1 h 22 c 0.554,0 1,0.44599 1,1 v 10 c 0,0.55399 -0.446,1 -1,1 h -22 c -0.554,0 -1,-0.44601 -1,-1 v -10 c 0,-0.55401 0.446,-1 1,-1 z"
         style="opacity:1;fill:#d3dae3;fill-opacity:1;fill-rule:evenodd;stroke:none;stroke-width:2;stroke-linecap:round;stroke-linejoin:round;stroke-miterlimit:4;stroke-dasharray:none;stroke-opacity:1;paint-order:normal" />
      <path
         inkscape:connector-curvature="0"
         id="path1004"
         d="m 217.44481,350.50504 v 4 a 2,2 0 0 0 2,-2 2,2 0 0 0 -2,-2 z"
         style="opacity:1;fill:#0bd9d2;fill-opacity:1;fill-rule:evenodd;stroke:none;stroke-width:2;stroke-linecap:round;stroke-linejoin:round;stroke-miterlimit:4;stroke-dasharray:none;stroke-opacity:1;paint-order:normal" />
    </g>
    <g
       transform="translate(60.090911,25.000005)"
       id="Fill100">
      <rect
         ry="0"
         rx="0"
         y="336.50504"
         x="189.44481"
         height="32"
         width="32"
         id="rect1022"
         style="opacity:0;fill:#dedede;fill-opacity:1;fill-rule:evenodd;stroke:none;stroke-width:1;stroke-linecap:round;stroke-linejoin:round;stroke-miterlimit:4;stroke-dasharray:none;stroke-opacity:1;paint-order:normal" />
      <rect
         ry="4.5996094e-06"
         y="347.50504"
         x="193.44481"
         height="10.000005"
         width="22"
         id="rect1028"
         style="opacity:1;fill:#d3dae3;fill-opacity:1;fill-rule:evenodd;stroke:none;stroke-width:1.99999988;stroke-linecap:round;stroke-linejoin:round;stroke-miterlimit:4;stroke-dasharray:none;stroke-opacity:1;paint-order:normal" />
    </g>
    <g
       id="Fill90"
       transform="translate(100.09091,25.000005)">
      <rect
         style="opacity:0;fill:#dedede;fill-opacity:1;fill-rule:evenodd;stroke:none;stroke-width:1;stroke-linecap:round;stroke-linejoin:round;stroke-miterlimit:4;stroke-dasharray:none;stroke-opacity:1;paint-order:normal"
         id="rect1042"
         width="32"
         height="32"
         x="189.44481"
         y="336.50504"
         rx="0"
         ry="0" />
      <rect
         style="opacity:1;fill:#d3dae3;fill-opacity:1;fill-rule:evenodd;stroke:none;stroke-width:1.99999988;stroke-linecap:round;stroke-linejoin:round;stroke-miterlimit:4;stroke-dasharray:none;stroke-opacity:1;paint-order:normal"
         id="rect1044"
         width="20"
         height="10.000005"
         x="193.44481"
         y="347.50504"
         ry="4.5996094e-06" />
    </g>
    <g
       transform="translate(135.09091,25.000005)"
       id="Fill80">
      <rect
         ry="0"
         rx="0"
         y="336.50504"
         x="189.44481"
         height="32"
         width="32"
         id="rect1048"
         style="opacity:0;fill:#dedede;fill-opacity:1;fill-rule:evenodd;stroke:none;stroke-width:1;stroke-linecap:round;stroke-linejoin:round;stroke-miterlimit:4;stroke-dasharray:none;stroke-opacity:1;paint-order:normal" />
      <rect
         ry="4.5996094e-06"
         y="347.50504"
         x="193.44479"
         height="10.000005"
         width="18"
         id="rect1050"
         style="opacity:1;fill:#d3dae3;fill-opacity:1;fill-rule:evenodd;stroke:none;stroke-width:1.99999988;stroke-linecap:round;stroke-linejoin:round;stroke-miterlimit:4;stroke-dasharray:none;stroke-opacity:1;paint-order:normal" />
    </g>
    <g
       id="Fill70"
       transform="translate(174.09091,25.000005)">
      <rect
         style="opacity:0;fill:#dedede;fill-opacity:1;fill-rule:evenodd;stroke:none;stroke-width:1;stroke-linecap:round;stroke-linejoin:round;stroke-miterlimit:4;stroke-dasharray:none;stroke-opacity:1;paint-order:normal"
         id="rect1054"
         width="32"
         height="32"
         x="189.44481"
         y="336.50504"
         rx="0"
         ry="0" />
      <rect
         style="opacity:1;fill:#d3dae3;fill-opacity:1;fill-rule:evenodd;stroke:none;stroke-width:1.99999976;stroke-linecap:round;stroke-linejoin:round;stroke-miterlimit:4;stroke-dasharray:none;stroke-opacity:1;paint-order:normal"
         id="rect1056"
         width="16.000002"
         height="10.000005"
         x="193.44481"
         y="347.50504"
         ry="4.5996094e-06" />
    </g>
    <g
       transform="translate(210.09091,25.000005)"
       id="Fill60">
      <rect
         ry="0"
         rx="0"
         y="336.50504"
         x="189.44481"
         height="32"
         width="32"
         id="rect1060"
         style="opacity:0;fill:#dedede;fill-opacity:1;fill-rule:evenodd;stroke:none;stroke-width:1;stroke-linecap:round;stroke-linejoin:round;stroke-miterlimit:4;stroke-dasharray:none;stroke-opacity:1;paint-order:normal" />
      <rect
         ry="4.5996094e-06"
         y="347.50504"
         x="193.44481"
         height="10.000005"
         width="14"
         id="rect1062"
         style="opacity:1;fill:#d3dae3;fill-opacity:1;fill-rule:evenodd;stroke:none;stroke-width:1.99999988;stroke-linecap:round;stroke-linejoin:round;stroke-miterlimit:4;stroke-dasharray:none;stroke-opacity:1;paint-order:normal" />
    </g>
    <g
       id="Fill50"
       transform="translate(245.09091,25.000005)">
      <rect
         style="opacity:0;fill:#dedede;fill-opacity:1;fill-rule:evenodd;stroke:none;stroke-width:1;stroke-linecap:round;stroke-linejoin:round;stroke-miterlimit:4;stroke-dasharray:none;stroke-opacity:1;paint-order:normal"
         id="rect1066"
         width="32"
         height="32"
         x="189.44481"
         y="336.50504"
         rx="0"
         ry="0" />
      <rect
         style="opacity:1;fill:#d3dae3;fill-opacity:1;fill-rule:evenodd;stroke:none;stroke-width:1.99999976;stroke-linecap:round;stroke-linejoin:round;stroke-miterlimit:4;stroke-dasharray:none;stroke-opacity:1;paint-order:normal"
         id="rect1068"
         width="12.000001"
         height="10.000005"
         x="193.44481"
         y="347.50504"
         ry="4.5996094e-06" />
    </g>
    <g
       transform="translate(285.09091,25.000005)"
       id="Fill40">
      <rect
         ry="0"
         rx="0"
         y="336.50504"
         x="189.44481"
         height="32"
         width="32"
         id="rect1072"
         style="opacity:0;fill:#dedede;fill-opacity:1;fill-rule:evenodd;stroke:none;stroke-width:1;stroke-linecap:round;stroke-linejoin:round;stroke-miterlimit:4;stroke-dasharray:none;stroke-opacity:1;paint-order:normal" />
      <rect
         ry="4.5996094e-06"
         y="347.50504"
         x="193.44481"
         height="10.000005"
         width="10.000001"
         id="rect1074"
         style="opacity:1;fill:#d3dae3;fill-opacity:1;fill-rule:evenodd;stroke:none;stroke-width:1.99999964;stroke-linecap:round;stroke-linejoin:round;stroke-miterlimit:4;stroke-dasharray:none;stroke-opacity:1;paint-order:normal" />
    </g>
    <g
       id="Fill30"
       transform="translate(320.09091,25.000005)">
      <rect
         style="opacity:0;fill:#dedede;fill-opacity:1;fill-rule:evenodd;stroke:none;stroke-width:1;stroke-linecap:round;stroke-linejoin:round;stroke-miterlimit:4;stroke-dasharray:none;stroke-opacity:1;paint-order:normal"
         id="rect1078"
         width="32"
         height="32"
         x="189.44481"
         y="336.50504"
         rx="0"
         ry="0" />
      <rect
         style="opacity:1;fill:#d3dae3;fill-opacity:1;fill-rule:evenodd;stroke:none;stroke-width:1.99999964;stroke-linecap:round;stroke-linejoin:round;stroke-miterlimit:4;stroke-dasharray:none;stroke-opacity:1;paint-order:normal"
         id="rect1080"
         width="8.000001"
         height="10.000005"
         x="193.44481"
         y="347.50504"
         ry="4.5996094e-06" />
    </g>
    <g
       transform="translate(348.09091,25.000005)"
       id="Fill20">
      <rect
         ry="0"
         rx="0"
         y="336.50504"
         x="189.44481"
         height="32"
         width="32"
         id="rect1084"
         style="opacity:0;fill:#dedede;fill-opacity:1;fill-rule:evenodd;stroke:none;stroke-width:1;stroke-linecap:round;stroke-linejoin:round;stroke-miterlimit:4;stroke-dasharray:none;stroke-opacity:1;paint-order:normal" />
      <rect
         ry="4.5996094e-06"
         y="347.50504"
         x="193.44481"
         height="10.000005"
         width="6.000001"
         id="rect1086"
         style="opacity:1;fill:#d3dae3;fill-opacity:1;fill-rule:evenodd;stroke:none;stroke-width:1.99999964;stroke-linecap:round;stroke-linejoin:round;stroke-miterlimit:4;stroke-dasharray:none;stroke-opacity:1;paint-order:normal" />
    </g>
    <g
       id="Fill10"
       transform="translate(371.09091,24.000005)">
      <rect
         style="opacity:0;fill:#dedede;fill-opacity:1;fill-rule:evenodd;stroke:none;stroke-width:1;stroke-linecap:round;stroke-linejoin:round;stroke-miterlimit:4;stroke-dasharray:none;stroke-opacity:1;paint-order:normal"
         id="rect1090"
         width="32"
         height="32"
         x="189.44481"
         y="336.50504"
         rx="0"
         ry="0" />
      <path
         inkscape:connector-curvature="0"
         id="path1092"
         d="m 193.44481,345.50504 c -1.108,0 -2,0.89199 -2,2 v 10 c 0,1.108 0.892,2 2,2 h 22 c 1.108,0 2,-0.892 2,-2 v -10 c 0,-1.10801 -0.892,-2 -2,-2 z m 0,1 h 22 c 0.554,0 1,0.44599 1,1 v 10 c 0,0.554 -0.446,1 -1,1 h -22 c -0.554,0 -1,-0.446 -1,-1 v -10 c 0,-0.55401 0.446,-1 1,-1 z"
         style="opacity:1;fill:#ff557f;fill-opacity:1;fill-rule:evenodd;stroke:none;stroke-width:2;stroke-linecap:round;stroke-linejoin:round;stroke-miterlimit:4;stroke-dasharray:none;stroke-opacity:1;paint-order:normal" />
      <path
         inkscape:connector-curvature="0"
         id="path1094"
         d="m 217.44481,350.50504 v 4 a 2,2 0 0 0 2,-2 2,2 0 0 0 -2,-2 z"
         style="opacity:1;fill:#ff557f;fill-opacity:1;fill-rule:evenodd;stroke:none;stroke-width:2;stroke-linecap:round;stroke-linejoin:round;stroke-miterlimit:4;stroke-dasharray:none;stroke-opacity:1;paint-order:normal" />
      <rect
         style="opacity:1;fill:#ff557f;fill-opacity:1;fill-rule:evenodd;stroke:none;stroke-width:2;stroke-linecap:round;stroke-linejoin:round;stroke-miterlimit:4;stroke-dasharray:none;stroke-opacity:1;paint-order:normal"
         id="rect1096"
         width="2.9090893"
         height="10.000005"
         x="193.44481"
         y="347.50504"
         ry="4.5996094e-06" />
    </g>
    <g
       transform="translate(415.09091,24.000005)"
       id="Fill0">
      <rect
         ry="0"
         rx="0"
         y="336.50504"
         x="189.44481"
         height="32"
         width="32"
         id="rect1100"
         style="opacity:0;fill:#dedede;fill-opacity:1;fill-rule:evenodd;stroke:none;stroke-width:1;stroke-linecap:round;stroke-linejoin:round;stroke-miterlimit:4;stroke-dasharray:none;stroke-opacity:1;paint-order:normal" />
      <path
         style="opacity:1;fill:#ff557f;fill-opacity:1;fill-rule:evenodd;stroke:none;stroke-width:2;stroke-linecap:round;stroke-linejoin:round;stroke-miterlimit:4;stroke-dasharray:none;stroke-opacity:1;paint-order:normal"
         d="m 193.44481,345.50504 c -1.108,0 -2,0.89199 -2,2 v 10 c 0,1.108 0.892,2 2,2 h 22 c 1.108,0 2,-0.892 2,-2 v -10 c 0,-1.10801 -0.892,-2 -2,-2 z m 0,1 h 22 c 0.554,0 1,0.44599 1,1 v 10 c 0,0.55399 -0.446,1 -1,1 h -22 c -0.554,0 -1,-0.44601 -1,-1 v -10 c 0,-0.55401 0.446,-1 1,-1 z"
         id="path1102"
         inkscape:connector-curvature="0" />
      <path
         style="opacity:1;fill:#ff557f;fill-opacity:1;fill-rule:evenodd;stroke:none;stroke-width:2;stroke-linecap:round;stroke-linejoin:round;stroke-miterlimit:4;stroke-dasharray:none;stroke-opacity:1;paint-order:normal"
         d="m 217.44481,350.50504 v 4 a 2,2 0 0 0 2,-2 2,2 0 0 0 -2,-2 z"
         id="path1104"
         inkscape:connector-curvature="0" />
    </g>
    <g
       id="battery-ups"
       transform="translate(-118.58594,24)">
      <rect
         style="opacity:0;fill:#dedede;fill-opacity:1;fill-rule:evenodd;stroke:none;stroke-width:1;stroke-linecap:round;stroke-linejoin:round;stroke-miterlimit:4;stroke-dasharray:none;stroke-opacity:1;paint-order:normal"
         id="rect1110"
         width="32"
         height="32"
         x="188.53572"
         y="336.50504"
         rx="0"
         ry="0" />
      <path
         style="opacity:1;fill:#d3dae3;fill-opacity:1;fill-rule:evenodd;stroke:none;stroke-width:2;stroke-linecap:round;stroke-linejoin:round;stroke-miterlimit:4;stroke-dasharray:none;stroke-opacity:1;paint-order:normal"
         d="m 192.53572,345.50504 c -1.108,0 -2,0.89199 -2,2 v 10 c 0,1.108 0.892,2 2,2 h 7.00391 c 0.002,-0.14411 0.0251,-0.29407 0.10156,-0.44727 l 0.27734,-0.55273 h -7.38281 c -0.554,0 -1,-0.446 -1,-1 v -10 c 0,-0.55401 0.446,-1 1,-1 h 11.58594 l 1,-1 z m 14.99609,0 c 8e-5,0.14867 -0.0282,0.30078 -0.10156,0.44727 l -0.27734,0.55273 h 7.38281 c 0.554,0 1,0.44599 1,1 v 10 c 0,0.554 -0.446,1 -1,1 h -11.58594 l -1,1 h 12.58594 c 1.108,0 2,-0.892 2,-2 v -10 c 0,-1.10801 -0.892,-2 -2,-2 z"
         id="path1112"
         inkscape:connector-curvature="0" />
      <path
         inkscape:connector-curvature="0"
         id="path1114"
         d="m 216.53566,350.50504 v 4 a 2,2 0 0 0 2,-2 2,2 0 0 0 -2,-2 z"
         style="opacity:1;fill:#0bd9d2;fill-opacity:1;fill-rule:evenodd;stroke:none;stroke-width:2;stroke-linecap:round;stroke-linejoin:round;stroke-miterlimit:4;stroke-dasharray:none;stroke-opacity:1;paint-order:normal" />
      <path
         style="fill:#0bd9d2;fill-opacity:1;stroke:none;stroke-width:1px;stroke-linecap:butt;stroke-linejoin:miter;stroke-opacity:1"
         d="m 206.53572,345.50504 -8,8 h 5 l -3,6 8,-8 h -5 z"
         id="path979"
         inkscape:connector-curvature="0"
         sodipodi:nodetypes="ccccccc" />
    </g>
    <g
       id="22-22-AcAdapter-1"
       transform="translate(-107.00002,-25)">
      <path
         style="opacity:1;fill:none;fill-opacity:1;stroke:none;stroke-width:0.1;stroke-linecap:square;stroke-linejoin:miter;stroke-miterlimit:4;stroke-dasharray:none;stroke-dashoffset:0;stroke-opacity:1"
         inkscape:connector-curvature="0"
         d="m 136.53574,456.50504 v -22 h 22 v 22 z"
         id="rect4185-5" />
      <g
         transform="translate(-8.2519531e-7,28.000005)"
         id="g957">
        <rect
           style="opacity:1;fill:#08a19d;fill-opacity:1;fill-rule:evenodd;stroke:none;stroke-width:1;stroke-linecap:round;stroke-linejoin:round;stroke-miterlimit:4;stroke-dasharray:none;stroke-opacity:1;paint-order:normal"
           id="rect941"
           width="3"
           height="3"
           x="142.53572"
           y="416.50504"
           ry="0" />
        <path
           inkscape:connector-curvature="0"
           style="opacity:1;fill:#08a19d;fill-opacity:1;fill-rule:evenodd;stroke:none;stroke-width:1;stroke-linecap:round;stroke-linejoin:round;stroke-miterlimit:4;stroke-dasharray:none;stroke-opacity:1;paint-order:normal"
           d="m -67.5,10 a 3.5,3.5 0 0 0 -3.5,3.5 3.5,3.5 0 0 0 3.5,3.5 3.5,3.5 0 0 0 0.5,-0.03906 V 10.041016 A 3.5,3.5 0 0 0 -67.5,10 Z"
           transform="translate(214.53572,404.50504)"
           id="path943" />
        <rect
           style="opacity:1;fill:#08a19d;fill-opacity:1;fill-rule:evenodd;stroke:none;stroke-width:1;stroke-linecap:round;stroke-linejoin:round;stroke-miterlimit:4;stroke-dasharray:none;stroke-opacity:1;paint-order:normal"
           id="rect948"
           width="4.000001"
           height="0.99999958"
           x="145.53572"
           y="415.50504"
           ry="0" />
        <rect
           ry="0"
           y="419.50504"
           x="145.53572"
           height="1.0000004"
           width="4.000001"
           id="rect951"
           style="opacity:1;fill:#08a19d;fill-opacity:1;fill-rule:evenodd;stroke:none;stroke-width:1;stroke-linecap:round;stroke-linejoin:round;stroke-miterlimit:4;stroke-dasharray:none;stroke-opacity:1;paint-order:normal" />
      </g>
    </g>
    <g
       id="AcAdapter-1"
       transform="translate(-67,30)">
      <path
         style="opacity:1;fill:none;fill-opacity:1;stroke:none;stroke-width:0.1;stroke-linecap:square;stroke-linejoin:miter;stroke-miterlimit:4;stroke-dasharray:none;stroke-dashoffset:0;stroke-opacity:1"
         inkscape:connector-curvature="0"
         d="m 91.53572,363.50504 v -32 h 32 v 32 z"
         stroke-miterlimit="4"
         id="rect4470" />
      <g
         id="g979"
         transform="translate(-39.000001,-71)">
        <rect
           ry="0"
           y="416.50504"
           x="142.53572"
           height="3.9999995"
           width="3"
           id="rect971"
           style="opacity:1;fill:#08a19d;fill-opacity:1;fill-rule:evenodd;stroke:none;stroke-width:1;stroke-linecap:round;stroke-linejoin:round;stroke-miterlimit:4;stroke-dasharray:none;stroke-opacity:1;paint-order:normal" />
        <path
           style="opacity:1;fill:#08a19d;fill-opacity:1;fill-rule:evenodd;stroke:none;stroke-width:0.99999994;stroke-linecap:round;stroke-linejoin:round;stroke-miterlimit:4;stroke-dasharray:none;stroke-opacity:1;paint-order:normal"
           d="m -80,-29 a 3.9999974,3.9999974 0 0 0 -4,4 3.9999974,3.9999974 0 0 0 4,4 z"
           transform="translate(227.53574,443.50504)"
           id="path973"
           inkscape:connector-curvature="0" />
        <rect
           ry="0"
           y="415.50504"
           x="145.53572"
           height="0.99999958"
           width="4.000001"
           id="rect975"
           style="opacity:1;fill:#08a19d;fill-opacity:1;fill-rule:evenodd;stroke:none;stroke-width:1;stroke-linecap:round;stroke-linejoin:round;stroke-miterlimit:4;stroke-dasharray:none;stroke-opacity:1;paint-order:normal" />
        <rect
           style="opacity:1;fill:#08a19d;fill-opacity:1;fill-rule:evenodd;stroke:none;stroke-width:1;stroke-linecap:round;stroke-linejoin:round;stroke-miterlimit:4;stroke-dasharray:none;stroke-opacity:1;paint-order:normal"
           id="rect977"
           width="4.000001"
           height="1.0000004"
           x="145.53572"
           y="420.50504"
           ry="0" />
      </g>
    </g>
    <g
       transform="translate(11.356139,-22.26251)"
       id="g1183">
      <rect
         style="opacity:0;fill:#dedede;fill-opacity:1;fill-rule:evenodd;stroke:none;stroke-width:1;stroke-linecap:round;stroke-linejoin:round;stroke-miterlimit:4;stroke-dasharray:none;stroke-opacity:1;paint-order:normal"
         id="rect1177"
         width="22"
         height="22"
         x="164.53572"
         y="428.50504"
         rx="0"
         ry="0" />
      <path
         style="opacity:1;fill:#d3dae3;fill-opacity:1;fill-rule:evenodd;stroke:none;stroke-width:0.99999988;stroke-linecap:round;stroke-linejoin:round;stroke-miterlimit:4;stroke-dasharray:none;stroke-opacity:1;paint-order:normal"
         d="m 166.45174,434.50504 c -0.50784,0 -0.91602,0.44599 -0.91602,1 v 9 c 0,0.554 0.40818,1 0.91602,1 h 16.16796 c 0.50784,0 0.91602,-0.446 0.91602,-1 v -9 c 0,-0.55401 -0.40818,-1 -0.91602,-1 z m 0.63867,1 h 14.89062 c 0.3068,0 0.55469,0.24789 0.55469,0.55468 v 7.89063 c 0,0.30679 -0.24789,0.55469 -0.55469,0.55469 h -14.89062 c -0.3068,0 -0.55469,-0.2479 -0.55469,-0.55469 v -7.89063 c 0,-0.30679 0.24789,-0.55468 0.55469,-0.55468 z"
         id="path1179"
         inkscape:connector-curvature="0" />
      <path
         style="opacity:1;fill:#0bd9d2;fill-opacity:1;fill-rule:evenodd;stroke:none;stroke-width:1;stroke-linecap:round;stroke-linejoin:round;stroke-miterlimit:4;stroke-dasharray:none;stroke-opacity:1;paint-order:normal"
         d="m 184.03558,438.50504 a 1.5,1.5 0 0 0 -0.5,0.0879 v 2.82421 a 1.5,1.5 0 0 0 0.5,0.0879 1.5,1.5 0 0 0 1.5,-1.5 1.5,1.5 0 0 0 -1.5,-1.5 z"
         id="path1181"
         inkscape:connector-curvature="0" />
    </g>
    <g
       id="22-22-Unavailable"
       transform="translate(-82.64414,-20.262475)">
      <path
         style="opacity:1;fill:none;fill-opacity:1;stroke:none;stroke-width:0.1;stroke-linecap:square;stroke-linejoin:miter;stroke-miterlimit:4;stroke-dasharray:none;stroke-dashoffset:0;stroke-opacity:1"
         inkscape:connector-curvature="0"
         d="m 258.536,426.505 h 22 v 22 h -22 z"
         stroke-miterlimit="4"
         id="rect4614" />
      <g
         id="g4631">
        <path
           style="color:#eff0f1;opacity:1;fill:#ff557f;fill-opacity:1;stroke:none;stroke-width:0.166119;stroke-linecap:square;stroke-linejoin:miter;stroke-miterlimit:4;stroke-dasharray:none;stroke-dashoffset:0;stroke-opacity:1"
           inkscape:connector-curvature="0"
           stroke-miterlimit="4"
           class="ColorScheme-Background"
           id="rect4622"
           d="m 274.69195,436.26503 -0.91846,-0.91651 -1.83758,1.83353 -1.83754,-1.83353 -0.91851,0.91651 1.83759,1.83353 -1.83759,1.83322 0.91851,0.91663 1.83754,-1.83326 1.83742,1.83337 0.91853,-0.91652 -1.83736,-1.83344 z"
           sodipodi:nodetypes="ccccccccccccc" />
      </g>
    </g>
    <g
       id="g1191"
       transform="translate(-28.000001,-21.999995)">
      <rect
         ry="0"
         rx="0"
         y="428.50504"
         x="164.53572"
         height="22"
         width="22"
         id="rect1185"
         style="opacity:0;fill:#dedede;fill-opacity:1;fill-rule:evenodd;stroke:none;stroke-width:1;stroke-linecap:round;stroke-linejoin:round;stroke-miterlimit:4;stroke-dasharray:none;stroke-opacity:1;paint-order:normal" />
      <path
         inkscape:connector-curvature="0"
         id="path1187"
         d="m 166.45174,434.50504 c -0.50784,0 -0.91602,0.44599 -0.91602,1 v 9 c 0,0.554 0.40818,1 0.91602,1 h 16.16796 c 0.50784,0 0.91602,-0.446 0.91602,-1 v -9 c 0,-0.55401 -0.40818,-1 -0.91602,-1 z m 0.63867,1 h 14.89062 c 0.3068,0 0.55469,0.24789 0.55469,0.55468 v 7.89063 c 0,0.30679 -0.24789,0.55469 -0.55469,0.55469 h -14.89062 c -0.3068,0 -0.55469,-0.2479 -0.55469,-0.55469 v -7.89063 c 0,-0.30679 0.24789,-0.55468 0.55469,-0.55468 z"
         style="opacity:1;fill:#d3dae3;fill-opacity:1;fill-rule:evenodd;stroke:none;stroke-width:0.99999988;stroke-linecap:round;stroke-linejoin:round;stroke-miterlimit:4;stroke-dasharray:none;stroke-opacity:1;paint-order:normal" />
      <path
         inkscape:connector-curvature="0"
         id="path1189"
         d="m 184.03572,438.50504 a 1.5,1.5 0 0 0 -0.5,0.0879 v 2.82421 a 1.5,1.5 0 0 0 0.5,0.0879 1.5,1.5 0 0 0 1.5,-1.5 1.5,1.5 0 0 0 -1.5,-1.5 z"
         style="opacity:1;fill:#0bd9d2;fill-opacity:1;fill-rule:evenodd;stroke:none;stroke-width:1;stroke-linecap:round;stroke-linejoin:round;stroke-miterlimit:4;stroke-dasharray:none;stroke-opacity:1;paint-order:normal" />
    </g>
    <g
       transform="translate(-22.787769,26.828435)"
       id="g1199">
      <rect
         ry="0"
         rx="0"
         y="336.50504"
         x="189.44481"
         height="32"
         width="32"
         id="rect1193"
         style="opacity:0;fill:#dedede;fill-opacity:1;fill-rule:evenodd;stroke:none;stroke-width:1;stroke-linecap:round;stroke-linejoin:round;stroke-miterlimit:4;stroke-dasharray:none;stroke-opacity:1;paint-order:normal" />
      <path
         style="opacity:1;fill:#d3dae3;fill-opacity:1;fill-rule:evenodd;stroke:none;stroke-width:2;stroke-linecap:round;stroke-linejoin:round;stroke-miterlimit:4;stroke-dasharray:none;stroke-opacity:1;paint-order:normal"
         d="m 193.44481,345.50504 c -1.108,0 -2,0.89199 -2,2 v 10 c 0,1.108 0.892,2 2,2 h 22 c 1.108,0 2,-0.892 2,-2 v -10 c 0,-1.10801 -0.892,-2 -2,-2 z m 0,1 h 22 c 0.554,0 1,0.44599 1,1 v 10 c 0,0.55399 -0.446,1 -1,1 h -22 c -0.554,0 -1,-0.44601 -1,-1 v -10 c 0,-0.55401 0.446,-1 1,-1 z"
         id="path1195"
         inkscape:connector-curvature="0" />
      <path
         style="opacity:1;fill:#0bd9d2;fill-opacity:1;fill-rule:evenodd;stroke:none;stroke-width:2;stroke-linecap:round;stroke-linejoin:round;stroke-miterlimit:4;stroke-dasharray:none;stroke-opacity:1;paint-order:normal"
         d="m 217.44449,350.50504 v 4 a 2,2 0 0 0 2,-2 2,2 0 0 0 -2,-2 z"
         id="path1197"
         inkscape:connector-curvature="0" />
    </g>
    <g
       transform="translate(48.12104,-65.17153)"
       id="Unavailable">
      <path
         style="opacity:1;fill:none;fill-opacity:1;stroke:none;stroke-width:0.1;stroke-linecap:square;stroke-linejoin:miter;stroke-miterlimit:4;stroke-dasharray:none;stroke-dashoffset:0;stroke-opacity:1"
         inkscape:connector-curvature="0"
         d="m 118.536,428.505 h 32 v 32 h -32 z"
         stroke-miterlimit="4"
         id="rect4480" />
      <g
         id="g4580">
        <path
           style="color:#eff0f1;opacity:1;fill:#ff557f;fill-opacity:1;stroke:none;stroke-width:0.148494;stroke-linecap:square;stroke-linejoin:miter;stroke-miterlimit:4;stroke-dasharray:none;stroke-dashoffset:0;stroke-opacity:1"
           inkscape:connector-curvature="0"
           stroke-miterlimit="4"
           class="ColorScheme-Background"
           d="m 143.41456,441.81396 -0.93739,-0.93739 -2.81249,2.81249 -2.81249,-2.81249 -0.93751,0.93751 2.81262,2.81238 -2.81262,2.8126 0.93751,0.93751 2.81249,-2.81279 2.81249,2.81279 0.93751,-0.93751 -2.81262,-2.8126 z"
           id="rect4622-0"
           sodipodi:nodetypes="ccccccccccccc" />
      </g>
    </g>
    <g
       transform="translate(-70.909089,27.000005)"
       id="g1207">
      <rect
         ry="0"
         rx="0"
         y="336.50504"
         x="189.44481"
         height="32"
         width="32"
         id="rect1201"
         style="opacity:0;fill:#dedede;fill-opacity:1;fill-rule:evenodd;stroke:none;stroke-width:1;stroke-linecap:round;stroke-linejoin:round;stroke-miterlimit:4;stroke-dasharray:none;stroke-opacity:1;paint-order:normal" />
      <path
         style="opacity:1;fill:#d3dae3;fill-opacity:1;fill-rule:evenodd;stroke:none;stroke-width:2;stroke-linecap:round;stroke-linejoin:round;stroke-miterlimit:4;stroke-dasharray:none;stroke-opacity:1;paint-order:normal"
         d="m 193.44481,345.50504 c -1.108,0 -2,0.89199 -2,2 v 10 c 0,1.108 0.892,2 2,2 h 22 c 1.108,0 2,-0.892 2,-2 v -10 c 0,-1.10801 -0.892,-2 -2,-2 z m 0,1 h 22 c 0.554,0 1,0.44599 1,1 v 10 c 0,0.55399 -0.446,1 -1,1 h -22 c -0.554,0 -1,-0.44601 -1,-1 v -10 c 0,-0.55401 0.446,-1 1,-1 z"
         id="path1203"
         inkscape:connector-curvature="0" />
      <path
         style="opacity:1;fill:#0bd9d2;fill-opacity:1;fill-rule:evenodd;stroke:none;stroke-width:2;stroke-linecap:round;stroke-linejoin:round;stroke-miterlimit:4;stroke-dasharray:none;stroke-opacity:1;paint-order:normal"
         d="m 217.44481,350.50504 v 4 a 2,2 0 0 0 2,-2 2,2 0 0 0 -2,-2 z"
         id="path1205"
         inkscape:connector-curvature="0" />
    </g>
    <g
       transform="translate(-70.000001,27.000005)"
       id="AcAdapter">
      <rect
         ry="0"
         rx="0"
         y="336.50504"
         x="188.53572"
         height="32"
         width="32"
         id="rect947"
         style="opacity:0;fill:#dedede;fill-opacity:1;fill-rule:evenodd;stroke:none;stroke-width:1;stroke-linecap:round;stroke-linejoin:round;stroke-miterlimit:4;stroke-dasharray:none;stroke-opacity:1;paint-order:normal" />
      <path
         sodipodi:nodetypes="ccccccc"
         inkscape:connector-curvature="0"
         id="path955"
         d="m 199.89286,346.50504 -6.85714,6.85714 h 4.28574 l -2.57148,5.14286 6.85714,-6.85715 h -4.28566 z"
         style="fill:#0bd9d2;fill-opacity:1;stroke:none;stroke-width:0.85714px;stroke-linecap:butt;stroke-linejoin:miter;stroke-opacity:1" />
    </g>
    <g
       transform="translate(-47.000001,4.5996094e-6)"
       id="22-22-AcAdapter">
      <rect
         ry="0"
         rx="0"
         y="406.50504"
         x="183.53572"
         height="22"
         width="22"
         id="rect960"
         style="opacity:0;fill:#dedede;fill-opacity:1;fill-rule:evenodd;stroke:none;stroke-width:1;stroke-linecap:round;stroke-linejoin:round;stroke-miterlimit:4;stroke-dasharray:none;stroke-opacity:1;paint-order:normal" />
      <path
         style="fill:#0bd9d2;fill-opacity:1;stroke:none;stroke-width:0.818182px;stroke-linecap:butt;stroke-linejoin:miter;stroke-opacity:1"
         d="m 191.44477,413.50504 -4.90905,5.32305 h 3.2728 l -1.61725,3.67695 4.88987,-5.31331 h -3.27262 z"
         id="path968"
         inkscape:connector-curvature="0"
         sodipodi:nodetypes="ccccccc" />
    </g>
  </g>
</svg>
