<?xml version="1.0" encoding="UTF-8" standalone="no"?>
<svg
   width="32"
   height="32"
   version="1.1"
   id="svg12"
   sodipodi:docname="choqok.svg"
   inkscape:version="1.1.2 (0a00cf5339, 2022-02-04)"
   xmlns:inkscape="http://www.inkscape.org/namespaces/inkscape"
   xmlns:sodipodi="http://sodipodi.sourceforge.net/DTD/sodipodi-0.dtd"
   xmlns="http://www.w3.org/2000/svg"
   xmlns:svg="http://www.w3.org/2000/svg"
   xmlns:rdf="http://www.w3.org/1999/02/22-rdf-syntax-ns#"
   xmlns:cc="http://creativecommons.org/ns#"
   xmlns:dc="http://purl.org/dc/elements/1.1/">
  <metadata
     id="metadata18">
    <rdf:RDF>
      <cc:Work
         rdf:about="">
        <dc:format>image/svg+xml</dc:format>
        <dc:type
           rdf:resource="http://purl.org/dc/dcmitype/StillImage" />
      </cc:Work>
    </rdf:RDF>
  </metadata>
  <defs
     id="defs16" />
  <sodipodi:namedview
     pagecolor="#ffffff"
     bordercolor="#666666"
     borderopacity="1"
     objecttolerance="10"
     gridtolerance="10"
     guidetolerance="10"
     inkscape:pageopacity="0"
     inkscape:pageshadow="2"
     inkscape:window-width="1920"
     inkscape:window-height="1009"
     id="namedview14"
     showgrid="false"
     inkscape:zoom="9.8125"
     inkscape:cx="23.490446"
     inkscape:cy="14.77707"
     inkscape:window-x="0"
     inkscape:window-y="0"
     inkscape:window-maximized="1"
     inkscape:current-layer="svg12"
     inkscape:document-rotation="0"
     inkscape:lockguides="true"
     inkscape:pagecheckerboard="0">
    <inkscape:grid
       type="xygrid"
       id="grid941"
       originx="0"
       originy="0" />
  </sodipodi:namedview>
  <g
     id="choqok"
     transform="translate(32,10)">
    <rect
       style="opacity:0.00100002"
       width="32"
       height="32"
       x="-32"
       y="-10"
       id="rect7" />
    <path
       fill="none"
       stroke-width="1.00346"
       stroke-linecap="round"
       stroke-linejoin="round"
       stroke-miterlimit="10"
       d="M -2.5017258,-3.8585528 V 9.8610327 c 0,0.9054023 -0.8322152,1.6393643 -1.8588012,1.6393643 h -12.900504 l -6.894285,5.597936 v -5.597936 h -3.484149 c -1.026588,0 -1.858805,-0.733962 -1.858805,-1.6393643 V -3.8588968 c 0,-0.9054004 0.832217,-1.6393883 1.858805,-1.6393732 l 23.278938,3.439e-4 c 1.026586,1.52e-5 1.8588012,0.7339728 1.8588012,1.6393733 z"
       id="path2"
       style="stroke:#d3dae3;stroke-opacity:1"
       sodipodi:nodetypes="ssscccssssss" />
    <path
       d="m -23.000001,-2.4736685 c -1.141634,0 -1.973668,0.8298868 -1.973668,1.9736686 0,1.1437818 0.832034,1.9736684 1.973668,1.9736684 1.141634,0 1.973668,-0.8298866 1.973668,-1.9736684 0,-1.1437818 -0.832034,-1.9736686 -1.973668,-1.9736686 z"
       id="path6"
       style="fill:#d3dae3;fill-opacity:1;stroke:#d3dae3;stroke-width:0.052663;stroke-opacity:1" />
    <path
       d="M -8.4999998,-2.5 C -9.656866,-2.5 -10.5,-1.6590414 -10.5,-0.5 c 0,1.1590412 0.843134,2 2.0000002,2 C -7.3431368,1.5 -6.5,0.6590412 -6.5,-0.5 c 0,-1.1590414 -0.8431368,-2 -1.9999998,-2 z"
       id="path8"
       style="fill:#d3dae3;fill-opacity:1;stroke-width:0.0533656" />
    <path
       d="m -11.763511,3.8111112 h -0.38382 c -0.102512,-0.9774322 -0.615067,-1.9548644 -1.466148,-2.7821058 -0.73665,-0.71519434 -1.644946,-1.23251822 -2.164654,-1.23251822 -0.519708,0 -1.428004,0.51970786 -2.164654,1.23251822 -0.853465,0.8272414 -1.363636,1.8046736 -1.466148,2.7821058 h -0.38382 c -0.202639,0 -0.364749,0.1644947 -0.364749,0.3647491 0,0.2002544 0.164494,0.3647491 0.364749,0.3647491 h 0.798633 c 0.545931,2.1908785 2.541323,2.1908785 3.215989,2.1908785 0.674666,0 2.670058,0 3.215989,-2.1908785 h 0.798633 c 0.202639,0 0.364749,-0.1644947 0.364749,-0.3647491 0,-0.2002544 -0.16211,-0.3647491 -0.364749,-0.3647491 z m -6.913542,0 h 1.070407 3.652258 v 0 0 c 0,0 -1.189606,0.3099175 -1.451844,0.5340117 -0.169263,0.1454229 -0.23363,0.1954865 -0.374285,0.1954865 -0.140655,0 -0.205022,-0.050064 -0.374285,-0.1954865 -0.262238,-0.2264782 -0.622219,-0.5340117 -1.451844,-0.5340117 z m 2.89892,2.1908785 c -1.001272,0 -2.057375,-0.1835665 -2.457883,-1.4613803 h 0.634138 c 0.560236,0 0.762874,0.1740306 0.975048,0.3575971 0.193103,0.1668787 0.431501,0.3719011 0.848697,0.3719011 0.417197,0 0.655595,-0.2074064 0.848697,-0.3719011 0.214558,-0.1835665 0.417196,-0.3575971 0.975048,-0.3575971 h 0.634138 c -0.400508,1.2778138 -1.456611,1.4613803 -2.457883,1.4613803 z"
       id="path10"
       style="fill:#d3dae3;fill-opacity:1;stroke-width:0.0238398"
       sodipodi:nodetypes="sccsccssscscsssccccscscsccscscscscs" />
  </g>
  <g
     id="22-22-choqok"
     transform="translate(32,10)">
    <rect
       style="opacity:0.00100002"
       width="22"
       height="22"
       x="0"
       y="0"
       id="rect2" />
    <path
       fill="none"
       stroke-width="1"
       stroke-linecap="round"
       stroke-linejoin="round"
       stroke-miterlimit="10"
       d="M 19.508181,4.5812782 V 13.399 c 0,0.60169 -0.524572,1.101 -1.171642,1.101 h -8.13139 L 5.8595694,18.50824 V 14.5 H 3.663449 C 3.0163774,14.5 2.4918187,14.00069 2.4918187,13.399 V 4.5812782 c 0,-0.601686 0.5245587,-1.0894595 1.1716303,-1.0894595 h 14.67309 c 0.64707,0 1.171642,0.4877735 1.171642,1.0894595 z"
       id="path2-6"
       style="stroke:#d3dae3;stroke-opacity:1"
       sodipodi:nodetypes="ssscccssssss" />
    <path
       d="M 5.9999998,5.4 C 5.1323524,5.4 4.5,6.0307194 4.5,6.8999998 4.5,7.7692801 5.1323524,8.4 5.9999998,8.4 c 0.8676476,0 1.5,-0.6307199 1.5,-1.5000002 C 7.4999998,6.0307194 6.8676474,5.4 5.9999998,5.4 Z"
       id="path6-3"
       style="fill:#d3dae3;fill-opacity:1;stroke-width:0.0400236" />
    <path
       d="M 15.999999,5.5 C 15.132344,5.5 14.5,6.1307194 14.5,6.9999998 14.5,7.8692801 15.132344,8.5 15.999999,8.5 16.867656,8.5 17.5,7.8692801 17.5,6.9999998 17.5,6.1307194 16.867656,5.5 15.999999,5.5 Z"
       id="path8-5"
       style="fill:#d3dae3;fill-opacity:1;stroke-width:0.0400236" />
    <path
       d="m 13.724316,9.5407292 h -0.25588 C 13.400095,8.8891084 13.058391,8.2374876 12.491004,7.6859939 11.999905,7.2091982 11.394374,6.864316 11.047903,6.864316 c -0.346472,0 -0.952002,0.3464715 -1.443102,0.8216779 C 9.0358248,8.2374876 8.6957106,8.8891084 8.6273699,9.5407292 H 8.3714895 c -0.1350921,0 -0.2431658,0.109663 -0.2431658,0.2431658 0,0.1335028 0.109663,0.243166 0.2431658,0.243166 h 0.5324219 c 0.363954,1.460584 1.6942136,1.460584 2.1439916,1.460584 0.449777,0 1.780037,0 2.143991,-1.460584 h 0.532422 c 0.135092,0 0.243166,-0.1096632 0.243166,-0.243166 0,-0.1335028 -0.108074,-0.2431658 -0.243166,-0.2431658 z m -4.6090252,0 h 0.7136042 2.434837 0.713604 -0.713604 c -0.553083,0 -0.79307,0.2066114 -0.967896,0.3560074 -0.112841,0.096948 -0.155753,0.1303244 -0.249523,0.1303244 -0.09377,0 -0.136681,-0.033376 -0.249523,-0.1303244 C 10.621965,9.7457513 10.381978,9.5407292 9.828895,9.5407292 Z m 1.9326122,1.4605838 c -0.667514,0 -1.3715826,-0.122377 -1.6385882,-0.974252 h 0.4227589 c 0.3734903,0 0.5085823,0.11602 0.6500313,0.238398 0.128735,0.111252 0.287667,0.247933 0.565798,0.247933 0.278131,0 0.437062,-0.13827 0.565797,-0.247933 0.143039,-0.122378 0.278131,-0.238398 0.650032,-0.238398 h 0.422759 c -0.267006,0.851875 -0.971074,0.974252 -1.638588,0.974252 z"
       id="path10-6"
       style="fill:#d3dae3;fill-opacity:1;stroke-width:0.0158932"
       sodipodi:nodetypes="sccsccssscscsssccccscscsccscscscscs" />
  </g>
</svg>
