<?xml version="1.0" encoding="UTF-8" standalone="no"?>
<svg
   width="32"
   height="32"
   version="1.1"
   id="svg12"
   sodipodi:docname="choqok_offline.svg"
   inkscape:version="1.1.2 (0a00cf5339, 2022-02-04)"
   xmlns:inkscape="http://www.inkscape.org/namespaces/inkscape"
   xmlns:sodipodi="http://sodipodi.sourceforge.net/DTD/sodipodi-0.dtd"
   xmlns="http://www.w3.org/2000/svg"
   xmlns:svg="http://www.w3.org/2000/svg"
   xmlns:rdf="http://www.w3.org/1999/02/22-rdf-syntax-ns#"
   xmlns:cc="http://creativecommons.org/ns#"
   xmlns:dc="http://purl.org/dc/elements/1.1/">
  <metadata
     id="metadata18">
    <rdf:RDF>
      <cc:Work
         rdf:about="">
        <dc:format>image/svg+xml</dc:format>
        <dc:type
           rdf:resource="http://purl.org/dc/dcmitype/StillImage" />
      </cc:Work>
    </rdf:RDF>
  </metadata>
  <defs
     id="defs16" />
  <sodipodi:namedview
     pagecolor="#ffffff"
     bordercolor="#000000"
     borderopacity="1"
     objecttolerance="10"
     gridtolerance="10"
     guidetolerance="10"
     inkscape:pageopacity="0"
     inkscape:pageshadow="2"
     inkscape:window-width="1920"
     inkscape:window-height="1009"
     id="namedview14"
     showgrid="false"
     inkscape:zoom="9.8125"
     inkscape:cx="24.509554"
     inkscape:cy="18.496815"
     inkscape:window-x="0"
     inkscape:window-y="0"
     inkscape:window-maximized="1"
     inkscape:current-layer="svg12"
     inkscape:document-rotation="0"
     inkscape:pagecheckerboard="0"
     inkscape:showpageshadow="false"
     inkscape:lockguides="true">
    <inkscape:grid
       type="xygrid"
       id="grid928" />
  </sodipodi:namedview>
  <g
     id="choqok_offline">
    <rect
       style="opacity:0.00100002"
       width="32"
       height="32"
       x="0"
       y="0"
       id="rect7-3" />
    <path
       fill="none"
       stroke-width="1.00346"
       stroke-linecap="round"
       stroke-linejoin="round"
       stroke-miterlimit="10"
       d="M 29.498274,6.1414472 V 19.861033 c 0,0.905402 -0.832215,1.639364 -1.858801,1.639364 H 14.738969 L 7.844684,27.098333 V 21.500397 H 4.360535 c -1.026588,0 -1.858805,-0.733962 -1.858805,-1.639364 V 6.1411032 c 0,-0.9054004 0.832217,-1.6393883 1.858805,-1.6393732 l 23.278938,3.439e-4 c 1.026586,1.52e-5 1.858801,0.7339728 1.858801,1.6393733 z"
       id="path2-67"
       style="stroke:#ff557f;stroke-opacity:1"
       sodipodi:nodetypes="ssscccssssss" />
    <path
       d="m 8.499998,8.0263317 c -1.1416349,0 -1.9736663,0.8298843 -1.9736663,1.9736713 0,1.143782 0.8320314,1.973666 1.9736663,1.973666 1.141632,0 1.973664,-0.829884 1.973664,-1.973666 0,-1.143787 -0.832032,-1.9736713 -1.973664,-1.9736713 z"
       id="path6-5"
       style="fill:#ff557f;fill-opacity:1;stroke:#d3dae3;stroke-width:0.0526634;stroke-opacity:1" />
    <path
       d="m 23.5,8 c -1.156873,0 -2,0.84096 -2,2 0,1.159041 0.843127,2 2,2 1.156872,0 2,-0.840959 2,-2 0,-1.15904 -0.843128,-2 -2,-2 z"
       id="path8-3"
       style="fill:#ff557f;fill-opacity:1;stroke-width:0.0533648" />
    <path
       d="m 20.236489,13.811111 h -0.38382 c -0.102512,-0.977432 -0.615067,-1.954864 -1.466148,-2.782106 -0.73665,-0.715194 -1.644946,-1.2325178 -2.164654,-1.2325178 -0.519708,0 -1.428004,0.5197078 -2.164654,1.2325178 -0.853465,0.827242 -1.363636,1.804674 -1.466148,2.782106 h -0.38382 c -0.202639,0 -0.364749,0.164495 -0.364749,0.364749 0,0.200255 0.164494,0.364749 0.364749,0.364749 h 0.798633 c 0.545931,2.190879 2.541323,2.190879 3.215989,2.190879 0.674666,0 2.670058,0 3.215989,-2.190879 h 0.798633 c 0.202639,0 0.364749,-0.164494 0.364749,-0.364749 0,-0.200254 -0.16211,-0.364749 -0.364749,-0.364749 z m -6.913542,0 h 1.070407 3.652258 1.070407 -1.070407 c -0.829625,0 -1.189606,0.309918 -1.451844,0.534012 -0.169263,0.145423 -0.23363,0.195486 -0.374285,0.195486 -0.140655,0 -0.205022,-0.05006 -0.374285,-0.195486 -0.262238,-0.226478 -0.622219,-0.534012 -1.451844,-0.534012 z m 2.89892,2.190879 c -1.001272,0 -2.057375,-0.183567 -2.457883,-1.461381 h 0.634138 c 0.560236,0 0.762874,0.174031 0.975048,0.357598 0.193103,0.166878 0.431501,0.371901 0.848697,0.371901 0.417197,0 0.655595,-0.207407 0.848697,-0.371901 0.214558,-0.183567 0.417196,-0.357598 0.975048,-0.357598 h 0.634138 c -0.400508,1.277814 -1.456611,1.461381 -2.457883,1.461381 z"
       id="path10-5"
       style="fill:#ff557f;fill-opacity:1;stroke-width:0.0238398"
       sodipodi:nodetypes="sccsccssscscsssccccscscsccscscscscs" />
  </g>
  <g
     id="22-22-choqok_offline">
    <rect
       style="opacity:0.00100002"
       width="22"
       height="22"
       x="32"
       y="10"
       id="rect2-6" />
    <path
       fill="none"
       stroke-width="1"
       stroke-linecap="round"
       stroke-linejoin="round"
       stroke-miterlimit="10"
       d="M 51.508181,14.581278 V 23.399 c 0,0.60169 -0.524572,1.101 -1.171642,1.101 h -8.13139 l -4.34558,4.00824 V 24.5 h -2.19612 c -0.647072,0 -1.17163,-0.49931 -1.17163,-1.101 v -8.817722 c 0,-0.601686 0.524558,-1.089459 1.17163,-1.089459 h 14.67309 c 0.64707,0 1.171642,0.487773 1.171642,1.089459 z"
       id="path2-6-2"
       style="stroke:#ff557f;stroke-opacity:1"
       sodipodi:nodetypes="ssscccssssss" />
    <path
       d="m 38.5,15.5 c -0.867654,0 -1.5,0.630719 -1.5,1.5 0,0.86928 0.632346,1.5 1.5,1.5 0.867654,0 1.5,-0.63072 1.5,-1.5 0,-0.869281 -0.632346,-1.5 -1.5,-1.5 z"
       id="path6-3-9"
       style="fill:#ff557f;fill-opacity:1;stroke-width:0.0400236" />
    <path
       d="M 47.599999,15.5 C 46.732344,15.5 46.1,16.130719 46.1,17 c 0,0.86928 0.632344,1.5 1.499999,1.5 C 48.467656,18.5 49.1,17.86928 49.1,17 c 0,-0.869281 -0.632344,-1.5 -1.500001,-1.5 z"
       id="path8-5-1"
       style="fill:#ff557f;fill-opacity:1;stroke-width:0.0400236" />
    <path
       d="m 45.724316,19.540729 h -0.25588 c -0.06834,-0.651621 -0.410045,-1.303241 -0.977432,-1.854735 -0.491099,-0.476796 -1.09663,-0.821678 -1.443101,-0.821678 -0.346472,0 -0.952002,0.346471 -1.443102,0.821678 -0.568976,0.551494 -0.90909,1.203114 -0.977431,1.854735 h -0.255881 c -0.135092,0 -0.243165,0.109663 -0.243165,0.243166 0,0.133503 0.109663,0.243166 0.243165,0.243166 h 0.532422 c 0.363954,1.460584 1.694214,1.460584 2.143992,1.460584 0.449777,0 1.780037,0 2.143991,-1.460584 h 0.532422 c 0.135092,0 0.243166,-0.109663 0.243166,-0.243166 0,-0.133503 -0.108074,-0.243166 -0.243166,-0.243166 z m -4.609025,0 v 0 l 3.205363,0.150664 0.656682,-0.150664 -1.012993,-0.0024 v 0 0 0 0 z m 1.932612,1.460584 c -0.667514,0 -1.371583,-0.122377 -1.638588,-0.974252 h 0.422759 c 0.37349,0 0.508582,0.11602 0.650031,0.238398 0.128735,0.111252 0.287667,0.247933 0.565798,0.247933 0.278131,0 0.437062,-0.13827 0.565797,-0.247933 0.143039,-0.122378 0.278131,-0.238398 0.650032,-0.238398 h 0.422759 c -0.267006,0.851875 -0.971074,0.974252 -1.638588,0.974252 z"
       id="path10-6-2"
       style="fill:#ff557f;fill-opacity:1;stroke-width:0.0158932"
       sodipodi:nodetypes="sccsccssscscssscccccccccccscscscscs" />
  </g>
</svg>
