<?xml version="1.0" encoding="UTF-8" standalone="no"?>
<svg
   xmlns:dc="http://purl.org/dc/elements/1.1/"
   xmlns:cc="http://creativecommons.org/ns#"
   xmlns:rdf="http://www.w3.org/1999/02/22-rdf-syntax-ns#"
   xmlns:svg="http://www.w3.org/2000/svg"
   xmlns="http://www.w3.org/2000/svg"
   xmlns:sodipodi="http://sodipodi.sourceforge.net/DTD/sodipodi-0.dtd"
   xmlns:inkscape="http://www.inkscape.org/namespaces/inkscape"
   viewBox="0 0 22 22"
   sodipodi:docname="input.svg"
   inkscape:version="1.0.1 (3bc2e813f5, 2020-09-07)"
   version="1.1"
   id="svg3869"
   height="22"
   width="22">
  <defs
     id="defs3871">
    <style
       id="current-color-scheme"
       type="text/css" />
  </defs>
  <sodipodi:namedview
     inkscape:document-rotation="0"
     borderlayer="false"
     inkscape:lockguides="true"
     showguides="false"
     inkscape:showpageshadow="true"
     inkscape:window-maximized="1"
     inkscape:window-y="0"
     inkscape:window-x="0"
     inkscape:window-height="1009"
     inkscape:window-width="1920"
     fit-margin-bottom="0"
     fit-margin-right="0"
     fit-margin-left="0"
     fit-margin-top="0"
     showgrid="false"
     inkscape:current-layer="layer1"
     inkscape:document-units="px"
     inkscape:cy="13.68665"
     inkscape:cx="71.455578"
     inkscape:zoom="3.3783993"
     inkscape:pageshadow="2"
     inkscape:pageopacity="0.0"
     borderopacity="1"
     bordercolor="#000000"
     pagecolor="#ffffff"
     id="base">
    <inkscape:grid
       id="grid4132"
       type="xygrid" />
    <sodipodi:guide
       inkscape:locked="true"
       id="guide4138"
       orientation="18,0"
       position="2,20.000017" />
    <sodipodi:guide
       inkscape:locked="true"
       id="guide4140"
       orientation="7.25e-07,1"
       position="2,2.0000174" />
    <sodipodi:guide
       inkscape:locked="true"
       id="guide4142"
       orientation="-18,0"
       position="20,2.0000174" />
    <sodipodi:guide
       inkscape:locked="true"
       id="guide4144"
       orientation="0,-18"
       position="20,20.000017" />
    <sodipodi:guide
       inkscape:locked="true"
       id="guide4146"
       orientation="16,0"
       position="3,19.000017" />
    <sodipodi:guide
       inkscape:locked="true"
       id="guide4148"
       orientation="0,16"
       position="3,3.0000174" />
    <sodipodi:guide
       inkscape:locked="true"
       id="guide4150"
       orientation="-16,0"
       position="19,3.0000174" />
    <sodipodi:guide
       inkscape:locked="true"
       id="guide4152"
       orientation="0,-16"
       position="19,19.000017" />
  </sodipodi:namedview>
  <metadata
     id="metadata3874">
    <rdf:RDF>
      <cc:Work
         rdf:about="">
        <dc:format>image/svg+xml</dc:format>
        <dc:type
           rdf:resource="http://purl.org/dc/dcmitype/StillImage" />
        <dc:title />
      </cc:Work>
    </rdf:RDF>
  </metadata>
  <g
     transform="translate(-326,-534.3622)"
     id="layer1"
     inkscape:groupmode="layer"
     inkscape:label="Capa 1">
    <g
       id="input-mouse-battery">
      <rect
         style="opacity:1;fill:none;fill-opacity:1;stroke:none;stroke-width:3.56737px;stroke-linecap:butt;stroke-linejoin:miter;stroke-miterlimit:4;stroke-dasharray:none;stroke-dashoffset:0;stroke-opacity:1"
         id="rect4191"
         width="22"
         height="22"
         x="326"
         y="534.36218"
         ry="0" />
      <path
         class="ColorScheme-Text"
         inkscape:connector-curvature="0"
         style="opacity:1;fill:#08a19d;fill-opacity:1;stroke:none;stroke-width:3.56737px;stroke-linecap:butt;stroke-linejoin:miter;stroke-miterlimit:4;stroke-dasharray:none;stroke-dashoffset:0;stroke-opacity:1"
         d="m 337.8,537.3622 c -3.047,0 -5.5,2.676 -5.5,6 v 4 c 0,3.324 2.453,6 5.5,6 3.047,0 5.5,-2.676 5.5,-6 v -4 c 0,-3.324 -2.453,-6 -5.5,-6 z m 0,1 c 2.493,0 4.5,2.007 4.5,4.5 v 5 c 0,2.493 -2.007,4.5 -4.5,4.5 -2.493,0 -4.5,-2.007 -4.5,-4.5 v -5 c 0,-2.493 2.007,-4.5 4.5,-4.5 z m 0,2 c -0.277,0 -0.5,0.223 -0.5,0.5 v 2 c 0,0.277 0.223,0.5 0.5,0.5 0.277,0 0.5,-0.223 0.5,-0.5 v -2 c 0,-0.277 -0.223,-0.5 -0.5,-0.5 z"
         id="rect4154" />
      <path
         class="ColorScheme-Text"
         style="color:#31363b;opacity:1;fill:#0069cc;fill-opacity:1;stroke:none;stroke-width:0.1;stroke-linecap:square;stroke-linejoin:miter;stroke-miterlimit:4;stroke-dasharray:none;stroke-dashoffset:0;stroke-opacity:1"
         d="m 337.8,544.4622 -2,5 h 2 v 3 l 2,-5 h -2 z"
         id="path4176"
         inkscape:connector-curvature="0"
         sodipodi:nodetypes="ccccccc" />
    </g>
    <g
       id="input-keyboard-battery">
      <rect
         style="opacity:1;fill:none;fill-opacity:1;stroke:none;stroke-width:5.1889px;stroke-linecap:butt;stroke-linejoin:miter;stroke-miterlimit:4;stroke-dasharray:none;stroke-dashoffset:0;stroke-opacity:1"
         id="rect4378"
         width="32"
         height="32"
         x="370"
         y="556.36237"
         ry="0" />
      <path
         class="ColorScheme-Text"
         inkscape:connector-curvature="0"
         style="opacity:1;fill:#08a19d;fill-opacity:1;stroke:none;stroke-width:3.56737px;stroke-linecap:butt;stroke-linejoin:miter;stroke-miterlimit:4;stroke-dasharray:none;stroke-dashoffset:0;stroke-opacity:1"
         d="m 50,26 v 20 l 10,4 10,-4 V 35 h -1 v 8 H 51 V 27 h 14 v -1 z m 18,0 -2,5 h 2 v 3 l 2,-5 H 68 Z M 59.166016,30 55,40 h 1.556641 l 0.99414,-2.564453 h 4.919922 L 63.464844,40 H 65 L 60.839844,30 Z M 60,31.332031 62.009766,36.308594 H 57.998047 Z M 51,44 h 18 v 1 H 51 Z"
         transform="translate(326,534.3622)"
         id="rect4223" />
    </g>
    <g
       id="input-keyboard-brightness">
      <rect
         ry="0"
         y="556.36237"
         x="402"
         height="32"
         width="32"
         id="rect4266"
         style="opacity:1;fill:none;fill-opacity:1;stroke:none;stroke-width:5.1889px;stroke-linecap:butt;stroke-linejoin:miter;stroke-miterlimit:4;stroke-dasharray:none;stroke-dashoffset:0;stroke-opacity:1" />
      <path
         class="ColorScheme-Text"
         id="path4270"
         d="m 408,560.3622 v 20 l 10,4 10,-4 v -10 h -1 v 7 h -18 v -16 h 12 v -1 z m 9.16602,4 -4.16602,10 h 1.55664 l 0.99414,-2.56445 h 4.91992 l 0.99414,2.56445 H 423 l -4.16016,-10 z m 0.83398,1.33203 2.00977,4.97656 h -4.01172 z m -9,12.66797 h 18 v 1 h -18 z"
         style="opacity:1;fill:#08a19d;fill-opacity:1;stroke:none;stroke-width:3.56737px;stroke-linecap:butt;stroke-linejoin:miter;stroke-miterlimit:4;stroke-dasharray:none;stroke-dashoffset:0;stroke-opacity:1"
         inkscape:connector-curvature="0"
         sodipodi:nodetypes="cccccccccccccccccccccccccccccc" />
      <path
         class="ColorScheme-Text"
         inkscape:connector-curvature="0"
         style="opacity:1;fill:#0069cc;fill-opacity:1;stroke:none;stroke-width:3.56737px;stroke-linecap:butt;stroke-linejoin:miter;stroke-miterlimit:4;stroke-dasharray:none;stroke-dashoffset:0;stroke-opacity:1"
         d="m 100,25 c -0.277,0 -0.5,0.223 -0.5,0.5 v 1 c 0,0.277 0.223,0.5 0.5,0.5 0.277,0 0.5,-0.223 0.5,-0.5 v -1 c 0,-0.277 -0.223,-0.5 -0.5,-0.5 z m -3.181641,1.318359 c -0.127809,0 -0.255581,0.04855 -0.353515,0.146485 -0.195869,0.195868 -0.195869,0.511162 0,0.707031 l 0.707031,0.707031 c 0.195869,0.195869 0.511163,0.195869 0.707031,0 0.195869,-0.195868 0.195869,-0.511162 0,-0.707031 l -0.707031,-0.707031 c -0.09793,-0.09793 -0.225706,-0.146485 -0.353516,-0.146485 z m 6.363281,0 c -0.12781,0 -0.25558,0.04855 -0.35352,0.146485 l -0.70703,0.707031 c -0.19586,0.195869 -0.19586,0.511163 0,0.707031 0.19587,0.195869 0.51117,0.195869 0.70703,0 l 0.70704,-0.707031 c 0.19586,-0.195869 0.19586,-0.511163 0,-0.707031 -0.0979,-0.09793 -0.22571,-0.146485 -0.35352,-0.146485 z M 100,28 c -1.104569,0 -2,0.895431 -2,2 0,1.104569 0.895431,2 2,2 1.10457,0 2,-0.895431 2,-2 0,-1.104569 -0.89543,-2 -2,-2 z m 0,1 v 2 c -0.552285,0 -1,-0.447715 -1,-1 0,-0.552285 0.447715,-1 1,-1 z m -4.5,0.5 c -0.277,0 -0.5,0.223 -0.5,0.5 0,0.277 0.223,0.5 0.5,0.5 h 1 c 0.277,0 0.5,-0.223 0.5,-0.5 0,-0.277 -0.223,-0.5 -0.5,-0.5 z m 8,0 c -0.277,0 -0.5,0.223 -0.5,0.5 0,0.277 0.223,0.5 0.5,0.5 h 1 c 0.277,0 0.5,-0.223 0.5,-0.5 0,-0.277 -0.223,-0.5 -0.5,-0.5 z m -5.974609,2.474609 c -0.12781,0 -0.255582,0.04855 -0.353516,0.146485 l -0.707031,0.707031 c -0.195869,0.195869 -0.195869,0.511163 0,0.707031 0.195868,0.195869 0.511162,0.195869 0.707031,0 l 0.707031,-0.707031 c 0.195869,-0.195869 0.195869,-0.511163 0,-0.707031 -0.09793,-0.09793 -0.225706,-0.146485 -0.353515,-0.146485 z m 4.949219,0 c -0.12781,0 -0.25558,0.04855 -0.35352,0.146485 -0.19586,0.195868 -0.19586,0.511162 0,0.707031 l 0.70703,0.707031 c 0.19587,0.195869 0.51117,0.195869 0.70704,0 0.19586,-0.195868 0.19586,-0.511162 0,-0.707031 l -0.70704,-0.707031 c -0.0979,-0.09793 -0.2257,-0.146485 -0.35351,-0.146485 z M 100,33 c -0.277,0 -0.5,0.223 -0.5,0.5 v 1 c 0,0.277 0.223,0.5 0.5,0.5 0.277,0 0.5,-0.223 0.5,-0.5 v -1 c 0,-0.277 -0.223,-0.5 -0.5,-0.5 z"
         transform="translate(326,534.3622)"
         id="path4274" />
    </g>
    <g
       id="22-22-input-keyboard-battery">
      <rect
         style="opacity:1;fill:none;fill-opacity:1;stroke:none;stroke-width:3.56737px;stroke-linecap:butt;stroke-linejoin:miter;stroke-miterlimit:4;stroke-dasharray:none;stroke-dashoffset:0;stroke-opacity:1"
         id="rect4393"
         width="22"
         height="22"
         x="348"
         y="534.36218"
         ry="0" />
      <path
         class="ColorScheme-Text"
         inkscape:connector-curvature="0"
         style="opacity:1;fill:#08a19d;fill-opacity:1;stroke:none;stroke-width:3.56737px;stroke-linecap:butt;stroke-linejoin:miter;stroke-miterlimit:4;stroke-dasharray:none;stroke-dashoffset:0;stroke-opacity:1"
         d="m 26,3 v 14 l 7,2 7,-2 v -5 h -1 v 2 H 27 V 4 h 8 V 3 Z m 12,0 -2,5 h 2 v 3 L 40,6 H 38 Z M 32.5,6 30,12 h 0.933594 l 0.597656,-1.539062 h 2.951172 L 35.078125,12 H 36 L 33.503906,6 Z M 33,6.7988281 34.207031,9.7851562 H 31.798828 Z M 27,15 h 12 v 1 H 27 Z"
         transform="translate(326,534.3622)"
         id="rect4317" />
    </g>
    <g
       id="22-22-input-keyboard-brightness">
      <rect
         ry="0"
         y="534.36218"
         x="370"
         height="22"
         width="22"
         id="rect4313"
         style="opacity:1;fill:none;fill-opacity:1;stroke:none;stroke-width:3.56737px;stroke-linecap:butt;stroke-linejoin:miter;stroke-miterlimit:4;stroke-dasharray:none;stroke-dashoffset:0;stroke-opacity:1" />
      <path
         class="ColorScheme-Text"
         inkscape:connector-curvature="0"
         style="opacity:1;fill:#08a19d;fill-opacity:1;stroke:none;stroke-width:3.56737px;stroke-linecap:butt;stroke-linejoin:miter;stroke-miterlimit:4;stroke-dasharray:none;stroke-dashoffset:0;stroke-opacity:1"
         d="m 48,3 v 14 l 7,2 7,-2 v -5 h -1 v 2 H 49 V 4 h 8 V 3 Z m 12,0 c -1.10457,0 -2,0.89543 -2,2 0,1.10457 0.89543,2 2,2 1.10457,0 2,-0.89543 2,-2 0,-1.10457 -0.89543,-2 -2,-2 z m 0,1 V 6 C 59.44772,6 59,5.55229 59,5 59,4.44772 59.44772,4 60,4 Z M 54.5,6 52,12 h 0.933594 l 0.597656,-1.539062 h 2.951172 L 57.078125,12 H 58 L 55.503906,6 Z M 55,6.7988281 56.207031,9.7851562 H 53.798828 Z M 49,15 h 12 v 1 H 49 Z"
         transform="translate(326,534.3622)"
         id="path4344" />
    </g>
  </g>
</svg>
