<?xml version="1.0" encoding="UTF-8" standalone="no"?>
<svg
   width="32"
   height="32"
   version="1.1"
   id="svg12"
   sodipodi:docname="kget.svg"
   inkscape:version="1.2 (dc2aedaf03, 2022-05-15)"
   xmlns:inkscape="http://www.inkscape.org/namespaces/inkscape"
   xmlns:sodipodi="http://sodipodi.sourceforge.net/DTD/sodipodi-0.dtd"
   xmlns="http://www.w3.org/2000/svg"
   xmlns:svg="http://www.w3.org/2000/svg"
   xmlns:rdf="http://www.w3.org/1999/02/22-rdf-syntax-ns#"
   xmlns:cc="http://creativecommons.org/ns#"
   xmlns:dc="http://purl.org/dc/elements/1.1/">
  <metadata
     id="metadata18">
    <rdf:RDF>
      <cc:Work
         rdf:about="">
        <dc:format>image/svg+xml</dc:format>
        <dc:type
           rdf:resource="http://purl.org/dc/dcmitype/StillImage" />
      </cc:Work>
    </rdf:RDF>
  </metadata>
  <defs
     id="defs16" />
  <sodipodi:namedview
     pagecolor="#ffffff"
     bordercolor="#666666"
     borderopacity="1"
     objecttolerance="10"
     gridtolerance="10"
     guidetolerance="10"
     inkscape:pageopacity="0"
     inkscape:pageshadow="2"
     inkscape:window-width="1920"
     inkscape:window-height="1002"
     id="namedview14"
     showgrid="false"
     inkscape:zoom="9.8125"
     inkscape:cx="30.726115"
     inkscape:cy="23.43949"
     inkscape:window-x="0"
     inkscape:window-y="0"
     inkscape:window-maximized="1"
     inkscape:current-layer="svg12"
     inkscape:document-rotation="0"
     inkscape:showpageshadow="2"
     inkscape:pagecheckerboard="0"
     inkscape:deskcolor="#d1d1d1"
     inkscape:lockguides="false">
    <inkscape:grid
       type="xygrid"
       id="grid849"
       originx="0"
       originy="0" />
  </sodipodi:namedview>
  <g
     id="kget">
    <rect
       style="opacity:0.00100002"
       width="32"
       height="32"
       x="0"
       y="0"
       id="rect7" />
    <path
       d="m 19.261582,14.538268 h 3.503853 a 0.2345534,0.21986922 0 0 1 0.184031,0.356202 l -6.765507,8.022012 a 0.2345534,0.21986922 0 0 1 -0.368013,0 L 9.0505346,14.89447 a 0.2345534,0.21986922 0 0 1 0.1839409,-0.356202 h 3.5038515 a 0.2345534,0.21986922 0 0 0 0.234557,-0.219883 V 4.2198864 a 0.2345534,0.21986922 0 0 1 0.234457,-0.2198833 h 5.585184 a 0.2345534,0.21986922 0 0 1 0.234463,0.2198833 V 14.318385 a 0.2345534,0.21986922 0 0 0 0.234594,0.219883 z"
       stroke="none"
       id="path2"
       style="fill:#d3dae3;fill-opacity:1;stroke-width:2.12846" />
    <path
       d="m 5.2499338,26 a 1.2499343,1 0 0 0 0,2 H 26.750065 a 1.2499343,1 0 0 0 0,-2 z"
       stroke="none"
       id="path4"
       style="fill:#08a19d;fill-opacity:1;stroke-width:1.84396" />
  </g>
  <g
     id="22-22-kget">
    <rect
       style="opacity:0.00100002"
       width="22"
       height="22"
       x="32"
       y="9.9978008"
       id="rect2" />
    <path
       d="m 45.329702,20.208189 h 2.502753 a 0.1675382,0.15043684 0 0 1 0.131449,0.243718 L 43.1314,25.940653 a 0.1675382,0.15043684 0 0 1 -0.262869,0 l -4.832434,-5.488746 a 0.1675382,0.15043684 0 0 1 0.131388,-0.243718 h 2.502748 a 0.1675382,0.15043684 0 0 0 0.167544,-0.150447 v -6.909498 a 0.1675382,0.15043684 0 0 1 0.167463,-0.150446 h 3.989424 a 0.1675382,0.15043684 0 0 1 0.167467,0.150446 v 6.909498 a 0.1675382,0.15043684 0 0 0 0.167571,0.150447 z"
       stroke="none"
       id="path2-6"
       style="fill:#d3dae3;fill-opacity:1;stroke-width:1.48799" />
    <path
       d="m 35.641675,27.997801 c -0.855567,0 -0.855567,1 0,1 h 14.716649 c 0.855568,0 0.855568,-1 0,-1 z"
       stroke="none"
       id="path4-7"
       style="fill:#08a19d;fill-opacity:1;stroke-width:1.07877"
       sodipodi:nodetypes="sssss" />
  </g>
</svg>
