<?xml version="1.0" encoding="UTF-8" standalone="no"?>
<svg
   xmlns:dc="http://purl.org/dc/elements/1.1/"
   xmlns:cc="http://creativecommons.org/ns#"
   xmlns:rdf="http://www.w3.org/1999/02/22-rdf-syntax-ns#"
   xmlns:svg="http://www.w3.org/2000/svg"
   xmlns="http://www.w3.org/2000/svg"
   xmlns:sodipodi="http://sodipodi.sourceforge.net/DTD/sodipodi-0.dtd"
   xmlns:inkscape="http://www.inkscape.org/namespaces/inkscape"
   width="32"
   height="32"
   version="1"
   id="svg12"
   sodipodi:docname="klipper.svg"
   inkscape:version="1.0.1 (3bc2e813f5, 2020-09-07)">
  <metadata
     id="metadata18">
    <rdf:RDF>
      <cc:Work
         rdf:about="">
        <dc:format>image/svg+xml</dc:format>
        <dc:type
           rdf:resource="http://purl.org/dc/dcmitype/StillImage" />
      </cc:Work>
    </rdf:RDF>
  </metadata>
  <defs
     id="defs16" />
  <sodipodi:namedview
     pagecolor="#ffffff"
     bordercolor="#666666"
     borderopacity="1"
     objecttolerance="10"
     gridtolerance="10"
     guidetolerance="10"
     inkscape:pageopacity="0"
     inkscape:pageshadow="2"
     inkscape:window-width="1920"
     inkscape:window-height="1016"
     id="namedview14"
     showgrid="false"
     inkscape:zoom="5.2418442"
     inkscape:cx="71.247052"
     inkscape:cy="9.0282764"
     inkscape:window-x="0"
     inkscape:window-y="0"
     inkscape:window-maximized="1"
     inkscape:current-layer="svg12"
     inkscape:document-rotation="0">
    <inkscape:grid
       type="xygrid"
       id="grid855"
       originx="0"
       originy="0" />
  </sodipodi:namedview>
  <g
     id="klipper">
    <rect
       style="opacity:0.00100002"
       width="32"
       height="32"
       x="0"
       y="0"
       id="rect7" />
    <path
       d="M 20.442,6.421 H 17.17 a 1.204,1.204 0 0 0 -1.128,-0.8 0.4,0.4 0 0 1 -0.4,-0.4 1.2036,1.2036 0 0 0 -1.2,-1.2 h -3.2 a 1.2036,1.2036 0 0 0 -1.2,1.2 0.4,0.4 0 0 1 -0.4,0.4 1.204,1.204 0 0 0 -1.128,0.8 H 5.242 a 1.2036,1.2036 0 0 0 -1.2,1.2 v 19.2 a 1.2036,1.2036 0 0 0 1.2,1.2 h 15.2 a 1.2036,1.2036 0 0 0 1.2,-1.2 v -19.2 a 1.2036,1.2036 0 0 0 -1.2,-1.2 z m -11.2,0.4 a 0.4,0.4 0 0 1 0.4,-0.4 1.2036,1.2036 0 0 0 1.2,-1.2 0.4,0.4 0 0 1 0.4,-0.4 h 3.2 a 0.4,0.4 0 0 1 0.4,0.4 1.2036,1.2036 0 0 0 1.2,1.2 0.4,0.4 0 0 1 0.4,0.4 v 1.6 a 0.4,0.4 0 0 1 -0.4,0.4 h -6.4 a 0.4,0.4 0 0 1 -0.4,-0.4 z m 0.4,2.8 h 6.4 a 1.204,1.204 0 0 0 1.128,-0.8 h 2.072 v 13.6 h -2.8 a 0.4,0.4 0 0 0 -0.4,0.4 v 2.8 h -9.6 v -16.8 h 2.072 a 1.204,1.204 0 0 0 1.128,0.8 z m 9.036,13.6 -1.836,1.836 v -1.836 z m 2.164,3.6 a 0.4,0.4 0 0 1 -0.4,0.4 h -15.2 a 0.4,0.4 0 0 1 -0.4,-0.4 v -19.2 a 0.4,0.4 0 0 1 0.4,-0.4 h 3.2 v 0.8 h -2.4 a 0.4,0.4 0 0 0 -0.4,0.4 v 17.6 a 0.4,0.4 0 0 0 0.4,0.4 h 10.4 a 0.4132,0.4132 0 0 0 0.284,-0.116 l 3.2,-3.2 a 0.4132,0.4132 0 0 0 0.116,-0.284 v -14.4 a 0.4,0.4 0 0 0 -0.4,-0.4 h -2.4 v -0.8 h 3.2 a 0.4,0.4 0 0 1 0.4,0.4 z"
       id="path2"
       style="fill:#d3dae3;fill-opacity:1;stroke-width:0.4" />
    <path
       d="m 11.642,5.621 h 2.4 v 0.8 h -2.4 z"
       id="path4-3"
       style="fill:#08a19d;fill-opacity:1;stroke-width:0.4" />
    <path
       d="m 27.642,8.821 h -1.2 v -2 a 0.4,0.4 0 0 0 -0.4,-0.4 v -1.2 a 1.2,1.2 0 0 0 -2.4,0 v 1.2 a 0.4,0.4 0 0 0 -0.4,0.4 v 16.4 a 0.2984,0.2984 0 0 0 0.016,0.104 l 1.2,4.4 a 0.3972,0.3972 0 0 0 0.768,0 l 1.2,-4.4 a 0.2984,0.2984 0 0 0 0.016,-0.104 v -13.6 h 0.8 v 5.2 h 0.8 v -5.6 a 0.4,0.4 0 0 0 -0.4,-0.4 z m -3.2,-3.6 a 0.4,0.4 0 0 1 0.8,0 v 1.2 h -0.8 z m 0.4,20.88 -0.676,-2.48 h 1.352 z m 0.8,-3.28 h -1.6 v -13.2 h 1.6 z m 0,-14 h -1.6 v -1.6 h 1.6 z"
       id="path6-6"
       style="fill:#08a19d;fill-opacity:1;stroke-width:0.4" />
  </g>
  <g
     id="22-22-klipper">
    <rect
       style="opacity:0.00100002"
       width="22"
       height="22"
       x="32"
       y="10"
       id="rect2" />
    <path
       d="M 45.900334,14.533 H 43.719 A 0.80266668,0.80266668 0 0 0 42.967,13.999667 0.26666667,0.26666667 0 0 1 42.700334,13.733 a 0.80240001,0.80240001 0 0 0 -0.8,-0.8 H 39.767 a 0.80240001,0.80240001 0 0 0 -0.8,0.8 0.26666667,0.26666667 0 0 1 -0.266666,0.266667 0.80266668,0.80266668 0 0 0 -0.752,0.533333 H 35.767 a 0.80240001,0.80240001 0 0 0 -0.8,0.8 v 12.800001 a 0.80240001,0.80240001 0 0 0 0.8,0.8 h 10.133334 a 0.80240001,0.80240001 0 0 0 0.8,-0.8 V 15.333 a 0.80240001,0.80240001 0 0 0 -0.8,-0.8 z m -7.466667,0.266667 a 0.26666667,0.26666667 0 0 1 0.266667,-0.266667 0.80240001,0.80240001 0 0 0 0.8,-0.8 0.26666667,0.26666667 0 0 1 0.266666,-0.266666 h 2.133334 A 0.26666667,0.26666667 0 0 1 42.167,13.733 a 0.80240001,0.80240001 0 0 0 0.8,0.8 0.26666667,0.26666667 0 0 1 0.266667,0.266667 v 1.066667 A 0.26666667,0.26666667 0 0 1 42.967,16.133 h -4.266666 a 0.26666667,0.26666667 0 0 1 -0.266667,-0.266666 z m 0.266667,1.866667 H 42.967 A 0.80266668,0.80266668 0 0 0 43.719,16.133 h 1.381334 v 9.066667 H 43.233667 A 0.26666667,0.26666667 0 0 0 42.967,25.466334 v 1.866667 h -6.4 V 16.133 h 1.381334 a 0.80266668,0.80266668 0 0 0 0.752,0.533334 z m 6.024,9.066667 -1.224,1.224 v -1.224 z m 1.442666,2.4 a 0.26666667,0.26666667 0 0 1 -0.266666,0.266666 H 35.767 A 0.26666667,0.26666667 0 0 1 35.500334,28.133001 V 15.333 A 0.26666667,0.26666667 0 0 1 35.767,15.066334 h 2.133334 v 0.533333 h -1.6 a 0.26666667,0.26666667 0 0 0 -0.266667,0.266667 v 11.733333 a 0.26666667,0.26666667 0 0 0 0.266667,0.266667 h 6.933333 A 0.27546667,0.27546667 0 0 0 43.423,27.789001 l 2.133334,-2.133334 a 0.27546667,0.27546667 0 0 0 0.07733,-0.189333 v -9.6 A 0.26666667,0.26666667 0 0 0 45.367,15.599667 h -1.6 v -0.533333 h 2.133334 A 0.26666667,0.26666667 0 0 1 46.167,15.333 Z"
       id="path2-7"
       style="fill:#d3dae3;fill-opacity:1;stroke-width:0.266667" />
    <path
       d="m 40.033667,13.999667 h 1.6 V 14.533 h -1.6 z"
       id="path4-3-5"
       style="fill:#08a19d;fill-opacity:1;stroke-width:0.266667" />
    <path
       d="m 50.700334,16.133 h -0.8 V 14.799667 A 0.26666667,0.26666667 0 0 0 49.633667,14.533 v -0.8 a 0.80000001,0.80000001 0 0 0 -1.6,0 v 0.8 a 0.26666667,0.26666667 0 0 0 -0.266666,0.266667 v 10.933334 a 0.19893334,0.19893334 0 0 0 0.01067,0.06933 l 0.8,2.933333 a 0.2648,0.2648 0 0 0 0.512,0 l 0.8,-2.933333 a 0.19893334,0.19893334 0 0 0 0.01067,-0.06933 v -9.066667 h 0.533333 V 20.133 h 0.533334 V 16.399667 A 0.26666667,0.26666667 0 0 0 50.700334,16.133 Z m -2.133333,-2.4 a 0.26666667,0.26666667 0 0 1 0.533333,0 v 0.8 h -0.533333 z m 0.266666,13.920001 -0.450666,-1.653334 h 0.901333 z m 0.533334,-2.186667 h -1.066667 v -8.8 h 1.066667 z m 0,-9.333334 h -1.066667 v -1.066666 h 1.066667 z"
       id="path6-6-3"
       style="fill:#08a19d;fill-opacity:1;stroke-width:0.266667" />
  </g>
</svg>
