<?xml version="1.0" encoding="UTF-8" standalone="no"?>
<svg
   xmlns:dc="http://purl.org/dc/elements/1.1/"
   xmlns:cc="http://creativecommons.org/ns#"
   xmlns:rdf="http://www.w3.org/1999/02/22-rdf-syntax-ns#"
   xmlns:svg="http://www.w3.org/2000/svg"
   xmlns="http://www.w3.org/2000/svg"
   xmlns:sodipodi="http://sodipodi.sourceforge.net/DTD/sodipodi-0.dtd"
   xmlns:inkscape="http://www.inkscape.org/namespaces/inkscape"
   version="1.1"
   x="0px"
   y="0px"
   viewBox="0 0 21.666365 24.005003"
   enable-background="new 0 0 1000 1000"
   xml:space="preserve"
   id="svg22"
   sodipodi:docname="klipper.svg"
   width="21.666365"
   height="24.005003"
   inkscape:version="1.0.1 (3bc2e813f5, 2020-09-07)"><metadata
   id="metadata14"><rdf:RDF><cc:Work
       rdf:about=""><dc:format>image/svg+xml</dc:format><dc:type
         rdf:resource="http://purl.org/dc/dcmitype/StillImage" /></cc:Work></rdf:RDF></metadata><defs
   id="defs26" /><sodipodi:namedview
   pagecolor="#ffffff"
   bordercolor="#666666"
   borderopacity="1"
   objecttolerance="10"
   gridtolerance="10"
   guidetolerance="10"
   inkscape:pageopacity="0"
   inkscape:pageshadow="2"
   inkscape:window-width="1920"
   inkscape:window-height="1013"
   id="namedview24"
   showgrid="false"
   inkscape:zoom="5.3400704"
   inkscape:cx="-43.38106"
   inkscape:cy="10.25901"
   inkscape:window-x="0"
   inkscape:window-y="0"
   inkscape:window-maximized="1"
   inkscape:current-layer="svg22"
   inkscape:document-rotation="0" />

<g
   id="klipper"
   transform="matrix(0.3,0,0,0.3,1.48,2.8092438)"
   style="fill:#e6e6e6"><path
     d="M 43,8 H 34.82 A 3.01,3.01 0 0 0 32,6 1,1 0 0 1 31,5 3.009,3.009 0 0 0 28,2 H 20 A 3.009,3.009 0 0 0 17,5 1,1 0 0 1 16,6 3.01,3.01 0 0 0 13.18,8 H 5 a 3.009,3.009 0 0 0 -3,3 v 48 a 3.009,3.009 0 0 0 3,3 h 38 a 3.009,3.009 0 0 0 3,-3 V 11 A 3.009,3.009 0 0 0 43,8 Z M 15,9 a 1,1 0 0 1 1,-1 3.009,3.009 0 0 0 3,-3 1,1 0 0 1 1,-1 h 8 a 1,1 0 0 1 1,1 3.009,3.009 0 0 0 3,3 1,1 0 0 1 1,1 v 4 a 1,1 0 0 1 -1,1 H 16 a 1,1 0 0 1 -1,-1 z m 1,7 h 16 a 3.01,3.01 0 0 0 2.82,-2 H 40 v 34 h -7 a 1,1 0 0 0 -1,1 v 7 H 8 V 14 h 5.18 A 3.01,3.01 0 0 0 16,16 Z M 38.59,50 34,54.59 V 50 Z M 44,59 a 1,1 0 0 1 -1,1 H 5 A 1,1 0 0 1 4,59 V 11 a 1,1 0 0 1 1,-1 h 8 v 2 H 7 a 1,1 0 0 0 -1,1 v 44 a 1,1 0 0 0 1,1 h 26 a 1.033,1.033 0 0 0 0.71,-0.29 l 8,-8 A 1.033,1.033 0 0 0 42,49 V 13 a 1,1 0 0 0 -1,-1 h -6 v -2 h 8 a 1,1 0 0 1 1,1 z"
     id="path2"
     style="fill:#d3dae3;fill-opacity:1" /><path
     d="m 21,6 h 6 v 2 h -6 z"
     id="path4-3"
     style="fill:#08a19d;fill-opacity:1" /><path
     d="M 61,14 H 58 V 9 A 1,1 0 0 0 57,8 V 5 a 3,3 0 0 0 -6,0 v 3 a 1,1 0 0 0 -1,1 v 41 a 0.746,0.746 0 0 0 0.04,0.26 l 3,11 a 0.993,0.993 0 0 0 1.92,0 l 3,-11 A 0.746,0.746 0 0 0 58,50 V 16 h 2 v 13 h 2 V 15 A 1,1 0 0 0 61,14 Z M 53,5 a 1,1 0 0 1 2,0 V 8 H 53 Z M 54,57.2 52.31,51 h 3.38 z M 56,49 H 52 V 16 h 4 z m 0,-35 h -4 v -4 h 4 z"
     id="path6-6"
     style="fill:#08a19d;fill-opacity:1" /></g></svg>
