<?xml version="1.0" encoding="UTF-8" standalone="no"?>
<svg
   width="32"
   height="32"
   version="1"
   id="svg12"
   sodipodi:docname="klipper.svg"
   inkscape:version="1.1.2 (0a00cf5339, 2022-02-04)"
   xmlns:inkscape="http://www.inkscape.org/namespaces/inkscape"
   xmlns:sodipodi="http://sodipodi.sourceforge.net/DTD/sodipodi-0.dtd"
   xmlns="http://www.w3.org/2000/svg"
   xmlns:svg="http://www.w3.org/2000/svg"
   xmlns:rdf="http://www.w3.org/1999/02/22-rdf-syntax-ns#"
   xmlns:cc="http://creativecommons.org/ns#"
   xmlns:dc="http://purl.org/dc/elements/1.1/">
  <g
     id="22-22-klipper"
     transform="translate(32,10)">
    <rect
       style="opacity:0.00100002"
       width="22"
       height="22"
       x="0"
       y="0"
       id="rect2" />
    <path
       d="m 14.181818,5.19939 h -2.23091 A 0.82090901,0.76926055 0 0 0 11.181818,4.6882534 0.27272726,0.25556835 0 0 1 10.90909,4.4326847 0.82063621,0.76900519 0 0 0 10.090908,3.6659804 H 7.9090907 A 0.82063621,0.76900519 0 0 0 7.0909087,4.4326847 0.27272726,0.25556835 0 0 1 6.8181816,4.6882534 0.82090901,0.76926055 0 0 0 6.0490904,5.19939 H 3.8181819 A 0.82063621,0.76900519 0 0 0 3,5.9660955 V 18.233377 a 0.82063621,0.76900519 0 0 0 0.8181819,0.766706 H 14.181818 A 0.82063621,0.76900519 0 0 0 15,18.233377 V 5.9660955 A 0.82063621,0.76900519 0 0 0 14.181818,5.19939 Z M 6.5454543,5.4549579 A 0.27272726,0.25556835 0 0 1 6.8181816,5.19939 0.82063621,0.76900519 0 0 0 7.6363626,4.4326847 0.27272726,0.25556835 0 0 1 7.9090907,4.1771168 h 2.1818173 a 0.27272726,0.25556835 0 0 1 0.272729,0.2555679 0.82063621,0.76900519 0 0 0 0.818181,0.7667053 0.27272726,0.25556835 0 0 1 0.272728,0.2555679 V 6.4772321 A 0.27272726,0.25556835 0 0 1 11.181818,6.7328 H 6.8181816 A 0.27272726,0.25556835 0 0 1 6.5454543,6.4772321 Z M 6.8181816,7.2439376 H 11.181818 A 0.82090901,0.76926055 0 0 0 11.950908,6.7328 h 1.412728 v 8.689323 h -1.90909 a 0.27272726,0.25556835 0 0 0 -0.272728,0.255573 v 1.788977 H 4.6363639 V 6.7328 h 1.4127265 a 0.82090901,0.76926055 0 0 0 0.7690912,0.5111376 z m 6.1609084,8.6893234 -1.251819,1.17306 v -1.17306 z m 1.475457,2.300116 a 0.27272726,0.25556835 0 0 1 -0.272729,0.255566 H 3.8181819 A 0.27272726,0.25556835 0 0 1 3.5454547,18.233377 V 5.9660955 A 0.27272726,0.25556835 0 0 1 3.8181819,5.7105266 H 5.9999996 V 6.2216634 H 4.3636359 A 0.27272726,0.25556835 0 0 0 4.0909093,6.4772321 V 17.722237 a 0.27272726,0.25556835 0 0 0 0.2727266,0.255575 h 7.0909101 a 0.28172726,0.26400208 0 0 0 0.193635,-0.07411 l 2.181818,-2.044554 a 0.28172726,0.26400208 0 0 0 0.07909,-0.181451 V 6.4772321 A 0.27272726,0.25556835 0 0 0 13.636361,6.2216634 H 11.999999 V 5.7105266 h 2.181819 a 0.27272726,0.25556835 0 0 1 0.272729,0.2555689 z"
       id="path2-0"
       style="fill:#d3dae3;fill-opacity:1;stroke-width:0.264007" />
    <path
       d="M 8.0946666,4.0800012 H 9.6946665 V 4.6133608 H 8.0946666 Z"
       id="path4-3-4"
       style="fill:#08a19d;fill-opacity:1;stroke-width:0.266675" />
    <path
       d="M 18.749986,6.1995443 H 18.000004 V 4.8661553 A 0.24999346,0.26667786 0 0 0 17.750011,4.5994771 V 3.7994434 a 0.74998086,0.80003402 0 0 0 -1.499961,0 V 4.5994771 A 0.24999346,0.26667786 0 0 0 16.000056,4.8661553 V 15.799948 a 0.18649513,0.19894167 0 0 0 0.01001,0.06933 l 0.749978,2.933459 a 0.24824351,0.26481111 0 0 0 0.479988,0 l 0.74998,-2.933459 a 0.18649513,0.19894167 0 0 0 0.01001,-0.06933 V 6.7328996 h 0.499986 V 10.199713 H 19 V 6.4662224 A 0.24999346,0.26667786 0 0 0 18.749986,6.1995443 Z m -1.99995,-2.4001009 a 0.24999422,0.26667865 0 0 1 0.499988,0 v 0.8000337 h -0.499988 z m 0.249993,13.9205836 -0.422488,-1.653399 h 0.844978 z M 17.500017,15.53327 H 16.500043 V 6.7328996 h 0.999974 z m 0,-9.3337257 H 16.500043 V 5.1328326 h 0.999974 z"
       id="path6-6-8"
       style="fill:#08a19d;fill-opacity:1;stroke-width:0.2582" />
  </g>
  <metadata
     id="metadata18">
    <rdf:RDF>
      <cc:Work
         rdf:about="">
        <dc:format>image/svg+xml</dc:format>
        <dc:type
           rdf:resource="http://purl.org/dc/dcmitype/StillImage" />
      </cc:Work>
    </rdf:RDF>
  </metadata>
  <defs
     id="defs16" />
  <sodipodi:namedview
     pagecolor="#ffffff"
     bordercolor="#666666"
     borderopacity="1"
     objecttolerance="10"
     gridtolerance="10"
     guidetolerance="10"
     inkscape:pageopacity="0"
     inkscape:pageshadow="2"
     inkscape:window-width="1920"
     inkscape:window-height="1013"
     id="namedview14"
     showgrid="false"
     inkscape:zoom="10.483688"
     inkscape:cx="26.088147"
     inkscape:cy="14.164862"
     inkscape:window-x="0"
     inkscape:window-y="0"
     inkscape:window-maximized="1"
     inkscape:current-layer="svg12"
     inkscape:document-rotation="0"
     inkscape:pagecheckerboard="0"
     inkscape:lockguides="true">
    <inkscape:grid
       type="xygrid"
       id="grid855"
       originx="0"
       originy="0" />
  </sodipodi:namedview>
  <g
     id="klipper"
     transform="translate(32,10)">
    <g
       id="g2093">
      <rect
         style="opacity:0.00100002"
         width="32"
         height="32"
         x="-32"
         y="-10"
         id="rect7" />
      <path
         d="m -11.227272,-2.7 h -3.346364 A 1.2313636,1.153833 0 0 0 -15.727272,-3.466667 0.40909092,0.3833333 0 0 1 -16.136364,-3.85 1.2309544,1.15345 0 0 0 -17.363636,-5 h -3.272728 a 1.2309544,1.15345 0 0 0 -1.227272,1.15 0.40909092,0.3833333 0 0 1 -0.409091,0.383333 A 1.2313636,1.153833 0 0 0 -23.426364,-2.7 h -3.346363 A 1.2309544,1.15345 0 0 0 -28,-1.55 v 18.4 a 1.2309544,1.15345 0 0 0 1.227273,1.15 h 15.545455 A 1.2309544,1.15345 0 0 0 -10,16.85 v -18.4 a 1.2309544,1.15345 0 0 0 -1.227272,-1.15 z m -11.454546,0.383333 A 0.40909092,0.3833333 0 0 1 -22.272727,-2.7 a 1.2309544,1.15345 0 0 0 1.227271,-1.15 0.40909092,0.3833333 0 0 1 0.409092,-0.383333 h 3.272728 a 0.40909092,0.3833333 0 0 1 0.409092,0.383333 1.2309544,1.15345 0 0 0 1.227272,1.15 0.40909092,0.3833333 0 0 1 0.409092,0.383333 v 1.533334 A 0.40909092,0.3833333 0 0 1 -15.727272,-0.4 h -6.545455 a 0.40909092,0.3833333 0 0 1 -0.409091,-0.383333 z m 0.409091,2.683335 h 6.545455 A 1.2313636,1.153833 0 0 0 -14.573636,-0.4 h 2.119092 v 13.03333 h -2.863636 a 0.40909092,0.3833333 0 0 0 -0.409092,0.38334 V 15.7 h -9.818182 V -0.4 h 2.11909 a 1.2313636,1.153833 0 0 0 1.153637,0.766668 z M -13.031364,13.4 -14.909092,15.1595 V 13.4 Z m 2.213184,3.45 a 0.40909092,0.3833333 0 0 1 -0.409092,0.38333 H -26.772727 A 0.40909092,0.3833333 0 0 1 -27.181818,16.85 v -18.4 a 0.40909092,0.3833333 0 0 1 0.409091,-0.383333 H -23.5 v 0.766666 h -2.454546 a 0.40909092,0.3833333 0 0 0 -0.40909,0.383334 V 16.08333 a 0.40909092,0.3833333 0 0 0 0.40909,0.38334 h 10.636366 a 0.42259092,0.3959833 0 0 0 0.290452,-0.11117 L -11.755,13.28883 a 0.42259092,0.3959833 0 0 0 0.118636,-0.27216 V -0.783333 a 0.40909092,0.3833333 0 0 0 -0.409092,-0.383334 H -14.5 v -0.766666 h 3.272728 A 0.40909092,0.3833333 0 0 1 -10.81818,-1.55 Z"
         id="path2"
         style="fill:#d3dae3;fill-opacity:1;stroke-width:0.396003" />
      <path
         d="m -20.358,-4.379 h 2.4 v 0.8 h -2.4 z"
         id="path4-3"
         style="fill:#08a19d;fill-opacity:1;stroke-width:0.4" />
      <path
         d="m -4.416659,-1.2 h -1.249977 v -2 a 0.41665881,0.4 0 0 0 -0.416658,-0.4 v -1.2 a 1.2499765,1.2 0 0 0 -2.499953,0 v 1.2 a 0.41665881,0.4 0 0 0 -0.416659,0.4 v 16.4 a 0.31082747,0.2984 0 0 0 0.01666,0.104 l 1.249977,4.4 a 0.4137422,0.3972 0 0 0 0.799984,0 l 1.249977,-4.4 A 0.31082747,0.2984 0 0 0 -5.666636,13.2 V -0.4 h 0.833318 V 4.8 H -4 V -0.8 A 0.41665881,0.4 0 0 0 -4.416659,-1.2 Z M -7.74993,-4.8 a 0.416659,0.40000018 0 0 1 0.833318,0 v 1.2 H -7.74993 Z m 0.416659,20.88 -0.704154,-2.48 h 1.408308 z M -6.499953,12.8 H -8.166589 V -0.4 h 1.666636 z m 0,-14 h -1.666636 v -1.6 h 1.666636 z"
         id="path6-6"
         style="fill:#08a19d;fill-opacity:1;stroke-width:0.408244" />
    </g>
  </g>
</svg>
