<?xml version="1.0" encoding="UTF-8" standalone="no"?>
<svg
   xmlns:dc="http://purl.org/dc/elements/1.1/"
   xmlns:cc="http://creativecommons.org/ns#"
   xmlns:rdf="http://www.w3.org/1999/02/22-rdf-syntax-ns#"
   xmlns:svg="http://www.w3.org/2000/svg"
   xmlns="http://www.w3.org/2000/svg"
   xmlns:sodipodi="http://sodipodi.sourceforge.net/DTD/sodipodi-0.dtd"
   xmlns:inkscape="http://www.inkscape.org/namespaces/inkscape"
   width="32"
   height="32"
   version="1.1"
   id="svg12"
   sodipodi:docname="konversation.svg"
   inkscape:version="1.0.1 (3bc2e813f5, 2020-09-07)">
  <metadata
     id="metadata18">
    <rdf:RDF>
      <cc:Work
         rdf:about="">
        <dc:format>image/svg+xml</dc:format>
        <dc:type
           rdf:resource="http://purl.org/dc/dcmitype/StillImage" />
      </cc:Work>
    </rdf:RDF>
  </metadata>
  <defs
     id="defs16" />
  <sodipodi:namedview
     pagecolor="#ffffff"
     bordercolor="#666666"
     borderopacity="1"
     objecttolerance="10"
     gridtolerance="10"
     guidetolerance="10"
     inkscape:pageopacity="0"
     inkscape:pageshadow="2"
     inkscape:window-width="1920"
     inkscape:window-height="1016"
     id="namedview14"
     showgrid="true"
     inkscape:zoom="9.8125"
     inkscape:cx="4.8474077"
     inkscape:cy="4.4306934"
     inkscape:window-x="0"
     inkscape:window-y="0"
     inkscape:window-maximized="1"
     inkscape:current-layer="svg12"
     inkscape:document-rotation="0">
    <inkscape:grid
       type="xygrid"
       id="grid858"
       originx="0"
       originy="0" />
  </sodipodi:namedview>
  <g
     id="konversation">
    <rect
       style="opacity:0.00100002"
       width="32"
       height="32"
       x="0"
       y="0"
       id="rect7" />
    <path
       id="Conversation"
       d="M 29.32714,5 H 13.330765 C 12.964182,5 12.66425,5.299932 12.66425,5.666516 v 4.665609 H 2.666516 C 2.299932,10.332125 2,10.632057 2,10.998639 v 10.66425 c 0,0.366584 0.299932,0.666516 0.666516,0.666516 h 2.666062 v 3.999093 c 0,0.999774 0.966448,0.63319 1.133077,0.466561 l 4.465654,-4.465654 h 7.731581 c 0.366584,0 0.666516,-0.299932 0.666516,-0.666516 V 16.99728 h 1.766266 l 4.432329,4.465654 c 0.433235,0.433235 1.133076,0.09998 1.133076,-0.466561 V 16.99728 h 2.666063 c 0.366583,0 0.666515,-0.299932 0.666515,-0.666516 V 5.666516 C 29.993655,5.299932 29.693723,5 29.32714,5 Z M 17.996374,20.996373 h -7.331671 c -0.166629,0 -0.333258,0.06665 -0.466561,0.199955 l -3.532533,3.532533 v -3.065972 c 0,-0.366584 -0.299932,-0.666516 -0.666515,-0.666516 H 3.333031 v -9.331218 h 9.331219 v 4.665609 c 0,0.366584 0.299932,0.666516 0.666515,0.666516 h 4.665609 z m 10.66425,-5.332124 h -2.666062 c -0.366584,0 -0.666516,0.299932 -0.666516,0.666515 v 3.065972 L 21.828839,15.864203 C 21.695536,15.7309 21.528907,15.664249 21.362278,15.664249 H 13.997281 V 6.333031 h 14.663343 z"
       style="fill:#d3dae3;fill-opacity:1;stroke-width:0.333258" />
  </g>
  <g
     id="22-22-konversation"
     transform="translate(32,10)">
    <rect
       style="opacity:0.00100002"
       width="22"
       height="22"
       x="0"
       y="0"
       id="rect2" />
    <path
       id="Conversation-3"
       d="M 19.49,4.1 H 9.3104869 c -0.2332804,0 -0.424146,0.190868 -0.424146,0.424146 v 2.96902 H 2.5241465 C 2.2908659,7.493166 2.1,7.684036 2.1,7.91731 v 6.786348 c 0,0.23328 0.1908659,0.424148 0.4241465,0.424148 h 1.6965851 v 2.544874 c 0,0.636221 0.6150123,0.402939 0.721049,0.296907 l 2.8417798,-2.841781 h 4.9200976 c 0.23328,0 0.424147,-0.190868 0.424147,-0.424148 v -2.969021 h 1.123985 l 2.820579,2.841772 c 0.275689,0.275697 0.721044,0.06367 0.721044,-0.2969 V 11.734637 H 19.49 c 0.233275,0 0.424144,-0.190872 0.424144,-0.424148 V 4.524146 C 19.914144,4.290868 19.723275,4.1 19.49,4.1 Z M 12.279509,14.279509 H 7.6139021 c -0.1060364,0 -0.212073,0.04242 -0.2969025,0.127244 l -2.2479758,2.247974 v -1.951069 c 0,-0.233281 -0.1908655,-0.424149 -0.4241456,-0.424149 H 2.9482926 V 8.341461 h 5.9380483 v 2.969028 c 0,0.233276 0.1908656,0.424148 0.424146,0.424148 h 2.9690221 z m 6.78634,-3.39317 h -1.696581 c -0.233285,0 -0.424151,0.190867 -0.424151,0.42415 v 1.951069 l -2.226761,-2.247973 c -0.08483,-0.08483 -0.19087,-0.127246 -0.296905,-0.127246 H 9.7346334 V 4.948295 h 9.3312156 z"
       style="fill:#d3dae3;fill-opacity:1;stroke-width:0.212073" />
  </g>
</svg>
