<?xml version="1.0" encoding="UTF-8" standalone="no"?>
<svg
   xmlns:dc="http://purl.org/dc/elements/1.1/"
   xmlns:cc="http://creativecommons.org/ns#"
   xmlns:rdf="http://www.w3.org/1999/02/22-rdf-syntax-ns#"
   xmlns:svg="http://www.w3.org/2000/svg"
   xmlns="http://www.w3.org/2000/svg"
   xmlns:sodipodi="http://sodipodi.sourceforge.net/DTD/sodipodi-0.dtd"
   xmlns:inkscape="http://www.inkscape.org/namespaces/inkscape"
   width="32"
   height="32"
   version="1.1"
   id="svg12"
   sodipodi:docname="konv_message.svg"
   inkscape:version="1.0.1 (3bc2e813f5, 2020-09-07)">
  <metadata
     id="metadata18">
    <rdf:RDF>
      <cc:Work
         rdf:about="">
        <dc:format>image/svg+xml</dc:format>
        <dc:type
           rdf:resource="http://purl.org/dc/dcmitype/StillImage" />
      </cc:Work>
    </rdf:RDF>
  </metadata>
  <defs
     id="defs16" />
  <sodipodi:namedview
     pagecolor="#ffffff"
     bordercolor="#666666"
     borderopacity="1"
     objecttolerance="10"
     gridtolerance="10"
     guidetolerance="10"
     inkscape:pageopacity="0"
     inkscape:pageshadow="2"
     inkscape:window-width="1920"
     inkscape:window-height="1012"
     id="namedview14"
     showgrid="false"
     inkscape:zoom="9.8125"
     inkscape:cx="23.59472"
     inkscape:cy="6.5548258"
     inkscape:window-x="0"
     inkscape:window-y="0"
     inkscape:window-maximized="1"
     inkscape:current-layer="svg12"
     inkscape:document-rotation="0">
    <inkscape:grid
       type="xygrid"
       id="grid858"
       originx="0"
       originy="0" />
  </sodipodi:namedview>
  <g
     id="konv_message">
    <g
       id="g892">
      <rect
         style="opacity:0.00100002"
         width="32"
         height="32"
         x="0"
         y="0"
         id="rect7" />
      <path
         id="path2"
         d="M 29.327139,5 H 13.330753 C 12.964174,5 12.664258,5.299927 12.664258,5.666523 V 10.33213 H 2.666524 C 2.299927,10.33213 2,10.632045 2,10.998652 v 10.66423 c 0,0.366594 0.299927,0.666523 0.666524,0.666523 h 2.666049 v 3.999093 c 0,0.99977 0.966451,0.633198 1.133072,0.466554 l 4.465673,-4.465647 h 7.731563 c 0.366595,0 0.666524,-0.299929 0.666524,-0.666524 v -4.665606 h 1.76628 l 4.432305,4.465673 c 0.433248,0.433232 1.133096,0.09986 1.133096,-0.466564 v -3.999109 h 2.666053 c 0.366596,0 0.666523,-0.299915 0.666523,-0.666523 V 5.666523 C 29.993662,5.299927 29.693735,5 29.327139,5 Z M 17.996384,20.996385 h -7.331682 c -0.166621,0 -0.333266,0.06657 -0.466561,0.199948 l -3.532536,3.532534 v -3.065985 c 0,-0.366582 -0.299927,-0.666497 -0.666508,-0.666497 H 3.33302 v -9.331238 h 9.331238 v 4.665605 c 0,0.366608 0.299916,0.666524 0.666495,0.666524 h 4.665631 z M 28.66063,15.664258 h -2.666076 c -0.36657,0 -0.666498,0.299917 -0.666498,0.666494 v 3.065987 l -3.499221,-3.532522 c -0.13333,-0.133342 -0.299917,-0.199959 -0.466562,-0.199959 H 13.997275 V 6.33302 H 28.66063 Z"
         style="fill:#08a19d;fill-opacity:1;stroke-width:0.333266" />
    </g>
  </g>
  <g
     id="22-22-konv_message"
     transform="translate(32,10)">
    <rect
       style="opacity:0.00100002"
       width="22"
       height="22"
       x="0"
       y="0"
       id="rect2" />
    <path
       id="path2-3"
       d="M 19.389997,4 H 9.210486 C 8.977206,4 8.78634,4.190867 8.78634,4.424143 V 7.39317 H 2.424144 C 2.190867,7.39317 2,7.584034 2,7.817317 v 6.786339 c 0,0.23328 0.190867,0.424149 0.424144,0.424149 h 1.696589 v 2.544873 c 0,0.636224 0.615011,0.402942 0.721047,0.296907 l 2.84178,-2.84178 h 4.920096 c 0.23328,0 0.424149,-0.190869 0.424149,-0.424149 v -2.969021 h 1.123986 l 2.820572,2.841778 c 0.275695,0.275698 0.721052,0.06361 0.721052,-0.296898 v -2.54488 h 1.696582 c 0.233284,0 0.424145,-0.190864 0.424145,-0.42415 V 4.424143 C 19.814142,4.190867 19.623281,4 19.389997,4 Z M 12.179515,14.179515 H 7.513902 c -0.10604,0 -0.212076,0.04241 -0.296901,0.127238 l -2.247976,2.247974 v -1.951071 c 0,-0.233276 -0.190867,-0.424141 -0.424148,-0.424141 H 2.848289 V 8.241462 H 8.78634 v 2.969023 c 0,0.233286 0.190866,0.424151 0.424146,0.424151 h 2.969029 z M 18.96585,10.78634 h -1.696585 c -0.233281,0 -0.424144,0.190866 -0.424144,0.424145 v 1.951074 l -2.226766,-2.247971 c -0.0848,-0.0848 -0.190866,-0.127248 -0.296904,-0.127248 H 9.634635 V 4.848289 h 9.331215 z"
       style="fill:#08a19d;fill-opacity:1;stroke-width:0.212074" />
  </g>
</svg>
