<?xml version="1.0" encoding="UTF-8" standalone="no"?>
<svg
   xmlns:dc="http://purl.org/dc/elements/1.1/"
   xmlns:cc="http://creativecommons.org/ns#"
   xmlns:rdf="http://www.w3.org/1999/02/22-rdf-syntax-ns#"
   xmlns:svg="http://www.w3.org/2000/svg"
   xmlns="http://www.w3.org/2000/svg"
   xmlns:sodipodi="http://sodipodi.sourceforge.net/DTD/sodipodi-0.dtd"
   xmlns:inkscape="http://www.inkscape.org/namespaces/inkscape"
   version="1.1"
   x="0px"
   y="0px"
   width="100px"
   height="100px"
   viewBox="0 0 100 100"
   enable-background="new 0 0 100 100"
   xml:space="preserve"
   id="svg9"
   sodipodi:docname="konversation.svg"
   inkscape:version="0.92.4 (5da689c313, 2019-01-14)"><metadata
   id="defs13" /><sodipodi:namedview
   pagecolor="#ffffff"
   bordercolor="#666666"
   borderopacity="1"
   objecttolerance="10"
   gridtolerance="10"
   guidetolerance="10"
   inkscape:pageopacity="0"
   inkscape:pageshadow="2"
   inkscape:window-width="1920"
   inkscape:window-height="1017"
   id="namedview11"
   showgrid="false"
   inkscape:zoom="2.36"
   inkscape:cx="50"
   inkscape:cy="50"
   inkscape:window-x="0"
   inkscape:window-y="0"
   inkscape:window-maximized="1"
   inkscape:current-layer="svg9" />
<g
   id="konversation">
	<path
   id="Conversation"
   d="M90,17H42c-1.1,0-2,0.9-2,2v14H10c-1.1,0-2,0.9-2,2v32c0,1.1,0.9,2,2,2h8v12c0,3,2.9,1.9,3.4,1.4   L34.8,69H58c1.1,0,2-0.9,2-2V53h5.3l13.3,13.4c1.3,1.3,3.4,0.3,3.4-1.4V53h8c1.1,0,2-0.9,2-2V19C92,17.9,91.1,17,90,17z M56,65H34   c-0.5,0-1,0.2-1.4,0.6L22,76.2V67c0-1.1-0.9-2-2-2h-8V37h28v14c0,1.1,0.9,2,2,2h14V65z M88,49h-8c-1.1,0-2,0.9-2,2v9.2L67.5,49.6   c-0.4-0.4-0.9-0.6-1.4-0.6H44V21h44V49z"
   style="fill:#d3dae3;fill-opacity:1" />
</g>
<g
   id="Guides">
</g>
<g
   id="Info">
	<g
   id="BORDER">
		<path
   fill="#0000FF"
   d="M944-510v1684H-840V-510H944 M952-518H-848v1700H952V-518L952-518z"
   id="path5" />
	</g>
</g>
</svg>
