<?xml version="1.0" encoding="UTF-8" standalone="no"?>
<svg
   xmlns:dc="http://purl.org/dc/elements/1.1/"
   xmlns:cc="http://creativecommons.org/ns#"
   xmlns:rdf="http://www.w3.org/1999/02/22-rdf-syntax-ns#"
   xmlns:svg="http://www.w3.org/2000/svg"
   xmlns="http://www.w3.org/2000/svg"
   xmlns:sodipodi="http://sodipodi.sourceforge.net/DTD/sodipodi-0.dtd"
   xmlns:inkscape="http://www.inkscape.org/namespaces/inkscape"
   width="32"
   height="32"
   version="1.1"
   id="svg12"
   sodipodi:docname="ktorrent.svg"
   inkscape:version="1.0.1 (3bc2e813f5, 2020-09-07)">
  <metadata
     id="metadata18">
    <rdf:RDF>
      <cc:Work
         rdf:about="">
        <dc:format>image/svg+xml</dc:format>
        <dc:type
           rdf:resource="http://purl.org/dc/dcmitype/StillImage" />
      </cc:Work>
    </rdf:RDF>
  </metadata>
  <defs
     id="defs16" />
  <sodipodi:namedview
     pagecolor="#ffffff"
     bordercolor="#666666"
     borderopacity="1"
     objecttolerance="10"
     gridtolerance="10"
     guidetolerance="10"
     inkscape:pageopacity="0"
     inkscape:pageshadow="2"
     inkscape:window-width="1920"
     inkscape:window-height="1016"
     id="namedview14"
     showgrid="true"
     inkscape:zoom="9.8125"
     inkscape:cx="6.955414"
     inkscape:cy="5.9699915"
     inkscape:window-x="0"
     inkscape:window-y="0"
     inkscape:window-maximized="1"
     inkscape:current-layer="svg12"
     inkscape:document-rotation="0">
    <inkscape:grid
       type="xygrid"
       id="grid848"
       originx="0"
       originy="-4.6325683e-08" />
  </sodipodi:namedview>
  <g
     id="ktorrent">
    <rect
       style="opacity:0.00100002"
       width="32"
       height="32"
       x="0"
       y="0"
       id="rect7" />
    <path
       style="fill:#d3dae3;fill-opacity:1;stroke-width:1.2043"
       d="M 9.191611,26.093253 7.2,24.180215 l 0.846879,-0.01537 0.846867,-0.01537 0.03739,-6.517146 c 0.02054,-3.584433 0.03731,-8.0248195 0.03733,-9.8675291 2.7e-5,-2.6416066 -0.01905,-3.7174302 0.03618,-3.719353 0.03851,-0.00141 2.2653,0.022568 2.2653,0.022568 l 2.160704,-0.012232 -0.02159,4.0305387 c -0.01916,3.6300434 -0.0127,4.0847594 0.06219,4.0101864 0.04594,-0.04626 1.399074,-1.845594 3.00678,-3.99852 2.253062,-3.0171148 2.945265,-4.0572044 3.019727,-4.0359077 0.05302,0.015192 1.302861,-0.057422 2.3384,-0.059822 1.264715,-0.00286 2.998254,-0.00489 3.009176,0.00614 0.0098,0.010968 -2.086565,2.9447281 -3.768177,5.2098673 -1.625319,2.1893224 -2.911198,3.9416014 -2.935712,3.9731794 -0.02615,0.03354 1.138833,1.758521 2.858412,4.254716 1.620777,2.352776 3.800603,5.708644 3.800603,5.728592 0,0.04641 -5.274806,-0.0168 -5.344024,-0.0413 -0.02859,-0.0101 -1.368645,-1.94868 -2.978114,-4.307964 -1.609478,-2.359284 -2.964024,-4.327458 -3.010093,-4.37372 -0.07434,-0.07461 -0.07975,0.279396 -0.04876,3.135323 0.0192,1.77069 0.03495,3.971513 0.03495,4.890721 v 1.671271 l 0.714928,0.01569 0.714936,0.01569 -1.846724,1.906495 c -1.015699,1.04857 -1.848383,1.909437 -1.850417,1.913035 -0.0014,0.0034 -0.899921,-0.854324 -1.995309,-1.906495 v 0 z"
       id="path3253"
       inkscape:connector-curvature="0"
       sodipodi:nodetypes="ccccsscccccssscsssscsssscccscscc" />
  </g>
  <g
     id="22-22-ktorrent">
    <rect
       style="opacity:0.00100002"
       width="22"
       height="22"
       x="32"
       y="10.000001"
       id="rect2" />
    <path
       style="fill:#d3dae3;fill-opacity:1;stroke-width:0.802842"
       d="M 38.427728,27.728829 37.1,26.453483 l 0.564577,-0.01026 0.564584,-0.01027 0.02489,-4.344725 c 0.01368,-2.389601 0.02489,-5.349838 0.02489,-6.578298 1.3e-5,-1.761053 -0.01265,-2.478266 0.02418,-2.479548 0.02571,-0.0014 1.510183,0.01506 1.510183,0.01506 l 1.440458,-0.008 -0.01439,2.687007 c -0.01276,2.420006 -0.0081,2.723147 0.04141,2.673436 0.03067,-0.03085 0.932709,-1.230391 2.004502,-2.665662 1.502029,-2.011388 1.963496,-2.704776 2.013135,-2.690578 0.03541,0.01015 0.868566,-0.03822 1.558919,-0.03982 0.843136,-0.0023 1.99882,-0.0037 2.006101,0.0039 0.0068,0.0076 -1.391031,1.963136 -2.512095,3.473216 -1.083539,1.459536 -1.940782,2.627714 -1.957125,2.648765 -0.01738,0.02234 0.759216,1.172334 1.905589,2.83645 1.080508,1.568506 2.533713,3.805728 2.533713,3.819027 0,0.03097 -3.516505,-0.0112 -3.562648,-0.02757 -0.01899,-0.007 -0.912423,-1.299104 -1.985392,-2.871948 -1.072978,-1.572844 -1.975998,-2.884947 -2.006711,-2.915786 -0.04954,-0.0498 -0.05318,0.186263 -0.03252,2.090194 0.0128,1.180451 0.02328,2.647651 0.02328,3.260452 v 1.114172 l 0.476615,0.01047 0.476622,0.01046 -1.231143,1.270986 c -0.677129,0.699043 -1.232241,1.272945 -1.233601,1.275343 -0.0014,0.0028 -0.599939,-0.569544 -1.330194,-1.270988 v 0 z"
       id="path3253-3"
       inkscape:connector-curvature="0"
       sodipodi:nodetypes="ccccsscccccssscsssscsssscccscscc" />
  </g>
</svg>
