<?xml version="1.0" encoding="UTF-8" standalone="no"?>
<svg
   xmlns:dc="http://purl.org/dc/elements/1.1/"
   xmlns:cc="http://creativecommons.org/ns#"
   xmlns:rdf="http://www.w3.org/1999/02/22-rdf-syntax-ns#"
   xmlns:svg="http://www.w3.org/2000/svg"
   xmlns="http://www.w3.org/2000/svg"
   xmlns:sodipodi="http://sodipodi.sourceforge.net/DTD/sodipodi-0.dtd"
   xmlns:inkscape="http://www.inkscape.org/namespaces/inkscape"
   width="32"
   height="32"
   version="1.1"
   id="svg12"
   sodipodi:docname="nepomuk.svg"
   inkscape:version="1.0.2 (e86c870879, 2021-01-15)">
  <g
     id="22-22-nepomuk"
     transform="translate(32.000002,10.000001)">
    <path
       style="opacity:0.00100002"
       d="M 0,0 V 22 H 22 V 0 Z"
       id="path2" />
    <path
       d="m 8.3749435,3.028601 c -2.320808,0.234625 -4.3288,1.83918 -5.060563,4.047335 -0.953951,2.868077 0.322131,5.942676 3.027588,7.290747 1.175995,0.584815 2.570927,0.756901 3.9065905,0.481633 0.434776,-0.09059 1.000817,-0.290938 1.435588,-0.506776 l 0.384822,-0.193952 2.320812,2.317707 c 2.179898,2.170602 2.333043,2.317703 2.520803,2.399005 0.584816,0.256487 1.216648,0.143835 1.654515,-0.290939 0.440986,-0.444074 0.55674,-1.075907 0.300255,-1.663995 -0.08129,-0.187583 -0.228417,-0.340895 -2.402114,-2.520965 l -2.314447,-2.32064 0.209476,-0.43168 c 0.425465,-0.881951 0.61616,-1.704639 0.61616,-2.652228 0,-1.382531 -0.478528,-2.730446 -1.348084,-3.784473 C 13.429292,4.955452 12.947656,4.483126 12.706842,4.286066 11.543259,3.344522 9.9169825,2.875298 8.3749435,3.028601 Z m 1.360649,0.594293 c 0.7818745,0.09697 1.6264365,0.428563 2.3457785,0.913301 0.425308,0.290929 1.1009,0.978926 1.40114,1.429379 1.226116,1.848481 1.226116,4.200471 0.0035,6.036548 -1.223016,1.835913 -3.459249,2.743018 -5.6362185,2.283258 -1.848319,-0.391019 -3.39346,-1.770437 -3.993946,-3.5719 -0.82269,-2.471013 0.203264,-5.148234 2.470848,-6.446353 1.000811,-0.572234 2.186275,-0.797546 3.409292,-0.644233 z m 6.3242135,11.169093 c 2.458446,2.461541 2.367667,2.355096 2.364568,2.74612 -0.0035,0.5004 -0.387759,0.885053 -0.88506,0.885053 -0.39722,0 -0.284567,0.09697 -2.752315,-2.373863 -2.13012,-2.129959 -2.233466,-2.239504 -2.174032,-2.283261 0.337796,-0.253384 0.775665,-0.684892 1.079172,-1.069709 0.05637,-0.072 0.112656,-0.131433 0.121969,-0.131433 0.0092,1.65e-4 1.022682,1.004088 2.245698,2.227093 z"
       id="path4-5"
       style="fill:#d3dae3;fill-opacity:1;stroke-width:0.00163269" />
    <path
       d="m 8.2779635,4.198396 c -0.59118,0.09698 -1.00718,0.231505 -1.529461,0.503505 -1.316743,0.681805 -2.226941,1.923591 -2.524083,3.43738 -0.08439,0.434773 -0.07507,1.297956 0.01563,1.757873 0.347259,1.72963 1.57958,3.140226 3.212229,3.678186 0.478534,0.15951 0.785146,0.212741 1.335505,0.23151 0.600486,0.02184 0.957062,-0.01563 1.4543605,-0.14693 1.74841,-0.459925 3.06204,-1.848648 3.484239,-3.675254 C 13.826458,9.540582 13.845231,8.69291 13.760823,8.198703 13.579429,7.147771 13.157229,6.331446 12.397069,5.574553 11.67772,4.858319 10.955113,4.461088 9.9637705,4.242159 9.5791185,4.157769 8.6689145,4.13276 8.2779045,4.198359 Z m 1.457629,0.281474 c 0.4535495,0.072 0.8132205,0.190854 1.2824375,0.422193 0.525393,0.262698 0.872651,0.51609 1.269877,0.932088 0.625624,0.650606 1.022693,1.423173 1.204232,2.336482 0.08439,0.425295 0.07818,1.269872 -0.01563,1.704648 -0.09388,0.447344 -0.193965,0.735014 -0.391017,1.141544 -0.613225,1.254192 -1.789223,2.161297 -3.1872615,2.461536 -0.434767,0.09078 -1.301053,0.09697 -1.742187,0.01253 -0.894533,-0.175182 -1.667106,-0.575673 -2.320811,-1.201136 -0.394129,-0.378454 -0.659921,-0.731921 -0.897636,-1.191668 -0.850768,-1.657635 -0.638028,-3.624967 0.544326,-5.03868 0.444089,-0.528649 0.944651,-0.91641 1.557547,-1.204245 0.850768,-0.400325 1.729625,-0.522282 2.696156,-0.375341 z"
       id="path6"
       style="fill:#d3dae3;fill-opacity:1;stroke-width:0.00163269" />
    <path
       d="m 6.2293195,6.315941 c -0.478529,0.440979 -0.885066,1.235425 -1.032159,2.014202 -0.06871,0.381546 -0.04689,1.197871 0.04687,1.567011 0.162607,0.64424 0.51297,1.288648 0.960158,1.751508 0.109539,0.115742 0.143834,0.134518 0.259582,0.134518 0.168819,0 0.28458,-0.10628 0.28458,-0.259579 0,-0.09077 -0.0407,-0.156421 -0.222042,-0.369144 -1.103995,-1.301059 -1.082116,-3.108895 0.05016,-4.378757 0.209637,-0.234619 0.22825,-0.353479 0.08128,-0.500419 -0.134366,-0.134523 -0.250124,-0.122116 -0.42841,0.0407 z"
       id="path8"
       style="fill:#08aaa6;fill-opacity:1;stroke-width:0.00163269" />
  </g>
  <metadata
     id="metadata18">
    <rdf:RDF>
      <cc:Work
         rdf:about="">
        <dc:format>image/svg+xml</dc:format>
        <dc:type
           rdf:resource="http://purl.org/dc/dcmitype/StillImage" />
      </cc:Work>
    </rdf:RDF>
  </metadata>
  <defs
     id="defs16" />
  <sodipodi:namedview
     pagecolor="#ffffff"
     bordercolor="#666666"
     borderopacity="1"
     objecttolerance="10"
     gridtolerance="10"
     guidetolerance="10"
     inkscape:pageopacity="0"
     inkscape:pageshadow="2"
     inkscape:window-width="1920"
     inkscape:window-height="1007"
     id="namedview14"
     showgrid="false"
     inkscape:zoom="9.8125"
     inkscape:cx="29.086098"
     inkscape:cy="7.9347729"
     inkscape:window-x="0"
     inkscape:window-y="0"
     inkscape:window-maximized="1"
     inkscape:current-layer="svg12"
     inkscape:document-rotation="0">
    <inkscape:grid
       type="xygrid"
       id="grid858"
       originx="1e-06"
       originy="1e-06" />
  </sodipodi:namedview>
  <g
     id="nepomuk">
    <path
       style="opacity:0.00100002"
       d="M 0,0 V 32.000001 H 32.000001 V 0 Z"
       id="path7" />
    <path
       d="m 12.062403,4.0429041 c -3.48121,0.351917 -6.493199,2.758764 -7.590827,6.0709959 -1.430933,4.302106 0.483182,8.914006 4.54137,10.936121 1.763993,0.877221 3.856393,1.135342 5.859895,0.722446 0.652161,-0.135918 1.501219,-0.436407 2.15338,-0.760161 l 0.577222,-0.290937 3.481211,3.476558 c 3.269865,3.255905 3.499578,3.476557 3.781209,3.598516 0.877222,0.384733 1.824973,0.215754 2.481787,-0.436406 0.661466,-0.66612 0.835098,-1.613871 0.450365,-2.49599 -0.121958,-0.281387 -0.342611,-0.511345 -3.603169,-3.781455 l -3.47166,-3.480966 0.314203,-0.647508 c 0.638201,-1.322933 0.924241,-2.556969 0.924241,-3.978351 0,-2.073788 -0.717793,-4.0956579 -2.022115,-5.6767129 -0.29559,-0.365876 -1.018036,-1.074363 -1.379259,-1.369954 -1.745381,-1.412321 -4.1848,-2.116155 -6.497853,-1.886196 z m 2.040972,0.891425 c 1.172812,0.145468 2.439664,0.642854 3.51868,1.369953 0.637957,0.436407 1.651341,1.468403 2.101706,2.144074 1.839177,2.7727239 1.839177,6.3007099 0.0047,9.0548209 -1.834523,2.753867 -5.188877,4.114515 -8.454334,3.424885 C 8.501648,20.341534 6.183943,18.272399 5.283212,15.570205 4.049176,11.863689 5.588108,7.8478681 8.989483,5.9006921 c 1.501218,-0.858364 3.279416,-1.196322 5.113939,-0.966363 z m 9.48633,16.7536479 c 3.687659,3.692312 3.551497,3.53264 3.546843,4.119168 -0.0047,0.750609 -0.58163,1.327586 -1.327586,1.327586 -0.595835,0 -0.426856,0.145469 -4.128474,-3.560802 -3.195171,-3.194926 -3.350191,-3.359252 -3.261048,-3.424884 0.506692,-0.380081 1.163505,-1.027343 1.618769,-1.604566 0.08449,-0.107999 0.168979,-0.197142 0.182938,-0.197142 0.01396,2.45e-4 1.534035,1.506117 3.368558,3.34064 z"
       id="path4"
       style="fill:#d3dae3;fill-opacity:1;stroke-width:0.00244897" />
    <path
       d="m 11.916935,5.7975911 c -0.886772,0.145468 -1.51077,0.347264 -2.294195,0.755262 -1.975095,1.02269 -3.340396,2.885376 -3.786108,5.1560609 -0.126612,0.652161 -0.112653,1.946932 0.02351,2.636806 0.520896,2.594439 2.369378,4.710349 4.818348,5.517285 0.717794,0.239264 1.17771,0.319101 2.003258,0.347264 0.900731,0.03282 1.435586,-0.02351 2.181542,-0.220407 2.622602,-0.689875 4.593044,-2.772969 5.226347,-5.512877 0.150122,-0.66612 0.178285,-1.937625 0.05167,-2.678928 -0.272081,-1.576402 -0.905385,-2.8008869 -2.045625,-3.9362299 -1.079016,-1.074363 -2.16293,-1.670197 -3.649945,-1.998604 -0.576977,-0.126612 -1.942278,-0.164081 -2.528806,-0.06563 z m 2.18644,0.422202 c 0.680324,0.108 1.219832,0.286285 1.923666,0.633304 0.788079,0.394039 1.308974,0.774119 1.904809,1.398117 0.938445,0.975914 1.534035,2.1347669 1.80636,3.5047209 0.126612,0.637956 0.117306,1.904808 -0.02351,2.556969 -0.140816,0.671018 -0.290938,1.102526 -0.586528,1.71232 -0.919833,1.881299 -2.683827,3.241946 -4.78088,3.692312 -0.65216,0.136163 -1.951584,0.145469 -2.613295,0.01886 C 10.392206,19.473622 9.233353,18.872889 8.252786,17.934689 7.661604,17.367018 7.262912,16.836816 6.906342,16.147186 5.630184,13.660746 5.949285,10.709738 7.722829,8.5891741 c 0.666119,-0.792976 1.416974,-1.374606 2.336317,-1.80636 1.276158,-0.600487 2.594439,-0.783425 4.044229,-0.563018 z"
       id="path6-36"
       style="fill:#d3dae3;fill-opacity:1;stroke-width:0.00244897" />
    <path
       d="M 8.843967,8.9739051 C 8.126174,9.6353711 7.51638,10.82704 7.295728,11.995199 c -0.103101,0.572324 -0.07029,1.796809 0.07029,2.350521 0.243917,0.966364 0.769466,1.932972 1.440239,2.627255 0.164326,0.173632 0.215754,0.201796 0.389386,0.201796 0.253224,0 0.426856,-0.159428 0.426856,-0.389387 0,-0.136162 -0.06098,-0.234611 -0.33306,-0.553712 -1.655994,-1.951584 -1.623178,-4.663329 0.07518,-6.5681369 0.314448,-0.351917 0.342366,-0.530202 0.121959,-0.75061 -0.20155,-0.201795 -0.375182,-0.183183 -0.642611,0.06098 z"
       id="path8-7"
       style="fill:#08aaa6;fill-opacity:1;stroke-width:0.00244897" />
  </g>
</svg>
