<?xml version="1.0" encoding="UTF-8" standalone="no"?>
<svg
   xmlns:dc="http://purl.org/dc/elements/1.1/"
   xmlns:cc="http://creativecommons.org/ns#"
   xmlns:rdf="http://www.w3.org/1999/02/22-rdf-syntax-ns#"
   xmlns:svg="http://www.w3.org/2000/svg"
   xmlns="http://www.w3.org/2000/svg"
   xmlns:sodipodi="http://sodipodi.sourceforge.net/DTD/sodipodi-0.dtd"
   xmlns:inkscape="http://www.inkscape.org/namespaces/inkscape"
   width="32"
   height="32"
   version="1"
   id="svg22"
   sodipodi:docname="phone.svg"
   inkscape:version="1.0.1 (3bc2e813f5, 2020-09-07)">
  <metadata
     id="metadata28">
    <rdf:RDF>
      <cc:Work
         rdf:about="">
        <dc:format>image/svg+xml</dc:format>
        <dc:type
           rdf:resource="http://purl.org/dc/dcmitype/StillImage" />
      </cc:Work>
    </rdf:RDF>
  </metadata>
  <defs
     id="defs26" />
  <sodipodi:namedview
     pagecolor="#ffffff"
     bordercolor="#666666"
     borderopacity="1"
     objecttolerance="10"
     gridtolerance="10"
     guidetolerance="10"
     inkscape:pageopacity="0"
     inkscape:pageshadow="2"
     inkscape:window-width="1920"
     inkscape:window-height="1012"
     id="namedview24"
     showgrid="false"
     inkscape:zoom="13.876971"
     inkscape:cx="27.336129"
     inkscape:cy="6.4448332"
     inkscape:window-x="0"
     inkscape:window-y="0"
     inkscape:window-maximized="1"
     inkscape:current-layer="svg22"
     inkscape:document-rotation="0" />
  <g
     id="22-22-phone-battery"
     transform="translate(32,-22)">
    <rect
       style="opacity:0.00100002"
       width="22"
       height="22"
       x="0"
       y="0"
       id="rect2" />
    <path
       style="opacity:1;fill:#d3dae3;fill-opacity:1"
       d="M 8,3 C 6.892,3 6,3.892 6,5 v 12 c 0,1.108 0.892,2 2,2 h 5 2 c 1.108,0 2,-0.892 2,-2 V 5 C 17,3.892 16.107927,3 15,3 h -2 -3 z m 0,1 h 1 v 1 c 5.52e-5,0.5522619 0.4477381,0.9999448 1,1 h 3 c 0.552262,-5.52e-5 0.999945,-0.4477381 1,-1 V 4 h 1 c 0.571189,0 1,0.4287467 1,1 V 16 H 7 V 5 C 7,4.4287028 7.4287028,4 8,4 Z m 3,0 h 1 v 1 h -1 z m 1,3 -3,5 h 2 v 3 l 3,-5 H 12 Z M 8,17 h 1 v 1 H 8 Z m 3,0 h 1 v 1 h -1 z m 3,0 h 1 v 1 h -1 z"
       id="path4" />
  </g>
  <g
     id="22-22-phone"
     transform="translate(0,-22)">
    <rect
       style="opacity:0.00100002"
       width="22"
       height="22"
       x="0"
       y="0"
       id="rect7" />
    <path
       style="opacity:1;fill:#d3dae3;fill-opacity:1"
       d="M 8,3 C 6.892,3 6,3.892 6,5 v 12 c 0,1.108 0.892,2 2,2 h 5 2 c 1.108,0 2,-0.892 2,-2 V 5 C 17,3.892 16.107927,3 15,3 h -2 -3 z m 0,1 h 1 v 1 c 5.52e-5,0.5522619 0.4477381,0.9999448 1,1 h 3 c 0.552262,-5.52e-5 0.999945,-0.4477381 1,-1 V 4 h 1 c 0.571189,0 1,0.4287467 1,1 V 16 H 7 V 5 C 7,4.4287028 7.4287028,4 8,4 Z m 3,0 h 1 V 5 H 11 Z M 8,17 h 1 v 1 H 8 Z m 3,0 h 1 v 1 h -1 z m 3,0 h 1 v 1 h -1 z"
       id="path9" />
  </g>
  <g
     id="phone-battery"
     transform="translate(32)">
    <rect
       style="opacity:0.00100002"
       width="32"
       height="32"
       x="0"
       y="0"
       id="rect12" />
    <path
       style="opacity:1;fill:#d3dae3;fill-opacity:1"
       d="M 11.091797,4 C 9.3794325,4 8,5.3379999 8,7 v 18 c 0,1.662 1.3794325,3 3.091797,3 h 7.726562 3.089844 C 23.620567,28 25,26.662 25,25 V 7 C 25,5.3379999 23.620454,4 21.908203,4 h -3.089844 -4.636718 z m 0,1 H 13 v 1 c 0,0.554 0.446,1 1,1 h 5 c 0.554,0 1,-0.446 1,-1 V 5 h 1.908203 C 23.099502,5 24,5.8910119 24,7 V 25 H 9 V 7 C 9,5.8909662 9.9003497,5 11.091797,5 Z M 16,5 h 1 v 1 h -1 z m 1,5 -4,7 h 3 v 5 l 4,-7 h -3 z m -5,16 h 1 v 1 h -1 z m 4,0 h 1 v 1 h -1 z m 4,0 h 1 v 1 h -1 z"
       id="path14" />
  </g>
  <g
     id="phone">
    <rect
       style="opacity:0.00100002"
       width="32"
       height="32"
       x="0"
       y="0"
       id="rect17" />
    <path
       style="opacity:1;fill:#d3dae3;fill-opacity:1"
       d="M 11.091797,4 C 9.3794326,4 8,5.3379999 8,7 v 18 c 0,1.662 1.3794326,3 3.091797,3 h 7.726562 3.089844 C 23.620567,28 25,26.662 25,25 V 7 C 25,5.3379999 23.620454,4 21.908203,4 h -3.089844 -4.636718 z m 0,1 H 13 v 1 c 0,0.554 0.446,1 1,1 h 5 c 0.554,0 1,-0.446 1,-1 V 5 h 1.908203 C 23.099502,5 24,5.8910119 24,7 V 25 H 9 V 7 C 9,5.8909662 9.9003498,5 11.091797,5 Z M 16,5 h 1 v 1 h -1 z m -4,21 h 1 v 1 h -1 z m 4,0 h 1 v 1 h -1 z m 4,0 h 1 v 1 h -1 z"
       id="path19" />
  </g>
</svg>
