<?xml version="1.0" encoding="UTF-8" standalone="no"?>
<svg
   xmlns:dc="http://purl.org/dc/elements/1.1/"
   xmlns:cc="http://creativecommons.org/ns#"
   xmlns:rdf="http://www.w3.org/1999/02/22-rdf-syntax-ns#"
   xmlns:svg="http://www.w3.org/2000/svg"
   xmlns="http://www.w3.org/2000/svg"
   xmlns:xlink="http://www.w3.org/1999/xlink"
   xmlns:sodipodi="http://sodipodi.sourceforge.net/DTD/sodipodi-0.dtd"
   xmlns:inkscape="http://www.inkscape.org/namespaces/inkscape"
   version="1.1"
   x="0px"
   y="0px"
   viewBox="0 0 85.989945 78.329099"
   enable-background="new 0 0 1000 1000"
   xml:space="preserve"
   id="svg20"
   sodipodi:docname="printer.svg"
   inkscape:version="1.0.1 (3bc2e813f5, 2020-09-07)"
   width="85.989944"
   height="78.329102"><metadata
   id="metadata14"><rdf:RDF><cc:Work
       rdf:about=""><dc:format>image/svg+xml</dc:format><dc:type
         rdf:resource="http://purl.org/dc/dcmitype/StillImage" /></cc:Work></rdf:RDF></metadata><defs
   id="defs24"><linearGradient
     inkscape:collect="always"
     id="linearGradient4617"
     xlink:href="#linearGradient4303"
     y1="531.79797"
     y2="501.69922"
     gradientUnits="userSpaceOnUse"
     x2="0"
     gradientTransform="matrix(1.0833316,0,0,1.1666676,-410.61839,-570.43139)" /><linearGradient
     inkscape:collect="always"
     id="linearGradient4303"><stop
       style="stop-color:#c6cdd1"
       id="stop4305" /><stop
       offset="1"
       style="stop-color:#e0e5e7"
       id="stop4307" /></linearGradient><linearGradient
     inkscape:collect="always"
     id="linearGradient4930"
     xlink:href="#linearGradient4191"
     y1="533.79797"
     y2="537.79797"
     gradientUnits="userSpaceOnUse"
     x2="0"
     gradientTransform="matrix(1.1111099,0,0,1,-421.9678,-485.79798)" /><linearGradient
     inkscape:collect="always"
     id="linearGradient4386"
     xlink:href="#linearGradient4903"
     y1="505.798"
     y2="503.798"
     gradientUnits="userSpaceOnUse"
     x2="0"
     gradientTransform="translate(-376.57147,-497.79798)" /><linearGradient
     inkscape:collect="always"
     id="linearGradient4982"
     xlink:href="#linearGradient4976"
     x1="394.57144"
     gradientUnits="userSpaceOnUse"
     x2="422.57141"
     gradientTransform="matrix(1.1428557,0,0,1,-434.93822,-485.79798)" /><linearGradient
     inkscape:collect="always"
     id="linearGradient25"
     xlink:href="#linearGradient4770"
     y1="533.79797"
     y2="546.79797"
     x1="391.57144"
     gradientUnits="userSpaceOnUse"
     x2="404.57147"
     gradientTransform="translate(-378.57147,-485.79798)" /><linearGradient
     inkscape:collect="always"
     id="linearGradient4402"
     xlink:href="#linearGradient4903"
     y1="507.798"
     y2="505.798"
     gradientUnits="userSpaceOnUse"
     x2="0"
     gradientTransform="translate(-376.57147,-497.79798)" /><linearGradient
     inkscape:collect="always"
     id="linearGradient32"
     xlink:href="#linearGradient4903"
     y1="519.79797"
     y2="507.798"
     gradientUnits="userSpaceOnUse"
     x2="0"
     gradientTransform="matrix(1,0,0,1.3333333,-376.57147,-667.06397)" /><linearGradient
     inkscape:collect="always"
     id="linearGradient34"
     xlink:href="#linearGradient4199"
     y1="28"
     y2="12"
     gradientUnits="userSpaceOnUse"
     x2="0"
     gradientTransform="translate(5.9999797,16.000046)" /><linearGradient
     inkscape:collect="always"
     id="linearGradient4199"><stop
       style="stop-color:#2f3943"
       id="stop4201" /><stop
       offset="1"
       style="stop-color:#4d5662"
       id="stop4203" /></linearGradient><linearGradient
     inkscape:collect="always"
     id="linearGradient39"
     xlink:href="#linearGradient4199"
     y1="28"
     y2="12"
     gradientUnits="userSpaceOnUse"
     x2="0"
     gradientTransform="matrix(-1,0,0,1,57.99998,16.000046)" /><linearGradient
     gradientTransform="translate(-376.57147,-485.79798)"
     inkscape:collect="always"
     xlink:href="#linearGradient4199"
     id="linearGradient41"
     y1="524.79797"
     x1="425.57144"
     y2="511.798"
     x2="390.57144"
     gradientUnits="userSpaceOnUse" /><linearGradient
     inkscape:collect="always"
     id="linearGradient43"
     xlink:href="#linearGradient4770"
     y1="533.79797"
     y2="546.79797"
     x1="391.57144"
     gradientUnits="userSpaceOnUse"
     x2="404.57147"
     gradientTransform="translate(-376.57147,-507.79798)" /></defs><sodipodi:namedview
   pagecolor="#ffffff"
   bordercolor="#666666"
   borderopacity="1"
   objecttolerance="10"
   gridtolerance="10"
   guidetolerance="10"
   inkscape:pageopacity="0"
   inkscape:pageshadow="2"
   inkscape:window-width="1920"
   inkscape:window-height="1013"
   id="namedview22"
   showgrid="false"
   inkscape:zoom="5.3400704"
   inkscape:cx="68.345905"
   inkscape:cy="41.952589"
   inkscape:window-x="0"
   inkscape:window-y="0"
   inkscape:window-maximized="1"
   inkscape:current-layer="svg20"
   inkscape:lockguides="true"
   inkscape:snap-bbox="false"
   inkscape:document-rotation="0"><inkscape:grid
     originy="-57.252134"
     originx="181.82206"
     type="xygrid"
     id="grid844" /></sodipodi:namedview>

<rect
   width="51.999977"
   x="18.110222"
   y="30.20549"
   rx="0"
   height="28"
   style="fill:url(#linearGradient4617);stroke-width:2;stroke-linecap:round;stroke-linejoin:round"
   id="rect4288" /><rect
   width="52.000011"
   x="18.110191"
   y="58.205521"
   height="1.999974"
   style="fill:#737b81;stroke-width:2;stroke-linecap:round;stroke-linejoin:round"
   id="rect4290" /><rect
   width="39.999954"
   x="24.110191"
   y="56.205467"
   height="7"
   style="fill:url(#linearGradient4930);stroke-width:0.5;stroke-linejoin:round"
   id="rect4868" /><rect
   width="35.999954"
   x="26.110191"
   y="56.205467"
   height="9.9999475"
   style="fill:#eff0f1;stroke-width:0.5;stroke-linejoin:round"
   id="rect4299" /><rect
   width="36"
   x="26.110191"
   y="18.20546"
   height="16.000031"
   style="fill:#c6cdd1;stroke-width:0.5;stroke-linejoin:round;fill-opacity:1"
   id="rect4868-5" /><rect
   width="32"
   x="28.110191"
   y="14.20549"
   height="15.999996"
   style="fill:url(#linearGradient4386);stroke-width:0.5;stroke-linejoin:round"
   id="rect4299-2" /><rect
   width="31.999933"
   x="28.110191"
   y="56.205467"
   height="8.0000296"
   style="fill:url(#linearGradient4982);stroke-width:0.5;stroke-linejoin:round"
   id="rect4299-3" /><path
   inkscape:connector-curvature="0"
   style="opacity:0.2;fill:url(#linearGradient4950);fill-rule:evenodd"
   id="path4942"
   d="m 24.11018,56.205494 10,10 h 24 v -3 h 2 v -7 z" /><rect
   width="32"
   x="28.110191"
   y="16.20549"
   height="12"
   style="fill:url(#linearGradient4402);stroke-width:0.5;stroke-linejoin:round"
   id="rect4299-2-2-8" /><rect
   width="32"
   x="28.110191"
   y="18.20549"
   height="16"
   style="fill:url(#linearGradient4394);stroke-width:0.5;stroke-linejoin:round"
   id="rect4299-2-2" /><path
   inkscape:connector-curvature="0"
   style="fill:url(#linearGradient4545);stroke-width:2;stroke-linecap:round;stroke-linejoin:round"
   id="rect4512"
   d="m 18.1102,32.205519 v 22.000005 h 2 c 1.10802,0 2,-0.89198 2,-2 V 34.205519 c 0,-1.10802 -1,-2 -2,-2 z" /><path
   inkscape:connector-curvature="0"
   style="fill:url(#linearGradient4545-5);stroke-width:2;stroke-linecap:round;stroke-linejoin:round"
   id="rect4512-0"
   d="m 70.1102,32.205519 v 22.000005 h -2 c -1.10802,0 -2,-0.89198 -2,-2 V 34.205519 c 0,-1.10802 1,-2 2,-2 z" /><circle
   cx="68.110191"
   cy="52.205467"
   style="fill:#11d116;stroke-width:2;stroke-linecap:round;stroke-linejoin:round"
   r="1"
   id="path4292" /><rect
   width="44"
   x="22.110191"
   y="50.205467"
   height="1"
   style="fill:#99a1a7;stroke-width:2;stroke-linecap:round;stroke-linejoin:bevel"
   id="rect4826" /><path
   inkscape:connector-curvature="0"
   style="fill:url(#linearGradient4852);stroke-width:2;stroke-linecap:round;stroke-linejoin:bevel"
   id="rect4841"
   d="m 26.11022,34.205469 v 10.000005 c 0,1.108 0.892,2 2,2 h 32 c 1.108,0 2,-0.892 2,-2 V 34.205469 Z" /><path
   inkscape:connector-curvature="0"
   style="opacity:0.2;fill:url(#linearGradient4950-6);fill-rule:evenodd"
   id="path4942-8"
   d="m 26.11018,34.205489 14,14.000005 h 22 V 34.205489 Z" /><path
   inkscape:connector-curvature="0"
   style="fill:#d9d9d9"
   id="rect4119"
   d="m 43.11022,38.205399 c -0.1385,0 -0.25,0.1115 -0.25,0.25 0,0.1385 0.1115,0.25 0.25,0.25 0.1385,0 0.25,-0.1115 0.25,-0.25 0,-0.1385 -0.1115,-0.25 -0.25,-0.25 z m 1.75,0 -0.5,0.5 0.75,0.75 -0.25,0.25 -0.25,0.25 -0.25,0.25 0.5,0.5 0.25,-0.25 0.25,-0.25 0.25,-0.25 0.5,-0.5 z m -2.375,1.5 c -0.20775,0 -0.375,0.16725 -0.375,0.375 0,0.20775 0.16725,0.375 0.375,0.375 0.20775,0 0.375,-0.16725 0.375,-0.375 0,-0.20775 -0.16725,-0.375 -0.375,-0.375 z m 1.125,1.5 c -0.277,0 -0.5,0.223 -0.5,0.5 0,0.277 0.223,0.5 0.5,0.5 0.277,0 0.5,-0.223 0.5,-0.5 0,-0.277 -0.223,-0.5 -0.5,-0.5 z" /></svg>
