<?xml version="1.0" encoding="UTF-8" standalone="no"?>
<svg
   xmlns:dc="http://purl.org/dc/elements/1.1/"
   xmlns:cc="http://creativecommons.org/ns#"
   xmlns:rdf="http://www.w3.org/1999/02/22-rdf-syntax-ns#"
   xmlns:svg="http://www.w3.org/2000/svg"
   xmlns="http://www.w3.org/2000/svg"
   xmlns:sodipodi="http://sodipodi.sourceforge.net/DTD/sodipodi-0.dtd"
   xmlns:inkscape="http://www.inkscape.org/namespaces/inkscape"
   width="32"
   height="32"
   viewBox="0 0 32 32"
   version="1.1"
   id="svg867"
   inkscape:version="1.0.1 (3bc2e813f5, 2020-09-07)"
   sodipodi:docname="redshift.svg">
  <defs
     id="defs3871">
    <style
       type="text/css"
       id="current-color-scheme" />
  </defs>
  <sodipodi:namedview
     inkscape:object-paths="true"
     guideopacity="0.62745098"
     guidecolor="#0000ff"
     inkscape:bbox-nodes="true"
     inkscape:snap-intersection-paths="true"
     inkscape:snap-bbox="true"
     id="base"
     pagecolor="#ffffff"
     bordercolor="#000000"
     borderopacity="1"
     inkscape:pageopacity="0"
     inkscape:pageshadow="2"
     inkscape:zoom="15.839192"
     inkscape:cx="21.226353"
     inkscape:cy="18.804112"
     inkscape:document-units="px"
     inkscape:current-layer="layer1"
     inkscape:document-rotation="0"
     showgrid="false"
     inkscape:window-width="1920"
     inkscape:window-height="1012"
     inkscape:window-x="0"
     inkscape:window-y="0"
     inkscape:window-maximized="1"
     units="px"
     inkscape:snap-bbox-edge-midpoints="false"
     inkscape:lockguides="false">
    <inkscape:grid
       opacity="0.41960784"
       color="#3f3fff"
       type="xygrid"
       id="grid1448"
       originx="0"
       originy="0" />
  </sodipodi:namedview>
  <metadata
     id="metadata864">
    <rdf:RDF>
      <cc:Work
         rdf:about="">
        <dc:format>image/svg+xml</dc:format>
        <dc:type
           rdf:resource="http://purl.org/dc/dcmitype/StillImage" />
        <dc:title />
      </cc:Work>
    </rdf:RDF>
  </metadata>
  <g
     inkscape:label="Layer 1"
     inkscape:groupmode="layer"
     id="layer1">
    <g
       id="redshift-status-off">
      <rect
         style="opacity:0.003;fill:#000000;stroke-width:1"
         id="rect1033"
         width="32"
         height="32"
         x="32"
         y="0" />
      <path
         d="m 51.232639,7.2306546 v 8.9655284 l 0.923043,0.02639 V 7.2306546 c 0,-0.2542988 -0.207224,-0.4615223 -0.461522,-0.4615223 -0.254299,0 -0.461521,0.2072235 -0.461521,0.4615223 z"
         id="path12-5"
         style="fill:#808080;fill-opacity:1;stroke-width:0.461522"
         sodipodi:nodetypes="sccsss" />
      <path
         d="m 45.593877,24.507186 c -0.156905,0 -0.310117,-0.01523 -0.461484,-0.03691 v 1.882853 h 4.614837 v 0.922968 h -4.614837 v 0.461484 c 0,0.254277 0.207205,0.461485 0.461484,0.461485 h 4.614837 c 0.254279,0 0.461483,-0.207208 0.461483,-0.461485 v -3.267305 c -0.151366,0.0217 -0.30458,0.03691 -0.461483,0.03691 z"
         id="path14-3"
         style="fill:#d3dae3;fill-opacity:1;stroke-width:0.461484" />
      <path
         d="m 51.69416,5.8460878 c 0.763358,0 1.384566,0.6212091 1.384566,1.3845668 V 17.59952 h 0.923048 V 7.2306546 c 0,-1.2724167 -1.035199,-2.3076102 -2.307614,-2.3076102 -0.246453,0 -0.48829,0.043849 -0.719974,0.1195338 0.119996,0.2801441 0.199839,0.5810565 0.235837,0.8953524 0.151379,-0.056768 0.313373,-0.091847 0.484137,-0.091847 z"
         id="path16-5"
         style="fill:#808080;fill-opacity:1;stroke-width:0.461522"
         sodipodi:nodetypes="ssccssccs" />
      <path
         d="m 46.617418,6.3076105 c 0,-0.763358 0.621208,-1.3845661 1.384565,-1.3845661 0.763358,0 1.384566,0.6212081 1.384566,1.3845661 V 17.163072 l 0.923045,-0.0035 V 6.3076105 C 50.309594,5.0351935 49.2744,4 48.001983,4 46.729568,4 45.694373,5.0351935 45.694373,6.3076105 V 17.159536 l 0.923045,0.0035 z"
         id="path18-6"
         style="fill:#808080;fill-opacity:1;stroke-width:0.461522"
         sodipodi:nodetypes="sssccsssccs" />
      <path
         d="m 43.848284,7.2306546 v 8.9929144 h 0.923044 V 7.2306546 c 0,-0.2542988 -0.207223,-0.4615223 -0.461522,-0.4615223 -0.254299,0 -0.461522,0.2072235 -0.461522,0.4615223 z"
         id="path22-2"
         style="fill:#808080;fill-opacity:1;stroke-width:0.461522"
         sodipodi:nodetypes="sccsss" />
      <path
         d="m 47.540461,6.3076105 -1.53e-4,11.2589105 0.461675,0.007 0.461522,-0.007 V 10.717808 6.3076105 c 0,-0.254299 -0.207223,-0.4615227 -0.461522,-0.4615227 -0.254298,0 -0.461519,0.2072237 -0.461522,0.4615227 z"
         id="path24-9"
         style="fill:#808080;fill-opacity:1;stroke-width:0.461522"
         sodipodi:nodetypes="sccccsss" />
      <path
         d="m 42.92524,7.2306546 c 0,-0.7633577 0.621209,-1.3845668 1.384566,-1.3845668 0.170764,0 0.332757,0.035079 0.484137,0.092307 0.036,-0.3142959 0.115842,-0.6152083 0.235839,-0.8953524 -0.231685,-0.076147 -0.473523,-0.1199958 -0.719976,-0.1199958 -1.272416,0 -2.30761,1.0351935 -2.30761,2.3076105 V 17.59952 h 0.923044 z"
         id="path26-1"
         style="fill:#808080;fill-opacity:1;stroke-width:0.461522"
         sodipodi:nodetypes="ssccssccs" />
      <path
         d="m 41.703,18.542827 h 0.954537 V 19.49737 H 41.703 c 0,1.579315 1.284288,2.863612 2.86362,2.863612 h 0.477264 v 1.909072 h 5.727232 v -1.909072 h 0.47727 c 1.579317,0 2.863614,-1.284297 2.863614,-2.863612 H 53.157454 V 18.542827 H 54.112 V 17.58829 H 41.703 Z m 1.909081,0 h 8.590837 v 0.954543 h -8.590837 z m 0,0"
         id="path30-2"
         style="fill:#d3dae3;fill-opacity:1;stroke-width:0.0596581" />
    </g>
    <g
       id="redshift-status-on">
      <rect
         y="0"
         x="3.5527137e-15"
         height="32"
         width="32"
         id="rect910"
         style="opacity:0.003;fill:#000000;stroke-width:1" />
      <path
         d="M 19.257461,7.3297688 V 16.295613 L 20.180537,16.322 V 7.3297688 c 0,-0.2543077 -0.207231,-0.4615384 -0.461538,-0.4615384 -0.254308,0 -0.461538,0.2072307 -0.461538,0.4615384 z"
         id="path12"
         style="fill:#08a19d;fill-opacity:1;stroke-width:0.461538"
         sodipodi:nodetypes="sccsss" />
      <path
         d="m 13.6185,24.60691 c -0.15691,0 -0.310128,-0.01523 -0.4615,-0.03691 v 1.882919 h 4.615 v 0.923001 h -4.615 v 0.4615 c 0,0.254286 0.207212,0.461501 0.4615,0.461501 h 4.615 c 0.254288,0 0.4615,-0.207215 0.4615,-0.461501 V 24.57 c -0.151372,0.02169 -0.304591,0.03691 -0.4615,0.03691 z"
         id="path14"
         style="fill:#d3dae3;fill-opacity:1;stroke-width:0.4615" />
      <path
         d="m 19.718999,5.9451536 c 0.763385,0 1.384615,0.6212306 1.384615,1.3846152 V 17.699 H 22.02669 V 7.3297688 c 0,-1.2724614 -1.035231,-2.307692 -2.307691,-2.307692 -0.246462,0 -0.488308,0.043846 -0.72,0.1195384 0.12,0.2801538 0.199846,0.5810768 0.235846,0.8953845 0.151384,-0.05677 0.313384,-0.091846 0.484154,-0.091846 z"
         id="path16"
         style="fill:#08a19d;fill-opacity:1;stroke-width:0.461538"
         sodipodi:nodetypes="ssccssccs" />
      <path
         d="m 14.642077,6.406692 c 0,-0.7633846 0.62123,-1.3846152 1.384614,-1.3846152 0.763385,0 1.384615,0.6212306 1.384615,1.3846152 V 17.262537 L 18.334384,17.259 V 6.406692 C 18.334384,5.1342306 17.299153,4.099 16.026691,4.099 14.754231,4.099 13.719,5.1342306 13.719,6.406692 V 17.259 l 0.923077,0.0035 z"
         id="path18"
         style="fill:#08a19d;fill-opacity:1;stroke-width:0.461538"
         sodipodi:nodetypes="sssccsssccs" />
      <path
         d="M 11.872846,7.3297688 V 16.323 h 0.923076 V 7.3297688 c 0,-0.2543077 -0.20723,-0.4615384 -0.461538,-0.4615384 -0.254308,0 -0.461538,0.2072307 -0.461538,0.4615384 z"
         id="path22"
         style="fill:#08a19d;fill-opacity:1;stroke-width:0.461538"
         sodipodi:nodetypes="sccsss" />
      <path
         d="M 15.565153,6.406692 15.565,17.666 16.026691,17.673 16.48823,17.666 V 10.817045 6.406692 c 0,-0.2543077 -0.207231,-0.4615384 -0.461539,-0.4615384 -0.254307,0 -0.461535,0.2072307 -0.461538,0.4615384 z"
         id="path24"
         style="fill:#08a19d;fill-opacity:1;stroke-width:0.461538"
         sodipodi:nodetypes="sccccsss" />
      <path
         d="m 10.949769,7.3297688 c 0,-0.7633846 0.621231,-1.3846152 1.384615,-1.3846152 0.17077,0 0.332769,0.035077 0.484154,0.092308 0.036,-0.3143077 0.115846,-0.6152307 0.235847,-0.8953845 -0.231693,-0.076154 -0.473539,-0.12 -0.720001,-0.12 -1.272461,0 -2.307691,1.0352306 -2.307691,2.307692 V 17.699 h 0.923076 z"
         id="path26"
         style="fill:#08a19d;fill-opacity:1;stroke-width:0.461538"
         sodipodi:nodetypes="ssccssccs" />
      <path
         d="m 9.727486,18.64234 h 0.954571 v 0.954577 H 9.727486 c 0,1.579371 1.284333,2.863713 2.863721,2.863713 h 0.477281 v 1.909139 h 5.727434 V 22.46063 h 0.477287 c 1.579373,0 2.863717,-1.284342 2.863717,-2.863713 H 21.182345 V 18.64234 h 0.954581 V 17.687769 H 9.727486 Z m 1.909148,0 h 8.591141 v 0.954577 h -8.591141 z m 0,0"
         id="path30"
         style="fill:#d3dae3;fill-opacity:1;stroke-width:0.0596602" />
    </g>
    <g
       id="22-22-redshift-status-off">
      <rect
         style="opacity:0.003;fill-opacity:1"
         id="rect1467-9-7-9-9-4-67"
         width="22"
         height="22"
         x="-22"
         y="10" />
      <path
         d="m -8.8591692,15.161506 v 5.92785 l 0.6103,0.01745 v -5.945299 c 0,-0.168138 -0.1370129,-0.305151 -0.3051503,-0.305151 -0.1681381,0 -0.3051497,0.137013 -0.3051497,0.30515 z"
         id="path12-5-7"
         style="fill:#808080;fill-opacity:1;stroke-width:0.30515"
         sodipodi:nodetypes="sccsss" />
      <path
         d="m -12.58742,26.584446 c -0.103743,0 -0.205044,-0.01007 -0.305125,-0.0244 v 1.24491 h 3.051249 v 0.61025 h -3.051249 v 0.305125 c 0,0.16812 0.137,0.305122 0.305125,0.305122 h 3.051249 c 0.168125,0 0.305125,-0.137002 0.305125,-0.305126 v -2.160285 c -0.100081,0.01435 -0.201383,0.0244 -0.305125,0.0244 z"
         id="path14-3-0"
         style="fill:#d3dae3;fill-opacity:1;stroke-width:0.305125" />
      <path
         d="m -8.5540195,14.246054 c 0.504719,0 0.9154504,0.410733 0.9154504,0.915452 v 6.855712 h 0.610304 v -6.855712 c 0,-0.8413 -0.684456,-1.525752 -1.5257544,-1.525752 -0.1629504,0 -0.3228488,0.02899 -0.4760343,0.07903 0.079339,0.185227 0.1321301,0.384185 0.1559313,0.591992 0.1000892,-0.03753 0.2071968,-0.06073 0.320103,-0.06073 z"
         id="path16-5-9"
         style="fill:#808080;fill-opacity:1;stroke-width:0.30515"
         sodipodi:nodetypes="ssccssccs" />
      <path
         d="m -11.910673,14.551204 c 0,-0.504718 0.410732,-0.91545 0.915451,-0.91545 0.504718,0 0.91545,0.410732 0.91545,0.91545 v 7.177442 l 0.610302,-0.0023 v -7.175142 c 0,-0.841299 -0.684453,-1.525751 -1.525752,-1.525751 -0.841299,0 -1.525752,0.684452 -1.525752,1.525751 v 7.175104 l 0.610301,0.0023 z"
         id="path18-6-36"
         style="fill:#808080;fill-opacity:1;stroke-width:0.30515"
         sodipodi:nodetypes="sssccsssccs" />
      <path
         d="m -13.741576,15.161506 v 5.945957 h 0.610301 v -5.945957 c 0,-0.168138 -0.137012,-0.305151 -0.305151,-0.305151 -0.168138,0 -0.30515,0.137013 -0.30515,0.305151 z"
         id="path22-2-0"
         style="fill:#808080;fill-opacity:1;stroke-width:0.30515"
         sodipodi:nodetypes="sccsss" />
      <path
         d="m -11.300373,14.551204 -1.01e-4,7.444196 0.305252,0.0046 0.30515,-0.0046 v -4.52825 -2.915946 c 0,-0.168137 -0.137012,-0.30515 -0.30515,-0.30515 -0.168138,0 -0.305149,0.137013 -0.305151,0.30515 z"
         id="path24-9-6"
         style="fill:#808080;fill-opacity:1;stroke-width:0.30515"
         sodipodi:nodetypes="sccccsss" />
      <path
         d="m -14.351876,15.161506 c 0,-0.504719 0.410732,-0.915452 0.915451,-0.915452 0.112906,0 0.220013,0.02319 0.320102,0.06103 0.0238,-0.207807 0.07659,-0.406765 0.155933,-0.591992 -0.153186,-0.05035 -0.313085,-0.07934 -0.476036,-0.07934 -0.841299,0 -1.525751,0.684451 -1.525751,1.525751 v 6.855709 h 0.610301 v -2.713874 z"
         id="path26-1-2"
         style="fill:#808080;fill-opacity:1;stroke-width:0.30515"
         sodipodi:nodetypes="ssccsscccs" />
      <path
         d="m -15.16,22.640916 h 0.631123 v 0.631128 H -15.16 c 0,1.044215 0.849149,1.89337 1.893376,1.89337 h 0.315558 v 1.262245 h 3.7867459 v -1.262245 h 0.3155626 c 1.0442164,0 1.8933714,-0.849155 1.8933714,-1.89337 h -0.631129 v -0.631128 h 0.631129 V 22.009793 H -15.16 Z m 1.262251,0 h 5.6801114 v 0.631128 h -5.6801114 z m 0,0"
         id="path30-2-6"
         style="fill:#d3dae3;fill-opacity:1;stroke-width:0.0394449" />
    </g>
    <g
       id="22-22-redshift-status-on">
      <rect
         y="10"
         x="-44"
         height="22"
         width="22"
         id="rect1467-9-7-9-9-4"
         style="opacity:0.003;fill-opacity:1" />
      <path
         d="m -30.769169,15.166106 v 5.92785 l 0.6103,0.01745 v -5.945299 c 0,-0.168138 -0.137013,-0.305151 -0.30515,-0.305151 -0.168139,0 -0.30515,0.137013 -0.30515,0.30515 z"
         id="path12-5-7-1"
         style="fill:#08a19d;fill-opacity:1;stroke-width:0.30515"
         sodipodi:nodetypes="sccsss" />
      <path
         d="m -34.49742,26.589046 c -0.103743,0 -0.205044,-0.01007 -0.305125,-0.0244 v 1.24491 h 3.051249 v 0.61025 h -3.051249 v 0.305125 c 0,0.16812 0.137,0.305122 0.305125,0.305122 h 3.051249 c 0.168125,0 0.305125,-0.137002 0.305125,-0.305126 v -2.160285 c -0.100081,0.01435 -0.201383,0.0244 -0.305125,0.0244 z"
         id="path14-3-0-8"
         style="fill:#d3dae3;fill-opacity:1;stroke-width:0.305125" />
      <path
         d="m -30.464019,14.250654 c 0.504719,0 0.91545,0.410733 0.91545,0.915452 v 6.855712 h 0.610304 v -6.855712 c 0,-0.8413 -0.684456,-1.525752 -1.525754,-1.525752 -0.162951,0 -0.322849,0.02899 -0.476035,0.07903 0.07934,0.185227 0.13213,0.384185 0.155931,0.591992 0.10009,-0.03753 0.207197,-0.06073 0.320104,-0.06073 z"
         id="path16-5-9-7"
         style="fill:#08a19d;fill-opacity:1;stroke-width:0.30515"
         sodipodi:nodetypes="ssccssccs" />
      <path
         d="m -33.820673,14.555804 c 0,-0.504718 0.410732,-0.91545 0.915451,-0.91545 0.504718,0 0.91545,0.410732 0.91545,0.91545 v 7.177442 l 0.610302,-0.0023 v -7.175142 c 0,-0.841299 -0.684453,-1.525751 -1.525752,-1.525751 -0.841299,0 -1.525752,0.684452 -1.525752,1.525751 v 7.175104 l 0.610301,0.0023 z"
         id="path18-6-36-9"
         style="fill:#08a19d;fill-opacity:1;stroke-width:0.30515"
         sodipodi:nodetypes="sssccsssccs" />
      <path
         d="m -35.651576,15.166106 v 5.945957 h 0.610301 v -5.945957 c 0,-0.168138 -0.137012,-0.305151 -0.305151,-0.305151 -0.168138,0 -0.30515,0.137013 -0.30515,0.305151 z"
         id="path22-2-0-2"
         style="fill:#08a19d;fill-opacity:1;stroke-width:0.30515"
         sodipodi:nodetypes="sccsss" />
      <path
         d="M -33.210373,14.555804 -33.210474,22 -32.905222,22.0046 -32.600072,22 v -4.52825 -2.915946 c 0,-0.168137 -0.137012,-0.30515 -0.30515,-0.30515 -0.168138,0 -0.305149,0.137013 -0.305151,0.30515 z"
         id="path24-9-6-0"
         style="fill:#08a19d;fill-opacity:1;stroke-width:0.30515"
         sodipodi:nodetypes="sccccsss" />
      <path
         d="m -36.261876,15.166106 c 0,-0.504719 0.410732,-0.915452 0.915451,-0.915452 0.112906,0 0.220013,0.02319 0.320102,0.06103 0.0238,-0.207807 0.07659,-0.406765 0.155933,-0.591992 -0.153186,-0.05035 -0.313085,-0.07934 -0.476036,-0.07934 -0.841299,0 -1.525751,0.684451 -1.525751,1.525751 v 6.855709 h 0.610301 z"
         id="path26-1-2-2"
         style="fill:#08a19d;fill-opacity:1;stroke-width:0.30515"
         sodipodi:nodetypes="ssccssccs" />
      <path
         d="m -37.07,22.645516 h 0.631123 v 0.631128 H -37.07 c 0,1.044215 0.849149,1.89337 1.893376,1.89337 h 0.315558 v 1.262245 h 3.786746 v -1.262245 h 0.315563 c 1.044216,0 1.893371,-0.849155 1.893371,-1.89337 h -0.631129 v -0.631128 h 0.631129 V 22.014393 H -37.07 Z m 1.262251,0 h 5.680111 v 0.631128 h -5.680111 z m 0,0"
         id="path30-2-6-3"
         style="fill:#d3dae3;fill-opacity:1;stroke-width:0.0394449" />
    </g>
  </g>
</svg>
