<?xml version="1.0" encoding="UTF-8" standalone="no"?>
<svg
   width="46"
   height="44"
   id="svg7229"
   sodipodi:version="0.32"
   inkscape:version="1.2.1 (9c6d41e410, 2022-07-14)"
   version="1.0"
   sodipodi:docname="zoom.svg"
   inkscape:output_extension="org.inkscape.output.svg.inkscape"
   viewBox="0 0 46 44"
   xmlns:inkscape="http://www.inkscape.org/namespaces/inkscape"
   xmlns:sodipodi="http://sodipodi.sourceforge.net/DTD/sodipodi-0.dtd"
   xmlns="http://www.w3.org/2000/svg"
   xmlns:svg="http://www.w3.org/2000/svg"
   xmlns:rdf="http://www.w3.org/1999/02/22-rdf-syntax-ns#"
   xmlns:cc="http://creativecommons.org/ns#"
   xmlns:dc="http://purl.org/dc/elements/1.1/">
  <defs
     id="defs7231">
    <style
       id="current-color-scheme"
       type="text/css" />
    <style
       type="text/css"
       id="style3" />
  </defs>
  <sodipodi:namedview
     id="base"
     pagecolor="#ffffff"
     bordercolor="#000000"
     borderopacity="1"
     inkscape:pageopacity="0"
     inkscape:pageshadow="2"
     inkscape:zoom="5.6568545"
     inkscape:cx="61.606676"
     inkscape:cy="18.11961"
     inkscape:document-units="px"
     inkscape:current-layer="layer1"
     showgrid="false"
     inkscape:window-width="1920"
     inkscape:window-height="1002"
     inkscape:window-x="0"
     inkscape:window-y="0"
     showguides="true"
     inkscape:guide-bbox="true"
     gridtolerance="6"
     inkscape:window-maximized="1"
     inkscape:snap-bbox="true"
     inkscape:snap-bbox-edge-midpoints="false"
     inkscape:bbox-nodes="false"
     inkscape:bbox-paths="false"
     inkscape:snap-bbox-midpoints="false"
     inkscape:object-paths="true"
     inkscape:snap-intersection-paths="true"
     inkscape:object-nodes="true"
     fit-margin-top="0"
     fit-margin-left="0"
     fit-margin-right="0"
     fit-margin-bottom="0"
     inkscape:snap-nodes="true"
     inkscape:showpageshadow="false"
     borderlayer="true"
     inkscape:document-rotation="0"
     inkscape:lockguides="false"
     inkscape:pagecheckerboard="0"
     inkscape:deskcolor="#d1d1d1">
    <inkscape:grid
       type="xygrid"
       id="grid7245"
       visible="true"
       enabled="true"
       empspacing="5"
       snapvisiblegridlinesonly="true"
       originx="-63.012496"
       originy="-13.999968"
       spacingx="1"
       spacingy="1" />
  </sodipodi:namedview>
  <metadata
     id="metadata7234">
    <rdf:RDF>
      <cc:Work
         rdf:about="">
        <dc:format>image/svg+xml</dc:format>
        <dc:type
           rdf:resource="http://purl.org/dc/dcmitype/StillImage" />
      </cc:Work>
    </rdf:RDF>
  </metadata>
  <g
     inkscape:label="Camada 1"
     inkscape:groupmode="layer"
     id="layer1"
     transform="translate(-277.54822,-368.50504)">
    <g
       id="zoom-fit-height">
      <rect
         y="390.50504"
         x="277.54822"
         height="22"
         width="22"
         id="rect3046"
         style="fill:#566060;fill-opacity:0;stroke:none" />
      <path
         d="m 290.92431,396.05512 c -0.0112,-0.0255 -0.0254,-0.0563 -0.0541,-0.0836 l -2.2359,-2.77556 c -0.11534,-0.10704 -0.2452,-0.10704 -0.36059,0 l -2.23588,2.77556 c -0.11535,0.10704 -0.0652,0.2172 0.1085,0.2172 h 1.44243 v 10.70019 h -1.44243 c -0.17309,0 -0.22333,0.11018 -0.1085,0.21722 l 2.23588,2.77566 c 0.11539,0.10687 0.24525,0.10687 0.36059,0 l 2.2359,-2.77566 c 0.11544,-0.10704 0.064,-0.21722 -0.10854,-0.21722 h -1.44247 v -10.70015 h 1.44247 c 0.12991,0 0.18642,-0.0587 0.16224,-0.13374 z"
         id="path2-3"
         style="fill:#d3dae3;fill-opacity:1;stroke-width:0.555604" />
      <path
         d="m 297.85047,391.50578 h -18.60465 c -0.18305,0 -0.35233,0.0629 -0.47793,0.17639 -0.007,0.007 -0.0125,0.0109 -0.0204,0.0186 l -0.0139,0.0126 c -0.1195,0.11583 -0.18536,0.27097 -0.18536,0.43859 v 0.21568 c 0,0.3566 0.31296,0.64681 0.69765,0.64681 h 18.6047 c 0.38467,0 0.69765,-0.29021 0.69765,-0.64681 v -0.21568 c 0,-0.3567 -0.31298,-0.64691 -0.69765,-0.64691 z"
         id="path2"
         style="fill:#d3dae3;fill-opacity:1;stroke-width:0.223934" />
      <path
         d="m 297.85047,409.99635 h -18.60465 c -0.18305,0 -0.35233,0.0629 -0.47793,0.17637 -0.007,0.007 -0.0125,0.0113 -0.0204,0.0186 l -0.0139,0.0126 c -0.1195,0.11588 -0.18536,0.27102 -0.18536,0.43852 v 0.21568 c 0,0.35672 0.31296,0.64693 0.69765,0.64693 h 18.6047 c 0.38467,0 0.69765,-0.29021 0.69765,-0.64693 v -0.21568 c 0,-0.35658 -0.31298,-0.64679 -0.69765,-0.64679 z"
         id="path2-7"
         style="fill:#d3dae3;fill-opacity:1;stroke-width:0.223934" />
    </g>
    <g
       id="zoom-fit-width">
      <rect
         style="fill:#566060;fill-opacity:0;stroke:none"
         id="rect3827"
         width="22"
         height="22"
         x="390.50504"
         y="-323.54822"
         transform="rotate(90)" />
      <path
         d="m 318.05104,403.88072 c 0.0256,-0.0112 0.0566,-0.0254 0.084,-0.0541 l 2.78877,-2.2359 c 0.10747,-0.11534 0.10747,-0.2452 0,-0.36059 l -2.78877,-2.23588 c -0.10753,-0.11535 -0.21828,-0.0652 -0.21828,0.1085 v 1.44243 h -10.7509 v -1.44243 c 0,-0.17309 -0.11073,-0.22333 -0.21825,-0.1085 l -2.78882,2.23588 c -0.10741,0.11539 -0.10741,0.24525 0,0.36059 l 2.78882,2.2359 c 0.10752,0.11544 0.21825,0.064 0.21825,-0.10854 v -1.44247 h 10.75089 v 1.44247 c 0,0.12991 0.059,0.18642 0.13439,0.16224 z"
         id="path2-3-6"
         style="fill:#d3dae3;fill-opacity:1;stroke-width:0.556919" />
      <path
         d="m 304.06411,410.80729 v -18.60465 c 0,-0.18305 -0.0632,-0.35233 -0.17722,-0.47793 -0.007,-0.007 -0.0111,-0.0125 -0.0187,-0.0204 l -0.0127,-0.0139 c -0.1163,-0.1195 -0.27223,-0.18536 -0.44056,-0.18536 h -0.21676 c -0.35839,0 -0.64994,0.31296 -0.64994,0.69765 v 18.6047 c 0,0.38467 0.29155,0.69765 0.64994,0.69765 h 0.21676 c 0.35833,0 0.64992,-0.31298 0.64992,-0.69765 z"
         id="path2-5"
         style="fill:#d3dae3;fill-opacity:1;stroke-width:0.224464" />
      <path
         d="m 322.54756,410.80729 v -18.60465 c 0,-0.18305 -0.0632,-0.35233 -0.17718,-0.47793 -0.007,-0.007 -0.0112,-0.0125 -0.0187,-0.0204 l -0.0127,-0.0139 c -0.11641,-0.1195 -0.27233,-0.18536 -0.44067,-0.18536 h -0.21676 c -0.35835,0 -0.64994,0.31296 -0.64994,0.69765 v 18.6047 c 0,0.38467 0.29159,0.69765 0.64994,0.69765 h 0.21676 c 0.35837,0 0.64992,-0.31298 0.64992,-0.69765 z"
         id="path2-5-3"
         style="fill:#d3dae3;fill-opacity:1;stroke-width:0.224464" />
    </g>
    <g
       id="16-16-zoom-fit-width">
      <rect
         style="fill:#566060;fill-opacity:0;stroke:none"
         id="rect3851"
         width="16"
         height="16"
         x="368.50504"
         y="-295.53574"
         transform="rotate(90)" />
      <path
         d="m 291.41706,378.16885 c 0.0181,-0.0101 0.039,-0.0182 0.0593,-0.0377 l 1.95217,-1.5651 c 0.0756,-0.0804 0.0756,-0.1717 0,-0.25251 l -1.95217,-1.56512 c -0.0756,-0.0803 -0.15275,-0.0457 -0.15275,0.0766 v 1.00965 h -7.52569 v -1.00965 c 0,-0.12127 -0.0773,-0.15636 -0.15277,-0.0766 l -1.95217,1.56512 c -0.0756,0.0804 -0.0756,0.17177 0,0.25251 l 1.95217,1.5651 c 0.0757,0.0805 0.15277,0.0453 0.15277,-0.0767 v -1.00963 h 7.52565 v 1.00963 c 0,0.0912 0.041,0.13046 0.0939,0.11356 z"
         id="path2-3-6-5"
         style="fill:#d3dae3;fill-opacity:1;stroke-width:0.389835" />
      <path
         d="m 281.59754,383.01719 v -13.02335 c 0,-0.12803 -0.0448,-0.24666 -0.124,-0.33457 -0.007,-0.007 -0.0101,-0.0101 -0.0127,-0.0144 l -0.0101,-0.0101 c -0.0808,-0.0836 -0.19051,-0.12972 -0.30828,-0.12972 h -0.1518 c -0.25091,0 -0.45494,0.21911 -0.45494,0.48829 v 13.02342 c 0,0.26918 0.20403,0.48829 0.45494,0.48829 h 0.1518 c 0.25077,0 0.45492,-0.21911 0.45492,-0.48829 z"
         id="path2-5-6"
         style="fill:#d3dae3;fill-opacity:1;stroke-width:0.157128" />
      <path
         d="m 294.53598,383.01719 v -13.02335 c 0,-0.12803 -0.0452,-0.24666 -0.12405,-0.33457 -0.007,-0.007 -0.0101,-0.0101 -0.0127,-0.0144 l -0.0101,-0.0101 c -0.0809,-0.0836 -0.19061,-0.12972 -0.30851,-0.12972 h -0.1518 c -0.25067,0 -0.45494,0.21911 -0.45494,0.48829 v 13.02342 c 0,0.26918 0.20427,0.48829 0.45494,0.48829 h 0.1518 c 0.25093,0 0.45492,-0.21911 0.45492,-0.48829 z"
         id="path2-5-3-2"
         style="fill:#d3dae3;fill-opacity:1;stroke-width:0.157128" />
    </g>
    <g
       id="16-16-zoom-fit-height">
      <rect
         y="368.50504"
         x="300.54825"
         height="16"
         width="16"
         id="rect3841"
         style="fill:#566060;fill-opacity:0;stroke:none" />
      <path
         d="m 310.21183,372.68956 c -0.01,-0.0184 -0.018,-0.0392 -0.0376,-0.0587 l -1.56509,-1.94288 c -0.0806,-0.0753 -0.17169,-0.0753 -0.25243,0 l -1.56513,1.94288 c -0.0806,0.0753 -0.0457,0.152 0.0764,0.152 h 1.00966 v 7.49009 h -1.00966 c -0.12123,0 -0.15634,0.0772 -0.0764,0.15204 l 1.56513,1.943 c 0.0807,0.0751 0.17167,0.0751 0.25243,0 l 1.56509,-1.943 c 0.0807,-0.0753 0.0451,-0.15204 -0.0763,-0.15204 h -1.00968 v -7.49003 h 1.00965 c 0.0909,0 0.13046,-0.0407 0.11355,-0.0933 z"
         id="path2-3-9"
         style="fill:#d3dae3;fill-opacity:1;stroke-width:0.38892" />
      <path
         d="m 315.06012,369.50505 h -13.02319 c -0.12808,0 -0.24666,0.0445 -0.33458,0.12351 -0.007,0.007 -0.01,0.01 -0.0144,0.0126 l -0.01,0.01 c -0.0836,0.081 -0.12971,0.1896 -0.12971,0.30705 v 0.15092 c 0,0.24957 0.21909,0.45274 0.48834,0.45274 h 13.02321 c 0.2692,0 0.48834,-0.20317 0.48834,-0.45274 v -0.15092 c 0,-0.2497 -0.21914,-0.45289 -0.48834,-0.45289 z"
         id="path2-1"
         style="fill:#d3dae3;fill-opacity:1;stroke-width:0.156751" />
      <path
         d="m 315.06012,382.44831 h -13.02319 c -0.12808,0 -0.24666,0.0445 -0.33458,0.12347 -0.007,0.007 -0.01,0.01 -0.0144,0.0126 l -0.01,0.01 c -0.0836,0.0811 -0.12971,0.18962 -0.12971,0.3069 v 0.15094 c 0,0.2497 0.21909,0.45289 0.48834,0.45289 h 13.02321 c 0.2692,0 0.48834,-0.20319 0.48834,-0.45289 v -0.1509 c 0,-0.24956 -0.21914,-0.45273 -0.48834,-0.45273 z"
         id="path2-7-2"
         style="fill:#d3dae3;fill-opacity:1;stroke-width:0.156751" />
    </g>
  </g>
</svg>
